<svg width="1500" height="800" viewBox="0 0 1500 800" fill="none" xmlns="http://www.w3.org/2000/svg">
<path d="M46.3535 0H48.2077V800H46.3535V0Z" fill="#151515"/>
<path d="M94.5612 0H96.4153V800H94.5612V0Z" fill="#151515"/>
<path d="M142.769 0H144.623V800H142.769V0Z" fill="#151515"/>
<path d="M190.977 0H192.831V800H190.977V0Z" fill="#151515"/>
<path d="M239.184 0H241.038V800H239.184V0Z" fill="#151515"/>
<path d="M287.392 0H289.246V800H287.392V0Z" fill="#151515"/>
<path d="M335.599 0H337.454V800H335.599V0Z" fill="#151515"/>
<path d="M383.807 0H385.661V800H383.807V0Z" fill="#151515"/>
<path d="M432.015 0H433.869V800H432.015V0Z" fill="#151515"/>
<path d="M480.222 0H482.077V800H480.222V0Z" fill="#151515"/>
<path d="M528.43 0H530.284V800H528.43V0Z" fill="#151515"/>
<path d="M576.638 0H578.492V800H576.638V0Z" fill="#151515"/>
<path d="M624.845 0H626.7V800H624.845V0Z" fill="#151515"/>
<path d="M673.053 0H674.907V800H673.053V0Z" fill="#151515"/>
<path d="M721.261 0H723.115V800H721.261V0Z" fill="#151515"/>
<path d="M769.468 0H771.323V800H769.468V0Z" fill="#151515"/>
<path d="M817.676 0H819.53V800H817.676V0Z" fill="#151515"/>
<path d="M865.884 0H867.738V800H865.884V0Z" fill="#151515"/>
<path d="M914.091 0H915.946V800H914.091V0Z" fill="#151515"/>
<path d="M962.299 0H964.153V800H962.299V0Z" fill="#151515"/>
<path d="M1010.51 0H1012.36V800H1010.51V0Z" fill="#151515"/>
<path d="M1058.71 0H1060.57V800H1058.71V0Z" fill="#151515"/>
<path d="M1106.92 0H1108.78V800H1106.92V0Z" fill="#151515"/>
<path d="M1155.13 0H1156.98V800H1155.13V0Z" fill="#151515"/>
<path d="M1203.34 0H1205.19V800H1203.34V0Z" fill="#151515"/>
<path d="M1251.55 0H1253.4V800H1251.55V0Z" fill="#151515"/>
<path d="M1299.75 0H1301.61V800H1299.75V0Z" fill="#151515"/>
<path d="M1347.96 0H1349.81V800H1347.96V0Z" fill="#151515"/>
<path d="M1396.17 0H1398.02V800H1396.17V0Z" fill="#151515"/>
<path d="M1444.38 0H1446.23V800H1444.38V0Z" fill="#151515"/>
<path d="M0 50H1500V52H0V50Z" fill="#151515"/>
<path d="M0 102H1500V104H0V102Z" fill="#151515"/>
<path d="M0 154H1500V156H0V154Z" fill="#151515"/>
<path d="M0 206H1500V208H0V206Z" fill="#151515"/>
<path d="M0 258H1500V260H0V258Z" fill="#151515"/>
<path d="M0 310H1500V312H0V310Z" fill="#151515"/>
<path d="M0 362H1500V364H0V362Z" fill="#151515"/>
<path d="M0 414H1500V416H0V414Z" fill="#151515"/>
<path d="M0 466H1500V468H0V466Z" fill="#151515"/>
<path d="M0 518H1500V520H0V518Z" fill="#151515"/>
<path d="M0 570H1500V572H0V570Z" fill="#151515"/>
<path d="M0 622H1500V624H0V622Z" fill="#151515"/>
<path d="M0 674H1500V676H0V674Z" fill="#151515"/>
<path d="M0 726H1500V728H0V726Z" fill="#151515"/>
<path d="M0 778H1500V780H0V778Z" fill="#151515"/>
</svg>
