<svg xmlns="http://www.w3.org/2000/svg" width="300" height="300" fill="none"><path fill="#111" d="M214.739 270.78h-102.66c-6.12 0-11.34-4.38-12.42-10.38L61.2 44.88C60 38.04 64.56 31.5 71.4 30.3q1.08-.18 2.16-.18h102.72c6.12 0 11.34 4.38 12.42 10.38l38.46 215.46c1.2 6.84-3.36 13.38-10.2 14.58-.72.18-1.44.24-2.22.24"/><path fill="#111" d="M213.9 269.76H111.54c-3.48 0-6.84-1.2-8.88-4.2-1.02-1.5-1.68-3.24-1.92-5.04-.36-1.98-.72-3.9-1.08-5.88l-2.1-11.7-2.94-16.56-3.6-20.22L87 183.42l-4.26-24L78.36 135l-4.2-23.58-3.84-21.54-3.3-18.54L64.44 57l-1.62-8.94c-.48-2.52-.9-4.92-.24-7.56 1.38-5.46 6.24-9.24 11.88-9.36h102.42c3.66 0 7.08 1.38 9.06 4.56 1.32 2.1 1.62 4.5 2.1 6.9l1.62 9.06L192.24 66l3.3 18.6 3.84 21.66 4.2 23.64 4.32 24.3 4.32 24.12L216.3 201l3.6 20.04 2.94 16.5 2.1 11.7c.36 1.92.66 3.84 1.02 5.76 1.32 7.5-4.26 14.64-12.06 14.76-1.08 0 .9 2.04 1.68 2.04 5.58 0 10.56-3.54 12.36-8.82.72-2.22.84-4.5.36-6.78-.36-1.86-.66-3.78-1.02-5.64l-2.1-11.7-3-16.62-3.66-20.4-4.08-22.98-4.32-24.36-4.38-24.6-4.26-23.88-3.9-21.66-3.3-18.48-2.52-14.1-1.5-8.58-.3-1.8c-.54-2.82-1.86-5.4-3.84-7.5-2.82-3-6.72-4.68-10.8-4.74H72.06c-5.52.24-10.2 3.96-11.82 9.24-.84 2.88-.36 5.58.12 8.4l1.62 8.94 2.58 14.4 3.36 18.72 3.9 21.96 4.26 23.88 4.38 24.66 4.32 24.3 4.08 22.86 3.6 20.16L95.4 243l2.04 11.4c.3 1.74.6 3.48.96 5.22 1.26 6.9 7.74 12.18 14.7 12.18h102.48c1.08 0-.84-2.04-1.68-2.04"/><path fill="#fff" d="M224.7 270.6H121.98c-6.12 0-11.34-4.38-12.42-10.44L71.1 44.04c-1.26-6.84 3.3-13.38 10.14-14.64.72-.12 1.5-.18 2.28-.18h102.72c6.12 0 11.34 4.38 12.42 10.38l38.46 216.12c1.2 6.84-3.36 13.38-10.2 14.64-.78.18-1.5.24-2.22.24"/><path fill="#111" d="M225.3 269.58H122.88c-6 0-11.1-4.38-12.06-10.26-.36-1.92-.66-3.78-1.02-5.7l-2.1-11.7-2.94-16.38-3.6-20.16-4.02-22.62-4.32-24.18-4.32-24.36-4.2-23.7-3.84-21.66-3.3-18.72-2.58-14.46-1.62-9.24c-.36-2.16-.84-4.26-.6-6.42.54-5.4 5.1-9.54 10.56-9.66h102.42c3.9 0 7.56 1.86 9.84 4.98 1.62 2.28 2.1 4.8 2.52 7.44l1.56 8.88 2.52 14.28 3.3 18.48 3.84 21.66 4.2 23.52 4.38 24.48 4.26 24.12 4.08 22.86 3.6 20.22 3 16.68 2.1 11.88 1.08 6c.3 1.38.36 2.76.24 4.14-.6 5.34-5.1 9.48-10.56 9.6-.72 0-1.44.36-1.86 1.02-.3.54-.06 1.08.6 1.02 8.7-.12 15.9-7.86 14.4-16.62-.3-1.8-.66-3.6-.96-5.4l-2.04-11.52-2.94-16.5-3.6-20.22-4.08-22.92-4.32-24.42-4.38-24.72-4.26-23.88-3.9-21.9-3.3-18.72-2.64-14.4-1.56-8.88c-.54-2.94-1.08-5.76-3-8.22-2.64-3.24-6.6-5.1-10.74-5.1H83.46c-5.7.3-10.74 3.84-12.96 9.12-1.32 3.18-.96 6.24-.36 9.48l1.56 8.7 2.52 14.28 3.3 18.6 3.84 21.72 4.26 23.88L90 158.76l4.32 24.48 4.08 22.98 3.6 20.4 2.94 16.62 2.04 11.64c.36 1.86.66 3.72 1.02 5.58 1.08 6.54 6.78 11.34 13.44 11.28h102.48c.72 0 1.44-.42 1.86-1.02.42-.66.18-1.14-.48-1.14"/><path fill="#fff" d="M222.18 241.38h-108L78 38.28h108z"/><path fill="#111" d="M221.879 240.66h-103.62c-1.38 0-2.82-.06-4.2 0h-.18l1.74.72-.96-5.46-2.64-14.82-3.9-21.84-4.74-26.64-5.22-29.28-5.28-29.52-4.86-27.42-4.14-23.22-3-16.74-.9-5.22c-.18-.9-.24-1.86-.48-2.7-.06-.12-.06-.24-.06-.3L78.3 39h103.62c1.38 0 2.82.12 4.2 0h.18l-1.8-.72.96 5.46 2.64 14.82 3.9 21.84 4.8 26.58 5.22 29.28 5.28 29.52 4.86 27.42 4.14 23.22 3 16.74c.48 2.64.78 5.34 1.44 7.92 0 .12.06.24.06.36.18.9 3.12 1.08 2.94 0l-.96-5.46-2.64-14.82-3.9-21.84-4.74-26.64-5.22-29.28-5.28-29.52-4.86-27.42-4.14-23.22-3-16.74c-.48-2.64-.78-5.34-1.44-7.92 0-.12-.06-.24-.06-.3-.12-.6-1.38-.72-1.74-.72h-94.74c-4.38 0-8.76-.12-13.14 0h-.18c-.48 0-1.26.12-1.14.72l.96 5.46 2.64 14.82 3.9 21.84 4.74 26.64 5.22 29.28 5.28 29.52 4.86 27.42 4.14 23.22 3 16.74c.48 2.64.78 5.34 1.44 7.92 0 .12.06.24.06.36.12.6 1.38.72 1.74.72h94.68c4.38 0 8.76.06 13.14 0h.18c.42 0 1.32-.12 1.14-.72s-1.38-.84-1.8-.84"/><path fill="#111" d="M159.54 54h-43.26c-2.22 0-4.2-1.56-4.62-3.78-.54-2.58 1.14-5.1 3.66-5.58.3-.06.66-.12.96-.12h43.26c2.22 0 4.2 1.56 4.62 3.78.54 2.58-1.14 5.1-3.66 5.64-.36 0-.66.06-.96.06"/><path fill="#111" d="M159.539 54.3h-43.26c-2.76.12-5.1-2.1-5.22-4.86s2.1-5.1 4.86-5.22h43.62c2.76-.12 5.1 2.1 5.22 4.86s-2.1 5.1-4.86 5.22zm-43.32-9.48a4.43 4.43 0 0 0-4.44 4.44c0 .3.06.6.12.9.42 2.04 2.22 3.54 4.32 3.54h43.26c2.46-.12 4.38-2.16 4.26-4.62-.06-2.34-1.98-4.2-4.26-4.26zM178.32 256.44c0 2.34-1.38 4.44-3.48 5.46-1.08.48-2.22.66-3.36.48-.54-.06-1.08-.24-1.56-.48-.18-.12-.42-.24-.6-.36l-.18-.18s-.24-.24-.12-.06c-.06-.06-.18-.18-.24-.3-.12-.18-.24-.42-.3-.6-.18-.48-.36-1.02-.36-1.56-.12-1.14.18-2.34.72-3.3a6.27 6.27 0 0 1 5.58-3.12c1.08.06 2.16.48 3 1.14-.24-.18.18.24 0 0 0 0 .24.3.18.24.12.24.3.48.36.72.24.66.36 1.32.36 1.92s.6 1.2.96 1.56c.06.06 1.08.9 1.08.42-.06-3.18-2.28-6.18-5.1-7.62a6.41 6.41 0 0 0-7.68 1.38c-2.04 2.22-2.04 5.4-.6 7.92 1.5 2.64 4.44 4.92 7.62 4.56 3.24-.36 5.7-3.06 5.7-6.3 0-.6-.6-1.2-1.02-1.56.06 0-.96-.84-.96-.36"/><path fill="#fff" d="M156.24 51.42a2.16 2.16 0 1 0 0-4.32 2.16 2.16 0 0 0 0 4.32"/><path fill="#111" d="M87.12 82.5h2.82l7.68-.06 11.28-.06 13.86-.06 15.18-.12 15.3-.12 14.22-.06 12.06-.06 8.7-.06c1.38 0 2.76.06 4.14 0h.18c1.14 0 0-2.7-1.08-2.7h-2.82l-7.68.06-11.28.06-13.86.06-15.18.12-15.3.12-14.22.06-12.06.06-8.7.06c-1.38 0-2.76-.06-4.14 0h-.18c-1.14 0 0 2.7 1.08 2.7M106.38 190.56h2.76l7.62-.06 11.22-.06 13.8-.06 15-.12 15.18-.12 14.22-.06 11.94-.06 8.64-.06h4.26c.6 0 1.56-.18 1.92-.66s-.3-.66-.72-.66h-2.76l-7.62.06-11.22.06-13.8.06-15 .12-15.18.12-14.22.06-11.94.06-8.64.06h-4.26c-.6 0-1.56.18-1.92.66s.3.66.72.66M109.261 67.8c.48 1.5-.42 3.12-1.26 4.32-.48.72-1.02 1.38-1.56 1.98-.24.3-.48.54-.78.72-.06 0-.6.18-.54.12s.18.3.3.18.36-.6.54-.84c.6-.66 1.2-1.26 1.92-1.8 1.32-1.14 2.7-2.1 4.26-2.94.66-.36 1.38-.72 2.04-1.02s1.68-.9 2.46-.66c.96.3 1.26 1.56 1.2 2.46 0 .48-.18.96-.36 1.38-.12.3-.3.54-.54.78-.06.06-.24.18-.3.24l-.18.12c.78.06 1.2.36 1.14.84.06-.12.06-.3.18-.42.18-.24.36-.42.54-.6.48-.42.96-.78 1.56-1.08 2.52-1.32 5.64-1.02 7.86.72.54.48 1.38.42 1.86-.12l.06-.06c.42-.66.24-1.56-.36-2.04-3.3-2.64-7.92-2.94-11.52-.78-1.62.96-3.66 2.94-2.7 5.04.6 1.38 2.16 1.56 3.3.78.84-.6 1.44-1.44 1.86-2.4.84-2.04.48-4.32-.84-6.06-.78-1.02-1.92-1.62-3.18-1.74-1.26-.06-2.52.48-3.66 1.02-2.34 1.08-4.5 2.46-6.48 4.08-1.68 1.44-4.44 3.72-3.06 6.18.72 1.26 2.22 1.8 3.6 1.32 1.32-.42 2.22-1.68 3.06-2.7 1.86-2.34 3.12-5.04 2.16-8.04-.3-.72-1.08-1.14-1.86-.9-.9.36-1.02 1.2-.72 1.92"/><path fill="#424242" d="M93.24 69.78c-.78 0-1.44.42-1.74 1.08s-.48 1.38-.48 2.16c-.06.24 0 .54.12.78.18.18.36.3.6.3 1.62.42 3.48.06 4.56-1.2s.96-3.48-.42-4.32c-1.2-.66-2.64-.3-3.42.78-.72 1.14-.42 2.64.6 3.48 1.08.78 2.58.72 3.6-.24.3-.24.48-.66.54-1.08 0-.78-.9-1.2-1.62-1.38-.78-.3-1.62-.24-2.34.18-.66.48-.66 1.74.12 1.98.3.06.6.06.9-.06.6-.12 1.14-.42 1.5-.84.3-.42.24-1.08-.24-1.38-.06-.06-.12-.06-.18-.12-.3.3-.48.66-.42 1.08.72-.54.24-1.92-.72-1.98-.84.06-1.5.78-1.44 1.68 0 .06 0 .18.06.24.3.9 1.08 1.56 2.04 1.62.48.06 1.02-.06 1.38-.36.18-.18.36-.42.42-.66.36-1.02-.18-2.16-1.2-2.52-.96-.36-1.98.06-2.4.96"/><path fill="#424242" d="M93.54 68.64c-1.32-.12-2.58.48-3.3 1.56-.48.96-.78 1.98-.72 3.06-.06 1.38 1.38 1.92 2.52 2.04 1.02.12 2.04.06 3-.24 1.02-.3 1.92-.9 2.58-1.68.54-.66.84-1.5.9-2.34.06-.78-.12-1.5-.48-2.16-.54-.9-1.44-1.5-2.46-1.74-1.92-.42-4.32.6-4.86 2.64-.48 1.92.6 3.84 2.52 4.44 1.08.3 2.22.3 3.24-.12s2.04-1.2 2.16-2.34-.78-1.92-1.74-2.4c-.96-.42-1.98-.6-3-.48-1.14.18-2.34.72-2.64 1.92-.3.96.12 1.98 1.02 2.4 1.14.54 2.7.18 3.72-.42.54-.3.96-.78 1.2-1.38.18-.48.12-.96-.06-1.38-.24-.54-.66-.9-1.2-1.08-.6-.24-1.26-.12-1.8.3-.54.48-.84 1.2-.84 1.92 0 .54.54.84.96.96.54.12 1.14 0 1.62-.36.66-.54.9-1.44.6-2.22-.3-.84-1.08-1.44-1.98-1.56-1.98-.3-3.96 1.56-3.24 3.54.36.84 1.08 1.56 1.98 1.86 1.02.42 2.22.42 3.24 0 1.38-.66 1.98-2.4 1.32-3.78-.12-.3-.3-.54-.54-.78-.9-.84-2.16-1.2-3.36-.96-1.02.18-1.86.78-2.4 1.62-.18.24-.18.6-.12.84.18.3.42.48.72.6.6.18 1.68.12 2.04-.54.06-.12.12-.18.18-.3.12-.18-.06.06-.06.06l.12-.12s.12-.06.12-.12c0 .12-.24.12-.06.06l.12-.06c.24-.12-.3.06-.06 0 .06 0 .36-.12.12-.06-.36.06.42 0 0 0-.24 0-.06 0 0 0 .18.06-.3-.12-.12-.06l.12.06c.12 0-.24-.18-.06 0l.12.06c.18.12-.06-.06-.06-.06l.24.24c.18.18-.06-.06 0-.06.06.06.06.12.06.12.06.06.18.3.12.36s-.06-.3 0-.06v.18c0 .06.06.3 0 .3s.06-.3 0-.06c0 .06-.06.12-.06.18s-.06.06-.06.12c-.06.12.06-.18 0 0s.06-.06.06 0-.12.12-.12.12.24-.12.06-.06c.36-.12.18-.06.12-.06-.24.06.12 0 .12 0h-.18.12c-.06 0-.18-.06-.24-.06-.18 0 .06-.06.12 0l-.18-.06c-.06 0-.12-.06-.18-.06.06 0 .3.18.06.06-.06-.06-.24-.18-.3-.18s.24.24.06.06c-.06-.06-.12-.12-.12-.18l-.12-.12c-.12-.12.06.18.06.06s-.06-.18-.12-.24c-.06-.24 0 .06 0 .06v-.36.12-.12c0-.06.06-.3.12-.3s-.18.24 0 .06l.06-.12c.12-.12 0 .06-.06.06l.12-.12c.12-.12.06.06-.12.06.06 0 .3-.18.06 0s.18 0-.12.06h-.3c.24 0-.18-.06-.18-.06.24.06-.3-.18-.06-.06.12.06 0 .06-.12-.12l.12.12c.06 0 .12.18 0 0s0 0 0 .06.06.06.06.12c.06.18 0-.18 0-.06v.3c-.06-.12.06-.24 0-.12s-.12.24.06-.06c0 .06-.06.06-.06.12.06-.12.24-.18.06-.06l2.58.6c0-.06.06-.3 0-.12s.06-.12.06-.12c.06-.12.06-.06 0 0 .06-.06.24-.3 0-.06l-1.8.3c.18.06-.24-.12-.24-.18s.06.12.06.12c-.12-.06-.12-.24-.06-.06s0-.3 0-.06v.12c.06-.24.06.24 0 0l-.06.12c.06-.18.12-.18.06-.06l-.06.06.12-.12-.12.12c-.12.18.06-.12.06-.06s-.36.18-.42.18c.12-.12.24-.12.12-.06l-.24.06-.18.06c-.36.12.24 0-.06 0 .18 0 .42 0 .6.12-.06-.06-.18-.12.12.12.18.18 0-.06 0-.06v-.06l.06.18v-.3c-.06.18-.06.24 0 .12v-.06c0-.06.06-.12.06-.18.06-.12.06.06-.06.12.06-.06.06-.12.12-.18 0 0-.24.24-.06.12s-.18.12-.06.06h.06c.12-.06.12-.06-.12 0 .06 0 .12 0 .18-.06-.24.06-.3.06-.12 0h.12c.12 0 .3.06-.06 0h.18c.18 0 .3.06.48.06.3.06-.24-.06-.06 0l.18.06.18.06c.06 0 .36.18.12.06s.06 0 .06.06.06.06.12.12c-.18-.18.24.12 0 0l.12.12c-.12.06-.06-.3-.06-.06s.06-.06 0-.06v.18c.06.24 0-.18 0 .12 0 .12.12-.18 0 0 0 0-.06.12-.12.18l-.12.12c-.24.18.24-.12.06 0l-.18.12-.12.06c-.06 0-.12 0-.18.06.24-.12.3-.06.12 0h-.24c-.12 0-.18-.06.12 0-.12-.06-.3-.06-.42-.06.12-.06.3.06.12 0l-.3-.12c-.18-.06.3.18.06 0l-.12-.12-.06-.06c-.12-.06-.06-.06.06.06l-.12-.12c-.06-.06-.24-.24-.24-.3 0 .06.12.18.06.06s-.06-.18-.12-.24-.12-.24-.12-.36l.06.12c0-.06 0-.12-.06-.18s0-.12 0-.18v-.42.06c0-.12 0-.18.06-.3s.06-.24.12-.36c-.12.24.06-.12 0 0 .06-.06.06-.12.06-.12.06-.06.12-.12.12-.18 0 0-.24.18-.06.06l.12-.12c-.24.12.24-.24 0 0 .06-.06.42-.18.18-.12s.12-.06.24-.06c.3-.06-.36 0-.06 0h.36c.06 0 .06.12-.12-.06.06 0 .12.06.18.06.18.06.06.12-.06-.06l.12.06s.12.12.18.12-.24-.24-.06-.06c.06.06.24.36.3.36s-.12-.24-.06-.06l.06.18c.06.12.06.18.12.3l.06.24s-.06-.3 0-.06c0 .12.06.3.06.48v.36-.06.12c0 .12-.06.24-.06.36 0 .06-.06.12-.06.18s-.06.06-.06.12c-.06.12-.06.12.06-.06 0 0-.3.6-.36.54l-.12.12c-.06.06-.12.12-.18.12-.24.18.18-.12-.06 0l-.36.18-.06.06.12-.06c-.06 0-.18.06-.24.06-.12.06-.3.06-.48.12s.42-.06.06 0h-.78c.36-.06.24 0 .12 0l-.3-.06c-.18 0-.3-.06-.48-.06.36.06.18 0 .06 0s-.06 0 .12.06c.06.06.12.12.18.24-.06-.12-.06-.06 0 .06-.06-.06 0-.18 0-.24 0-.18.06-.42.06-.6s0-.06 0 0l.06-.36c.06-.18.06-.36.12-.54.06-.06.06-.18.06-.24v.06c0-.06.06-.12.12-.18s.06-.12.12-.12c.12-.24-.18.12.06-.06 0 0 .18-.18.24-.18l-.12.12.18-.12c0 .06-.3.12-.12.06s.12 0-.12 0h-.12c.42.06.78 0 1.14-.18.3-.12.54-.42.66-.72.06-.66-.36-1.2-.96-1.32h-.12z"/><g fill="#424242" opacity=".41"><path d="M157.02 202.2a1.92 1.92 0 1 0-.001-3.841 1.92 1.92 0 0 0 .001 3.841"/><path d="M157.439 200.04v.24zc-.06.18-.12.42-.24.66l.12-.24c-.12.24-.3.42-.48.54l.24-.18c-.12.12-.3.18-.48.3l.3-.12-.3.06c-.18.06.36-.06.12 0h-.12c-.3 0-.06 0 0 0 .12 0 .3 0 0 0h-.06c-.12 0 0 0 .3.06l-.12-.06c-.24-.06.42.18.18.06l-.12-.06c-.18-.12.12.12.18.12l-.12-.06-.12-.12c.3.24.18.18.12.06-.06-.06-.12-.18-.18-.24l.18.24c-.12-.18-.18-.3-.24-.48l.06.24c-.06-.24-.06-.48-.06-.72v.24c.06-.24.12-.48.24-.72l-.12.24c.12-.24.3-.42.48-.54l-.24.18c.12-.12.3-.18.48-.3l-.3.12c.12-.06.18-.06.3-.06.18-.06-.36 0-.12 0h.12c.06 0 .3 0 0 0s-.12 0 0 0h.06l-.3-.06.12.06c.24.06-.42-.18-.18-.06l.12.06c.18.12-.12-.06-.18-.12s.06.06.12.06l.12.12c-.3-.24-.18-.18-.12-.12s.12.18.18.24l-.18-.24c.12.18.18.3.24.48l-.06-.24c.06.3.06.48.06.6.06.3.24.6.48.78.3.24.66.36 1.08.42.6.06 1.38-.06 1.38-.78 0-1.38-1.14-2.4-2.4-2.88-1.26-.54-2.76-.18-3.72.78-.72.84-.78 2.04-.24 3 .84 1.32 2.4 2.04 3.96 1.8.72-.06 1.32-.42 1.8-.9.42-.48.6-1.08.6-1.74-.06-.3-.24-.6-.48-.78-.3-.24-.66-.42-1.08-.42-.6-.12-1.38 0-1.38.72"/></g><path fill="#424242" d="M165.061 201.96a1.92 1.92 0 1 0-.001-3.841 1.92 1.92 0 0 0 .001 3.841"/><path fill="#424242" d="M165.541 199.8v.24zc0 .18-.12.42-.24.66l.12-.24c-.12.24-.3.42-.48.54l.24-.18c-.12.12-.3.18-.48.3l.3-.12-.3.06c-.18.06.36 0 .12 0h-.12c-.3 0-.06 0 0 0 .12 0 .3 0 0 0h-.06l.24.06-.12-.06c-.24-.06.36.18.18.06l-.12-.06c-.18-.12.12.06.18.12-.06-.06-.06-.06-.12-.06l-.12-.12c.3.24.18.18.12.12s-.12-.18-.18-.24l.18.24c-.12-.18-.18-.3-.24-.48l.06.24c-.06-.24-.06-.48-.06-.72v.24c0-.24.12-.48.24-.72l-.12.24c.12-.24.3-.42.48-.54l-.24.18c.12-.12.3-.18.48-.3l-.3.12c.12-.06.18-.06.3-.06.18-.06-.36.06-.12 0h.12c.06 0 .3 0 0 0s-.12 0 0 0h.06c.12 0 .06 0-.24-.06l.12.06c.24.06-.36-.18-.18-.06l.12.06c.18.12-.12-.12-.18-.12l.12.06.12.12c-.3-.24-.18-.18-.12-.06.06.06.12.18.18.24l-.18-.24c.12.18.18.3.24.48l-.06-.24c0 .12.06.3.06.48.06.3.24.6.48.78.3.24.66.42 1.08.42.6.06 1.38-.06 1.38-.84 0-1.38-1.14-2.4-2.4-2.88a3.33 3.33 0 0 0-3.72.78c-.72.84-.78 2.04-.24 3 .84 1.32 2.4 2.04 3.96 1.8.72-.06 1.32-.42 1.8-.96.42-.48.6-1.08.6-1.74-.06-.3-.24-.6-.48-.78-.3-.24-.66-.36-1.08-.42-.66 0-1.38.12-1.38.84"/><g fill="#424242" opacity=".41"><path d="M173.1 202.08a1.92 1.92 0 1 0-.001-3.841 1.92 1.92 0 0 0 .001 3.841"/><path d="M173.52 199.98v.24zc0 .18-.12.42-.24.66l.12-.24c-.12.24-.3.42-.48.54l.24-.18c-.12.12-.3.18-.48.3l.3-.12c-.12.06-.18.06-.3.06-.18.06.36 0 .12 0h-.12c-.3 0-.06 0 0 0 .12 0 .3 0 0 0h-.06c-.12 0-.06 0 .24.06l-.12-.06c-.24-.06.36.18.18.06l-.12-.06c-.18-.12.12.06.18.12l-.12-.06-.06-.06c.3.24.18.18.12.06-.06-.06-.12-.18-.18-.24l.18.24c-.12-.18-.18-.3-.24-.48l.06.24c-.06-.24-.06-.48-.06-.72v.24c.06-.24.12-.48.24-.72l-.12.24c.12-.24.3-.42.48-.54l-.24.18c.12-.12.3-.18.48-.3l-.3.12c.12-.06.18-.06.3-.06.18-.06-.36 0-.12 0h.12c.06 0 .3 0 0 0s-.12 0 0 0h.06c.12 0 .06 0-.24-.06l.12.06c.24.06-.36-.18-.18-.06l.12.06c.18.12-.12-.06-.18-.12.06.06.06.06.12.06l.12.12c-.3-.24-.18-.18-.12-.06.06.06.12.18.18.24l-.18-.24c.12.18.18.3.24.48l-.06-.24c.06.12.06.3 0 .48q.18.45.54.72c.3.24.66.42 1.08.42.6.06 1.38-.06 1.38-.84 0-1.38-1.14-2.4-2.4-2.88a3.33 3.33 0 0 0-3.72.78c-.72.84-.84 2.04-.24 3 .84 1.32 2.4 2.04 3.96 1.8.72-.06 1.32-.42 1.8-.9.42-.48.6-1.08.6-1.74-.06-.3-.24-.6-.48-.72-.3-.24-.66-.42-1.08-.42-.66-.12-1.44.06-1.44.78"/></g><path fill="#111" d="m117.66 200.76-.42-.24c-.18-.12.06.06-.06 0l-.18-.18-.18-.12s-.24-.18-.12-.12-.12-.12-.12-.12l-.18-.18q-.63-.63-.9-1.44c-.12-.66.3-1.02.84-1.26.06 0 .36-.12.36-.12s-.6-.24-.6-.3l.06.12c.24.3.48.66.72.96.24.36.6.6 1.02.72.18.06.72.18.84-.12.18-.42.3-.84.54-1.26.12-.3.3-.54.6-.72 0 0 .24-.06.12 0q.18 0 0 0h.06q-.18-.09 0 0l-.12-.06c-.06-.06-.12-.06-.18-.12l.06.06c-.06-.12.06.06.06.12s.06.12.06.18c.06.18.06.36.06.54-.12.84-.42 1.68-1.02 2.34-.54.72-1.14 1.38-1.8 2.04-.36.3.06.78.36 1.02.24.18.48.3.78.36.18.06.48.12.6-.06.9-.78 1.62-1.68 2.28-2.64.72-.9.96-2.04.66-3.12-.48-1.32-1.8-2.16-3.18-2.1-1.26.12-1.56 1.38-1.92 2.34l1.86.6c-.72-1.08-1.5-2.34-2.94-2.4-.96-.06-2.16.66-2.28 1.68s.6 1.98 1.2 2.7c.66.78 1.5 1.44 2.46 1.92.3.18 1.02.48 1.26.06s-.42-.9-.72-1.08zM128.639 200.52c-.3.18-.6.3-.84.48-.12.06-.18.06-.3.12h-.12s-.3.06-.18.06h-.18l-.06-.06c-.18-.12-.36-.3-.48-.48-.24-.54-.42-1.08-.42-1.68-.06-.6.06-1.26.36-1.8.24-.36.6-.66 1.08-.84.06-.06.42-.12.6-.24 0 0 .18-.06.06 0l.18-.06.48-.06.3-.06s.18.06.06 0c.18.12.36.24.48.42.36.48.6 1.02.66 1.56q.09.45 0 .9c-.06.3-.3.6-.3.9s.36.72.54 1.02l.72 1.08.78-.72c-.48.06-1.02 0-1.44-.18-.54-.18-1.08-.12-1.56.24-.36.36.06.66.42.78 1.02.36 2.16.42 3.18.24.24-.06 1.08-.3.78-.72l-.78-1.14-.36-.54c-.12-.18 0-.3.06-.48.24-.72.24-1.5 0-2.22s-.66-1.38-1.2-1.86c-.84-.66-1.98-.66-3-.54-1.44.24-3 .72-3.84 1.98-.42.72-.54 1.56-.48 2.34.06.72.3 1.44.66 2.04.72.78 1.74 1.2 2.82 1.14a6.2 6.2 0 0 0 3.06-1.02c.24-.06.36-.3.3-.54-.06-.12-.12-.24-.3-.3-.6 0-1.14 0-1.74.24M137.28 198.06c-.72-.72-1.38-1.56-1.86-2.4l-.06 1.56c2.22-.18 4.5 0 6.72.42l-.96-1.98c-1.44 1.86-2.04 4.32-3.72 6l1.32 1.2-.78-3.6-.06-.18c-.18.3-.18.42-.06.3.12-.06.18-.12.3-.18l.84-.42 1.62-.84c.42-.24.24-.96.06-1.26s-.6-.96-1.02-.72l-1.86.96c-.54.3-1.32.48-1.38 1.2q0 .54.18 1.08l.24 1.02.48 2.1c.12.42.72 1.8 1.32 1.2 1.68-1.68 2.28-4.14 3.72-6 .18-.36.18-.84-.06-1.2-.18-.36-.48-.66-.9-.78-2.22-.42-4.44-.54-6.72-.42-.78.06-.3 1.26-.06 1.56.66 1.02 1.38 1.98 2.22 2.88.24.3.78.48.96 0 .06-.54-.12-1.08-.48-1.5M202.439 199.26c-.84.78-1.68 1.62-2.4 2.46l2.22-.06-.24-3.3-.12-1.56-.06-.84c0-.24-.12-.54.12-.66l-.3.12h.12l-.78.12q1.35-.09 2.7 0c.54 0 1.08.06 1.56.12h.3c.06.06 0 0 .06.12.06.24.06.48.06.72l.66 6.12 2.22-.18q-2.16-1.26-3.6-3.24c-.18-.24-.84-.18-1.14-.18-.06 0-1.2.18-1.14.3 1.02 1.38 2.28 2.52 3.72 3.36.42.12.84.18 1.26.12.12 0 .96-.06.96-.3l-.48-4.26-.24-2.1c0-.24 0-.6-.18-.72s-.78-.18-1.08-.24c-1.44-.12-2.88-.24-4.26-.24h-1.14c-.48-.06-.96.06-1.44.24-.24.12-.24.36-.18.6 0 .36.06.72.06 1.08l.36 4.8c0 .36 2.04.18 2.22-.06.72-.9 1.56-1.74 2.4-2.46.24-.18-.72-.24-.78-.24-.3 0-.6 0-.84.06q-.27 0-.54.18zM124.801 217.32c-1.56.72-3 2.1-3.42 3.84-.42 1.68.36 3.48 1.86 4.32 1.86.84 3.96 1.02 5.94.54 1.68-.48 3.18-1.5 4.2-2.88.78-.9 1.92-2.88.12-3.36-1.92-.54-4.2-.36-4.92 1.8-.54 1.68.3 3.42 1.92 4.08 1.98.78 4.14.78 6.12 0 1.8-.78 3.42-1.86 4.92-3.12 1.38-1.02 2.46-2.46 3.12-4.08.54-1.5.24-3.12-1.56-3.48a6.85 6.85 0 0 0-3.12 0c-.78.3-1.38.84-1.74 1.56-1.92 3.3-.42 7.92 3.06 9.36 3.06 1.26 7.92 1.08 9.36-2.52.36-.84.36-1.74 0-2.58-.54-.96-1.68-1.02-2.64-1.14s-2.04-.06-2.76.6c-.66.54-.9 1.38-.66 2.22.54 1.98 2.82 2.76 4.62 3.06 2.28.36 4.8.36 6.84-.84.24-.12-.96-.3-1.02-.36-.48-.06-1.38-.24-1.86.06-.42.24-.84.42-1.32.6-.24.06-.54.12-.78.18 0 0-.72.06-.36.06s-.36-.12-.36-.12c-.24-.06-.48-.18-.72-.3-.42-.18-.78-.48-1.14-.78-.66-.54-1.02-1.38-1.02-2.22.06-.36.18-.72.42-1.08.12-.18.3-.36.48-.48.48-.3 1.14-.24-.36-.24-1.32 0-.84-.12-.48.36.12.18.18.36.24.54.12.36.12.78.12 1.2-.12.9-.54 1.74-1.14 2.46a4.63 4.63 0 0 1-2.04 1.32c-.24 0-.42.06-.66.12h.6c-.12-.06-.24-.06-.42-.12-.48-.18-.96-.42-1.38-.78a6.31 6.31 0 0 1-2.46-4.98c0-.9.12-1.8.42-2.64.12-.42.36-.84.6-1.2.36-.42.78-.72 1.26-1.02l-1.62-.12c.06.06.18.12.24.18.12.12.24.3.36.42.18.36.24.72.24 1.08-.06.9-.3 1.8-.84 2.58-1.02 1.56-2.34 2.88-3.9 3.84-.9.6-1.8 1.14-2.76 1.62l-.72.36c-.36.06-.78.18-1.14.36l.84.06c-.12-.06-.3-.12-.42-.18-.24-.12-.48-.3-.66-.48-.72-.66-1.02-1.68-.96-2.64q.09-.81.54-1.44c.12-.24.3-.42.54-.6.3-.24.9-.3.12-.36l-1.68-.24c.72.18.6 1.14.42 1.68-.3.72-.78 1.38-1.32 1.86-.66.72-1.38 1.32-2.22 1.8-.36.18-.72.36-1.14.42-.18 0-.36.06-.54.12.72.12.96.12.66 0-.12-.06-.24-.06-.36-.12-1.5-.72-2.34-2.4-1.98-4.08.3-1.8 1.74-3.18 3.36-3.96.24-.12-.96-.3-1.02-.3-.72 0-1.32 0-1.92.18M157.561 220.74v-.54c0-.12-.06-.18-.12-.24-.06-.12-.18-.18-.3-.24-.18-.06-.3-.12-.48-.12h-.6l-.42.06c-.24.06-.42.12-.66.24l-.24.18q-.18.18-.18.36v.48c0 .12.06.18.12.24.06.12.18.18.3.24.18.06.3.12.48.12h.6l.42-.06c.24-.06.42-.12.66-.24l.24-.18a.33.33 0 0 0 .18-.3"/><path fill="#fff" d="m62.1 131.22-38.4 7.08c-2.4.42-4.02 2.76-3.54 5.16L24.12 165c.42 2.4 2.76 4.02 5.16 3.54l15.42-2.82c1.56 1.86 3.78 4.38 5.22 6 .42.48 1.14.48 1.56.06.18-.12.3-.36.36-.54l1.8-7.14 14.04-2.58c2.4-.42 4.02-2.76 3.54-5.16l-3.96-21.54c-.48-2.46-2.76-4.02-5.16-3.6"/><path fill="#424242" d="m61.68 129.9-14.88 2.76-21.06 3.9c-2.52.48-5.1.78-6.48 3.36-.78 1.5-.66 2.94-.42 4.56l.72 3.96 2.1 11.58.78 4.26c.12 1.2.54 2.28 1.2 3.3 1.5 1.92 3.9 2.82 6.3 2.28l3.96-.72 10.5-1.92.72-.12-1.68-.66c1.32 1.62 2.7 3.18 4.08 4.74.6.66 1.2 1.5 1.92 1.98.96.54 2.16.48 3.06-.24.72-.6.84-1.56 1.08-2.4l.84-3.48.6-2.4-1.02.9 9.24-1.68 4.44-.84c2.34-.42 4.38-2.04 4.92-4.44.18-1.2.06-2.46-.24-3.66l-.84-4.62-2.22-12.06c-.18-1.14-.42-2.34-.66-3.48-.54-3.42-3.78-5.34-6.96-4.86-.66.12-1.14.78-1.02 1.44 0 .06 0 .12.06.12.3.72 1.08 1.14 1.86 1.02 1.86-.3 3 1.08 3.36 2.76l.54 3.06 2.04 11.28c.42 2.34.96 4.68 1.32 7.02-.06-.36 0 .18 0 .3 0 .3 0 .6-.06.9-.12.6-.48 1.2-.96 1.62s-1.08.72-1.74.84l-3.9.72-9.96 1.8c-.48.06-.9.42-1.02.9l-1.56 6.12c-.06.12-.3.84-.24.96s-.12-.06.24-.06c.42 0 .36.18.18-.06-.12-.18-.3-.36-.48-.54-1.5-1.68-2.94-3.3-4.38-5.04-.36-.54-1.02-.84-1.68-.72l-8.1 1.5-5.28.96c-.9.24-1.8.36-2.7.42-2.82-.18-2.88-4.02-3.3-6.12L22.86 150c-.42-2.28-.9-4.56-1.26-6.9.06.36 0-.24 0-.3 0-.3 0-.6.06-.9.12-.54.42-1.08.78-1.5.48-.48 1.08-.84 1.74-.96.54-.12 1.08-.18 1.68-.3l19.68-3.6c5.58-1.02 11.16-1.98 16.68-3.06l.3-.06c.66-.12 1.14-.78 1.02-1.44 0-.06 0-.12-.06-.12-.24-.66-1.02-1.08-1.8-.96"/><path fill="#424242" d="M43.02 157.56c.06.3.12.54.24.78.24.54.54 1.02.96 1.44.3.36.66.6 1.08.78.24.06.48.12.72.12.3 0 .66-.06.9-.24.42-.3.6-.9.42-1.38-.12-.36-.24-.72-.42-1.08-.24-.42-.48-.78-.78-1.14-.24-.36-.66-.6-1.08-.72-.54-.06-1.08.24-1.26.78 0 .12 0 .18.06.3s.06.3.12.42c.18.36.36.66.6.96.12.12.84 1.08.96.6 0-.06.06-.12.06-.18l-.06.12c.18-.3.48-.48.84-.54h-.12c.18 0 .3 0 .48.06l-.18-.06c.06 0 .12.06.18.12l-.18-.18.06.06c.06.06.06 0-.18-.18l-.18-.24-.18-.24c-.18-.24-.3-.48-.42-.78l.06.12-.12-.06c0 .06.06.18.06.24v-.18c0 .18-.06.36-.12.54l.06-.12c-.18.3-.54.48-.9.48h.12c-.3.06-.66 0-.96-.12l.18.06a.8.8 0 0 1-.24-.18l.18.18-.06-.06.18.18c.18.24.24.3.18.24.12.18.24.42.36.6.12.3.18.36.12.24l.06.24v-.06l.06.24v-.12c-.06-.3-.18-.6-.36-.84-.18-.36-.42-.66-.66-.96l-.24-.24c-.12-.12-.24-.18-.36-.24h-.12zM50.219 156.54c.06.18.18.3.36.42l.36.18c.36.18.72.3 1.14.42.54.18 1.08.24 1.62.24.12 0 .24 0 .3-.06.06 0 .12-.06.18-.06.24-.12.42-.36.48-.66 0-.36-.24-.72-.54-.9-.24-.12-.42-.24-.66-.36-.54-.24-1.08-.36-1.62-.42-.36-.12-.78-.06-1.14.06-.06 0-.12.06-.06.12 0 .06.06.12.12.18l.36.18c.18.06.3.12.48.18.36.12.72.24 1.14.3h.3c.12 0 .3 0 .42-.06.06 0 .12-.06.18-.06l-.18.06h.12-.42c.12 0-.42-.06-.3-.06l-.36-.06-.18-.06c-.24-.06-.48-.18-.72-.3l.06.06-.18-.12c.06.06.12.06.18.12l-.12-.12c.12.12.18.24.24.42v-.12c.06.24 0 .48-.18.66v-.12q-.18.18-.36.18l.18-.06h-.18.18c-.12 0 .36.06.24 0s-.24-.06.3.06c-.12 0-.24-.06.36.06-.18-.06.48.12.3.12s.42.18.3.12l.24.12h-.06l.18.12c-.06 0-.06-.06-.12-.06l.12.12a.8.8 0 0 1-.18-.24c-.06-.06-.12-.12-.24-.18l-.36-.18-1.08-.36-.36-.06c-.18 0-.36-.06-.54 0l-.18.06c-.12 0-.18.06-.12.12M32.28 148.56c1.98-1.2 3.3 1.56 4.32 2.76.72.84 1.44 1.62 2.28 2.34.72.66 1.56 1.56 2.46 1.86s2.16-.3 3.06-.48l3.48-.9 7.08-1.8c.3-.06.24-.72.18-.9-.42-1.92-1.08-3.78-2.04-5.52a7.4 7.4 0 0 0-1.56-2.28c-.78-.66-1.62-.48-2.52-.18-3.9 1.14-7.74 2.46-11.46 4.08-.84.36.42 3.06 1.32 2.7a86 86 0 0 1 9.3-3.42c.78-.24 1.56-.48 2.28-.66.18-.06.9-.36 1.08-.24s.36.54.42.72c.72 1.26 1.2 2.58 1.5 4.02l.18-.9-6.96 1.8-3.48.9c-.6.12-1.14.3-1.74.42-.48.24-1.08.12-1.44-.3a25.6 25.6 0 0 1-4.32-4.5c-1.08-1.38-2.94-3.24-4.8-2.1-.72.42.66 3.06 1.38 2.58"/><path fill="#fff" d="M277.499 152.82 242.759 135c-2.16-1.14-4.86-.24-5.94 1.92l-10.02 19.56c-1.14 2.16-.24 4.86 1.92 5.94l13.98 7.14c.06 2.46.3 5.76.48 7.92.06.6.6 1.08 1.2 1.02.24 0 .42-.12.6-.24l5.76-4.56 12.72 6.54c2.16 1.14 4.86.24 5.94-1.92l10.02-19.5c1.08-2.22.24-4.86-1.92-6"/><path fill="#424242" d="m278.219 151.68-13.44-6.9-19.14-9.78c-.66-.36-1.26-.66-1.92-.96-2.82-1.68-6.48-.72-8.16 2.1-.12.24-.3.48-.36.78l-1.8 3.54-5.4 10.5-1.92 3.78a8.54 8.54 0 0 0-1.2 3.6 6.15 6.15 0 0 0 3.42 5.34c1.2.6 2.4 1.2 3.6 1.86l9.54 4.86.6.3-.78-1.2q.09 3.06.36 6.12c.06.9 0 1.98.42 2.82.54.96 1.68 1.5 2.76 1.38.9-.12 1.56-.78 2.28-1.32l2.82-2.22 1.98-1.56-1.8.12 8.4 4.32 4.02 2.1c2.22 1.14 4.86 1.14 6.9-.48.84-.78 1.5-1.8 1.98-2.88l2.22-4.32 5.52-10.74c.54-1.08 1.08-2.1 1.62-3.18 1.44-2.94.36-6.48-2.52-7.98-.72-.42-1.56-.24-2.04.42-.36.66-.12 1.44.54 1.8 0 0 .06 0 .06.06 1.5.84 2.1 2.76 1.26 4.26-.42.9-.9 1.8-1.38 2.7l-5.28 10.26c-1.08 2.16-2.16 4.32-3.3 6.42-.84 1.56-2.52 2.28-4.08 1.44-1.14-.6-2.34-1.2-3.48-1.8l-9.06-4.68c-.6-.3-1.26-.24-1.8.12l-4.92 3.9c-.18.12-.66.42-.78.6h-.06c0-.3.66.06.66.06.06.06.06.12.06.18v-.36l-.06-.72c-.18-2.28-.3-4.5-.42-6.78-.06-.48-.3-.96-.78-1.2l-7.32-3.72-4.8-2.46c-.9-.36-1.68-.84-2.46-1.38-2.28-1.98-.18-4.8.9-6.84l5.16-10.14c1.08-2.1 2.1-4.2 3.18-6.24.78-1.5 2.4-2.28 3.96-1.5l1.44.72 17.76 9.12c5.04 2.58 10.08 5.22 15.18 7.8l.24.12c.66.42 1.56.24 2.04-.42.54-.54.3-1.32-.42-1.74q.09.09 0 0"/><path fill="#fff" d="M248.76 163.5c-1.02-2.76-1.74-5.64-2.04-8.64-.24-1.26-.12-2.58.3-3.78.54-1.2 1.74-2.16 3-1.86 1.38.24 2.16 1.74 2.52 3.06.42 1.62.54 3.3.3 4.98 1.92-3.18 5.82-4.56 9.3-3.24.54.18 1.08.54 1.5.96 1.44 1.5.84 4.2-.72 5.58s-3.72 1.92-5.76 2.34l-7.08 1.5"/><path fill="#424242" d="M250.26 163.56c-.72-1.98-1.32-4.08-1.68-6.12-.36-1.86-.9-4.14-.12-5.94.24-.72.84-1.26 1.5-1.5-.12 0-.12-.12.12.12.24.3.42.6.6.9.9 1.74.96 3.96.72 5.88-.12 1.08 2.34 1.68 2.82.84 1.02-1.86 2.88-3.06 4.92-3.36.84-.12 1.74 0 2.52.36.96.48 1.44 1.56 1.2 2.64-.36 2.58-2.7 3.72-5.04 4.32-2.88.72-5.82 1.26-8.7 1.86-.66.12-.66.78-.24 1.14.6.48 1.38.6 2.1.42 2.76-.6 5.58-1.14 8.4-1.8 2.22-.54 4.74-1.5 5.88-3.6 1.02-1.98.78-4.26-1.08-5.64-2.04-1.38-4.56-1.8-6.96-1.26-2.4.42-4.5 1.86-5.76 3.9l2.82.84c.3-2.34.12-5.1-1.14-7.14s-4.2-2.88-6.24-1.44c-2.1 1.5-1.92 4.2-1.62 6.48q.54 4.05 1.98 7.92c.24.66 1.08.9 1.68.96.42 0 1.5-.12 1.32-.78"/><path fill="#fff" d="M190.319 146.76s14.94-23.46 18.72-37.68 3.24-19.38 6.96-20.34 3.96 6.72 4.02 10.98 1.2 6.6 1.2 6.6 1.86 1.32 7.68 2.22 12.24 5.4 10.8 8.1c-1.08 2.04-3.84 1.5-6.78.18 0 0 4.86 3.36 3.24 6.48-1.08 1.98-3.6.48-5.46-.84-1.32-.78-2.7-1.38-4.2-1.74 0 0 .9 11.34-9 13.26 0 0-13.92 34.44-21.72 38.04 0 0-4.32 6.42-45.24-27.24l13.44-25.32c-.06 0 22.98 27.9 26.34 27.3"/><path fill="#111" d="M191.64 146.52c2.76-4.38 5.4-8.88 7.86-13.44 2.16-3.96 4.26-8.04 6.18-12.12a76.3 76.3 0 0 0 4.62-12c1.32-4.8 2.22-9.72 3.36-14.52.24-1.32.66-2.58 1.2-3.72.12-.18.24-.42.36-.6.06-.06.24-.3.06-.12.06-.12.18-.18.24-.3.18-.24-.12.06 0-.06s.36-.24.12-.12.36-.18 0 0 .42-.12.06 0 .06 0 .12-.06h.12c.24.06.42.18.6.3.54.48.9 1.14 1.08 1.8.6 1.92.9 3.96.9 6 .12 2.34.06 4.62.54 6.9.18.72.3 2.04.9 2.58.9.72 2.34 1.02 3.42 1.32 2.58.72 5.28.9 7.8 1.8 2.28.78 4.38 2.1 6.12 3.78.6.54.96 1.26 1.14 2.04 0 .3-.06.6-.24.9-.06.06-.18.3-.18.18.12-.36.42-.06.12-.06h-.24c-1.26.06-2.64-.54-3.78-1.02-.66-.18-1.32-.06-1.86.3-.3.18-1.14.78-.66 1.14 1.62 1.14 4.14 3.48 3.24 5.7 0 .06-.3.42-.24.48.24-.18.48-.3.78-.36h-.18c-.42-.12-.78-.24-1.14-.36-.9-.48-1.74-1.02-2.58-1.62a14.3 14.3 0 0 0-4.02-1.56c-.54-.06-1.02.06-1.5.3-.3.12-.96.54-.96.96.24 3.06-.54 6.6-2.4 9.06-.66.9-1.5 1.68-2.52 2.22-.54.3-1.08.48-1.62.66-.84.24-1.92.36-2.4 1.2-.3.6-.6 1.26-.78 1.92q-2.43 5.76-5.04 11.34c-2.28 4.98-4.74 9.9-7.5 14.58-1.14 2.04-2.46 3.96-3.84 5.88-.6.78-1.2 1.5-1.86 2.22l-.42.42-.06.06-.24.24-.42.3-.18.12c-.24.18.18-.12 0 0s-.24.12-.36.24.3-.18.12-.06c-.36.18-.9.42-1.08.84 0 .06.18-.24.18-.18-.18.18.24-.18.18-.12-.24.18.42-.24.12-.06-.18.12.48-.24.24-.12s.48-.18.18-.06c-.36.06-.06 0 0 0 .36-.06 0 0-.06 0h-.12c-.24.06.3 0 .12 0h-.9c-.36-.06-.66-.12-1.02-.18-2.22-.54-4.38-1.38-6.42-2.52-4.02-2.1-7.92-4.44-11.64-7.02-6.18-4.2-12.12-8.76-17.94-13.38l-5.58-4.5.06.54 4.56-8.58 7.26-13.62 1.68-3.12-2.64.78c2.7 3.24 5.4 6.42 8.16 9.6 4.44 5.1 8.88 10.26 13.86 14.82.9.84 1.8 1.62 2.82 2.34.66.54 1.56.84 2.4.78.54-.12 1.5-.48 1.74-1.08.3-.6-.36-.66-.84-.6-.12 0 .42-.06.18 0 .06 0 .24.06.06 0s-.42-.18-.18-.06q-.45-.18-.9-.54c-.84-.6-1.62-1.26-2.4-1.98-2.28-2.04-4.38-4.26-6.48-6.48-4.44-4.74-8.7-9.66-12.84-14.58-.96-1.14-1.92-2.28-2.82-3.42-.6-.72-2.34.12-2.7.78l-4.56 8.58-7.26 13.62-1.68 3.12c-.12.18-.12.42.06.54 6.6 5.4 13.32 10.68 20.28 15.66 4.2 3.06 8.64 5.88 13.2 8.4 2.4 1.38 4.98 2.52 7.68 3.3 1.32.42 2.64.54 4.02.36.96-.12 1.8-.54 2.52-1.2.06-.06.12-.18.18-.24l-1.08.84c2.52-1.2 4.32-3.42 5.94-5.64 2.1-2.94 4.02-6.06 5.7-9.3 3.42-6.36 6.48-12.9 9.3-19.56.6-1.44 1.26-2.88 1.86-4.38l-1.8 1.02c3.66-.72 6.96-2.7 8.88-5.94 1.2-2.16 1.86-4.56 1.98-7.02.06-.54.06-1.02 0-1.56l-2.46 1.26c1.26.24 2.52.72 3.66 1.38 1.5.96 3 2.22 4.86 2.16s3.72-1.32 3.96-3.24c.18-1.44-.6-2.7-1.5-3.72-.66-.78-1.38-1.44-2.16-2.04l-2.52 1.44c2.64 1.14 5.76 2.04 8.28.06.84-.54 1.32-1.44 1.38-2.46-.12-.9-.54-1.74-1.14-2.4-1.62-1.86-4.02-3.12-6.3-4.08-2.64-1.02-5.52-1.2-8.22-1.98-1.08-.24-2.1-.66-3.06-1.2.18.12.06.18 0-.06s-.18-.48-.24-.72c-.3-1.02-.54-2.04-.66-3.06-.3-2.34-.12-4.74-.36-7.14-.18-1.86-.36-4.14-1.5-5.7-1.98-2.64-6.06-.48-7.32 1.8-.6 1.2-1.08 2.52-1.32 3.9-.54 2.1-.9 4.2-1.38 6.36-1.08 5.04-2.34 10.08-4.26 14.94-1.8 4.5-3.9 8.88-6.18 13.14-3.12 6-6.48 11.88-10.08 17.58l-.18.3c-.36.6.48.66.84.6.48.12 1.14-.24 1.56-.84"/><path fill="#fff" d="M226.619 115.92s2.4-.6 6.54 1.14z"/><path fill="#111" d="M227.639 116.76h.12zh1.38-.06.24l.48.06.48.06.24.06c.06 0 .36.12 0 0 .42.12.84.18 1.2.3l.66.24h-.06l.18.06.42.18c.36.18 1.44.54 1.68-.06s-.72-1.14-1.08-1.26c-1.8-.78-3.72-1.26-5.7-1.44-.72-.06-1.44-.06-2.16.12-.66.18-.24.84.12 1.14.54.48 1.26.66 1.98.54M225.24 117.54c0 1.08-.06 2.16-.12 3.24l-.18 2.52c-.06.36-.06.72-.12 1.14 0 .12-.06.3-.06.42s.06-.24 0 0c0 .06-.06.12-.06.18-.12.66.12 1.38.72 1.8.3.24 1.26.78 1.5.12s.36-1.38.42-2.04c.12-.84.18-1.74.18-2.64.06-1.08.12-2.22.12-3.3 0-.72-.42-1.44-1.08-1.8-.48-.3-1.32-.42-1.32.36M176.939 188.4c0-1.02 3.9-58.2-13.8-70.26-23.46-15.96-56.7 71.34-56.7 71.34"/><path fill="#111" d="M178.439 188.58v-.06l.06-.6c0-.72.06-1.38.12-2.1.12-2.4.18-4.74.18-7.14.12-7.2-.06-14.4-.6-21.54-.66-7.92-1.68-15.9-4.08-23.46-1.86-6-4.68-12.48-10.14-16.14-4.08-2.7-9.06-2.88-13.5-.84-4.98 2.28-9.06 6.48-12.54 10.62-4.44 5.4-8.34 11.16-11.82 17.22-3.66 6.24-7.02 12.66-10.2 19.2-2.58 5.34-5.04 10.74-7.32 16.2-1.2 2.88-2.4 5.7-3.54 8.58-.06.12-.12.3-.18.42-.36.96 2.46 1.86 2.88.78.78-1.98 1.56-3.9 2.34-5.88 1.98-4.86 4.14-9.72 6.36-14.52 2.94-6.3 6-12.48 9.3-18.54 3.36-6.24 7.14-12.24 11.28-17.94 3.42-4.62 7.38-9.42 12-12.72.96-.72 2.04-1.32 3.06-1.86.48-.24.96-.48 1.44-.66l.42-.12.12-.06c.3-.06.54-.18.84-.24s.48-.12.72-.18l.3-.06.3-.06h1.74c.24 0 .48.06.72.12.42.06-.12-.06.06 0l.36.06c.24.06.48.12.72.24.12.06-.3-.12.06.06l.3.12c.24.12.54.24.78.36-.3-.12-.12-.06.06.06l.36.24c.24.12.48.3.72.48.06.06.48.36.24.18l.36.3c.3.24.54.48.84.72.48.42.9.9 1.32 1.38q2.97 3.69 4.68 8.1c2.82 7.08 4.08 14.76 4.92 22.32.78 7.44 1.2 14.94 1.14 22.44 0 4.38-.12 8.76-.3 13.08 0 .3-.06.66-.06.96.24 1.08 3.12 1.74 3.18.48"/><path fill="#fff" d="M131.28 179.82s-23.04 30.3-30.66 35.22c-5.76 3.72-13.74 10.5-15.96 10.5s-1.8-2.58-.6-4.2 4.14-4.8 1.8-7.02-15.84-2.58-15.84-2.58l-3.6-.12c.96-2.34 4.56-3.6 4.56-3.6-2.76-.96 2.04-4.26 8.94-4.74s15.9-.72 15.9-.72 30.78-64.38 44.64-72.84c5.4-3.24 27.66.84-9.18 50.1"/><path fill="#111" d="M130.02 178.98c-2.58 3.36-5.16 6.66-7.8 9.96-4.86 6.06-9.78 12.12-15.06 17.88a70 70 0 0 1-6.36 6.3c-.18.18-.42.36-.66.48.18-.12 0 0-.12.06l-.3.24c-.9.6-1.86 1.2-2.76 1.86l-6.48 4.68c-1.68 1.32-3.42 2.46-5.28 3.54l-.42.24-.24.12c-.18.06.18-.06 0 0s-.24.06-.36.12-.3.06.12 0c-.06 0-.3-.06-.24 0 .12.06.24.18.36.24.06 0-.06 0-.06-.12v-.12c0-.48.12-.96.3-1.38.48-.84 1.02-1.68 1.68-2.4q1.17-1.44 1.62-3.24c.42-2.16-1.08-3.84-2.94-4.62-1.62-.6-3.3-1.02-4.98-1.2-1.98-.3-3.96-.48-5.94-.6-2.16-.18-4.32-.24-6.48-.3l-1.74-.06 1.74 1.74c.54-.96 1.32-1.8 2.28-2.28.36-.24.78-.42 1.2-.6.12-.06.96-.36.36-.18 1.2-.42.72-1.74-.24-2.1-.06 0-.12-.06-.18-.06.06 0 .3.18.12.06.18.12.12.06.3.3 0 0 .12.18.06.12.06.12-.12.12.06-.12 0 .06-.06.06.06-.06s.18-.24.3-.3c.24-.18.48-.36.78-.54 1.86-1.02 3.9-1.62 6-1.86 2.4-.36 4.92-.36 7.38-.48 2.16-.12 4.32-.18 6.48-.24l3.36-.12c.42 0 .84-.24 1.02-.6.9-1.86 1.8-3.72 2.76-5.58 2.28-4.62 4.62-9.24 7.02-13.8q4.68-9.09 9.72-18 5.04-9.09 10.62-17.82c3-4.62 6.12-9.24 9.84-13.38.66-.78 1.44-1.5 2.16-2.16.36-.3.66-.6 1.02-.9l.24-.18c.18-.12-.18.12.06-.06l.48-.36c.36-.24.72-.42 1.14-.6-.36.12.18-.06 0 0 .12-.06.18-.06.3-.06.18-.06.42-.12.6-.12s.84-.06.36-.06c.24 0 .48-.06.66-.06h1.08c.06 0-.42-.06-.18 0h.24c.24.06.48.06.72.12l.36.06c.48.12-.3-.12.06 0 .24.06.48.18.72.3l.3.12c.3.12-.36-.24.06.06.24.12.42.3.66.42s.48.42.06.06c.12.12.18.18.3.24.18.18.36.42.54.6s-.18-.24.06.12c.06.12.18.24.24.36.18.24.3.54.48.84.18.36-.06-.18.06.18.06.18.12.3.18.48.12.36.24.66.3 1.02.06.18.06.36.12.48l.06.3c0 .06.06.42 0 .24s0 .12 0 .18v.24c0 .24.06.42.06.66v1.38c-.06 1.02-.12 2.04-.3 3.06-.18 1.14-.48 2.28-.84 3.42q-.63 2.07-1.44 4.14c-3.18 8.04-7.86 15.54-12.78 22.62q-2.52 3.69-5.22 7.2c-.96 1.26 1.62 2.76 2.46 1.62 6.06-8.1 11.94-16.62 16.32-25.8 2.34-4.92 4.56-10.38 4.68-15.9.06-3.06-.66-6.3-2.94-8.52-1.86-1.74-4.32-2.7-6.84-2.7-.96 0-1.98.12-2.94.42-1.26.48-2.4 1.14-3.36 2.04-3.78 3.18-6.78 7.44-9.6 11.46-3.9 5.64-7.44 11.46-10.86 17.4-3.54 6.18-6.96 12.42-10.32 18.72-2.76 5.22-5.46 10.44-8.04 15.66-1.38 2.76-2.7 5.46-4.08 8.22l-.18.36 1.02-.6c-3.6.12-7.2.24-10.8.42-2.82.12-5.7.18-8.46.72-2.22.42-4.56 1.14-6.36 2.58-.6.42-1.02 1.08-1.08 1.8 0 1.02.96 1.74 1.8 2.1l-.3-2.1c-2.04.72-4.32 2.04-5.22 4.14-.42.96.96 1.68 1.74 1.74 1.98.06 3.96.12 5.88.24 3.6.18 7.02.36 10.56 1.26l.48.12c.36.12-.18-.06.06 0l.24.12c.12.06.3.12.42.18s.54.3.18.06c.12.06.18.12.3.18.18.06-.24-.24-.12-.12s.18.12.24.24c.24.36.36.84.24 1.26-.3 2.16-2.4 3.6-3.24 5.52-.48.96-.54 2.04-.12 3 .6 1.14 1.86 1.86 3.12 1.74 1.62-.06 3.18-1.2 4.44-2.1 4.14-2.76 8.04-5.94 12.24-8.7 2.16-1.56 4.2-3.36 5.94-5.34 5.34-5.58 10.32-11.64 15.18-17.64 3.24-3.96 6.42-7.98 9.48-12.06l.12-.18c1.32-1.26-1.26-2.76-2.1-1.68"/><path fill="#fff" d="M80.58 206.76s-8.64 1.26-10.56 1.8z"/><path fill="#111" d="M80.16 205.32c-1.56.24-3.06.48-4.62.72-2.1.3-4.14.66-6.18 1.2-.66.18-.42 1.32-.24 1.8.24.66.84 1.02 1.56.9l.18-.06h.06l.6-.12c.48-.12.96-.18 1.44-.3 1.2-.24 2.34-.42 3.54-.6 1.5-.24 3-.48 4.5-.66s.42-3-.84-2.88M131.041 107.34c-7.14-23.82 7.14-33.12 17.88-35.82s18.66.24 21.48 4.38c2.1 3.12-2.58 24.48-2.58 24.48l-15.84 20.04c0 .06-15.48 5.1-20.94-13.08"/><path fill="#fff" d="M180.06 108.84c5.28-8.94-9.54-28.74-9.54-28.74-4.08.18-11.4-1.98-11.4-1.98 4.8 11.4-8.4 18-8.4 18-4.32-5.76-11.34-1.68-9.42 4.5s8.1 5.46 8.1 5.46.48 16.26 1.68 18.6c0 0 11.88 4.74 16.14-5.82 0 0 9.24-3.96 12.84-10.02"/><path fill="#111" d="M181.499 108.72c1.5-2.58 1.32-5.7.72-8.52-.84-3.42-2.04-6.66-3.72-9.72-1.38-2.7-2.94-5.28-4.62-7.8-.48-.78-1.02-1.5-1.56-2.28l-.36-.54c-.36-.3-.9-.24-1.26-.24-3.48 0-7.08-.96-10.38-1.92-.3-.06-2.94.06-2.76.6 1.56 3.54 1.32 7.62-.66 10.92-1.5 2.4-3.54 4.38-5.94 5.94-.36.24-.78.48-1.14.72l-.24.12 2.52-.18a7.08 7.08 0 0 0-6.42-2.88c-2.28.18-4.62 1.14-5.64 3.3s-.54 4.74.72 6.66a7.6 7.6 0 0 0 4.5 3.3c1.38.36 2.76.48 4.14.3l-1.56-.18c.12 3.12.24 6.18.48 9.3.12 2.16.3 4.32.6 6.48.12.78.12 2.7.96 3.06 1.02.36 2.1.66 3.12.84 2.04.36 4.14.36 6.18.06 2.34-.3 4.56-1.26 6.42-2.82.96-.84 1.8-1.92 2.4-3.06.18-.3.36-.6.42-.9 0 .12.3-.72-.18-.18 0-.06.36-.18.42-.18q3.15-1.44 5.94-3.42c2.76-1.86 5.28-3.96 6.9-6.78.3-.36-.96-.3-1.08-.3-.42 0-1.5.06-1.8.54-2.7 4.56-7.74 7.56-12.36 9.72-.48.24-.54.48-.78.96-.36.72-.72 1.44-1.2 2.04-.78 1.14-1.86 2.04-3.06 2.7-.48.24-.96.48-1.5.6l-.18.06-.42.06-.18.06s.24-.06.06 0l-.48.06h-1.2c-.42 0-.9-.06-1.32-.12q-1.89-.18-3.6-.9l.24.18c-.36-.9-.54-1.8-.6-2.76-.24-1.5-.36-3-.48-4.5-.24-3.06-.42-6.18-.54-9.24-.06-.66-.06-1.38-.06-2.04 0-.42-1.38-.24-1.56-.18.72-.06.36 0 .24 0h-.18.06-.42c-.24 0-.54-.06-.72-.12-1.5-.3-2.82-1.02-3.84-2.16-2.34-2.64-2.94-7.68.66-9.48.3-.12.06-.06.3-.06-.3.06-.06 0-.12 0 .42.06.84.18 1.26.3 1.08.54 2.04 1.32 2.76 2.34.18.24.84.12 1.08.12.48 0 .96-.12 1.44-.3 4.44-2.22 8.76-6.42 9.66-11.46.36-2.34.06-4.74-.9-6.9l-2.76.6c3.96 1.14 8.16 2.16 12.3 2.04l-1.08-.12c1.68 2.28 3.24 4.68 4.62 7.14 2.52 4.38 4.98 9.18 5.76 14.28.36 2.4.36 4.98-.9 7.08-.24.42.96.36 1.08.36.42-.06 1.56-.12 1.8-.6"/><path fill="#fff" d="M169.32 93.18c2.64 1.2 5.4 1.98 8.28 2.4 9.6 1.5 10.74 4.8 7.8 6.72s-16.02.6-16.02.6"/><path fill="#111" d="M169.139 94.5c2.64 1.2 5.4 2.04 8.28 2.46 2.04.24 4.08.78 6 1.5.54.18 1.08.48 1.56.84l.3.24.18.12-.06-.06c.12.12.12.12.18.24s.06.06.06.12c-.36-.42-.06-.12-.06-.06s.18.42.06.06 0 .06 0 .12c-.06-.12-.06-.3 0-.06 0-.3.06.24 0 0 0 .18-.06.12 0-.06 0 .06-.06.18-.12.24s-.12.24-.06.12-.12.12-.12.18c-.12.12-.24.3-.42.42.18-.18-.24.18-.36.24l-.3.12-.18.06-.24.06-.36.12c-2.64.6-5.46.54-8.16.42-2.04-.06-4.02-.18-6-.36-1.74-.18-1.14 2.7.24 2.82 1.86.18 3.72.3 5.64.36 3 .12 6.18.24 9.12-.42 2.1-.48 4.2-2.04 3.72-4.44-.6-3.18-4.56-4.38-7.26-5.04-3.78-.96-7.68-1.2-11.22-2.94-.48-.24-1.08-.06-1.32.42-.06.12-.06.24-.12.36 0 .66.36 1.44 1.02 1.8M138.24 110.94c-.3 1.74-.72 3.48-1.32 5.16-.42 1.32-1.08 2.58-1.86 3.72-.66.9-1.62 1.8-2.58 1.98-.12 0-.24.06-.36.06h-.24c-.18 0 .24.06-.06 0-.12 0-.3-.06-.42-.06-.24-.06-.06 0 0 0l-.36-.12-.24-.12c.24.12 0 0-.06-.06s-.54-.36-.3-.18c-.36-.24-.66-.48-.96-.78-1.14-1.02-2.04-2.28-2.04-3.78.06-1.08.54-2.1 1.44-2.76.18-.18.42-.3.66-.42l.36-.18c.12-.06.24-.06.36-.06.24-.06.48-.06.72-.06-.06 0 0 0 .18.06h.18c-.24-.06.24.06 0 0 .12.06.36.12.06 0 .06 0 .12.06.18.06.3.18-.24-.18-.06-.06.24.24-.18-.24.12.06s-.06-.12.12.18l.12.18c-.12-.18 0-.06 0 0 .06.18.12.3.24.48.12.36.18.72.24 1.14.18 2.22-.18 4.5-1.02 6.6-.84 2.22-1.98 4.26-3.48 6.12-1.14 1.5-2.64 2.76-4.32 3.66-.6.3-1.26.48-1.98.48.18 0-.18-.06-.24-.06l-.18-.06c-.3-.12.18.12 0 0-.18-.18-.18-.12 0 0-.06-.06-.12-.18.06.06-.06-.06-.18-.12-.24-.24.18.24-.06-.12-.12-.18.06.12-.12-.3-.18-.36-.12-.3-.24-.66-.3-1.02q-.18-.72 0-1.44c.36-1.98 2.04-3.48 3.84-4.32.9-.42 1.86-.66 2.88-.66h.42c.12 0 .24.06.36.06l.18.06c-.24-.06.24.06 0 0 .06 0 .18.06.3.12-.18-.12.36.06 0 0l.3.18c-.3-.12-.18-.12 0 0-.18-.18-.24-.18-.06 0-.24-.12.3.24 0 0 .06.06.24.42.06.06l.18.36c.12.24 0-.06.06.12s.06.24.06.36.06.24.06.42v.36a11.2 11.2 0 0 1-1.2 4.62c-.48 1.08-1.08 2.16-1.68 3.18-.6.96 1.8 2.76 2.4 1.86 1.74-2.88 4.2-7.32 2.52-10.74-1.26-2.58-4.32-3.54-6.96-3-2.4.54-4.8 1.98-5.82 4.26-1.44 3.12.42 7.62 4.08 8.16 1.86.3 3.66-.66 5.04-1.8 1.92-1.56 3.54-3.42 4.74-5.58 1.38-2.34 2.28-4.92 2.64-7.56.24-2.1.12-4.38-1.2-6.12-1.92-2.64-6-3.24-8.04-.36-2.64 3.6 1.26 8.04 4.2 9.9 1.5.96 3.36 1.56 5.04.9 1.38-.54 2.4-1.8 3.12-3a26 26 0 0 0 2.7-7.86c.06-.18.06-.36.06-.54.18-1.08-2.4-2.58-2.52-1.44zM165.66 106.44l-7.86-3.54s-2.22 3.24 1.5 5.34 6.36-1.8 6.36-1.8M165.659 93.6c-.12-.42-.3-.84-.42-1.26-.24-.36-.66-.6-1.08-.72-.24-.06-.48-.12-.72-.12-.36 0-.72.06-1.08.24-.54.24-.96.72-1.14 1.26-.12.54-.18 1.14-.18 1.74 0 .24.48.12.6.06.18-.06.36-.18.48-.3.06-.06.24-.18.24-.3 0-.54.06-1.08.18-1.68 0-.12.06-.24.12-.3 0-.06.06-.06.06-.12 0 0 .06-.12 0-.06q.09-.09 0 0c-.12.06-.18.12-.3.18s-.12.06-.06 0q-.09 0 0 0h.3c.48.06.9.24 1.2.54.18.42.36.9.48 1.32.06.06.24.06.3.06q.27 0 .54-.18c.18-.06.3-.18.42-.3.06-.06.18-.18.12-.24z"/><path fill="#111" d="M174.84 91.8c-.18-.36-.24-.78-.36-1.14-.18-.36-.48-.6-.9-.78-.18-.06-.42-.18-.66-.18-.36 0-.72.06-1.02.24-.54.18-.9.72-.9 1.26-.06.54-.06 1.02 0 1.56 0 .24.48.12.6.06.18-.06.36-.18.54-.3.06-.06.24-.18.24-.3v-1.08c0-.3.06-.6.12-.84 0-.06 0 .06 0 0s.06-.06 0 0c-.12.12-.24.18-.42.24-.24.06-.3.06-.18.06-.06 0 .12 0 0 0h.18l.12.06c.3.06.54.24.78.42l-.06-.06c.42.42.48 1.02.66 1.56.06.06.24.06.3.06.18-.06.36-.06.54-.18.18-.06.3-.18.42-.3.06-.06.18-.18.12-.24z"/><path fill="#fff" d="M209.879 101.1s2.4 16.5 14.34 26.7c0 0 11.76-.84 14.1-2.34s-17.16-11.04-20.88-28.08z"/><path fill="#111" d="M208.499 101.52c.66 4.14 1.92 8.16 3.66 11.94 1.56 3.6 3.6 7.02 6 10.14 1.32 1.68 2.82 3.3 4.5 4.74.42.48 1.02.72 1.62.72.3 0 .66-.06.96-.06 2.82-.24 5.7-.54 8.52-1.02 1.38-.18 2.7-.48 4.02-.9.9-.3 2.1-.78 2.28-1.86.24-1.38-1.62-2.64-2.52-3.42-1.92-1.68-3.9-3.24-5.76-4.98-5.16-4.74-9.78-10.26-12.06-16.98q-.45-1.35-.72-2.7c-.18-.9-1.2-.96-1.92-.6l-7.62 3.66c-.6.3-1.14 1.02-.84 1.68s1.26.6 1.86.3l7.56-3.66-1.92-.6c1.98 8.82 7.92 15.96 14.52 21.78 2.04 1.8 4.26 3.36 6.12 5.34.12.12.24.24.36.42-.24-.3 0 .06.06.12.18.24 0-.24 0 .06 0-.36.18-.66.42-.84.6-.48.06 0 0-.06s-.6.24-.06.06c-.3.12-.66.24-1.02.3-.84.24-1.68.36-2.52.54s-2.1.3-3.12.42-2.04.24-3.12.36-2.22.24-3.3.3l.9.3c-7.14-6.12-11.64-15.06-13.68-24.06-.18-.72-.3-1.44-.42-2.1-.18-1.74-3-.78-2.76.66"/><path fill="#424242" d="M209.758 86.16s-13.32 4.56-14.82 4.62c0 0-7.32 12.24 5.46 17.22 0 0 11.52-4.62 13.08-4.86.06 0-4.92-8.52-3.72-16.98"/><path fill="#424242" d="M208.739 85.62c-3.18 1.08-6.36 2.16-9.6 3.18l-2.88.9c-.36.12-.72.24-1.14.3-.06 0-.54.12-.18.06l-.36.06c-.3.06-.06 0 .06 0q-.63 0-1.08.36c-.06.06-.06.12-.12.18l-.54 1.08c-1.38 3.12-2.1 6.66-.9 9.96.9 2.22 2.58 4.14 4.68 5.28 1.32.78 3.18 1.92 4.8 1.44.36-.12.72-.3 1.14-.42 2.16-.84 4.38-1.74 6.54-2.52 1.14-.42 2.22-.84 3.36-1.26.42-.12.78-.3 1.2-.42l.48-.12c.42-.12-.24.06.12 0s.96-.24.72-.66c-.96-1.68-1.68-3.42-2.28-5.22a25.6 25.6 0 0 1-1.44-11.64c.12-.84-2.88-1.08-3-.18-.54 3.96.18 7.98 1.44 11.76.6 1.86 1.38 3.72 2.34 5.46l.72-.66c-1.02.24-2.04.54-3 .96-1.5.54-2.94 1.08-4.38 1.62-2.04.78-4.02 1.56-6.06 2.34l2.1.12c-3.48-1.38-6.48-3.84-7.02-7.74-.3-2.52.12-5.04 1.14-7.38.24-.54.48-1.02.72-1.5l-1.08.36c2.04-.18 4.14-1.02 6.12-1.68 2.58-.84 5.1-1.68 7.68-2.52l1.74-.6c.54-.18.54-.6.06-.84-.66-.18-1.38-.24-2.1-.06"/><path fill="#424242" d="M240.539 56.58s-3 3.06-34.08 30.9c0 0-1.62 11.28 6.06 15.9 0 0 26.28-1.44 45.12-.3z"/><path fill="#424242" d="M239.4 55.98c-.9.9-1.86 1.8-2.82 2.64-4.68 4.32-9.42 8.58-14.16 12.84s-9.42 8.46-14.1 12.72l-2.04 1.8c-.42.36-1.2.84-1.32 1.44-.06.36-.12.72-.12 1.14-.12 1.56-.06 3.06.12 4.62.24 2.22.9 4.32 1.92 6.3q.9 1.62 2.16 2.88c.9.9 2.22 2.16 3.54 2.1 2.22-.06 4.38-.18 6.6-.3 11.22-.42 22.5-.66 33.72-.18 1.44.06 2.94.12 4.38.24.84.06 2.04-.48 1.68-1.5l-5.82-15.78-9.18-25.02-2.1-5.76c-.48-1.26-3.36-.54-2.82.9l5.82 15.78 9.18 25.02 2.1 5.76 1.68-1.5c-7.86-.48-15.72-.48-23.58-.42a475 475 0 0 0-21.96.72l1.08.18c-4.62-2.82-5.94-8.64-5.7-13.74 0-.18 0-.42.06-.6v-.18c0-.06 0-.24.06-.36l-.36.48c8.34-7.5 16.74-15 25.08-22.56 2.76-2.52 5.58-5.1 8.34-7.68.24-.24.48-.42.72-.66 1.38-1.38-1.2-2.28-2.16-1.32"/><path fill="#111" d="M240.538 56.58s-5.28 13.92.84 28.02 16.32 18.54 16.32 18.54 6.66-9 3.84-24.18-21-22.38-21-22.38"/><path fill="#111" d="M239.158 57.06c-.72 2.04-1.26 4.14-1.56 6.3-.84 4.92-.78 9.9.18 14.76 1.86 9.12 6.96 17.28 14.28 22.98q1.98 1.62 4.32 2.7c.72.3 2.16-.36 2.58-.96q1.89-2.7 2.88-5.94c1.68-5.16 2.22-10.62 1.44-16.02q-.45-4.14-2.16-7.92c-1.02-2.16-2.34-4.2-3.9-6-2.76-3.12-5.94-5.82-9.54-7.98q-2.79-1.8-5.94-3.06c-.54-.24-1.32.12-1.86.42-.12.06-1.2.72-.72.96 1.62.66 3.18 1.5 4.68 2.4 3.42 1.98 6.6 4.38 9.36 7.26 3.24 3.42 5.76 7.62 6.72 12.3 1.2 5.64 1.02 11.52-.48 17.04-.72 2.46-1.68 5.16-3.18 7.14l2.58-.96c-1.2-.54-2.34-1.26-3.42-2.04-2.82-1.98-5.28-4.38-7.38-7.08-6.6-8.28-9.54-18.96-8.04-29.46.3-2.64.84-5.22 1.74-7.74.18-.48-1.08-.18-1.2-.12-.3.12-1.2.42-1.38 1.02"/><path fill="#fff" d="m248.58 72.72-9.9 1.62S240 87.3 245.46 92.1l9-8.4z"/><path fill="#111" d="m247.979 71.76-9.9 1.62c-.54.06-.9.48-.84 1.02.42 4.86 1.74 9.6 3.9 13.98a13.9 13.9 0 0 0 3.18 4.26c.54.48 1.74.72 2.34.18l9-8.4c.3-.24.36-.66.18-1.02l-5.94-10.98c-.6-1.14-3.54-.84-2.7.6l5.94 10.98.18-1.02-9 8.4 2.34.18c-2.22-1.98-3.54-4.98-4.44-7.74a50 50 0 0 1-1.86-7.86c-.06-.54-.18-1.08-.24-1.68l-.84 1.02 9.9-1.62c.48 0 .84-.48.84-.96 0-.12-.06-.24-.12-.36-.36-.6-1.26-.72-1.92-.6"/><path fill="#fff" d="M248.94 77.82s1.92 4.62 5.52 5.94c0 0-.54-8.58-5.94-10.98.06-.06-.96 1.86.42 5.04"/><path fill="#111" d="M247.858 77.82c1.26 3.06 3.72 5.94 6.9 7.14.42.12 1.02-.12.96-.6-.24-3.42-1.32-7.08-3.48-9.72a9.7 9.7 0 0 0-3.66-2.94c-.42-.18-.96-.3-1.2.18-.84 1.74-.24 4.2.48 5.94.3.66.96 1.14 1.68 1.26.72 0 .72-.72.54-1.26-.48-.96-.66-2.04-.54-3.12 0-.06.06-.48.06-.3.06-.12.06-.3.12-.42s.06-.24.12-.3l-1.2.24c.24.12.48.24.66.36-.24-.12.12.06.18.12s.24.18.36.24l.3.24c-.24-.18-.06 0 .06.06.18.18.36.42.6.6-.18-.18 0-.06.06.06s.12.18.24.3c.18.24.3.48.48.72.06.12.18.3.06.12l.18.3.36.72c.12.24.18.42.24.66.06.12.06.24.12.3s.12.36.12.24.06.18.06.24l.06.3c.06.24.12.42.18.66.18.72.36 1.44.42 2.16.06.24.06.54.12.78s0-.18 0-.12v.12l.96-.6-.12-.06-.3-.18-.24-.12-.12-.06c-.24-.12-.36-.24-.48-.36l-.3-.24-.06-.06-.9-.9c-.06-.06-.24-.3-.06-.06l-.12-.18c-.12-.18-.24-.3-.36-.48-.18-.24-.36-.54-.54-.84-.06-.12-.3-.48-.12-.18l-.18-.3c-.12-.24-.24-.48-.3-.72-.3-.66-.9-1.14-1.68-1.26-.9.06-.96.78-.72 1.32"/><path fill="#fff" d="M232.26 70.5c-.78 2.28-1.14 4.62-1.14 7.02-.12 5.34 1.44 10.62 4.5 15a33.4 33.4 0 0 0 9.3 8.82c1.32.9 3.54-1.08 1.98-2.1-5.46-3.6-10.08-8.52-11.94-14.94-.6-2.1-.96-4.32-.9-6.54 0-.48 0-.96.06-1.44 0-.24 0-.42.06-.66v-.48q.09-1.08.36-2.16c.12-.78.36-1.5.6-2.22.3-.72-.48-1.38-1.14-1.44-.78-.06-1.5.42-1.8 1.14z"/><path fill="#fff" d="m248.28 102.48.54.24c.12.06.24.06.36.06.06 0 .18 0 .24-.06s.06-.18.06-.24c0-.12-.06-.24-.12-.36l-.18-.3c-.12-.24-.3-.42-.48-.6l-.3-.24c-.18-.12-.36-.24-.6-.36l-.54-.24c-.12-.06-.24-.12-.36-.06-.06 0-.18 0-.24.06s-.06.18-.06.24c0 .12.06.24.12.36l.18.24c.12.24.3.42.48.6l.3.24c.18.18.42.3.6.42M235.259 67.08l.6-1.98c.12-.36.12-.72 0-1.02-.06-.18-.18-.36-.3-.54s-.24-.3-.42-.42c-.24-.24-.6-.3-.9-.24s-.54.24-.66.54l-.6 1.98c-.12.36-.12.72 0 1.02.06.18.18.36.3.54s.24.3.36.42c.24.24.6.3.9.24q.54-.09.72-.54M204.54 87.6c-.72 1.92-1.08 3.96-1.02 6 .18 2.04.9 4.02 2.1 5.7.42.6 1.02 1.02 1.74 1.2.54.12.9-.24.54-.72-1.08-1.5-1.74-3.24-1.8-5.1 0-1.92.36-3.84 1.08-5.7.06-.18-.24-.6-.36-.72q-.36-.45-.9-.72c-.42-.24-1.2-.54-1.38.06M208.8 103.2c.36.36.72.72 1.2 1.02.24.12.48.24.78.3.06 0 .12 0 .12-.06.06-.06.06-.18 0-.24l-.18-.36c-.06-.18-.18-.3-.3-.42l-.72-.9c-.18-.18-.36-.3-.6-.42-.06 0-.18-.06-.24-.06l.18.06c-.12-.06-.3-.12-.42-.24l.18.12-.12-.12.24.24-.06-.06-.36-.36c-.12-.06-.18-.18-.3-.24-.06-.06-.12-.06-.24-.06-.06 0-.12.06-.12.12v.18c.06.18.12.36.24.48.24.42.48.72.72 1.02M212.821 127.14s8.88-7.62 11.58-13.74-.66-9.84-3.18-7.02-7.86 8.64-10.92 9.06"/><path fill="#111" d="M214.079 127.86c1.44-1.26 2.82-2.58 4.2-3.96a41 41 0 0 0 6.72-8.34c1.5-2.64 3.06-7.08.42-9.6-1.08-.96-2.88-1.8-4.32-1.2-.54.3-1.08.72-1.44 1.2l-1.62 1.8c-1.44 1.56-2.94 3-4.5 4.38-1.2.96-2.64 2.28-4.26 2.52-.6.12-.06.66.18.84.54.48 1.2.72 1.92.72 1.26-.24 2.4-.84 3.42-1.62 1.38-1.02 2.64-2.1 3.84-3.36 1.14-1.14 2.22-2.28 3.3-3.48.36-.48.84-.96 1.32-1.32.18-.12.36-.18.6-.24.06 0 .24-.06.18 0 .06 0 .36.12-.06-.06-.18-.06-.36-.12-.54-.24-.42-.24-.12-.06 0 .18.18.24.3.48.36.78.24.72.3 1.5.24 2.22-.18 1.86-.84 3.66-1.8 5.22q-2.61 4.23-6.12 7.74c-1.44 1.5-2.94 3-4.56 4.32-.54.54 1.98 2.04 2.52 1.5"/><path fill="#fff" d="M146.938 181.92c-.3-.12-.6-.24-.9-.42l-.18-.12s-.24-.18-.12-.12-.12-.12-.12-.12c-.12-.12-.06-.06 0 0-.24-.3.12.18 0 0s.06.12.12.18c0 .12.06.06 0 0v-.18c0-.3.18-.6.42-.72.12-.06.24-.12.36-.12h.18c.06 0 0 .06-.06-.06.06.06.06.12 0 0-.24-.3-.06-.06 0 0l.18.3s.24.3.12.18l.12.18.12.24c.12.18.24.36.36.6-.12-.18 0 0 .06.06s.12.18.12.3.18.42.3.6l.42-.66c.96.84.96 1.74.9 1.14v-.24c.06-.24.06-.48.18-.66.18-.48.42-.96.66-1.38.3-.48.6-.9.96-1.26.18-.24.36-.42.6-.6l.24-.24c.06-.06.36-.12.12-.24l-.48-.48-.6-.9.06.12v.12c.06.18.06.36.06.54 0 .3 0 .6-.06.9-.12.66-.42 1.32-.78 1.86-.84 1.08-1.8 2.04-2.94 2.82-.12.12-.06.42 0 .54.12.36.3.66.54.96.18.3.48.54.72.78.12.06.36.3.54.18 2.04-1.5 4.08-3.42 3.96-6.18-.06-.84-.36-1.68-.84-2.4-.3-.48-.72-.9-1.26-1.08-.3-.06-.66.06-.84.3-.9.84-1.68 1.8-2.16 2.94-.3.54-.48 1.2-.48 1.86.06 1.14.9 2.16 1.74 2.88.12.12.42.3.54.12s-.06-.6-.12-.78c-.6-1.26-1.26-2.46-2.1-3.6-.54-.78-2.04-2.7-3.12-1.62s0 2.76.72 3.66c.78 1.14 1.92 1.98 3.18 2.52.6.24.36-.54.18-.78-.18-.36-.36-.66-.66-.96-.42-.6-.66-.78-.96-.96M165.96 155.7c-.12-.06-.3-.18-.06-.06l-.3-.18c-.18-.12-.36-.24-.54-.42l-.24-.24-.12-.12.06.06c-.12 0-.36-.42-.42-.48s-.3-.36-.42-.54.12.24 0 0l-.12-.24c-.12-.18-.24-.36-.3-.6l-.12-.3.06.12c-.06-.24-.12-.12-.12.3-.06.3-.06.54-.36.54-.12 0-.3 0-.42-.12-.3-.18-.06-.06 0 .06s.12.18.24.3l.24.3c.24.36-.18-.3.06.06.12.24.24.42.36.66.24.42.48.9.66 1.32-.12-.24 0-.06 0 .06s.06.18.12.3c.06.24.18.54.24.78.18.6.66 1.08 1.26 1.26.54.06 1.08-.3 1.14-.84l.24-1.8c0-.3.06-.54.12-.84 0-.12.06-.24.06-.36s.06-.18.06-.24c-.06.12 0 .12 0 0 .18-.24-.12.12.06-.06s-.18.06.06-.06q.18-.09 0 0h.06c-.06 0-.12 0-.18-.06-.18-.12-.18-.12-.06 0-.24-.24 0-.06 0 .06-.12-.18-.12-.24-.06-.06l.06.06c0 .06.06.12.06.18l-.06-.12c0 .06.06.24.06.3s.06.3.06.3c0-.24-.06-.24 0-.06v.72c-.06-.3 0-.12 0 0s-.06.24-.06.36l-.06.3c-.06.3.12-.24 0 .06-.06.18-.18.42-.3.6l-.12.24c.12-.24 0 0-.06.06-.12.18-.3.36-.42.48l-.24.18c.24-.18-.06.06-.12.06-.6.42-.72 1.26-.36 1.86.3.54 1.08 1.2 1.74.78a5.74 5.74 0 0 0 2.52-5.1 5.6 5.6 0 0 0-1.2-3.18c-.48-.6-1.26-.96-1.98-.9-.66.12-1.26.54-1.56 1.14s-.42 1.26-.48 1.92l-.24 2.1 2.4.42c-.36-1.38-.9-2.7-1.68-3.9-.42-.72-.9-1.38-1.5-1.92-.66-.6-1.68-.6-2.34 0-.72.78-.24 1.92.12 2.76.3.6.66 1.2 1.08 1.74a9.95 9.95 0 0 0 3.06 2.64c.48.24 1.08.06 1.38-.42.06-.12.06-.18.12-.3-.12-.78-.48-1.5-1.14-1.92M161.459 137.64c-.96-.24-1.8-.66-2.64-1.14-.12-.06-.24-.18-.36-.24.18.12-.12-.06-.12-.12.24.18-.06-.06-.06-.06.12.12.18.12.06.06l.12.12q-.18-.18 0 0l-.18-.18-.12-.12c-.12-.18-.3-.36-.42-.54-.36-.36-.6-.84-.78-1.32-.06-.24.06-.48.3-.54h.3c-1.2-1.14-1.62-1.5-1.14-.96l.12.18c.84.96 1.62 1.92 2.4 2.88.42.48.84.9 1.32 1.32.12.06.84.66.78.42-.12-.96.12-1.98.6-2.82q.36-.63.9-1.08c.18-.18.36-.3.54-.42l.36-.18c.12-.06.18-.06.3-.06.12.06.12 0 0-.06l-.78-.66.06.06-.72-.72c-.06-.06.06.12.06.18s.12.24.12.36l.18.72c.12.54.18 1.14.12 1.68-.06 1.08-.36 2.16-.96 3.12-.12.24.84 1.02.96 1.14s1.14 1.02 1.26.84c.66-1.14.96-2.46.96-3.78 0-.66-.12-1.32-.36-1.92-.3-.78-.84-1.5-1.5-1.98-.42-.42-.9-.78-1.44-1.02a.91.91 0 0 0-.78.18c-.54.3-.96.72-1.32 1.26a4.98 4.98 0 0 0-.84 3.3l2.16 1.74c-.84-1.08-1.74-2.16-2.64-3.24-.72-.84-1.5-1.62-2.4-2.22-.36-.24-1.14-.54-1.26.12-.12.48.42 1.14.72 1.56.3.48.66.96 1.08 1.38 1.08 1.2 2.22 2.28 3.54 3.18 1.08.78 2.28 1.32 3.54 1.68.18.06 0-.18 0-.24-.18-.24-.36-.48-.6-.66-.3-.3-.54-.54-.9-.78a.76.76 0 0 0-.54-.42M172.079 180.54c-.12-.06-.24-.12-.3-.24l-.18-.12-.12-.06-.06-.06-.12-.12-.12-.12.06.06-.12-.12c-.18-.18-.06-.06 0 .06-.06-.12-.18-.18-.24-.3s0 0 .06.06c0-.06-.06-.12-.12-.18l-.12-.18c-.12-.24.06.18 0 0l-.18-.36s-.12-.24-.06-.06 0-.06 0-.06c-.06-.12-.12-.24-.12-.36 0-.06-.06-.12-.06-.24v-.06c-.18-.54-.24-1.08-.3-1.62l-.06.3h.06l-.18-.12-.84-1.02c.06.18.12.3.24.48l.48.96.96 1.86c.24.42.54.84.9 1.2.06.06.6.6.72.36.6-1.02 1.56-1.8 2.64-2.22l-1.86-2.28c-.54 1.74-1.38 3.42-2.58 4.8-.12.12 0 .36 0 .54q.18.54.54.9c.12.12.96 1.26 1.26.96 1.26-1.44 2.16-3.18 2.7-5.04.06-.18-.12-.54-.24-.72-.18-.3-.36-.54-.54-.78-.24-.24-.72-.96-1.14-.78-1.08.42-2.04 1.2-2.64 2.22l1.68 1.56-1.38-2.76c-.3-.66-.72-1.32-1.26-1.86-.3-.36-.9-.96-1.44-.66-.06.06-.06.18-.06.3.12 1.56.66 3 1.5 4.32.84 1.44 1.98 2.7 3.42 3.66.06.06.36.3.48.18s0-.42 0-.54c-.24-.72-.66-1.32-1.26-1.74M144.42 165.18c1.08.06 2.1-.18 3.06-.6s1.74-1.02 2.46-1.8c.48-.48.66-1.14.48-1.8-.3-.9-1.44-1.26-2.28-1.26-1.2 0-2.4.54-3.18 1.44-.66.9-1.14 1.98-1.26 3.12-.06.3 0 .66.18.9.48.6 1.26.9 2.04.6.3-.12.54-.36.66-.66.12-.72.3-1.44.6-2.1l-.12.3c.18-.36.42-.66.66-.9l-.24.24c.12-.12.3-.24.48-.36.06-.06.12-.06.12-.12-.06 0-.24.12-.12.06l.3-.12c.06 0 .24-.06 0 0s-.06 0 0 0h.18-.18.3c-.24-.06-.36-.06-.24-.06s.06 0-.06-.06a.54.54 0 0 1-.36-.36c-.24-.36-.3-.42-.24-.24l-.06-.3v.12l.06-.3c0 .06-.06.12-.06.18l.12-.3c-.18.3-.36.54-.6.72l.24-.24c-.24.24-.54.48-.84.66-.12.12-.3.18-.42.24.06-.06.36-.24 0 0l-.24.12-.54.18-.18.06.12-.06h-.12c-.18.06-.36.06-.48.06h-.3c-.36 0 .24 0 0 0-.36 0-.72.06-1.02.24-.24.18-.42.48-.42.84.06.96.72 1.5 1.5 1.56"/><path fill="#424242" d="M260.039 83.22c1.14-.42 2.34-.54 3.48-.3 1.32.36 2.52.96 3.54 1.8 2.34 1.92 4.08 4.44 5.04 7.26 1.02 3.06 1.62 6.18 1.8 9.42.3 3.48.24 7.08-.78 10.44a14.83 14.83 0 0 1-4.56 7.14c-1.14.96-2.46 1.68-3.96 1.98-.18 0-.36 0-.48.06h-.24q.72.18.36 0c-.06-.12-.48-.42-.6-.6-.42-.54-.6-1.14-.6-1.8-.06-.84.48-1.62 1.26-1.92.24-.06.66 0 0-.12s-.24 0 0 .12c1.08.72 1.98 1.62 2.64 2.76 1.26 2.1 2.04 4.56 2.16 7.02.36 5.4-1.92 11.1-6.42 14.22-.3.24.84.54.96.54.42.12 1.44.48 1.86.18 4.74-3.3 7.08-9.24 6.54-14.94-.24-2.88-1.32-5.58-3.06-7.86-1.08-1.26-2.46-2.16-4.08-2.52-1.44-.36-3.48-.72-4.44.72-.72 1.14-.18 2.7.72 3.54 1.38 1.26 3.9 1.62 5.7 1.38 3.3-.42 6.06-3.12 7.68-5.88 1.98-3.36 2.52-7.26 2.46-11.1 0-3.9-.54-7.8-1.68-11.52-1.2-3.72-3.36-7.08-6.78-9.12-3.24-1.92-7.62-2.94-11.28-1.74-.36.12.9.54.96.54.6.24 1.2.3 1.86.18zM259.799 74.4l6.12-4.56c.3-.18-1.02-.96-1.14-1.02-.36-.18-1.14-.6-1.5-.3l-6.12 4.56c-.3.18 1.02.96 1.14 1.02.36.18 1.08.6 1.5.3"/></svg>