<svg width="138" height="139" viewBox="0 0 138 139" fill="none" xmlns="http://www.w3.org/2000/svg">
<g opacity="0.7">
<path d="M126.697 52.8915C125.679 57.7039 123.764 61.5078 125.763 69.6949C126.521 72.8005 127.492 75.0891 128.567 76.9403" stroke="white" stroke-miterlimit="10" stroke-linecap="round" stroke-linejoin="round"/>
<path d="M109.627 25.2596C113.166 31.2483 117.886 32.6597 120.362 42.8051C123.612 56.1166 116.505 57.8486 119.753 71.1599C121.506 78.3393 124.379 81.1458 127.17 84.2895" stroke="white" stroke-miterlimit="10" stroke-linecap="round" stroke-linejoin="round"/>
<path d="M100.521 18.3772C100.59 18.6986 100.666 19.0335 100.748 19.3728C103.998 32.6843 111.1 30.9527 114.351 44.2689C117.6 57.5804 110.498 59.3109 113.748 72.6224C116.346 83.2664 121.406 84.2944 124.991 91.0786" stroke="white" stroke-miterlimit="10" stroke-linecap="round" stroke-linejoin="round"/>
<path d="M93.873 14.8264C93.921 16.5575 94.1729 18.5249 94.7382 20.838C97.9877 34.1495 105.095 32.4164 108.346 45.7326C111.595 59.0441 104.487 60.7759 107.737 74.0874C110.976 87.3581 118.05 85.6822 121.313 98.8529L121.314 98.8576" stroke="white" stroke-miterlimit="10" stroke-linecap="round" stroke-linejoin="round"/>
<path d="M88.084 12.5402C87.714 15.1387 87.7221 18.1591 88.7337 22.3015C91.9832 35.613 99.0902 33.8799 102.341 47.1972C105.59 60.5087 98.4825 62.2405 101.732 75.552C104.983 88.8682 112.09 87.1362 115.341 100.452C115.911 102.785 116.159 104.759 116.206 106.506L116.207 106.511" stroke="white" stroke-miterlimit="10" stroke-linecap="round" stroke-linejoin="round"/>
<path d="M82.6776 11.0003C81.8682 14.3298 81.3063 17.9373 82.7284 23.7649C85.9779 37.0764 93.0802 35.3448 96.3312 48.661C99.5807 61.9724 92.4785 63.703 95.728 77.0144C98.979 90.3306 106.081 88.6001 109.332 101.916C110.605 107.131 110.292 110.567 109.631 113.617" stroke="white" stroke-miterlimit="10" stroke-linecap="round" stroke-linejoin="round"/>
<path d="M77.296 9.9936C76.2611 14.1336 74.9424 17.9519 76.7194 25.23C79.9689 38.5415 87.0759 36.8085 90.3267 50.1257C93.5762 63.4372 86.4683 65.169 89.7177 78.4805C92.9687 91.7967 100.076 90.0647 103.326 103.381C105.18 110.974 103.663 114.803 102.624 119.16" stroke="white" stroke-miterlimit="10" stroke-linecap="round" stroke-linejoin="round"/>
<path d="M71.7338 9.48434C70.7427 14.4954 68.6606 18.2832 70.7137 26.6934C73.9631 40.0049 81.0702 38.2718 84.3211 51.588C87.5706 64.8995 80.4638 66.6315 83.7122 79.9428C86.9631 93.259 94.0699 91.527 97.3209 104.843C99.4978 113.762 97.0237 117.482 96.1351 122.975" stroke="white" stroke-miterlimit="10" stroke-linecap="round" stroke-linejoin="round"/>
<path d="M65.9712 9.4997C65.1603 15.2912 62.4621 18.9599 64.7076 28.1582C67.9571 41.4696 75.0594 39.738 78.3103 53.0542C81.5598 66.3657 74.4577 68.0962 77.7072 81.4077C80.9581 94.7239 88.0603 92.9934 91.3112 106.31C93.6462 115.877 90.6332 119.464 89.9645 125.664" stroke="white" stroke-miterlimit="10" stroke-linecap="round" stroke-linejoin="round"/>
<path d="M60.0674 10.0943C59.4316 16.4087 56.3434 19.9705 58.6992 29.623C61.9487 42.9345 69.0557 41.2014 72.3065 54.5187C75.5559 67.8302 68.4491 69.5622 71.6975 82.8735C74.9485 96.1897 82.0553 94.4577 85.3063 107.774C87.6936 117.555 84.4913 121.083 83.9096 127.553" stroke="white" stroke-miterlimit="10" stroke-linecap="round" stroke-linejoin="round"/>
<path d="M54.0858 11.3141C53.5073 17.7774 50.3065 21.3097 52.6924 31.0866C55.9419 44.3981 63.0489 42.665 66.2997 55.9823C69.5492 69.2938 62.4423 71.0258 65.6907 84.3371C68.9417 97.6533 76.0485 95.9213 79.2995 109.237C81.6568 118.895 78.5638 122.458 77.928 128.772" stroke="white" stroke-miterlimit="10" stroke-linecap="round" stroke-linejoin="round"/>
<path d="M48.0314 13.2016C47.3628 19.4024 44.3543 22.9883 46.688 32.5502C49.9375 45.8617 57.0398 44.1301 60.2907 57.4463C63.5402 70.7578 56.4381 72.4883 59.6876 85.7998C62.9385 99.116 70.0407 97.3855 73.2916 110.702C75.5385 119.905 72.8357 123.575 72.0295 129.365" stroke="white" stroke-miterlimit="10" stroke-linecap="round" stroke-linejoin="round"/>
<path d="M41.8646 15.8878C40.9697 21.3777 38.5018 25.1006 40.6772 34.0151C43.9267 47.3266 51.0337 45.5935 54.2845 58.9108C57.534 72.2223 50.4261 73.9541 53.6756 87.2656C56.9265 100.582 64.0334 98.8498 67.2843 112.166C69.3402 120.587 67.251 124.37 66.2622 129.387" stroke="white" stroke-miterlimit="10" stroke-linecap="round" stroke-linejoin="round"/>
<path d="M35.3714 19.7042C34.3323 24.0624 32.8187 27.8846 34.6718 35.4776C37.9213 48.7891 45.0236 47.0575 48.2746 60.3737C51.524 73.6852 44.4219 75.4157 47.6714 88.7272C50.9224 102.043 58.0247 100.312 61.2754 113.629C63.0538 120.913 61.7336 124.727 60.7001 128.871" stroke="white" stroke-miterlimit="10" stroke-linecap="round" stroke-linejoin="round"/>
<path d="M28.3607 25.2488L28.3621 25.2535C27.7068 28.3023 27.3927 31.738 28.6636 36.9439C31.9131 50.2553 39.0201 48.5223 42.2709 61.8395C45.5203 75.151 38.4124 76.8828 41.6619 90.1943C44.9129 103.511 52.0197 101.779 55.2707 115.095C56.6928 120.922 56.1308 124.53 55.3183 127.866" stroke="white" stroke-miterlimit="10" stroke-linecap="round" stroke-linejoin="round"/>
<path d="M21.793 32.3581C21.8379 34.101 22.0882 36.0782 22.6565 38.4073C25.9059 51.7188 33.013 49.9857 36.2637 63.303C39.5132 76.6145 32.4053 78.3463 35.6548 91.6578C38.9058 104.974 46.0126 103.242 49.2635 116.558C50.2751 120.701 50.2836 123.726 49.91 126.326" stroke="white" stroke-miterlimit="10" stroke-linecap="round" stroke-linejoin="round"/>
<path d="M16.6836 40.0056L16.6851 40.0103C19.9502 53.1703 27.0142 51.4961 30.2535 64.7669C33.503 78.0784 26.4009 79.8089 29.6504 93.1204C32.9013 106.437 40.0037 104.705 43.2544 118.022C43.8187 120.335 44.0718 122.302 44.1196 124.034" stroke="white" stroke-miterlimit="10" stroke-linecap="round" stroke-linejoin="round"/>
<path d="M13.0059 47.785L13.0073 47.7897C16.5994 54.5572 21.6555 55.5958 24.2515 66.2305C27.5009 79.542 20.3941 81.274 23.6425 94.5853C26.8935 107.901 34.0003 106.169 37.2513 119.486C37.3335 119.825 37.4107 120.16 37.4795 120.486" stroke="white" stroke-miterlimit="10" stroke-linecap="round" stroke-linejoin="round"/>
<path d="M10.834 54.5629C13.6202 57.708 16.4928 60.5145 18.2457 67.6939C21.4952 81.0054 14.3873 82.7372 17.6368 96.0487C20.1149 106.199 24.839 107.604 28.3795 113.603L28.381 113.608" stroke="white" stroke-miterlimit="10" stroke-linecap="round" stroke-linejoin="round"/>
<path d="M9.43359 61.9239C10.5142 63.7738 11.4784 66.0579 12.236 69.159C14.234 77.3448 12.32 81.1499 11.3019 85.9624" stroke="white" stroke-miterlimit="10" stroke-linecap="round" stroke-linejoin="round"/>
</g>
</svg>
