<svg width="30" height="31" viewBox="0 0 30 31" fill="none" xmlns="http://www.w3.org/2000/svg">
<g opacity="0.3" clip-path="url(#clip0_470_18634)">
<path d="M8.80824 17.832C4.03314 17.832 0.148438 13.9473 0.148438 9.1722C0.148438 4.3971 4.03314 0.512695 8.80824 0.512695C13.5833 0.512695 17.468 4.3974 17.468 9.1725C17.468 9.5286 17.1794 9.8172 16.8233 9.8172C16.4672 9.8172 16.1786 9.5286 16.1786 9.1725C16.1786 5.1087 12.8723 1.8021 8.80824 1.8021C4.74444 1.8021 1.43784 5.1084 1.43784 9.1725C1.43784 13.2366 4.74414 16.5429 8.80824 16.5429C9.16434 16.5429 9.45294 16.8315 9.45294 17.1876C9.45294 17.5434 9.16434 17.832 8.80824 17.832Z" fill="#1E1E1E"/>
<path d="M8.80773 15.4278C5.35863 15.4278 2.55273 12.6219 2.55273 9.17278C2.55273 5.72368 5.35863 2.91748 8.80773 2.91748C12.2568 2.91748 15.063 5.72368 15.063 9.17278C15.063 9.52888 14.7744 9.81748 14.4183 9.81748C14.0622 9.81748 13.7736 9.52888 13.7736 9.17278C13.7736 6.43468 11.5458 4.20688 8.80773 4.20688C6.06963 4.20688 3.84183 6.43438 3.84183 9.17278C3.84183 11.9112 6.06933 14.1384 8.80743 14.1384C9.16353 14.1384 9.45213 14.427 9.45213 14.7831C9.45213 15.1392 9.16383 15.4278 8.80773 15.4278Z" fill="#1E1E1E"/>
<path d="M8.80753 13.0231C6.68443 13.0231 4.95703 11.2957 4.95703 9.17258C4.95703 7.04948 6.68443 5.32178 8.80753 5.32178C10.9306 5.32178 12.6583 7.04948 12.6583 9.17258C12.6583 9.52868 12.3697 9.81728 12.0136 9.81728C11.6575 9.81728 11.3689 9.52868 11.3689 9.17258C11.3689 7.76018 10.2199 6.61118 8.80753 6.61118C7.39513 6.61118 6.24643 7.76018 6.24643 9.17258C6.24643 10.585 7.39543 11.7337 8.80753 11.7337C9.16363 11.7337 9.45223 12.0223 9.45223 12.3784C9.45223 12.7345 9.16363 13.0231 8.80753 13.0231Z" fill="#1E1E1E"/>
<path d="M28.6268 19.9437L23.3195 22.8036L22.7471 23.1078L22.4375 23.6856L19.5803 28.9902C18.6056 30.8058 15.9236 30.5427 15.3122 28.5777L10.82 14.0976C10.268 12.3054 11.9417 10.6317 13.7288 11.1861L17.1302 12.2409L20.5034 13.2879L27.1721 15.3561L27.3551 15.4128L28.214 15.6783C30.1844 16.2897 30.4421 18.9666 28.6268 19.9437Z" fill="#1E1E1E"/>
<path d="M16.8898 16.376L23.3173 22.8035L22.7473 23.1077L22.4359 23.6846L16.0084 17.2571C15.7636 17.0123 15.7672 16.6172 16.0084 16.376C16.2532 16.1312 16.645 16.1312 16.8898 16.376Z" fill="url(#paint0_linear_470_18634)"/>
</g>
<defs>
<linearGradient id="paint0_linear_470_18634" x1="19.0391" y1="20.2382" x2="19.9204" y2="19.3569" gradientUnits="userSpaceOnUse">
<stop stop-color="white"/>
<stop offset="1" stop-color="#F0F0F0"/>
</linearGradient>
<clipPath id="clip0_470_18634">
<rect width="30" height="30" fill="white" transform="translate(0 0.362793)"/>
</clipPath>
</defs>
</svg>
