<svg width="200" height="140" viewBox="0 0 200 140" fill="none" xmlns="http://www.w3.org/2000/svg">
<path d="M166.623 124.591C166.623 124.591 176.089 136.469 176.407 136.15C176.726 135.832 181.459 131.463 181.459 131.463L177.454 126.912L184.235 129.824L199.617 114.715C199.617 114.715 198.707 112.622 193.428 113.987C188.149 115.353 180.048 117.947 180.048 117.947L173.995 111.302L166.623 124.591Z" fill="black"/>
<path d="M166.395 124.728C168.307 127.14 170.264 129.506 172.221 131.873C173.313 133.193 174.405 134.512 175.588 135.741C175.77 135.969 176.089 136.378 176.407 136.378C176.817 136.424 177.363 135.696 177.636 135.468C179.001 134.194 180.412 132.874 181.777 131.6C181.823 131.554 181.868 131.463 181.823 131.372L177.818 126.821L177.363 127.094L184.144 130.007C184.28 130.052 184.417 130.052 184.553 129.916L189.741 124.819L198.024 116.627L199.935 114.761C199.981 114.716 200.027 114.625 199.981 114.534C199.708 114.124 199.344 113.806 198.889 113.624C197.478 112.987 195.794 113.214 194.338 113.533C192.381 113.942 190.424 114.579 188.467 115.125C186.647 115.672 184.827 116.218 183.006 116.764C182.05 117.082 181.049 117.355 180.094 117.674L180.412 117.719L174.314 111.075C174.132 110.984 173.95 111.03 173.813 111.166L167.26 122.907L166.35 124.546C166.213 124.819 166.759 124.864 166.851 124.637L173.313 112.941L174.223 111.303L173.722 111.394L179.821 118.038C179.912 118.129 180.048 118.084 180.139 118.084C182.415 117.355 184.736 116.627 187.011 115.99C188.877 115.444 190.743 114.898 192.654 114.397C194.338 113.942 196.204 113.442 197.933 113.897C198.434 114.033 199.116 114.306 199.344 114.807L199.389 114.625L194.201 119.722L185.919 127.913L184.007 129.779L184.417 129.688L177.636 126.776C177.5 126.73 176.999 126.821 177.227 127.049L181.231 131.6L181.277 131.372L177.909 134.512L176.908 135.422C176.726 135.604 176.407 135.787 176.271 136.014C176.134 136.242 176.544 135.969 176.544 136.014C176.544 136.06 176.453 135.969 176.407 135.923C176.271 135.787 176.134 135.65 175.998 135.513C173.495 132.874 171.31 130.007 169.035 127.185C168.307 126.321 167.624 125.41 166.896 124.546C166.759 124.318 166.213 124.5 166.395 124.728Z" fill="black"/>
<path d="M59.4041 108.89C59.4041 108.89 44.2951 107.206 44.2951 107.616C44.2951 108.026 44.0676 114.488 44.0676 114.488L50.1203 114.897L43.2484 117.628L43.0664 139.199C43.0664 139.199 45.2053 140.018 47.9814 135.331C50.7574 130.643 54.6257 123.089 54.6257 123.089L63.6364 123.499L59.4041 108.89Z" fill="black"/>
<path d="M59.5397 108.663C56.4906 108.344 53.487 108.026 50.4834 107.707C48.754 107.525 47.0247 107.343 45.2954 107.298C44.9313 107.252 44.5672 107.252 44.2032 107.389C43.8391 107.616 44.0211 108.481 44.0211 108.845C43.9756 110.711 43.8846 112.622 43.8391 114.488C43.8391 114.625 43.9301 114.67 44.0666 114.716L50.1193 115.125L50.0738 114.761L43.202 117.492C43.1565 117.492 43.0199 117.583 43.0199 117.674L42.9289 124.955L42.8379 136.605V139.245C42.8379 139.336 42.8834 139.382 42.9289 139.427C43.4295 139.564 43.9756 139.518 44.4307 139.336C45.887 138.79 46.9792 137.47 47.7984 136.196C48.8906 134.512 49.8463 132.646 50.8475 130.871C51.7576 129.188 52.6678 127.504 53.578 125.82C54.0331 124.955 54.4882 124.091 54.9433 123.226L54.6702 123.362L63.681 123.772C63.772 123.772 64.045 123.681 63.9995 123.499L60.3133 110.665L59.8127 108.845C59.7217 108.572 59.1756 108.708 59.2666 108.936L62.9073 121.77L63.4079 123.59L63.7265 123.317L54.7157 122.907C54.5792 122.907 54.4882 122.953 54.3972 123.044C53.3504 125.092 52.2582 127.14 51.1205 129.188C50.2103 130.826 49.3002 132.464 48.39 134.102C47.4798 135.695 46.5241 137.47 44.9768 138.517C44.6127 138.79 44.1576 138.972 43.7026 139.017C43.6115 139.017 43.4295 138.972 43.3385 139.017C43.2475 139.063 43.202 138.972 43.2475 139.017L43.3385 139.199L43.4295 131.918L43.5205 120.268V117.628L43.3385 117.81L50.2103 115.08C50.4834 114.989 50.3924 114.716 50.1648 114.716L44.1121 114.306L44.3397 114.534C44.3852 112.986 44.4307 111.439 44.4762 109.937C44.4762 109.482 44.5217 109.027 44.5217 108.617C44.5672 108.344 44.5672 108.071 44.5672 107.753V107.662L44.4307 107.798C44.4307 107.798 44.4762 107.798 44.5217 107.798C44.7038 107.798 44.9313 107.798 45.1133 107.798C48.7085 107.889 52.3492 108.39 55.9445 108.754C57.0822 108.891 58.1744 108.982 59.3121 109.118C59.5852 109.118 59.9037 108.709 59.5397 108.663Z" fill="black"/>
<path d="M136.725 103.611L167.125 129.324L180.413 114.261L144.234 80.3564L136.725 103.611Z" fill="white"/>
<path d="M136.178 104.522L139.182 107.07L146.463 113.214L155.246 120.632L162.846 127.049C164.075 128.095 165.258 129.188 166.533 130.143L166.578 130.189C166.942 130.507 167.488 130.462 167.852 130.143L172.358 125.046L179.503 116.946L181.141 115.08C181.596 114.579 181.55 113.806 181.05 113.35C181.004 113.35 181.004 113.305 180.959 113.305L177.364 109.937L168.717 101.837L158.295 92.0523L149.285 83.5877L146.281 80.8116C145.826 80.3565 145.371 79.9015 144.87 79.4919L144.825 79.4464C144.415 79.1278 143.778 79.1733 143.46 79.5829C143.368 79.6739 143.323 79.8104 143.277 79.9015L140.729 87.7745L136.679 100.289L135.768 103.157C135.359 104.431 137.316 105.341 137.771 103.976L140.319 96.1026L144.37 83.5877L145.28 80.7206L143.733 81.2212L147.328 84.5889L155.974 92.6895L166.396 102.474L175.407 110.939L178.41 113.715C178.865 114.17 179.321 114.625 179.821 115.034L179.867 115.08L179.685 113.305L175.179 118.402L168.034 126.457L166.396 128.323L167.67 128.277L164.621 125.729L157.34 119.585L148.602 112.304L141.002 105.887C139.773 104.84 138.59 103.748 137.316 102.792L137.27 102.747C136.861 102.428 136.224 102.474 135.905 102.883C135.905 102.929 135.86 102.929 135.86 102.974C135.541 103.521 135.723 104.158 136.178 104.522Z" fill="black"/>
<path d="M109.827 107.48C109.827 107.48 110.191 123.226 101.363 126.321C92.5339 129.415 59.5855 126.002 59.5855 126.002L53.7148 107.48H109.827Z" fill="white"/>
<path d="M108.69 107.707V107.753C108.69 107.935 108.69 107.616 108.69 107.707C108.69 107.935 108.69 108.162 108.69 108.344C108.69 109.072 108.644 109.801 108.599 110.529C108.417 112.759 108.053 114.943 107.461 117.127C106.824 119.403 105.777 121.724 104.184 123.453C103.456 124.272 102.546 124.955 101.499 125.41C101.272 125.501 100.999 125.592 100.771 125.683L100.498 125.774L100.635 125.729L100.407 125.774C99.9974 125.865 99.5878 125.956 99.2238 126.047C98.2226 126.229 97.2214 126.366 96.2657 126.457L95.8561 126.502H95.6741C95.7196 126.502 95.9016 126.502 95.6741 126.502L94.8094 126.548C94.2178 126.593 93.5807 126.639 92.9891 126.639C90.304 126.775 87.619 126.775 84.934 126.73C79.5184 126.639 74.1484 126.32 68.7783 125.911C66.7759 125.774 64.819 125.592 62.8166 125.41C61.861 125.319 60.8598 125.183 59.9041 125.137H59.7676L60.7232 125.774L58.7208 119.539L55.5352 109.528L54.8071 107.252L53.5328 108.299H102.728C105.003 108.299 107.279 108.344 109.554 108.299H109.645C110.146 108.299 110.829 108.026 110.92 107.48C111.011 106.934 110.419 106.615 109.964 106.615H60.7232C58.4478 106.615 56.1723 106.569 53.8969 106.615H53.8059C53.3508 106.615 52.3496 107.025 52.5316 107.662L54.534 113.896L57.7197 123.908L58.4478 126.184C58.5843 126.593 58.9939 126.866 59.4035 126.821C61.952 127.094 64.455 127.276 67.0035 127.504C72.419 127.913 77.8346 128.232 83.2957 128.368C88.3927 128.505 93.6262 128.596 98.6777 127.777C100.817 127.413 102.91 126.821 104.639 125.456C106.642 123.772 108.144 121.542 109.008 119.084C110.328 115.444 110.965 111.575 110.92 107.662V107.252C110.92 106.706 110.055 106.569 109.645 106.615C109.099 106.706 108.69 107.161 108.69 107.707Z" fill="black"/>
<path d="M133.13 115.535L4.52148 115.262L36.5142 46.498L165.122 46.7711L133.13 115.535Z" fill="#23CF00"/>
<path d="M133.128 115.353H129.669H120.295L106.505 115.307L89.6215 115.262L71.0994 115.216L52.4863 115.171L35.0563 115.125L20.4025 115.08H9.79889C8.11507 115.08 6.43124 115.034 4.79291 115.08H4.56537L5.70309 115.262L8.88872 108.435L16.4887 91.9613L25.727 72.1649L33.7366 54.9625L36.3761 49.2739L37.1953 47.5446C37.3773 47.226 37.5138 46.9074 37.6503 46.5889C37.6503 46.5434 37.6959 46.4979 37.6959 46.4979L36.5581 46.6799H40.0168L49.3916 46.7254L63.1808 46.7709L80.0647 46.8164L98.5868 46.8619L117.2 46.9074L134.63 46.953L149.284 46.9985L159.887 47.044C161.571 47.044 163.255 47.0895 164.893 47.044H165.121L163.983 46.8619L160.797 53.6883L153.152 70.0715L143.914 89.9134L135.904 107.116L133.265 112.804L132.445 114.488C132.263 114.761 132.081 115.08 131.99 115.444C131.99 115.489 131.945 115.535 131.945 115.58C131.945 115.535 133.993 116.035 134.22 115.535L137.406 108.709L145.051 92.2798L154.29 72.4835L162.299 55.2811L164.939 49.5925L165.758 47.8631C165.94 47.5901 166.122 47.2715 166.213 46.9074C166.213 46.8619 166.259 46.8164 166.259 46.7709C166.304 46.6344 165.121 46.5889 165.121 46.5889H161.662H152.287L138.498 46.5434L121.614 46.4979L103.092 46.4523L84.479 46.4068L67.0491 46.3613L52.3952 46.3158L41.7917 46.2703C40.1078 46.2703 38.4695 46.2703 36.7857 46.2703H36.5581C36.3306 46.2703 35.5569 46.2248 35.4204 46.4523L32.2348 53.2787L24.5893 69.6619L15.351 89.4583L7.34141 106.661L4.7019 112.349L3.88274 114.079C3.7007 114.352 3.51867 114.67 3.42765 115.034C3.42765 115.08 3.38214 115.125 3.38214 115.171C3.33663 115.307 4.51986 115.353 4.51986 115.353H7.97854H17.3534L31.1426 115.398L48.0719 115.444L66.594 115.489L85.2072 115.535L102.637 115.58L117.291 115.626H127.895C129.578 115.626 131.262 115.626 132.9 115.626H133.128C133.265 115.626 134.266 115.626 134.266 115.444C134.266 115.262 133.174 115.353 133.128 115.353Z" fill="#23CF00"/>
<path d="M38.7422 49.4101L43.3386 53.2329L54.3517 62.3802L67.6403 73.3933L79.1086 82.9047C80.9744 84.452 82.7948 86.0903 84.7062 87.5466L84.7972 87.5921C84.9792 87.7741 85.2978 87.8196 85.5253 87.7286L87.5732 86.7274L93.1708 83.9969L101.408 79.9011L111.465 74.9861L122.479 69.5706L133.628 64.1095L144.004 59.0125L152.742 54.7347L159.068 51.64C160.023 51.1395 161.116 50.7299 162.071 50.1838C162.117 50.1383 162.162 50.1383 162.208 50.1383C162.845 49.8197 161.571 47.9538 160.797 48.3634L158.749 49.3646L153.152 52.0951L144.96 56.1454L134.902 61.0604L123.844 66.5215L112.694 71.9825L102.318 77.0795L93.5804 81.3574L87.2547 84.452C86.2079 84.9071 85.2523 85.3622 84.2511 85.9083C84.2056 85.9538 84.16 85.9538 84.1145 85.9538L84.8427 86.0903L80.2463 82.2676L69.2331 73.1658L55.899 62.1526L44.4308 52.6412C42.5649 51.0939 40.7445 49.4556 38.8332 47.9993L38.7422 47.9538C38.4236 47.6808 37.923 47.6353 37.8775 48.1359C37.832 48.6365 38.4236 49.0916 38.7422 49.4101Z" fill="black"/>
<path d="M15.3059 109.846L20.7215 106.387L33.646 98.1957L49.3921 88.1837L62.9082 79.5825L67.3681 76.761C68.0962 76.3059 68.8244 75.8963 69.507 75.3957L69.598 75.3502C70.3262 74.8951 69.1429 72.9382 68.4603 73.3933L63.0448 76.852L50.1202 85.0436L34.3741 95.0556L20.858 103.657L16.3981 106.478C15.7155 106.933 14.9418 107.343 14.2592 107.844C14.2137 107.844 14.2137 107.889 14.1682 107.889C13.44 108.39 14.6233 110.347 15.3059 109.846Z" fill="black"/>
<path d="M104.231 75.3504L106.689 78.7181L112.559 86.7731L119.659 96.512L125.848 104.977C126.849 106.342 127.805 107.753 128.851 109.073L128.897 109.118C129.215 109.528 129.671 109.892 130.171 110.074C130.535 110.21 130.626 110.119 130.399 109.755L127.941 106.387L122.071 98.3324L114.926 88.639L108.736 80.1743C107.735 78.8091 106.78 77.3983 105.733 76.0785L105.687 76.033C105.369 75.6235 104.914 75.2594 104.413 75.0773C104.049 74.8953 103.958 74.9863 104.231 75.3504Z" fill="black"/>
<path d="M94.0814 37.8511C94.0814 37.8511 82.9773 46.3157 82.2491 50.4115C80.7928 58.6486 102.683 77.1253 106.733 80.8115C110.783 84.4977 117.746 88.6845 117.564 84.7253C117.564 84.7253 122.479 87.7288 121.842 83.633C121.842 83.633 126.893 85.0438 124.163 81.3576C121.523 77.8534 115.516 72.4834 115.516 72.4834C115.516 72.4834 116.563 71.3911 119.02 70.572C121.478 69.7528 122.57 67.6594 119.43 66.5217C116.29 65.384 114.242 65.566 107.643 66.5672L97.4036 51.4582L103.638 46.7708L94.0814 37.8511Z" fill="white"/>
<path d="M93.3533 36.9866C89.9857 39.4895 86.8455 42.3111 84.024 45.4512C82.7042 46.953 81.2935 48.6823 81.339 50.7758C81.3845 52.8692 82.3857 54.8715 83.3869 56.6464C86.1629 61.5614 90.2132 65.8392 94.127 69.7985C97.5856 73.3027 101.272 76.6248 104.958 79.947C106.733 81.6308 108.644 83.1781 110.647 84.5889C112.012 85.5446 113.514 86.3637 115.107 86.9553C115.926 87.2284 117.291 87.638 117.974 86.8188C118.292 86.4092 118.429 85.9086 118.338 85.3625L117.792 85.5901C118.611 86.0907 119.521 86.5002 120.477 86.6823C121.023 86.8643 121.66 86.7733 122.16 86.4092C122.752 85.9086 122.752 84.9529 122.616 84.2248L122.251 84.5434C122.934 84.7254 123.662 84.8164 124.345 84.8164C124.754 84.8164 125.164 84.6799 125.483 84.4523C125.938 83.9973 125.71 83.2691 125.528 82.7685C124.845 81.0392 123.298 79.5829 122.069 78.2176C120.841 76.8523 119.43 75.4871 118.065 74.1673C117.291 73.4392 116.472 72.6655 115.653 71.9374L116.199 73.3482C117.154 72.347 118.52 71.8464 119.794 71.3913C121.114 70.8907 122.616 69.7985 121.978 68.1602C121.296 66.3398 119.384 65.6117 117.655 65.1566C116.381 64.838 115.107 64.7015 113.787 64.7925C111.511 64.929 109.236 65.2021 107.006 65.6117L108.144 66.4763L99.1785 53.2332L97.9042 51.3674L98.0862 52.3231L104.321 47.6356C104.731 47.3171 103.957 46.4069 103.775 46.2249L95.4012 38.3973L94.218 37.3051C94.0359 37.1231 93.4898 36.668 93.2623 37.0776C93.0348 37.4871 93.6719 38.1698 93.8994 38.3973L102.273 46.2249L103.456 47.3171L102.91 45.9063L96.6755 50.5482C96.4024 50.7302 96.721 51.3219 96.8575 51.5039L105.823 64.747L107.097 66.6128C107.325 66.9314 107.78 67.5685 108.235 67.4775C110.101 67.2045 111.966 66.8859 113.878 66.7494C115.061 66.6129 116.29 66.6584 117.473 66.7949C117.837 66.8404 120.886 67.5685 120.75 67.8871C120.75 67.8871 120.477 67.5685 120.522 67.5685C120.522 67.6596 120.522 67.7506 120.522 67.8416C120.477 68.1146 120.34 68.3877 120.113 68.5697C119.566 69.1158 118.929 69.4799 118.201 69.7075C117.018 70.117 115.698 70.7086 114.788 71.6188C114.424 71.9829 115.107 72.8021 115.334 73.0296C117.109 74.6224 118.838 76.2607 120.477 77.9446C121.66 79.0823 122.752 80.3565 123.753 81.6763C123.89 81.8583 124.026 82.0859 124.117 82.3134C124.072 82.2224 124.117 82.4955 124.117 82.4044C124.117 82.4955 124.163 82.4499 124.072 82.5865C123.89 82.814 123.617 82.9506 123.344 82.9506C122.661 82.9961 121.978 82.9506 121.341 82.723C121.114 82.6775 120.932 82.7685 120.977 83.0416C121.068 83.5877 121.159 84.3613 120.613 84.6799C120.204 84.9074 119.748 84.9074 119.339 84.7709C118.611 84.5889 117.928 84.3158 117.291 83.9062C117.018 83.7697 116.699 83.7697 116.745 84.1338C116.836 86.9553 112.422 84.3158 111.466 83.7242C109.418 82.4044 107.507 80.9026 105.777 79.2643C102.364 76.2152 98.9964 73.1661 95.7198 69.9805C93.7174 67.9781 91.806 66.0212 89.9857 63.9733C88.3018 62.062 86.709 60.0596 85.3437 57.9206C85.2072 57.6931 85.0252 57.4201 84.8887 57.1925L84.6611 56.8284L84.5701 56.6464C84.4791 56.4644 84.5701 56.6464 84.5246 56.5554C84.2515 56.1003 84.024 55.6452 83.7964 55.1446C83.6144 54.7805 83.4779 54.371 83.3414 53.9614C83.2959 53.7793 83.2048 53.5518 83.1593 53.3698C83.1138 53.1877 83.0683 52.9602 83.0683 52.8237C82.9318 52.0955 82.9773 51.3674 83.2048 50.6847C83.5689 49.729 84.115 48.8644 84.7521 48.0907C86.436 46.0428 88.3018 44.177 90.3042 42.4476C91.6695 41.2189 93.1258 40.0356 94.5821 38.8979L94.8096 38.7159C95.3102 38.3063 93.8994 36.5315 93.3533 36.9866Z" fill="black"/>
<path d="M110.692 79.264C111.966 80.8113 113.332 82.3131 114.833 83.6329C115.425 84.179 116.017 84.6341 116.654 85.0892C117.018 85.3167 117.7 85.1802 118.064 85.0437C118.155 84.9981 119.066 84.7251 118.793 84.4976C117.655 83.6784 116.563 82.7682 115.607 81.767C114.788 80.9479 114.014 80.0832 113.24 79.2185C113.104 79.0365 112.967 78.8544 112.785 78.7179C112.603 78.5814 112.33 78.6269 112.239 78.6269C111.966 78.6269 111.648 78.6724 111.375 78.7634C111.238 78.7634 110.464 78.9455 110.692 79.264Z" fill="black"/>
<path d="M113.605 76.6703C115.471 78.8092 117.474 80.8116 119.567 82.723C120.341 83.4512 121.205 84.0883 122.07 84.6799C122.389 84.9074 122.844 84.8619 123.071 84.5434C123.117 84.4979 123.162 84.4068 123.208 84.3158C123.299 83.7242 123.026 83.1781 122.525 82.9051L122.07 82.5865C121.979 82.4955 122.115 82.632 122.115 82.632L122.024 82.541L121.751 82.3134C121.387 82.0404 121.069 81.7218 120.705 81.4488C120.022 80.8571 119.339 80.22 118.657 79.5829C117.519 78.4907 116.472 77.353 115.426 76.2152L115.153 75.8967C115.016 75.7602 114.88 75.5781 115.107 75.8512L114.925 75.6691C114.607 75.3051 114.06 74.8955 113.605 75.2595C113.15 75.6236 113.332 76.3518 113.605 76.6703Z" fill="black"/>
<path d="M103.593 46.7708L92.5801 35.7576C92.5801 35.7576 115.061 22.5145 125.711 28.1121C136.36 33.7097 133.766 46.8618 133.766 46.8618" fill="white"/>
<path d="M104.504 46.6341L94.8109 36.9407L93.4457 35.5754L93.3547 36.3491C95.175 35.2569 97.0864 34.3012 98.9978 33.391C103.048 31.3886 107.235 29.7958 111.558 28.5671C113.834 27.9299 116.155 27.5659 118.476 27.3838C119.522 27.3383 120.523 27.3383 121.57 27.4748C122.435 27.5659 123.3 27.7479 124.119 28.0665C124.346 28.1575 124.574 28.2485 124.756 28.3395C124.892 28.385 124.756 28.3395 124.71 28.3395L124.892 28.4305L125.256 28.6126C125.848 28.9311 126.394 29.2497 126.94 29.6593C127.941 30.3874 128.852 31.2521 129.625 32.2533C130.945 33.9826 131.901 35.985 132.356 38.1239C132.765 39.8988 132.993 41.6736 132.947 43.494C132.947 44.4497 132.856 45.4054 132.72 46.3155L132.674 46.4521C132.492 47.3167 134.677 47.9994 134.813 47.2257C135.268 44.7682 135.268 42.2652 134.813 39.8078C134.04 34.8018 131.036 30.3874 126.622 27.8844C122.48 25.518 117.429 25.7455 112.878 26.6557C108.145 27.7024 103.549 29.2497 99.1798 31.3431C96.6768 32.4353 94.2648 33.7096 91.8984 35.0748L91.8073 35.1203C91.5798 35.2114 91.4888 35.4844 91.5798 35.712C91.6253 35.7575 91.6708 35.8485 91.7163 35.894L101.41 45.5874L102.775 46.9527C103.185 47.3622 103.731 47.5443 104.277 47.4988C104.732 47.4077 104.914 47.0437 104.55 46.6796L104.504 46.6341Z" fill="black"/>
<path d="M135.678 10.6367C135.678 10.6367 138.135 15.3241 141.867 16.0978C145.599 16.8714 153.017 17.2355 152.926 21.0583C152.835 24.881 147.601 25.0175 144.643 23.6978C144.643 23.6978 143.187 33.5277 136.861 34.8019C130.535 36.0762 128.26 33.8463 126.94 37.7145C126.94 37.7145 118.521 38.2151 119.522 30.6151C119.704 29.4319 120.068 19.1014 129.898 16.5984C129.898 16.5984 135.405 15.5062 135.678 10.6367Z" fill="white"/>
<path d="M134.721 11.1829C135.494 12.5937 136.45 13.8225 137.633 14.9147C138.543 15.7793 139.635 16.462 140.864 16.826C141.911 17.0991 142.958 17.2811 144.05 17.4177C146.189 17.7817 148.51 18.0548 150.376 19.1015C150.694 19.2835 150.967 19.5111 151.24 19.7386C151.513 19.9662 151.695 20.2847 151.786 20.6488C151.832 20.7853 151.877 20.9674 151.832 21.1039C151.832 21.3314 151.786 21.6045 151.741 21.832C151.65 22.1961 151.468 22.5147 151.195 22.7877C151.149 22.8332 150.922 23.0153 151.058 22.9242C150.967 23.0153 150.831 23.0608 150.74 23.1063L150.603 23.1973C150.285 23.3338 150.694 23.1518 150.512 23.2428C150.376 23.2883 150.239 23.3338 150.148 23.3793C149.647 23.5159 149.101 23.6069 148.555 23.5614C147.417 23.5614 146.325 23.3338 145.279 22.8787C144.641 22.6057 143.913 22.9242 143.64 23.5614C143.595 23.6524 143.595 23.6979 143.595 23.7889L143.549 23.971C143.549 24.0165 143.504 24.1075 143.504 24.153C143.504 24.1985 143.413 24.6081 143.458 24.2895C143.322 24.8811 143.185 25.4727 143.003 26.0644C142.548 27.7027 141.82 29.2955 140.91 30.7518C140.455 31.4799 139.863 32.1625 139.18 32.7542C138.543 33.3003 137.724 33.7099 136.905 33.9374C134.721 34.4835 132.491 34.3015 130.261 34.438C129.396 34.438 128.531 34.6655 127.758 35.1206C126.893 35.7123 126.256 36.6224 125.983 37.6236L127.121 36.85C126.984 36.85 126.847 36.85 126.665 36.85H126.301C126.711 36.85 126.347 36.85 126.256 36.85C126.028 36.85 125.801 36.8045 125.619 36.8045C125.437 36.8045 125.118 36.7134 124.891 36.6679L124.527 36.5769L124.344 36.5314C124.572 36.5769 124.344 36.5314 124.299 36.5314C124.026 36.4404 123.753 36.3494 123.48 36.2128C123.343 36.1673 123.207 36.1218 123.07 36.0308L122.888 35.9398C122.706 35.8488 122.979 35.9853 122.797 35.8943C121.705 35.2572 120.931 34.1649 120.704 32.8907C120.567 31.844 120.613 30.7973 120.795 29.7506C120.84 29.2955 120.886 28.8859 120.977 28.4308L121.022 28.0668C121.022 27.9757 121.068 27.9302 121.068 27.8392C121.022 28.0212 121.068 27.8392 121.068 27.7937C121.113 27.5206 121.204 27.2021 121.295 26.8835C121.659 25.5638 122.16 24.244 122.843 23.0608C124.435 20.2392 127.166 18.2368 130.306 17.5087C133.628 16.6895 136.632 14.232 136.859 10.6368C136.95 9.36259 134.675 9.63565 134.629 10.7734C134.584 11.638 134.311 12.5027 133.81 13.2308C133.628 13.5039 133.401 13.777 133.173 14.0045C133.037 14.141 132.855 14.2776 132.718 14.4141L132.491 14.5961C132.309 14.7326 132.536 14.5506 132.354 14.6871C132.081 14.8692 131.762 15.0512 131.444 15.1877C131.307 15.2332 131.171 15.3243 131.034 15.3698L130.807 15.4608C130.443 15.5973 130.124 15.6883 129.76 15.7793C126.165 16.644 123.025 18.9195 121.068 22.0596C119.703 24.3805 118.838 26.9745 118.565 29.6596C118.383 30.7518 118.337 31.8895 118.428 33.0272C118.61 34.5745 119.384 35.9853 120.613 36.941C122.342 38.2607 124.754 38.8069 126.938 38.6703C127.439 38.6703 127.849 38.3518 128.076 37.8967C128.167 37.5326 128.349 37.214 128.531 36.8955C128.577 36.8045 128.622 36.759 128.668 36.6679C128.85 36.4404 128.486 36.8045 128.713 36.6224L128.895 36.4859C129.032 36.3949 128.713 36.5314 128.986 36.4404L129.168 36.3494C128.895 36.4859 129.077 36.3949 129.168 36.3494L129.396 36.3039C129.123 36.3494 129.669 36.2128 129.396 36.3039C129.806 36.2584 130.215 36.2128 130.579 36.2128C132.946 36.1673 135.403 36.2584 137.724 35.5302C141.638 34.347 143.868 30.4332 145.006 26.747C145.324 25.7003 145.597 24.6536 145.734 23.6069L144.004 24.5171C146.28 25.5183 149.101 25.7458 151.377 24.7446C153.516 23.8344 154.79 21.1949 153.516 19.1015C152.332 17.1446 149.511 16.5075 147.463 16.0979C146.28 15.8704 145.097 15.6883 143.868 15.4608C142.776 15.2787 141.683 15.1422 140.682 14.5506C138.953 13.4584 137.588 11.9111 136.632 10.0452C136.131 9.08954 134.083 10.0452 134.721 11.1829Z" fill="black"/>
<path d="M117.791 26.7016C117.791 26.7016 112.603 28.0213 111.784 25.1998C110.965 22.3782 114.287 23.1063 114.287 23.1063C114.287 23.1063 110.51 17.3267 115.835 16.3255C115.835 16.3255 111.511 11.9567 115.015 7.90637C118.52 3.85608 125.391 6.58661 125.391 6.58661C125.391 6.58661 125.3 0.351896 130.67 1.21657C136.04 2.08123 134.675 5.81296 134.675 5.81296C134.675 5.81296 138.088 6.31356 138.179 8.45248C138.27 10.5914 135.631 11.4106 135.631 11.4106C135.631 11.4106 134.584 17.5543 129.897 16.5986L125.255 24.2441C126.165 26.0644 126.074 28.2033 125.027 29.9327C123.298 32.8453 117.518 30.7063 117.791 26.7016Z" fill="black"/>
<path d="M117.382 25.7002C117.2 25.7458 117.018 25.7913 116.791 25.8368C116.427 25.8823 115.835 25.9733 115.653 25.9733C115.107 26.0188 114.561 25.9733 114.06 25.9278C113.878 25.8823 113.696 25.8368 113.514 25.7913C113.469 25.7913 113.378 25.7458 113.332 25.7458C113.423 25.7913 113.423 25.7913 113.332 25.7458C113.287 25.7003 112.968 25.4727 113.15 25.6547C113.104 25.6092 112.786 25.3362 113.013 25.5182C112.968 25.4727 112.922 25.4272 112.922 25.3362C112.968 25.4272 112.968 25.4272 112.922 25.3362C112.831 25.1086 112.786 24.8811 112.74 24.6535C112.74 24.426 112.877 24.244 113.059 24.1985C113.15 24.153 113.15 24.153 113.059 24.1985C113.104 24.1985 113.15 24.1529 113.196 24.1529L113.514 24.1074C113.696 24.0619 113.378 24.1074 113.651 24.1074H113.878C114.015 24.1074 114.197 24.1529 114.333 24.1529C114.606 24.1985 114.288 24.1529 114.288 24.1529C115.198 24.335 115.698 23.5158 115.198 22.7422C115.152 22.6967 115.107 22.6056 115.061 22.5146L115.016 22.4236C114.925 22.2416 115.152 22.6512 115.061 22.4691C114.97 22.2871 114.925 22.2416 114.879 22.105C114.743 21.832 114.606 21.5589 114.515 21.2404C114.47 21.0583 114.379 20.9218 114.333 20.7398C114.242 20.5122 114.379 20.8763 114.333 20.6488C114.288 20.5577 114.288 20.4667 114.242 20.3302C114.197 20.1482 114.197 19.9661 114.151 19.7841C114.106 19.6476 114.106 19.511 114.151 19.42C114.151 19.1015 114.242 18.8284 114.379 18.5553C114.424 18.4188 114.515 18.3278 114.606 18.2368C114.697 18.1003 114.834 18.0092 114.97 17.9182C115.38 17.6452 115.881 17.4631 116.381 17.4176C117.291 17.2356 117.018 16.2344 116.563 15.7338C116.518 15.6883 116.381 15.5063 116.518 15.6883L116.472 15.6428L116.245 15.3697C116.063 15.1422 115.926 14.9601 115.79 14.7326C115.653 14.5051 115.516 14.2775 115.38 14.05C114.652 12.7302 114.606 11.1374 115.289 9.77213C116.108 8.36135 117.473 7.36016 119.066 7.04159C119.794 6.90507 120.522 6.81405 121.205 6.85956C121.524 6.85956 121.842 6.90507 122.206 6.95058L122.661 6.99609L123.071 7.04159C123.845 7.17812 124.618 7.40567 125.392 7.67872C125.847 7.86076 126.53 7.5877 126.53 7.04159C126.53 6.49549 126.575 5.99489 126.712 5.49429C126.712 5.40328 126.757 5.31226 126.757 5.17573C126.712 5.35777 126.803 5.0392 126.803 4.99369C126.894 4.76615 126.985 4.4931 127.076 4.26555C127.258 3.81046 127.531 3.40088 127.895 3.08232C128.031 2.90028 128.213 2.80927 128.395 2.67274C128.623 2.53622 128.851 2.44519 129.124 2.39969C129.852 2.26316 130.625 2.26316 131.308 2.4452C131.718 2.53622 132.082 2.67274 132.446 2.80927C132.719 2.90029 132.946 3.08232 133.174 3.26436C133.265 3.35538 133.356 3.44639 133.447 3.53741C133.265 3.35537 133.492 3.62843 133.538 3.71945C133.72 3.90148 133.492 3.62843 133.583 3.81046C133.629 3.94699 133.674 4.03801 133.72 4.17454C133.674 3.94699 133.766 4.31106 133.72 4.17454C133.72 4.22005 133.72 4.31106 133.766 4.35657C133.811 4.40208 133.811 4.58411 133.811 4.67513C133.811 4.58411 133.811 4.62962 133.811 4.76615C133.811 4.85717 133.811 4.94819 133.811 5.0392C133.811 5.13022 133.811 5.17573 133.766 5.26675C133.72 5.35777 133.72 5.5398 133.766 5.35776C133.811 5.17573 133.766 5.35777 133.766 5.40328C133.492 6.17693 134.175 6.85956 134.903 6.99609C134.949 6.99609 135.085 7.0416 134.903 6.99609C134.721 6.95058 135.04 7.04159 135.085 7.04159C135.404 7.13261 135.677 7.22363 135.995 7.31465C135.995 7.31465 136.314 7.45118 136.132 7.36016L136.36 7.45118C136.451 7.49669 136.86 7.76974 136.724 7.63321C136.815 7.67872 136.86 7.72423 136.951 7.81525C136.997 7.86076 137.042 7.90627 137.088 7.90627V7.86075C137.27 8.0883 137.224 7.95177 137.27 8.22483C137.27 8.13381 137.27 8.45237 137.27 8.54339C137.27 8.77093 137.179 8.95297 137.088 9.18052C136.906 9.45357 136.633 9.68111 136.36 9.81764C136.086 9.99967 135.813 10.1817 135.495 10.3182C135.404 10.3637 135.267 10.4093 135.176 10.4548C135.085 10.5003 135.404 10.3637 135.222 10.4548C134.903 10.5458 134.63 10.8188 134.585 11.1374C134.585 11.2284 134.539 11.2739 134.539 11.3649C134.539 11.456 134.448 11.729 134.539 11.456C134.494 11.5925 134.494 11.6835 134.448 11.82C134.266 12.4572 133.993 13.0943 133.675 13.6859C132.946 14.9601 131.672 15.9613 130.034 15.6883C129.624 15.5518 129.169 15.7338 128.942 16.0979L124.709 23.0152C124.482 23.3793 124.163 23.7434 124.254 24.1985C124.3 24.426 124.391 24.608 124.482 24.8356C124.618 25.1997 124.755 25.6092 124.8 26.0188C124.982 27.202 124.709 28.7038 123.89 29.614C123.389 30.1146 122.707 30.3422 122.024 30.2511C121.16 30.2056 120.386 29.8416 119.749 29.2955C119.476 29.0224 119.248 28.7493 119.066 28.3853C118.884 27.9757 118.793 27.4751 118.793 27.02C118.793 26.4284 118.429 25.8823 117.883 25.7458C117.473 25.5637 116.973 25.7913 116.791 26.2008C116.745 26.2464 116.745 26.3374 116.745 26.3829C116.563 29.1134 118.657 31.4344 121.205 32.117C122.388 32.4811 123.617 32.3446 124.709 31.7984C126.075 31.0248 126.757 29.2955 126.894 27.7937C127.03 26.5194 126.757 25.1997 126.211 24.0619V24.8356L130.853 17.1901L129.761 17.5997C130.944 17.8727 132.173 17.7362 133.265 17.2356C134.13 16.735 134.858 16.0069 135.358 15.1422C135.995 14.0955 136.451 13.0033 136.633 11.7745L135.995 12.4572C137.952 11.82 139.682 9.99967 138.999 7.86075C138.407 5.99489 136.223 5.08472 134.448 4.85717L135.586 6.44998C135.813 5.76735 135.859 4.99369 135.722 4.31106C135.404 2.62723 134.084 1.48951 132.537 0.852385C130.853 0.169752 128.669 -0.1033 127.03 0.761369C125.847 1.444 125.028 2.58172 124.664 3.90148C124.391 4.72064 124.254 5.5398 124.254 6.40447L125.392 5.76735C123.071 4.85717 120.568 4.58411 118.11 5.0392C116.154 5.40328 114.47 6.541 113.378 8.22483C112.376 9.95417 112.24 12.0476 113.013 13.9134C113.469 15.1422 114.197 16.2344 115.107 17.1446L115.289 15.4607C114.106 15.6883 112.968 16.2344 112.331 17.2811C111.876 18.1003 111.739 19.1015 111.921 20.0116C112.149 21.3314 112.649 22.5601 113.378 23.6523L114.288 22.2416C112.649 21.8775 110.465 22.2416 110.51 24.335C110.51 25.7002 111.284 26.929 112.513 27.5206C113.56 28.0212 114.743 28.2032 115.881 28.1122C116.609 28.0667 117.382 27.9757 118.11 27.7937C119.521 27.3841 118.52 25.4272 117.382 25.7002Z" fill="black"/>
<path d="M130.671 17.7816C130.671 17.7816 129.989 13.5493 126.985 14.3684C123.981 15.1876 122.707 24.6079 128.077 24.4259" fill="white"/>
<path d="M131.717 17.3719C131.58 16.3252 131.125 15.3695 130.397 14.5504C129.123 13.1851 126.848 13.4581 125.482 14.5504C124.345 15.4605 123.753 16.9168 123.434 18.2821C123.07 19.7384 123.161 21.2402 123.662 22.6509C124.345 24.3803 125.892 25.1084 127.667 25.0629C128.213 25.0174 128.713 24.7444 129.032 24.2893C129.259 23.7887 128.713 23.7432 128.349 23.7432C128.531 23.7432 128.213 23.7432 128.213 23.7432C128.122 23.7432 128.031 23.7432 127.94 23.6977C127.849 23.6977 127.758 23.6521 127.621 23.6521C127.348 23.6066 127.121 23.4701 126.939 23.3336C126.483 23.015 126.119 22.6054 125.892 22.1048C125.391 20.9671 125.255 19.6929 125.437 18.4641C125.528 17.8725 125.664 17.2354 125.846 16.6893C125.937 16.4162 126.028 16.1887 126.165 15.9611C126.256 15.8246 126.301 15.6881 126.392 15.5516C126.438 15.5061 126.438 15.4605 126.483 15.415C126.392 15.5516 126.574 15.324 126.574 15.324C126.574 15.324 126.711 15.142 126.802 15.051C126.665 15.1875 126.984 14.8689 126.802 15.051C126.848 15.0055 126.847 15.0055 126.893 14.9599C127.121 14.9144 126.665 15.0965 126.848 14.9599C126.893 14.9144 127.075 14.8689 126.848 14.9599C126.62 15.051 126.847 14.9599 126.893 14.9599C126.392 15.142 126.984 14.9599 126.848 15.0054C127.394 14.9599 127.94 15.1875 128.304 15.5971C128.986 16.3252 129.396 17.2809 129.533 18.2821C129.715 18.9192 131.853 18.2366 131.717 17.3719Z" fill="black"/>
<path d="M137.861 24.9266C137.952 25.4727 138.089 26.0188 138.316 26.5194C138.772 27.6116 139.545 28.5218 140.546 29.1134C141.275 29.523 142.094 29.7051 142.958 29.7051C143.322 29.7506 143.641 29.432 143.641 29.1134C143.641 29.0679 143.641 29.0224 143.641 28.9769C143.55 28.5673 143.14 28.2488 142.685 28.2488H142.412H142.321C142.185 28.2488 142.367 28.2488 142.367 28.2488C142.23 28.2033 142.048 28.2033 141.866 28.1578L141.684 28.1122L141.593 28.0667C141.502 28.0212 141.821 28.1578 141.639 28.0667C141.457 27.9757 141.366 27.9757 141.275 27.8847C141.184 27.7937 141.184 27.8392 141.093 27.7937C141.002 27.7482 141.275 27.9302 141.093 27.7937C140.911 27.6572 140.865 27.6116 140.774 27.5661L140.637 27.4296C140.501 27.2931 140.774 27.5661 140.637 27.4296C140.501 27.2931 140.455 27.2476 140.41 27.1566C140.364 27.0655 140.273 26.9745 140.228 26.8835C140.182 26.838 140.182 26.7925 140.137 26.747C140.182 26.838 140.319 26.929 140.137 26.747C140.046 26.5649 139.955 26.3829 139.864 26.1554C139.773 25.9733 139.727 25.8368 139.682 25.6548C139.636 25.5637 139.727 25.8823 139.682 25.7003L139.636 25.6093C139.636 25.5182 139.591 25.4727 139.591 25.3817C139.545 25.2452 139.5 25.0631 139.5 24.9266C139.363 24.0164 137.679 23.8799 137.861 24.9266Z" fill="black"/>
<path d="M137.633 18.1005C138.06 18.1005 138.407 17.7541 138.407 17.3269C138.407 16.8996 138.06 16.5532 137.633 16.5532C137.206 16.5532 136.859 16.8996 136.859 17.3269C136.859 17.7541 137.206 18.1005 137.633 18.1005Z" fill="black"/>
<path d="M9.88983 76.3517H16.8072C17.2623 76.3517 17.5353 76.0331 17.3078 75.578C17.0347 75.0774 16.5341 74.7589 15.9425 74.7134H9.07067C8.61558 74.7134 8.34252 75.0319 8.57007 75.487C8.84312 75.9876 9.34372 76.3062 9.88983 76.3517Z" fill="black"/>
<path d="M0.743157 68.4785H11.6653C12.1659 68.4785 12.8485 68.2964 13.0761 67.7958C13.3036 67.2952 12.8485 66.9312 12.3934 66.9312H1.4713C0.970702 66.9312 0.288068 67.1132 0.0605237 67.6138C-0.167021 68.1144 0.288068 68.4785 0.743157 68.4785Z" fill="black"/>
<path d="M10.1177 60.8328H21.6314C21.95 60.8328 22.8146 60.7418 22.9967 60.3778C23.1787 60.0137 22.314 60.0137 22.132 60.0137H10.6638C10.3452 60.0137 9.48054 60.1047 9.2985 60.4688C9.11646 60.8328 9.98113 60.8328 10.1177 60.8328Z" fill="black"/>
<path d="M108.416 31.2068C108.507 35.5756 111.465 39.5349 114.969 41.8559C118.61 44.2678 122.979 45.5421 127.302 44.6774C129.851 44.1313 132.263 43.0846 134.402 41.5373C134.538 41.4463 133.537 40.9002 133.446 40.8547C133.218 40.7636 132.581 40.3996 132.308 40.5816C129.032 42.8571 124.981 44.3133 120.931 43.8127C117.472 43.4032 114.651 41.2642 112.694 38.4427C111.329 36.6223 110.555 34.3924 110.464 32.1169C110.464 31.8439 109.736 31.5708 109.508 31.4343C109.463 31.4798 108.416 31.0247 108.416 31.2068Z" fill="black"/>
<path d="M100.316 31.935C99.9976 35.3482 101.681 38.4428 103.866 40.9457C104.958 42.1745 106.141 43.3577 107.37 44.4044C108.553 45.4511 110.01 46.3158 111.602 46.4978C112.148 46.6344 112.74 46.2703 112.877 45.7242C112.922 45.1326 112.513 44.632 111.921 44.541C110.601 44.4044 109.6 43.6308 108.644 42.7661C107.598 41.8559 106.642 40.8547 105.686 39.808C103.866 37.7601 102.273 35.1661 102.546 32.2991C102.683 31.0248 100.453 30.6607 100.316 31.935Z" fill="black"/>
</svg>
