<svg width="111" height="111" viewBox="0 0 111 111" fill="none" xmlns="http://www.w3.org/2000/svg">
<g opacity="0.6">
<path d="M104.695 32.2378C104.484 36.6978 103.323 40.3848 106.305 47.4288C107.436 50.1008 108.639 52.0098 109.871 53.5118" stroke="white" stroke-miterlimit="10" stroke-linecap="round" stroke-linejoin="round"/>
<path d="M85.3848 9.96777C89.4258 14.8178 93.8578 15.3948 97.5528 24.1238C102.401 35.5768 96.2888 38.1638 101.136 49.6168C103.751 55.7938 106.732 57.8898 109.689 60.2998" stroke="white" stroke-miterlimit="10" stroke-linecap="round" stroke-linejoin="round"/>
<path d="M76.2305 5.12793C76.3385 5.40593 76.4555 5.69493 76.5785 5.98693C81.4265 17.4399 87.5345 14.8539 92.3845 26.3109C97.2325 37.7639 91.1245 40.3489 95.9725 51.8019C99.8485 60.9599 104.529 61.1439 108.727 66.6999" stroke="white" stroke-miterlimit="10" stroke-linecap="round" stroke-linejoin="round"/>
<path d="M69.7598 2.91504C70.0548 4.45904 70.5668 6.18504 71.4098 8.17504C76.2578 19.628 82.3698 17.04 87.2198 28.497C92.0678 39.95 85.9548 42.537 90.8028 53.99C95.6358 65.408 101.727 62.876 106.566 74.201L106.568 74.205" stroke="white" stroke-miterlimit="10" stroke-linecap="round" stroke-linejoin="round"/>
<path d="M64.2422 1.70996C64.2892 4.09196 64.7362 6.79696 66.2452 10.361C71.0932 21.814 77.2052 19.226 82.0552 30.684C86.9032 42.137 80.7902 44.724 85.6382 56.177C90.4882 67.634 96.6002 65.047 101.45 76.504C102.3 78.511 102.81 80.243 103.106 81.802L103.108 81.806" stroke="white" stroke-miterlimit="10" stroke-linecap="round" stroke-linejoin="round"/>
<path d="M59.1764 1.11816C58.9364 4.21916 58.9584 7.53316 61.0804 12.5472C65.9284 24.0002 72.0364 21.4142 76.8864 32.8712C81.7344 44.3242 75.6264 46.9092 80.4744 58.3622C85.3244 69.8192 91.4324 67.2342 96.2824 78.6912C98.1814 83.1782 98.4014 86.3022 98.2534 89.1312" stroke="white" stroke-miterlimit="10" stroke-linecap="round" stroke-linejoin="round"/>
<path d="M54.2106 1C53.8866 4.86 53.2616 8.473 55.9126 14.735C60.7606 26.188 66.8726 23.6 71.7226 35.058C76.5706 46.511 70.4577 49.098 75.3057 60.551C80.1557 72.008 86.2676 69.421 91.1176 80.878C93.8826 87.411 93.0816 91.063 92.7856 95.118" stroke="white" stroke-miterlimit="10" stroke-linecap="round" stroke-linejoin="round"/>
<path d="M49.1544 1.354C48.9964 5.988 47.6834 9.685 50.7464 16.921C55.5944 28.374 61.7064 25.786 66.5564 37.243C71.4044 48.696 65.2924 51.283 70.1394 62.736C74.9894 74.193 81.1014 71.606 85.9514 83.063C89.1994 90.737 87.5254 94.43 87.5294 99.481" stroke="white" stroke-miterlimit="10" stroke-linecap="round" stroke-linejoin="round"/>
<path d="M43.9985 2.20703C44.1155 7.51403 42.2335 11.194 45.5835 19.108C50.4315 30.561 56.5395 27.975 61.3895 39.432C66.2375 50.885 60.1295 53.47 64.9775 64.923C69.8275 76.38 75.9355 73.795 80.7855 85.252C84.2695 93.484 82.0935 97.136 82.3975 102.789" stroke="white" stroke-miterlimit="10" stroke-linecap="round" stroke-linejoin="round"/>
<path d="M38.7969 3.6001C39.1469 9.3501 36.8999 12.9911 40.4149 21.2961C45.2629 32.7491 51.3749 30.1611 56.2249 41.6191C61.0729 53.0721 54.9609 55.6591 59.8079 67.1121C64.6579 78.5691 70.7699 75.9821 75.6199 87.4391C79.1819 95.8551 76.8279 99.4821 77.2489 105.363" stroke="white" stroke-miterlimit="10" stroke-linecap="round" stroke-linejoin="round"/>
<path d="M33.6173 5.56396C34.0403 11.439 31.6883 15.07 35.2483 23.482C40.0963 34.935 46.2082 32.347 51.0582 43.805C55.9062 55.258 49.7943 57.845 54.6413 69.298C59.4913 80.755 65.6033 78.168 70.4533 89.625C73.9703 97.934 71.7192 101.577 72.0692 107.327" stroke="white" stroke-miterlimit="10" stroke-linecap="round" stroke-linejoin="round"/>
<path d="M28.4715 8.13721C28.7755 13.7902 26.6035 17.4412 30.0855 25.6682C34.9335 37.1212 41.0415 34.5352 45.8915 45.9922C50.7395 57.4452 44.6315 60.0302 49.4795 71.4832C54.3295 82.9402 60.4375 80.3552 65.2875 91.8122C68.6395 99.7302 66.7535 103.412 66.8745 108.717" stroke="white" stroke-miterlimit="10" stroke-linecap="round" stroke-linejoin="round"/>
<path d="M23.3404 11.4419C23.3384 16.4909 21.6704 20.1859 24.9164 27.8559C29.7644 39.3089 35.8764 36.7209 40.7264 48.1789C45.5744 59.6319 39.4614 62.2189 44.3094 73.6719C49.1594 85.1289 55.2714 82.5419 60.1214 93.9989C63.1884 101.244 61.8684 104.938 61.7134 109.577" stroke="white" stroke-miterlimit="10" stroke-linecap="round" stroke-linejoin="round"/>
<path d="M18.082 15.8071C17.786 19.8631 16.987 23.5081 19.752 30.0411C24.6 41.4941 30.708 38.9081 35.558 50.3651C40.406 61.8181 34.298 64.4031 39.146 75.8561C43.996 87.3131 50.104 84.7271 54.954 96.1851C57.607 102.452 56.98 106.061 56.658 109.925" stroke="white" stroke-miterlimit="10" stroke-linecap="round" stroke-linejoin="round"/>
<path d="M12.6097 21.7959L12.6117 21.7999C12.4687 24.6269 12.6877 27.7509 14.5837 32.2299C19.4317 43.6829 25.5437 41.0949 30.3937 52.5529C35.2417 64.0059 29.1287 66.5929 33.9767 78.0459C38.8267 89.5029 44.9387 86.9159 49.7887 98.3729C51.9107 103.387 51.9327 106.701 51.6907 109.808" stroke="white" stroke-miterlimit="10" stroke-linecap="round" stroke-linejoin="round"/>
<path d="M7.76562 29.1221C8.05962 30.6771 8.57162 32.4121 9.41962 34.4161C14.2676 45.8691 20.3796 43.2811 25.2296 54.7391C30.0776 66.1921 23.9646 68.7791 28.8126 80.2321C33.6626 91.6891 39.7746 89.1021 44.6246 100.559C46.1336 104.123 46.5816 106.832 46.6256 109.216" stroke="white" stroke-miterlimit="10" stroke-linecap="round" stroke-linejoin="round"/>
<path d="M4.30273 36.7178L4.30473 36.7218C9.14473 48.0368 15.2267 45.5078 20.0597 56.9258C24.9077 68.3788 18.7997 70.9638 23.6477 82.4168C28.4977 93.8738 34.6057 91.2878 39.4557 102.746C40.2977 104.736 40.8107 106.461 41.1057 108.006" stroke="white" stroke-miterlimit="10" stroke-linecap="round" stroke-linejoin="round"/>
<path d="M2.14062 44.2241L2.14262 44.2281C6.34462 49.7681 11.0236 49.9621 14.8966 59.1121C19.7446 70.5651 13.6326 73.1521 18.4796 84.6051C23.3296 96.0621 29.4416 93.4751 34.2916 104.932C34.4146 105.224 34.5326 105.513 34.6416 105.795" stroke="white" stroke-miterlimit="10" stroke-linecap="round" stroke-linejoin="round"/>
<path d="M1.18164 50.6128C4.13464 53.0248 7.11565 55.1208 9.73065 61.2978C14.5787 72.7508 8.46564 75.3378 13.3136 86.7908C17.0106 95.5238 21.4456 96.0948 25.4896 100.954L25.4916 100.958" stroke="white" stroke-miterlimit="10" stroke-linecap="round" stroke-linejoin="round"/>
<path d="M1 57.4121C2.237 58.9121 3.43299 60.8181 4.56299 63.4861C7.54399 70.5291 6.38399 74.2171 6.17299 78.6771" stroke="white" stroke-miterlimit="10" stroke-linecap="round" stroke-linejoin="round"/>
</g>
</svg>
