<svg width="223" height="100" viewBox="0 0 223 100" fill="none" xmlns="http://www.w3.org/2000/svg">
<mask id="path-1-inside-1_500_1614" fill="white">
<path d="M95.6206 29.5364C90.9271 19.0729 82.7794 10.5409 72.5432 5.37037C62.307 0.199885 50.6045 -1.29472 39.3974 1.13709C28.1902 3.56889 18.1596 9.77929 10.987 18.7273C3.81429 27.6753 -0.0644856 38.8169 0.000810489 50.2847C0.0661066 61.7524 4.07151 72.8492 11.3456 81.715C18.6197 90.5807 28.7204 96.6765 39.9545 98.9805C51.1886 101.285 62.8733 99.6567 73.05 94.37C83.2266 89.0833 91.2767 80.459 95.8507 69.9427L50 50L95.6206 29.5364Z"/>
</mask>
<path d="M95.6206 29.5364C90.9271 19.0729 82.7794 10.5409 72.5432 5.37037C62.307 0.199885 50.6045 -1.29472 39.3974 1.13709C28.1902 3.56889 18.1596 9.77929 10.987 18.7273C3.81429 27.6753 -0.0644856 38.8169 0.000810489 50.2847C0.0661066 61.7524 4.07151 72.8492 11.3456 81.715C18.6197 90.5807 28.7204 96.6765 39.9545 98.9805C51.1886 101.285 62.8733 99.6567 73.05 94.37C83.2266 89.0833 91.2767 80.459 95.8507 69.9427L50 50L95.6206 29.5364Z" fill="#F47920" stroke="#4B4B4B" stroke-width="2" mask="url(#path-1-inside-1_500_1614)"/>
<path d="M154 55C156.761 55 159 52.7614 159 50C159 47.2386 156.761 45 154 45C151.239 45 149 47.2386 149 50C149 52.7614 151.239 55 154 55Z" fill="white"/>
<path d="M100 55C102.761 55 105 52.7614 105 50C105 47.2386 102.761 45 100 45C97.2386 45 95 47.2386 95 50C95 52.7614 97.2386 55 100 55Z" fill="white"/>
<path d="M127 55C129.761 55 132 52.7614 132 50C132 47.2386 129.761 45 127 45C124.239 45 122 47.2386 122 50C122 52.7614 124.239 55 127 55Z" fill="white"/>
<path d="M181 55C183.761 55 186 52.7614 186 50C186 47.2386 183.761 45 181 45C178.239 45 176 47.2386 176 50C176 52.7614 178.239 55 181 55Z" fill="white"/>
<path d="M213 59C218.523 59 223 54.5229 223 49C223 43.4771 218.523 39 213 39C207.477 39 203 43.4771 203 49C203 54.5229 207.477 59 213 59Z" fill="white"/>
</svg>
