<svg width="187" height="137" viewBox="0 0 187 137" fill="none" xmlns="http://www.w3.org/2000/svg">
<path d="M128.726 24.336L58.2289 84.467L136.393 43.1743L172.812 114.626L184.561 137.676L72.7727 194.655L68.5023 191.024L24.6044 100.154L15.6645 91.1599L32.6883 73.2875L106.41 6.18947L112.42 10.3853L121.722 16.2912L128.726 24.336Z" fill="white"/>
<g style="mix-blend-mode:luminosity">
<path d="M38.1836 114.445L73.0766 182.901C74.1465 185 76.7176 185.837 78.8182 184.766L172.628 136.95C174.728 135.88 175.563 133.308 174.493 131.209L139.6 62.752L38.1836 114.445Z" fill="url(#paint0_linear_470_18135)"/>
<path d="M78.1735 183.497C76.7767 184.209 75.0475 183.631 74.3219 182.207L39.4531 113.798L138.333 63.3983L173.202 131.807C173.927 133.231 173.382 134.968 171.982 135.682L78.1735 183.497Z" fill="#171616"/>
<path d="M139.6 62.7521L38.1836 114.445L40.1221 118.248L141.539 66.5552L139.6 62.7521Z" fill="url(#paint1_linear_470_18135)"/>
<path d="M109.684 14.7107L24.0434 91.8426C23.7531 92.1048 23.7303 92.5578 23.9925 92.8481L28.2778 97.6057C30.9083 100.526 35.4058 100.76 38.3247 98.1315L119.205 25.2841C119.496 25.0227 119.521 24.5705 119.259 24.279L110.689 14.7638C110.426 14.4735 109.974 14.4485 109.684 14.7107Z" fill="url(#paint2_linear_470_18135)"/>
<path d="M24.5213 92.3721L28.3296 96.6003C30.9601 99.5203 35.4573 99.7563 38.3765 97.1262L118.729 24.7553L110.159 15.2394L24.5213 92.3721Z" fill="#171616"/>
<path d="M51.9573 68.6191L63.8043 73.2673L72.2632 65.6493L60.4166 61L51.9573 68.6191ZM35.0403 83.8546L46.8881 88.5024L55.3462 80.8848L43.4999 76.2363L35.0403 83.8546ZM25.5251 92.4253L28.382 95.5957C31.0121 98.5149 35.51 98.7505 38.4284 96.1208L26.5822 91.4722L25.5251 92.4253ZM102.708 22.9109L114.553 27.5599L117.725 24.703L110.108 16.2456L102.708 22.9109ZM68.8739 53.3828L80.7221 58.0313L89.1798 50.413L77.3328 45.7648L68.8739 53.3828ZM85.7905 38.1465L97.6372 42.7958L106.095 35.1786L94.2479 30.5293L85.7905 38.1465Z" fill="#EEEEEE"/>
<path d="M30.7782 103.048C30.6008 102.7 30.7416 102.268 31.0889 102.091L133.773 49.752C134.122 49.5739 134.552 49.7148 134.73 50.0628L140.545 61.4729C140.723 61.8209 140.584 62.2509 140.234 62.429L37.5505 114.768C37.2032 114.945 36.7714 114.806 36.594 114.458L30.7782 103.048Z" fill="url(#paint3_linear_470_18135)"/>
<path d="M134.096 50.3857L31.4121 102.725L37.2279 114.135L139.912 61.7957L134.096 50.3857Z" fill="#171616"/>
<path d="M79.3725 91.8535L79.2741 79.1272L69.1324 84.2965L69.2309 97.0228L79.3725 91.8535ZM59.0886 102.192L58.9909 89.4658L48.8492 94.6351L48.947 107.362L59.0886 102.192ZM99.655 81.5153L99.5572 68.7887L89.4156 73.958L89.5141 86.6842L99.655 81.5153ZM138.954 61.4844L133.784 51.3428L129.981 53.2812L130.08 66.0075L138.954 61.4844ZM119.938 71.1768L119.84 58.4505L109.699 63.6194L109.797 76.346L119.938 71.1768ZM38.8061 112.531L38.7076 99.8044L32.3691 103.035L37.5384 113.177L38.8061 112.531Z" fill="#EEEEEE"/>
<path d="M53.1273 91.7915C54.617 92.276 56.4157 93.8128 57.1261 95.2065L59.0642 99.0089C59.7757 100.405 59.2175 102.126 57.8215 102.837L40.0729 111.884C38.6784 112.595 36.9568 112.037 36.2448 110.64L27.1986 92.8923C26.4886 91.4994 27.0464 89.7758 28.4416 89.0646L32.2448 87.1261C33.64 86.415 35.9985 86.2301 37.4862 86.7126L53.1273 91.7915Z" fill="url(#paint4_linear_470_18135)"/>
<path d="M39.7499 111.249C38.702 111.784 37.4145 111.367 36.8788 110.316L27.8325 92.5685C27.2991 91.5221 27.7161 90.2323 28.7648 89.6978L32.5679 87.7593C33.7995 87.1315 35.9537 86.9617 37.2679 87.3885L52.9074 92.4682C54.222 92.8958 55.8642 94.2985 56.4912 95.5285L58.4293 99.3309C58.9646 100.381 58.5469 101.667 57.4974 102.202L39.7495 111.249L39.7499 111.249Z" fill="#E6E6E6"/>
<path d="M49.5132 91.367L32.6071 101.934L36.8799 110.317C37.4153 111.367 38.7024 111.784 39.7511 111.25L57.4997 102.203C58.5484 101.668 58.9673 100.382 58.4316 99.3314L56.4935 95.5291C55.8665 94.299 54.2243 92.8964 52.9097 92.4688L49.5132 91.367Z" fill="url(#paint5_linear_470_18135)"/>
<path d="M36.0983 91.5519C36.8118 92.9518 36.2554 94.6669 34.8548 95.3808C33.4557 96.0939 31.7406 95.5376 31.0267 94.137C30.3136 92.7379 30.8707 91.0224 32.2698 90.3092C33.6704 89.5953 35.3848 90.1521 36.0983 91.5519Z" fill="url(#paint6_linear_470_18135)"/>
<path d="M34.5318 94.7462C33.4839 95.2804 32.1952 94.8619 31.6606 93.8132C31.1265 92.7652 31.5442 91.4769 32.593 90.9424C33.6425 90.4074 34.9299 90.8256 35.4645 91.8743C35.999 92.923 35.5813 94.2113 34.5318 94.7462Z" fill="#D4D4D4"/>
<path d="M34.0466 93.796C33.5234 94.0627 32.8781 93.8525 32.6114 93.3293C32.3447 92.8061 32.5549 92.1608 33.0774 91.8945C33.6021 91.627 34.2466 91.8376 34.5129 92.3601C34.7796 92.8833 34.5714 93.5286 34.0466 93.796Z" fill="url(#paint7_linear_470_18135)"/>
<path d="M33.8843 93.4784C33.5348 93.6566 33.1067 93.5176 32.9282 93.1673C32.75 92.8177 32.889 92.3897 33.2386 92.2115C33.5897 92.0325 34.0169 92.1719 34.1951 92.5215C34.3737 92.8718 34.2354 93.2995 33.8843 93.4784Z" fill="#262626"/>
<path d="M42.5592 104.229C43.2727 105.629 42.7164 107.344 41.3158 108.058C39.9167 108.771 38.2015 108.214 37.4876 106.814C36.7745 105.415 37.3316 103.699 38.7307 102.986C40.1313 102.272 41.8457 102.829 42.5592 104.229Z" fill="url(#paint8_linear_470_18135)"/>
<path d="M40.9928 107.423C39.9448 107.957 38.6561 107.539 38.1216 106.49C37.5874 105.442 38.0052 104.154 39.0539 103.619C40.1034 103.084 41.3909 103.502 41.9254 104.551C42.46 105.6 42.0423 106.888 40.9928 107.423Z" fill="#D4D4D4"/>
<path d="M40.5075 106.473C39.9843 106.739 39.339 106.529 39.0723 106.006C38.8056 105.483 39.0159 104.838 39.5383 104.571C40.0631 104.304 40.7076 104.514 40.9739 105.037C41.2406 105.56 41.0323 106.205 40.5075 106.473Z" fill="url(#paint9_linear_470_18135)"/>
<path d="M40.3453 106.155C39.9957 106.333 39.5677 106.194 39.3891 105.844C39.2109 105.494 39.3499 105.066 39.6995 104.888C40.0506 104.709 40.4778 104.849 40.656 105.198C40.8346 105.549 40.6964 105.976 40.3453 106.155Z" fill="#262626"/>
<path d="M55.2369 97.7668C55.9505 99.1666 55.3941 100.882 53.9935 101.596C52.5944 102.309 50.8793 101.752 50.1654 100.352C49.4522 98.9527 50.0094 97.2372 51.4085 96.5241C52.8091 95.8102 54.5234 96.3669 55.2369 97.7668Z" fill="url(#paint10_linear_470_18135)"/>
<path d="M53.6705 100.961C52.6225 101.495 51.3339 101.077 50.7993 100.028C50.2651 98.98 50.6829 97.6918 51.7316 97.1572C52.7811 96.6223 54.0686 97.0404 54.6032 98.0891C55.1377 99.1379 54.72 100.426 53.6705 100.961Z" fill="#D4D4D4"/>
<path d="M53.1853 100.01C52.6621 100.277 52.0167 100.067 51.75 99.5437C51.4834 99.0204 51.6936 98.3751 52.216 98.1088C52.7408 97.8414 53.3853 98.052 53.6516 98.5744C53.9183 99.0976 53.71 99.7429 53.1853 100.01Z" fill="url(#paint11_linear_470_18135)"/>
<path d="M53.025 99.6933C52.6754 99.8715 52.2474 99.7325 52.0688 99.3821C51.8906 99.0325 52.0296 98.6045 52.3792 98.4263C52.7303 98.2474 53.1575 98.3868 53.3357 98.7363C53.5143 99.0867 53.3761 99.5143 53.025 99.6933Z" fill="#262626"/>
<path d="M54.8499 129.906C53.8019 130.44 52.5129 130.023 51.9784 128.974L46.8091 118.832C46.2749 117.784 46.6934 116.496 47.7421 115.961L135.213 71.376C136.262 70.8415 137.55 71.2592 138.085 72.3079L143.254 82.4495C143.788 83.4975 143.371 84.7858 142.321 85.3207L54.8499 129.906Z" fill="url(#paint12_linear_470_18135)"/>
<path d="M141.985 83.0965C142.163 83.4453 142.025 83.8749 141.674 84.0534L54.2032 128.638C53.8559 128.815 53.4241 128.677 53.2463 128.328L48.077 118.186C47.8996 117.838 48.0405 117.406 48.3877 117.229L135.859 72.6441C136.209 72.4656 136.639 72.6069 136.816 72.9549L141.985 83.0965Z" fill="#030303"/>
<path opacity="0.1" d="M141.985 83.0965C142.163 83.4453 142.025 83.8749 141.674 84.0534L54.2032 128.638C53.8559 128.815 53.4241 128.677 53.2463 128.328L48.077 118.186C47.8996 117.838 48.0405 117.406 48.3877 117.229L135.859 72.6441C136.209 72.4656 136.639 72.6069 136.816 72.9549L141.985 83.0965Z" fill="url(#paint13_linear_470_18135)"/>
<path opacity="0.15" d="M135.859 72.6439L93.0935 94.4418L94.2104 108.247L141.675 84.054C142.025 83.8754 142.163 83.4459 141.985 83.097L136.816 72.9555C136.638 72.6067 136.209 72.4653 135.859 72.6439Z" fill="url(#paint14_linear_470_18135)"/>
<path d="M134.696 80.2482L134.028 80.0293L132.671 77.3671L133.105 76.0289L134.913 79.5777L134.696 80.2482Z" fill="#F40303"/>
<path d="M134.922 80.6918L134.707 81.3611L136.064 84.0232L137.402 84.4583L135.593 80.9096L134.922 80.6918Z" fill="#F40303"/>
<path d="M131.145 82.0582L131.363 81.3878L130.006 78.7256L128.668 78.2905L130.477 81.8393L131.145 82.0582Z" fill="#F40303"/>
<path d="M131.371 82.5014L132.042 82.7191L133.399 85.3813L132.965 86.7194L131.156 83.1706L131.371 82.5014Z" fill="#F40303"/>
<path d="M132.334 77.2592L132.769 75.9207L128.777 77.9551L130.115 78.3902L132.334 77.2592Z" fill="#F40303"/>
<path d="M135.953 84.3592L137.291 84.7931L133.297 86.8287L133.734 85.4902L135.953 84.3592Z" fill="#F40303"/>
<path opacity="0.1" d="M133.919 80.3658L134.587 80.5839L134.37 81.2517L132.151 82.3826L131.482 82.1665L131.7 81.4968L133.919 80.3658Z" fill="#F40303"/>
<path d="M129.271 83.0125L128.602 82.7944L127.245 80.1322L127.681 78.7929L129.49 82.3417L129.271 83.0125Z" fill="#F40303"/>
<path d="M129.498 83.4557L129.281 84.1257L130.638 86.7879L131.978 87.2218L130.169 83.673L129.498 83.4557Z" fill="#F40303"/>
<path d="M125.721 84.8219L125.94 84.1507L124.583 81.4885L123.244 81.0542L125.053 84.603L125.721 84.8219Z" fill="#F40303"/>
<path d="M125.948 85.2655L126.62 85.4825L127.977 88.1447L127.541 89.4836L125.732 85.9348L125.948 85.2655Z" fill="#F40303"/>
<path d="M126.911 80.0231L127.345 78.6846L123.352 80.7202L124.692 81.1537L126.911 80.0231Z" fill="#F40303"/>
<path d="M130.531 87.1233L131.869 87.5573L127.875 89.5929L128.313 88.2539L130.531 87.1233Z" fill="#F40303"/>
<path opacity="0.1" d="M128.494 83.1301L129.162 83.3482L128.945 84.0159L126.727 85.1465L126.056 84.9311L126.276 84.2607L128.494 83.1301Z" fill="#F40303"/>
<path d="M121.601 84.6557L122.294 86.0157L122.077 86.6861L121.408 86.4676L120.715 85.1077L120.931 84.438L121.601 84.6557Z" fill="#F40303"/>
<path d="M123.084 87.5639L123.661 88.6972L123.444 89.3684L122.775 89.1491L122.197 88.0159L122.413 87.3462L123.084 87.5639Z" fill="#F40303"/>
<path d="M118.427 88.5407L117.758 88.3222L116.401 85.6601L116.835 84.3219L118.644 87.8707L118.427 88.5407Z" fill="#F40303"/>
<path d="M118.653 88.9844L118.437 89.654L119.794 92.3162L121.132 92.7513L119.323 89.2025L118.653 88.9844Z" fill="#F40303"/>
<path d="M114.877 90.3504L115.094 89.6804L113.737 87.0182L112.398 86.5835L114.207 90.1323L114.877 90.3504Z" fill="#F40303"/>
<path d="M115.103 90.7941L115.773 91.0122L117.13 93.6744L116.695 95.0129L114.887 91.4641L115.103 90.7941Z" fill="#F40303"/>
<path d="M116.065 85.552L116.499 84.2138L112.506 86.249L113.846 86.6829L116.065 85.552Z" fill="#F40303"/>
<path d="M119.685 92.6526L121.023 93.087L117.03 95.1222L117.466 93.7836L119.685 92.6526Z" fill="#F40303"/>
<path opacity="0.1" d="M117.648 88.6587L118.317 88.8764L118.1 89.5445L115.881 90.6755L115.212 90.4589L115.43 89.7897L117.648 88.6587Z" fill="#F40303"/>
<path d="M113.003 91.3042L112.332 91.0869L110.975 88.4247L111.412 87.085L113.221 90.6338L113.003 91.3042Z" fill="#F40303"/>
<path d="M113.23 91.7474L113.012 92.4182L114.368 95.0804L115.709 95.5139L113.9 91.9651L113.23 91.7474Z" fill="#F40303"/>
<path d="M109.454 93.1137L109.671 92.4436L108.314 89.7815L106.975 89.3472L108.783 92.896L109.454 93.1137Z" fill="#F40303"/>
<path d="M109.68 93.5569L110.35 93.775L111.707 96.4371L111.272 97.7761L109.463 94.2273L109.68 93.5569Z" fill="#F40303"/>
<path d="M110.642 88.315L111.077 86.9765L107.084 89.0117L108.424 89.4456L110.642 88.315Z" fill="#F40303"/>
<path d="M114.261 95.4158L115.599 95.8498L111.606 97.8854L112.043 96.5464L114.261 95.4158Z" fill="#F40303"/>
<path opacity="0.1" d="M112.225 91.4224L112.894 91.6397L112.676 92.3082L110.458 93.4388L109.788 93.2226L110.007 92.5529L112.225 91.4224Z" fill="#F40303"/>
<path d="M105.332 92.9475L106.025 94.3074L105.808 94.9778L105.136 94.7605L104.443 93.4006L104.662 92.7298L105.332 92.9475Z" fill="#F40303"/>
<path d="M106.815 95.8552L107.392 96.9885L107.175 97.6597L106.503 97.4416L105.926 96.3083L106.144 95.6375L106.815 95.8552Z" fill="#F40303"/>
<path d="M102.157 96.8329L101.487 96.6152L100.13 93.953L100.566 92.6137L102.375 96.1625L102.157 96.8329Z" fill="#F40303"/>
<path d="M102.384 97.2766L102.166 97.947L103.523 100.609L104.863 101.043L103.054 97.4943L102.384 97.2766Z" fill="#F40303"/>
<path d="M98.6082 98.642L98.8251 97.972L97.4682 95.3098L96.1289 94.8755L97.9378 98.4243L98.6082 98.642Z" fill="#F40303"/>
<path d="M98.8347 99.0857L99.5044 99.3038L100.861 101.966L100.426 103.305L98.617 99.7561L98.8347 99.0857Z" fill="#F40303"/>
<path d="M99.7949 93.8446L100.231 92.5053L96.2383 94.5405L97.5776 94.9748L99.7949 93.8446Z" fill="#F40303"/>
<path d="M103.413 100.945L104.753 101.378L100.76 103.414L101.196 102.076L103.413 100.945Z" fill="#F40303"/>
<path opacity="0.1" d="M101.379 96.9519L102.048 97.1692L101.83 97.8377L99.6128 98.9679L98.9447 98.7509L99.1613 98.0821L101.379 96.9519Z" fill="#F40303"/>
<path d="M96.7332 99.5971L96.0628 99.3793L94.7058 96.7172L95.1413 95.3783L96.9501 98.927L96.7332 99.5971Z" fill="#F40303"/>
<path d="M96.9597 100.04L96.742 100.711L98.0989 103.373L99.4382 103.807L97.6294 100.258L96.9597 100.04Z" fill="#F40303"/>
<path d="M93.1836 101.407L93.4013 100.737L92.0444 98.0744L90.7051 97.6401L92.5139 101.189L93.1836 101.407Z" fill="#F40303"/>
<path d="M93.4101 101.85L94.0805 102.068L95.4375 104.73L95.002 106.069L93.1931 102.52L93.4101 101.85Z" fill="#F40303"/>
<path d="M94.3726 96.608L94.8073 95.2695L90.8145 97.3047L92.1545 97.7386L94.3726 96.608Z" fill="#F40303"/>
<path d="M97.991 103.709L99.3292 104.143L95.3363 106.178L95.7729 104.839L97.991 103.709Z" fill="#F40303"/>
<path opacity="0.1" d="M95.9567 99.715L96.6252 99.9328L96.4082 100.601L94.1901 101.731L93.5189 101.516L93.7386 100.846L95.9567 99.715Z" fill="#F40303"/>
<path d="M89.0637 101.24L89.7569 102.6L89.5399 103.27L88.8687 103.053L88.1756 101.693L88.3941 101.022L89.0637 101.24Z" fill="#F40303"/>
<path d="M90.5462 104.148L91.1238 105.281L90.9072 105.952L90.2356 105.734L89.658 104.601L89.8765 103.93L90.5462 104.148Z" fill="#F40303"/>
<path d="M85.8879 105.125L85.219 104.907L83.8621 102.245L84.2968 100.906L86.1056 104.455L85.8879 105.125Z" fill="#F40303"/>
<path d="M86.1144 105.569L85.8982 106.239L87.2552 108.901L88.5937 109.335L86.7848 105.787L86.1144 105.569Z" fill="#F40303"/>
<path d="M82.3379 106.935L82.5548 106.265L81.1979 103.603L79.8594 103.168L81.6682 106.717L82.3379 106.935Z" fill="#F40303"/>
<path d="M82.5644 107.379L83.2341 107.597L84.591 110.259L84.1563 111.597L82.3474 108.049L82.5644 107.379Z" fill="#F40303"/>
<path d="M83.5246 102.137L83.9609 100.798L79.9688 102.833L81.3065 103.268L83.5246 102.137Z" fill="#F40303"/>
<path d="M87.1445 109.237L88.4842 109.67L84.4906 111.706L84.9265 110.368L87.1445 109.237Z" fill="#F40303"/>
<path opacity="0.1" d="M85.1087 105.244L85.7779 105.461L85.5602 106.13L83.3421 107.26L82.6732 107.044L82.8906 106.375L85.1087 105.244Z" fill="#F40303"/>
<path d="M80.4649 107.889L79.7952 107.671L78.4382 105.009L78.8745 103.67L80.6833 107.219L80.4649 107.889Z" fill="#F40303"/>
<path d="M80.6914 108.334L80.4744 109.004L81.8313 111.666L83.1714 112.1L81.3626 108.551L80.6914 108.334Z" fill="#F40303"/>
<path d="M76.9152 109.699L77.1337 109.028L75.7768 106.366L74.4375 105.932L76.2464 109.48L76.9152 109.699Z" fill="#F40303"/>
<path d="M77.1418 110.143L77.813 110.36L79.1699 113.022L78.7344 114.361L76.9256 110.812L77.1418 110.143Z" fill="#F40303"/>
<path d="M78.1031 104.9L78.5378 103.562L74.5449 105.597L75.8842 106.031L78.1031 104.9Z" fill="#F40303"/>
<path d="M81.7234 112.001L83.0616 112.435L79.0687 114.47L79.5046 113.132L81.7234 112.001Z" fill="#F40303"/>
<path opacity="0.1" d="M79.6864 108.007L80.3549 108.225L80.1379 108.893L77.919 110.024L77.2494 109.808L77.4675 109.138L79.6864 108.007Z" fill="#F40303"/>
<path d="M72.7961 109.532L73.4893 110.892L73.2716 111.562L72.6012 111.345L71.908 109.985L72.1257 109.314L72.7961 109.532Z" fill="#F40303"/>
<path d="M74.2786 112.44L74.8562 113.573L74.6389 114.244L73.968 114.026L73.3904 112.892L73.6081 112.222L74.2786 112.44Z" fill="#F40303"/>
<path d="M69.6223 113.417L68.9534 113.199L67.5964 110.537L68.0311 109.198L69.84 112.747L69.6223 113.417Z" fill="#F40303"/>
<path d="M69.8468 113.861L69.6306 114.531L70.9876 117.193L72.3261 117.627L70.5173 114.079L69.8468 113.861Z" fill="#F40303"/>
<path d="M66.0715 115.227L66.2884 114.557L64.9315 111.895L63.5938 111.46L65.4026 115.009L66.0715 115.227Z" fill="#F40303"/>
<path d="M66.298 115.67L66.9677 115.889L68.3246 118.551L67.8907 119.889L66.0818 116.34L66.298 115.67Z" fill="#F40303"/>
<path d="M67.2593 110.428L67.694 109.09L63.7012 111.125L65.0405 111.559L67.2593 110.428Z" fill="#F40303"/>
<path d="M70.8797 117.529L72.2178 117.963L68.225 119.998L68.6608 118.66L70.8797 117.529Z" fill="#F40303"/>
<path opacity="0.1" d="M68.8438 113.536L69.5123 113.753L69.2953 114.421L67.0765 115.552L66.4076 115.336L66.6249 114.667L68.8438 113.536Z" fill="#F40303"/>
<path d="M64.1969 116.182L63.5256 115.965L62.1687 113.303L62.6065 111.963L64.4153 115.511L64.1969 116.182Z" fill="#F40303"/>
<path d="M64.4234 116.625L64.2049 117.296L65.5618 119.958L66.9034 120.391L65.0946 116.842L64.4234 116.625Z" fill="#F40303"/>
<path d="M60.6477 117.991L60.8646 117.321L59.5077 114.659L58.1699 114.224L59.9788 117.772L60.6477 117.991Z" fill="#F40303"/>
<path d="M60.8742 118.435L61.5439 118.653L62.9008 121.315L62.4668 122.653L60.658 119.104L60.8742 118.435Z" fill="#F40303"/>
<path d="M61.8355 113.192L62.2702 111.854L58.2773 113.889L59.6166 114.323L61.8355 113.192Z" fill="#F40303"/>
<path d="M65.4554 120.293L66.7936 120.727L62.7992 122.763L63.2366 121.424L65.4554 120.293Z" fill="#F40303"/>
<path opacity="0.1" d="M63.4188 116.299L64.0865 116.518L63.8703 117.185L61.6514 118.316L60.9818 118.1L61.1999 117.43L63.4188 116.299Z" fill="#F40303"/>
<path d="M58.7769 118.945L58.1057 118.727L56.7488 116.065L57.1866 114.725L58.9954 118.274L58.7769 118.945Z" fill="#F40303"/>
<path d="M59.0015 119.388L58.783 120.059L60.1399 122.721L61.4816 123.154L59.6727 119.605L59.0015 119.388Z" fill="#F40303"/>
<path d="M55.2258 120.755L55.4435 120.084L54.0866 117.422L52.748 116.987L54.5569 120.536L55.2258 120.755Z" fill="#F40303"/>
<path d="M55.4523 121.198L56.1227 121.416L57.4797 124.078L57.045 125.416L55.2361 121.867L55.4523 121.198Z" fill="#F40303"/>
<path d="M56.4144 115.956L56.8507 114.617L52.8555 116.653L54.1955 117.087L56.4144 115.956Z" fill="#F40303"/>
<path d="M60.0328 123.057L61.3725 123.49L57.3773 125.526L57.8139 124.188L60.0328 123.057Z" fill="#F40303"/>
<path opacity="0.1" d="M57.9973 119.063L58.6674 119.28L58.4489 119.949L56.23 121.08L55.5619 120.863L55.7785 120.194L57.9973 119.063Z" fill="#F40303"/>
<path d="M148.124 95.1399L97.416 120.986L97.7391 121.62L148.447 95.7738L148.124 95.1399Z" fill="#EEEEEE"/>
<path d="M152.971 104.648L93.3887 135.017L93.7117 135.651L153.294 105.281L152.971 104.648Z" fill="#EEEEEE"/>
<path d="M157.817 114.155L94.4316 146.463L94.7547 147.097L158.14 114.789L157.817 114.155Z" fill="#EEEEEE"/>
<path d="M163.954 126.199L75.2148 171.43L75.5379 172.064L164.277 126.832L163.954 126.199Z" fill="#EEEEEE"/>
<path d="M59.6904 138.395L60.4263 139.839L59.9069 140.104L57.9395 136.244L59.0781 135.663C59.3224 135.539 59.5497 135.459 59.7581 135.423C59.9672 135.387 60.1585 135.392 60.3297 135.436C60.5013 135.48 60.6546 135.56 60.7878 135.677C60.921 135.794 61.034 135.944 61.1268 136.126C61.2181 136.305 61.2704 136.486 61.2837 136.667C61.2967 136.849 61.2699 137.024 61.2045 137.194C61.138 137.363 61.0308 137.523 60.8808 137.675C60.7324 137.826 60.5421 137.962 60.3101 138.08L59.6908 138.396L59.6904 138.395ZM59.479 137.98L60.099 137.664C60.248 137.588 60.3692 137.501 60.4637 137.404C60.5571 137.306 60.6249 137.202 60.6665 137.091C60.7069 136.981 60.7222 136.867 60.7121 136.748C60.7015 136.628 60.6651 136.509 60.6048 136.391C60.4795 136.145 60.3055 135.992 60.0837 135.931C59.8607 135.869 59.5964 135.917 59.2891 136.074L58.6691 136.39L59.4797 137.98L59.479 137.98Z" fill="#EEEEEE"/>
<path d="M62.898 136.55L63.7192 138.161L63.1999 138.426L61.2324 134.566L62.3234 134.01C62.567 133.886 62.7908 133.803 62.9937 133.762C63.1962 133.721 63.3802 133.717 63.5428 133.751C63.7066 133.786 63.8502 133.855 63.9729 133.959C64.0956 134.063 64.1992 134.196 64.2822 134.359C64.3519 134.495 64.3954 134.634 64.4119 134.775C64.4292 134.915 64.4214 135.053 64.3881 135.189C64.3545 135.325 64.2957 135.456 64.2115 135.583C64.1288 135.71 64.0205 135.828 63.8879 135.938C63.9717 135.943 64.0571 135.968 64.1446 136.014L66.0522 136.973L65.5889 137.209C65.4937 137.258 65.4049 137.256 65.3232 137.206L63.6183 136.338C63.5653 136.31 63.5166 136.296 63.4711 136.296C63.4256 136.296 63.3667 136.313 63.2945 136.35L62.8988 136.552L62.898 136.55ZM62.7046 136.17L63.2516 135.892C63.4045 135.814 63.5296 135.727 63.626 135.631C63.7224 135.535 63.7938 135.434 63.8377 135.327C63.8816 135.219 63.8993 135.11 63.8911 134.997C63.8832 134.882 63.8496 134.769 63.7924 134.657C63.6749 134.426 63.5107 134.292 63.2999 134.253C63.0882 134.213 62.8322 134.269 62.5325 134.422L61.9609 134.713L62.7038 136.171L62.7046 136.17Z" fill="#EEEEEE"/>
<path d="M69.0931 132.991C69.2407 133.281 69.3297 133.57 69.3605 133.858C69.3924 134.146 69.3691 134.42 69.2905 134.68C69.2126 134.939 69.081 135.176 68.8957 135.392C68.7103 135.607 68.4753 135.788 68.1918 135.933C67.9083 136.077 67.6247 136.161 67.3421 136.184C67.0596 136.207 66.7909 136.173 66.5346 136.084C66.2789 135.995 66.0441 135.853 65.8286 135.658C65.6142 135.463 65.433 135.222 65.2853 134.932C65.1381 134.643 65.0487 134.354 65.0171 134.066C64.9864 133.778 65.0093 133.504 65.0864 133.243C65.1646 132.982 65.2954 132.745 65.4793 132.529C65.6635 132.313 65.8981 132.133 66.1816 131.989C66.4651 131.844 66.7495 131.76 67.0328 131.737C67.3168 131.715 67.5867 131.749 67.8423 131.838C68.0995 131.929 68.3343 132.071 68.5491 132.266C68.765 132.46 68.9458 132.703 69.0931 132.991ZM68.5568 133.265C68.4358 133.027 68.2954 132.832 68.1345 132.676C67.974 132.52 67.8016 132.408 67.6167 132.338C67.4322 132.268 67.2364 132.241 67.0318 132.257C66.8267 132.273 66.6208 132.334 66.4126 132.44C66.206 132.546 66.0361 132.676 65.9039 132.832C65.7705 132.988 65.6781 133.162 65.6237 133.353C65.5712 133.545 65.5608 133.75 65.5914 133.972C65.6232 134.194 65.6991 134.422 65.8201 134.66C65.9411 134.897 66.0814 135.093 66.2415 135.247C66.4028 135.402 66.5749 135.514 66.7605 135.584C66.9466 135.653 67.1419 135.679 67.3462 135.662C67.5509 135.646 67.7559 135.585 67.9619 135.48C68.1701 135.374 68.3415 135.243 68.4741 135.087C68.6079 134.932 68.7006 134.759 68.7535 134.568C68.8053 134.377 68.816 134.172 68.7846 133.951C68.7536 133.731 68.6778 133.502 68.5568 133.265Z" fill="#EEEEEE"/>
<path d="M73.1523 130.922C73.3 131.212 73.3878 131.498 73.417 131.781C73.4466 132.065 73.4201 132.334 73.3395 132.588C73.2582 132.843 73.1242 133.075 72.9384 133.286C72.7519 133.498 72.5169 133.676 72.2334 133.821L70.7897 134.557L68.8223 130.697L70.2659 129.961C70.5494 129.816 70.8322 129.731 71.1128 129.704C71.3933 129.678 71.66 129.707 71.9141 129.792C72.1674 129.876 72.4006 130.013 72.613 130.204C72.8247 130.393 73.0051 130.633 73.1523 130.922ZM72.6161 131.195C72.495 130.958 72.3543 130.764 72.1946 130.61C72.0349 130.456 71.8628 130.344 71.6787 130.276C71.4946 130.207 71.3004 130.181 71.0965 130.199C70.8927 130.216 70.6872 130.279 70.4813 130.383L69.5632 130.851L71.0995 133.866L72.0176 133.398C72.2243 133.292 72.3953 133.162 72.5287 133.008C72.6628 132.854 72.7556 132.683 72.8093 132.494C72.8622 132.305 72.8734 132.101 72.8428 131.881C72.8121 131.662 72.7371 131.433 72.6161 131.195Z" fill="#EEEEEE"/>
<path d="M76.1367 131.309C76.2965 131.227 76.4257 131.127 76.5235 131.01C76.6225 130.893 76.6905 130.762 76.728 130.621C76.7655 130.48 76.7732 130.33 76.7507 130.172C76.7279 130.013 76.675 129.854 76.5924 129.692L75.3964 127.346L75.9166 127.081L77.1125 129.427C77.2261 129.65 77.2961 129.875 77.3218 130.102C77.3482 130.328 77.3306 130.544 77.2693 130.751C77.2081 130.957 77.1023 131.148 76.9521 131.325C76.8019 131.501 76.6091 131.649 76.3716 131.77C76.1342 131.891 75.9003 131.96 75.6698 131.978C75.4389 131.996 75.222 131.969 75.0182 131.898C74.814 131.826 74.628 131.714 74.4606 131.56C74.2928 131.405 74.1513 131.217 74.0378 130.994L72.8418 128.648L73.3619 128.383L74.5567 130.727C74.639 130.888 74.7376 131.025 74.8522 131.136C74.9665 131.248 75.0921 131.329 75.229 131.381C75.3652 131.434 75.5111 131.456 75.6657 131.446C75.8195 131.436 75.9761 131.39 76.1367 131.309Z" fill="#EEEEEE"/>
<path d="M81.0942 128.3C81.1226 128.285 81.155 128.284 81.1906 128.295L81.5097 128.414C81.4446 128.678 81.3261 128.918 81.1527 129.136C80.9797 129.353 80.7336 129.542 80.4155 129.705C80.1374 129.846 79.8607 129.926 79.5851 129.946C79.3102 129.965 79.0489 129.929 78.8009 129.837C78.5519 129.746 78.3224 129.601 78.1111 129.403C77.8998 129.205 77.7193 128.961 77.5709 128.67C77.4229 128.379 77.3334 128.088 77.3054 127.798C77.2757 127.508 77.3021 127.231 77.3838 126.97C77.4662 126.708 77.6013 126.47 77.7905 126.252C77.9797 126.035 78.2171 125.853 78.5044 125.706C78.7879 125.562 79.0553 125.481 79.3059 125.463C79.556 125.447 79.8 125.474 80.0366 125.543L79.9893 125.87C79.9849 125.894 79.9789 125.916 79.969 125.937C79.9588 125.956 79.9377 125.974 79.907 125.99C79.8839 126.001 79.8543 126.006 79.8203 126.002C79.7855 125.998 79.7438 125.992 79.6952 125.986C79.6462 125.979 79.5902 125.974 79.5273 125.97C79.4637 125.967 79.3931 125.969 79.3133 125.978C79.2347 125.987 79.1469 126.004 79.0492 126.033C78.953 126.061 78.8473 126.104 78.732 126.163C78.5246 126.268 78.3536 126.4 78.2194 126.558C78.0834 126.717 77.9876 126.893 77.9304 127.087C77.8737 127.281 77.8583 127.491 77.8855 127.715C77.9123 127.938 77.9854 128.167 78.1041 128.4C78.2271 128.641 78.3709 128.838 78.536 128.991C78.7015 129.145 78.8771 129.256 79.0627 129.325C79.248 129.395 79.4406 129.421 79.6391 129.406C79.8376 129.391 80.0304 129.337 80.2187 129.241C80.3339 129.182 80.4333 129.122 80.5181 129.063C80.6025 129.002 80.6772 128.938 80.7411 128.87C80.8046 128.801 80.8584 128.728 80.9025 128.649C80.9478 128.571 80.9891 128.483 81.0266 128.387C81.0417 128.343 81.065 128.315 81.0942 128.3Z" fill="#EEEEEE"/>
<path d="M83.1319 123.403L83.3555 123.841L82.1085 124.477L83.8524 127.898L83.3292 128.165L81.5853 124.744L80.333 125.382L80.1094 124.943L83.1319 123.403Z" fill="#EEEEEE"/>
<path d="M86.27 126.666L85.7468 126.933L83.7793 123.073L84.3025 122.807L86.27 126.666Z" fill="#EEEEEE"/>
<path d="M89.9056 122.383C90.0532 122.673 90.1422 122.961 90.173 123.249C90.2049 123.538 90.1816 123.811 90.103 124.071C90.0251 124.33 89.8935 124.568 89.7082 124.783C89.5228 124.999 89.2878 125.18 89.0043 125.324C88.7208 125.469 88.4372 125.552 88.1546 125.575C87.8721 125.598 87.6027 125.565 87.3471 125.476C87.0915 125.386 86.8566 125.245 86.6411 125.05C86.4267 124.855 86.2455 124.614 86.0978 124.324C85.9506 124.035 85.8612 123.746 85.8297 123.458C85.7989 123.17 85.8219 122.896 85.8989 122.635C85.9771 122.374 86.1079 122.137 86.2918 121.92C86.476 121.705 86.7106 121.525 86.9941 121.38C87.2776 121.236 87.562 121.152 87.8453 121.129C88.1293 121.107 88.3992 121.141 88.6548 121.23C88.912 121.32 89.1468 121.462 89.3616 121.658C89.5775 121.851 89.7583 122.094 89.9056 122.383ZM89.3693 122.656C89.2483 122.419 89.1079 122.223 88.9471 122.067C88.7866 121.912 88.6141 121.799 88.4292 121.729C88.2447 121.66 88.0489 121.633 87.845 121.648C87.64 121.664 87.4341 121.725 87.2259 121.831C87.0192 121.937 86.8494 122.067 86.7164 122.224C86.583 122.38 86.4906 122.554 86.437 122.745C86.3845 122.936 86.3741 123.142 86.4047 123.363C86.4365 123.585 86.5124 123.814 86.6334 124.051C86.7544 124.288 86.8947 124.484 87.0548 124.638C87.216 124.793 87.3882 124.905 87.5738 124.975C87.7599 125.044 87.9552 125.07 88.1587 125.053C88.3634 125.037 88.5685 124.976 88.7751 124.871C88.9833 124.765 89.1547 124.634 89.2874 124.478C89.4211 124.323 89.5139 124.15 89.566 123.96C89.6178 123.769 89.6285 123.564 89.5971 123.343C89.5661 123.122 89.4903 122.894 89.3693 122.656Z" fill="#EEEEEE"/>
<path d="M90.0164 119.916C90.045 119.917 90.0832 119.927 90.1296 119.948L93.8484 121.718C93.8192 121.674 93.7922 121.63 93.7684 121.587C93.7441 121.544 93.721 121.502 93.6999 121.461L92.3061 118.726L92.7648 118.492L94.7323 122.352L94.468 122.487C94.4265 122.508 94.388 122.518 94.3533 122.518C94.3186 122.519 94.2784 122.508 94.2339 122.487L90.5197 120.719C90.5467 120.762 90.5713 120.805 90.5955 120.847C90.6194 120.89 90.6398 120.928 90.6582 120.964L92.0601 123.714L91.6022 123.948L89.6348 120.088L89.9045 119.95C89.9505 119.927 89.9883 119.915 90.0164 119.916Z" fill="#EEEEEE"/>
<path d="M81.3623 136.283L81.5859 136.721L80.339 137.357L82.0828 140.778L81.5596 141.045L79.8158 137.624L78.5634 138.262L78.3398 137.823L81.3623 136.283Z" fill="#EEEEEE"/>
<path d="M86.2181 136.241C86.3657 136.531 86.4547 136.819 86.4855 137.107C86.5174 137.396 86.4941 137.669 86.4155 137.929C86.3376 138.188 86.2053 138.426 86.0207 138.641C85.836 138.856 85.6003 139.038 85.3168 139.182C85.0333 139.327 84.7497 139.41 84.4671 139.433C84.1846 139.456 83.9159 139.423 83.6596 139.334C83.4039 139.244 83.1691 139.103 82.9536 138.908C82.7392 138.713 82.558 138.471 82.4103 138.182C82.2631 137.893 82.1737 137.604 82.1422 137.316C82.1114 137.027 82.1343 136.753 82.2114 136.493C82.2896 136.232 82.4212 135.995 82.6043 135.778C82.7885 135.562 83.0231 135.383 83.3066 135.238C83.5901 135.094 83.8745 135.01 84.1578 134.986C84.4418 134.965 84.7117 134.998 84.9673 135.088C85.2245 135.178 85.4593 135.32 85.6741 135.515C85.8892 135.71 86.0708 135.952 86.2181 136.241ZM85.6818 136.514C85.5608 136.277 85.4204 136.081 85.2596 135.925C85.0991 135.77 84.9266 135.657 84.7417 135.587C84.5572 135.518 84.3614 135.491 84.1575 135.506C83.9525 135.522 83.7466 135.583 83.5384 135.689C83.3325 135.794 83.1619 135.925 83.0297 136.081C82.8963 136.237 82.8039 136.411 82.7495 136.603C82.697 136.794 82.6866 136.999 82.7172 137.221C82.749 137.443 82.8248 137.671 82.9458 137.909C83.0669 138.146 83.2072 138.342 83.3673 138.496C83.5285 138.651 83.7007 138.763 83.8863 138.833C84.0724 138.902 84.2677 138.928 84.472 138.911C84.6766 138.895 84.8817 138.834 85.0876 138.729C85.2966 138.622 85.4672 138.492 85.5999 138.336C85.7336 138.181 85.8264 138.008 85.8785 137.817C85.9303 137.627 85.941 137.422 85.9096 137.201C85.8786 136.98 85.8028 136.752 85.6818 136.514Z" fill="#EEEEEE"/>
<path d="M87.6656 135.903L88.4868 137.514L87.9675 137.779L86 133.919L87.091 133.363C87.3345 133.239 87.5583 133.156 87.7613 133.115C87.9646 133.073 88.1477 133.07 88.3104 133.104C88.4742 133.139 88.6178 133.208 88.7405 133.312C88.8631 133.416 88.9668 133.549 89.0498 133.712C89.1195 133.849 89.163 133.987 89.1795 134.128C89.1968 134.268 89.189 134.406 89.1557 134.542C89.1213 134.678 89.0633 134.809 88.979 134.936C88.8963 135.063 88.7881 135.181 88.6555 135.291C88.7392 135.296 88.8247 135.321 88.9122 135.367L90.8198 136.326L90.3557 136.563C90.2605 136.611 90.1717 136.61 90.09 136.56L88.3851 135.691C88.3321 135.663 88.2834 135.649 88.2379 135.649C88.1924 135.649 88.1335 135.666 88.0613 135.703L87.6664 135.905L87.6656 135.903ZM87.4722 135.523L88.0192 135.245C88.1721 135.167 88.2971 135.08 88.3936 134.984C88.49 134.889 88.5614 134.787 88.6053 134.68C88.6492 134.572 88.6668 134.463 88.6586 134.35C88.6508 134.236 88.6171 134.122 88.56 134.01C88.4425 133.779 88.2783 133.645 88.0674 133.606C87.8558 133.566 87.5997 133.622 87.3001 133.775L86.7285 134.066L87.4714 135.524L87.4722 135.523Z" fill="#EEEEEE"/>
<path d="M145.101 128.549L145.324 128.988L144.077 129.624L145.821 133.045L145.298 133.311L143.554 129.89L142.302 130.529L142.078 130.09L145.101 128.549Z" fill="#EEEEEE"/>
<path d="M150.437 130.692L150.033 130.898C149.986 130.922 149.943 130.928 149.901 130.92C149.861 130.912 149.825 130.893 149.792 130.865L148.955 130.117L147.224 131L147.337 132.116C147.341 132.155 147.334 132.194 147.316 132.235C147.299 132.275 147.267 132.307 147.222 132.33L146.819 132.536L146.395 127.889L146.926 127.618L150.437 130.692ZM147.177 130.548L148.618 129.814L147.211 128.552C147.122 128.475 147.022 128.374 146.91 128.247C146.929 128.33 146.943 128.408 146.957 128.48C146.97 128.551 146.978 128.615 146.984 128.671L147.177 130.548Z" fill="#EEEEEE"/>
<path d="M150.395 127.983L150.592 127.882C150.66 127.847 150.709 127.811 150.742 127.774C150.774 127.736 150.796 127.687 150.811 127.628L151.355 125.519C151.372 125.453 151.394 125.402 151.421 125.365C151.448 125.328 151.49 125.294 151.548 125.264L151.993 125.038L151.369 127.449C151.352 127.51 151.335 127.563 151.315 127.609C151.297 127.655 151.274 127.696 151.245 127.734C151.304 127.725 151.359 127.726 151.414 127.74C151.469 127.753 151.528 127.773 151.594 127.8L154.062 128.847L153.609 129.077C153.575 129.095 153.545 129.106 153.519 129.113C153.493 129.119 153.469 129.123 153.448 129.123C153.425 129.123 153.404 129.119 153.382 129.112C153.361 129.105 153.339 129.096 153.316 129.088L151.202 128.235C151.171 128.224 151.143 128.215 151.118 128.208C151.094 128.201 151.067 128.199 151.039 128.199C151.011 128.2 150.981 128.206 150.949 128.217C150.917 128.227 150.88 128.243 150.836 128.266L150.599 128.387L151.499 130.154L150.98 130.419L149.013 126.559L149.532 126.294L150.393 127.983L150.395 127.983Z" fill="#EEEEEE"/>
<path d="M155.006 123.5L155.223 123.926L153.369 124.871L154.023 126.153L155.524 125.388L155.732 125.798L154.232 126.562L154.903 127.88L156.757 126.936L156.973 127.361L154.595 128.574L152.627 124.714L155.006 123.501L155.006 123.5Z" fill="#EEEEEE"/>
</g>
<defs>
<linearGradient id="paint0_linear_470_18135" x1="88.8918" y1="88.598" x2="125.723" y2="160.858" gradientUnits="userSpaceOnUse">
<stop stop-color="#424242"/>
<stop offset="1" stop-color="#080808"/>
</linearGradient>
<linearGradient id="paint1_linear_470_18135" x1="88.8922" y1="88.5983" x2="90.8307" y2="92.4016" gradientUnits="userSpaceOnUse">
<stop stop-color="#171616"/>
<stop offset="1" stop-color="white"/>
</linearGradient>
<linearGradient id="paint2_linear_470_18135" x1="64.3345" y1="48.8908" x2="78.5954" y2="67.8098" gradientUnits="userSpaceOnUse">
<stop stop-color="#424242"/>
<stop offset="1" stop-color="#080808"/>
</linearGradient>
<linearGradient id="paint3_linear_470_18135" x1="82.431" y1="75.9211" x2="88.8926" y2="88.5981" gradientUnits="userSpaceOnUse">
<stop stop-color="#424242"/>
<stop offset="1" stop-color="#080808"/>
</linearGradient>
<linearGradient id="paint4_linear_470_18135" x1="37.316" y1="84.5415" x2="48.947" y2="107.36" gradientUnits="userSpaceOnUse">
<stop stop-color="#EEEEEE"/>
<stop offset="1" stop-color="#828282"/>
</linearGradient>
<linearGradient id="paint5_linear_470_18135" x1="49.4069" y1="107.27" x2="42.2881" y2="95.8816" gradientUnits="userSpaceOnUse">
<stop stop-color="#E6E6E6"/>
<stop offset="0.521" stop-color="#E3E3E3"/>
<stop offset="0.9069" stop-color="#DADADA"/>
<stop offset="1" stop-color="#D6D6D6"/>
</linearGradient>
<linearGradient id="paint6_linear_470_18135" x1="32.2701" y1="90.309" x2="34.855" y2="95.3802" gradientUnits="userSpaceOnUse">
<stop stop-color="#EEEEEE"/>
<stop offset="1" stop-color="#767676"/>
</linearGradient>
<linearGradient id="paint7_linear_470_18135" x1="34.047" y1="93.7958" x2="33.0775" y2="91.8938" gradientUnits="userSpaceOnUse">
<stop stop-color="#EEEEEE"/>
<stop offset="1" stop-color="#767676"/>
</linearGradient>
<linearGradient id="paint8_linear_470_18135" x1="38.7311" y1="102.986" x2="41.3159" y2="108.057" gradientUnits="userSpaceOnUse">
<stop stop-color="#EEEEEE"/>
<stop offset="1" stop-color="#767676"/>
</linearGradient>
<linearGradient id="paint9_linear_470_18135" x1="40.5079" y1="106.473" x2="39.5384" y2="104.571" gradientUnits="userSpaceOnUse">
<stop stop-color="#EEEEEE"/>
<stop offset="1" stop-color="#767676"/>
</linearGradient>
<linearGradient id="paint10_linear_470_18135" x1="51.4088" y1="96.5238" x2="53.9937" y2="101.595" gradientUnits="userSpaceOnUse">
<stop stop-color="#EEEEEE"/>
<stop offset="1" stop-color="#767676"/>
</linearGradient>
<linearGradient id="paint11_linear_470_18135" x1="53.1856" y1="100.01" x2="52.2162" y2="98.1082" gradientUnits="userSpaceOnUse">
<stop stop-color="#EEEEEE"/>
<stop offset="1" stop-color="#767676"/>
</linearGradient>
<linearGradient id="paint12_linear_470_18135" x1="98.585" y1="107.613" x2="91.4775" y2="93.669" gradientUnits="userSpaceOnUse">
<stop stop-color="#424242"/>
<stop offset="1" stop-color="#080808"/>
</linearGradient>
<linearGradient id="paint13_linear_470_18135" x1="92.1236" y1="94.9363" x2="97.9393" y2="106.346" gradientUnits="userSpaceOnUse">
<stop stop-color="white"/>
<stop offset="1"/>
</linearGradient>
<linearGradient id="paint14_linear_470_18135" x1="112.444" y1="84.5786" x2="118.259" y2="95.9884" gradientUnits="userSpaceOnUse">
<stop stop-color="white"/>
<stop offset="1"/>
</linearGradient>
</defs>
</svg>
