<svg width="88" height="111" viewBox="0 0 88 111" fill="none" xmlns="http://www.w3.org/2000/svg">
<path d="M56.7946 11.222C59.8935 11.222 62.4056 8.70986 62.4056 5.61099C62.4056 2.51212 59.8935 0 56.7946 0C53.6957 0 51.1836 2.51212 51.1836 5.61099C51.1836 8.70986 53.6957 11.222 56.7946 11.222Z" fill="#F47920"/>
<path d="M56.7946 35.9451C59.8935 35.9451 62.4056 33.433 62.4056 30.3342C62.4056 27.2353 59.8935 24.7231 56.7946 24.7231C53.6957 24.7231 51.1836 27.2353 51.1836 30.3342C51.1836 33.433 53.6957 35.9451 56.7946 35.9451Z" fill="#F47920"/>
<path d="M56.7946 60.6668C59.8935 60.6668 62.4056 58.1547 62.4056 55.0558C62.4056 51.957 59.8935 49.4448 56.7946 49.4448C53.6957 49.4448 51.1836 51.957 51.1836 55.0558C51.1836 58.1547 53.6957 60.6668 56.7946 60.6668Z" fill="#F47920"/>
<path d="M56.7946 85.39C59.8935 85.39 62.4056 82.8778 62.4056 79.779C62.4056 76.6801 59.8935 74.168 56.7946 74.168C53.6957 74.168 51.1836 76.6801 51.1836 79.779C51.1836 82.8778 53.6957 85.39 56.7946 85.39Z" fill="#F47920"/>
<path d="M82.3864 60.6668C85.4853 60.6668 87.9974 58.1547 87.9974 55.0558C87.9974 51.957 85.4853 49.4448 82.3864 49.4448C79.2875 49.4448 76.7754 51.957 76.7754 55.0558C76.7754 58.1547 79.2875 60.6668 82.3864 60.6668Z" fill="#F47920"/>
<path d="M31.2028 35.9451C34.3017 35.9451 36.8138 33.433 36.8138 30.3342C36.8138 27.2353 34.3017 24.7231 31.2028 24.7231C28.1039 24.7231 25.5918 27.2353 25.5918 30.3342C25.5918 33.433 28.1039 35.9451 31.2028 35.9451Z" fill="#F47920"/>
<path d="M31.2028 60.6673C34.3017 60.6673 36.8138 58.1552 36.8138 55.0563C36.8138 51.9575 34.3017 49.4453 31.2028 49.4453C28.1039 49.4453 25.5918 51.9575 25.5918 55.0563C25.5918 58.1552 28.1039 60.6673 31.2028 60.6673Z" fill="#F47920"/>
<path d="M31.2028 85.39C34.3017 85.39 36.8138 82.8778 36.8138 79.779C36.8138 76.6801 34.3017 74.168 31.2028 74.168C28.1039 74.168 25.5918 76.6801 25.5918 79.779C25.5918 82.8778 28.1039 85.39 31.2028 85.39Z" fill="#F47920"/>
<path d="M31.2028 110.113C34.3017 110.113 36.8138 107.601 36.8138 104.502C36.8138 101.403 34.3017 98.8911 31.2028 98.8911C28.1039 98.8911 25.5918 101.403 25.5918 104.502C25.5918 107.601 28.1039 110.113 31.2028 110.113Z" fill="#F47920"/>
<path d="M5.611 85.39C8.70987 85.39 11.222 82.8778 11.222 79.779C11.222 76.6801 8.70987 74.168 5.611 74.168C2.51213 74.168 0 76.6801 0 79.779C0 82.8778 2.51213 85.39 5.611 85.39Z" fill="#F47920"/>
</svg>
