<svg width="202" height="85" viewBox="0 0 202 85" fill="none" xmlns="http://www.w3.org/2000/svg">
<path d="M7.38086 60.617H194.37C192.274 55.93 189.838 51.429 187.089 47.147H14.6618C11.9128 51.428 9.47786 55.93 7.38086 60.617Z" fill="#FF6B1A"/>
<path d="M22.627 36.3699H179.126C174.983 31.4629 170.388 26.9519 165.403 22.8999H36.3489C31.3649 26.9519 26.77 31.4639 22.627 36.3699Z" fill="#FF6B1A"/>
<path d="M0 84.8631H201.754C200.961 80.2601 199.861 75.7631 198.474 71.3931H3.28C1.893 75.7641 0.793 80.2611 0 84.8631Z" fill="#FF6B1A"/>
<path d="M149.234 12.123C134.832 4.38999 118.368 0 100.877 0C83.3855 0 66.9215 4.39099 52.5195 12.123H149.234Z" fill="#FF6B1A"/>
</svg>
