<svg width="66" height="87" viewBox="0 0 66 87" fill="none" xmlns="http://www.w3.org/2000/svg">
<path d="M6.6692 83.8701C6.6692 85.4759 5.36811 86.777 3.76231 86.777C2.15651 86.777 0.855469 85.4759 0.855469 83.8701C0.855469 82.2643 2.15651 80.9633 3.76231 80.9633C5.36811 80.9633 6.6692 82.2643 6.6692 83.8701Z" fill="#D6E033"/>
<path d="M6.6692 57.1838C6.6692 58.7896 5.36811 60.0906 3.76231 60.0906C2.15651 60.0906 0.855469 58.7896 0.855469 57.1838C0.855469 55.578 2.15651 54.2769 3.76231 54.2769C5.36811 54.2769 6.6692 55.578 6.6692 57.1838Z" fill="#D6E033"/>
<path d="M6.6692 30.4975C6.6692 32.1033 5.36811 33.4044 3.76231 33.4044C2.15651 33.4044 0.855469 32.1033 0.855469 30.4975C0.855469 28.8917 2.15651 27.5906 3.76231 27.5906C5.36811 27.5906 6.6692 28.8917 6.6692 30.4975Z" fill="#D6E033"/>
<path d="M26.3977 83.8854C26.3977 85.4912 25.0966 86.7922 23.4908 86.7922C21.885 86.7922 20.584 85.4912 20.584 83.8854C20.584 82.2796 21.885 80.9785 23.4908 80.9785C25.0966 80.9785 26.3977 82.2796 26.3977 83.8854Z" fill="#D6E033"/>
<path d="M26.3977 57.1991C26.3977 58.8049 25.0966 60.106 23.4908 60.106C21.885 60.106 20.584 58.8049 20.584 57.1991C20.584 55.5933 21.885 54.2922 23.4908 54.2922C25.0966 54.2922 26.3977 55.5933 26.3977 57.1991Z" fill="#D6E033"/>
<path d="M26.3977 30.5128C26.3977 32.1186 25.0966 33.4197 23.4908 33.4197C21.885 33.4197 20.584 32.1186 20.584 30.5128C20.584 28.907 21.885 27.6059 23.4908 27.6059C25.0966 27.6059 26.3977 28.907 26.3977 30.5128Z" fill="#D6E033"/>
<path d="M26.3977 3.82653C26.3977 5.43233 25.0966 6.7334 23.4908 6.7334C21.885 6.7334 20.584 5.43233 20.584 3.82653C20.584 2.22073 21.885 0.919691 23.4908 0.919691C25.0966 0.919691 26.3977 2.22073 26.3977 3.82653Z" fill="#D6E033"/>
<path d="M46.1262 83.8854C46.1262 85.4912 44.8251 86.7922 43.2193 86.7922C41.6135 86.7922 40.3125 85.4912 40.3125 83.8854C40.3125 82.2796 41.6135 80.9785 43.2193 80.9785C44.8251 80.9785 46.1262 82.2796 46.1262 83.8854Z" fill="#D6E033"/>
<path d="M46.1262 57.1991C46.1262 58.8049 44.8251 60.106 43.2193 60.106C41.6135 60.106 40.3125 58.8049 40.3125 57.1991C40.3125 55.5933 41.6135 54.2922 43.2193 54.2922C44.8251 54.2922 46.1262 55.5933 46.1262 57.1991Z" fill="#D6E033"/>
<path d="M46.1262 30.5128C46.1262 32.1186 44.8251 33.4197 43.2193 33.4197C41.6135 33.4197 40.3125 32.1186 40.3125 30.5128C40.3125 28.907 41.6135 27.6059 43.2193 27.6059C44.8251 27.6059 46.1262 28.907 46.1262 30.5128Z" fill="#D6E033"/>
<path d="M46.1262 3.82653C46.1262 5.43233 44.8251 6.7334 43.2193 6.7334C41.6135 6.7334 40.3125 5.43233 40.3125 3.82653C40.3125 2.22073 41.6135 0.919691 43.2193 0.919691C44.8251 0.919691 46.1262 2.22073 46.1262 3.82653Z" fill="#D6E033"/>
<path d="M65.8547 83.8854C65.8547 85.4912 64.5537 86.7922 62.9479 86.7922C61.3421 86.7922 60.041 85.4912 60.041 83.8854C60.041 82.2796 61.3421 80.9785 62.9479 80.9785C64.5537 80.9785 65.8547 82.2796 65.8547 83.8854Z" fill="#D6E033"/>
<path d="M65.8547 57.1991C65.8547 58.8049 64.5537 60.106 62.9479 60.106C61.3421 60.106 60.041 58.8049 60.041 57.1991C60.041 55.5933 61.3421 54.2922 62.9479 54.2922C64.5537 54.2922 65.8547 55.5933 65.8547 57.1991Z" fill="#D6E033"/>
<path d="M65.8547 30.5128C65.8547 32.1186 64.5537 33.4197 62.9479 33.4197C61.3421 33.4197 60.041 32.1186 60.041 30.5128C60.041 28.907 61.3421 27.6059 62.9479 27.6059C64.5537 27.6059 65.8547 28.907 65.8547 30.5128Z" fill="#D6E033"/>
<path d="M65.8547 3.82653C65.8547 5.43233 64.5537 6.7334 62.9479 6.7334C61.3421 6.7334 60.041 5.43233 60.041 3.82653C60.041 2.22073 61.3421 0.919691 62.9479 0.919691C64.5537 0.919691 65.8547 2.22073 65.8547 3.82653Z" fill="#D6E033"/>
</svg>
