<svg width="51" height="51" viewBox="0 0 51 51" fill="none" xmlns="http://www.w3.org/2000/svg">
<path d="M25.4459 17.9448C23.4567 17.9448 21.5491 18.735 20.1426 20.1415C18.736 21.548 17.9459 23.4557 17.9459 25.4448C17.9459 27.4339 18.736 29.3416 20.1426 30.7481C21.5491 32.1546 23.4567 32.9448 25.4459 32.9448C27.435 32.9448 29.3426 32.1546 30.7492 30.7481C32.1557 29.3416 32.9459 27.4339 32.9459 25.4448C32.9459 23.4557 32.1557 21.548 30.7492 20.1415C29.3426 18.735 27.435 17.9448 25.4459 17.9448ZM25.4459 12.9448C28.7611 12.9448 31.9405 14.2618 34.2847 16.606C36.6289 18.9502 37.9459 22.1296 37.9459 25.4448C37.9459 28.76 36.6289 31.9395 34.2847 34.2837C31.9405 36.6279 28.7611 37.9448 25.4459 37.9448C22.1307 37.9448 18.9512 36.6279 16.607 34.2837C14.2628 31.9395 12.9459 28.76 12.9459 25.4448C12.9459 22.1296 14.2628 18.9502 16.607 16.606C18.9512 14.2618 22.1307 12.9448 25.4459 12.9448ZM41.6959 12.3198C41.6959 13.1486 41.3666 13.9435 40.7806 14.5295C40.1945 15.1156 39.3997 15.4448 38.5709 15.4448C37.7421 15.4448 36.9472 15.1156 36.3612 14.5295C35.7751 13.9435 35.4459 13.1486 35.4459 12.3198C35.4459 11.491 35.7751 10.6962 36.3612 10.1101C36.9472 9.52406 37.7421 9.19482 38.5709 9.19482C39.3997 9.19482 40.1945 9.52406 40.7806 10.1101C41.3666 10.6962 41.6959 11.491 41.6959 12.3198ZM25.4459 5.44482C19.2609 5.44482 18.2509 5.46232 15.3734 5.58982C13.4134 5.68232 12.0984 5.94482 10.8784 6.41982C9.85794 6.79575 8.93516 7.39641 8.17836 8.17732C7.39654 8.93387 6.79501 9.85667 6.41836 10.8773C5.94336 12.1023 5.68086 13.4148 5.59086 15.3723C5.46086 18.1323 5.44336 19.0973 5.44336 25.4448C5.44336 31.6323 5.46086 32.6398 5.58836 35.5173C5.68086 37.4748 5.94336 38.7923 6.41586 40.0098C6.84086 41.0973 7.34086 41.8798 8.17086 42.7098C9.01336 43.5498 9.79586 44.0523 10.8709 44.4673C12.1059 44.9448 13.4209 45.2098 15.3709 45.2998C18.1309 45.4298 19.0959 45.4448 25.4434 45.4448C31.6309 45.4448 32.6384 45.4273 35.5159 45.2998C37.4709 45.2073 38.7859 44.9448 40.0084 44.4723C41.0288 44.0964 41.9516 43.4957 42.7084 42.7148C43.5509 41.8748 44.0534 41.0923 44.4684 40.0148C44.9434 38.7848 45.2084 37.4698 45.2984 35.5148C45.4284 32.7573 45.4434 31.7898 45.4434 25.4448C45.4434 19.2598 45.4259 18.2498 45.2984 15.3723C45.2059 13.4173 44.9409 12.0973 44.4684 10.8773C44.0924 9.85691 43.4918 8.93413 42.7109 8.17732C41.9543 7.39551 41.0315 6.79398 40.0109 6.41732C38.7859 5.94232 37.4709 5.67982 35.5159 5.58982C32.7584 5.45982 31.7934 5.44482 25.4434 5.44482M25.4434 0.444824C32.2359 0.444824 33.0834 0.469824 35.7509 0.594824C38.4109 0.719824 40.2259 1.13732 41.8184 1.75732C43.4684 2.39232 44.8584 3.25232 46.2484 4.63982C47.5201 5.88916 48.5038 7.401 49.1309 9.06982C49.7484 10.6623 50.1684 12.4773 50.2934 15.1398C50.4109 17.8048 50.4434 18.6523 50.4434 25.4448C50.4434 32.2373 50.4184 33.0848 50.2934 35.7498C50.1684 38.4148 49.7484 40.2248 49.1309 41.8198C48.5038 43.4886 47.5201 45.0005 46.2484 46.2498C44.999 47.5216 43.4872 48.5053 41.8184 49.1323C40.2259 49.7498 38.4109 50.1698 35.7509 50.2948C33.0834 50.4123 32.2359 50.4448 25.4434 50.4448C18.6509 50.4448 17.8034 50.4198 15.1359 50.2948C12.4759 50.1698 10.6634 49.7498 9.06836 49.1323C7.39954 48.5053 5.88769 47.5216 4.63836 46.2498C3.36663 45.0005 2.3829 43.4886 1.75586 41.8198C1.13586 40.2273 0.718359 38.4123 0.593359 35.7498C0.473359 33.0848 0.443359 32.2373 0.443359 25.4448C0.443359 18.6523 0.468359 17.8048 0.593359 15.1398C0.718359 12.4748 1.13586 10.6648 1.75586 9.06982C2.3829 7.401 3.36663 5.88916 4.63836 4.63982C5.88769 3.36809 7.39954 2.38436 9.06836 1.75732C10.6609 1.13732 12.4734 0.719824 15.1359 0.594824C17.8059 0.477324 18.6534 0.444824 25.4459 0.444824" fill="white"/>
</svg>
