<svg width="200" height="46" viewBox="0 0 200 46" fill="none" xmlns="http://www.w3.org/2000/svg">
<g clip-path="url(#clip0_147_445)">
<path d="M26.9785 45.67V37.2334H28.0494L28.132 38.5067C28.3877 38.0379 28.7447 37.6756 29.2029 37.4199C29.6611 37.1641 30.1672 37.0336 30.7267 37.0336C31.1502 37.0336 31.5418 37.0948 31.8988 37.2174C32.2558 37.3399 32.5674 37.5237 32.8365 37.7688C33.1056 38.0139 33.3213 38.3336 33.4892 38.7225C33.7582 38.1977 34.1445 37.7848 34.6533 37.4838C35.1621 37.1828 35.7056 37.0309 36.2863 37.0309C36.9336 37.0309 37.4984 37.1588 37.9779 37.4172C38.4574 37.6729 38.8277 38.0645 39.0914 38.5893C39.3525 39.1141 39.4857 39.7774 39.4857 40.5819V45.67H38.3135V40.7151C38.3135 39.8227 38.1324 39.1567 37.7701 38.7145C37.4078 38.275 36.891 38.0539 36.2224 38.0539C35.7748 38.0539 35.3672 38.1737 34.9996 38.4135C34.632 38.6532 34.3443 38.9996 34.1365 39.4524C33.9287 39.9053 33.8275 40.4647 33.8275 41.136V45.6727H32.6554V40.7178C32.6554 39.8254 32.4715 39.1594 32.1039 38.7172C31.7363 38.2776 31.2275 38.0565 30.5802 38.0565C30.1113 38.0565 29.6957 38.1764 29.3334 38.4162C28.9711 38.6559 28.6834 39.0076 28.4703 39.4711C28.2572 39.9346 28.1533 40.5073 28.1533 41.1866V45.6727H26.9812L26.9785 45.67Z" fill="#9C9C9C"/>
<path d="M44.7079 45.8725C43.9274 45.8725 43.2374 45.6887 42.6407 45.3211C42.044 44.9535 41.5751 44.4367 41.2341 43.7733C40.8931 43.11 40.7227 42.3322 40.7227 41.4371C40.7227 40.542 40.8905 39.7695 41.2261 39.1088C41.5618 38.4508 42.0333 37.9393 42.6407 37.577C43.2481 37.2147 43.9487 37.0336 44.7425 37.0336C45.5364 37.0336 46.2503 37.2174 46.8177 37.585C47.3878 37.9527 47.8194 38.4322 48.1151 39.0236C48.4108 39.615 48.5599 40.2623 48.5599 40.9656V41.3092C48.5599 41.4264 48.5546 41.5623 48.544 41.7195H41.6124V40.7311H47.4224C47.3905 39.8707 47.1188 39.2074 46.6099 38.7385C46.1011 38.2697 45.4645 38.0352 44.6919 38.0352C44.2017 38.0352 43.7382 38.1498 43.3013 38.3789C42.8671 38.608 42.5181 38.9436 42.2544 39.3832C41.9907 39.8254 41.8602 40.3795 41.8602 41.0481V41.4824C41.8602 42.2416 41.996 42.8729 42.2704 43.3738C42.5448 43.8746 42.8991 44.2502 43.3333 44.4953C43.7675 44.7404 44.2257 44.8629 44.7052 44.8629C45.3419 44.8629 45.8667 44.7217 46.2796 44.4367C46.6925 44.1516 46.9882 43.76 47.1667 43.2565H48.3229C48.1897 43.7467 47.9606 44.1916 47.6356 44.5885C47.3106 44.9854 46.903 45.2971 46.4128 45.5262C45.9227 45.7553 45.3526 45.8699 44.7052 45.8699L44.7079 45.8725Z" fill="#9C9C9C"/>
<path d="M53.5627 45.8725C52.7369 45.8725 52.0203 45.6807 51.4102 45.2944C50.8028 44.9082 50.3313 44.3834 49.9957 43.7121C49.66 43.0408 49.4922 42.2842 49.4922 41.4344C49.4922 40.5846 49.66 39.8307 49.9957 39.1647C50.3313 38.5014 50.8055 37.9793 51.4182 37.5983C52.0309 37.2201 52.7528 37.0283 53.5787 37.0283C54.2819 37.0283 54.9026 37.1828 55.4461 37.4891C55.9869 37.7955 56.4024 38.2297 56.6928 38.7865V33.6131H57.8649V45.6674H56.794L56.6928 44.1436C56.525 44.434 56.2959 44.7137 56.0055 44.9801C55.7151 45.2465 55.3662 45.4623 54.9586 45.6248C54.551 45.7873 54.0848 45.8672 53.56 45.8672L53.5627 45.8725ZM53.6479 44.8496C54.2393 44.8496 54.7561 44.7084 55.1957 44.4233C55.6352 44.1383 55.9842 43.7414 56.2426 43.2352C56.501 42.7291 56.6289 42.1324 56.6289 41.4531C56.6289 40.7737 56.501 40.1744 56.2426 39.6629C55.9869 39.1488 55.6379 38.7545 55.1957 38.4748C54.7535 38.1951 54.2393 38.0565 53.6479 38.0565C53.0565 38.0565 52.569 38.1951 52.1162 38.4748C51.6633 38.7545 51.3117 39.1488 51.0612 39.6549C50.8108 40.1637 50.6856 40.7631 50.6856 41.4557C50.6856 42.1483 50.8135 42.7477 51.0719 43.2565C51.3276 43.7653 51.6793 44.1569 52.1268 44.4367C52.5717 44.7164 53.0805 44.8549 53.6506 44.8549L53.6479 44.8496Z" fill="#9C9C9C"/>
<path d="M60.3915 35.2408C60.1571 35.2408 59.9573 35.1608 59.7895 34.9983C59.6216 34.8358 59.5391 34.6334 59.5391 34.3883C59.5391 34.1432 59.619 33.9274 59.7815 33.7783C59.944 33.6264 60.1464 33.5518 60.3915 33.5518C60.6153 33.5518 60.8098 33.6264 60.9776 33.7783C61.1454 33.9301 61.228 34.1326 61.228 34.3883C61.228 34.644 61.1481 34.8385 60.9856 34.9983C60.8231 35.1608 60.6259 35.2408 60.3915 35.2408ZM59.8055 45.67V37.2334H60.9776V45.67H59.8055Z" fill="#9C9C9C"/>
<path d="M65.5999 45.8725C64.9179 45.8725 64.3532 45.75 63.9003 45.5049C63.4475 45.2598 63.1145 44.9428 62.896 44.5512C62.6776 44.1596 62.5684 43.7307 62.5684 43.2619C62.5684 42.6811 62.7149 42.191 63.0132 41.7887C63.3089 41.3865 63.7272 41.0854 64.2679 40.8856C64.8087 40.6858 65.4321 40.5846 66.1354 40.5846H68.413C68.413 40.0385 68.3304 39.575 68.1626 39.194C67.9948 38.8158 67.7524 38.5281 67.4354 38.3309C67.1184 38.1365 66.7134 38.0379 66.2206 38.0379C65.6399 38.0379 65.1444 38.1817 64.7315 38.4721C64.3186 38.7625 64.0628 39.186 63.9616 39.7455H62.7389C62.8054 39.1541 63.0079 38.6586 63.3489 38.2563C63.6899 37.8541 64.1134 37.5504 64.6223 37.3453C65.1311 37.1375 65.6639 37.0363 66.2206 37.0363C66.9905 37.0363 67.6245 37.1854 68.12 37.4811C68.6155 37.7768 68.9858 38.1817 69.2255 38.6959C69.4653 39.21 69.5852 39.8014 69.5852 40.4701V45.6754H68.5143L68.4636 44.1356C68.3518 44.3701 68.2106 44.5938 68.0374 44.8043C67.8643 45.0174 67.6645 45.2012 67.4354 45.3557C67.2063 45.5129 66.9425 45.6381 66.6415 45.7313C66.3405 45.8272 65.9942 45.8725 65.6026 45.8725H65.5999ZM65.7331 44.8336C66.1567 44.8336 66.5296 44.751 66.8546 44.5832C67.177 44.4153 67.4567 44.1916 67.6911 43.9145C67.9255 43.6348 68.104 43.3178 68.2265 42.9608C68.3491 42.6039 68.4104 42.2416 68.4104 41.874V41.5729H66.2179C65.6266 41.5729 65.1524 41.6449 64.7954 41.7914C64.4384 41.9352 64.1827 42.1324 64.0255 42.3774C63.8684 42.6225 63.7911 42.9076 63.7911 43.2326C63.7911 43.5576 63.8657 43.8373 64.0175 44.077C64.1694 44.3168 64.3878 44.5033 64.6782 44.6391C64.9686 44.775 65.3202 44.8389 65.7331 44.8389V44.8336Z" fill="#9C9C9C"/>
<path d="M78.2886 45.8725C77.6199 45.8725 77.0312 45.7606 76.5224 45.5369C76.0136 45.3131 75.606 44.9934 75.2997 44.5752C74.9933 44.157 74.8068 43.6561 74.7402 43.0781H75.963C76.0189 43.4031 76.1441 43.6988 76.3386 43.9652C76.5331 44.2342 76.7995 44.4447 77.1351 44.6018C77.4708 44.759 77.865 44.8363 78.3232 44.8363C78.7468 44.8363 79.0958 44.775 79.3701 44.6524C79.6445 44.5299 79.8497 44.3594 79.9908 44.141C80.1294 43.9225 80.2013 43.6801 80.2013 43.4137C80.2013 43.0461 80.116 42.7584 79.9429 42.5506C79.7697 42.3455 79.522 42.191 79.197 42.0897C78.872 41.9885 78.4831 41.8953 78.0249 41.8047C77.6466 41.7381 77.2843 41.6475 76.946 41.5356C76.605 41.4238 76.2986 41.2799 76.0243 41.1014C75.7499 40.9229 75.5341 40.6965 75.3716 40.4221C75.2091 40.1477 75.1292 39.8281 75.1292 39.4604C75.1292 38.9809 75.249 38.56 75.4888 38.1977C75.7286 37.8354 76.0722 37.5504 76.5197 37.3426C76.9646 37.1348 77.4894 37.0336 78.0941 37.0336C78.9546 37.0336 79.6579 37.2494 80.204 37.6783C80.7501 38.1072 81.0697 38.7359 81.1576 39.5617H79.9855C79.9402 39.1035 79.7511 38.7412 79.4154 38.4748C79.0798 38.2084 78.6296 38.0725 78.0595 38.0725C77.4894 38.0725 77.0738 38.1871 76.7781 38.4162C76.4824 38.6453 76.3333 38.9543 76.3333 39.3459C76.3333 39.591 76.4105 39.8041 76.5677 39.9826C76.7249 40.1611 76.9566 40.3156 77.263 40.4434C77.5693 40.5713 77.9476 40.6805 78.3925 40.7711C78.9279 40.8723 79.4234 41.0029 79.8736 41.1654C80.3265 41.3279 80.6941 41.5729 80.9792 41.9006C81.2642 42.2309 81.4054 42.6971 81.4054 43.2992C81.416 43.8027 81.2935 44.2475 81.0378 44.6391C80.782 45.0307 80.4197 45.3344 79.9589 45.5502C79.4954 45.7686 78.9413 45.8779 78.2939 45.8779L78.2886 45.8725Z" fill="#9C9C9C"/>
<path d="M86.5916 45.8725C85.8217 45.8725 85.1265 45.6914 84.5084 45.3291C83.8877 44.9668 83.4002 44.4526 83.0433 43.7893C82.6863 43.126 82.5078 42.3535 82.5078 41.4717C82.5078 40.5899 82.689 39.7694 83.0513 39.1115C83.4136 38.4535 83.9064 37.942 84.5324 37.5797C85.1584 37.2174 85.8537 37.0363 86.6262 37.0363C87.3988 37.0363 88.1394 37.2174 88.7521 37.5797C89.3648 37.942 89.8523 38.4535 90.2092 39.1115C90.5662 39.7694 90.7447 40.558 90.7447 41.4717C90.7447 42.3854 90.5635 43.126 90.2012 43.7893C89.839 44.4526 89.3461 44.9668 88.7281 45.3291C88.1074 45.6914 87.3961 45.8725 86.5943 45.8725H86.5916ZM86.6103 44.8656C87.1351 44.8656 87.6172 44.7377 88.0594 44.4793C88.499 44.2235 88.8586 43.8399 89.1303 43.3338C89.4047 42.825 89.5406 42.199 89.5406 41.4504C89.5406 40.7018 89.4074 40.0598 89.1383 39.559C88.8693 39.0582 88.515 38.6799 88.0754 38.4295C87.6332 38.1791 87.151 38.0539 86.6262 38.0539C86.1015 38.0539 85.6486 38.1817 85.2037 38.4401C84.7562 38.6959 84.3965 39.0742 84.1248 39.5697C83.8504 40.0678 83.7146 40.6938 83.7146 41.4531C83.7146 42.2123 83.8478 42.8276 84.1168 43.3365C84.3859 43.8453 84.7375 44.2262 85.1797 44.4819C85.6193 44.7377 86.0988 44.8682 86.6103 44.8682V44.8656Z" fill="#9C9C9C"/>
<path d="M92.1523 45.67V33.6158H93.3245V45.67H92.1523Z" fill="#9C9C9C"/>
<path d="M98.1451 45.8725C97.5084 45.8725 96.9489 45.7473 96.4614 45.4969C95.9766 45.2465 95.5983 44.8575 95.3319 44.3327C95.0629 43.808 94.9297 43.1446 94.9297 42.3401V37.2334H96.1018V42.2069C96.1018 43.0993 96.2989 43.7627 96.6959 44.1996C97.0928 44.6338 97.6416 44.8522 98.3449 44.8522C98.8483 44.8522 99.2959 44.7323 99.6928 44.4926C100.09 44.2528 100.401 43.9039 100.63 43.4457C100.86 42.9875 100.974 42.4254 100.974 41.7541V37.2334H102.146V45.67H101.075L101.009 44.1623C100.74 44.6977 100.353 45.1159 99.8446 45.417C99.3358 45.718 98.7711 45.8698 98.1451 45.8698V45.8725Z" fill="#9C9C9C"/>
<path d="M107.117 45.6701C106.637 45.6701 106.224 45.5955 105.878 45.4436C105.532 45.2918 105.268 45.0414 105.084 44.6897C104.9 44.3381 104.807 43.8559 104.807 43.2406V38.235H103.334V37.2307H104.807L104.975 35.2727H105.979V37.2494H108.507V38.2377H105.979V43.2432C105.979 43.8026 106.091 44.1783 106.315 44.3727C106.539 44.5672 106.936 44.6658 107.503 44.6658H108.374V45.6701H107.119H107.117Z" fill="#9C9C9C"/>
<path d="M110.481 35.2408C110.247 35.2408 110.047 35.1608 109.879 34.9983C109.711 34.8358 109.629 34.6334 109.629 34.3883C109.629 34.1432 109.709 33.9274 109.871 33.7783C110.034 33.6264 110.236 33.5518 110.481 33.5518C110.705 33.5518 110.9 33.6264 111.067 33.7783C111.235 33.9301 111.318 34.1326 111.318 34.3883C111.318 34.644 111.238 34.8385 111.075 34.9983C110.913 35.1608 110.716 35.2408 110.481 35.2408ZM109.895 45.67V37.2334H111.067V45.67H109.895Z" fill="#9C9C9C"/>
<path d="M116.711 45.8725C115.941 45.8725 115.246 45.6914 114.628 45.3291C114.007 44.9668 113.519 44.4526 113.162 43.7893C112.805 43.126 112.627 42.3535 112.627 41.4717C112.627 40.5899 112.808 39.7694 113.17 39.1115C113.533 38.4535 114.026 37.942 114.652 37.5797C115.278 37.2174 115.973 37.0363 116.745 37.0363C117.518 37.0363 118.259 37.2174 118.871 37.5797C119.484 37.942 119.971 38.4535 120.328 39.1115C120.685 39.7694 120.864 40.558 120.864 41.4717C120.864 42.3854 120.683 43.126 120.32 43.7893C119.958 44.4526 119.465 44.9668 118.847 45.3291C118.227 45.6914 117.515 45.8725 116.713 45.8725H116.711ZM116.727 44.8656C117.252 44.8656 117.734 44.7377 118.176 44.4793C118.615 44.2235 118.975 43.8399 119.247 43.3338C119.521 42.825 119.657 42.199 119.657 41.4504C119.657 40.7018 119.524 40.0598 119.255 39.559C118.986 39.0582 118.631 38.6799 118.192 38.4295C117.75 38.1791 117.268 38.0539 116.743 38.0539C116.218 38.0539 115.765 38.1817 115.32 38.4401C114.873 38.6959 114.513 39.0742 114.241 39.5697C113.967 40.0678 113.831 40.6938 113.831 41.4531C113.831 42.2123 113.964 42.8276 114.233 43.3365C114.502 43.8453 114.854 44.2262 115.296 44.4819C115.736 44.7377 116.215 44.8682 116.727 44.8682V44.8656Z" fill="#9C9C9C"/>
<path d="M122.27 45.6701V37.2334H123.34L123.407 38.7412C123.676 38.2057 124.062 37.7875 124.571 37.4865C125.08 37.1854 125.645 37.0336 126.271 37.0336C126.897 37.0336 127.483 37.1615 127.962 37.4199C128.442 37.6756 128.817 38.0645 129.084 38.584C129.35 39.1035 129.486 39.7641 129.486 40.5686V45.6754H128.314V40.7018C128.314 39.8094 128.12 39.1461 127.728 38.7092C127.336 38.275 126.785 38.0566 126.071 38.0566C125.567 38.0566 125.12 38.1764 124.723 38.4162C124.326 38.6559 124.014 39.0049 123.785 39.4631C123.556 39.9213 123.442 40.4834 123.442 41.1547V45.6754H122.27V45.6701Z" fill="#9C9C9C"/>
<path d="M134.189 45.8725C133.52 45.8725 132.932 45.7606 132.423 45.5369C131.914 45.3131 131.506 44.9934 131.2 44.5752C130.894 44.157 130.707 43.6561 130.641 43.0781H131.863C131.919 43.4031 132.045 43.6988 132.239 43.9652C132.433 44.2342 132.7 44.4447 133.036 44.6018C133.371 44.759 133.765 44.8363 134.224 44.8363C134.647 44.8363 134.996 44.775 135.271 44.6524C135.545 44.5299 135.75 44.3594 135.891 44.141C136.03 43.9225 136.102 43.6801 136.102 43.4137C136.102 43.0461 136.016 42.7584 135.843 42.5506C135.67 42.3455 135.422 42.191 135.097 42.0897C134.772 41.9885 134.383 41.8953 133.925 41.8047C133.547 41.7381 133.185 41.6475 132.846 41.5356C132.505 41.4238 132.199 41.2799 131.925 41.1014C131.65 40.9229 131.434 40.6965 131.272 40.4221C131.109 40.1477 131.03 39.8281 131.03 39.4604C131.03 38.9809 131.149 38.56 131.389 38.1977C131.629 37.8354 131.973 37.5504 132.42 37.3426C132.865 37.1348 133.39 37.0336 133.995 37.0336C134.855 37.0336 135.558 37.2494 136.104 37.6783C136.65 38.1072 136.97 38.7359 137.058 39.5617H135.886C135.841 39.1035 135.651 38.7412 135.316 38.4748C134.98 38.2084 134.53 38.0725 133.96 38.0725C133.39 38.0725 132.974 38.1871 132.679 38.4162C132.383 38.6453 132.234 38.9543 132.234 39.3459C132.234 39.591 132.311 39.8041 132.468 39.9826C132.625 40.1611 132.857 40.3156 133.163 40.4434C133.47 40.5713 133.848 40.6805 134.293 40.7711C134.828 40.8723 135.324 41.0029 135.774 41.1654C136.227 41.3279 136.595 41.5729 136.88 41.9006C137.165 42.2309 137.306 42.6971 137.306 43.2992C137.316 43.8027 137.194 44.2475 136.938 44.6391C136.682 45.0307 136.32 45.3344 135.859 45.5502C135.396 45.7686 134.842 45.8779 134.194 45.8779L134.189 45.8725Z" fill="#9C9C9C"/>
<path d="M109.34 13.6736C109.444 13.5697 112.164 13.5697 112.268 13.6736C112.415 13.8201 112.05 15.7221 112.399 15.7914C114.458 12.909 118.883 12.1205 121.709 14.2063C122.316 14.6539 123.283 16.3934 123.571 16.3242C125.644 11.3186 135.945 12.4775 135.945 17.7787V31.9481H133.284V19.1027C133.284 14.1531 124.24 14.1744 124.24 19.8965V31.9481C124.24 32.0946 121.312 32.0946 121.312 31.9481V18.8389C121.312 14.0199 112.268 14.3395 112.268 20.1629V31.9481C112.268 32.0946 109.34 32.0946 109.34 31.9481C109.34 29.6598 108.693 14.3209 109.34 13.6736Z" fill="white"/>
<path d="M26.6049 13.6736C27.0551 13.7482 29.1623 13.5697 29.2662 13.6736C29.3967 13.8041 29.0664 16.0738 29.3967 16.0578C31.8422 12.0619 38.5687 11.9207 40.5693 16.3242C43.108 11.3959 53.207 12.3043 53.207 18.0477V31.9508H50.5457V19.6355C50.5457 18.0025 49.2004 15.85 47.4662 15.5516C42.9695 14.7764 41.2326 18.0424 41.2326 22.0197V31.9508H38.5713V19.1053C38.5713 15.1467 32.3351 14.0332 30.3558 17.5469C29.7484 18.6258 29.2609 21.359 29.2609 22.5471V31.9481H26.5996V13.6736H26.6049Z" fill="white"/>
<path d="M60.1242 0.431149C60.1934 5.72172 60.1934 11.0176 60.1242 16.3215C63.2969 11.5531 70.8705 12.1791 73.6436 17.0328C79.6428 27.5313 67.1996 38.9729 60.3905 29.3002C59.9936 29.7637 59.903 30.5602 60.1242 31.6844C59.8684 32.2491 58.025 31.8256 57.4629 31.9481V0.164756C58.0729 0.289961 59.8125 -0.138932 60.1242 0.428485V0.431149ZM65.1164 15.5969C57.7985 16.46 58.1022 31.4047 67.4153 30.0674C74.2164 29.0924 73.8354 14.566 65.1164 15.5969Z" fill="white"/>
<path d="M177.714 0.164764V15.7914C180.381 11.6143 190.485 12.4215 190.485 17.7787V31.9481H187.824V19.3691C187.824 14.1291 177.714 13.8547 177.714 20.9594V31.9508H175.053V0.164764H177.714Z" fill="white"/>
<path d="M15.4295 31.9481H12.7682V20.1629C12.7682 13.3432 2.6586 14.3555 2.6586 20.693V31.9481H0V13.6736C0 13.5537 2.09119 13.7588 2.39487 13.6736L2.52541 16.3268C4.73381 11.3346 15.4295 12.3309 15.4295 18.0451V31.9481Z" fill="white"/>
<path d="M77.6836 13.6735H80.4408C80.4408 16.4968 80.3449 21.7053 80.4408 25.4588C80.7074 27.3614 80.933 28.5326 82.1915 29.1643C84.3142 30.2299 85.1133 30.2299 87.9105 29.5639C89.7976 29.1146 90.4518 27.0225 90.4518 25.4588V13.6735C90.4518 13.527 93.3795 13.527 93.3795 13.6735V24.3985C93.3795 36.277 77.6836 34.3243 77.6836 26.2526V13.6735Z" fill="white"/>
<path d="M172.61 14.249C172.61 14.9123 172.623 16.5106 172.623 17.1766C155.01 8.72131 155.409 37.8594 172.89 28.6315C172.89 29.8303 172.89 30.3981 172.89 31.2955C171.507 33.0694 167.251 32.9574 165.069 32.7473C153.403 31.6258 153.374 11.2361 169.301 13.1701C169.8 13.2314 172.474 13.9959 172.61 14.2463V14.249Z" fill="white"/>
<path d="M147.385 13.6736H150.047L150.177 17.1207C151.602 14.1557 153.896 11.958 157.173 13.5803C157.173 15.0455 157.173 15.0455 157.173 15.5783C156.21 15.3569 155.708 15.0455 154.376 15.5783C151.445 16.1111 150.044 20.5918 150.044 23.0746V31.9481H147.383V13.6736H147.385Z" fill="white"/>
<path d="M22.3476 13.6736V31.9481C22.3476 32.0947 19.4199 32.0947 19.4199 31.9481V14.0705C19.4199 13.4604 21.9 13.7109 22.3476 13.6736Z" fill="white"/>
<path d="M197.403 13.6736H194.742V31.9481H197.403V13.6736Z" fill="white"/>
<path d="M60.1253 16.3215V0.431152C60.8233 1.70984 59.5952 13.9 60.1253 16.3215Z" fill="#CC2500"/>
<path d="M60.3914 29.2975C59.7628 29.801 60.3382 31.2102 60.1251 31.6817L59.8613 28.7674C60.1757 28.7674 60.2529 29.103 60.3914 29.2975Z" fill="#CC2500"/>
<path d="M17.2916 7.84753C16.9639 6.63544 16.9772 6.92848 17.2916 5.72971V7.84753Z" fill="#DBFE1D"/>
<path d="M21.8152 3.0791C21.4822 3.01251 20.3074 3.0205 19.9531 3.0791H21.8152Z" fill="#DBFE1D"/>
<path d="M143.127 13.6736V45.1905C143.127 45.3371 140.199 45.3371 140.199 45.1905V14.0705C140.199 13.4604 142.679 13.7109 143.127 13.6736Z" fill="white"/>
<path d="M20.982 10.7166C23.1521 10.7166 24.9113 8.95739 24.9113 6.7873C24.9113 4.61721 23.1521 2.858 20.982 2.858C18.8119 2.858 17.0527 4.61721 17.0527 6.7873C17.0527 8.95739 18.8119 10.7166 20.982 10.7166Z" fill="#DBFE1D"/>
<path d="M141.666 10.7166C143.836 10.7166 145.595 8.95739 145.595 6.7873C145.595 4.61721 143.836 2.858 141.666 2.858C139.496 2.858 137.736 4.61721 137.736 6.7873C137.736 8.95739 139.496 10.7166 141.666 10.7166Z" fill="#23CF00"/>
<path d="M196.07 10.7166C198.24 10.7166 199.999 8.95739 199.999 6.7873C199.999 4.61721 198.24 2.858 196.07 2.858C193.9 2.858 192.141 4.61721 192.141 6.7873C192.141 8.95739 193.9 10.7166 196.07 10.7166Z" fill="#CC2500"/>
</g>
<defs>
<clipPath id="clip0_147_445">
<rect width="200" height="45.745" fill="white" transform="translate(0 0.127472)"/>
</clipPath>
</defs>
</svg>
