<svg width="123" height="55" viewBox="0 0 123 55" fill="none" xmlns="http://www.w3.org/2000/svg">
<path d="M27.3272 0.00578172C26.8288 0.0122428 26.3306 0.0292456 25.8329 0.0567813C25.8329 0.0567813 17.6727 0.423987 15.1227 4.12665C15.1227 4.12665 14.6892 4.62646 14.934 5.16197C14.934 5.16197 14.985 5.31497 14.883 5.41697C14.883 5.41697 13.506 6.64099 12.8124 7.73751C12.5676 8.13532 12.2922 8.80343 12.8124 9.26754C12.8124 9.26754 13.0419 9.44604 13.1337 9.59904C13.3326 9.92545 13.5162 10.41 13.761 10.6956C14.118 11.124 14.8371 11.8584 15.852 11.6799C16.2243 11.6136 16.311 11.4759 16.311 11.4759C16.821 11.9808 17.637 11.9655 17.637 11.9655C17.535 11.6391 17.178 11.0067 17.127 10.6242C17.0986 10.3464 17.1246 10.0658 17.2035 9.79795C17.3448 9.28821 17.5973 8.81615 17.943 8.41582C18.2184 8.14042 18.9223 7.82931 19.4884 8.22202C19.9372 8.54332 20.4778 9.58884 20.029 11.0781C20.029 11.1903 19.519 12.2511 18.9835 12.4041C18.9835 12.4041 18.9325 12.4245 18.8305 12.4245C18.4735 12.4245 17.8104 12.0522 17.8104 12.0522C17.8104 12.0522 17.8104 12.144 17.8869 12.5316C17.9481 12.7509 18.0246 12.9906 18.0909 13.1793C18.0909 13.1793 17.9634 13.4139 17.8767 13.5465C17.7492 13.776 17.6421 14.2146 17.9277 14.4135C17.9277 14.4135 19.1008 15.2142 20.2483 15.2856C21.0337 15.3366 21.3295 14.8011 21.3295 14.8011C21.9109 14.0055 22.3495 13.3221 22.9615 12.7662C24.6293 11.2362 26.9702 10.8282 26.9702 10.8282C27.1232 10.8078 29.6885 10.0938 34.0389 13.5771C32.7945 13.6791 31.3155 13.9749 30.1832 14.1738C26.96 14.7501 24.8945 17.7949 24.2927 19.0291C22.7269 22.2575 25.9247 23.3693 25.9247 23.3693C25.9757 23.3387 28.9847 23.1041 30.4434 19.8859C30.4434 19.8859 30.9738 18.463 32.3967 18.9271C33.3249 19.228 41.5258 22.0891 43.3721 22.5788C43.3721 22.5788 48.8649 24.0068 50.9304 21.4822C54.2403 22.5686 57.3412 23.0939 65.4656 22.0432C66.8784 21.8596 67.9902 21.9055 67.9902 21.9055C69.8874 22.0432 71.6214 23.3234 72.1467 24.1598C74.2888 27.5819 76.9918 34.3753 86.4066 33.549L90.6652 33.1614C93.2662 33.0084 95.3776 32.9064 97.5248 34.0386C98.4581 34.5283 98.9783 34.7068 100.564 36.2215C102.732 38.2819 104.726 40.5158 107.378 39.2968C108.322 38.8633 109.382 37.1803 109.382 37.1803C109.33 36.7532 109.188 36.3421 108.966 35.9738C108.744 35.6055 108.446 35.2884 108.092 35.0434C110.504 35.6197 115.946 35.9869 118.048 32.3097C118.593 31.4529 118.649 30.6879 118.445 30.2289C117.869 28.9386 116.273 29.3619 116.273 29.3619C115.518 29.5149 114.656 30.3819 113.376 30.7593C110.632 31.5753 108.439 30.6267 108.439 30.6267C104.211 28.7958 90.6244 21.0181 83.7137 17.6215C83.7137 17.6215 75.7831 13.6434 64.1345 9.03293C64.1345 9.03293 42.9794 -0.264523 27.3527 0.00578172H27.3272ZM27.3272 0.699392C42.6275 0.439287 63.6041 9.56844 63.8132 9.66534C65.69 10.41 67.4649 11.1444 69.1326 11.838L66.7101 10.8792C63.6274 9.7131 60.519 8.6163 57.3871 7.58961C49.5126 4.87126 46.0649 4.39185 45.8252 4.36125C45.3916 4.28649 44.9562 4.22188 44.5196 4.16745L43.1018 4.00425L43.8872 5.27417C38.3281 1.342 31.6725 1.1431 31.3461 1.1329C30.0047 1.1329 28.8368 1.5154 27.929 1.94891L28.3829 1.1074L27.2813 1.0564C25.7493 0.97784 24.2137 1.00852 22.6861 1.1482C24.2132 0.860565 25.7631 0.71036 27.317 0.699392H27.3272ZM25.7003 1.70921C26.1848 1.70921 26.705 1.72451 27.266 1.75001L27.0824 2.09172C26.6897 2.83633 25.1189 4.37655 22.5331 3.80534C22.5331 3.80534 22.5331 4.95796 25.3637 5.37107C25.3637 5.37107 27.8984 5.81988 32.2029 9.28284C32.2029 9.28284 30.1475 5.19257 26.654 4.13175C26.654 4.13175 26.2154 4.03995 26.4296 3.76454C26.4296 3.76454 28.49 1.82651 31.3614 1.82651C31.3614 1.82651 40.3069 2.02031 45.9935 7.96701C45.9935 7.96701 45.7385 6.9317 44.846 5.46797L44.4737 4.85596C44.4737 4.85596 44.8154 4.89676 45.7487 5.04977C45.7487 5.04977 49.1658 5.47307 57.1882 8.24242C57.1882 8.24242 63.2012 10.2212 66.4908 11.5218C71.4378 13.4955 83.8208 18.2896 91.7209 22.5992C93.1285 23.3642 107.414 30.8103 107.414 30.8103C111.366 32.5902 114.105 31.509 114.105 31.509C114.998 31.1724 116.614 29.928 117.318 30.6318C117.68 30.9939 117.731 31.4835 117.558 31.9578C117.354 32.6718 116.334 33.6306 115.095 34.1763C113.794 34.7578 111.081 34.9108 109.515 34.6558C109.515 34.6558 106.475 34.3498 103.818 31.5702C102.977 30.693 101.947 29.6985 100.993 28.7193C100.169 27.8022 99.0504 27.2016 97.8308 27.0209C96.0457 26.7812 91.6852 26.6639 90.048 26.1182C88.9515 25.751 87.6306 25.0115 85.8711 22.4054C85.0245 21.1609 84.4277 20.8192 83.2751 20.0848C83.2751 20.0848 84.1574 20.7886 84.6573 21.676C85.3815 22.9613 85.7436 23.8946 86.1363 24.5831C86.529 25.2716 86.9727 25.8785 87.6408 26.4191C88.4772 27.0872 88.9974 27.2147 89.9001 27.3626C90.7672 27.5054 93.6844 27.4799 96.1834 27.4442C98.6468 27.4034 99.7484 28.1991 100.554 28.8825C101.304 29.5149 102.594 31.3152 103.38 32.1057C104.318 33.0441 105.012 34.0029 106.868 34.9414C107.516 35.2678 108.572 36.0736 108.515 36.8488C107.679 37.6852 106.644 37.9045 104.155 37.2364C104.333 37.4098 105.634 38.7817 107.863 38.134C107.316 38.6445 106.591 38.9193 105.843 38.899C103.507 38.7664 101.222 35.89 99.9371 34.8292C98.9681 34.0233 98.8508 33.8244 97.1984 32.6769C94.684 30.9378 89.0484 31.4274 89.0484 31.4274L84.9072 31.6416C76.849 32.2536 73.4626 25.1135 72.5701 23.6243C72.3112 23.1819 72.025 22.7561 71.7132 22.3493C71.3052 21.7984 69.102 18.9424 66.8733 18.004C66.8733 18.004 69.0663 19.891 68.9337 21.1354C68.9337 21.1354 68.0259 20.7121 65.5574 21.064C54.9442 22.5788 51.3282 19.9216 51.3282 19.9216C51.8229 17.7949 50.3388 15.612 50.3388 15.612C51.1548 15.867 56.3773 17.6317 61.3295 16.6321C61.3295 16.6321 53.2662 16.6729 47.6102 12.1593C47.6102 12.1593 51.1293 16.5709 50.2929 19.4575C50.2929 19.4575 49.7166 22.5329 43.5812 21.2935C42.9233 21.166 42.1531 20.9467 32.973 18.3967C30.8106 17.749 30.0659 18.7792 29.6732 19.4014C29.6732 20.3092 28.5869 21.37 28.0514 21.6964C25.2056 21.1864 26.3378 18.5497 26.3378 18.5497C24.5528 21.1099 26.4245 22.2421 27.0161 22.3238C26.6591 22.4921 26.3276 22.6196 26.0471 22.7216C26.0471 22.7216 23.7163 21.3394 25.0169 19.075C26.8274 15.9129 28.6736 14.898 32.055 14.5869C33.534 14.4492 34.7631 14.3421 35.7015 14.4747C38.1496 14.8113 39.6898 16.1985 43.3619 16.5505C35.5689 14.2554 35.5485 9.74185 35.523 9.65514V9.65004C35.0895 11.1393 35.3292 12.3939 35.7117 13.4547C35.6097 13.4139 33.9012 12.2919 33.2484 11.8992C30.4536 10.1907 28.2401 9.88975 28.2401 9.88975C27.3119 9.77244 26.8835 8.64533 26.8835 8.64533C26.8325 8.58923 26.8172 8.53312 26.7815 8.48212C25.4963 6.27889 24.2212 6.23808 24.2212 6.23808C24.6011 6.8058 24.839 7.45648 24.9149 8.13532C24.9659 8.41582 24.9863 8.93603 24.9863 9.08903C24.9863 11.4453 22.2322 12.1848 22.2322 12.1848C20.335 14.5971 20.4319 14.6481 20.0086 14.7093C19.5853 14.7705 18.6571 14.3013 18.6571 14.3013C18.5857 14.2605 18.5653 14.1534 18.5755 14.0871C18.5755 13.9392 18.7183 13.8474 18.7183 13.8474C19.0753 13.5669 19.366 13.2864 19.366 13.2864C21.3754 11.2311 21.6151 10.2264 21.3703 8.89523C20.8603 6.22279 18.9529 6.53389 18.9529 6.53389C18.0246 6.62569 17.6472 7.39071 17.6472 7.39071C17.284 8.04087 16.9521 8.70804 16.6527 9.38994C16.2447 10.2876 15.8163 10.4865 15.597 10.5273C15.4871 10.5414 15.3762 10.5466 15.2655 10.5426C14.6178 10.5171 14.1282 9.92545 14.1282 9.92545C14.0772 9.89485 14.0772 9.85915 14.0466 9.83365C13.455 9.20124 13.8834 8.36992 13.8834 8.36992C14.679 6.51859 16.2294 6.24829 16.4334 6.22278L17.3616 6.09018C19.3252 5.75868 20.2534 3.71354 20.2534 3.71354C19.5963 3.69489 18.9387 3.71874 18.2847 3.78494C16.9791 4.01445 16.5354 5.54957 16.5354 5.54447C15.4338 5.79948 15.4644 4.85086 15.6582 4.56016C15.8316 4.29495 16.4742 3.15763 20.7124 2.17842C20.7124 2.17842 22.3138 1.69391 25.7003 1.70921ZM24.8894 2.32122C23.8693 2.32122 23.3338 2.89243 23.3338 2.94853C23.3338 2.97913 23.4715 2.99443 23.6908 2.99953L24.0478 3.01483C24.6156 2.99041 25.1718 2.84615 25.6799 2.59152C25.8468 2.52313 26.0044 2.43403 26.1491 2.32632L24.8996 2.31612L24.8894 2.32122ZM25.7258 4.17255V4.19295C25.8788 4.60606 26.2766 4.75396 26.4551 4.80496V4.79986C27.2864 5.05486 28.031 5.50367 28.6838 6.02898C26.6948 4.91716 25.5575 4.69786 25.481 4.68256C25.2115 4.64149 24.9443 4.58702 24.6803 4.51936C25.0456 4.44343 25.4014 4.32712 25.7411 4.17255H25.7258ZM18.7693 4.42755C18.7693 4.42755 18.5143 5.24357 17.5095 5.41697C17.5095 5.41697 17.1168 5.50877 16.9587 5.51387L17.0658 5.20787C17.0658 5.14667 17.3259 4.50406 17.9073 4.44286C17.9073 4.44286 18.2439 4.42755 18.7693 4.42755ZM15.2859 5.61588C15.3666 5.71164 15.4632 5.79274 15.5715 5.85558C14.883 6.14628 13.098 8.05881 13.098 8.05881C14.0007 6.72259 15.1788 5.72298 15.189 5.71278C15.189 5.69748 15.24 5.68218 15.24 5.66687C15.24 5.65157 15.2859 5.63118 15.2859 5.61588ZM19.0447 7.2224C19.2385 7.1969 20.1514 7.1612 20.5747 8.59942C20.4269 8.22582 20.1801 7.89961 19.8607 7.65591C19.6738 7.52625 19.4632 7.43472 19.2409 7.38659C19.0186 7.33846 18.789 7.33465 18.5653 7.3754C18.7098 7.28516 18.8746 7.23256 19.0447 7.2224ZM12.5064 44.9528V49.4052C12.5064 50.7057 12.2207 51.5778 11.5883 52.2103C10.7468 53.0365 9.3596 53.3731 7.30427 53.3731H0.597656V54.6787H7.88058C11.3333 54.6787 13.7763 54.2095 15.0462 52.909C15.7755 52.1644 16.1274 51.231 16.1274 49.6959V44.9528H12.5064ZM26.2154 44.9528L17.7849 54.6838H19.8862L21.661 52.6132H32.3916L34.1766 54.6838H38.2363L29.7905 44.9579L26.2154 44.9528ZM47.0543 44.9528C44.591 44.9528 43.1171 45.2384 41.8012 45.9729C41.118 46.3465 40.551 46.9011 40.1623 47.5759C39.7737 48.2507 39.5784 49.0195 39.598 49.7979C39.598 51.7614 40.4905 53.1946 42.4388 53.98C43.6067 54.4543 45.152 54.6787 47.1155 54.6787H57.5962V50.2161H53.9904V53.3782H48.2121C46.3454 53.3782 45.254 53.1079 44.4533 52.4959C43.6883 51.9093 43.2854 51.0219 43.2854 49.8183C43.2854 48.6504 43.6679 47.7783 44.3819 47.202C45.1877 46.5492 46.2434 46.2534 48.1814 46.2534H57.229V44.9528H47.0543ZM75.9004 44.9528V49.6653C75.9004 50.8893 75.7474 51.6696 75.2782 52.3174C74.4928 53.4241 73.2535 53.8219 70.7085 53.8219H70.4025C67.9749 53.8219 66.6234 53.4241 65.8379 52.3225C65.3738 51.6696 65.2157 50.9301 65.2157 49.6653V44.9579H61.5947V49.803C61.5947 51.0576 61.7324 52.0471 62.3597 52.8784C63.3899 54.2248 65.2871 55 70.5198 55H70.5759C75.8392 55 77.7262 54.2248 78.7565 52.8784C79.3889 52.0471 79.5215 51.0576 79.5215 49.803V44.9579L75.9004 44.9528ZM89.5533 44.9528L81.1178 54.6787H83.219L84.999 52.6081H95.7244L97.5095 54.6787H101.569L93.1234 44.9528H89.5533ZM104.782 44.9528V54.6838H108.403V51.3126H113.162L118.588 54.6787H123L117.303 51.2463C118.66 51.2004 119.817 50.9913 120.705 50.517C121.131 50.2799 121.484 49.9297 121.724 49.505C121.964 49.0802 122.083 48.5975 122.066 48.1098C122.066 46.8093 121.485 45.978 120.429 45.5087C119.486 45.1007 118.323 44.9579 116.013 44.9579L104.782 44.9528ZM108.403 46.1769H115.538C116.895 46.1769 117.497 46.3095 117.91 46.6155C118.303 46.9113 118.445 47.3601 118.445 48.0588V48.2424C118.445 48.8697 118.292 49.3797 117.833 49.701C117.374 50.0172 116.742 50.0835 115.584 50.0835H108.403V46.1769ZM27.0161 46.3707L31.3002 51.3534H22.7422L27.0161 46.3707ZM90.354 46.3707L94.6381 51.3534H86.07L90.354 46.3707Z" fill="white"/>
</svg>
