<svg width="350" height="236" viewBox="0 0 350 236" fill="none" xmlns="http://www.w3.org/2000/svg">
<path d="M113.957 83.525C113.957 83.525 189.457 92.525 205.057 74.025C205.057 74.025 194.657 19.125 183.457 11.525C163.357 -2.07497 130.157 8.62503 124.857 22.525C114.257 51.125 113.957 83.525 113.957 83.525Z" fill="white"/>
<path d="M113.856 84.2249C118.356 84.7249 122.756 85.1249 127.256 85.4249C137.056 86.1249 146.956 86.5249 156.856 86.4249C167.556 86.3249 178.256 85.7249 188.756 83.4249C193.056 82.5249 197.156 81.1249 201.056 79.2249C202.656 78.4249 204.156 77.4249 205.556 76.3249C206.156 75.8249 207.456 74.9249 207.456 74.0249C207.356 73.2249 207.256 72.5249 207.056 71.8249C206.756 70.4249 206.456 68.9249 206.156 67.5249C205.256 63.2249 204.256 58.9249 203.256 54.7249C200.756 44.4249 197.956 34.0249 193.856 24.2249C192.356 20.5249 190.656 16.7249 188.056 13.6249C186.756 12.1249 185.156 10.9249 183.456 10.0249C180.456 8.32491 177.256 7.02491 173.956 6.22491C160.556 2.72491 146.356 4.32491 134.156 10.7249C129.756 13.1249 125.456 16.3249 123.156 20.8249C121.356 24.3249 120.356 28.3249 119.256 32.1249C118.056 36.3249 116.956 40.6249 116.056 44.9249C113.556 56.9249 112.056 69.0249 111.656 81.3249C111.656 81.9249 111.656 82.6249 111.656 83.2249C111.656 84.3249 116.556 84.7249 116.656 83.9249C116.856 75.4249 117.556 67.0249 118.856 58.6249C119.956 50.6249 121.656 42.6249 123.756 34.7249C124.856 30.6249 126.156 26.5249 127.656 22.6249C128.556 20.6249 129.856 18.7249 131.456 17.2249C135.356 13.3249 140.556 10.6249 145.756 8.82492C151.656 6.72492 157.956 5.82491 164.256 6.12491C170.356 6.32491 176.356 8.22491 181.356 11.7249C183.856 13.5249 185.556 16.8249 186.956 19.6249C191.456 28.6249 194.156 38.5249 196.656 48.2249C198.656 56.0249 200.456 63.8249 202.056 71.6249C202.256 72.2249 202.356 72.9249 202.456 73.6249C202.356 74.2249 200.856 75.4249 200.256 75.8249C197.256 78.0249 193.856 79.7249 190.256 80.7249C180.956 83.6249 171.056 84.4249 161.356 84.8249C151.356 85.2249 141.756 84.9249 131.756 84.4249C128.056 84.2249 124.356 83.9249 120.656 83.6249L118.556 83.4249L117.656 83.3249H117.256C117.356 83.3249 117.856 83.4249 117.256 83.3249L114.856 83.1249L114.056 83.0249C113.656 83.0249 111.556 82.6249 111.456 83.4249C111.356 84.2249 113.556 84.2249 113.856 84.2249Z" fill="#000005"/>
<path d="M130.257 44.5249C141.857 39.6249 156.057 32.8249 160.057 19.7249C160.957 16.7249 156.357 15.8249 155.457 18.5249C151.857 30.3249 138.557 36.1249 128.157 40.5249C126.957 40.9249 126.357 42.2249 126.857 43.4249C127.357 44.6249 128.557 45.2249 129.757 44.7249C129.957 44.7249 130.057 44.6249 130.257 44.5249Z" fill="#000005"/>
<path d="M126.757 40.4251C135.457 33.9251 144.857 26.9251 149.057 16.5251C149.557 15.5251 149.257 14.2251 148.157 13.7251C148.057 13.7251 148.057 13.6251 147.957 13.6251C146.657 13.1251 145.257 13.6251 144.657 14.8251C140.757 24.4251 132.157 30.9251 124.057 36.9251C122.957 37.5251 122.657 38.9251 123.257 39.9251V40.0251C124.157 41.0251 125.657 41.1251 126.757 40.4251Z" fill="#000005"/>
<path d="M194.457 68.525C203.657 55.825 184.057 23.725 184.057 23.725C177.857 23.425 167.057 19.125 167.057 19.125C172.657 37.025 151.857 45.125 151.857 45.125C146.057 35.825 134.957 41.025 136.957 50.625C138.957 60.225 148.457 60.025 148.457 60.025C148.457 60.025 146.957 84.625 148.357 88.425C148.357 88.425 165.657 97.225 173.657 81.925C173.657 81.925 188.157 77.225 194.457 68.525Z" fill="white"/>
<path d="M196.057 70.4248C198.857 66.4248 199.157 61.5249 198.557 56.8249C197.757 51.4249 196.357 46.0248 194.157 41.0248C192.357 36.5248 190.257 32.1248 187.957 27.9248C186.757 25.7248 185.357 21.9248 182.457 21.6248C177.057 21.2248 171.557 19.1248 166.557 17.1248C166.057 16.8248 165.357 17.0248 165.157 17.5248C165.057 17.8248 164.957 18.1248 165.057 18.4248C166.857 23.7248 165.857 29.6248 162.457 34.0248C161.057 35.9248 159.357 37.5248 157.457 38.9248C156.657 39.5248 155.757 40.1248 154.857 40.7248C154.257 41.1248 153.257 41.7248 152.857 41.8249C152.057 42.2248 151.257 42.6248 150.357 43.0248L153.157 44.6248C151.057 41.3248 147.657 38.2248 143.457 38.0248C140.257 37.9248 137.357 39.5249 135.757 42.3249C133.857 45.6248 134.457 50.0249 135.957 53.3249C137.557 56.7249 140.257 59.3249 143.757 60.8249C145.457 61.5249 147.257 61.9248 149.157 61.9248L146.257 58.7248C145.757 66.5248 145.357 74.3248 145.657 82.2248C145.657 83.9248 145.857 85.6249 146.157 87.3249C146.657 89.2249 147.957 90.0248 149.557 90.7248C152.957 92.2248 156.657 92.9248 160.357 92.9248C163.157 92.9248 165.957 92.2249 168.457 90.8249C171.457 89.0248 173.857 86.4249 175.357 83.3249L174.757 83.8249C177.557 82.9249 180.357 81.7249 182.957 80.3249C187.957 77.9249 192.757 74.8248 196.057 70.4248C197.257 68.8248 193.757 65.2248 192.757 66.7248C187.857 73.3248 179.957 76.9249 172.557 79.8249C172.157 80.0249 171.757 80.3248 171.557 80.7248C170.857 81.9248 170.157 83.0248 169.257 84.0248C167.857 85.6248 166.157 86.9248 164.157 87.7248C160.857 89.0248 157.157 89.2248 153.657 88.4248C152.257 88.1248 150.957 87.7248 149.657 87.2248C149.257 87.0248 148.857 86.8248 148.357 86.7248C147.857 86.6248 148.957 87.0248 148.357 86.7248L150.057 88.6248C149.957 88.3248 150.157 89.2248 150.057 88.7248C150.057 88.6248 149.957 88.4249 149.957 88.3249C149.857 88.0248 149.857 87.7249 149.857 87.3249C149.857 87.0248 149.757 86.7248 149.757 86.4248C149.757 85.9248 149.657 85.4248 149.657 84.9248C149.557 82.6248 149.557 80.3248 149.657 77.9248C149.757 73.3248 149.957 68.8248 150.157 64.2248C150.257 63.2248 150.257 62.2248 150.357 61.1248C150.457 59.8248 148.857 57.8248 147.457 57.9248C147.157 57.9248 146.857 57.9248 146.557 57.9248C146.257 57.9248 145.957 57.8249 145.657 57.8249C145.357 57.8249 144.957 57.7248 144.657 57.6248C144.257 57.5248 143.757 57.3248 143.357 57.2248C142.957 57.0248 142.457 56.8248 142.157 56.6248C141.757 56.4248 141.457 56.1249 141.157 55.8249C140.857 55.5249 140.557 55.2249 140.257 54.8249C137.457 51.0249 138.257 43.9248 143.757 42.5248C146.657 41.8248 148.857 43.3248 150.357 45.6248C150.857 46.3248 152.157 47.6248 153.157 47.2248C160.257 44.4248 167.457 38.4249 169.457 30.8249C170.357 27.1249 170.257 23.3248 169.057 19.7248L167.557 21.0248C169.657 21.8248 171.757 22.6248 173.857 23.2248C177.457 24.5248 181.157 25.3248 184.957 25.7248L182.557 24.0248C183.157 25.0248 183.757 26.1248 184.357 27.1248L184.757 27.9248L185.057 28.4248C185.457 29.0248 185.757 29.7248 186.057 30.4248C186.757 31.8248 187.557 33.3249 188.157 34.8249C191.257 41.5248 194.257 48.8249 194.757 56.3249C194.957 59.7249 194.757 63.6248 192.657 66.5248C191.657 68.3248 195.057 71.8248 196.057 70.4248Z" fill="#000005"/>
<path d="M186.157 34.8252C187.257 34.8252 188.157 35.6252 188.257 36.7252C188.257 36.8252 188.257 36.9252 188.257 37.0252C188.057 39.2252 185.257 38.9252 184.857 37.0252C184.557 36.1252 184.957 35.1252 185.857 34.8252C185.957 34.8252 186.057 34.8252 186.157 34.8252Z" fill="#000005"/>
<path d="M136.656 62.6252C136.256 69.0252 135.657 75.5252 134.857 81.9252C134.557 83.8252 138.656 86.5252 138.956 83.9252C139.756 77.5252 140.356 71.1252 140.756 64.6252C140.656 63.4252 139.856 62.3252 138.756 61.8252C137.856 61.4252 136.656 61.4252 136.656 62.6252Z" fill="#000005"/>
<path d="M121.757 56.625C124.557 56.925 127.457 56.725 130.257 55.925C133.157 55.225 135.957 54.125 138.557 52.525C139.157 52.125 136.957 51.725 136.857 51.725C136.257 51.625 135.557 51.625 134.957 51.625C134.557 51.625 134.157 51.625 133.757 51.825C131.557 53.225 129.257 54.225 126.757 54.825C126.157 55.025 125.557 55.125 124.957 55.225L124.157 55.425L123.757 55.525H123.657L122.957 55.625H122.657H122.557C122.957 55.625 121.857 55.625 122.457 55.625C122.557 55.625 122.857 55.625 122.457 55.625H122.957C123.457 55.725 123.657 55.725 123.357 55.725C122.757 55.625 122.057 55.625 121.457 55.625C121.257 55.625 120.457 55.625 120.257 55.825C119.557 56.225 121.557 56.525 121.757 56.625Z" fill="#000005"/>
<path d="M188.657 64.1249C188.657 64.0249 188.757 63.9249 188.757 63.7249L188.557 64.2249C188.757 63.8249 189.057 63.3249 189.357 63.0249L188.957 63.4249C189.257 63.1249 189.557 62.8249 189.957 62.6249L189.457 62.9249L189.757 62.7249C190.057 62.6249 190.257 62.4249 190.457 62.2249C190.857 61.8249 190.957 61.2249 190.857 60.7249C190.857 60.4249 190.657 60.2249 190.457 59.9249C190.057 59.4249 189.557 59.0249 188.857 58.9249C188.257 58.7249 187.557 58.8249 186.957 59.0249C186.557 59.2249 186.157 59.5249 185.757 59.8249C185.357 60.1249 185.057 60.4249 184.757 60.8249C184.257 61.4249 183.957 62.1249 183.757 62.8249C183.657 63.1249 183.657 63.3249 183.757 63.6249C183.757 63.9249 183.957 64.1249 184.157 64.4249C184.357 64.7249 184.557 64.9249 184.857 65.0249C185.157 65.2249 185.457 65.3249 185.757 65.4249C186.357 65.6249 187.057 65.5249 187.657 65.3249L188.157 65.0249C188.357 64.8249 188.557 64.5249 188.657 64.1249Z" fill="#000005"/>
<path d="M326.157 59.5248C326.157 59.5248 295.657 135.325 216.657 140.825L221.657 96.5248C221.657 96.5248 266.257 89.0248 297.657 41.9248L326.157 59.5248Z" fill="#000005"/>
<path d="M323.857 60.2248C322.857 62.7248 321.557 65.2248 320.257 67.6248C316.957 73.8248 313.257 79.8248 309.157 85.5248C303.457 93.5248 296.957 101.025 289.757 107.725C281.357 115.725 271.757 122.425 261.457 127.725C249.657 133.725 236.857 137.525 223.657 139.025C221.757 139.225 219.857 139.425 217.957 139.525L218.857 140.025L220.557 125.025L223.257 101.225L223.857 95.7248L220.657 97.5248C226.957 96.3248 233.057 94.3248 238.957 91.7248C253.057 85.8248 266.057 77.6248 277.357 67.3248C285.857 59.6248 293.357 50.9248 299.757 41.3248L295.457 42.8248L320.457 58.2248L323.957 60.3248C324.757 60.8248 326.357 60.1248 327.057 59.7248C327.357 59.5248 329.057 58.6248 328.257 58.1248L303.257 42.7248L299.757 40.5248C298.757 39.9248 296.057 41.1248 295.457 42.0248C285.357 57.3248 272.257 70.3248 256.857 80.3248C253.857 82.2248 251.057 83.9248 247.957 85.5248C246.557 86.2248 245.157 86.9248 243.757 87.6248C243.157 87.9248 242.457 88.2248 241.757 88.5248L241.157 88.7248L239.957 89.2248C237.657 90.2248 235.257 91.1248 232.857 92.0248L232.457 92.1248L231.757 92.3248C231.257 92.5248 230.757 92.7248 230.157 92.8248C229.257 93.1248 228.357 93.4248 227.457 93.6248L225.057 94.2248C224.657 94.3248 225.657 94.1248 225.057 94.2248L224.657 94.3248L223.857 94.5248C223.357 94.6248 222.857 94.7248 222.357 94.8248C221.657 94.9248 219.257 95.7248 219.157 96.6248L217.457 111.525L214.757 135.425L214.157 140.925C214.057 141.425 214.657 141.425 215.057 141.425C229.657 140.425 243.957 136.925 257.257 130.925C268.757 125.725 279.557 118.925 289.157 110.725C297.157 103.825 304.457 96.0248 310.857 87.5248C315.557 81.3248 319.857 74.7248 323.557 67.8248C324.757 65.7248 325.857 63.5248 326.857 61.4248C327.457 60.4248 327.857 59.4248 328.257 58.3248V58.2248C328.557 57.3248 326.457 57.8248 326.257 57.9248C325.557 58.8248 324.157 59.3248 323.857 60.2248Z" fill="#000005"/>
<path d="M86.2568 168.225C86.2568 168.225 115.757 93.1248 141.957 79.5248C168.157 65.9248 181.257 94.6248 188.157 116.925C195.057 139.225 196.257 195.425 196.257 195.425L86.2568 168.225Z" fill="#000005"/>
<path d="M88.2569 169.825C89.3569 166.925 90.6569 164.025 91.8569 161.125C94.9569 154.025 98.1569 146.925 101.557 139.925C105.857 131.125 110.357 122.525 115.357 114.225C120.057 106.125 125.457 98.5248 131.557 91.4248C137.257 85.1248 143.957 79.7248 152.457 78.2248C156.757 77.4248 161.157 78.1248 165.057 80.2248C166.857 81.2248 168.457 82.5248 169.857 84.0248C171.457 85.7248 172.957 87.5248 174.257 89.5248C177.157 93.9248 179.557 98.5249 181.557 103.425C183.457 108.125 185.157 112.925 186.557 117.725C189.057 126.625 190.157 136.025 191.157 145.225C192.257 155.325 192.957 165.425 193.457 175.525C193.757 181.525 194.057 187.525 194.157 193.425C194.157 193.725 194.157 194.025 194.157 194.325L195.357 193.825L184.357 191.125L158.057 184.625L126.257 176.725L98.7569 169.925C94.3569 168.825 89.8569 167.625 85.4568 166.625H85.2569C84.2569 166.425 83.8569 167.025 84.3569 167.825C84.9569 168.925 85.9568 169.625 87.1568 170.025L98.0569 172.725L124.357 179.325L156.157 187.125L183.657 193.925C188.057 195.025 192.557 196.225 196.957 197.225H197.157C197.557 197.325 198.357 197.325 198.357 196.825C198.257 192.425 198.057 187.925 197.857 183.525C197.457 173.725 196.857 164.025 195.957 154.225C195.257 144.125 193.857 134.025 191.757 124.125C189.357 114.225 185.857 104.625 181.157 95.6248C176.257 86.7248 169.057 77.6248 158.757 75.0248C149.557 72.7248 140.157 76.8249 133.257 82.8249C126.557 88.6249 121.157 95.9249 116.357 103.325C110.857 111.825 105.757 120.525 101.257 129.525C97.2569 137.325 93.5569 145.125 90.0569 153.125C88.1569 157.425 86.2569 161.725 84.5569 166.125L84.3569 166.725C83.6569 168.325 87.8569 170.925 88.2569 169.825Z" fill="#000005"/>
<path d="M133.356 126.925C133.356 126.925 171.756 173.625 207.756 170.125C243.756 166.625 243.756 94.0249 243.756 94.0249L206.256 78.0249L184.256 124.825" fill="#000005"/>
<path d="M131.557 127.225C137.957 134.825 144.957 141.725 152.557 148.125C165.657 159.125 181.257 169.525 198.557 171.825C205.457 172.725 212.757 172.325 219.057 168.925C224.357 166.025 228.457 161.525 231.657 156.425C238.557 145.425 241.757 132.225 243.757 119.525C245.057 111.625 245.757 103.525 245.857 95.5252C245.857 95.4252 245.857 95.2252 245.857 95.1252C245.757 93.9252 245.057 92.9252 243.957 92.5252L211.057 78.5252L206.357 76.5252C205.857 76.3252 204.457 75.8252 204.057 76.6252L196.557 92.4252L184.757 117.525L182.057 123.325C181.557 124.325 182.457 125.325 183.257 125.925C183.757 126.325 185.657 127.225 186.157 126.225L193.657 110.425L205.457 85.3252L208.157 79.5252H205.857L238.757 93.5252L243.457 95.5252L241.557 92.9252C241.457 99.4252 241.057 105.925 240.157 112.325C238.657 124.625 236.057 137.225 230.457 148.425C227.857 153.625 224.557 158.725 219.957 162.525C215.257 166.325 209.457 168.425 203.457 168.425C186.857 168.725 171.357 159.225 158.857 149.425C153.257 145.025 147.957 140.325 143.057 135.325C140.357 132.525 137.657 129.725 135.157 126.725C135.457 127.025 135.457 127.125 135.157 126.725C134.457 125.925 133.257 124.925 132.057 125.125C130.857 125.325 130.957 126.425 131.557 127.225Z" fill="#000005"/>
<path d="M269.057 65.3249C283.361 65.3249 294.957 53.7291 294.957 39.4249C294.957 25.1207 283.361 13.5249 269.057 13.5249C254.753 13.5249 243.157 25.1207 243.157 39.4249C243.157 53.7291 254.753 65.3249 269.057 65.3249Z" fill="white"/>
<path d="M292.657 40.3248C291.857 50.7248 284.957 59.6248 275.157 62.9248C270.457 64.5248 265.257 64.6248 260.557 63.1248C256.257 61.5248 252.557 58.6248 250.057 54.8248C244.057 46.1248 244.057 34.6248 249.957 25.8248C255.557 17.5248 266.157 12.8248 276.057 15.1248C286.857 17.7248 293.357 29.5248 292.657 40.3248C292.557 41.6248 297.157 42.8248 297.257 42.2248C298.057 30.4248 290.957 20.1248 280.457 15.2248C269.957 10.3248 257.157 11.4248 248.657 19.8248C240.557 27.9248 238.557 40.4248 243.857 50.6248C249.357 60.9248 261.657 67.3248 273.157 66.3248C285.957 65.2248 296.157 55.0248 297.257 42.2248C297.257 40.9248 292.657 39.7248 292.657 40.3248Z" fill="#23CF00"/>
<path d="M321.357 68.7248C335.661 68.7248 347.257 57.129 347.257 42.8248C347.257 28.5206 335.661 16.9248 321.357 16.9248C307.053 16.9248 295.457 28.5206 295.457 42.8248C295.457 57.129 307.053 68.7248 321.357 68.7248Z" fill="white"/>
<path d="M344.757 44.7249C343.957 54.4249 337.157 63.3249 327.657 66.0249C318.157 68.6249 307.957 64.9249 302.357 56.8249C296.557 48.4249 296.557 37.2249 302.457 28.8249C308.157 20.8249 318.257 17.1249 327.757 19.7249C338.557 22.7249 345.457 33.6249 344.757 44.7249C344.557 47.2249 349.557 47.3249 349.757 44.8249C350.457 33.1249 343.857 22.2249 333.157 17.5249C322.057 12.7249 309.157 15.2249 300.657 23.8249C292.557 32.3249 290.757 45.0249 296.057 55.4249C301.757 66.0249 313.357 72.0249 325.357 70.4249C338.557 68.6249 348.657 57.9249 349.857 44.7249C349.957 42.2249 344.957 42.1249 344.757 44.7249Z" fill="#23CF00"/>
<path d="M213.657 45.6252L182.657 42.8252C182.657 42.8252 178.157 38.2252 183.957 31.9252L224.157 30.3252L213.657 45.6252Z" fill="#23CF00"/>
<path d="M211.557 62.2251C211.557 62.2251 204.757 55.1251 208.757 42.3251C212.757 29.5251 219.357 30.5251 219.857 32.5251C219.857 32.5251 222.357 24.3251 227.257 24.5251C232.157 24.7251 232.657 26.6251 232.657 26.6251C232.657 26.6251 237.857 20.4251 242.757 24.5251C247.657 28.6251 241.257 35.3251 242.157 43.4251C243.057 51.5251 251.157 54.2251 250.657 65.3251C250.157 76.4251 243.657 93.9251 243.657 93.9251C243.657 93.9251 206.357 81.8251 206.157 80.0251C205.957 78.2251 211.557 62.2251 211.557 62.2251Z" fill="white"/>
<path d="M213.357 61.4248C213.157 61.2248 212.957 61.0248 212.857 60.7248C212.757 60.4248 212.457 60.2248 212.257 59.9248C211.957 59.5248 212.257 60.0248 212.157 59.7248L211.757 59.1248C210.557 56.7248 209.857 54.1248 209.757 51.5248C209.657 47.4248 210.557 43.4248 212.357 39.7248C212.957 38.3248 213.857 36.9248 214.857 35.7248C215.257 35.3248 215.657 34.9248 216.057 34.6248L216.657 34.2248L216.957 34.0248C217.257 33.8248 216.557 34.2248 217.057 34.0248L217.657 33.7248L217.957 33.6248C217.657 33.6248 218.357 33.5248 217.957 33.6248L218.557 33.5248C218.057 33.6248 218.357 33.4248 218.557 33.5248C217.957 33.3248 218.757 33.6248 218.557 33.5248C218.857 33.6248 217.957 33.2248 218.257 33.4248C218.557 33.6248 218.557 33.7248 217.957 33.2248C218.357 33.5248 217.657 32.8248 217.857 33.0248L217.657 32.5248C218.057 34.4248 221.557 36.0248 222.357 33.5248L222.457 33.3248C222.257 33.8248 222.457 33.4248 222.557 33.2248C222.757 32.6248 223.057 32.1248 223.257 31.5248C223.857 30.1248 224.757 28.9248 225.757 27.8248C226.257 27.3248 226.857 27.0248 227.457 26.8248C228.257 26.7248 229.057 26.8248 229.757 27.0248C229.957 27.1248 230.257 27.1248 230.457 27.2248C230.657 27.3248 231.157 27.4248 230.557 27.2248C230.657 27.2248 230.757 27.3248 230.857 27.4248C230.357 26.9248 230.657 27.3248 230.757 27.4248C230.857 27.5248 230.557 27.2248 230.557 27.2248C230.557 27.2248 230.757 27.5248 230.557 27.1248C230.357 26.7248 230.657 27.7248 230.357 26.6248C230.557 27.5248 231.257 28.2248 232.157 28.6248C232.757 28.9248 234.057 29.1248 234.557 28.5248C235.657 27.1248 237.057 26.1248 238.657 25.5248C240.757 24.9248 242.257 26.4248 242.257 28.4248C242.257 31.5248 240.757 34.5248 240.157 37.5248C239.457 40.7248 239.657 44.0248 240.757 47.1248C242.657 52.1248 246.957 55.5248 248.057 60.8248C248.557 64.0248 248.457 67.3248 247.757 70.4248C247.157 73.7248 246.457 76.9248 245.657 80.1248C244.457 84.5248 243.157 88.9248 241.657 92.9248L244.157 92.3248C236.957 90.0248 229.857 87.6248 222.757 85.1248C218.457 83.6248 214.057 82.0248 209.857 80.3248C209.557 80.2248 209.357 80.1248 209.757 80.3248L209.257 80.1248L208.357 79.7248L207.757 79.4248C207.257 79.2248 208.257 79.9248 207.857 79.4248C208.157 79.7248 208.357 80.0248 208.557 80.4248C208.557 80.5248 208.557 81.0248 208.657 80.8248C208.757 80.5248 208.757 80.1248 208.857 79.8248C209.057 78.8248 209.357 77.8248 209.657 76.9248C210.457 74.0248 211.457 71.1248 212.357 68.3248C212.757 67.1248 213.157 65.9248 213.557 64.8248C213.657 64.6248 213.557 64.9248 213.557 64.9248L213.657 64.5248L213.757 64.1248L213.857 63.7248C214.157 62.6248 213.657 61.4248 212.557 60.9248C211.857 60.5248 209.857 60.1248 209.457 61.3248C208.057 65.4248 206.657 69.6248 205.357 73.8248C204.657 75.7248 204.157 77.6248 203.857 79.6248C203.757 81.3248 205.257 82.3248 206.657 83.0248C210.657 84.9248 214.657 86.5248 218.857 87.8248C223.957 89.7248 229.157 91.4248 234.357 93.2248C237.357 94.2248 240.457 95.2248 243.457 96.2248C244.157 96.4248 245.557 96.5248 245.957 95.6248C247.457 91.6248 248.757 87.6248 249.857 83.5248C250.857 80.1248 251.657 76.6248 252.257 73.1248C253.057 69.6248 253.157 66.0248 252.857 62.5248C252.257 59.3248 251.057 56.3248 249.257 53.7248C247.757 51.4248 246.157 49.5248 245.157 47.0248C243.857 43.9248 244.457 40.4248 245.357 37.2248C246.157 34.3248 247.557 31.1248 246.857 28.0248C245.657 23.8248 241.557 21.1248 237.157 21.7248C234.657 22.2248 232.457 23.6248 230.857 25.5248L235.057 27.4248C234.457 25.8248 233.157 24.5248 231.457 24.0248C229.057 23.0248 225.857 22.5248 223.457 23.8248C220.357 25.4248 218.557 29.0248 217.557 32.3248L222.257 33.3248C221.657 30.9248 219.057 29.7248 216.757 29.9248C214.057 30.1248 211.857 32.0248 210.357 34.1248C207.657 38.0248 205.957 42.5248 205.457 47.2248C204.957 51.0248 205.457 54.9248 206.957 58.6248C207.657 60.4248 208.557 62.0248 209.857 63.5248C210.657 64.5248 211.957 64.9248 213.157 64.6248C213.957 64.2248 214.257 63.2248 213.857 62.5248C213.657 61.7248 213.557 61.6248 213.357 61.4248Z" fill="#000005"/>
<path d="M222.157 45.8251C222.057 45.5251 221.957 45.1251 221.857 44.8251C221.757 44.4251 221.657 44.0251 221.557 43.6251C221.457 43.2251 221.557 43.7251 221.557 43.5251L221.457 43.1251C221.457 42.8251 221.357 42.5251 221.357 42.3251C220.957 39.4251 221.257 36.4251 222.157 33.7251C222.457 32.7251 221.357 31.8251 220.557 31.4251C220.057 31.2251 218.057 30.3251 217.757 31.3251C216.757 34.3251 216.457 37.5251 216.857 40.6251C217.057 42.0251 217.357 43.4251 217.857 44.7251C218.457 45.8251 219.457 46.5251 220.657 46.7251C221.257 46.9251 222.557 46.8251 222.157 45.8251Z" fill="#000005"/>
<path d="M230.257 26.4251C229.157 28.3251 228.357 30.4251 227.757 32.5251C226.457 36.5251 226.557 40.9251 228.057 44.9251C228.557 45.9251 229.857 46.4251 230.857 46.0251C231.657 45.8251 233.357 44.8251 232.857 43.7251C230.657 38.3251 231.857 31.9251 234.857 27.1251C235.457 26.1251 234.357 25.1251 233.357 25.0251C232.157 24.8251 230.957 25.3251 230.257 26.4251Z" fill="#000005"/>
<path d="M276.857 39.1249C276.857 39.1249 282.457 41.4249 279.757 46.7249C277.057 52.0249 270.657 48.6249 271.557 43.4249C272.457 38.2249 276.857 39.1249 276.857 39.1249Z" fill="#000005"/>
<path d="M330.057 43.9252C330.057 43.9252 335.657 46.3252 332.957 51.5252C330.257 56.7252 323.857 53.4252 324.757 48.2252C325.657 43.0252 330.057 43.9252 330.057 43.9252Z" fill="#000005"/>
<path d="M179.757 41.325C184.057 42.025 188.457 42.025 192.757 41.425C207.457 39.725 210.457 44.125 206.957 48.125C203.457 52.125 183.757 55.525 183.757 55.525" fill="white"/>
<path d="M180.456 43.125C184.956 43.825 189.456 43.925 193.956 43.325C196.956 42.925 199.956 42.825 202.956 43.125C203.856 43.225 204.656 43.425 205.556 43.725L206.056 43.925C205.556 43.725 206.056 43.925 206.156 44.025C205.856 43.625 206.556 44.425 206.156 44.025C205.956 43.825 206.456 44.425 206.156 44.025C205.556 43.525 206.056 43.925 206.056 43.925C205.556 43.525 206.156 43.725 206.056 43.925C205.956 44.125 206.056 43.825 206.056 43.825C206.056 43.925 206.056 44.025 206.056 44.125C206.056 44.525 206.056 43.725 206.056 44.225C206.056 44.325 206.056 44.425 205.956 44.625C205.856 44.825 205.856 45.125 205.756 45.325C205.156 46.425 204.156 47.325 203.056 47.825C199.456 49.725 195.256 50.725 191.256 51.725C188.356 52.425 185.356 53.025 182.456 53.625C180.056 54.025 183.156 57.725 184.856 57.425C187.656 56.925 190.356 56.325 193.156 55.725C197.556 54.625 202.256 53.625 206.256 51.525C208.856 50.125 211.256 47.425 209.856 44.325C207.756 39.725 201.356 39.125 196.956 39.125C190.956 39.225 184.856 40.625 178.856 39.425C177.756 39.225 177.256 40.025 177.556 40.925C178.256 42.125 179.256 42.925 180.456 43.125Z" fill="#000005"/>
<path d="M172.057 38.9252C172.557 38.8252 172.957 38.8252 173.457 38.9252L173.157 38.8252C173.657 38.9252 174.157 39.0252 174.557 39.2252L174.157 39.0252L174.457 39.2252C174.657 39.3252 175.157 39.6252 175.457 39.3252C175.757 39.0252 175.657 38.6252 175.557 38.3252C175.357 37.7252 175.057 37.2252 174.657 36.7252C174.257 36.2252 173.857 35.8252 173.357 35.5252C172.157 34.8252 170.857 34.5252 169.457 34.6252C169.057 34.6252 168.957 35.0252 169.057 35.3252C169.057 35.5252 169.157 35.8252 169.257 36.0252C169.357 36.3252 169.457 36.5252 169.657 36.8252C169.957 37.4252 170.457 37.8252 170.957 38.2252C171.157 38.7252 171.557 38.8252 172.057 38.9252Z" fill="#000005"/>
<path d="M326.957 4.12509L329.457 1.0251C329.557 0.925101 329.657 0.825092 329.557 0.625092C329.557 0.525092 329.557 0.425104 329.357 0.325104C329.157 0.225104 329.057 0.225098 328.857 0.225098C328.657 0.225098 328.357 0.225104 328.157 0.325104C327.557 0.525104 326.957 0.725101 326.357 1.0251C325.857 1.2251 325.457 1.62509 325.157 1.92509L322.657 5.0251C322.557 5.1251 322.457 5.22509 322.557 5.42509C322.557 5.52509 322.557 5.6251 322.757 5.7251C322.957 5.8251 323.057 5.8251 323.257 5.8251C323.457 5.8251 323.757 5.8251 323.957 5.7251C324.557 5.5251 325.157 5.3251 325.757 5.0251C326.157 4.8251 326.557 4.42509 326.957 4.12509Z" fill="#000005"/>
<path d="M333.156 7.525L343.256 0.725002C343.456 0.625001 343.556 0.324995 343.356 0.124995C343.156 -0.0750046 342.356 0.0250046 342.156 0.0250046C340.956 0.125005 339.856 0.524995 338.956 1.125L328.856 7.925C328.656 8.025 328.556 8.325 328.756 8.525C328.956 8.725 329.756 8.625 329.956 8.625C331.056 8.52499 332.156 8.125 333.156 7.525Z" fill="#000005"/>
<path d="M14.2754 232.361C14.2754 232.361 29.7754 163.361 128.275 130.461C226.775 97.5613 284.975 232.361 284.975 232.361H14.2754Z" fill="#23CF00"/>
<path d="M16.4753 233.261C17.2753 229.861 18.4753 226.561 19.8753 223.361L20.3753 222.261L20.6753 221.661C20.7753 221.461 21.0753 220.761 20.7753 221.461C21.1753 220.561 21.5753 219.661 21.9753 218.861C22.8753 216.861 23.8753 214.961 24.8753 213.061C27.3753 208.461 30.1753 203.961 33.1753 199.661C41.2753 188.261 50.8753 177.961 61.6753 169.061C76.3753 157.061 92.7753 147.261 110.275 139.961C126.675 132.961 143.975 127.061 161.975 127.761C176.075 128.361 189.875 132.061 202.275 138.761C208.375 141.961 214.175 145.761 219.675 149.861C222.375 151.961 224.975 154.061 227.575 156.261C230.175 158.461 232.275 160.461 234.875 163.061C244.075 172.161 252.375 182.161 259.775 192.761C260.675 193.961 261.475 195.161 262.275 196.461L262.475 196.861C262.175 196.461 262.475 196.761 262.475 196.861C262.675 197.161 262.875 197.461 263.075 197.761L264.275 199.561C265.775 201.861 267.275 204.161 268.675 206.461C271.075 210.361 273.475 214.361 275.675 218.461C278.175 223.061 280.575 227.761 282.775 232.561L283.075 233.161L284.575 229.861H24.6753C21.1753 229.861 17.6753 229.761 14.1753 229.861C13.9753 229.861 13.8753 229.861 13.6753 229.861C12.3753 229.861 11.6753 231.461 11.9753 232.561C12.2753 233.861 13.4753 234.661 14.7753 234.661H274.475C277.975 234.661 281.475 234.761 284.975 234.661H285.475C287.175 234.661 287.475 232.561 286.975 231.361C285.475 227.961 283.775 224.561 282.075 221.261C277.675 212.861 272.875 204.661 267.675 196.761C260.675 186.061 252.875 175.961 244.175 166.561C234.775 156.161 224.075 147.061 212.275 139.461C199.975 131.761 186.375 126.061 171.975 123.961C164.475 122.861 156.775 122.661 149.175 123.461C140.575 124.461 131.975 126.361 123.875 129.361C104.175 136.061 85.4753 145.561 68.3753 157.461C55.6753 166.461 44.2753 177.161 34.4753 189.261C27.7753 197.561 22.0753 206.561 17.5753 216.161C15.2753 220.861 13.3753 225.761 11.9753 230.861C11.8753 231.061 11.8753 231.261 11.7753 231.561C11.4753 232.861 12.1753 234.161 13.3753 234.661C14.4753 235.161 15.6753 234.661 16.1753 233.561C16.4753 233.461 16.4753 233.361 16.4753 233.261Z" fill="#23CF00"/>
<path d="M2.07581 235.062H10.9758L32.8758 234.962L64.5758 234.862L103.076 234.762L145.076 234.662L187.376 234.562L226.976 234.462L260.676 234.362L285.176 234.262H297.476H298.276C299.576 234.262 300.676 233.462 301.076 232.262C301.276 231.262 300.576 230.362 299.576 230.262C299.476 230.262 299.276 230.262 299.076 230.262H290.276L268.376 230.362L236.676 230.462L198.176 230.562L156.176 230.662L113.876 230.762L74.2758 230.862L40.5758 230.962L16.0758 231.062H3.77581H2.97581C1.67581 231.062 0.575807 231.862 0.175807 233.062C-0.0241926 234.062 0.675807 234.962 1.67581 235.062C1.77581 235.062 1.87581 235.062 2.07581 235.062Z" fill="#23CF00"/>
<path d="M44.6757 140.062C44.6757 140.062 36.1757 163.362 27.5757 162.062C18.9757 160.762 14.1757 156.062 17.9757 148.662C21.7757 141.262 46.4757 130.062 44.6757 140.062Z" fill="white"/>
<path d="M42.476 139.062C42.476 139.162 42.376 139.162 42.376 139.262C42.376 139.362 42.276 139.462 42.276 139.562C42.276 139.662 42.376 139.262 42.276 139.662C41.976 140.462 41.576 141.262 41.276 142.062C40.276 144.462 39.076 146.862 37.876 149.262C36.476 151.862 34.876 154.362 32.976 156.662C31.476 158.362 29.676 160.162 27.476 160.362C27.776 160.362 27.276 160.362 27.076 160.362C26.776 160.362 26.476 160.262 26.176 160.262C25.276 160.062 24.276 159.862 23.376 159.562C22.576 159.362 21.876 158.962 21.176 158.562C20.676 158.262 20.276 157.862 19.876 157.362C18.176 155.162 18.876 151.762 20.376 149.462C21.776 147.562 23.576 145.862 25.576 144.662C28.076 142.962 30.776 141.462 33.576 140.262C34.976 139.662 36.376 139.162 37.776 138.762C38.476 138.562 39.176 138.362 39.876 138.262L40.876 138.162C41.076 138.162 41.176 138.162 41.376 138.162C41.676 138.162 41.976 138.162 42.176 138.162C42.876 138.162 42.076 138.162 42.576 138.162C42.676 138.162 42.776 138.162 42.876 138.262C43.176 138.362 42.376 138.062 42.776 138.262C43.176 138.462 42.576 138.162 42.376 137.962C42.776 138.362 42.276 137.762 42.176 137.662C42.176 137.762 42.276 137.762 42.276 137.862C42.176 137.962 42.276 137.762 42.276 137.862C42.576 138.162 42.576 138.562 42.476 139.062C42.176 140.962 46.576 143.162 46.976 140.962C47.476 137.862 45.576 135.462 42.676 134.462C40.176 133.662 37.276 134.262 34.776 134.962C28.576 136.762 22.076 140.162 17.676 144.862C15.276 147.262 14.176 150.662 14.676 153.962C15.476 158.162 19.376 161.062 23.176 162.462C26.576 163.662 30.276 164.562 33.476 162.562C36.076 160.762 38.176 158.462 39.776 155.762C42.776 151.162 45.176 146.162 47.076 140.962C47.576 139.262 43.276 136.862 42.476 139.062Z" fill="#000005"/>
<path d="M44.4754 131.161C44.4754 131.161 26.5754 120.561 17.2754 126.061C7.97535 131.561 9.67535 143.961 25.4754 141.761C41.2754 139.561 46.0754 134.461 44.4754 131.161Z" fill="white"/>
<path d="M43.5754 129.162C39.6754 126.862 35.4754 125.062 31.1754 123.762C25.0754 121.962 17.7754 121.262 13.0754 126.362C11.2754 128.162 10.2754 130.562 10.2754 133.062C10.2754 136.162 12.1754 139.162 14.4754 141.262C16.8754 143.262 19.9754 144.362 23.0754 144.262C27.6754 144.162 32.1754 143.362 36.5754 141.962C40.7754 140.662 48.3754 137.762 45.8754 132.062C45.2754 130.962 44.5754 129.562 43.5754 129.162C42.6754 128.862 43.0754 130.062 43.2754 130.462C43.2754 130.562 43.1754 130.362 43.1754 130.162C43.1754 130.262 43.1754 130.462 43.2754 130.562C43.2754 130.762 43.2754 131.062 43.1754 131.262C42.9754 131.962 42.5754 132.562 42.0754 133.062C40.3754 134.762 38.2754 135.962 35.9754 136.662C32.0754 138.062 28.0754 139.062 23.8754 139.562C20.7754 139.962 17.2754 139.962 14.4754 138.562C13.9754 138.362 13.5754 138.062 13.1754 137.662C13.4754 137.962 12.7754 137.262 13.0754 137.562C13.1754 137.662 13.4754 138.062 13.2754 137.762C13.0754 137.462 13.4754 138.162 13.2754 137.762C13.2754 137.862 13.4754 138.062 13.2754 137.762C13.2754 137.662 13.1754 137.462 13.1754 137.362C13.0754 136.862 13.0754 136.362 13.0754 135.862C13.2754 133.562 14.3754 131.462 15.9754 129.962C20.4754 125.562 26.8754 125.962 32.5754 127.562C37.0754 128.762 41.2754 130.662 45.2754 132.962C46.1754 133.562 45.6754 131.962 45.5754 131.662C45.2754 130.762 44.4754 129.862 43.5754 129.162Z" fill="#000005"/>
<path d="M48.9758 126.561C48.9758 126.561 33.5758 104.561 26.8758 105.461C20.1758 106.361 17.3758 111.461 20.5758 118.261C23.7758 125.061 41.4758 132.061 45.7758 130.261C50.0758 128.461 48.9758 126.561 48.9758 126.561Z" fill="white"/>
<path d="M51.2755 126.462C48.8755 123.062 46.2755 119.762 43.5755 116.562C41.4755 114.062 39.1755 111.662 36.7755 109.462C34.7755 107.462 32.3755 105.862 29.6755 104.862C26.1755 103.762 22.3755 104.462 19.4755 106.762C16.4755 109.162 16.2755 113.262 17.4755 116.662C18.6755 120.062 20.9755 122.262 23.7755 124.262C27.0755 126.462 30.6755 128.362 34.4755 129.662C37.8755 130.962 41.7755 132.162 45.4755 131.862C47.4755 131.762 49.2755 130.862 50.6755 129.462C51.3755 128.762 51.6755 127.762 51.3755 126.862C50.6755 125.962 49.6755 125.462 48.5755 125.462C48.1755 125.462 46.0755 125.562 46.5755 126.462C46.6755 126.562 46.6755 126.862 46.6755 126.662C46.6755 127.062 46.4755 127.462 46.2755 127.762C45.6755 128.362 44.9755 128.862 44.1755 129.162C44.0755 129.162 43.3755 129.462 43.9755 129.262L43.6755 129.362C43.1755 129.562 43.7755 129.362 43.3755 129.362H42.9755C42.6755 129.362 43.3755 129.362 43.0755 129.362L42.2755 129.262C41.6755 129.262 42.4755 129.362 41.8755 129.262L40.7755 129.062C39.4755 128.762 38.1755 128.362 36.8755 127.962C33.8755 126.962 30.9755 125.562 28.2755 123.762C26.0755 122.362 23.7755 120.662 22.7755 118.162C21.4755 115.162 20.9755 111.462 23.3755 108.862C24.4755 107.762 25.8755 107.062 27.3755 106.762C27.6755 106.662 27.9755 106.662 28.0755 106.662C28.0755 106.662 27.4755 106.562 27.8755 106.662C28.0755 106.662 28.2755 106.762 27.6755 106.662C28.2755 106.762 27.3755 106.662 27.7755 106.662C27.8755 106.662 27.9755 106.762 28.0755 106.762C27.7755 106.662 28.4755 106.862 28.0755 106.762C28.9755 107.162 29.7755 107.662 30.4755 108.262C31.4755 109.062 32.4755 109.862 33.3755 110.762C35.4755 112.762 37.3755 114.862 39.2755 117.162C41.8755 120.262 44.4755 123.562 46.7755 126.862C47.3755 127.762 49.0755 128.062 50.0755 127.962C50.8755 127.762 51.8755 127.362 51.2755 126.462Z" fill="#000005"/>
<path d="M53.3756 124.061C53.3756 124.061 56.8756 93.2614 47.4756 91.3614C38.0756 89.4614 32.7756 95.4614 35.3756 105.261C37.9756 115.061 47.1756 125.461 49.9756 125.761C52.7756 126.061 53.3756 124.061 53.3756 124.061Z" fill="white"/>
<path d="M55.2755 125.261C55.6755 121.461 55.8755 117.761 55.9755 113.961C56.0755 107.961 55.9755 101.161 53.4755 95.5613C52.2755 92.9613 50.4755 90.4613 47.7755 89.4613C44.2755 88.1613 40.2755 88.5613 37.0755 90.4613C34.0755 92.4613 32.8755 96.0613 32.9755 99.5613C33.0755 104.561 35.1755 109.361 37.5755 113.561C39.9755 118.061 43.0755 122.061 46.8755 125.361C48.0755 126.361 49.4755 127.561 51.0755 127.661C52.6755 127.761 54.6755 127.161 55.3755 125.561C56.0755 123.961 52.5755 120.461 51.7755 122.261C51.1755 123.061 50.1755 123.461 49.1755 123.361C49.0755 123.361 48.7755 123.361 49.2755 123.361L49.0755 123.261C49.0755 123.261 48.5755 122.961 49.1755 123.261L48.8755 123.061C48.7755 122.961 48.1755 122.561 48.5755 122.861C48.2755 122.661 47.9755 122.361 47.6755 122.061C46.4755 120.961 45.3755 119.761 44.3755 118.461C43.1755 116.861 41.9755 115.161 40.9755 113.461C37.9755 108.361 33.7755 98.7613 40.0755 94.2613C41.2755 93.4613 42.6755 93.0613 44.1755 92.9613C44.9755 92.8613 45.7755 92.8613 46.4755 92.9613C46.8755 92.9613 47.3755 93.0613 47.7755 93.1613C47.9755 93.1613 48.2755 93.2613 48.5755 93.2613C48.2755 93.1613 48.8755 93.2613 48.5755 93.2613C48.6755 93.2613 49.2755 93.5613 48.9755 93.4613C48.6755 93.3613 49.5755 93.8613 49.0755 93.5613C48.5755 93.2613 49.2755 93.7613 49.3755 93.8613C48.8755 93.4613 49.2755 93.7613 49.4755 94.0613C49.8755 94.4613 49.2755 93.6613 49.5755 94.2613L49.8755 94.8613C49.8755 94.9613 50.0755 95.2613 49.8755 94.7613C49.8755 94.8613 49.9755 94.9613 50.0755 95.0613C50.1755 95.3613 50.2755 95.6613 50.4755 95.9613C50.6755 96.2613 50.6755 96.4613 50.7755 96.7613L50.8755 97.1613C50.7755 96.8613 50.8755 97.1613 50.8755 97.2613C51.0755 97.9613 51.1755 98.6613 51.3755 99.2613C51.6755 100.561 51.7755 101.961 51.9755 103.361C52.2755 106.061 52.3755 108.761 52.2755 111.461C52.2755 115.161 52.0755 118.961 51.6755 122.661C51.6755 123.861 52.3755 125.061 53.4755 125.661C54.0755 126.161 55.1755 126.361 55.2755 125.261Z" fill="#000005"/>
<path d="M57.6758 124.161C57.6758 124.161 76.2758 106.861 74.0758 101.061C71.8758 95.2614 64.0758 93.3614 60.1758 95.9614C56.2758 98.5614 50.3758 122.361 53.4758 123.961C56.5758 125.561 57.6758 124.161 57.6758 124.161Z" fill="white"/>
<path d="M59.1761 126.062C62.5761 122.962 65.6761 119.562 68.6761 116.062C70.8761 113.562 72.8761 110.862 74.5761 107.962C75.8761 105.562 76.7761 102.862 75.7761 100.162C73.9762 96.0615 70.1761 93.1615 65.7761 92.5615C62.7761 92.0615 59.1761 92.6615 57.3761 95.2615C55.7761 97.6615 54.6761 100.362 53.8761 103.162C52.7761 106.662 51.8761 110.162 51.1761 113.762C50.6761 116.762 49.9761 120.162 50.7761 123.162C51.1761 124.862 52.4761 126.262 54.1761 126.762C55.6761 127.262 58.0761 127.562 59.1761 126.062C59.8761 125.062 59.7761 123.662 58.8761 122.662C58.2761 121.862 56.7761 121.162 55.9761 122.262C55.7761 122.462 55.8761 122.362 55.9761 122.262C56.3761 121.962 55.5761 122.362 55.8761 122.362C55.1761 122.362 54.5761 122.162 53.9761 121.862C53.3761 121.662 54.3761 122.262 54.4761 122.362L54.3761 122.262C54.3761 122.262 54.7761 122.862 54.5761 122.562C54.3761 122.262 54.7761 122.662 54.6761 122.862L54.5761 122.462V122.362L54.6761 122.762C54.6761 122.662 54.6761 122.462 54.6761 122.362C54.6761 121.862 54.5761 121.462 54.5761 120.962C54.5761 120.862 54.5761 119.962 54.5761 120.462C54.5761 120.162 54.5761 119.862 54.6761 119.562C54.7761 118.162 54.9761 116.862 55.2761 115.462C56.2761 109.962 57.6761 104.362 60.3761 99.4615C60.4761 99.3615 60.7761 98.7615 60.4761 99.2615C60.5761 99.0615 60.6761 98.9615 60.7761 98.7615C60.8762 98.5615 60.9761 98.4615 61.0761 98.3615C61.1761 98.2615 61.1761 98.2615 61.2761 98.1615C61.3762 98.0615 60.8761 98.3615 61.1761 98.2615C62.3761 97.5615 63.7761 97.2615 65.1761 97.3615C66.6761 97.4615 68.0761 97.8615 69.2761 98.5615C69.8762 98.9615 70.4761 99.3615 70.9761 99.9615C71.3761 100.462 71.6761 100.962 71.9761 101.562C71.9761 101.662 71.9761 101.762 72.0761 101.762C72.1761 102.062 71.8761 101.162 72.0761 101.562C72.0761 101.762 72.0761 102.262 72.0761 101.662C72.0761 101.862 72.0761 102.062 71.9761 102.262C71.8761 102.462 71.6761 103.162 71.8761 102.662C71.4761 103.762 70.9761 104.762 70.3761 105.762C68.8761 108.162 67.1761 110.362 65.3761 112.462C62.3761 115.962 59.2761 119.262 55.9761 122.362C54.2761 123.962 57.1761 127.962 59.1761 126.062Z" fill="#000005"/>
<path d="M56.9754 135.361C56.9754 135.361 45.1754 143.561 42.9754 140.761C40.7754 137.961 41.9754 127.261 51.1754 123.461C60.3754 119.661 60.8754 127.761 56.9754 135.361Z" fill="white"/>
<path d="M55.876 133.062C53.776 134.562 51.576 135.862 49.276 137.062C48.476 137.462 47.676 137.862 46.776 138.162C46.376 138.262 45.976 138.462 45.576 138.562L44.976 138.762C44.676 138.862 44.876 138.762 44.976 138.762L44.676 138.862C44.376 138.962 44.076 138.962 43.776 138.962H43.376C43.976 138.962 43.476 138.962 43.276 138.862C43.276 138.862 43.776 139.062 43.476 138.962C43.176 138.862 43.376 138.862 43.576 139.062C43.576 139.062 43.976 139.562 43.876 139.362C43.576 138.962 44.176 139.962 43.976 139.562L43.876 139.362C43.676 138.962 43.976 139.662 43.976 139.662C43.876 139.362 43.776 139.062 43.776 138.762C43.776 138.562 43.676 138.362 43.676 138.162C43.676 137.962 43.676 137.762 43.676 137.562C43.676 136.962 43.676 137.762 43.676 137.362C43.676 136.962 43.776 136.462 43.876 136.062C44.176 134.362 44.776 132.662 45.676 131.162C46.876 129.262 48.476 127.762 50.376 126.662C51.476 125.962 52.776 125.462 53.976 125.162C54.476 125.062 54.876 124.962 55.376 124.962H55.976H56.276C55.876 124.962 56.376 124.962 56.476 124.962C56.576 124.962 57.176 125.162 56.876 125.062C56.576 124.962 57.176 125.262 57.276 125.262C57.376 125.262 56.876 124.962 57.176 125.162C57.276 125.262 57.476 125.562 57.276 125.162C57.476 125.662 57.176 124.962 57.176 124.962L57.276 125.262C57.476 125.662 57.176 124.762 57.276 125.062C57.376 125.362 57.376 125.562 57.476 125.762C57.276 125.062 57.476 125.862 57.476 126.062C57.476 126.262 57.476 126.962 57.476 126.462C57.276 128.962 56.576 131.462 55.276 133.662C54.376 135.462 57.376 139.262 58.576 136.862C60.776 132.462 62.776 125.662 58.676 121.662C56.776 119.762 54.076 119.862 51.676 120.562C48.876 121.362 46.476 122.862 44.476 124.962C41.276 128.462 39.776 133.062 40.276 137.762C40.576 139.862 41.376 142.262 43.376 143.262C45.076 144.062 46.976 143.362 48.576 142.762C51.876 141.462 54.976 139.762 57.876 137.662C58.676 136.862 58.876 135.662 58.276 134.662C58.076 133.962 56.876 132.462 55.876 133.062Z" fill="#000005"/>
<path d="M70.6759 179.161C70.6759 177.161 70.4759 175.161 69.8759 173.161C69.1759 169.861 68.4759 166.561 67.5759 163.361C65.8759 156.261 63.6759 149.161 61.1759 142.261C60.3759 140.061 59.3759 137.361 57.5759 135.761C56.8759 135.161 55.3759 134.261 54.4759 134.861C53.5759 135.461 54.2759 136.761 54.8759 137.361C55.2759 137.661 54.6759 137.061 54.7759 137.261C54.8759 137.361 54.9759 137.561 55.0759 137.661L55.1759 137.861C55.3759 138.261 54.9759 137.361 55.1759 137.761L55.4759 138.361C55.9759 139.361 56.4759 140.461 56.8759 141.461C58.0759 144.361 58.9759 147.361 59.9759 150.361C61.9759 157.061 63.8759 163.761 65.2759 170.661C65.5759 172.061 65.8759 173.461 66.0759 174.861C66.1759 175.361 66.1759 175.861 66.2759 176.361C66.2759 176.561 66.2759 176.761 66.2759 176.961C66.2759 177.161 66.2759 176.661 66.2759 177.061C66.3759 178.261 67.0759 179.261 68.1759 179.661C68.8759 179.961 70.5759 180.361 70.6759 179.161Z" fill="#000005"/>
<path d="M49.3754 134.062C50.4754 134.062 50.6754 133.062 50.1754 132.262C49.3754 131.262 48.1754 130.762 46.9754 130.762C45.8754 130.762 45.6754 131.762 46.1754 132.562C46.9754 133.562 48.1754 134.062 49.3754 134.062Z" fill="#000005"/>
<path d="M52.2762 128.361C52.4762 128.461 52.7762 128.061 52.5762 127.861C52.3762 127.861 52.1762 127.961 52.0762 128.061" fill="white"/>
<path d="M53.2754 130.462C53.3754 130.462 53.4754 130.462 53.5754 130.462H53.6754L53.7754 130.362C53.8754 130.262 53.8754 130.262 53.9754 130.162V130.062C53.9754 129.962 53.9754 129.862 53.9754 129.762C53.9754 129.762 53.9754 129.762 53.9754 129.662C53.9754 129.562 53.9754 129.362 53.8754 129.262C53.8754 129.062 53.7754 128.962 53.6754 128.762L53.4754 128.262L53.1754 127.662C53.0754 127.462 52.9754 127.262 52.7754 127.062L52.3754 126.562C52.2754 126.462 52.1754 126.262 51.9754 126.162C51.7754 125.962 51.5754 125.862 51.3754 125.762H51.2754H50.9754C50.8754 125.762 50.6754 125.862 50.5754 125.962C50.4754 126.062 50.3754 126.162 50.3754 126.262C50.3754 126.462 50.3754 126.662 50.3754 126.862C50.4754 127.162 50.5754 127.362 50.6754 127.662C50.7754 127.962 50.9754 128.262 51.0754 128.562L51.4754 129.062C51.6754 129.362 51.9754 129.662 52.2754 129.862L52.5754 130.062C52.6754 130.162 52.8754 130.162 53.0754 130.162C53.1754 130.062 53.3754 130.062 53.4754 129.962H53.2754H53.3754L52.3754 129.262L51.9754 128.762L51.5754 128.162L51.2754 127.562L51.0754 127.062L50.8754 126.562L50.7754 126.162V126.262V125.962C50.7754 126.062 50.7754 126.062 50.6754 126.162L50.7754 125.962C50.6754 126.062 50.6754 126.062 50.5754 126.062H50.7754H50.6754C50.5754 126.062 50.4754 126.062 50.3754 126.162C50.2754 126.262 50.2754 126.462 50.2754 126.562C50.2754 126.762 50.3754 127.062 50.3754 127.262C50.4754 127.562 50.5754 127.762 50.6754 128.062L50.9754 128.662C51.1754 129.062 51.4754 129.362 51.7754 129.662L52.1754 130.062C52.3754 130.262 52.5754 130.362 52.7754 130.462H53.2754Z" fill="#000005"/>
<path d="M52.7754 134.962C55.7754 134.962 54.4754 130.262 51.9754 130.262C48.9754 130.262 50.2754 134.962 52.7754 134.962Z" fill="#000005"/>
<path d="M64.9763 152.961C64.6763 149.761 65.1763 146.461 66.5763 143.561C66.9763 142.361 67.8763 141.261 68.9763 140.661C70.5763 140.061 72.2763 140.661 73.2763 141.961C74.1763 143.361 74.4763 144.961 74.0763 146.561C73.6763 148.161 72.9763 149.561 71.9763 150.861C71.1763 151.961 70.3763 153.061 69.3763 154.061C68.4763 155.061 67.1763 156.061 65.9763 155.561" fill="white"/>
<path d="M67.2755 153.061C67.0755 150.361 67.3755 147.761 68.3755 145.261C68.5755 144.661 68.8755 144.061 69.2755 143.561C69.0755 143.861 69.5755 143.261 69.6755 143.161C69.8755 142.961 69.8755 142.961 69.6755 143.061C69.7755 142.961 69.8755 142.861 70.0755 142.861C70.2755 142.861 70.3755 142.761 70.0755 142.861L70.4755 142.761C69.8755 142.861 71.0755 142.961 70.4755 142.761C70.5755 142.761 70.7755 142.861 70.8755 142.861C70.5755 142.761 70.5755 142.761 70.8755 142.861L71.2755 143.061C70.9755 142.861 71.0755 142.861 71.2755 143.061C71.4755 143.261 71.5755 143.261 71.2755 143.061C71.3755 143.161 71.4755 143.361 71.5755 143.461V143.561C71.6755 143.661 71.6755 143.861 71.7755 144.061C71.8755 144.361 71.8755 144.361 71.7755 144.161C71.7755 144.361 71.7755 144.461 71.7755 144.661C71.7755 144.861 71.7755 144.961 71.7755 145.161C71.7755 144.961 71.7755 145.061 71.7755 145.261C71.5755 146.461 71.0755 147.661 70.3755 148.661C69.6755 149.761 68.8755 150.861 67.9755 151.761C67.5755 152.261 67.0755 152.761 66.5755 153.261C66.7755 153.061 66.1755 153.461 66.0755 153.561C66.1755 153.461 66.2755 153.461 66.3755 153.561H66.2755C65.1755 153.161 63.9755 153.761 63.5755 154.861C63.5755 154.961 63.5755 154.961 63.4755 155.061C63.2755 156.361 64.0755 157.661 65.3755 158.061C68.7755 159.061 71.1755 155.961 72.9755 153.561C74.7755 151.161 76.4755 148.361 76.3755 145.161C76.3755 141.961 74.1755 139.161 71.0755 138.361C69.5755 137.961 67.9755 138.261 66.7755 139.161C65.6755 140.161 64.7755 141.361 64.2755 142.761C62.8755 145.961 62.3755 149.461 62.6755 152.961C62.7755 154.261 63.8755 155.361 65.1755 155.461C66.2755 155.561 67.2755 154.661 67.3755 153.461C67.3755 153.261 67.3755 153.161 67.2755 153.061Z" fill="#000005"/>
<path d="M149.076 233.861C165.976 218.161 183.376 202.961 201.176 188.161C206.276 183.961 211.376 179.761 216.476 175.661C217.576 174.761 214.976 170.661 214.276 171.161C196.276 185.661 178.676 200.561 161.376 215.961C156.476 220.361 151.676 224.761 146.776 229.261C145.876 230.361 148.576 234.361 149.076 233.861Z" fill="white"/>
<path d="M144.876 128.561C144.676 132.361 144.476 136.261 144.276 140.061C143.876 147.861 143.476 155.661 142.976 163.361C142.476 172.561 141.976 181.661 141.476 190.761L140.176 214.961C139.976 219.461 139.676 223.961 139.476 228.361V228.861C139.376 230.561 144.076 232.361 144.076 230.361C144.276 226.561 144.476 222.661 144.676 218.861C145.076 211.061 145.476 203.261 145.976 195.561C146.476 186.361 146.976 177.261 147.476 168.161C147.876 160.061 148.376 152.061 148.776 143.961C148.976 139.461 149.276 134.961 149.476 130.561C149.476 130.361 149.476 130.161 149.476 130.061C149.576 128.361 144.976 126.561 144.876 128.561Z" fill="white"/>
<path d="M84.1759 155.062L127.976 190.762L140.376 200.862C140.976 201.362 142.376 200.562 142.876 200.262C143.076 200.162 145.276 198.962 144.876 198.662L101.176 162.962L88.7759 152.862C88.1759 152.362 86.7759 153.162 86.2759 153.462C86.1759 153.662 83.9759 154.862 84.1759 155.062Z" fill="white"/>
<path d="M48.776 199.261C61.476 206.561 73.876 214.661 85.776 223.261C89.476 225.961 93.176 228.761 96.776 231.661C97.576 232.261 99.076 232.961 100.076 232.561C101.076 232.161 100.376 231.361 99.776 230.861C87.976 221.561 75.576 212.961 62.776 205.061C58.776 202.561 54.776 200.161 50.676 197.861C49.976 197.461 48.276 196.761 47.576 197.361C46.876 197.961 48.276 198.961 48.776 199.261Z" fill="white"/>
<path d="M90.1761 191.862C88.0761 203.162 87.1761 214.662 87.5761 226.262C87.6761 228.062 92.1761 226.262 92.1761 224.562C91.7761 213.062 92.6761 201.562 94.7761 190.162C94.9761 189.062 92.9761 189.462 92.5761 189.662C91.3761 189.962 90.4761 190.762 90.1761 191.862Z" fill="white"/>
<path d="M284.476 231.661C284.976 229.161 285.976 226.861 287.376 224.761C288.676 222.661 290.576 220.861 292.776 219.661L293.476 219.461C292.876 219.061 292.676 219.061 292.976 219.261L293.176 219.461C293.376 219.861 293.776 220.261 294.076 220.661C294.676 221.661 295.076 222.861 295.176 224.061C295.376 226.661 294.376 229.261 292.476 231.061L296.376 232.861C295.376 231.361 296.276 229.161 297.276 227.961C298.376 226.561 299.876 225.461 301.576 224.961C303.876 224.161 307.676 223.961 309.376 225.861C310.176 226.761 311.176 227.461 312.376 227.761C313.176 227.961 313.676 227.561 312.976 226.761C309.476 222.961 304.176 220.561 298.976 221.661C294.476 222.561 289.576 227.361 292.776 231.961C293.276 232.661 295.776 234.661 296.676 233.761C302.076 228.361 298.876 219.761 292.276 216.961C290.776 216.261 289.076 216.461 287.776 217.461C286.476 218.361 285.376 219.461 284.276 220.561C282.176 223.061 280.676 226.161 280.076 229.461C279.976 230.561 284.176 232.861 284.476 231.661Z" fill="#000005"/>
</svg>
