<svg width="259" height="50" viewBox="0 0 259 50" fill="none" xmlns="http://www.w3.org/2000/svg">
<path d="M19.4105 29.3348C18.6579 28.3026 17.8623 27.4532 17.8623 25.5287V19.1423C17.8623 16.4221 18.0558 13.9385 16.056 12.0677C14.4863 10.5625 11.8736 10.0249 9.87384 10.0249C5.97102 10.0249 1.60587 11.4871 0.69199 16.3146C0.595226 16.8199 0.971531 17.0887 1.30483 17.1747L5.28292 17.6048C5.65922 17.5833 5.92801 17.2177 6.00327 16.8522C6.34732 15.1857 7.73428 14.3793 9.30401 14.3793C10.1534 14.3793 11.1103 14.7019 11.6048 15.4437C12.1854 16.2931 12.1102 17.4435 12.1102 18.4219V18.9595C9.72332 19.2175 6.61611 19.4003 4.37978 20.3787C3.04973 20.9123 1.91621 21.8424 1.1333 23.0428C0.350394 24.2431 -0.0439424 25.6554 0.00388915 27.0877C0.00388915 31.3561 2.69178 33.4849 6.15379 33.4849C9.07822 33.4849 10.6695 32.7968 12.9273 30.5067C13.6691 31.5818 13.9057 32.1194 15.2711 33.2483C15.4244 33.3303 15.5989 33.3639 15.7716 33.3447C15.9444 33.3255 16.1072 33.2544 16.2388 33.1408L19.3997 30.4314C19.7438 30.1519 19.6793 29.7111 19.4105 29.3348ZM12.0994 23.1311C12.0994 24.7438 12.1424 26.0663 11.3468 27.4962C10.691 28.6467 9.64806 29.3563 8.49764 29.3563C6.91716 29.3563 6.00327 28.1521 6.00327 26.3781C6.00327 22.8838 9.13198 22.2495 12.1102 22.2495L12.0994 23.1311ZM73.2437 29.3348C72.491 28.3026 71.6954 27.4532 71.6954 25.5287V19.1423C71.6954 16.4221 71.889 13.9385 69.8892 12.0677C68.3087 10.5625 65.696 10.0249 63.707 10.0249C59.7934 10.0249 55.4283 11.4871 54.5252 16.3146C54.4176 16.8199 54.8047 17.0995 55.138 17.1747L59.1161 17.6048C59.4816 17.5833 59.7612 17.2177 59.8257 16.8522C60.1697 15.1857 61.5674 14.3793 63.1264 14.3793C63.9758 14.3793 64.9327 14.7019 65.4273 15.4437C66.0078 16.2931 65.9326 17.4435 65.9326 18.4219V18.9595C63.5565 19.2283 60.4385 19.4003 58.2129 20.3787C56.88 20.9092 55.7433 21.8384 54.9581 23.0391C54.173 24.2399 53.7777 25.6538 53.8263 27.0877C53.8263 31.3561 56.5142 33.4849 59.9762 33.4849C62.9006 33.4849 64.4919 32.7968 66.7497 30.5067C67.4916 31.5818 67.7388 32.1194 69.1043 33.2483C69.2572 33.3318 69.432 33.3662 69.6051 33.347C69.7781 33.3277 69.9411 33.2558 70.0719 33.1408V33.1516C70.8998 32.4205 72.3943 31.1303 73.2329 30.4314C73.5555 30.1519 73.5232 29.7111 73.2437 29.3348ZM65.1692 27.4962C64.5134 28.6467 63.4705 29.3563 62.32 29.3563C60.7396 29.3563 59.8257 28.1521 59.8257 26.3781C59.8257 22.8838 62.9651 22.2495 65.9326 22.2495V23.1418C65.9326 24.7438 65.9756 26.0663 65.1692 27.4962ZM120.647 33.1946H116.551C116.357 33.1838 116.174 33.1005 116.038 32.961C115.903 32.8216 115.825 32.6363 115.82 32.442L115.809 11.3689C115.828 11.175 115.919 10.9954 116.065 10.8659C116.21 10.7363 116.399 10.6664 116.594 10.67H120.4C120.57 10.6747 120.734 10.7351 120.866 10.842C120.998 10.9488 121.091 11.0962 121.131 11.2613V14.4868H121.217C122.368 11.6054 123.97 10.2292 126.808 10.2292C127.754 10.1823 128.696 10.3862 129.538 10.8205C130.38 11.2548 131.093 11.9039 131.603 12.7021C132.678 14.4008 132.678 17.2285 132.678 19.2713V32.5387C132.647 32.7257 132.55 32.8951 132.403 33.0156C132.257 33.1362 132.072 33.1997 131.883 33.1946H127.765C127.586 33.1867 127.415 33.117 127.282 32.9974C127.149 32.8779 127.061 32.7157 127.034 32.5387V21.0883C127.034 18.7875 127.303 15.4222 124.475 15.4222C123.959 15.4417 123.46 15.6106 123.038 15.9083C122.616 16.2061 122.29 16.6199 122.099 17.0995C121.592 18.3655 121.369 19.7268 121.443 21.0883V32.442C121.435 32.6464 121.347 32.8394 121.198 32.98C121.05 33.1205 120.852 33.1975 120.647 33.1946ZM103.348 10.2292C109.444 10.2292 112.734 15.4652 112.734 22.1097C112.734 28.5391 109.1 33.6461 103.348 33.6461C97.3702 33.6461 94.1017 28.4101 94.1017 21.8947C94.1017 15.3362 97.4025 10.2292 103.348 10.2292ZM103.391 14.5298C100.359 14.5298 100.166 18.6584 100.166 21.2281C100.166 23.7977 100.123 29.2918 103.348 29.2918C106.531 29.2918 106.681 24.8621 106.681 22.1635C106.749 20.28 106.542 18.3967 106.068 16.5726C105.606 15.1104 104.692 14.5298 103.38 14.5298M27.4634 33.1946H23.3563C23.1707 33.188 22.9936 33.1148 22.8574 32.9885C22.7212 32.8622 22.635 32.6911 22.6145 32.5065V11.4334C22.6145 11.0033 22.98 10.6808 23.4101 10.6808H27.2376C27.6355 10.6915 27.958 11.0033 27.9903 11.3796V14.132H28.0655C29.0547 11.4656 30.9362 10.2292 33.4628 10.2292C36.0324 10.2292 37.6452 11.4656 38.7956 14.132C39.2036 12.9644 39.9725 11.9568 40.9912 11.2552C42.0098 10.5535 43.2253 10.1942 44.4617 10.2292C46.1819 10.2292 48.0635 10.9388 49.2139 12.53C50.5256 14.304 50.2568 16.8844 50.2568 19.1423V32.442C50.2568 32.8613 49.8912 33.1946 49.4612 33.1946H45.3541C45.1591 33.1863 44.9747 33.1038 44.8387 32.9638C44.7027 32.8238 44.6255 32.6371 44.623 32.442V21.2603C44.623 20.3787 44.6982 18.1639 44.5047 17.3252C44.1929 15.906 43.279 15.4975 42.0856 15.4975C41.5526 15.5151 41.0364 15.6885 40.6008 15.9961C40.1652 16.3037 39.8292 16.7321 39.6342 17.2285C39.2042 18.3036 39.2579 20.0669 39.2579 21.2711V32.442C39.2579 32.872 38.9031 33.1946 38.4623 33.1946H34.3552C34.1611 33.1838 33.9781 33.1005 33.8427 32.961C33.7072 32.8216 33.6292 32.6363 33.6241 32.442V21.2603C33.6241 18.9165 34.0004 15.4545 31.0867 15.4545C28.1408 15.4545 28.2483 18.8305 28.2483 21.2603V32.442C28.2484 32.5436 28.2279 32.6441 28.1881 32.7376C28.1483 32.8311 28.0899 32.9156 28.0166 32.9859C27.9432 33.0562 27.8564 33.1109 27.7614 33.1468C27.6663 33.1827 27.5649 33.1989 27.4634 33.1946ZM76.6949 14.3901V11.3796C76.6949 11.18 76.7742 10.9886 76.9153 10.8474C77.0565 10.7063 77.2479 10.627 77.4475 10.627H90.9623C91.3923 10.627 91.7364 10.928 91.7364 11.3796V13.96C91.7364 14.3901 91.3708 14.9599 90.7257 15.8523L83.7372 25.8405C86.3176 25.776 89.07 26.163 91.4353 27.4855C91.9622 27.7865 92.1019 28.2381 92.1449 28.6682V31.8829C92.1449 32.3129 91.6611 32.829 91.1558 32.571C88.9486 31.4354 86.5017 30.8447 84.0195 30.8485C81.5373 30.8522 79.0922 31.4502 76.8884 32.5925C76.4261 32.8398 75.9315 32.3344 75.9315 31.8936V28.8402C75.9315 28.3564 75.9316 27.5177 76.4369 26.7759L84.5328 15.1534H77.4798C77.3792 15.1563 77.279 15.139 77.1852 15.1024C77.0913 15.0659 77.0058 15.0109 76.9336 14.9407C76.8615 14.8706 76.8041 14.7866 76.7649 14.6939C76.7258 14.6011 76.7056 14.5015 76.7057 14.4008M85.4897 37.6242C84.5006 36.3663 78.9743 37.0329 76.4799 37.3232C75.7273 37.4199 75.6198 36.7641 76.2971 36.2803C80.7053 33.1838 87.9411 34.0762 88.7689 35.1191C89.6291 36.162 88.5539 43.4086 84.4145 46.8706C83.7802 47.4082 83.1781 47.1179 83.4577 46.419C84.393 44.0967 86.4681 38.8929 85.4897 37.6242ZM82.275 41.2905C74.5661 46.9781 63.3952 49.9993 53.7725 49.9993C40.9155 50.0667 28.4965 45.3314 18.9482 36.7211C18.2278 36.076 18.8729 35.1836 19.7438 35.6782C30.3512 41.7437 42.3598 44.9311 54.5789 44.9245C63.1264 44.9245 72.5126 43.1505 81.1568 39.4842C82.4578 38.9467 83.5544 40.3444 82.275 41.2905ZM249.247 33.8397C245.57 33.8397 242.753 32.829 240.775 30.8185C238.807 28.7972 237.818 25.905 237.818 22.142C237.818 18.2929 238.829 15.2609 240.839 13.0676C242.861 10.8743 245.656 9.77763 249.247 9.77763C251.999 9.77763 254.161 10.4442 255.719 11.7774C257.278 13.1214 258.053 14.8954 258.053 17.121C258.107 18.1091 257.904 19.0944 257.463 19.9803C257.022 20.8662 256.358 21.6222 255.537 22.1742C253.859 23.3031 251.397 23.873 248.14 23.873C246.452 23.873 244.979 23.7117 243.731 23.3891C243.914 25.3782 244.516 26.7974 245.538 27.6575C246.559 28.5176 248.107 28.9477 250.182 28.9477C251.01 28.9477 251.817 28.8939 252.602 28.7864C253.386 28.6789 254.483 28.4639 255.87 28.0983C256.03 28.0461 256.196 28.0171 256.365 28.0123C256.87 28.0123 257.117 28.3564 257.117 29.0337V31.0765C257.117 31.5603 257.053 31.8936 256.924 32.0764C256.718 32.3215 256.445 32.501 256.139 32.5925C253.942 33.4285 251.609 33.8513 249.258 33.8397M247.785 19.8734C249.29 19.8734 250.387 19.6476 251.075 19.1853C251.752 18.7229 252.096 18.0241 252.096 17.0779C252.096 15.2072 250.978 14.2825 248.763 14.2825C245.914 14.2825 244.269 16.0243 243.817 19.5186C245 19.7551 246.323 19.8734 247.785 19.8734ZM200.284 33.1731C199.908 33.1731 199.618 33.0871 199.446 32.9043C199.263 32.7323 199.177 32.442 199.177 32.0657V11.5624C199.177 11.1431 199.263 10.8528 199.446 10.7023C199.618 10.5302 199.908 10.455 200.295 10.455H203.488C204.176 10.455 204.585 10.7775 204.735 11.4226L205.09 12.6268C206.41 11.7202 207.836 10.9799 209.337 10.4227C210.595 9.99266 211.896 9.77763 213.229 9.77763C215.896 9.77763 217.777 10.7345 218.874 12.6268C220.379 11.6162 221.809 10.8958 223.142 10.455C224.475 10.0034 225.862 9.78838 227.282 9.78838C229.357 9.78838 230.959 10.3582 232.109 11.5086C233.249 12.6698 233.819 14.2933 233.819 16.3683V32.0657C233.819 32.442 233.733 32.7323 233.571 32.9043C233.41 33.0871 233.12 33.1731 232.711 33.1731H228.432C228.056 33.1731 227.765 33.0871 227.593 32.9043C227.411 32.7323 227.325 32.442 227.325 32.0657V17.7876C227.325 15.7663 226.421 14.7664 224.615 14.7664C223.002 14.7664 221.39 15.1534 219.766 15.9168V32.0657C219.766 32.4527 219.68 32.7323 219.519 32.9043C219.358 33.0871 219.067 33.1731 218.659 33.1731H214.39C214.003 33.1731 213.724 33.0871 213.53 32.9043C213.358 32.7323 213.272 32.4527 213.272 32.0657V17.7876C213.272 15.7663 212.369 14.7664 210.563 14.7664C208.861 14.7754 207.186 15.1842 205.671 15.9598V32.0657C205.671 32.4527 205.585 32.7323 205.424 32.9043C205.262 33.0871 204.972 33.1731 204.563 33.1731H200.284ZM190.425 6.93921C189.436 6.98563 188.466 6.65086 187.716 6.00382C187.372 5.68021 187.102 5.28566 186.926 4.84753C186.749 4.40939 186.67 3.93815 186.694 3.46645C186.694 2.39129 187.028 1.55267 187.716 0.939833C188.465 0.291829 189.435 -0.0430814 190.425 0.00444675C191.415 -0.0419723 192.384 0.2928 193.135 0.939833C193.823 1.55267 194.167 2.40204 194.167 3.46645C194.167 4.53086 193.823 5.38023 193.135 6.00382C192.384 6.65086 191.415 6.98563 190.425 6.93921ZM188.296 33.1731C187.909 33.1731 187.63 33.0871 187.447 32.9043C187.264 32.7323 187.178 32.4527 187.178 32.0657V11.5624C187.178 11.1431 187.264 10.8528 187.447 10.7023C187.63 10.5302 187.909 10.455 188.296 10.455H192.565C192.973 10.455 193.264 10.5302 193.425 10.6915C193.586 10.8528 193.672 11.1431 193.672 11.5624V32.0657C193.672 32.4527 193.586 32.7323 193.425 32.9043C193.264 33.0871 192.973 33.1731 192.565 33.1731H188.296ZM170.524 33.1731C170.137 33.1731 169.857 33.0871 169.675 32.9043C169.503 32.7323 169.417 32.4527 169.417 32.0657V11.5624C169.417 11.1431 169.503 10.8528 169.675 10.7023C169.857 10.5302 170.137 10.455 170.524 10.455H173.728C174.405 10.455 174.825 10.7775 174.964 11.4226L175.545 13.831C176.494 12.7162 177.629 11.774 178.899 11.0463C179.937 10.5027 181.093 10.2221 182.265 10.2292H182.888C183.297 10.2292 183.598 10.3152 183.77 10.4765C183.953 10.6378 184.039 10.9281 184.039 11.3366V15.0782C184.039 15.4652 183.953 15.7448 183.791 15.9168C183.63 16.0996 183.34 16.1856 182.931 16.1856C182.662 16.1834 182.393 16.1691 182.125 16.1426C181.71 16.1106 181.294 16.0962 180.878 16.0996C180.2 16.0996 179.372 16.1963 178.394 16.3899C177.539 16.5445 176.703 16.7895 175.9 17.121V32.0657C175.9 32.4527 175.824 32.7323 175.663 32.9043C175.491 33.0871 175.201 33.1731 174.792 33.1731H170.524ZM143.892 42.3334C143.505 42.3334 143.226 42.2474 143.043 42.0861C142.871 41.9249 142.785 41.6346 142.785 41.226V11.5624C142.785 11.1431 142.871 10.8528 143.043 10.7023C143.226 10.5302 143.505 10.455 143.892 10.455H147.096C147.774 10.455 148.193 10.7775 148.333 11.4226L148.655 12.5838C149.587 11.6992 150.683 11.0053 151.881 10.541C153.1 10.0467 154.403 9.79126 155.719 9.78838C158.59 9.78838 160.88 10.8313 162.546 12.9386C164.224 15.0459 165.062 17.8843 165.062 21.4753C165.062 23.9482 164.643 26.0878 163.815 27.9263C163.099 29.6237 161.931 31.0925 160.439 32.1732C159.004 33.1681 157.293 33.6871 155.547 33.6569C154.365 33.6661 153.191 33.4734 152.074 33.0871C151.046 32.7373 150.096 32.1894 149.279 31.4743V41.226C149.279 41.6346 149.193 41.9249 149.032 42.0861C148.86 42.2474 148.58 42.3334 148.161 42.3334H143.892ZM153.633 28.7757C155.289 28.7757 156.515 28.2058 157.289 27.0877C158.084 25.9588 158.471 24.1847 158.471 21.7441C158.471 19.282 158.095 17.4973 157.321 16.3683C156.547 15.2394 155.321 14.6804 153.633 14.6804C152.097 14.675 150.588 15.0875 149.268 15.8738V27.5715C150.581 28.3761 152.094 28.7935 153.633 28.7757Z" fill="white"/>
</svg>
