<svg width="438" height="60" viewBox="0 0 438 60" fill="none" xmlns="http://www.w3.org/2000/svg">
<path fill-rule="evenodd" clip-rule="evenodd" d="M68.0432 18.1816C68.1572 18.2196 69.4874 20.9371 71.0267 24.2247C72.566 27.5124 74.1623 30.952 74.5804 31.9022C74.9985 32.8524 75.4356 33.8596 75.7776 34.7527L76.1197 33.9926C76.2907 33.5745 77.963 29.9068 79.8254 25.821C81.6877 21.7353 83.284 18.3336 83.3981 18.2386C83.5121 18.1436 83.6071 18.0866 83.6451 18.1436C83.6641 18.1816 84.8423 23.2176 86.2486 29.3367C87.6739 35.4559 88.8521 40.6248 88.8901 40.8339C88.9471 41.1949 88.8331 41.2139 85.5265 41.2139L84.2532 35.5129C83.5501 32.3773 82.923 29.2987 82.7139 27.5314L82.2959 28.6716C82.0678 29.2987 80.5285 32.5293 78.8942 35.8549C77.2599 39.1616 75.8726 41.8791 75.7776 41.8791C75.7016 41.8791 74.3333 39.1616 72.7561 35.8359C71.1597 32.5293 69.6585 29.3367 68.9363 27.7214L68.8033 28.4815C68.7273 28.8996 68.1192 31.7692 67.454 34.8477C66.7889 37.9263 66.1998 40.6438 66.1428 40.8909C66.0478 41.29 65.9718 41.309 64.3755 41.271C62.8552 41.2139 62.7222 41.1759 62.7602 40.8339C62.7792 40.6248 63.9194 35.4369 65.3256 29.2797C66.7509 22.9515 67.9291 18.1436 68.0432 18.1816ZM118.213 18.2576C118.84 18.3146 119.866 18.4667 120.493 18.6187C121.12 18.7707 122.279 19.2078 123.059 19.5879C124.085 20.101 124.883 20.6901 125.928 21.7163C126.878 22.6855 127.581 23.6166 128.037 24.4908C128.418 25.2319 128.874 26.3341 129.064 26.9613C129.311 27.7594 129.406 28.7096 129.406 30.0969C129.387 31.7502 129.311 32.3393 128.874 33.6125C128.589 34.4487 128.075 35.5699 127.752 36.083C127.429 36.6151 126.764 37.4512 126.289 37.9643C125.814 38.4774 124.788 39.3136 124.009 39.8267C123.192 40.3588 121.918 40.9669 121.063 41.252C119.885 41.632 119.125 41.727 117.643 41.746C116.597 41.7651 115.267 41.651 114.697 41.518C114.127 41.385 112.93 40.9289 112.036 40.4918C110.744 39.8837 110.098 39.4086 108.882 38.1924C107.704 37.0142 107.172 36.311 106.658 35.2278C106.278 34.4487 105.841 33.1374 105.67 32.3203C105.518 31.5221 105.385 30.4769 105.385 30.0018C105.385 29.5267 105.518 28.4815 105.689 27.6644C105.841 26.8662 106.278 25.574 106.639 24.8329C107.077 23.8827 107.704 23.0085 108.597 22.0773C109.319 21.3172 110.402 20.386 111.029 20.025C111.637 19.6639 112.664 19.1698 113.31 18.9417C113.975 18.6947 115.077 18.4286 115.78 18.3336C116.502 18.2386 117.586 18.2006 118.213 18.2576ZM113.747 22.5904C113.386 22.7615 112.702 23.2366 112.245 23.6166C111.77 23.9967 111.105 24.7188 110.763 25.2509C110.421 25.783 109.965 26.7522 109.756 27.4363C109.528 28.1775 109.376 29.2037 109.376 30.0018C109.376 30.8 109.528 31.8262 109.756 32.5673C109.965 33.2514 110.421 34.2396 110.763 34.7527C111.105 35.2848 111.77 36.026 112.245 36.406C112.702 36.7861 113.595 37.3372 114.222 37.6413C115.248 38.1164 115.552 38.1734 117.452 38.1734C119.467 38.1734 119.6 38.1544 120.873 37.5082C121.633 37.1282 122.602 36.444 123.154 35.8929C123.667 35.3608 124.332 34.4677 124.617 33.8976C124.883 33.3275 125.206 32.4723 125.32 31.9972C125.434 31.5221 125.529 30.629 125.529 30.0018C125.529 29.3747 125.434 28.4815 125.32 28.0065C125.206 27.5314 124.883 26.6762 124.617 26.1061C124.332 25.536 123.667 24.6428 123.154 24.0917C122.545 23.4646 121.728 22.8755 120.873 22.4764C119.695 21.9253 119.334 21.8303 117.738 21.7923C116.616 21.7543 115.647 21.8303 115.172 21.9823C114.754 22.1343 114.108 22.4004 113.747 22.5904ZM148.884 18.5237C149.15 18.7707 152.533 22.0203 156.41 25.745C160.268 29.4697 163.669 32.8334 163.954 33.2134C164.258 33.5935 164.581 33.8976 164.676 33.8976C164.79 33.8976 164.866 31.2371 164.866 18.6947H168.287V30.1919C168.287 37.6603 168.23 41.727 168.097 41.7841C168.002 41.8411 164.429 38.5154 160.154 34.4107C155.897 30.3059 152.248 26.6952 151.659 25.821L151.469 41.2139H148.238L148.181 29.9068C148.162 23.6926 148.2 18.4857 148.276 18.3336C148.39 18.1246 148.504 18.1626 148.884 18.5237ZM4.28613 18.6947H7.89681V37.8883H16.0684L15.9733 41.2139L4.28613 41.309V18.6947ZM33.5517 18.6947H46.094V21.9253H37.3524V27.4363H46.094V30.667H37.3524V37.8883H46.094L45.999 41.2139H33.6467L33.5517 18.6947ZM213.991 18.7897C214.618 18.8467 215.492 18.9988 215.948 19.1698C216.385 19.3218 217.05 19.6829 217.43 19.9869C217.81 20.272 218.324 20.9371 218.571 21.4502C218.894 22.1343 219.027 22.7045 219.027 23.4456C219.008 24.0157 218.894 24.7568 218.78 25.0989C218.647 25.422 218.286 26.0871 217.943 26.5622C217.601 27.0373 216.727 27.8354 214.713 29.2417L219.312 34.4867L219.863 33.9546C220.148 33.6695 220.794 32.8714 222.162 31.009L224.348 33.3275L224.025 33.9166C223.835 34.2396 223.169 35.0568 221.402 36.9571L221.801 37.3752C222.01 37.6033 222.846 38.5154 223.645 39.4086C224.443 40.3018 225.051 41.0809 224.975 41.1759C224.918 41.252 223.987 41.309 221.022 41.328L219.122 39.1806L217.886 39.9597C217.202 40.3968 216.176 40.9479 215.606 41.1759C214.732 41.518 214.181 41.594 212.28 41.594C210.228 41.594 209.905 41.537 208.955 41.0999C208.385 40.8339 207.548 40.2828 207.092 39.8647C206.636 39.4656 206.028 38.6485 205.762 38.0784C205.325 37.2042 205.249 36.7861 205.249 35.4179C205.249 34.2016 205.344 33.5935 205.648 32.9474C205.857 32.4723 206.408 31.6741 206.883 31.161C207.339 30.667 208.252 29.8498 210.076 28.4815L209.316 27.6264C208.898 27.1513 208.366 26.3912 208.138 25.9161C207.853 25.3079 207.739 24.6998 207.739 23.8257C207.739 22.8945 207.853 22.3624 208.214 21.6593C208.461 21.1462 208.974 20.481 209.335 20.177C209.696 19.8919 210.304 19.5119 210.665 19.3408C211.026 19.1698 211.672 18.9607 212.09 18.8657C212.508 18.7897 213.364 18.7517 213.991 18.7897ZM211.558 22.6855C211.387 23.0085 211.235 23.5596 211.235 23.9207C211.235 24.4148 211.463 24.8899 212.09 25.726L212.945 26.8662C214.029 26.2011 214.58 25.726 214.884 25.403C215.321 24.8899 215.416 24.6048 215.416 23.8257C215.416 23.0275 215.321 22.7805 214.846 22.3054C214.371 21.8303 214.124 21.7353 213.383 21.7353C212.888 21.7353 212.337 21.8303 212.166 21.9443C211.995 22.0393 211.729 22.3814 211.558 22.6855ZM209.145 33.7075C208.936 34.1256 208.765 34.8097 208.765 35.2278C208.765 35.6459 208.879 36.273 209.031 36.6151C209.164 36.9381 209.582 37.5082 209.981 37.8503C210.361 38.1924 210.969 38.5154 211.387 38.5724C211.767 38.6485 212.47 38.6675 212.945 38.6105C213.421 38.5724 214.276 38.3064 214.846 38.0213C215.416 37.7553 216.138 37.3182 216.423 37.0902L216.974 36.6531C213.535 32.6813 212.432 31.4271 212.299 31.2941C212.128 31.104 211.805 31.2751 210.798 31.9972C209.981 32.6053 209.392 33.2134 209.145 33.7075ZM265.737 18.7327C268.968 18.8087 270.298 18.9037 271.001 19.1318C271.534 19.3028 272.332 19.7589 272.788 20.158C273.244 20.5571 273.833 21.3552 274.118 21.9253C274.555 22.8565 274.612 23.1985 274.612 24.9849C274.612 26.8282 274.574 27.0753 274.042 28.1015C273.681 28.8236 273.168 29.4507 272.617 29.8688C272.142 30.2109 271.344 30.6289 270.811 30.781C270.298 30.933 268.74 31.123 264.825 31.3321L264.73 41.2139H261.31L261.272 30.1919C261.234 24.1297 261.272 19.0558 261.329 18.9037C261.424 18.6947 262.241 18.6757 265.737 18.7327ZM265.015 28.0065C267.733 27.9875 268.683 27.8734 269.272 27.6644C269.994 27.4173 270.298 27.1893 270.564 26.6762C270.754 26.3151 270.906 25.65 270.906 25.2129C270.906 24.7568 270.792 24.1107 270.659 23.7877C270.507 23.4456 270.203 22.9895 269.956 22.7805C269.728 22.5714 269.006 22.2864 268.36 22.1724C267.733 22.0393 266.707 21.9253 266.118 21.9253H265.015V28.0065ZM292.571 18.6947H305.113V21.9253H296.371V27.4363H305.113V30.667H296.371V37.8883H305.113V41.309L292.666 41.2139L292.571 18.6947ZM328.373 18.7517C331.756 18.8087 332.972 18.9037 333.618 19.1318C334.093 19.3028 334.853 19.7779 335.31 20.158C335.766 20.5571 336.355 21.3362 336.64 21.9253C337.077 22.8565 337.134 23.1985 337.134 24.9849C337.134 26.8282 337.096 27.0753 336.564 28.1015C336.203 28.8236 335.69 29.4507 335.139 29.8688C334.682 30.2109 333.865 30.6289 333.333 30.781C332.82 30.933 331.262 31.123 327.366 31.3321L327.252 41.2139H323.831L323.793 30.1919C323.755 24.1297 323.793 19.0558 323.85 18.9037C323.945 18.6947 324.763 18.6757 328.373 18.7517ZM327.537 28.0065C330.255 27.9875 331.224 27.8734 331.813 27.6644C332.573 27.4173 332.839 27.1893 333.105 26.6762C333.276 26.3151 333.428 25.65 333.428 25.1939C333.428 24.7568 333.314 24.1107 333.181 23.7687C333.029 23.4456 332.725 22.9895 332.478 22.7805C332.25 22.5714 331.528 22.2864 330.901 22.1724C330.255 22.0393 329.228 21.9253 328.639 21.9253H327.537V28.0065ZM355.092 18.6947H358.76C360.774 18.6947 362.941 18.7897 363.606 18.8847C364.252 18.9988 365.107 19.2268 365.506 19.4358C365.886 19.6259 366.513 20.082 366.856 20.424C367.217 20.7851 367.73 21.5452 367.996 22.1153C368.395 22.9895 368.49 23.4456 368.49 24.7758C368.49 25.8971 368.376 26.7142 368.129 27.4363C367.882 28.1585 367.464 28.7856 366.799 29.4507C366.076 30.1729 365.563 30.4959 364.784 30.743C364.195 30.914 362.618 31.123 358.513 31.3321V41.309L355.187 41.2139L355.092 18.6947ZM358.893 28.0065C362.219 27.9114 362.979 27.7974 363.416 27.5694C363.758 27.3983 364.157 27.0563 364.328 26.8092C364.499 26.5622 364.632 25.9351 364.632 25.2509C364.651 24.5478 364.537 23.8827 364.347 23.4836C364.138 23.0655 363.739 22.7425 363.131 22.4764C362.542 22.2104 361.668 22.0393 360.603 21.9633L358.969 21.8683L358.893 28.0065ZM398.991 18.6947V21.9253H390.059V27.4363H398.991V30.667H390.059V37.8883H398.991L398.896 41.2139H386.353L386.296 30.1919C386.277 24.1297 386.296 19.0558 386.334 18.9417C386.41 18.7517 387.854 18.6947 398.991 18.6947ZM417.652 18.6567L421.662 18.7517C424.816 18.8087 425.919 18.9037 426.736 19.1698C427.382 19.3788 428.085 19.7969 428.636 20.31C429.092 20.7471 429.681 21.5452 429.909 22.0963C430.156 22.6284 430.404 23.5976 430.461 24.2627C430.537 25.0039 430.499 25.8971 430.327 26.6762C430.175 27.3603 429.833 28.2725 429.529 28.7286C429.244 29.1657 428.598 29.7928 428.104 30.0969C427.61 30.4199 426.869 30.743 426.47 30.819C426.071 30.895 425.71 31.009 425.653 31.104C425.615 31.1801 427.249 33.4415 429.282 36.14C431.316 38.8195 432.931 41.0809 432.855 41.1759C432.779 41.252 431.867 41.29 428.921 41.2139L425.216 36.235C423.163 33.4985 421.396 31.2561 421.263 31.2371C421.073 31.2371 421.035 32.3773 421.035 41.309L417.709 41.2139L417.652 18.6567ZM421.415 28.1965C423.315 28.1965 424.265 28.1015 424.759 27.9684C425.292 27.8164 425.824 27.5124 426.09 27.2083C426.337 26.9233 426.584 26.3151 426.641 25.8781C426.717 25.422 426.66 24.6808 426.546 24.2057C426.413 23.7497 426.166 23.1985 425.995 22.9895C425.824 22.7995 425.406 22.5144 425.064 22.3814C424.721 22.2294 423.771 22.0583 422.954 22.0013L421.472 21.8683L421.415 28.1965Z" fill="white"/>
</svg>
