<svg width="350" height="236" viewBox="0 0 350 236" fill="none" xmlns="http://www.w3.org/2000/svg">
<path d="M113.815 83.525C113.815 83.525 189.315 92.525 204.915 74.025C204.915 74.025 194.515 19.125 183.315 11.525C163.215 -2.07497 130.015 8.62503 124.715 22.525C114.115 51.125 113.815 83.525 113.815 83.525Z" fill="white"/>
<path d="M113.715 84.2249C118.215 84.7249 122.615 85.1249 127.115 85.4249C136.915 86.1249 146.815 86.5249 156.715 86.4249C167.415 86.3249 178.115 85.7249 188.615 83.4249C192.915 82.5249 197.015 81.1249 200.915 79.2249C202.515 78.4249 204.015 77.4249 205.415 76.3249C206.015 75.8249 207.315 74.9249 207.315 74.0249C207.215 73.2249 207.115 72.5249 206.915 71.8249C206.615 70.4249 206.315 68.9249 206.015 67.5249C205.115 63.2249 204.115 58.9249 203.115 54.7249C200.615 44.4249 197.815 34.0249 193.715 24.2249C192.215 20.5249 190.515 16.7249 187.915 13.6249C186.615 12.1249 185.015 10.9249 183.315 10.0249C180.315 8.32491 177.115 7.02491 173.815 6.22491C160.415 2.72491 146.215 4.32491 134.015 10.7249C129.615 13.1249 125.315 16.3249 123.015 20.8249C121.215 24.3249 120.215 28.3249 119.115 32.1249C117.915 36.3249 116.815 40.6249 115.915 44.9249C113.415 56.9249 111.915 69.0249 111.515 81.3249C111.515 81.9249 111.515 82.6249 111.515 83.2249C111.515 84.3249 116.415 84.7249 116.515 83.9249C116.715 75.4249 117.415 67.0249 118.715 58.6249C119.815 50.6249 121.515 42.6249 123.615 34.7249C124.715 30.6249 126.015 26.5249 127.515 22.6249C128.415 20.6249 129.715 18.7249 131.315 17.2249C135.215 13.3249 140.415 10.6249 145.615 8.82492C151.515 6.72492 157.815 5.82491 164.115 6.12491C170.215 6.32491 176.215 8.22491 181.215 11.7249C183.715 13.5249 185.415 16.8249 186.815 19.6249C191.315 28.6249 194.015 38.5249 196.515 48.2249C198.515 56.0249 200.315 63.8249 201.915 71.6249C202.115 72.2249 202.215 72.9249 202.315 73.6249C202.215 74.2249 200.715 75.4249 200.115 75.8249C197.115 78.0249 193.715 79.7249 190.115 80.7249C180.815 83.6249 170.915 84.4249 161.215 84.8249C151.215 85.2249 141.615 84.9249 131.615 84.4249C127.915 84.2249 124.215 83.9249 120.515 83.6249L118.415 83.4249L117.515 83.3249H117.115C117.215 83.3249 117.715 83.4249 117.115 83.3249L114.715 83.1249L113.915 83.0249C113.515 83.0249 111.415 82.6249 111.315 83.4249C111.215 84.2249 113.415 84.2249 113.715 84.2249Z" fill="#000005"/>
<path d="M130.115 44.5249C141.715 39.6249 155.915 32.8249 159.915 19.7249C160.815 16.7249 156.215 15.8249 155.315 18.5249C151.715 30.3249 138.415 36.1249 128.015 40.5249C126.815 40.9249 126.215 42.2249 126.715 43.4249C127.215 44.6249 128.415 45.2249 129.615 44.7249C129.815 44.7249 129.915 44.6249 130.115 44.5249Z" fill="#000005"/>
<path d="M126.615 40.4251C135.315 33.9251 144.715 26.9251 148.915 16.5251C149.415 15.5251 149.115 14.2251 148.015 13.7251C147.915 13.7251 147.915 13.6251 147.815 13.6251C146.515 13.1251 145.115 13.6251 144.515 14.8251C140.615 24.4251 132.015 30.9251 123.915 36.9251C122.815 37.5251 122.515 38.9251 123.115 39.9251V40.0251C124.015 41.0251 125.515 41.1251 126.615 40.4251Z" fill="#000005"/>
<path d="M194.315 68.525C203.515 55.825 183.915 23.725 183.915 23.725C177.715 23.425 166.915 19.125 166.915 19.125C172.515 37.025 151.715 45.125 151.715 45.125C145.915 35.825 134.815 41.025 136.815 50.625C138.815 60.225 148.315 60.025 148.315 60.025C148.315 60.025 146.815 84.625 148.215 88.425C148.215 88.425 165.515 97.225 173.515 81.925C173.515 81.925 188.015 77.225 194.315 68.525Z" fill="white"/>
<path d="M195.915 70.4248C198.715 66.4248 199.015 61.5249 198.415 56.8249C197.615 51.4249 196.215 46.0248 194.015 41.0248C192.215 36.5248 190.115 32.1248 187.815 27.9248C186.615 25.7248 185.215 21.9248 182.315 21.6248C176.915 21.2248 171.415 19.1248 166.415 17.1248C165.915 16.8248 165.215 17.0248 165.015 17.5248C164.915 17.8248 164.815 18.1248 164.915 18.4248C166.715 23.7248 165.715 29.6248 162.315 34.0248C160.915 35.9248 159.215 37.5248 157.315 38.9248C156.515 39.5248 155.615 40.1248 154.715 40.7248C154.115 41.1248 153.115 41.7248 152.715 41.8249C151.915 42.2248 151.115 42.6248 150.215 43.0248L153.015 44.6248C150.915 41.3248 147.515 38.2248 143.315 38.0248C140.115 37.9248 137.215 39.5249 135.615 42.3249C133.715 45.6248 134.315 50.0249 135.815 53.3249C137.415 56.7249 140.115 59.3249 143.615 60.8249C145.315 61.5249 147.115 61.9248 149.015 61.9248L146.115 58.7248C145.615 66.5248 145.215 74.3248 145.515 82.2248C145.515 83.9248 145.715 85.6249 146.015 87.3249C146.515 89.2249 147.815 90.0248 149.415 90.7248C152.815 92.2248 156.515 92.9248 160.215 92.9248C163.015 92.9248 165.815 92.2249 168.315 90.8249C171.315 89.0248 173.715 86.4249 175.215 83.3249L174.615 83.8249C177.415 82.9249 180.215 81.7249 182.815 80.3249C187.815 77.9249 192.615 74.8248 195.915 70.4248C197.115 68.8248 193.615 65.2248 192.615 66.7248C187.715 73.3248 179.815 76.9249 172.415 79.8249C172.015 80.0249 171.615 80.3248 171.415 80.7248C170.715 81.9248 170.015 83.0248 169.115 84.0248C167.715 85.6248 166.015 86.9248 164.015 87.7248C160.715 89.0248 157.015 89.2248 153.515 88.4248C152.115 88.1248 150.815 87.7248 149.515 87.2248C149.115 87.0248 148.715 86.8248 148.215 86.7248C147.715 86.6248 148.815 87.0248 148.215 86.7248L149.915 88.6248C149.815 88.3248 150.015 89.2248 149.915 88.7248C149.915 88.6248 149.815 88.4249 149.815 88.3249C149.715 88.0248 149.715 87.7249 149.715 87.3249C149.715 87.0248 149.615 86.7248 149.615 86.4248C149.615 85.9248 149.515 85.4248 149.515 84.9248C149.415 82.6248 149.415 80.3248 149.515 77.9248C149.615 73.3248 149.815 68.8248 150.015 64.2248C150.115 63.2248 150.115 62.2248 150.215 61.1248C150.315 59.8248 148.715 57.8248 147.315 57.9248C147.015 57.9248 146.715 57.9248 146.415 57.9248C146.115 57.9248 145.815 57.8249 145.515 57.8249C145.215 57.8249 144.815 57.7248 144.515 57.6248C144.115 57.5248 143.615 57.3248 143.215 57.2248C142.815 57.0248 142.315 56.8248 142.015 56.6248C141.615 56.4248 141.315 56.1249 141.015 55.8249C140.715 55.5249 140.415 55.2249 140.115 54.8249C137.315 51.0249 138.115 43.9248 143.615 42.5248C146.515 41.8248 148.715 43.3248 150.215 45.6248C150.715 46.3248 152.015 47.6248 153.015 47.2248C160.115 44.4248 167.315 38.4249 169.315 30.8249C170.215 27.1249 170.115 23.3248 168.915 19.7248L167.415 21.0248C169.515 21.8248 171.615 22.6248 173.715 23.2248C177.315 24.5248 181.015 25.3248 184.815 25.7248L182.415 24.0248C183.015 25.0248 183.615 26.1248 184.215 27.1248L184.615 27.9248L184.915 28.4248C185.315 29.0248 185.615 29.7248 185.915 30.4248C186.615 31.8248 187.415 33.3249 188.015 34.8249C191.115 41.5248 194.115 48.8249 194.615 56.3249C194.815 59.7249 194.615 63.6248 192.515 66.5248C191.515 68.3248 194.915 71.8248 195.915 70.4248Z" fill="#000005"/>
<path d="M186.016 34.8252C187.116 34.8252 188.016 35.6252 188.116 36.7252C188.116 36.8252 188.116 36.9252 188.116 37.0252C187.916 39.2252 185.116 38.9252 184.716 37.0252C184.416 36.1252 184.816 35.1252 185.716 34.8252C185.816 34.8252 185.916 34.8252 186.016 34.8252Z" fill="#000005"/>
<path d="M136.515 62.6252C136.115 69.0252 135.515 75.5252 134.715 81.9252C134.415 83.8252 138.515 86.5252 138.815 83.9252C139.615 77.5252 140.215 71.1252 140.615 64.6252C140.515 63.4252 139.715 62.3252 138.615 61.8252C137.715 61.4252 136.515 61.4252 136.515 62.6252Z" fill="#000005"/>
<path d="M121.615 56.625C124.415 56.925 127.315 56.725 130.115 55.925C133.015 55.225 135.815 54.125 138.415 52.525C139.015 52.125 136.815 51.725 136.715 51.725C136.115 51.625 135.415 51.625 134.815 51.625C134.415 51.625 134.015 51.625 133.615 51.825C131.415 53.225 129.115 54.225 126.615 54.825C126.015 55.025 125.415 55.125 124.815 55.225L124.015 55.425L123.615 55.525H123.515L122.815 55.625H122.515H122.415C122.815 55.625 121.715 55.625 122.315 55.625C122.415 55.625 122.715 55.625 122.315 55.625H122.815C123.315 55.725 123.515 55.725 123.215 55.725C122.615 55.625 121.915 55.625 121.315 55.625C121.115 55.625 120.315 55.625 120.115 55.825C119.415 56.225 121.415 56.525 121.615 56.625Z" fill="#000005"/>
<path d="M188.515 64.1249C188.515 64.0249 188.615 63.9249 188.615 63.7249L188.415 64.2249C188.615 63.8249 188.915 63.3249 189.215 63.0249L188.815 63.4249C189.115 63.1249 189.415 62.8249 189.815 62.6249L189.315 62.9249L189.615 62.7249C189.915 62.6249 190.115 62.4249 190.315 62.2249C190.715 61.8249 190.815 61.2249 190.715 60.7249C190.715 60.4249 190.515 60.2249 190.315 59.9249C189.915 59.4249 189.415 59.0249 188.715 58.9249C188.115 58.7249 187.415 58.8249 186.815 59.0249C186.415 59.2249 186.015 59.5249 185.615 59.8249C185.215 60.1249 184.915 60.4249 184.615 60.8249C184.115 61.4249 183.815 62.1249 183.615 62.8249C183.515 63.1249 183.515 63.3249 183.615 63.6249C183.615 63.9249 183.815 64.1249 184.015 64.4249C184.215 64.7249 184.415 64.9249 184.715 65.0249C185.015 65.2249 185.315 65.3249 185.615 65.4249C186.215 65.6249 186.915 65.5249 187.515 65.3249L188.015 65.0249C188.215 64.8249 188.415 64.5249 188.515 64.1249Z" fill="#000005"/>
<path d="M326.016 59.5248C326.016 59.5248 295.516 135.325 216.516 140.825L221.516 96.5248C221.516 96.5248 266.116 89.0248 297.516 41.9248L326.016 59.5248Z" fill="#000005"/>
<path d="M323.715 60.2248C322.715 62.7248 321.415 65.2248 320.115 67.6248C316.815 73.8248 313.115 79.8248 309.015 85.5248C303.315 93.5248 296.815 101.025 289.615 107.725C281.215 115.725 271.615 122.425 261.315 127.725C249.515 133.725 236.715 137.525 223.515 139.025C221.615 139.225 219.715 139.425 217.815 139.525L218.715 140.025L220.415 125.025L223.115 101.225L223.715 95.7248L220.515 97.5248C226.815 96.3248 232.915 94.3248 238.815 91.7248C252.915 85.8248 265.915 77.6248 277.215 67.3248C285.715 59.6248 293.215 50.9248 299.615 41.3248L295.315 42.8248L320.315 58.2248L323.815 60.3248C324.615 60.8248 326.215 60.1248 326.915 59.7248C327.215 59.5248 328.915 58.6248 328.115 58.1248L303.115 42.7248L299.615 40.5248C298.615 39.9248 295.915 41.1248 295.315 42.0248C285.215 57.3248 272.115 70.3248 256.715 80.3248C253.715 82.2248 250.915 83.9248 247.815 85.5248C246.415 86.2248 245.015 86.9248 243.615 87.6248C243.015 87.9248 242.315 88.2248 241.615 88.5248L241.015 88.7248L239.815 89.2248C237.515 90.2248 235.115 91.1248 232.715 92.0248L232.315 92.1248L231.615 92.3248C231.115 92.5248 230.615 92.7248 230.015 92.8248C229.115 93.1248 228.215 93.4248 227.315 93.6248L224.915 94.2248C224.515 94.3248 225.515 94.1248 224.915 94.2248L224.515 94.3248L223.715 94.5248C223.215 94.6248 222.715 94.7248 222.215 94.8248C221.515 94.9248 219.115 95.7248 219.015 96.6248L217.315 111.525L214.615 135.425L214.015 140.925C213.915 141.425 214.515 141.425 214.915 141.425C229.515 140.425 243.815 136.925 257.115 130.925C268.615 125.725 279.415 118.925 289.015 110.725C297.015 103.825 304.315 96.0248 310.715 87.5248C315.415 81.3248 319.715 74.7248 323.415 67.8248C324.615 65.7248 325.715 63.5248 326.715 61.4248C327.315 60.4248 327.715 59.4248 328.115 58.3248V58.2248C328.415 57.3248 326.315 57.8248 326.115 57.9248C325.415 58.8248 324.015 59.3248 323.715 60.2248Z" fill="#000005"/>
<path d="M86.1152 168.225C86.1152 168.225 115.615 93.1248 141.815 79.5248C168.015 65.9248 181.115 94.6248 188.015 116.925C194.915 139.225 196.115 195.425 196.115 195.425L86.1152 168.225Z" fill="#000005"/>
<path d="M88.1153 169.825C89.2153 166.925 90.5153 164.025 91.7153 161.125C94.8153 154.025 98.0153 146.925 101.415 139.925C105.715 131.125 110.215 122.525 115.215 114.225C119.915 106.125 125.315 98.5248 131.415 91.4248C137.115 85.1248 143.815 79.7248 152.315 78.2248C156.615 77.4248 161.015 78.1248 164.915 80.2248C166.715 81.2248 168.315 82.5248 169.715 84.0248C171.315 85.7248 172.815 87.5248 174.115 89.5248C177.015 93.9248 179.415 98.5249 181.415 103.425C183.315 108.125 185.015 112.925 186.415 117.725C188.915 126.625 190.015 136.025 191.015 145.225C192.115 155.325 192.815 165.425 193.315 175.525C193.615 181.525 193.915 187.525 194.015 193.425C194.015 193.725 194.015 194.025 194.015 194.325L195.215 193.825L184.215 191.125L157.915 184.625L126.115 176.725L98.6153 169.925C94.2153 168.825 89.7152 167.625 85.3152 166.625H85.1153C84.1153 166.425 83.7153 167.025 84.2153 167.825C84.8153 168.925 85.8152 169.625 87.0152 170.025L97.9153 172.725L124.215 179.325L156.015 187.125L183.515 193.925C187.915 195.025 192.415 196.225 196.815 197.225H197.015C197.415 197.325 198.215 197.325 198.215 196.825C198.115 192.425 197.915 187.925 197.715 183.525C197.315 173.725 196.715 164.025 195.815 154.225C195.115 144.125 193.715 134.025 191.615 124.125C189.215 114.225 185.715 104.625 181.015 95.6248C176.115 86.7248 168.915 77.6248 158.615 75.0248C149.415 72.7248 140.015 76.8249 133.115 82.8249C126.415 88.6249 121.015 95.9249 116.215 103.325C110.715 111.825 105.615 120.525 101.115 129.525C97.1153 137.325 93.4153 145.125 89.9153 153.125C88.0153 157.425 86.1153 161.725 84.4153 166.125L84.2153 166.725C83.5153 168.325 87.7153 170.925 88.1153 169.825Z" fill="#000005"/>
<path d="M133.215 126.925C133.215 126.925 171.615 173.625 207.615 170.125C243.615 166.625 243.615 94.0249 243.615 94.0249L206.115 78.0249L184.115 124.825" fill="#000005"/>
<path d="M131.415 127.225C137.815 134.825 144.815 141.725 152.415 148.125C165.515 159.125 181.115 169.525 198.415 171.825C205.315 172.725 212.615 172.325 218.915 168.925C224.215 166.025 228.315 161.525 231.515 156.425C238.415 145.425 241.615 132.225 243.615 119.525C244.915 111.625 245.615 103.525 245.715 95.5252C245.715 95.4252 245.715 95.2252 245.715 95.1252C245.615 93.9252 244.915 92.9252 243.815 92.5252L210.915 78.5252L206.215 76.5252C205.715 76.3252 204.315 75.8252 203.915 76.6252L196.415 92.4252L184.615 117.525L181.915 123.325C181.415 124.325 182.315 125.325 183.115 125.925C183.615 126.325 185.515 127.225 186.015 126.225L193.515 110.425L205.315 85.3252L208.015 79.5252H205.715L238.615 93.5252L243.315 95.5252L241.415 92.9252C241.315 99.4252 240.915 105.925 240.015 112.325C238.515 124.625 235.915 137.225 230.315 148.425C227.715 153.625 224.415 158.725 219.815 162.525C215.115 166.325 209.315 168.425 203.315 168.425C186.715 168.725 171.215 159.225 158.715 149.425C153.115 145.025 147.815 140.325 142.915 135.325C140.215 132.525 137.515 129.725 135.015 126.725C135.315 127.025 135.315 127.125 135.015 126.725C134.315 125.925 133.115 124.925 131.915 125.125C130.715 125.325 130.815 126.425 131.415 127.225Z" fill="#000005"/>
<path d="M268.916 65.3249C283.22 65.3249 294.816 53.7291 294.816 39.4249C294.816 25.1207 283.22 13.5249 268.916 13.5249C254.611 13.5249 243.016 25.1207 243.016 39.4249C243.016 53.7291 254.611 65.3249 268.916 65.3249Z" fill="white"/>
<path d="M292.516 40.3248C291.716 50.7248 284.816 59.6248 275.016 62.9248C270.316 64.5248 265.116 64.6248 260.416 63.1248C256.116 61.5248 252.416 58.6248 249.916 54.8248C243.916 46.1248 243.916 34.6248 249.816 25.8248C255.416 17.5248 266.016 12.8248 275.916 15.1248C286.716 17.7248 293.216 29.5248 292.516 40.3248C292.416 41.6248 297.016 42.8248 297.116 42.2248C297.916 30.4248 290.816 20.1248 280.316 15.2248C269.816 10.3248 257.016 11.4248 248.516 19.8248C240.416 27.9248 238.416 40.4248 243.716 50.6248C249.216 60.9248 261.516 67.3248 273.016 66.3248C285.816 65.2248 296.016 55.0248 297.116 42.2248C297.116 40.9248 292.516 39.7248 292.516 40.3248Z" fill="#23CF00"/>
<path d="M321.215 68.7248C335.52 68.7248 347.115 57.129 347.115 42.8248C347.115 28.5206 335.52 16.9248 321.215 16.9248C306.911 16.9248 295.315 28.5206 295.315 42.8248C295.315 57.129 306.911 68.7248 321.215 68.7248Z" fill="white"/>
<path d="M344.616 44.7249C343.816 54.4249 337.015 63.3249 327.515 66.0249C318.015 68.6249 307.816 64.9249 302.216 56.8249C296.416 48.4249 296.416 37.2249 302.316 28.8249C308.016 20.8249 318.116 17.1249 327.616 19.7249C338.416 22.7249 345.316 33.6249 344.616 44.7249C344.416 47.2249 349.416 47.3249 349.616 44.8249C350.316 33.1249 343.715 22.2249 333.015 17.5249C321.915 12.7249 309.015 15.2249 300.515 23.8249C292.415 32.3249 290.615 45.0249 295.915 55.4249C301.615 66.0249 313.216 72.0249 325.216 70.4249C338.416 68.6249 348.516 57.9249 349.716 44.7249C349.816 42.2249 344.816 42.1249 344.616 44.7249Z" fill="#23CF00"/>
<path d="M213.516 45.6252L182.516 42.8252C182.516 42.8252 178.016 38.2252 183.816 31.9252L224.016 30.3252L213.516 45.6252Z" fill="#23CF00"/>
<path d="M211.415 62.2251C211.415 62.2251 204.615 55.1251 208.615 42.3251C212.615 29.5251 219.215 30.5251 219.715 32.5251C219.715 32.5251 222.215 24.3251 227.115 24.5251C232.015 24.7251 232.515 26.6251 232.515 26.6251C232.515 26.6251 237.715 20.4251 242.615 24.5251C247.515 28.6251 241.115 35.3251 242.015 43.4251C242.915 51.5251 251.015 54.2251 250.515 65.3251C250.015 76.4251 243.515 93.9251 243.515 93.9251C243.515 93.9251 206.215 81.8251 206.015 80.0251C205.815 78.2251 211.415 62.2251 211.415 62.2251Z" fill="white"/>
<path d="M213.216 61.4248C213.016 61.2248 212.816 61.0248 212.716 60.7248C212.616 60.4248 212.316 60.2248 212.116 59.9248C211.816 59.5248 212.116 60.0248 212.016 59.7248L211.616 59.1248C210.416 56.7248 209.716 54.1248 209.616 51.5248C209.516 47.4248 210.416 43.4248 212.216 39.7248C212.816 38.3248 213.716 36.9248 214.716 35.7248C215.116 35.3248 215.516 34.9248 215.916 34.6248L216.516 34.2248L216.816 34.0248C217.116 33.8248 216.416 34.2248 216.916 34.0248L217.516 33.7248L217.816 33.6248C217.516 33.6248 218.216 33.5248 217.816 33.6248L218.416 33.5248C217.916 33.6248 218.216 33.4248 218.416 33.5248C217.816 33.3248 218.616 33.6248 218.416 33.5248C218.716 33.6248 217.816 33.2248 218.116 33.4248C218.416 33.6248 218.416 33.7248 217.816 33.2248C218.216 33.5248 217.516 32.8248 217.716 33.0248L217.516 32.5248C217.916 34.4248 221.416 36.0248 222.216 33.5248L222.316 33.3248C222.116 33.8248 222.316 33.4248 222.416 33.2248C222.616 32.6248 222.916 32.1248 223.116 31.5248C223.716 30.1248 224.616 28.9248 225.616 27.8248C226.116 27.3248 226.716 27.0248 227.316 26.8248C228.116 26.7248 228.916 26.8248 229.616 27.0248C229.816 27.1248 230.116 27.1248 230.316 27.2248C230.516 27.3248 231.016 27.4248 230.416 27.2248C230.516 27.2248 230.616 27.3248 230.716 27.4248C230.216 26.9248 230.516 27.3248 230.616 27.4248C230.716 27.5248 230.416 27.2248 230.416 27.2248C230.416 27.2248 230.616 27.5248 230.416 27.1248C230.216 26.7248 230.516 27.7248 230.216 26.6248C230.416 27.5248 231.116 28.2248 232.016 28.6248C232.616 28.9248 233.916 29.1248 234.416 28.5248C235.516 27.1248 236.916 26.1248 238.516 25.5248C240.616 24.9248 242.116 26.4248 242.116 28.4248C242.116 31.5248 240.616 34.5248 240.016 37.5248C239.316 40.7248 239.516 44.0248 240.616 47.1248C242.516 52.1248 246.816 55.5248 247.916 60.8248C248.416 64.0248 248.316 67.3248 247.616 70.4248C247.016 73.7248 246.316 76.9248 245.516 80.1248C244.316 84.5248 243.016 88.9248 241.516 92.9248L244.016 92.3248C236.816 90.0248 229.716 87.6248 222.616 85.1248C218.316 83.6248 213.916 82.0248 209.716 80.3248C209.416 80.2248 209.216 80.1248 209.616 80.3248L209.116 80.1248L208.216 79.7248L207.616 79.4248C207.116 79.2248 208.116 79.9248 207.716 79.4248C208.016 79.7248 208.216 80.0248 208.416 80.4248C208.416 80.5248 208.416 81.0248 208.516 80.8248C208.616 80.5248 208.616 80.1248 208.716 79.8248C208.916 78.8248 209.216 77.8248 209.516 76.9248C210.316 74.0248 211.316 71.1248 212.216 68.3248C212.616 67.1248 213.016 65.9248 213.416 64.8248C213.516 64.6248 213.416 64.9248 213.416 64.9248L213.516 64.5248L213.616 64.1248L213.716 63.7248C214.016 62.6248 213.516 61.4248 212.416 60.9248C211.716 60.5248 209.716 60.1248 209.316 61.3248C207.916 65.4248 206.516 69.6248 205.216 73.8248C204.516 75.7248 204.016 77.6248 203.716 79.6248C203.616 81.3248 205.116 82.3248 206.516 83.0248C210.516 84.9248 214.516 86.5248 218.716 87.8248C223.816 89.7248 229.016 91.4248 234.216 93.2248C237.216 94.2248 240.316 95.2248 243.316 96.2248C244.016 96.4248 245.416 96.5248 245.816 95.6248C247.316 91.6248 248.616 87.6248 249.716 83.5248C250.716 80.1248 251.516 76.6248 252.116 73.1248C252.916 69.6248 253.016 66.0248 252.716 62.5248C252.116 59.3248 250.916 56.3248 249.116 53.7248C247.616 51.4248 246.016 49.5248 245.016 47.0248C243.716 43.9248 244.316 40.4248 245.216 37.2248C246.016 34.3248 247.416 31.1248 246.716 28.0248C245.516 23.8248 241.416 21.1248 237.016 21.7248C234.516 22.2248 232.316 23.6248 230.716 25.5248L234.916 27.4248C234.316 25.8248 233.016 24.5248 231.316 24.0248C228.916 23.0248 225.716 22.5248 223.316 23.8248C220.216 25.4248 218.416 29.0248 217.416 32.3248L222.116 33.3248C221.516 30.9248 218.916 29.7248 216.616 29.9248C213.916 30.1248 211.716 32.0248 210.216 34.1248C207.516 38.0248 205.816 42.5248 205.316 47.2248C204.816 51.0248 205.316 54.9248 206.816 58.6248C207.516 60.4248 208.416 62.0248 209.716 63.5248C210.516 64.5248 211.816 64.9248 213.016 64.6248C213.816 64.2248 214.116 63.2248 213.716 62.5248C213.516 61.7248 213.416 61.6248 213.216 61.4248Z" fill="#000005"/>
<path d="M222.015 45.8251C221.915 45.5251 221.815 45.1251 221.715 44.8251C221.615 44.4251 221.515 44.0251 221.415 43.6251C221.315 43.2251 221.415 43.7251 221.415 43.5251L221.315 43.1251C221.315 42.8251 221.215 42.5251 221.215 42.3251C220.815 39.4251 221.115 36.4251 222.015 33.7251C222.315 32.7251 221.215 31.8251 220.415 31.4251C219.915 31.2251 217.915 30.3251 217.615 31.3251C216.615 34.3251 216.315 37.5251 216.715 40.6251C216.915 42.0251 217.215 43.4251 217.715 44.7251C218.315 45.8251 219.315 46.5251 220.515 46.7251C221.115 46.9251 222.415 46.8251 222.015 45.8251Z" fill="#000005"/>
<path d="M230.115 26.4251C229.015 28.3251 228.215 30.4251 227.615 32.5251C226.315 36.5251 226.415 40.9251 227.915 44.9251C228.415 45.9251 229.715 46.4251 230.715 46.0251C231.515 45.8251 233.215 44.8251 232.715 43.7251C230.515 38.3251 231.715 31.9251 234.715 27.1251C235.315 26.1251 234.215 25.1251 233.215 25.0251C232.015 24.8251 230.815 25.3251 230.115 26.4251Z" fill="#000005"/>
<path d="M275.715 26.1249C275.715 26.1249 281.315 28.4249 278.615 33.7249C275.915 39.0249 269.515 35.6249 270.415 30.4249C271.315 25.2249 275.715 26.1249 275.715 26.1249Z" fill="#000005"/>
<path d="M328.915 30.9252C328.915 30.9252 334.515 33.3252 331.815 38.5252C329.115 43.7252 322.715 40.4252 323.615 35.2252C324.515 30.0252 328.915 30.9252 328.915 30.9252Z" fill="#000005"/>
<path d="M179.615 41.325C183.915 42.025 188.315 42.025 192.615 41.425C207.315 39.725 210.315 44.125 206.815 48.125C203.315 52.125 183.615 55.525 183.615 55.525" fill="white"/>
<path d="M180.315 43.125C184.815 43.825 189.315 43.925 193.815 43.325C196.815 42.925 199.815 42.825 202.815 43.125C203.715 43.225 204.515 43.425 205.415 43.725L205.915 43.925C205.415 43.725 205.915 43.925 206.015 44.025C205.715 43.625 206.415 44.425 206.015 44.025C205.815 43.825 206.315 44.425 206.015 44.025C205.415 43.525 205.915 43.925 205.915 43.925C205.415 43.525 206.015 43.725 205.915 43.925C205.815 44.125 205.915 43.825 205.915 43.825C205.915 43.925 205.915 44.025 205.915 44.125C205.915 44.525 205.915 43.725 205.915 44.225C205.915 44.325 205.915 44.425 205.815 44.625C205.715 44.825 205.715 45.125 205.615 45.325C205.015 46.425 204.015 47.325 202.915 47.825C199.315 49.725 195.115 50.725 191.115 51.725C188.215 52.425 185.215 53.025 182.315 53.625C179.915 54.025 183.015 57.725 184.715 57.425C187.515 56.925 190.215 56.325 193.015 55.725C197.415 54.625 202.115 53.625 206.115 51.525C208.715 50.125 211.115 47.425 209.715 44.325C207.615 39.725 201.215 39.125 196.815 39.125C190.815 39.225 184.715 40.625 178.715 39.425C177.615 39.225 177.115 40.025 177.415 40.925C178.115 42.125 179.115 42.925 180.315 43.125Z" fill="#000005"/>
<path d="M171.915 38.9252C172.415 38.8252 172.815 38.8252 173.315 38.9252L173.015 38.8252C173.515 38.9252 174.015 39.0252 174.415 39.2252L174.015 39.0252L174.315 39.2252C174.515 39.3252 175.015 39.6252 175.315 39.3252C175.615 39.0252 175.515 38.6252 175.415 38.3252C175.215 37.7252 174.915 37.2252 174.515 36.7252C174.115 36.2252 173.715 35.8252 173.215 35.5252C172.015 34.8252 170.715 34.5252 169.315 34.6252C168.915 34.6252 168.815 35.0252 168.915 35.3252C168.915 35.5252 169.015 35.8252 169.115 36.0252C169.215 36.3252 169.315 36.5252 169.515 36.8252C169.815 37.4252 170.315 37.8252 170.815 38.2252C171.015 38.7252 171.415 38.8252 171.915 38.9252Z" fill="#000005"/>
<path d="M326.815 4.12509L329.315 1.0251C329.415 0.925101 329.515 0.825092 329.415 0.625092C329.415 0.525092 329.415 0.425104 329.215 0.325104C329.015 0.225104 328.915 0.225098 328.715 0.225098C328.515 0.225098 328.215 0.225104 328.015 0.325104C327.415 0.525104 326.815 0.725101 326.215 1.0251C325.715 1.2251 325.315 1.62509 325.015 1.92509L322.515 5.0251C322.415 5.1251 322.315 5.22509 322.415 5.42509C322.415 5.52509 322.415 5.6251 322.615 5.7251C322.815 5.8251 322.915 5.8251 323.115 5.8251C323.315 5.8251 323.615 5.8251 323.815 5.7251C324.415 5.5251 325.015 5.3251 325.615 5.0251C326.015 4.8251 326.415 4.42509 326.815 4.12509Z" fill="#000005"/>
<path d="M333.015 7.525L343.115 0.725002C343.315 0.625001 343.415 0.324995 343.215 0.124995C343.015 -0.0750046 342.215 0.0250046 342.015 0.0250046C340.815 0.125005 339.715 0.524995 338.815 1.125L328.715 7.925C328.515 8.025 328.415 8.325 328.615 8.525C328.815 8.725 329.615 8.625 329.815 8.625C330.915 8.52499 332.015 8.125 333.015 7.525Z" fill="#000005"/>
<path d="M14.1338 232.361C14.1338 232.361 29.6338 163.361 128.134 130.461C226.634 97.5613 284.834 232.361 284.834 232.361H14.1338Z" fill="#23CF00"/>
<path d="M16.3337 233.261C17.1337 229.861 18.3337 226.561 19.7337 223.361L20.2337 222.261L20.5337 221.661C20.6337 221.461 20.9337 220.761 20.6337 221.461C21.0337 220.561 21.4337 219.661 21.8337 218.861C22.7337 216.861 23.7337 214.961 24.7337 213.061C27.2337 208.461 30.0337 203.961 33.0337 199.661C41.1337 188.261 50.7337 177.961 61.5337 169.061C76.2337 157.061 92.6337 147.261 110.134 139.961C126.534 132.961 143.834 127.061 161.834 127.761C175.934 128.361 189.734 132.061 202.134 138.761C208.234 141.961 214.034 145.761 219.534 149.861C222.234 151.961 224.834 154.061 227.434 156.261C230.034 158.461 232.134 160.461 234.734 163.061C243.934 172.161 252.234 182.161 259.634 192.761C260.534 193.961 261.334 195.161 262.134 196.461L262.334 196.861C262.034 196.461 262.334 196.761 262.334 196.861C262.534 197.161 262.734 197.461 262.934 197.761L264.134 199.561C265.634 201.861 267.134 204.161 268.534 206.461C270.934 210.361 273.334 214.361 275.534 218.461C278.034 223.061 280.434 227.761 282.634 232.561L282.934 233.161L284.434 229.861H24.5337C21.0337 229.861 17.5337 229.761 14.0337 229.861C13.8337 229.861 13.7337 229.861 13.5337 229.861C12.2337 229.861 11.5337 231.461 11.8337 232.561C12.1337 233.861 13.3337 234.661 14.6337 234.661H274.334C277.834 234.661 281.334 234.761 284.834 234.661H285.334C287.034 234.661 287.334 232.561 286.834 231.361C285.334 227.961 283.634 224.561 281.934 221.261C277.534 212.861 272.734 204.661 267.534 196.761C260.534 186.061 252.734 175.961 244.034 166.561C234.634 156.161 223.934 147.061 212.134 139.461C199.834 131.761 186.234 126.061 171.834 123.961C164.334 122.861 156.634 122.661 149.034 123.461C140.434 124.461 131.834 126.361 123.734 129.361C104.034 136.061 85.3337 145.561 68.2337 157.461C55.5337 166.461 44.1337 177.161 34.3337 189.261C27.6337 197.561 21.9337 206.561 17.4337 216.161C15.1337 220.861 13.2337 225.761 11.8337 230.861C11.7337 231.061 11.7337 231.261 11.6337 231.561C11.3337 232.861 12.0337 234.161 13.2337 234.661C14.3337 235.161 15.5337 234.661 16.0337 233.561C16.3337 233.461 16.3337 233.361 16.3337 233.261Z" fill="#23CF00"/>
<path d="M1.93421 235.061H10.8342L32.7342 234.961L64.4342 234.861L102.934 234.761L144.934 234.661L187.234 234.561L226.834 234.461L260.534 234.361L285.034 234.261H297.334H298.134C299.434 234.261 300.534 233.461 300.934 232.261C301.134 231.261 300.434 230.361 299.434 230.261C299.334 230.261 299.134 230.261 298.934 230.261H290.134L268.234 230.361L236.534 230.461L198.034 230.561L156.034 230.661L113.734 230.761L74.1342 230.861L40.4342 230.961L15.9342 231.061H3.6342H2.83421C1.53421 231.061 0.434206 231.861 0.0342058 233.061C-0.165794 234.061 0.534206 234.961 1.53421 235.061C1.63421 235.061 1.73421 235.061 1.93421 235.061Z" fill="#23CF00"/>
<path d="M44.5341 140.062C44.5341 140.062 36.0341 163.362 27.4341 162.062C18.8341 160.762 14.0341 156.062 17.8341 148.662C21.6341 141.262 46.3341 130.062 44.5341 140.062Z" fill="white"/>
<path d="M42.3344 139.062C42.3344 139.162 42.2344 139.162 42.2344 139.262C42.2344 139.362 42.1344 139.462 42.1344 139.562C42.1344 139.662 42.2344 139.262 42.1344 139.662C41.8344 140.462 41.4344 141.262 41.1344 142.062C40.1344 144.462 38.9344 146.862 37.7344 149.262C36.3344 151.862 34.7344 154.362 32.8344 156.662C31.3344 158.362 29.5344 160.162 27.3344 160.362C27.6344 160.362 27.1344 160.362 26.9344 160.362C26.6344 160.362 26.3344 160.262 26.0344 160.262C25.1344 160.062 24.1344 159.862 23.2344 159.562C22.4344 159.362 21.7344 158.962 21.0344 158.562C20.5344 158.262 20.1344 157.862 19.7344 157.362C18.0344 155.162 18.7344 151.762 20.2344 149.462C21.6344 147.562 23.4344 145.862 25.4344 144.662C27.9344 142.962 30.6344 141.462 33.4344 140.262C34.8344 139.662 36.2344 139.162 37.6344 138.762C38.3344 138.562 39.0344 138.362 39.7344 138.262L40.7344 138.162C40.9344 138.162 41.0344 138.162 41.2344 138.162C41.5344 138.162 41.8344 138.162 42.0344 138.162C42.7344 138.162 41.9344 138.162 42.4344 138.162C42.5344 138.162 42.6344 138.162 42.7344 138.262C43.0344 138.362 42.2344 138.062 42.6344 138.262C43.0344 138.462 42.4344 138.162 42.2344 137.962C42.6344 138.362 42.1344 137.762 42.0344 137.662C42.0344 137.762 42.1344 137.762 42.1344 137.862C42.0344 137.962 42.1344 137.762 42.1344 137.862C42.4344 138.162 42.4344 138.562 42.3344 139.062C42.0344 140.962 46.4344 143.162 46.8344 140.962C47.3344 137.862 45.4344 135.462 42.5344 134.462C40.0344 133.662 37.1344 134.262 34.6344 134.962C28.4344 136.762 21.9344 140.162 17.5344 144.862C15.1344 147.262 14.0344 150.662 14.5344 153.962C15.3344 158.162 19.2344 161.062 23.0344 162.462C26.4344 163.662 30.1344 164.562 33.3344 162.562C35.9344 160.762 38.0344 158.462 39.6344 155.762C42.6344 151.162 45.0344 146.162 46.9344 140.962C47.4344 139.262 43.1344 136.862 42.3344 139.062Z" fill="#000005"/>
<path d="M44.3347 131.161C44.3347 131.161 26.4347 120.561 17.1347 126.061C7.83473 131.561 9.53473 143.961 25.3347 141.761C41.1347 139.561 45.9347 134.461 44.3347 131.161Z" fill="white"/>
<path d="M43.4348 129.162C39.5348 126.862 35.3348 125.062 31.0348 123.762C24.9348 121.962 17.6348 121.262 12.9348 126.362C11.1348 128.162 10.1348 130.562 10.1348 133.062C10.1348 136.162 12.0348 139.162 14.3348 141.262C16.7348 143.262 19.8348 144.362 22.9348 144.262C27.5348 144.162 32.0348 143.362 36.4348 141.962C40.6348 140.662 48.2348 137.762 45.7348 132.062C45.1348 130.962 44.4348 129.562 43.4348 129.162C42.5348 128.862 42.9348 130.062 43.1348 130.462C43.1348 130.562 43.0348 130.362 43.0348 130.162C43.0348 130.262 43.0348 130.462 43.1348 130.562C43.1348 130.762 43.1348 131.062 43.0348 131.262C42.8348 131.962 42.4348 132.562 41.9348 133.062C40.2348 134.762 38.1348 135.962 35.8348 136.662C31.9348 138.062 27.9348 139.062 23.7348 139.562C20.6348 139.962 17.1348 139.962 14.3348 138.562C13.8348 138.362 13.4348 138.062 13.0348 137.662C13.3348 137.962 12.6348 137.262 12.9348 137.562C13.0348 137.662 13.3348 138.062 13.1348 137.762C12.9348 137.462 13.3348 138.162 13.1348 137.762C13.1348 137.862 13.3348 138.062 13.1348 137.762C13.1348 137.662 13.0348 137.462 13.0348 137.362C12.9348 136.862 12.9348 136.362 12.9348 135.862C13.1348 133.562 14.2348 131.462 15.8348 129.962C20.3348 125.562 26.7348 125.962 32.4348 127.562C36.9348 128.762 41.1348 130.662 45.1348 132.962C46.0348 133.562 45.5348 131.962 45.4348 131.662C45.1348 130.762 44.3348 129.862 43.4348 129.162Z" fill="#000005"/>
<path d="M48.8342 126.561C48.8342 126.561 33.4342 104.561 26.7342 105.461C20.0342 106.361 17.2342 111.461 20.4342 118.261C23.6342 125.061 41.3342 132.061 45.6342 130.261C49.9342 128.461 48.8342 126.561 48.8342 126.561Z" fill="white"/>
<path d="M51.1339 126.462C48.7339 123.062 46.1339 119.762 43.4339 116.562C41.3339 114.062 39.0339 111.662 36.6339 109.462C34.6339 107.462 32.2339 105.862 29.5339 104.862C26.0339 103.762 22.2339 104.462 19.3339 106.762C16.3339 109.162 16.1339 113.262 17.3339 116.662C18.5339 120.062 20.8339 122.262 23.6339 124.262C26.9339 126.462 30.5339 128.362 34.3339 129.662C37.7339 130.962 41.6339 132.162 45.3339 131.862C47.3339 131.762 49.1339 130.862 50.5339 129.462C51.2339 128.762 51.5339 127.762 51.2339 126.862C50.5339 125.962 49.5339 125.462 48.4339 125.462C48.0339 125.462 45.9339 125.562 46.4339 126.462C46.5339 126.562 46.5339 126.862 46.5339 126.662C46.5339 127.062 46.3339 127.462 46.1339 127.762C45.5339 128.362 44.8339 128.862 44.0339 129.162C43.9339 129.162 43.2339 129.462 43.8339 129.262L43.5339 129.362C43.0339 129.562 43.6339 129.362 43.2339 129.362H42.8339C42.5339 129.362 43.2339 129.362 42.9339 129.362L42.1339 129.262C41.5339 129.262 42.3339 129.362 41.7339 129.262L40.6339 129.062C39.3339 128.762 38.0339 128.362 36.7339 127.962C33.7339 126.962 30.8339 125.562 28.1339 123.762C25.9339 122.362 23.6339 120.662 22.6339 118.162C21.3339 115.162 20.8339 111.462 23.2339 108.862C24.3339 107.762 25.7339 107.062 27.2339 106.762C27.5339 106.662 27.8339 106.662 27.9339 106.662C27.9339 106.662 27.3339 106.562 27.7339 106.662C27.9339 106.662 28.1339 106.762 27.5339 106.662C28.1339 106.762 27.2339 106.662 27.6339 106.662C27.7339 106.662 27.8339 106.762 27.9339 106.762C27.6339 106.662 28.3339 106.862 27.9339 106.762C28.8339 107.162 29.6339 107.662 30.3339 108.262C31.3339 109.062 32.3339 109.862 33.2339 110.762C35.3339 112.762 37.2339 114.862 39.1339 117.162C41.7339 120.262 44.3339 123.562 46.6339 126.862C47.2339 127.762 48.9339 128.062 49.9339 127.962C50.7339 127.762 51.7339 127.362 51.1339 126.462Z" fill="#000005"/>
<path d="M53.234 124.061C53.234 124.061 56.734 93.2614 47.334 91.3614C37.934 89.4614 32.634 95.4614 35.234 105.261C37.834 115.061 47.034 125.461 49.834 125.761C52.634 126.061 53.234 124.061 53.234 124.061Z" fill="white"/>
<path d="M55.1339 125.261C55.5339 121.461 55.7339 117.761 55.8339 113.961C55.9339 107.961 55.8339 101.161 53.3339 95.5613C52.1339 92.9613 50.3339 90.4613 47.6339 89.4613C44.1339 88.1613 40.1339 88.5613 36.9339 90.4613C33.9339 92.4613 32.7339 96.0613 32.8339 99.5613C32.9339 104.561 35.0339 109.361 37.4339 113.561C39.8339 118.061 42.9339 122.061 46.7339 125.361C47.9339 126.361 49.3339 127.561 50.9339 127.661C52.5339 127.761 54.5339 127.161 55.2339 125.561C55.9339 123.961 52.4339 120.461 51.6339 122.261C51.0339 123.061 50.0339 123.461 49.0339 123.361C48.9339 123.361 48.6339 123.361 49.1339 123.361L48.9339 123.261C48.9339 123.261 48.4339 122.961 49.0339 123.261L48.7339 123.061C48.6339 122.961 48.0339 122.561 48.4339 122.861C48.1339 122.661 47.8339 122.361 47.5339 122.061C46.3339 120.961 45.2339 119.761 44.2339 118.461C43.0339 116.861 41.8339 115.161 40.8339 113.461C37.8339 108.361 33.6339 98.7613 39.9339 94.2613C41.1339 93.4613 42.5339 93.0613 44.0339 92.9613C44.8339 92.8613 45.6339 92.8613 46.3339 92.9613C46.7339 92.9613 47.2339 93.0613 47.6339 93.1613C47.8339 93.1613 48.1339 93.2613 48.4339 93.2613C48.1339 93.1613 48.7339 93.2613 48.4339 93.2613C48.5339 93.2613 49.1339 93.5613 48.8339 93.4613C48.5339 93.3613 49.4339 93.8613 48.9339 93.5613C48.4339 93.2613 49.1339 93.7613 49.2339 93.8613C48.7339 93.4613 49.1339 93.7613 49.3339 94.0613C49.7339 94.4613 49.1339 93.6613 49.4339 94.2613L49.7339 94.8613C49.7339 94.9613 49.9339 95.2613 49.7339 94.7613C49.7339 94.8613 49.8339 94.9613 49.9339 95.0613C50.0339 95.3613 50.1339 95.6613 50.3339 95.9613C50.5339 96.2613 50.5339 96.4613 50.6339 96.7613L50.7339 97.1613C50.6339 96.8613 50.7339 97.1613 50.7339 97.2613C50.9339 97.9613 51.0339 98.6613 51.2339 99.2613C51.5339 100.561 51.6339 101.961 51.8339 103.361C52.1339 106.061 52.2339 108.761 52.1339 111.461C52.1339 115.161 51.9339 118.961 51.5339 122.661C51.5339 123.861 52.2339 125.061 53.3339 125.661C53.9339 126.161 55.0339 126.361 55.1339 125.261Z" fill="#000005"/>
<path d="M57.5342 124.161C57.5342 124.161 76.1342 106.861 73.9342 101.061C71.7342 95.2614 63.9342 93.3614 60.0342 95.9614C56.1342 98.5614 50.2342 122.361 53.3342 123.961C56.4342 125.561 57.5342 124.161 57.5342 124.161Z" fill="white"/>
<path d="M59.0345 126.062C62.4345 122.962 65.5345 119.562 68.5345 116.062C70.7345 113.562 72.7345 110.862 74.4345 107.962C75.7345 105.562 76.6345 102.862 75.6345 100.162C73.8345 96.0615 70.0345 93.1615 65.6345 92.5615C62.6345 92.0615 59.0345 92.6615 57.2345 95.2615C55.6345 97.6615 54.5345 100.362 53.7345 103.162C52.6345 106.662 51.7345 110.162 51.0345 113.762C50.5345 116.762 49.8345 120.162 50.6345 123.162C51.0345 124.862 52.3345 126.262 54.0345 126.762C55.5345 127.262 57.9345 127.562 59.0345 126.062C59.7345 125.062 59.6345 123.662 58.7345 122.662C58.1345 121.862 56.6345 121.162 55.8345 122.262C55.6345 122.462 55.7345 122.362 55.8345 122.262C56.2345 121.962 55.4345 122.362 55.7345 122.362C55.0345 122.362 54.4345 122.162 53.8345 121.862C53.2345 121.662 54.2345 122.262 54.3345 122.362L54.2345 122.262C54.2345 122.262 54.6345 122.862 54.4345 122.562C54.2345 122.262 54.6345 122.662 54.5345 122.862L54.4345 122.462V122.362L54.5345 122.762C54.5345 122.662 54.5345 122.462 54.5345 122.362C54.5345 121.862 54.4345 121.462 54.4345 120.962C54.4345 120.862 54.4345 119.962 54.4345 120.462C54.4345 120.162 54.4345 119.862 54.5345 119.562C54.6345 118.162 54.8345 116.862 55.1345 115.462C56.1345 109.962 57.5345 104.362 60.2345 99.4615C60.3345 99.3615 60.6345 98.7615 60.3345 99.2615C60.4345 99.0615 60.5345 98.9615 60.6345 98.7615C60.7345 98.5615 60.8345 98.4615 60.9345 98.3615C61.0345 98.2615 61.0345 98.2615 61.1345 98.1615C61.2345 98.0615 60.7345 98.3615 61.0345 98.2615C62.2345 97.5615 63.6345 97.2615 65.0345 97.3615C66.5345 97.4615 67.9345 97.8615 69.1345 98.5615C69.7345 98.9615 70.3345 99.3615 70.8345 99.9615C71.2345 100.462 71.5345 100.962 71.8345 101.562C71.8345 101.662 71.8345 101.762 71.9345 101.762C72.0345 102.062 71.7345 101.162 71.9345 101.562C71.9345 101.762 71.9345 102.262 71.9345 101.662C71.9345 101.862 71.9345 102.062 71.8345 102.262C71.7345 102.462 71.5345 103.162 71.7345 102.662C71.3345 103.762 70.8345 104.762 70.2345 105.762C68.7345 108.162 67.0345 110.362 65.2345 112.462C62.2345 115.962 59.1345 119.262 55.8345 122.362C54.1345 123.962 57.0345 127.962 59.0345 126.062Z" fill="#000005"/>
<path d="M56.8347 135.361C56.8347 135.361 45.0347 143.561 42.8347 140.761C40.6347 137.961 41.8347 127.261 51.0347 123.461C60.2347 119.661 60.7347 127.761 56.8347 135.361Z" fill="white"/>
<path d="M55.7344 133.062C53.6344 134.562 51.4344 135.862 49.1344 137.062C48.3344 137.462 47.5344 137.862 46.6344 138.162C46.2344 138.262 45.8344 138.462 45.4344 138.562L44.8344 138.762C44.5344 138.862 44.7344 138.762 44.8344 138.762L44.5344 138.862C44.2344 138.962 43.9344 138.962 43.6344 138.962H43.2344C43.8344 138.962 43.3344 138.962 43.1344 138.862C43.1344 138.862 43.6344 139.062 43.3344 138.962C43.0344 138.862 43.2344 138.862 43.4344 139.062C43.4344 139.062 43.8344 139.562 43.7344 139.362C43.4344 138.962 44.0344 139.962 43.8344 139.562L43.7344 139.362C43.5344 138.962 43.8344 139.662 43.8344 139.662C43.7344 139.362 43.6344 139.062 43.6344 138.762C43.6344 138.562 43.5344 138.362 43.5344 138.162C43.5344 137.962 43.5344 137.762 43.5344 137.562C43.5344 136.962 43.5344 137.762 43.5344 137.362C43.5344 136.962 43.6344 136.462 43.7344 136.062C44.0344 134.362 44.6344 132.662 45.5344 131.162C46.7344 129.262 48.3344 127.762 50.2344 126.662C51.3344 125.962 52.6344 125.462 53.8344 125.162C54.3344 125.062 54.7344 124.962 55.2344 124.962H55.8344H56.1344C55.7344 124.962 56.2344 124.962 56.3344 124.962C56.4344 124.962 57.0344 125.162 56.7344 125.062C56.4344 124.962 57.0344 125.262 57.1344 125.262C57.2344 125.262 56.7344 124.962 57.0344 125.162C57.1344 125.262 57.3344 125.562 57.1344 125.162C57.3344 125.662 57.0344 124.962 57.0344 124.962L57.1344 125.262C57.3344 125.662 57.0344 124.762 57.1344 125.062C57.2344 125.362 57.2344 125.562 57.3344 125.762C57.1344 125.062 57.3344 125.862 57.3344 126.062C57.3344 126.262 57.3344 126.962 57.3344 126.462C57.1344 128.962 56.4344 131.462 55.1344 133.662C54.2344 135.462 57.2344 139.262 58.4344 136.862C60.6344 132.462 62.6344 125.662 58.5344 121.662C56.6344 119.762 53.9344 119.862 51.5344 120.562C48.7344 121.362 46.3344 122.862 44.3344 124.962C41.1344 128.462 39.6344 133.062 40.1344 137.762C40.4344 139.862 41.2344 142.262 43.2344 143.262C44.9344 144.062 46.8344 143.362 48.4344 142.762C51.7344 141.462 54.8344 139.762 57.7344 137.662C58.5344 136.862 58.7344 135.662 58.1344 134.662C57.9344 133.962 56.7344 132.462 55.7344 133.062Z" fill="#000005"/>
<path d="M70.5343 179.161C70.5343 177.161 70.3343 175.161 69.7343 173.161C69.0343 169.861 68.3343 166.561 67.4343 163.361C65.7343 156.261 63.5343 149.161 61.0343 142.261C60.2343 140.061 59.2343 137.361 57.4343 135.761C56.7343 135.161 55.2343 134.261 54.3343 134.861C53.4343 135.461 54.1343 136.761 54.7343 137.361C55.1343 137.661 54.5343 137.061 54.6343 137.261C54.7343 137.361 54.8343 137.561 54.9343 137.661L55.0343 137.861C55.2343 138.261 54.8343 137.361 55.0343 137.761L55.3343 138.361C55.8343 139.361 56.3343 140.461 56.7343 141.461C57.9343 144.361 58.8343 147.361 59.8343 150.361C61.8343 157.061 63.7343 163.761 65.1343 170.661C65.4343 172.061 65.7343 173.461 65.9343 174.861C66.0343 175.361 66.0343 175.861 66.1343 176.361C66.1343 176.561 66.1343 176.761 66.1343 176.961C66.1343 177.161 66.1343 176.661 66.1343 177.061C66.2343 178.261 66.9343 179.261 68.0343 179.661C68.7343 179.961 70.4343 180.361 70.5343 179.161Z" fill="#000005"/>
<path d="M49.2348 134.062C50.3348 134.062 50.5348 133.062 50.0348 132.262C49.2348 131.262 48.0348 130.762 46.8348 130.762C45.7348 130.762 45.5348 131.762 46.0348 132.562C46.8348 133.562 48.0348 134.062 49.2348 134.062Z" fill="#000005"/>
<path d="M52.1336 128.361C52.3336 128.461 52.6336 128.061 52.4336 127.861C52.2336 127.861 52.0336 127.961 51.9336 128.061" fill="white"/>
<path d="M53.1348 130.462C53.2348 130.462 53.3348 130.462 53.4348 130.462H53.5348L53.6348 130.362C53.7348 130.262 53.7348 130.262 53.8348 130.162V130.062C53.8348 129.962 53.8348 129.862 53.8348 129.762C53.8348 129.762 53.8348 129.762 53.8348 129.662C53.8348 129.562 53.8348 129.362 53.7348 129.262C53.7348 129.062 53.6348 128.962 53.5348 128.762L53.3348 128.262L53.0348 127.662C52.9348 127.462 52.8348 127.262 52.6348 127.062L52.2348 126.562C52.1348 126.462 52.0348 126.262 51.8348 126.162C51.6348 125.962 51.4348 125.862 51.2348 125.762H51.1348H50.8348C50.7348 125.762 50.5348 125.862 50.4348 125.962C50.3348 126.062 50.2348 126.162 50.2348 126.262C50.2348 126.462 50.2348 126.662 50.2348 126.862C50.3348 127.162 50.4348 127.362 50.5348 127.662C50.6348 127.962 50.8348 128.262 50.9348 128.562L51.3348 129.062C51.5348 129.362 51.8348 129.662 52.1348 129.862L52.4348 130.062C52.5348 130.162 52.7348 130.162 52.9348 130.162C53.0348 130.062 53.2348 130.062 53.3348 129.962H53.1348H53.2348L52.2348 129.262L51.8348 128.762L51.4348 128.162L51.1348 127.562L50.9348 127.062L50.7348 126.562L50.6348 126.162V126.262V125.962C50.6348 126.062 50.6348 126.062 50.5348 126.162L50.6348 125.962C50.5348 126.062 50.5348 126.062 50.4348 126.062H50.6348H50.5348C50.4348 126.062 50.3348 126.062 50.2348 126.162C50.1348 126.262 50.1348 126.462 50.1348 126.562C50.1348 126.762 50.2348 127.062 50.2348 127.262C50.3348 127.562 50.4348 127.762 50.5348 128.062L50.8348 128.662C51.0348 129.062 51.3348 129.362 51.6348 129.662L52.0348 130.062C52.2348 130.262 52.4348 130.362 52.6348 130.462H53.1348Z" fill="#000005"/>
<path d="M52.6348 134.962C55.6348 134.962 54.3348 130.262 51.8348 130.262C48.8348 130.262 50.1348 134.962 52.6348 134.962Z" fill="#000005"/>
<path d="M64.8337 152.961C64.5337 149.761 65.0337 146.461 66.4337 143.561C66.8337 142.361 67.7337 141.261 68.8337 140.661C70.4337 140.061 72.1337 140.661 73.1337 141.961C74.0337 143.361 74.3337 144.961 73.9337 146.561C73.5337 148.161 72.8337 149.561 71.8337 150.861C71.0337 151.961 70.2337 153.061 69.2337 154.061C68.3337 155.061 67.0337 156.061 65.8337 155.561" fill="white"/>
<path d="M67.1339 153.061C66.9339 150.361 67.2339 147.761 68.2339 145.261C68.4339 144.661 68.7339 144.061 69.1339 143.561C68.9339 143.861 69.4339 143.261 69.5339 143.161C69.7339 142.961 69.7339 142.961 69.5339 143.061C69.6339 142.961 69.7339 142.861 69.9339 142.861C70.1339 142.861 70.2339 142.761 69.9339 142.861L70.3339 142.761C69.7339 142.861 70.9339 142.961 70.3339 142.761C70.4339 142.761 70.6339 142.861 70.7339 142.861C70.4339 142.761 70.4339 142.761 70.7339 142.861L71.1339 143.061C70.8339 142.861 70.9339 142.861 71.1339 143.061C71.3339 143.261 71.4339 143.261 71.1339 143.061C71.2339 143.161 71.3339 143.361 71.4339 143.461V143.561C71.5339 143.661 71.5339 143.861 71.6339 144.061C71.7339 144.361 71.7339 144.361 71.6339 144.161C71.6339 144.361 71.6339 144.461 71.6339 144.661C71.6339 144.861 71.6339 144.961 71.6339 145.161C71.6339 144.961 71.6339 145.061 71.6339 145.261C71.4339 146.461 70.9339 147.661 70.2339 148.661C69.5339 149.761 68.7339 150.861 67.8339 151.761C67.4339 152.261 66.9339 152.761 66.4339 153.261C66.6339 153.061 66.0339 153.461 65.9339 153.561C66.0339 153.461 66.1339 153.461 66.2339 153.561H66.1339C65.0339 153.161 63.8339 153.761 63.4339 154.861C63.4339 154.961 63.4339 154.961 63.3339 155.061C63.1339 156.361 63.9339 157.661 65.2339 158.061C68.6339 159.061 71.0339 155.961 72.8339 153.561C74.6339 151.161 76.3339 148.361 76.2339 145.161C76.2339 141.961 74.0339 139.161 70.9339 138.361C69.4339 137.961 67.8339 138.261 66.6339 139.161C65.5339 140.161 64.6339 141.361 64.1339 142.761C62.7339 145.961 62.2339 149.461 62.5339 152.961C62.6339 154.261 63.7339 155.361 65.0339 155.461C66.1339 155.561 67.1339 154.661 67.2339 153.461C67.2339 153.261 67.2339 153.161 67.1339 153.061Z" fill="#000005"/>
<path d="M148.934 233.861C165.834 218.161 183.234 202.961 201.034 188.161C206.134 183.961 211.234 179.761 216.334 175.661C217.434 174.761 214.834 170.661 214.134 171.161C196.134 185.661 178.534 200.561 161.234 215.961C156.334 220.361 151.534 224.761 146.634 229.261C145.734 230.361 148.434 234.361 148.934 233.861Z" fill="white"/>
<path d="M144.734 128.561C144.534 132.361 144.334 136.261 144.134 140.061C143.734 147.861 143.334 155.661 142.834 163.361C142.334 172.561 141.834 181.661 141.334 190.761L140.034 214.961C139.834 219.461 139.534 223.961 139.334 228.361V228.861C139.234 230.561 143.934 232.361 143.934 230.361C144.134 226.561 144.334 222.661 144.534 218.861C144.934 211.061 145.334 203.261 145.834 195.561C146.334 186.361 146.834 177.261 147.334 168.161C147.734 160.061 148.234 152.061 148.634 143.961C148.834 139.461 149.134 134.961 149.334 130.561C149.334 130.361 149.334 130.161 149.334 130.061C149.434 128.361 144.834 126.561 144.734 128.561Z" fill="white"/>
<path d="M84.0343 155.061L127.834 190.761L140.234 200.861C140.834 201.361 142.234 200.561 142.734 200.261C142.934 200.161 145.134 198.961 144.734 198.661L101.034 162.961L88.6343 152.861C88.0343 152.361 86.6343 153.161 86.1343 153.461C86.0343 153.661 83.8343 154.861 84.0343 155.061Z" fill="white"/>
<path d="M48.6344 199.261C61.3344 206.561 73.7344 214.661 85.6344 223.261C89.3344 225.961 93.0344 228.761 96.6344 231.661C97.4344 232.261 98.9344 232.961 99.9344 232.561C100.934 232.161 100.234 231.361 99.6344 230.861C87.8344 221.561 75.4344 212.961 62.6344 205.061C58.6344 202.561 54.6344 200.161 50.5344 197.861C49.8344 197.461 48.1344 196.761 47.4344 197.361C46.7344 197.961 48.1344 198.961 48.6344 199.261Z" fill="white"/>
<path d="M90.0345 191.862C87.9345 203.162 87.0345 214.662 87.4345 226.262C87.5345 228.062 92.0345 226.262 92.0345 224.562C91.6345 213.062 92.5345 201.562 94.6345 190.162C94.8345 189.062 92.8345 189.462 92.4345 189.662C91.2345 189.962 90.3345 190.762 90.0345 191.862Z" fill="white"/>
<path d="M284.334 231.661C284.834 229.161 285.834 226.861 287.234 224.761C288.534 222.661 290.434 220.861 292.634 219.661L293.334 219.461C292.734 219.061 292.534 219.061 292.834 219.261L293.034 219.461C293.234 219.861 293.634 220.261 293.934 220.661C294.534 221.661 294.934 222.861 295.034 224.061C295.234 226.661 294.234 229.261 292.334 231.061L296.234 232.861C295.234 231.361 296.134 229.161 297.134 227.961C298.234 226.561 299.734 225.461 301.434 224.961C303.734 224.161 307.534 223.961 309.234 225.861C310.034 226.761 311.034 227.461 312.234 227.761C313.034 227.961 313.534 227.561 312.834 226.761C309.334 222.961 304.034 220.561 298.834 221.661C294.334 222.561 289.434 227.361 292.634 231.961C293.134 232.661 295.634 234.661 296.534 233.761C301.934 228.361 298.734 219.761 292.134 216.961C290.634 216.261 288.934 216.461 287.634 217.461C286.334 218.361 285.234 219.461 284.134 220.561C282.034 223.061 280.534 226.161 279.934 229.461C279.834 230.561 284.034 232.861 284.334 231.661Z" fill="#000005"/>
</svg>
