<svg width="111" height="55" viewBox="0 0 111 55" fill="none" xmlns="http://www.w3.org/2000/svg">
<path d="M59.7517 0.186526C59.3906 0.242226 59.0434 1.57194 58.3455 2.26465C57.8351 2.76459 57.198 2.73331 56.8595 3.35138C56.7311 3.58228 56.7727 3.97642 56.6269 4.35487C56.3421 5.11175 55.3388 5.17941 55.3388 6.00408C55.3353 6.89467 56.1755 7.06477 56.9029 7.69667C57.4706 8.20533 57.5262 8.55598 58.2136 8.80246C58.8005 9.00221 59.6736 8.34937 60.46 8.58377C61.1059 8.77654 61.7238 8.91536 61.8697 9.57853C61.9981 10.1896 61.861 11.1374 61.0781 11.0281C60.8142 10.9986 59.6701 10.6132 58.264 10.7625C56.5678 10.9552 54.6321 11.5089 54.443 13.3996C54.3388 14.4568 55.646 15.7033 56.9081 15.4498C57.7813 15.2778 57.3682 14.2486 57.8438 13.7485C58.467 13.108 61.9981 15.9845 65.281 15.9845C66.6629 15.9845 67.6905 15.6356 68.7115 14.5662C68.8068 14.4846 68.9232 14.3092 69.0707 14.2988C69.2097 14.3092 69.4527 14.4463 69.5325 14.5054C72.1765 16.6302 74.1746 20.8923 83.8913 20.9426C85.2575 20.9495 86.8146 21.6023 88.0854 22.7619C89.2191 23.8105 89.8823 25.4406 90.5263 27.095C91.4985 29.5776 93.2415 31.9924 95.8836 34.6798C96.0278 34.8238 98.203 36.5148 98.3766 36.6415C98.4044 36.6589 98.5641 37.0408 98.5087 37.2542C98.4444 38.8653 98.21 43.5508 101.703 43.7626C102.557 43.806 102.333 43.2054 102.333 42.7922C102.331 41.9762 102.182 41.1655 102.613 40.3305C103.201 39.1813 101.364 38.6517 101.418 36.1675C101.456 34.3152 99.9008 34.6311 99.1109 33.2197C98.6561 32.402 98.2516 31.9681 98.2811 30.968C98.4582 25.34 97.0833 21.6422 96.3975 20.7343C95.8629 20.0485 95.4202 19.776 95.9097 19.4583C98.8246 17.533 99.486 15.7414 99.486 15.7414C101.036 12.0975 102.43 8.76944 104.352 7.30439C104.739 7.00221 105.732 6.26103 106.342 5.96932C108.135 5.12384 109.079 4.61181 109.6 4.10477C110.425 3.30104 111.076 1.62577 110.286 0.610201C109.303 -0.643255 107.604 0.35151 106.854 0.79587C101.495 3.97642 100.705 9.58713 98.8487 12.8093C97.368 15.3838 94.9601 17.2743 92.8075 17.4289C91.1929 17.5486 89.4535 17.2223 87.7209 16.4619C83.5076 14.6148 81.202 12.2295 80.6587 11.8077C79.5268 10.9344 70.739 2.30802 63.6195 1.95562C63.6195 1.95562 62.736 0.18665 62.5137 0.157118C61.9929 0.0910741 61.46 1.21431 61.0781 1.34465C60.7187 1.46428 60.1146 0.12746 59.7517 0.186526ZM28.4095 51.672C27.7393 51.6563 27.17 51.1061 27.17 50.4256L27.1717 28.2182H19.8526V52.6979C19.8526 53.8976 20.8247 54.8768 22.0174 54.8768H34.8102C36.0115 54.8768 36.9716 53.8976 36.9716 52.6979V28.2182H29.6595L29.6525 50.4256C29.6525 51.1061 29.083 51.6563 28.4095 51.672ZM52.9152 28.2182H41.8376C40.527 28.2182 39.4593 29.2842 39.4593 30.6088V54.8766H46.7852V32.6157C46.7904 31.9335 47.3424 31.3936 48.023 31.3936C48.707 31.3936 49.2556 31.9213 49.2711 32.5967V54.8768H56.5677V32.5964C56.5764 31.9212 57.125 31.3934 57.8072 31.3934C58.4843 31.3934 59.0433 31.9334 59.0486 32.6156V54.8768H66.3745V30.6088C66.3745 29.2842 65.3051 28.2182 63.9945 28.2182H52.9152ZM10.0579 32.6625C10.0631 31.9212 9.459 31.3934 8.81838 31.3934H7.57539V44.8772H8.81838C9.46423 44.8772 10.0632 44.3633 10.0579 43.6256V32.6625ZM14.9691 48.1773H7.57539V54.8768H0.259766V28.2182H15.0161C16.3371 28.2182 17.3683 29.2911 17.3683 30.6192V45.7765C17.3683 47.1063 16.2972 48.1773 14.9691 48.1773ZM91.4794 48.9152C90.009 48.9152 88.7746 50.1859 88.7746 51.7259C88.7746 53.2709 90.009 54.5312 91.5263 54.5312C93.0314 54.5312 94.2501 53.2709 94.2501 51.7259C94.2501 50.1824 93.0314 48.9152 91.5261 48.9152H91.4794ZM94.7744 51.7171C94.7744 53.5277 93.323 55 91.5263 55C89.7103 55 88.2521 53.5383 88.2521 51.7171C88.2521 49.9307 89.7103 48.4378 91.4724 48.4378C93.323 48.4378 94.7744 49.8857 94.7744 51.7171Z" fill="white"/>
<path d="M91.1881 51.5093C91.6967 51.5093 91.9641 51.3287 91.9641 50.9677C91.9641 50.6465 91.7054 50.4816 91.2106 50.4816H91.0648V51.5093H91.1881ZM93.0613 53.6168H92.1881L91.0648 52.1221V53.6168H90.3513V49.8375H91.1013C92.1204 49.8375 92.6619 50.2229 92.6619 50.959C92.6619 51.4502 92.3426 51.8861 91.8963 52.0162L91.8442 52.0354L93.0613 53.6168ZM78.6575 44.8829V32.6075C78.64 31.9286 78.0933 31.4079 77.411 31.4079C76.7356 31.4079 76.1766 31.9495 76.1715 32.6266V44.8829H78.6575ZM78.6575 54.8773V48.1848H76.1715V54.8773H68.8594V30.6093C68.8594 29.2847 69.9269 28.2188 71.2377 28.2188H83.5912C84.9055 28.2188 85.9731 29.2847 85.9731 30.6093V54.8771L78.6575 54.8773Z" fill="white"/>
</svg>
