<svg width="350" height="236" viewBox="0 0 350 236" fill="none" xmlns="http://www.w3.org/2000/svg">
<path d="M113.815 83.5861C113.815 83.5861 189.315 92.5861 204.915 74.0861C204.915 74.0861 194.515 19.1861 183.315 11.5861C163.215 -2.01393 130.015 8.68607 124.715 22.5861C114.115 51.1861 113.815 83.5861 113.815 83.5861Z" fill="white"/>
<path d="M113.715 84.2859C118.215 84.7859 122.615 85.1859 127.115 85.4859C136.915 86.1859 146.815 86.5859 156.715 86.4859C167.415 86.3859 178.115 85.7859 188.615 83.4859C192.915 82.5859 197.015 81.186 200.915 79.2859C202.515 78.4859 204.015 77.486 205.415 76.386C206.015 75.886 207.315 74.986 207.315 74.086C207.215 73.2859 207.115 72.586 206.915 71.886C206.615 70.486 206.315 68.9859 206.015 67.5859C205.115 63.2859 204.115 58.9859 203.115 54.7859C200.615 44.4859 197.815 34.0859 193.715 24.2859C192.215 20.5859 190.515 16.7859 187.915 13.6859C186.615 12.1859 185.015 10.9859 183.315 10.0859C180.315 8.38595 177.115 7.08595 173.815 6.28595C160.415 2.78595 146.215 4.38595 134.015 10.7859C129.615 13.1859 125.315 16.386 123.015 20.886C121.215 24.386 120.215 28.3859 119.115 32.1859C117.915 36.3859 116.815 40.6859 115.915 44.9859C113.415 56.9859 111.915 69.086 111.515 81.386C111.515 81.986 111.515 82.686 111.515 83.2859C111.515 84.3859 116.415 84.7859 116.515 83.9859C116.715 75.4859 117.415 67.0859 118.715 58.6859C119.815 50.6859 121.515 42.6859 123.615 34.7859C124.715 30.6859 126.015 26.5859 127.515 22.6859C128.415 20.6859 129.715 18.7859 131.315 17.2859C135.215 13.3859 140.415 10.686 145.615 8.88595C151.515 6.78595 157.815 5.88594 164.115 6.18594C170.215 6.38594 176.215 8.28595 181.215 11.7859C183.715 13.5859 185.415 16.8859 186.815 19.6859C191.315 28.6859 194.015 38.5859 196.515 48.2859C198.515 56.0859 200.315 63.8859 201.915 71.6859C202.115 72.2859 202.215 72.9859 202.315 73.6859C202.215 74.2859 200.715 75.486 200.115 75.886C197.115 78.086 193.715 79.7859 190.115 80.7859C180.815 83.686 170.915 84.486 161.215 84.886C151.215 85.286 141.615 84.9859 131.615 84.4859C127.915 84.2859 124.215 83.9859 120.515 83.6859L118.415 83.4859L117.515 83.386H117.115C117.215 83.386 117.715 83.486 117.115 83.386L114.715 83.1859L113.915 83.086C113.515 83.086 111.415 82.6859 111.315 83.4859C111.215 84.2859 113.415 84.2859 113.715 84.2859Z" fill="#000005"/>
<path d="M130.115 44.586C141.715 39.686 155.915 32.886 159.915 19.786C160.815 16.786 156.215 15.886 155.315 18.586C151.715 30.386 138.415 36.186 128.015 40.586C126.815 40.986 126.215 42.2859 126.715 43.4859C127.215 44.6859 128.415 45.2859 129.615 44.7859C129.815 44.7859 129.915 44.686 130.115 44.586Z" fill="#000005"/>
<path d="M126.615 40.4861C135.315 33.9861 144.715 26.9861 148.915 16.5861C149.415 15.5861 149.115 14.2861 148.015 13.7861C147.915 13.7861 147.915 13.6861 147.815 13.6861C146.515 13.1861 145.115 13.6861 144.515 14.8861C140.615 24.4861 132.015 30.9861 123.915 36.9861C122.815 37.5861 122.515 38.9861 123.115 39.9861V40.0861C124.015 41.0861 125.515 41.1861 126.615 40.4861Z" fill="#000005"/>
<path d="M194.315 68.586C203.515 55.886 183.915 23.786 183.915 23.786C177.715 23.486 166.915 19.186 166.915 19.186C172.515 37.086 151.715 45.186 151.715 45.186C145.915 35.886 134.815 41.086 136.815 50.686C138.815 60.286 148.315 60.086 148.315 60.086C148.315 60.086 146.815 84.686 148.215 88.486C148.215 88.486 165.515 97.286 173.515 81.986C173.515 81.986 188.015 77.286 194.315 68.586Z" fill="white"/>
<path d="M195.915 70.4859C198.715 66.4859 199.015 61.5859 198.415 56.8859C197.615 51.4859 196.215 46.0859 194.015 41.0859C192.215 36.5859 190.115 32.1859 187.815 27.9859C186.615 25.7859 185.215 21.9859 182.315 21.6859C176.915 21.2859 171.415 19.1859 166.415 17.1859C165.915 16.8859 165.215 17.0859 165.015 17.5859C164.915 17.8859 164.815 18.1859 164.915 18.4859C166.715 23.7859 165.715 29.6859 162.315 34.0859C160.915 35.9859 159.215 37.5859 157.315 38.9859C156.515 39.5859 155.615 40.1859 154.715 40.7859C154.115 41.1859 153.115 41.7859 152.715 41.8859C151.915 42.2859 151.115 42.6859 150.215 43.0859L153.015 44.6859C150.915 41.3859 147.515 38.2859 143.315 38.0859C140.115 37.9859 137.215 39.5859 135.615 42.3859C133.715 45.6859 134.315 50.0859 135.815 53.3859C137.415 56.7859 140.115 59.3859 143.615 60.8859C145.315 61.5859 147.115 61.9859 149.015 61.9859L146.115 58.7859C145.615 66.5859 145.215 74.3859 145.515 82.2859C145.515 83.9859 145.715 85.6859 146.015 87.3859C146.515 89.2859 147.815 90.0859 149.415 90.7859C152.815 92.2859 156.515 92.9859 160.215 92.9859C163.015 92.9859 165.815 92.2859 168.315 90.8859C171.315 89.0859 173.715 86.4859 175.215 83.3859L174.615 83.8859C177.415 82.9859 180.215 81.7859 182.815 80.3859C187.815 77.9859 192.615 74.8859 195.915 70.4859C197.115 68.8859 193.615 65.2859 192.615 66.7859C187.715 73.3859 179.815 76.9859 172.415 79.8859C172.015 80.0859 171.615 80.3859 171.415 80.7859C170.715 81.9859 170.015 83.0859 169.115 84.0859C167.715 85.6859 166.015 86.9859 164.015 87.7859C160.715 89.0859 157.015 89.2859 153.515 88.4859C152.115 88.1859 150.815 87.7859 149.515 87.2859C149.115 87.0859 148.715 86.8859 148.215 86.7859C147.715 86.6859 148.815 87.0859 148.215 86.7859L149.915 88.6859C149.815 88.3859 150.015 89.2859 149.915 88.7859C149.915 88.6859 149.815 88.4859 149.815 88.3859C149.715 88.0859 149.715 87.7859 149.715 87.3859C149.715 87.0859 149.615 86.7859 149.615 86.4859C149.615 85.9859 149.515 85.4859 149.515 84.9859C149.415 82.6859 149.415 80.3859 149.515 77.9859C149.615 73.3859 149.815 68.8859 150.015 64.2859C150.115 63.2859 150.115 62.2859 150.215 61.1859C150.315 59.8859 148.715 57.8859 147.315 57.9859C147.015 57.9859 146.715 57.9859 146.415 57.9859C146.115 57.9859 145.815 57.8859 145.515 57.8859C145.215 57.8859 144.815 57.7859 144.515 57.6859C144.115 57.5859 143.615 57.3859 143.215 57.2859C142.815 57.0859 142.315 56.8859 142.015 56.6859C141.615 56.4859 141.315 56.1859 141.015 55.8859C140.715 55.5859 140.415 55.2859 140.115 54.8859C137.315 51.0859 138.115 43.9859 143.615 42.5859C146.515 41.8859 148.715 43.3859 150.215 45.6859C150.715 46.3859 152.015 47.6859 153.015 47.2859C160.115 44.4859 167.315 38.4859 169.315 30.8859C170.215 27.1859 170.115 23.3859 168.915 19.7859L167.415 21.0859C169.515 21.8859 171.615 22.6859 173.715 23.2859C177.315 24.5859 181.015 25.3859 184.815 25.7859L182.415 24.0859C183.015 25.0859 183.615 26.1859 184.215 27.1859L184.615 27.9859L184.915 28.4859C185.315 29.0859 185.615 29.7859 185.915 30.4859C186.615 31.8859 187.415 33.3859 188.015 34.8859C191.115 41.5859 194.115 48.8859 194.615 56.3859C194.815 59.7859 194.615 63.6859 192.515 66.5859C191.515 68.3859 194.915 71.8859 195.915 70.4859Z" fill="#000005"/>
<path d="M186.016 34.8862C187.116 34.8862 188.016 35.6862 188.116 36.7862C188.116 36.8862 188.116 36.9862 188.116 37.0862C187.916 39.2862 185.116 38.9862 184.716 37.0862C184.416 36.1862 184.816 35.1862 185.716 34.8862C185.816 34.8862 185.916 34.8862 186.016 34.8862Z" fill="#000005"/>
<path d="M136.515 62.6862C136.115 69.0862 135.515 75.5862 134.715 81.9862C134.415 83.8862 138.515 86.5862 138.815 83.9862C139.615 77.5862 140.215 71.1862 140.615 64.6862C140.515 63.4862 139.715 62.3862 138.615 61.8862C137.715 61.4862 136.515 61.4862 136.515 62.6862Z" fill="#000005"/>
<path d="M121.615 56.686C124.415 56.986 127.315 56.786 130.115 55.986C133.015 55.286 135.815 54.186 138.415 52.586C139.015 52.186 136.815 51.786 136.715 51.786C136.115 51.686 135.415 51.686 134.815 51.686C134.415 51.686 134.015 51.686 133.615 51.886C131.415 53.286 129.115 54.286 126.615 54.886C126.015 55.086 125.415 55.186 124.815 55.286L124.015 55.486L123.615 55.586H123.515L122.815 55.686H122.515H122.415C122.815 55.686 121.715 55.686 122.315 55.686C122.415 55.686 122.715 55.686 122.315 55.686H122.815C123.315 55.786 123.515 55.786 123.215 55.786C122.615 55.686 121.915 55.686 121.315 55.686C121.115 55.686 120.315 55.686 120.115 55.886C119.415 56.286 121.415 56.586 121.615 56.686Z" fill="#000005"/>
<path d="M188.515 64.186C188.515 64.086 188.615 63.986 188.615 63.786L188.415 64.286C188.615 63.886 188.915 63.386 189.215 63.086L188.815 63.486C189.115 63.186 189.415 62.886 189.815 62.686L189.315 62.986L189.615 62.786C189.915 62.686 190.115 62.486 190.315 62.286C190.715 61.886 190.815 61.286 190.715 60.786C190.715 60.486 190.515 60.286 190.315 59.986C189.915 59.486 189.415 59.086 188.715 58.986C188.115 58.786 187.415 58.886 186.815 59.086C186.415 59.286 186.015 59.586 185.615 59.886C185.215 60.186 184.915 60.486 184.615 60.886C184.115 61.486 183.815 62.186 183.615 62.886C183.515 63.186 183.515 63.386 183.615 63.686C183.615 63.986 183.815 64.186 184.015 64.486C184.215 64.786 184.415 64.986 184.715 65.086C185.015 65.286 185.315 65.386 185.615 65.486C186.215 65.686 186.915 65.586 187.515 65.386L188.015 65.086C188.215 64.886 188.415 64.586 188.515 64.186Z" fill="#000005"/>
<path d="M326.016 59.5858C326.016 59.5858 295.516 135.386 216.516 140.886L221.516 96.5858C221.516 96.5858 266.116 89.0858 297.516 41.9858L326.016 59.5858Z" fill="#000005"/>
<path d="M323.715 60.2858C322.715 62.7858 321.415 65.2858 320.115 67.6858C316.815 73.8858 313.115 79.8858 309.015 85.5858C303.315 93.5858 296.815 101.086 289.615 107.786C281.215 115.786 271.615 122.486 261.315 127.786C249.515 133.786 236.715 137.586 223.515 139.086C221.615 139.286 219.715 139.486 217.815 139.586L218.715 140.086L220.415 125.086L223.115 101.286L223.715 95.7858L220.515 97.5858C226.815 96.3858 232.915 94.3858 238.815 91.7858C252.915 85.8858 265.915 77.6858 277.215 67.3858C285.715 59.6858 293.215 50.9858 299.615 41.3858L295.315 42.8858L320.315 58.2858L323.815 60.3858C324.615 60.8858 326.215 60.1858 326.915 59.7858C327.215 59.5858 328.915 58.6858 328.115 58.1858L303.115 42.7858L299.615 40.5858C298.615 39.9858 295.915 41.1858 295.315 42.0858C285.215 57.3858 272.115 70.3858 256.715 80.3858C253.715 82.2858 250.915 83.9858 247.815 85.5858C246.415 86.2858 245.015 86.9858 243.615 87.6858C243.015 87.9858 242.315 88.2858 241.615 88.5858L241.015 88.7858L239.815 89.2858C237.515 90.2858 235.115 91.1858 232.715 92.0858L232.315 92.1858L231.615 92.3858C231.115 92.5858 230.615 92.7858 230.015 92.8858C229.115 93.1858 228.215 93.4858 227.315 93.6858L224.915 94.2858C224.515 94.3858 225.515 94.1858 224.915 94.2858L224.515 94.3858L223.715 94.5858C223.215 94.6858 222.715 94.7858 222.215 94.8858C221.515 94.9858 219.115 95.7858 219.015 96.6858L217.315 111.586L214.615 135.486L214.015 140.986C213.915 141.486 214.515 141.486 214.915 141.486C229.515 140.486 243.815 136.986 257.115 130.986C268.615 125.786 279.415 118.986 289.015 110.786C297.015 103.886 304.315 96.0858 310.715 87.5858C315.415 81.3858 319.715 74.7858 323.415 67.8858C324.615 65.7858 325.715 63.5858 326.715 61.4858C327.315 60.4858 327.715 59.4858 328.115 58.3858V58.2858C328.415 57.3858 326.315 57.8858 326.115 57.9858C325.415 58.8858 324.015 59.3858 323.715 60.2858Z" fill="#000005"/>
<path d="M86.1152 168.286C86.1152 168.286 115.615 93.1859 141.815 79.5858C168.015 65.9858 181.115 94.6859 188.015 116.986C194.915 139.286 196.115 195.486 196.115 195.486L86.1152 168.286Z" fill="#000005"/>
<path d="M88.1153 169.886C89.2153 166.986 90.5153 164.086 91.7153 161.186C94.8153 154.086 98.0153 146.986 101.415 139.986C105.715 131.186 110.215 122.586 115.215 114.286C119.915 106.186 125.315 98.5859 131.415 91.4859C137.115 85.1859 143.815 79.7859 152.315 78.2859C156.615 77.4859 161.015 78.1859 164.915 80.2859C166.715 81.2859 168.315 82.5859 169.715 84.0859C171.315 85.7859 172.815 87.5859 174.115 89.5859C177.015 93.9859 179.415 98.5859 181.415 103.486C183.315 108.186 185.015 112.986 186.415 117.786C188.915 126.686 190.015 136.086 191.015 145.286C192.115 155.386 192.815 165.486 193.315 175.586C193.615 181.586 193.915 187.586 194.015 193.486C194.015 193.786 194.015 194.086 194.015 194.386L195.215 193.886L184.215 191.186L157.915 184.686L126.115 176.786L98.6153 169.986C94.2153 168.886 89.7152 167.686 85.3152 166.686H85.1153C84.1153 166.486 83.7153 167.086 84.2153 167.886C84.8153 168.986 85.8152 169.686 87.0152 170.086L97.9153 172.786L124.215 179.386L156.015 187.186L183.515 193.986C187.915 195.086 192.415 196.286 196.815 197.286H197.015C197.415 197.386 198.215 197.386 198.215 196.886C198.115 192.486 197.915 187.986 197.715 183.586C197.315 173.786 196.715 164.086 195.815 154.286C195.115 144.186 193.715 134.086 191.615 124.186C189.215 114.286 185.715 104.686 181.015 95.6859C176.115 86.7859 168.915 77.6859 158.615 75.0859C149.415 72.7859 140.015 76.8859 133.115 82.8859C126.415 88.6859 121.015 95.9859 116.215 103.386C110.715 111.886 105.615 120.586 101.115 129.586C97.1153 137.386 93.4153 145.186 89.9153 153.186C88.0153 157.486 86.1153 161.786 84.4153 166.186L84.2153 166.786C83.5153 168.386 87.7153 170.986 88.1153 169.886Z" fill="#000005"/>
<path d="M133.215 126.986C133.215 126.986 171.615 173.686 207.615 170.186C243.615 166.686 243.615 94.0859 243.615 94.0859L206.115 78.0859L184.115 124.886" fill="#000005"/>
<path d="M131.415 127.286C137.815 134.886 144.815 141.786 152.415 148.186C165.515 159.186 181.115 169.586 198.415 171.886C205.315 172.786 212.615 172.386 218.915 168.986C224.215 166.086 228.315 161.586 231.515 156.486C238.415 145.486 241.615 132.286 243.615 119.586C244.915 111.686 245.615 103.586 245.715 95.5863C245.715 95.4863 245.715 95.2862 245.715 95.1862C245.615 93.9862 244.915 92.9863 243.815 92.5863L210.915 78.5863L206.215 76.5863C205.715 76.3863 204.315 75.8862 203.915 76.6862L196.415 92.4863L184.615 117.586L181.915 123.386C181.415 124.386 182.315 125.386 183.115 125.986C183.615 126.386 185.515 127.286 186.015 126.286L193.515 110.486L205.315 85.3863L208.015 79.5863H205.715L238.615 93.5863L243.315 95.5863L241.415 92.9863C241.315 99.4863 240.915 105.986 240.015 112.386C238.515 124.686 235.915 137.286 230.315 148.486C227.715 153.686 224.415 158.786 219.815 162.586C215.115 166.386 209.315 168.486 203.315 168.486C186.715 168.786 171.215 159.286 158.715 149.486C153.115 145.086 147.815 140.386 142.915 135.386C140.215 132.586 137.515 129.786 135.015 126.786C135.315 127.086 135.315 127.186 135.015 126.786C134.315 125.986 133.115 124.986 131.915 125.186C130.715 125.386 130.815 126.486 131.415 127.286Z" fill="#000005"/>
<path d="M268.916 65.3859C283.22 65.3859 294.816 53.7901 294.816 39.4859C294.816 25.1818 283.22 13.5859 268.916 13.5859C254.611 13.5859 243.016 25.1818 243.016 39.4859C243.016 53.7901 254.611 65.3859 268.916 65.3859Z" fill="white"/>
<path d="M292.516 40.3858C291.716 50.7858 284.816 59.6858 275.016 62.9858C270.316 64.5858 265.116 64.6858 260.416 63.1858C256.116 61.5858 252.416 58.6858 249.916 54.8858C243.916 46.1858 243.916 34.6858 249.816 25.8858C255.416 17.5858 266.016 12.8858 275.916 15.1858C286.716 17.7858 293.216 29.5858 292.516 40.3858C292.416 41.6858 297.016 42.8858 297.116 42.2858C297.916 30.4858 290.816 20.1858 280.316 15.2858C269.816 10.3858 257.016 11.4858 248.516 19.8858C240.416 27.9858 238.416 40.4858 243.716 50.6858C249.216 60.9858 261.516 67.3858 273.016 66.3858C285.816 65.2858 296.016 55.0858 297.116 42.2858C297.116 40.9858 292.516 39.7858 292.516 40.3858Z" fill="#23CF00"/>
<path d="M321.215 68.7858C335.52 68.7858 347.115 57.19 347.115 42.8858C347.115 28.5817 335.52 16.9858 321.215 16.9858C306.911 16.9858 295.315 28.5817 295.315 42.8858C295.315 57.19 306.911 68.7858 321.215 68.7858Z" fill="white"/>
<path d="M344.616 44.7859C343.816 54.4859 337.015 63.3859 327.515 66.0859C318.015 68.6859 307.816 64.9859 302.216 56.8859C296.416 48.4859 296.416 37.2859 302.316 28.8859C308.016 20.8859 318.116 17.1859 327.616 19.7859C338.416 22.7859 345.316 33.6859 344.616 44.7859C344.416 47.2859 349.416 47.3859 349.616 44.8859C350.316 33.1859 343.715 22.2859 333.015 17.5859C321.915 12.7859 309.015 15.2859 300.515 23.8859C292.415 32.3859 290.615 45.0859 295.915 55.4859C301.615 66.0859 313.216 72.0859 325.216 70.4859C338.416 68.6859 348.516 57.9859 349.716 44.7859C349.816 42.2859 344.816 42.1859 344.616 44.7859Z" fill="#23CF00"/>
<path d="M213.516 45.6862L182.516 42.8862C182.516 42.8862 178.016 38.2862 183.816 31.9862L224.016 30.3862L213.516 45.6862Z" fill="#23CF00"/>
<path d="M211.415 62.2862C211.415 62.2862 204.615 55.1862 208.615 42.3862C212.615 29.5862 219.215 30.5862 219.715 32.5862C219.715 32.5862 222.215 24.3862 227.115 24.5862C232.015 24.7862 232.515 26.6862 232.515 26.6862C232.515 26.6862 237.715 20.4862 242.615 24.5862C247.515 28.6862 241.115 35.3862 242.015 43.4862C242.915 51.5862 251.015 54.2862 250.515 65.3862C250.015 76.4862 243.515 93.9862 243.515 93.9862C243.515 93.9862 206.215 81.8862 206.015 80.0862C205.815 78.2862 211.415 62.2862 211.415 62.2862Z" fill="white"/>
<path d="M213.216 61.4859C213.016 61.2859 212.816 61.0859 212.716 60.7859C212.616 60.4859 212.316 60.2859 212.116 59.9859C211.816 59.5859 212.116 60.0859 212.016 59.7859L211.616 59.1859C210.416 56.7859 209.716 54.1859 209.616 51.5859C209.516 47.4859 210.416 43.4859 212.216 39.7859C212.816 38.3859 213.716 36.9859 214.716 35.7859C215.116 35.3859 215.516 34.9859 215.916 34.6859L216.516 34.2859L216.816 34.0859C217.116 33.8859 216.416 34.2859 216.916 34.0859L217.516 33.7859L217.816 33.6859C217.516 33.6859 218.216 33.5859 217.816 33.6859L218.416 33.5859C217.916 33.6859 218.216 33.4859 218.416 33.5859C217.816 33.3859 218.616 33.6859 218.416 33.5859C218.716 33.6859 217.816 33.2859 218.116 33.4859C218.416 33.6859 218.416 33.7859 217.816 33.2859C218.216 33.5859 217.516 32.8859 217.716 33.0859L217.516 32.5859C217.916 34.4859 221.416 36.0859 222.216 33.5859L222.316 33.3859C222.116 33.8859 222.316 33.4859 222.416 33.2859C222.616 32.6859 222.916 32.1859 223.116 31.5859C223.716 30.1859 224.616 28.9859 225.616 27.8859C226.116 27.3859 226.716 27.0859 227.316 26.8859C228.116 26.7859 228.916 26.8859 229.616 27.0859C229.816 27.1859 230.116 27.1859 230.316 27.2859C230.516 27.3859 231.016 27.4859 230.416 27.2859C230.516 27.2859 230.616 27.3859 230.716 27.4859C230.216 26.9859 230.516 27.3859 230.616 27.4859C230.716 27.5859 230.416 27.2859 230.416 27.2859C230.416 27.2859 230.616 27.5859 230.416 27.1859C230.216 26.7859 230.516 27.7859 230.216 26.6859C230.416 27.5859 231.116 28.2859 232.016 28.6859C232.616 28.9859 233.916 29.1859 234.416 28.5859C235.516 27.1859 236.916 26.1859 238.516 25.5859C240.616 24.9859 242.116 26.4859 242.116 28.4859C242.116 31.5859 240.616 34.5859 240.016 37.5859C239.316 40.7859 239.516 44.0859 240.616 47.1859C242.516 52.1859 246.816 55.5859 247.916 60.8859C248.416 64.0859 248.316 67.3859 247.616 70.4859C247.016 73.7859 246.316 76.9859 245.516 80.1859C244.316 84.5859 243.016 88.9859 241.516 92.9859L244.016 92.3859C236.816 90.0859 229.716 87.6859 222.616 85.1859C218.316 83.6859 213.916 82.0859 209.716 80.3859C209.416 80.2859 209.216 80.1859 209.616 80.3859L209.116 80.1859L208.216 79.7859L207.616 79.4859C207.116 79.2859 208.116 79.9859 207.716 79.4859C208.016 79.7859 208.216 80.0859 208.416 80.4859C208.416 80.5859 208.416 81.0859 208.516 80.8859C208.616 80.5859 208.616 80.1859 208.716 79.8859C208.916 78.8859 209.216 77.8859 209.516 76.9859C210.316 74.0859 211.316 71.1859 212.216 68.3859C212.616 67.1859 213.016 65.9859 213.416 64.8859C213.516 64.6859 213.416 64.9859 213.416 64.9859L213.516 64.5859L213.616 64.1859L213.716 63.7859C214.016 62.6859 213.516 61.4859 212.416 60.9859C211.716 60.5859 209.716 60.1859 209.316 61.3859C207.916 65.4859 206.516 69.6859 205.216 73.8859C204.516 75.7859 204.016 77.6859 203.716 79.6859C203.616 81.3859 205.116 82.3859 206.516 83.0859C210.516 84.9859 214.516 86.5859 218.716 87.8859C223.816 89.7859 229.016 91.4859 234.216 93.2859C237.216 94.2859 240.316 95.2859 243.316 96.2859C244.016 96.4859 245.416 96.5859 245.816 95.6859C247.316 91.6859 248.616 87.6859 249.716 83.5859C250.716 80.1859 251.516 76.6859 252.116 73.1859C252.916 69.6859 253.016 66.0859 252.716 62.5859C252.116 59.3859 250.916 56.3859 249.116 53.7859C247.616 51.4859 246.016 49.5859 245.016 47.0859C243.716 43.9859 244.316 40.4859 245.216 37.2859C246.016 34.3859 247.416 31.1859 246.716 28.0859C245.516 23.8859 241.416 21.1859 237.016 21.7859C234.516 22.2859 232.316 23.6859 230.716 25.5859L234.916 27.4859C234.316 25.8859 233.016 24.5859 231.316 24.0859C228.916 23.0859 225.716 22.5859 223.316 23.8859C220.216 25.4859 218.416 29.0859 217.416 32.3859L222.116 33.3859C221.516 30.9859 218.916 29.7859 216.616 29.9859C213.916 30.1859 211.716 32.0859 210.216 34.1859C207.516 38.0859 205.816 42.5859 205.316 47.2859C204.816 51.0859 205.316 54.9859 206.816 58.6859C207.516 60.4859 208.416 62.0859 209.716 63.5859C210.516 64.5859 211.816 64.9859 213.016 64.6859C213.816 64.2859 214.116 63.2859 213.716 62.5859C213.516 61.7859 213.416 61.6859 213.216 61.4859Z" fill="#000005"/>
<path d="M222.015 45.8862C221.915 45.5862 221.815 45.1862 221.715 44.8862C221.615 44.4862 221.515 44.0862 221.415 43.6862C221.315 43.2862 221.415 43.7862 221.415 43.5862L221.315 43.1862C221.315 42.8862 221.215 42.5862 221.215 42.3862C220.815 39.4862 221.115 36.4862 222.015 33.7862C222.315 32.7862 221.215 31.8862 220.415 31.4862C219.915 31.2862 217.915 30.3862 217.615 31.3862C216.615 34.3862 216.315 37.5862 216.715 40.6862C216.915 42.0862 217.215 43.4862 217.715 44.7862C218.315 45.8862 219.315 46.5862 220.515 46.7862C221.115 46.9862 222.415 46.8862 222.015 45.8862Z" fill="#000005"/>
<path d="M230.115 26.4861C229.015 28.3861 228.215 30.4861 227.615 32.5861C226.315 36.5861 226.415 40.9861 227.915 44.9861C228.415 45.9861 229.715 46.4861 230.715 46.0861C231.515 45.8861 233.215 44.8861 232.715 43.7861C230.515 38.3861 231.715 31.9861 234.715 27.1861C235.315 26.1861 234.215 25.1861 233.215 25.0861C232.015 24.8861 230.815 25.3861 230.115 26.4861Z" fill="#000005"/>
<path d="M268.715 22.186C268.715 22.186 274.315 24.486 271.615 29.786C268.915 35.086 262.515 31.686 263.415 26.486C264.315 21.286 268.715 22.186 268.715 22.186Z" fill="#000005"/>
<path d="M321.915 26.9863C321.915 26.9863 327.515 29.3863 324.815 34.5863C322.115 39.7863 315.715 36.4863 316.615 31.2863C317.515 26.0863 321.915 26.9863 321.915 26.9863Z" fill="#000005"/>
<path d="M179.615 41.3861C183.915 42.0861 188.315 42.0861 192.615 41.4861C207.315 39.7861 210.315 44.1861 206.815 48.1861C203.315 52.1861 183.615 55.5861 183.615 55.5861" fill="white"/>
<path d="M180.315 43.186C184.815 43.886 189.315 43.986 193.815 43.386C196.815 42.986 199.815 42.886 202.815 43.186C203.715 43.286 204.515 43.486 205.415 43.786L205.915 43.986C205.415 43.786 205.915 43.986 206.015 44.086C205.715 43.686 206.415 44.486 206.015 44.086C205.815 43.886 206.315 44.486 206.015 44.086C205.415 43.586 205.915 43.986 205.915 43.986C205.415 43.586 206.015 43.786 205.915 43.986C205.815 44.186 205.915 43.886 205.915 43.886C205.915 43.986 205.915 44.086 205.915 44.186C205.915 44.586 205.915 43.786 205.915 44.286C205.915 44.386 205.915 44.486 205.815 44.686C205.715 44.886 205.715 45.186 205.615 45.386C205.015 46.486 204.015 47.386 202.915 47.886C199.315 49.786 195.115 50.786 191.115 51.786C188.215 52.486 185.215 53.086 182.315 53.686C179.915 54.086 183.015 57.786 184.715 57.486C187.515 56.986 190.215 56.386 193.015 55.786C197.415 54.686 202.115 53.686 206.115 51.586C208.715 50.186 211.115 47.486 209.715 44.386C207.615 39.786 201.215 39.186 196.815 39.186C190.815 39.286 184.715 40.686 178.715 39.486C177.615 39.286 177.115 40.086 177.415 40.986C178.115 42.186 179.115 42.986 180.315 43.186Z" fill="#000005"/>
<path d="M171.915 38.9862C172.415 38.8862 172.815 38.8862 173.315 38.9862L173.015 38.8862C173.515 38.9862 174.015 39.0862 174.415 39.2862L174.015 39.0862L174.315 39.2862C174.515 39.3862 175.015 39.6862 175.315 39.3862C175.615 39.0862 175.515 38.6862 175.415 38.3862C175.215 37.7862 174.915 37.2862 174.515 36.7862C174.115 36.2862 173.715 35.8862 173.215 35.5862C172.015 34.8862 170.715 34.5862 169.315 34.6862C168.915 34.6862 168.815 35.0862 168.915 35.3862C168.915 35.5862 169.015 35.8862 169.115 36.0862C169.215 36.3862 169.315 36.5862 169.515 36.8862C169.815 37.4862 170.315 37.8862 170.815 38.2862C171.015 38.7862 171.415 38.8862 171.915 38.9862Z" fill="#000005"/>
<path d="M326.815 4.18613L329.315 1.08614C329.415 0.986136 329.515 0.886127 329.415 0.686127C329.415 0.586127 329.415 0.486139 329.215 0.386139C329.015 0.286139 328.915 0.286133 328.715 0.286133C328.515 0.286133 328.215 0.286139 328.015 0.386139C327.415 0.586139 326.815 0.786136 326.215 1.08614C325.715 1.28614 325.315 1.68613 325.015 1.98613L322.515 5.08614C322.415 5.18614 322.315 5.28613 322.415 5.48613C322.415 5.58613 322.415 5.68613 322.615 5.78613C322.815 5.88613 322.915 5.88614 323.115 5.88614C323.315 5.88614 323.615 5.88613 323.815 5.78613C324.415 5.58613 325.015 5.38614 325.615 5.08614C326.015 4.88614 326.415 4.48613 326.815 4.18613Z" fill="#000005"/>
<path d="M333.015 7.58604L343.115 0.786037C343.315 0.686037 343.415 0.386031 343.215 0.186031C343.015 -0.0139694 342.215 0.0860397 342.015 0.0860397C340.815 0.18604 339.715 0.586031 338.815 1.18603L328.715 7.98603C328.515 8.08603 328.415 8.38604 328.615 8.58604C328.815 8.78604 329.615 8.68603 329.815 8.68603C330.915 8.58603 332.015 8.18604 333.015 7.58604Z" fill="#000005"/>
<path d="M14.1338 232.422C14.1338 232.422 29.6338 163.422 128.134 130.522C226.634 97.6223 284.834 232.422 284.834 232.422H14.1338Z" fill="#23CF00"/>
<path d="M16.3337 233.322C17.1337 229.922 18.3337 226.622 19.7337 223.422L20.2337 222.322L20.5337 221.722C20.6337 221.522 20.9337 220.822 20.6337 221.522C21.0337 220.622 21.4337 219.722 21.8337 218.922C22.7337 216.922 23.7337 215.022 24.7337 213.122C27.2337 208.522 30.0337 204.022 33.0337 199.722C41.1337 188.322 50.7337 178.022 61.5337 169.122C76.2337 157.122 92.6337 147.322 110.134 140.022C126.534 133.022 143.834 127.122 161.834 127.822C175.934 128.422 189.734 132.122 202.134 138.822C208.234 142.022 214.034 145.822 219.534 149.922C222.234 152.022 224.834 154.122 227.434 156.322C230.034 158.522 232.134 160.522 234.734 163.122C243.934 172.222 252.234 182.222 259.634 192.822C260.534 194.022 261.334 195.222 262.134 196.522L262.334 196.922C262.034 196.522 262.334 196.822 262.334 196.922C262.534 197.222 262.734 197.522 262.934 197.822L264.134 199.622C265.634 201.922 267.134 204.222 268.534 206.522C270.934 210.422 273.334 214.422 275.534 218.522C278.034 223.122 280.434 227.822 282.634 232.622L282.934 233.222L284.434 229.922H24.5337C21.0337 229.922 17.5337 229.822 14.0337 229.922C13.8337 229.922 13.7337 229.922 13.5337 229.922C12.2337 229.922 11.5337 231.522 11.8337 232.622C12.1337 233.922 13.3337 234.722 14.6337 234.722H274.334C277.834 234.722 281.334 234.822 284.834 234.722H285.334C287.034 234.722 287.334 232.622 286.834 231.422C285.334 228.022 283.634 224.622 281.934 221.322C277.534 212.922 272.734 204.722 267.534 196.822C260.534 186.122 252.734 176.022 244.034 166.622C234.634 156.222 223.934 147.122 212.134 139.522C199.834 131.822 186.234 126.122 171.834 124.022C164.334 122.922 156.634 122.722 149.034 123.522C140.434 124.522 131.834 126.422 123.734 129.422C104.034 136.122 85.3337 145.622 68.2337 157.522C55.5337 166.522 44.1337 177.222 34.3337 189.322C27.6337 197.622 21.9337 206.622 17.4337 216.222C15.1337 220.922 13.2337 225.822 11.8337 230.922C11.7337 231.122 11.7337 231.322 11.6337 231.622C11.3337 232.922 12.0337 234.222 13.2337 234.722C14.3337 235.222 15.5337 234.722 16.0337 233.622C16.3337 233.522 16.3337 233.422 16.3337 233.322Z" fill="#23CF00"/>
<path d="M1.93421 235.123H10.8342L32.7342 235.023L64.4342 234.923L102.934 234.823L144.934 234.723L187.234 234.623L226.834 234.523L260.534 234.423L285.034 234.323H297.334H298.134C299.434 234.323 300.534 233.523 300.934 232.323C301.134 231.323 300.434 230.423 299.434 230.323C299.334 230.323 299.134 230.323 298.934 230.323H290.134L268.234 230.423L236.534 230.523L198.034 230.623L156.034 230.723L113.734 230.823L74.1342 230.923L40.4342 231.023L15.9342 231.123H3.6342H2.83421C1.53421 231.123 0.434206 231.923 0.0342058 233.123C-0.165794 234.123 0.534206 235.023 1.53421 235.123C1.63421 235.123 1.73421 235.123 1.93421 235.123Z" fill="#23CF00"/>
<path d="M44.5341 140.123C44.5341 140.123 36.0341 163.423 27.4341 162.123C18.8341 160.823 14.0341 156.123 17.8341 148.723C21.6341 141.323 46.3341 130.123 44.5341 140.123Z" fill="white"/>
<path d="M42.3344 139.123C42.3344 139.223 42.2344 139.223 42.2344 139.323C42.2344 139.423 42.1344 139.523 42.1344 139.623C42.1344 139.723 42.2344 139.323 42.1344 139.723C41.8344 140.523 41.4344 141.323 41.1344 142.123C40.1344 144.523 38.9344 146.923 37.7344 149.323C36.3344 151.923 34.7344 154.423 32.8344 156.723C31.3344 158.423 29.5344 160.223 27.3344 160.423C27.6344 160.423 27.1344 160.423 26.9344 160.423C26.6344 160.423 26.3344 160.323 26.0344 160.323C25.1344 160.123 24.1344 159.923 23.2344 159.623C22.4344 159.423 21.7344 159.023 21.0344 158.623C20.5344 158.323 20.1344 157.923 19.7344 157.423C18.0344 155.223 18.7344 151.823 20.2344 149.523C21.6344 147.623 23.4344 145.923 25.4344 144.723C27.9344 143.023 30.6344 141.523 33.4344 140.323C34.8344 139.723 36.2344 139.223 37.6344 138.823C38.3344 138.623 39.0344 138.423 39.7344 138.323L40.7344 138.223C40.9344 138.223 41.0344 138.223 41.2344 138.223C41.5344 138.223 41.8344 138.223 42.0344 138.223C42.7344 138.223 41.9344 138.223 42.4344 138.223C42.5344 138.223 42.6344 138.223 42.7344 138.323C43.0344 138.423 42.2344 138.123 42.6344 138.323C43.0344 138.523 42.4344 138.223 42.2344 138.023C42.6344 138.423 42.1344 137.823 42.0344 137.723C42.0344 137.823 42.1344 137.823 42.1344 137.923C42.0344 138.023 42.1344 137.823 42.1344 137.923C42.4344 138.223 42.4344 138.623 42.3344 139.123C42.0344 141.023 46.4344 143.223 46.8344 141.023C47.3344 137.923 45.4344 135.523 42.5344 134.523C40.0344 133.723 37.1344 134.323 34.6344 135.023C28.4344 136.823 21.9344 140.223 17.5344 144.923C15.1344 147.323 14.0344 150.723 14.5344 154.023C15.3344 158.223 19.2344 161.123 23.0344 162.523C26.4344 163.723 30.1344 164.623 33.3344 162.623C35.9344 160.823 38.0344 158.523 39.6344 155.823C42.6344 151.223 45.0344 146.223 46.9344 141.023C47.4344 139.323 43.1344 136.923 42.3344 139.123Z" fill="#000005"/>
<path d="M44.3347 131.222C44.3347 131.222 26.4347 120.622 17.1347 126.122C7.83473 131.622 9.53473 144.022 25.3347 141.822C41.1347 139.622 45.9347 134.522 44.3347 131.222Z" fill="white"/>
<path d="M43.4348 129.223C39.5348 126.923 35.3348 125.123 31.0348 123.823C24.9348 122.023 17.6348 121.323 12.9348 126.423C11.1348 128.223 10.1348 130.623 10.1348 133.123C10.1348 136.223 12.0348 139.223 14.3348 141.323C16.7348 143.323 19.8348 144.423 22.9348 144.323C27.5348 144.223 32.0348 143.423 36.4348 142.023C40.6348 140.723 48.2348 137.823 45.7348 132.123C45.1348 131.023 44.4348 129.623 43.4348 129.223C42.5348 128.923 42.9348 130.123 43.1348 130.523C43.1348 130.623 43.0348 130.423 43.0348 130.223C43.0348 130.323 43.0348 130.523 43.1348 130.623C43.1348 130.823 43.1348 131.123 43.0348 131.323C42.8348 132.023 42.4348 132.623 41.9348 133.123C40.2348 134.823 38.1348 136.023 35.8348 136.723C31.9348 138.123 27.9348 139.123 23.7348 139.623C20.6348 140.023 17.1348 140.023 14.3348 138.623C13.8348 138.423 13.4348 138.123 13.0348 137.723C13.3348 138.023 12.6348 137.323 12.9348 137.623C13.0348 137.723 13.3348 138.123 13.1348 137.823C12.9348 137.523 13.3348 138.223 13.1348 137.823C13.1348 137.923 13.3348 138.123 13.1348 137.823C13.1348 137.723 13.0348 137.523 13.0348 137.423C12.9348 136.923 12.9348 136.423 12.9348 135.923C13.1348 133.623 14.2348 131.523 15.8348 130.023C20.3348 125.623 26.7348 126.023 32.4348 127.623C36.9348 128.823 41.1348 130.723 45.1348 133.023C46.0348 133.623 45.5348 132.023 45.4348 131.723C45.1348 130.823 44.3348 129.923 43.4348 129.223Z" fill="#000005"/>
<path d="M48.8342 126.622C48.8342 126.622 33.4342 104.622 26.7342 105.522C20.0342 106.422 17.2342 111.523 20.4342 118.323C23.6342 125.123 41.3342 132.123 45.6342 130.323C49.9342 128.523 48.8342 126.622 48.8342 126.622Z" fill="white"/>
<path d="M51.1339 126.523C48.7339 123.123 46.1339 119.823 43.4339 116.623C41.3339 114.123 39.0339 111.723 36.6339 109.523C34.6339 107.523 32.2339 105.923 29.5339 104.923C26.0339 103.823 22.2339 104.523 19.3339 106.823C16.3339 109.223 16.1339 113.323 17.3339 116.723C18.5339 120.123 20.8339 122.323 23.6339 124.323C26.9339 126.523 30.5339 128.423 34.3339 129.723C37.7339 131.023 41.6339 132.223 45.3339 131.923C47.3339 131.823 49.1339 130.923 50.5339 129.523C51.2339 128.823 51.5339 127.823 51.2339 126.923C50.5339 126.023 49.5339 125.523 48.4339 125.523C48.0339 125.523 45.9339 125.623 46.4339 126.523C46.5339 126.623 46.5339 126.923 46.5339 126.723C46.5339 127.123 46.3339 127.523 46.1339 127.823C45.5339 128.423 44.8339 128.923 44.0339 129.223C43.9339 129.223 43.2339 129.523 43.8339 129.323L43.5339 129.423C43.0339 129.623 43.6339 129.423 43.2339 129.423H42.8339C42.5339 129.423 43.2339 129.423 42.9339 129.423L42.1339 129.323C41.5339 129.323 42.3339 129.423 41.7339 129.323L40.6339 129.123C39.3339 128.823 38.0339 128.423 36.7339 128.023C33.7339 127.023 30.8339 125.623 28.1339 123.823C25.9339 122.423 23.6339 120.723 22.6339 118.223C21.3339 115.223 20.8339 111.523 23.2339 108.923C24.3339 107.823 25.7339 107.123 27.2339 106.823C27.5339 106.723 27.8339 106.723 27.9339 106.723C27.9339 106.723 27.3339 106.623 27.7339 106.723C27.9339 106.723 28.1339 106.823 27.5339 106.723C28.1339 106.823 27.2339 106.723 27.6339 106.723C27.7339 106.723 27.8339 106.823 27.9339 106.823C27.6339 106.723 28.3339 106.923 27.9339 106.823C28.8339 107.223 29.6339 107.723 30.3339 108.323C31.3339 109.123 32.3339 109.923 33.2339 110.823C35.3339 112.823 37.2339 114.923 39.1339 117.223C41.7339 120.323 44.3339 123.623 46.6339 126.923C47.2339 127.823 48.9339 128.123 49.9339 128.023C50.7339 127.823 51.7339 127.423 51.1339 126.523Z" fill="#000005"/>
<path d="M53.234 124.122C53.234 124.122 56.734 93.3225 47.334 91.4225C37.934 89.5225 32.634 95.5225 35.234 105.322C37.834 115.122 47.034 125.522 49.834 125.822C52.634 126.122 53.234 124.122 53.234 124.122Z" fill="white"/>
<path d="M55.1339 125.322C55.5339 121.522 55.7339 117.822 55.8339 114.022C55.9339 108.022 55.8339 101.222 53.3339 95.6223C52.1339 93.0223 50.3339 90.5223 47.6339 89.5223C44.1339 88.2223 40.1339 88.6223 36.9339 90.5223C33.9339 92.5223 32.7339 96.1223 32.8339 99.6223C32.9339 104.622 35.0339 109.422 37.4339 113.622C39.8339 118.122 42.9339 122.122 46.7339 125.422C47.9339 126.422 49.3339 127.622 50.9339 127.722C52.5339 127.822 54.5339 127.222 55.2339 125.622C55.9339 124.022 52.4339 120.522 51.6339 122.322C51.0339 123.122 50.0339 123.522 49.0339 123.422C48.9339 123.422 48.6339 123.422 49.1339 123.422L48.9339 123.322C48.9339 123.322 48.4339 123.022 49.0339 123.322L48.7339 123.122C48.6339 123.022 48.0339 122.622 48.4339 122.922C48.1339 122.722 47.8339 122.422 47.5339 122.122C46.3339 121.022 45.2339 119.822 44.2339 118.522C43.0339 116.922 41.8339 115.222 40.8339 113.522C37.8339 108.422 33.6339 98.8223 39.9339 94.3223C41.1339 93.5223 42.5339 93.1223 44.0339 93.0223C44.8339 92.9223 45.6339 92.9223 46.3339 93.0223C46.7339 93.0223 47.2339 93.1223 47.6339 93.2223C47.8339 93.2223 48.1339 93.3223 48.4339 93.3223C48.1339 93.2223 48.7339 93.3223 48.4339 93.3223C48.5339 93.3223 49.1339 93.6223 48.8339 93.5223C48.5339 93.4223 49.4339 93.9223 48.9339 93.6223C48.4339 93.3223 49.1339 93.8223 49.2339 93.9223C48.7339 93.5223 49.1339 93.8223 49.3339 94.1223C49.7339 94.5223 49.1339 93.7223 49.4339 94.3223L49.7339 94.9223C49.7339 95.0223 49.9339 95.3223 49.7339 94.8223C49.7339 94.9223 49.8339 95.0223 49.9339 95.1223C50.0339 95.4223 50.1339 95.7223 50.3339 96.0223C50.5339 96.3223 50.5339 96.5223 50.6339 96.8223L50.7339 97.2223C50.6339 96.9223 50.7339 97.2223 50.7339 97.3223C50.9339 98.0223 51.0339 98.7223 51.2339 99.3223C51.5339 100.622 51.6339 102.022 51.8339 103.422C52.1339 106.122 52.2339 108.822 52.1339 111.522C52.1339 115.222 51.9339 119.022 51.5339 122.722C51.5339 123.922 52.2339 125.122 53.3339 125.722C53.9339 126.222 55.0339 126.422 55.1339 125.322Z" fill="#000005"/>
<path d="M57.5342 124.222C57.5342 124.222 76.1342 106.922 73.9342 101.122C71.7342 95.3224 63.9342 93.4224 60.0342 96.0224C56.1342 98.6224 50.2342 122.422 53.3342 124.022C56.4342 125.622 57.5342 124.222 57.5342 124.222Z" fill="white"/>
<path d="M59.0345 126.123C62.4345 123.023 65.5345 119.623 68.5345 116.123C70.7345 113.623 72.7345 110.923 74.4345 108.023C75.7345 105.623 76.6345 102.923 75.6345 100.223C73.8345 96.1226 70.0345 93.2226 65.6345 92.6226C62.6345 92.1226 59.0345 92.7226 57.2345 95.3226C55.6345 97.7226 54.5345 100.423 53.7345 103.223C52.6345 106.723 51.7345 110.223 51.0345 113.823C50.5345 116.823 49.8345 120.223 50.6345 123.223C51.0345 124.923 52.3345 126.323 54.0345 126.823C55.5345 127.323 57.9345 127.623 59.0345 126.123C59.7345 125.123 59.6345 123.723 58.7345 122.723C58.1345 121.923 56.6345 121.223 55.8345 122.323C55.6345 122.523 55.7345 122.423 55.8345 122.323C56.2345 122.023 55.4345 122.423 55.7345 122.423C55.0345 122.423 54.4345 122.223 53.8345 121.923C53.2345 121.723 54.2345 122.323 54.3345 122.423L54.2345 122.323C54.2345 122.323 54.6345 122.923 54.4345 122.623C54.2345 122.323 54.6345 122.723 54.5345 122.923L54.4345 122.523V122.423L54.5345 122.823C54.5345 122.723 54.5345 122.523 54.5345 122.423C54.5345 121.923 54.4345 121.523 54.4345 121.023C54.4345 120.923 54.4345 120.023 54.4345 120.523C54.4345 120.223 54.4345 119.923 54.5345 119.623C54.6345 118.223 54.8345 116.923 55.1345 115.523C56.1345 110.023 57.5345 104.423 60.2345 99.5226C60.3345 99.4226 60.6345 98.8226 60.3345 99.3226C60.4345 99.1226 60.5345 99.0226 60.6345 98.8226C60.7345 98.6226 60.8345 98.5226 60.9345 98.4226C61.0345 98.3226 61.0345 98.3226 61.1345 98.2226C61.2345 98.1226 60.7345 98.4226 61.0345 98.3226C62.2345 97.6226 63.6345 97.3226 65.0345 97.4226C66.5345 97.5226 67.9345 97.9226 69.1345 98.6226C69.7345 99.0226 70.3345 99.4226 70.8345 100.023C71.2345 100.523 71.5345 101.023 71.8345 101.623C71.8345 101.723 71.8345 101.823 71.9345 101.823C72.0345 102.123 71.7345 101.223 71.9345 101.623C71.9345 101.823 71.9345 102.323 71.9345 101.723C71.9345 101.923 71.9345 102.123 71.8345 102.323C71.7345 102.523 71.5345 103.223 71.7345 102.723C71.3345 103.823 70.8345 104.823 70.2345 105.823C68.7345 108.223 67.0345 110.423 65.2345 112.523C62.2345 116.023 59.1345 119.323 55.8345 122.423C54.1345 124.023 57.0345 128.023 59.0345 126.123Z" fill="#000005"/>
<path d="M56.8347 135.422C56.8347 135.422 45.0347 143.622 42.8347 140.822C40.6347 138.022 41.8347 127.322 51.0347 123.522C60.2347 119.722 60.7347 127.822 56.8347 135.422Z" fill="white"/>
<path d="M55.7344 133.123C53.6344 134.623 51.4344 135.923 49.1344 137.123C48.3344 137.523 47.5344 137.923 46.6344 138.223C46.2344 138.323 45.8344 138.523 45.4344 138.623L44.8344 138.823C44.5344 138.923 44.7344 138.823 44.8344 138.823L44.5344 138.923C44.2344 139.023 43.9344 139.023 43.6344 139.023H43.2344C43.8344 139.023 43.3344 139.023 43.1344 138.923C43.1344 138.923 43.6344 139.123 43.3344 139.023C43.0344 138.923 43.2344 138.923 43.4344 139.123C43.4344 139.123 43.8344 139.623 43.7344 139.423C43.4344 139.023 44.0344 140.023 43.8344 139.623L43.7344 139.423C43.5344 139.023 43.8344 139.723 43.8344 139.723C43.7344 139.423 43.6344 139.123 43.6344 138.823C43.6344 138.623 43.5344 138.423 43.5344 138.223C43.5344 138.023 43.5344 137.823 43.5344 137.623C43.5344 137.023 43.5344 137.823 43.5344 137.423C43.5344 137.023 43.6344 136.523 43.7344 136.123C44.0344 134.423 44.6344 132.723 45.5344 131.223C46.7344 129.323 48.3344 127.823 50.2344 126.723C51.3344 126.023 52.6344 125.523 53.8344 125.223C54.3344 125.123 54.7344 125.023 55.2344 125.023H55.8344H56.1344C55.7344 125.023 56.2344 125.023 56.3344 125.023C56.4344 125.023 57.0344 125.223 56.7344 125.123C56.4344 125.023 57.0344 125.323 57.1344 125.323C57.2344 125.323 56.7344 125.023 57.0344 125.223C57.1344 125.323 57.3344 125.623 57.1344 125.223C57.3344 125.723 57.0344 125.023 57.0344 125.023L57.1344 125.323C57.3344 125.723 57.0344 124.823 57.1344 125.123C57.2344 125.423 57.2344 125.623 57.3344 125.823C57.1344 125.123 57.3344 125.923 57.3344 126.123C57.3344 126.323 57.3344 127.023 57.3344 126.523C57.1344 129.023 56.4344 131.523 55.1344 133.723C54.2344 135.523 57.2344 139.323 58.4344 136.923C60.6344 132.523 62.6344 125.723 58.5344 121.723C56.6344 119.823 53.9344 119.923 51.5344 120.623C48.7344 121.423 46.3344 122.923 44.3344 125.023C41.1344 128.523 39.6344 133.123 40.1344 137.823C40.4344 139.923 41.2344 142.323 43.2344 143.323C44.9344 144.123 46.8344 143.423 48.4344 142.823C51.7344 141.523 54.8344 139.823 57.7344 137.723C58.5344 136.923 58.7344 135.723 58.1344 134.723C57.9344 134.023 56.7344 132.523 55.7344 133.123Z" fill="#000005"/>
<path d="M70.5343 179.222C70.5343 177.222 70.3343 175.222 69.7343 173.222C69.0343 169.922 68.3343 166.622 67.4343 163.422C65.7343 156.322 63.5343 149.222 61.0343 142.322C60.2343 140.122 59.2343 137.422 57.4343 135.822C56.7343 135.222 55.2343 134.322 54.3343 134.922C53.4343 135.522 54.1343 136.822 54.7343 137.422C55.1343 137.722 54.5343 137.122 54.6343 137.322C54.7343 137.422 54.8343 137.622 54.9343 137.722L55.0343 137.922C55.2343 138.322 54.8343 137.422 55.0343 137.822L55.3343 138.422C55.8343 139.422 56.3343 140.522 56.7343 141.522C57.9343 144.422 58.8343 147.422 59.8343 150.422C61.8343 157.122 63.7343 163.822 65.1343 170.722C65.4343 172.122 65.7343 173.522 65.9343 174.922C66.0343 175.422 66.0343 175.922 66.1343 176.422C66.1343 176.622 66.1343 176.822 66.1343 177.022C66.1343 177.222 66.1343 176.722 66.1343 177.122C66.2343 178.322 66.9343 179.322 68.0343 179.722C68.7343 180.022 70.4343 180.422 70.5343 179.222Z" fill="#000005"/>
<path d="M49.2348 134.123C50.3348 134.123 50.5348 133.123 50.0348 132.323C49.2348 131.323 48.0348 130.823 46.8348 130.823C45.7348 130.823 45.5348 131.823 46.0348 132.623C46.8348 133.623 48.0348 134.123 49.2348 134.123Z" fill="#000005"/>
<path d="M52.1336 128.422C52.3336 128.522 52.6336 128.122 52.4336 127.922C52.2336 127.922 52.0336 128.022 51.9336 128.122" fill="white"/>
<path d="M53.1348 130.523C53.2348 130.523 53.3348 130.523 53.4348 130.523H53.5348L53.6348 130.423C53.7348 130.323 53.7348 130.323 53.8348 130.223V130.123C53.8348 130.023 53.8348 129.923 53.8348 129.823C53.8348 129.823 53.8348 129.823 53.8348 129.723C53.8348 129.623 53.8348 129.423 53.7348 129.323C53.7348 129.123 53.6348 129.023 53.5348 128.823L53.3348 128.323L53.0348 127.723C52.9348 127.523 52.8348 127.323 52.6348 127.123L52.2348 126.623C52.1348 126.523 52.0348 126.323 51.8348 126.223C51.6348 126.023 51.4348 125.923 51.2348 125.823H51.1348H50.8348C50.7348 125.823 50.5348 125.923 50.4348 126.023C50.3348 126.123 50.2348 126.223 50.2348 126.323C50.2348 126.523 50.2348 126.723 50.2348 126.923C50.3348 127.223 50.4348 127.423 50.5348 127.723C50.6348 128.023 50.8348 128.323 50.9348 128.623L51.3348 129.123C51.5348 129.423 51.8348 129.723 52.1348 129.923L52.4348 130.123C52.5348 130.223 52.7348 130.223 52.9348 130.223C53.0348 130.123 53.2348 130.123 53.3348 130.023H53.1348H53.2348L52.2348 129.323L51.8348 128.823L51.4348 128.223L51.1348 127.623L50.9348 127.123L50.7348 126.623L50.6348 126.223V126.323V126.023C50.6348 126.123 50.6348 126.123 50.5348 126.223L50.6348 126.023C50.5348 126.123 50.5348 126.123 50.4348 126.123H50.6348H50.5348C50.4348 126.123 50.3348 126.123 50.2348 126.223C50.1348 126.323 50.1348 126.523 50.1348 126.623C50.1348 126.823 50.2348 127.123 50.2348 127.323C50.3348 127.623 50.4348 127.823 50.5348 128.123L50.8348 128.723C51.0348 129.123 51.3348 129.423 51.6348 129.723L52.0348 130.123C52.2348 130.323 52.4348 130.423 52.6348 130.523H53.1348Z" fill="#000005"/>
<path d="M52.6348 135.023C55.6348 135.023 54.3348 130.323 51.8348 130.323C48.8348 130.323 50.1348 135.023 52.6348 135.023Z" fill="#000005"/>
<path d="M64.8337 153.022C64.5337 149.822 65.0337 146.522 66.4337 143.622C66.8337 142.422 67.7337 141.322 68.8337 140.722C70.4337 140.122 72.1337 140.722 73.1337 142.022C74.0337 143.422 74.3337 145.022 73.9337 146.622C73.5337 148.222 72.8337 149.622 71.8337 150.922C71.0337 152.022 70.2337 153.122 69.2337 154.122C68.3337 155.122 67.0337 156.122 65.8337 155.622" fill="white"/>
<path d="M67.1339 153.122C66.9339 150.422 67.2339 147.822 68.2339 145.322C68.4339 144.722 68.7339 144.122 69.1339 143.622C68.9339 143.922 69.4339 143.322 69.5339 143.222C69.7339 143.022 69.7339 143.022 69.5339 143.122C69.6339 143.022 69.7339 142.922 69.9339 142.922C70.1339 142.922 70.2339 142.822 69.9339 142.922L70.3339 142.822C69.7339 142.922 70.9339 143.022 70.3339 142.822C70.4339 142.822 70.6339 142.922 70.7339 142.922C70.4339 142.822 70.4339 142.822 70.7339 142.922L71.1339 143.122C70.8339 142.922 70.9339 142.922 71.1339 143.122C71.3339 143.322 71.4339 143.322 71.1339 143.122C71.2339 143.222 71.3339 143.422 71.4339 143.522V143.622C71.5339 143.722 71.5339 143.922 71.6339 144.122C71.7339 144.422 71.7339 144.422 71.6339 144.222C71.6339 144.422 71.6339 144.522 71.6339 144.722C71.6339 144.922 71.6339 145.022 71.6339 145.222C71.6339 145.022 71.6339 145.122 71.6339 145.322C71.4339 146.522 70.9339 147.722 70.2339 148.722C69.5339 149.822 68.7339 150.922 67.8339 151.822C67.4339 152.322 66.9339 152.822 66.4339 153.322C66.6339 153.122 66.0339 153.522 65.9339 153.622C66.0339 153.522 66.1339 153.522 66.2339 153.622H66.1339C65.0339 153.222 63.8339 153.822 63.4339 154.922C63.4339 155.022 63.4339 155.022 63.3339 155.122C63.1339 156.422 63.9339 157.722 65.2339 158.122C68.6339 159.122 71.0339 156.022 72.8339 153.622C74.6339 151.222 76.3339 148.422 76.2339 145.222C76.2339 142.022 74.0339 139.222 70.9339 138.422C69.4339 138.022 67.8339 138.322 66.6339 139.222C65.5339 140.222 64.6339 141.422 64.1339 142.822C62.7339 146.022 62.2339 149.522 62.5339 153.022C62.6339 154.322 63.7339 155.422 65.0339 155.522C66.1339 155.622 67.1339 154.722 67.2339 153.522C67.2339 153.322 67.2339 153.222 67.1339 153.122Z" fill="#000005"/>
<path d="M148.934 233.922C165.834 218.222 183.234 203.022 201.034 188.222C206.134 184.022 211.234 179.822 216.334 175.722C217.434 174.822 214.834 170.722 214.134 171.222C196.134 185.722 178.534 200.622 161.234 216.022C156.334 220.422 151.534 224.822 146.634 229.322C145.734 230.422 148.434 234.422 148.934 233.922Z" fill="white"/>
<path d="M144.734 128.622C144.534 132.422 144.334 136.322 144.134 140.122C143.734 147.922 143.334 155.722 142.834 163.422C142.334 172.622 141.834 181.722 141.334 190.822L140.034 215.022C139.834 219.522 139.534 224.022 139.334 228.422V228.922C139.234 230.622 143.934 232.422 143.934 230.422C144.134 226.622 144.334 222.722 144.534 218.922C144.934 211.122 145.334 203.322 145.834 195.622C146.334 186.422 146.834 177.322 147.334 168.222C147.734 160.122 148.234 152.122 148.634 144.022C148.834 139.522 149.134 135.022 149.334 130.622C149.334 130.422 149.334 130.222 149.334 130.122C149.434 128.422 144.834 126.622 144.734 128.622Z" fill="white"/>
<path d="M84.0343 155.123L127.834 190.823L140.234 200.923C140.834 201.423 142.234 200.623 142.734 200.323C142.934 200.223 145.134 199.023 144.734 198.723L101.034 163.023L88.6343 152.923C88.0343 152.423 86.6343 153.223 86.1343 153.523C86.0343 153.723 83.8343 154.923 84.0343 155.123Z" fill="white"/>
<path d="M48.6344 199.322C61.3344 206.622 73.7344 214.722 85.6344 223.322C89.3344 226.022 93.0344 228.822 96.6344 231.722C97.4344 232.322 98.9344 233.022 99.9344 232.622C100.934 232.222 100.234 231.422 99.6344 230.922C87.8344 221.622 75.4344 213.022 62.6344 205.122C58.6344 202.622 54.6344 200.222 50.5344 197.922C49.8344 197.522 48.1344 196.822 47.4344 197.422C46.7344 198.022 48.1344 199.022 48.6344 199.322Z" fill="white"/>
<path d="M90.0345 191.923C87.9345 203.223 87.0345 214.723 87.4345 226.323C87.5345 228.123 92.0345 226.323 92.0345 224.623C91.6345 213.123 92.5345 201.623 94.6345 190.223C94.8345 189.123 92.8345 189.523 92.4345 189.723C91.2345 190.023 90.3345 190.823 90.0345 191.923Z" fill="white"/>
<path d="M284.334 231.722C284.834 229.222 285.834 226.922 287.234 224.822C288.534 222.722 290.434 220.922 292.634 219.722L293.334 219.522C292.734 219.122 292.534 219.122 292.834 219.322L293.034 219.522C293.234 219.922 293.634 220.322 293.934 220.722C294.534 221.722 294.934 222.922 295.034 224.122C295.234 226.722 294.234 229.322 292.334 231.122L296.234 232.922C295.234 231.422 296.134 229.222 297.134 228.022C298.234 226.622 299.734 225.522 301.434 225.022C303.734 224.222 307.534 224.022 309.234 225.922C310.034 226.822 311.034 227.522 312.234 227.822C313.034 228.022 313.534 227.622 312.834 226.822C309.334 223.022 304.034 220.622 298.834 221.722C294.334 222.622 289.434 227.422 292.634 232.022C293.134 232.722 295.634 234.722 296.534 233.822C301.934 228.422 298.734 219.822 292.134 217.022C290.634 216.322 288.934 216.522 287.634 217.522C286.334 218.422 285.234 219.522 284.134 220.622C282.034 223.122 280.534 226.222 279.934 229.522C279.834 230.622 284.034 232.922 284.334 231.722Z" fill="#000005"/>
</svg>
