<svg width="103" height="70" viewBox="0 0 103 70" fill="none" xmlns="http://www.w3.org/2000/svg">
<path d="M74.061 38.6731C80.73 21.3718 81.8698 5.70177 76.6069 3.67309C71.3439 1.6444 61.6712 14.0253 55.0021 31.3266C48.3331 48.6279 47.1932 64.2979 52.4562 66.3266C57.7191 68.3553 67.3919 55.9744 74.061 38.6731Z" stroke="white" stroke-width="2.42034" stroke-linecap="round" stroke-linejoin="round"/>
<path d="M75.2179 35.5212C75.584 36.5639 75.9713 37.6146 76.3797 38.6733C83.0487 55.9746 92.7216 68.3553 97.9846 66.3266C103.248 64.2979 102.108 48.6279 95.4386 31.3266C88.7696 14.0252 79.0972 1.64449 73.833 3.67322" stroke="white" stroke-width="2.42034" stroke-linecap="round" stroke-linejoin="round"/>
<path d="M31.8119 38.6731C38.481 21.3718 39.6208 5.70177 34.3579 3.67309C29.0949 1.6444 19.4221 14.0253 12.7531 31.3266C6.08406 48.6279 4.9442 64.2979 10.2072 66.3266C15.4701 68.3553 25.1429 55.9744 31.8119 38.6731Z" stroke="white" stroke-width="2.42034" stroke-linecap="round" stroke-linejoin="round"/>
<path d="M32.9707 35.521C33.337 36.5637 33.7242 37.6143 34.1325 38.673C39.1184 51.6056 45.7813 61.7892 51.0264 65.2597" stroke="white" stroke-width="2.42034" stroke-linecap="round" stroke-linejoin="round"/>
<path d="M54.099 33.7641C53.8085 32.956 53.5061 32.1435 53.1918 31.3266C46.5219 14.0252 36.8499 1.64449 31.5869 3.67322" stroke="white" stroke-width="2.42034" stroke-linecap="round" stroke-linejoin="round"/>
</svg>
