<svg width="215" height="50" viewBox="0 0 215 50" fill="none" xmlns="http://www.w3.org/2000/svg">
<path d="M169.563 11.3309C174.931 11.3309 179.445 13.3305 182.298 17.5073H182.422V12.3351H189.328V49.0739H182.422V43.3684H182.298C179.712 47.7408 175.064 49.9981 169.821 49.9981C159.085 49.9981 150.332 41.911 150.332 31.2999C150.332 19.5691 158.748 11.3309 169.563 11.3309ZM59.9066 11.3309C70.0555 11.3309 79.6001 19.2936 79.4757 30.9711C79.3424 40.9778 70.7931 50.3625 58.6802 49.9892C48.4246 49.6782 39.6976 40.8534 39.822 30.589C39.9464 19.5069 48.7179 11.3309 59.9066 11.3309ZM115.486 11.3309C121.591 11.3309 126.559 15.5877 126.763 22.0841H119.867C119.529 19.4269 118.01 17.6406 115.157 17.6406C112.5 17.6406 110.847 19.4269 110.847 21.5509C110.847 24.6614 114.028 25.5945 117.681 26.7231C122.853 28.3139 127.625 31.4332 127.625 38.2673C127.625 45.3591 122.453 49.9981 115.29 49.9981C108.661 49.9981 102.289 45.4924 102.289 37.0054H109.185C109.523 41.4488 111.771 43.6972 115.424 43.6972C118.605 43.6972 120.729 41.6532 120.729 38.6583C120.729 36.1433 118.801 34.4815 114.49 33.0951C105.47 30.2335 103.95 26.3232 103.95 22.1463C103.95 15.65 109.46 11.3398 115.486 11.3398V11.3309ZM0.84375 0C4.65626 0 7.74004 3.08378 7.74004 6.89629V16.2454H7.87335C10.0684 12.9928 13.5788 11.3398 18.1556 11.3398C26.9092 11.3398 33.4678 16.903 33.4678 26.9808V49.0739H26.5715V29.1137C26.5715 21.2221 23.5233 17.6406 17.418 17.6406C11.3926 17.6406 7.74004 22.013 7.74004 29.1759V49.0739H0.84375V0ZM94.2014 0V12.3351H100.227V18.636H94.2014V49.0739C93.295 49.075 92.3973 48.8975 91.5596 48.5515C90.7219 48.2054 89.9606 47.6976 89.3193 47.0571C88.6779 46.4166 88.1692 45.656 87.822 44.8187C87.4749 43.9814 87.2962 43.084 87.2962 42.1776V18.6271H84.4524V12.3351H87.2962V0H94.2014ZM142.102 0V12.3351H148.145V18.636H142.102V49.0739C140.275 49.0715 138.523 48.3439 137.232 47.0508C135.94 45.7578 135.215 44.005 135.215 42.1776V18.6271H132.362V12.3351H135.206V0H142.102ZM214.131 11.3398V18.4316C208.159 18.636 205.111 22.2796 205.111 28.4472V42.1776C205.111 44.0066 204.384 45.7607 203.091 47.054C201.798 48.3473 200.044 49.0739 198.215 49.0739V12.3262H204.649V15.65H204.782C206.435 13.1883 209.288 11.6064 214.131 11.3398ZM169.767 17.6406C162.48 17.6406 156.606 24.217 157.281 31.9842C157.841 38.3828 163.075 43.5639 169.501 43.6972C176.788 43.8394 182.565 37.8141 182.565 30.7667C182.565 23.6038 177.392 17.6406 169.767 17.6406ZM59.5689 17.6406C51.6595 17.6406 44.9765 25.3101 47.1093 33.8594C48.5579 39.6626 53.8457 43.8572 59.8177 43.6972C63.2421 43.6249 66.5002 42.207 68.8869 39.7504C71.2736 37.2938 72.597 33.9962 72.5705 30.5712C72.5705 23.4083 66.794 17.6317 59.5689 17.6317V17.6406Z" fill="white"/>
</svg>
