<svg width="188" height="45" viewBox="0 0 188 45" fill="none" xmlns="http://www.w3.org/2000/svg">
<g clip-path="url(#clip0_47_301)">
<path d="M19.5567 0.189133C18.9877 0.27534 17.9015 0.499478 17.1429 0.706375C16.3843 0.89603 15.1429 1.30982 14.3843 1.62017C13.6256 1.91327 12.4532 2.465 11.7981 2.84431C11.1256 3.22362 10.005 3.965 9.29806 4.49948C8.59116 5.03396 7.34978 6.17189 6.53944 7.01672C5.72909 7.86155 4.71185 9.08568 4.28082 9.7581C3.83254 10.4133 3.12565 11.6374 2.69461 12.4995C2.26358 13.3443 1.69461 14.7926 1.40151 15.6891C1.1084 16.5857 0.746336 18.2236 0.573922 19.3098C0.367025 20.7236 0.315301 21.8615 0.384267 23.2753C0.435991 24.3615 0.608405 25.8788 0.763577 26.6374C0.918749 27.396 1.28082 28.6891 1.55668 29.5167C1.83254 30.3615 2.33254 31.6029 2.67737 32.2753C3.0222 32.965 3.71185 34.1547 4.21185 34.9133C4.72909 35.6719 5.66013 36.8615 6.3153 37.5684C6.95323 38.2753 8.1084 39.3271 8.86702 39.9133C9.62565 40.4995 10.7808 41.2926 11.4532 41.6891C12.1084 42.0857 13.2808 42.6719 14.0394 42.9822C14.7981 43.3098 15.8498 43.6891 16.367 43.8443C16.8843 43.9995 17.9705 44.2409 18.7808 44.3788C19.5912 44.534 20.6601 44.6547 21.1429 44.6547C21.6429 44.6547 22.1084 44.7409 22.1774 44.8443C22.2636 44.965 22.5394 44.9995 22.9187 44.9305C23.2463 44.8615 24.1774 44.7409 24.9877 44.6719C25.7981 44.5857 27.1084 44.3615 27.9187 44.1719C28.7291 43.9822 29.8843 43.6374 30.505 43.396C31.1256 43.1719 32.2463 42.6719 33.005 42.2753C33.7636 41.896 35.005 41.1547 35.7636 40.6029C36.5222 40.0684 37.7119 39.0684 38.4015 38.396C39.1084 37.7064 40.1084 36.5684 40.6601 35.8615C41.1946 35.1547 41.9532 33.9822 42.3498 33.2753C42.7463 32.5684 43.2981 31.396 43.5912 30.6891C43.867 29.9822 44.3153 28.534 44.5739 27.4995C45.005 25.7926 45.0567 25.2926 45.0567 22.4995C45.0739 20.0857 45.005 19.0684 44.7463 17.9305C44.5739 17.1202 44.1946 15.8098 43.9187 14.9995C43.6256 14.1891 43.1256 12.9822 42.7981 12.3271C42.4532 11.6546 41.7119 10.4305 41.1256 9.58568C40.5567 8.74086 39.4877 7.44775 38.7808 6.72362C38.0739 5.99948 36.867 4.94775 36.1084 4.37879C35.3498 3.80982 33.9532 2.965 33.005 2.48224C32.0567 1.99948 30.6601 1.39603 29.9015 1.15465C29.1429 0.89603 27.9705 0.568444 27.3153 0.413271C26.5567 0.240857 25.0912 0.120168 23.3498 0.0856849C21.8325 0.0512022 20.1256 0.0856849 19.5567 0.189133ZM141.195 1.12017C140.574 1.2581 139.729 1.49948 139.298 1.65465C138.867 1.80982 138.177 2.13741 137.746 2.37879C137.315 2.62017 136.522 3.17189 135.97 3.60293C135.419 4.03396 134.591 4.86155 134.16 5.43051C133.712 5.99948 133.108 6.965 132.815 7.58569C132.505 8.20638 132.126 9.20638 131.953 9.82706C131.746 10.6029 131.643 11.5684 131.643 13.0167C131.643 14.6546 131.729 15.3788 132.022 16.465C132.264 17.2926 133.108 19.1546 134.108 21.1202C135.039 22.9133 136.074 24.896 136.401 25.5167C136.729 26.1374 137.574 27.7236 138.264 29.0512C138.953 30.3788 139.695 31.7753 139.901 32.1547C140.108 32.534 141.074 34.396 142.074 36.2926C143.695 39.4305 143.988 39.8615 145.16 41.0512C146.246 42.1547 146.746 42.4995 148.264 43.2409C149.264 43.7236 150.608 44.2236 151.281 44.3788C152.264 44.5857 154.384 44.6374 163.143 44.6891C169.022 44.7236 173.85 44.7926 173.884 44.8616C173.919 44.9478 174.333 44.9995 174.815 44.9995C175.281 44.9995 175.677 44.9478 175.677 44.8616C175.677 44.7926 176.16 44.6891 176.746 44.6374C177.35 44.5684 178.419 44.3271 179.126 44.0684C179.833 43.8271 180.85 43.3615 181.367 43.0512C181.884 42.7581 182.988 41.8443 183.798 41.034C185.022 39.8098 185.402 39.2926 186.074 37.9305C186.539 36.9995 187.005 35.7409 187.16 34.9995C187.35 34.1029 187.401 33.1719 187.35 31.9822C187.298 30.7409 187.143 29.8615 186.815 28.8788C186.557 28.1202 186.057 26.9995 185.695 26.3788C185.333 25.7581 184.643 24.8443 184.195 24.3271C183.729 23.8098 182.884 23.0684 182.315 22.6719C181.746 22.2581 180.85 21.7236 180.333 21.465C179.815 21.2064 178.798 20.8271 178.091 20.6374C176.902 20.3271 176.16 20.2926 169.039 20.2236L161.281 20.1546C160.557 18.7581 159.867 17.465 159.298 16.3788C158.712 15.2926 157.764 13.4995 157.195 12.4133C156.626 11.3271 155.626 9.41327 154.97 8.18913C154.315 6.94775 153.453 5.5512 153.074 5.08569C152.677 4.60293 151.988 3.93051 151.557 3.56844C151.126 3.22362 150.264 2.67189 149.643 2.34431C149.022 2.01672 147.97 1.58568 147.315 1.37879C146.488 1.12017 145.522 0.982237 144.212 0.930513C142.947 0.884535 141.942 0.947754 141.195 1.12017ZM71.367 1.63741C70.7463 1.77534 69.7463 2.08568 69.1256 2.30982C68.505 2.5512 67.5394 3.0512 66.9705 3.41327C66.4015 3.77534 65.5912 4.41327 65.1601 4.84431C64.7291 5.2581 64.1429 5.94775 63.8498 6.37879C63.5567 6.80982 62.9187 7.89603 62.4532 8.79258C61.9705 9.68913 60.9187 11.6719 60.1256 13.1891C59.3153 14.7064 57.6601 17.8098 56.4532 20.0857C55.2291 22.3615 53.8325 24.9995 53.3498 25.9478C52.867 26.896 52.3325 28.2064 52.1601 28.8788C51.9877 29.534 51.7981 30.7753 51.7636 31.6374C51.6946 32.7064 51.7636 33.6374 51.9532 34.6547C52.1429 35.6029 52.5222 36.7064 53.0394 37.7581C53.6946 39.1374 54.0739 39.6374 55.3153 40.8788C56.4877 42.0512 57.1084 42.4995 58.2636 43.0684C59.0739 43.465 60.2291 43.9133 60.8498 44.0684C61.505 44.2409 62.6946 44.3615 63.6946 44.3615C64.6429 44.3615 65.8498 44.2753 66.367 44.1891C66.8843 44.0857 67.8498 43.7926 68.5222 43.5167C69.1774 43.2581 70.2291 42.7236 70.8325 42.3443C71.4532 41.9478 72.3843 41.1719 72.9015 40.5857C73.5222 39.9133 74.2981 38.7236 75.0739 37.2581C75.7291 36.0167 76.3153 34.9995 76.367 34.9995C76.4187 34.9995 77.6601 36.3271 79.1256 37.965C80.5912 39.6029 82.1946 41.3271 82.6774 41.8098C83.1774 42.2753 84.1084 42.965 84.7463 43.3098C85.4015 43.6547 86.5567 44.1029 87.3153 44.3098C88.2636 44.5512 89.2463 44.6547 90.4187 44.6547C91.5739 44.6547 92.6084 44.5512 93.5222 44.3098C94.2808 44.1202 95.5567 43.6546 96.367 43.2581C97.7463 42.5857 98.0394 42.3443 101.574 38.7753L105.333 34.9995C107.436 39.1891 108.177 40.4133 108.729 41.0167C109.177 41.534 109.988 42.2409 110.505 42.6029C111.022 42.9478 111.833 43.4133 112.315 43.6202C112.781 43.8443 113.712 44.1547 114.384 44.3271C115.039 44.5167 115.884 44.6547 116.229 44.6547C116.591 44.6547 116.919 44.7236 116.97 44.8271C117.022 44.9133 117.367 44.9995 117.746 44.9995C118.126 44.9995 118.47 44.9133 118.522 44.8271C118.574 44.7236 118.901 44.6547 119.246 44.6547C119.608 44.6547 120.367 44.534 120.936 44.396C121.505 44.2409 122.505 43.8615 123.177 43.5512C123.833 43.2409 124.85 42.6374 125.419 42.2064C125.988 41.7753 126.729 41.0857 127.074 40.6719C127.419 40.2581 127.953 39.4822 128.264 38.965C128.574 38.4478 129.005 37.465 129.229 36.8098C129.47 36.1374 129.729 34.9822 129.815 34.2236C129.936 33.2926 129.936 32.396 129.815 31.465C129.712 30.7064 129.522 29.6202 129.367 29.0512C129.212 28.4822 128.522 26.8098 127.833 25.3443C127.143 23.8788 125.522 20.534 124.246 17.9305C122.97 15.3271 121.177 11.6374 120.246 9.74086C118.66 6.5512 118.453 6.20637 117.333 5.08569C116.557 4.32706 115.66 3.63741 114.901 3.24086C114.229 2.89603 113.143 2.465 112.488 2.27534C111.815 2.08569 110.695 1.87879 109.988 1.80982C109.264 1.74086 108.091 1.77534 107.315 1.87879C106.557 1.98224 105.35 2.2581 104.643 2.49948C103.936 2.74086 102.919 3.18913 102.401 3.465C101.729 3.84431 99.9705 5.48224 96.2291 9.24086C93.367 12.1202 90.9877 14.465 90.9532 14.4305C90.936 14.4133 88.8153 12.0684 86.2636 9.22362C83.6084 6.27534 81.2463 3.79258 80.7636 3.465C80.2808 3.13741 79.436 2.65465 78.867 2.37879C78.2981 2.12017 77.2808 1.77534 76.6256 1.63741C75.9532 1.49948 74.7636 1.39603 73.9532 1.39603C73.1429 1.39603 71.9877 1.51672 71.367 1.63741Z" fill="white"/>
</g>
<defs>
<clipPath id="clip0_47_301">
<rect width="187.069" height="45" fill="white" transform="translate(0.330078)"/>
</clipPath>
</defs>
</svg>
