<svg width="300" height="300" viewBox="0 0 300 300" fill="none" xmlns="http://www.w3.org/2000/svg">
<path d="M118.679 72.7799C115.919 70.7399 113.159 68.6399 110.399 66.5399C104.519 62.0399 98.7595 57.4799 93.1195 52.7399C90.1795 50.2799 87.2995 47.7599 84.4795 45.1799C83.2195 44.0399 81.9595 42.8399 80.7595 41.6399L80.5195 41.3999L80.1595 41.0399C79.8595 40.7399 79.6195 40.4999 79.3195 40.1999C78.8395 39.6599 78.2995 39.1199 77.8195 38.5799C77.0395 37.6799 76.2595 36.7799 75.5995 35.7599C75.4195 35.5199 75.4795 35.5799 75.5995 35.7599L75.4195 35.4599C75.2995 35.2799 75.1795 35.0399 75.0595 34.8599C74.9395 34.6799 74.8795 34.4999 74.8195 34.3799C74.7595 34.2599 74.7595 34.1999 74.6995 34.1399C74.7595 34.2599 74.8795 34.5599 74.6995 34.1399C74.6395 34.0199 74.6395 33.8399 74.5795 33.7199C74.5195 33.4799 74.5795 34.0199 74.5795 33.7799C74.5795 33.7199 74.5795 33.5999 74.5795 33.5399C74.5795 33.4799 74.5795 33.4199 74.5795 33.3599C74.5795 33.1799 74.4595 33.6599 74.5795 33.4799C74.7595 32.9999 74.8795 32.5199 75.0595 32.0399C76.0195 29.7599 77.3995 27.6599 79.0195 25.7999C80.6395 23.8199 82.5595 22.1399 84.6595 20.7599C85.5595 20.1599 86.4595 19.7399 87.4795 19.3799C88.2595 19.0799 89.0994 19.0199 89.9394 19.1399C89.6994 19.0799 90.1795 19.1999 90.2995 19.2599C90.4195 19.3199 90.5395 19.3799 90.2995 19.2599L90.5394 19.3799C90.5994 19.4399 91.1395 19.7399 90.8394 19.5599C91.0194 19.6799 91.1995 19.8599 91.3795 19.9799L91.6195 20.2199C91.4395 20.0399 91.5595 20.1599 91.6195 20.2199C91.7995 20.3999 91.9195 20.5799 92.0995 20.7599C92.3395 21.0599 92.5795 21.4199 92.8195 21.7199C93.8995 23.4599 94.6195 25.3199 95.0995 27.2399C95.3395 28.0799 95.4595 28.9199 95.5795 29.8199C95.6395 30.2399 95.6395 30.5999 95.6395 31.0199C95.6395 31.1999 95.6395 31.3799 95.6395 31.5599C95.6395 31.6799 95.6395 31.7399 95.5795 31.8599C95.5795 32.0999 95.5795 31.9199 95.5795 31.9799C95.5195 32.2799 95.4594 32.5199 95.3394 32.7599C95.2794 32.8799 95.4595 32.6399 95.2795 32.8799L95.1595 32.9999C95.0395 33.1799 95.3395 32.8799 95.1595 32.9999C94.5595 33.2999 93.8995 33.4199 93.2394 33.3599C91.2594 33.2399 89.2795 32.6399 87.5995 31.5599C87.2395 31.3199 86.8795 31.0199 86.5195 30.7199C86.4595 30.7199 86.2795 30.5399 86.4595 30.7199C86.3995 30.6599 86.3395 30.5999 86.2795 30.5399C86.2195 30.4799 86.0994 30.2999 86.0394 30.2399C85.8594 29.9999 86.0995 30.4199 85.9795 30.1199C85.9195 30.0599 85.9195 29.9999 85.8595 29.8799C85.6795 29.5199 85.9195 29.9999 85.7995 29.8199C85.7995 29.7599 85.6794 29.3399 85.7394 29.5199C85.7394 29.2199 85.7395 28.9199 85.7995 28.6199C86.3395 26.6999 87.2995 24.8999 88.5595 23.3399C89.9395 21.4799 91.6795 19.8599 93.5995 18.6599C94.4395 18.1799 95.3394 17.8199 96.2395 17.6399C96.5394 17.5799 96.8995 17.7599 97.1395 17.6399C97.0794 17.6399 96.7195 17.5199 96.9595 17.6399C97.1995 17.7599 96.7794 17.5199 96.8394 17.5799C96.8995 17.6399 97.1395 17.7599 97.1395 17.7599C97.1395 17.7599 96.7195 17.4599 97.0195 17.6999L97.1995 17.8799C97.3195 17.9999 97.4395 18.1199 97.6195 18.2399C97.5595 18.1799 97.3795 17.9399 97.5595 18.1799L97.7995 18.4799C98.5195 19.2599 99.1195 20.0999 99.7195 20.9399L100.259 21.7199L100.379 21.8999C100.259 21.7199 100.559 22.1999 100.379 21.8999L100.679 22.3799C101.099 22.9799 101.459 23.6399 101.879 24.2399C103.679 27.1799 105.419 30.2399 107.039 33.2999C110.759 40.1399 114.179 47.0999 117.599 54.1199C119.759 58.5599 121.859 62.9999 123.899 67.4399L124.199 68.0999C124.559 68.8199 125.279 69.1799 126.059 69.1199C126.779 68.9399 126.839 68.2199 126.599 67.6799C124.979 64.1999 123.359 60.7199 121.679 57.2399C118.259 50.0999 114.719 42.9599 111.059 35.9399C109.259 32.5199 107.459 29.1599 105.479 25.8599C104.039 23.2799 102.419 20.8199 100.619 18.4199C99.3595 16.7999 97.8595 15.1199 95.5795 15.1799C93.2995 15.2399 91.1995 16.6199 89.5195 18.0599C87.5995 19.6799 85.9795 21.5399 84.7195 23.6999C83.7595 25.3199 82.6794 27.3599 83.0394 29.3399C83.4594 31.5599 85.5595 33.1799 87.4195 34.1399C89.5195 35.3399 91.8595 35.9399 94.2595 36.0599C95.9395 36.0599 97.5595 35.6399 98.0394 33.8399C98.5194 32.0399 98.2195 30.1799 97.8595 28.4399C97.3795 26.2799 96.6595 24.1799 95.5795 22.1999C94.5595 20.3399 93.1795 18.4799 91.3195 17.4599C89.4595 16.4399 87.2395 16.6199 85.2595 17.3999C82.9195 18.4199 80.8195 19.7999 79.0795 21.5999C77.0995 23.4599 75.3595 25.5599 73.9795 27.8999C73.3195 28.9799 72.7795 30.1199 72.2995 31.3199C72.0595 31.8599 71.9395 32.3999 71.9395 32.9999C71.9995 33.8999 72.2995 34.7999 72.7795 35.5799C74.0995 37.7999 75.7195 39.8399 77.5795 41.6399C80.0995 44.2799 82.7995 46.7999 85.5595 49.2599C91.6195 54.6599 97.9194 59.7599 104.339 64.7399C108.419 67.9199 112.559 71.0999 116.699 74.2199L117.359 74.6999C117.839 75.0599 118.679 75.4199 119.219 74.8199C119.759 74.2199 119.159 73.1399 118.679 72.7799Z" fill="#111111"/>
<path d="M136.2 70.3799C138.42 67.2599 140.7 64.0799 142.92 60.9599C147.78 54.2399 152.7 47.6399 157.74 41.0399C162.42 34.9799 167.1 28.8599 172.38 23.3399L172.74 22.9799C172.8 22.9199 173.16 22.5599 172.92 22.7999L173.64 22.0799C174.06 21.6599 174.48 21.2999 174.9 20.8799C175.32 20.4599 175.62 20.2799 175.98 19.9799C176.16 19.8599 176.28 19.7399 176.46 19.6799L176.64 19.5599C176.76 19.4999 176.88 19.4399 177 19.3799C177.36 19.1999 176.7 19.3799 177.06 19.3799C177.3 19.3799 176.76 19.3199 176.88 19.3799C177 19.4399 177.24 19.4399 177.3 19.4399C177.72 19.5599 177.06 19.3199 177.48 19.4999L177.78 19.6199C178.08 19.7399 178.38 19.8599 178.62 19.9799C179.1 20.2199 179.58 20.4599 180 20.7599C180.54 21.1199 181.08 21.5399 181.56 21.9599C182.58 22.7999 183.48 23.6999 184.32 24.6599C185.1 25.4999 185.76 26.3999 186.36 27.3599C186.84 28.0799 187.2 28.9199 187.44 29.8199C187.44 29.6399 187.5 30.1199 187.44 29.8199C187.44 29.8799 187.44 29.9399 187.44 30.0599C187.44 30.1799 187.44 30.2399 187.44 30.2999C187.44 30.2399 187.5 29.9999 187.44 30.1799C187.44 30.2399 187.38 30.3599 187.38 30.4199C187.26 30.7199 187.5 30.2399 187.38 30.4199C187.26 30.5999 187.14 30.7799 187.02 30.8999C186.96 30.9599 186.9 31.0199 186.84 31.0799C186.6 31.3799 187.02 30.8999 186.78 31.1999C186.6 31.3199 186.48 31.4999 186.3 31.6199C185.88 31.9199 185.46 32.2799 185.04 32.5199C183.3 33.6599 181.38 34.3799 179.34 34.6799C179.1 34.6799 178.8 34.7399 178.56 34.7399C178.86 34.7399 178.32 34.6799 178.26 34.6799C177.84 34.6199 178.44 34.6799 178.02 34.6199C177.6 34.5599 178.08 34.4999 178.02 34.6199C178.02 34.6199 177.78 34.4999 177.78 34.4399C178.08 34.9199 177.9 34.3799 177.84 34.4399C177.78 34.4999 178.08 34.7399 177.9 34.4999C177.78 34.1399 177.84 34.4399 177.9 34.4999C177.9 34.4399 177.84 34.3799 177.84 34.3199C177.84 34.2599 177.78 34.1399 177.78 34.0799C177.78 34.1399 177.84 34.4399 177.78 34.0799C177.78 33.8999 177.78 33.6599 177.78 33.4799C177.78 33.2999 177.78 33.1199 177.84 32.8799C177.84 32.7599 177.84 32.5799 177.9 32.4599C178.02 31.9799 178.14 31.4399 178.26 30.9599C178.56 29.8199 178.98 28.7399 179.46 27.7199C180.36 25.6199 181.5 23.6999 182.94 21.9599C183.48 21.2999 184.14 20.6999 184.86 20.2799L185.16 20.1599C185.28 20.0999 185.46 20.0399 185.64 20.0399C185.28 20.1599 185.7 20.0399 185.82 20.0399C185.46 20.0399 185.7 20.0399 185.82 20.0399C185.52 19.8599 186.06 20.0399 185.82 20.0399C185.88 20.0999 186.48 20.3399 186.18 20.1599C186.36 20.2799 186.6 20.3999 186.78 20.5199C187.26 20.8199 187.74 21.1799 188.16 21.5999C189.12 22.4999 190.08 23.3999 190.86 24.4199C192.72 26.5799 194.22 29.0999 195.24 31.7999C195.66 33.0599 195.9 34.3199 196.02 35.6399C196.08 35.9999 196.14 35.3399 196.02 35.6399C195.96 35.7599 195.9 35.8799 195.9 35.9999C195.9 36.1199 196.08 35.6399 195.9 35.9399C195.84 35.9999 195.84 36.0599 195.78 36.1799C195.72 36.2999 195.54 36.4799 195.48 36.6599C195.24 37.0199 194.94 37.3199 194.64 37.6799L194.52 37.7999C194.34 37.9799 194.76 37.5599 194.58 37.7399L194.34 37.9799L193.74 38.5799C193.26 38.9999 192.78 39.4199 192.3 39.8399C186.6 44.5799 180.24 48.5999 174 52.4999C166.8 57.0599 159.42 61.3799 152.04 65.6399C147.54 68.2199 143.04 70.7999 138.54 73.3199C138.3 73.4399 138.12 73.5599 137.88 73.6799C137.22 74.0399 137.4 75.0599 137.82 75.5399C138.3 76.1399 139.2 76.2599 139.86 75.8999C143.4 73.9799 146.88 71.9399 150.36 69.9599C157.8 65.6999 165.24 61.3199 172.5 56.8199C179.4 52.5599 186.36 48.2399 192.78 43.1999C194.7 41.6999 196.74 40.1399 198.18 38.1599C198.72 37.4999 199.02 36.6599 199.02 35.7599C198.96 32.6999 197.7 29.7599 196.14 27.1199C194.52 24.3599 192.48 21.8999 190.14 19.7399C188.58 18.3599 186.54 16.6799 184.38 17.3399C182.46 17.8799 180.96 19.6799 179.88 21.2399C178.44 23.2799 177.24 25.5599 176.4 27.8999C175.68 29.8199 175.02 31.9799 175.32 34.0199C175.68 36.3599 177.84 37.3199 180 37.1999C182.34 37.0799 184.74 36.0599 186.72 34.9199C188.28 34.0199 190.44 32.5799 190.68 30.5999C190.92 28.4999 189.42 26.2799 188.22 24.6599C186.6 22.3799 184.56 20.3399 182.28 18.7199C181.2 17.9399 180.06 17.2799 178.8 16.8599C178.14 16.5599 177.42 16.4399 176.7 16.4999C175.86 16.6799 175.08 17.0399 174.42 17.6399C172.32 19.3799 170.34 21.2399 168.6 23.3399C165.96 26.2799 163.5 29.2799 161.04 32.3399C155.46 39.2999 150.12 46.4399 144.84 53.6399C141.42 58.2599 138.06 62.9399 134.7 67.6199L134.22 68.3399C132.84 70.0199 135.3 71.7599 136.2 70.3799Z" fill="#111111"/>
<path d="M112.8 81.4199C113.16 79.5599 113.52 63.5399 126.6 62.0399C139.68 60.5399 144.84 76.5599 144.48 82.5599L112.8 81.4199Z" fill="#464646"/>
<path d="M113.76 82.56C114.12 80.7 114.24 78.78 114.6 76.92C115.2 73.74 116.52 70.8 118.5 68.22C123.36 62.1 133.02 61.44 138.48 67.2L138.78 67.5L139.02 67.8C139.02 67.8 139.2 68.04 139.08 67.86C139.32 68.16 139.56 68.46 139.74 68.82C140.16 69.48 140.58 70.2 140.94 70.86C141.72 72.36 142.32 73.98 142.74 75.6C143.16 76.98 143.4 78.42 143.52 79.86C143.52 80.16 143.52 80.46 143.58 80.7C143.58 80.76 143.52 81.42 143.64 81.36C143.58 81.42 143.34 81.36 143.28 81.36L127.62 80.82C122.46 80.64 117.36 80.46 112.2 80.28H111.96C111.6 80.28 112.32 81.18 112.32 81.3C112.5 81.6 113.16 82.62 113.58 82.62L124.32 82.98L141.3 83.58L145.26 83.7C145.32 83.76 145.38 83.7 145.38 83.64C145.56 80.16 144.42 76.5 142.98 73.38C141.06 69.18 138.06 64.92 133.92 62.52C129.72 60.18 124.68 60.12 120.48 62.46C116.88 64.44 114.72 68.04 113.46 71.82C112.92 73.56 112.5 75.36 112.2 77.22C112.02 78.24 112.02 79.32 111.78 80.34C111.72 80.76 112.5 81.6 112.74 81.9C112.98 82.02 113.7 82.86 113.76 82.56Z" fill="#464646"/>
<path d="M56.5799 215.22L47.8799 282.72H56.8799L72.0599 216.78L56.5799 215.22Z" fill="#464646"/>
<path d="M55.4396 214.44L54.5996 221.16L52.4996 237.3L49.9796 256.8L47.8196 273.66C47.4596 276.36 46.9796 279.12 46.7996 281.82V281.94C46.6796 282.66 47.5196 283.98 48.3596 283.98H57.3596C57.7796 283.98 57.9596 283.86 58.0196 283.44L59.5196 276.9L63.1796 261.12L67.5596 242.1L71.3396 225.66L72.5996 220.26C72.7796 219.42 73.0796 218.52 73.1996 217.68C73.1996 217.62 73.1996 217.62 73.1996 217.56C73.3796 216.78 72.4196 215.58 71.6396 215.52L58.0796 214.14L56.1596 213.96C54.7196 213.84 56.0396 216.42 57.0596 216.54L70.6196 217.86L72.5396 218.04L70.9196 216L69.4196 222.54L65.7596 238.32L61.3796 257.4L57.5996 273.84L56.3396 279.24C56.0396 280.08 55.8596 280.92 55.7396 281.82C55.7396 281.88 55.7396 281.88 55.7396 281.94L56.3996 281.4H47.3996L48.9596 283.44L49.7996 276.72L51.8996 260.58L54.4196 241.08L56.5796 224.22C56.9396 221.52 57.4196 218.76 57.6596 216.06V216C57.6596 215.28 57.2396 214.62 56.6396 214.2C56.2796 213.9 55.5596 213.78 55.4396 214.44Z" fill="#464646"/>
<path d="M92.1597 215.88L81.3597 270.96H75.7197L80.9997 217.38L92.1597 215.88Z" fill="#464646"/>
<path d="M90.9594 214.98L89.8794 220.44L87.2994 233.64L84.1794 249.54L81.4794 263.28L80.5794 267.84L80.2794 269.28C80.2194 269.52 80.1594 269.76 80.1594 270C80.1594 270.06 80.1594 270.06 80.1594 270.12L80.6994 269.76H75.1194L76.9794 271.56L77.5194 266.28L78.7794 253.44L80.2794 237.96L81.5994 224.58L82.0194 220.14C82.1394 219.48 82.1994 218.76 82.1994 218.04V217.98L81.5994 218.58L92.7594 217.02C94.1994 216.84 92.5194 214.5 91.4994 214.62L80.3994 216.18C79.9794 216.24 79.8594 216.36 79.7994 216.78L79.2594 222.06L77.9994 234.9L76.4994 250.38L75.1794 263.76L74.7594 268.2C74.6994 268.86 74.5794 269.58 74.5794 270.3V270.36C74.5194 271.2 75.6594 272.16 76.4394 272.16H82.0194C82.2594 272.16 82.5594 272.04 82.5594 271.8L83.6394 266.34L86.2194 253.14L89.3394 237.24L92.0394 223.5C92.4594 221.28 92.9994 219 93.3594 216.78V216.72C93.4194 216 93.0594 215.4 92.4594 215.04C92.1594 214.8 91.1394 214.32 90.9594 214.98Z" fill="#464646"/>
<path d="M210.78 216.3L219.48 283.86H210.48L195.3 217.86L210.78 216.3Z" fill="#464646"/>
<path d="M209.4 216.84L210.24 223.56L212.34 239.7L214.86 259.2L217.02 276.06L217.74 281.58C217.86 282.48 217.86 283.38 218.1 284.22C218.1 284.28 218.1 284.28 218.1 284.34L220.68 283.2H211.68L211.92 283.26L210.42 276.72L206.82 260.94L202.44 241.92L198.66 225.42L197.4 220.02C197.22 219.18 197.1 218.28 196.8 217.44C196.8 217.38 196.8 217.38 196.8 217.32L194.22 218.46L207.78 217.08L209.7 216.9C210.36 216.84 211.08 216.6 211.68 216.3C211.8 216.24 212.64 215.64 212.04 215.7L198.48 217.08L196.56 217.26C196.2 217.32 193.86 217.86 193.98 218.4L195.48 224.94L199.14 240.72L203.52 259.74L207.3 276.18L208.56 281.58L208.92 283.26C208.98 283.56 209.04 283.86 209.1 284.16C209.1 284.22 209.1 284.22 209.1 284.28C209.16 284.34 209.28 284.4 209.34 284.34H218.34C218.76 284.34 220.98 283.8 220.92 283.2L220.02 276.48L217.92 260.34L215.4 240.84L213.24 223.98L212.52 218.46L212.28 216.72C212.28 216.42 212.22 216.12 212.16 215.82C212.16 215.76 212.16 215.76 212.16 215.7C212.16 215.58 209.34 216.24 209.4 216.84Z" fill="#464646"/>
<path d="M173.939 216.96L184.739 272.1H190.319L185.039 218.52L173.939 216.96Z" fill="#464646"/>
<path d="M172.739 216.36L173.819 221.82L176.399 235.02L179.519 250.92L182.219 264.66C182.639 266.88 182.999 269.16 183.539 271.38V271.5C183.839 272.4 184.619 273 185.519 273.18H191.099C191.459 273.18 191.579 273 191.519 272.7L190.979 267.42L189.719 254.58L188.219 239.1L186.899 225.72L186.479 221.28C186.419 220.62 186.419 219.84 186.299 219.18V219.12C186.239 218.34 185.039 217.56 184.319 217.44L173.159 215.88C172.499 215.76 172.799 216.6 172.979 216.9C173.399 217.5 173.999 217.92 174.719 218.04L185.879 219.6L183.899 217.92L184.439 223.2L185.699 236.04L187.199 251.52L188.519 264.9L188.939 269.34L189.059 270.72C189.059 270.96 189.059 271.2 189.119 271.44V271.5L189.539 271.02H183.959L185.939 272.7L184.859 267.24L182.279 254.04L179.159 238.14L176.459 224.4C176.039 222.18 175.679 219.9 175.139 217.68V217.62C174.899 216.96 174.359 216.42 173.699 216.12C173.339 215.88 172.559 215.7 172.739 216.36Z" fill="#464646"/>
<path d="M28.7998 79.0799L238.86 77.8199L238.26 223.56L31.2598 218.7L28.7998 79.0799Z" fill="#111111"/>
<path d="M29.2197 80.3399H34.8597L50.0997 80.2799L72.7797 80.1599L100.26 79.9799L130.56 79.7999L160.92 79.6199L189.42 79.4399L213.36 79.3199L230.7 79.1999C233.4 79.1999 236.16 79.3199 238.86 79.1399H239.22L237.66 77.0399V80.9399L237.6 91.4999L237.48 107.22L237.42 126.36L237.36 147.3L237.3 168.42L237.24 188.22L237.18 204.9L237.12 216.9V220.62C237.06 221.28 237.06 221.94 237.12 222.54C237.12 222.6 237.12 222.72 237.12 222.78L237.78 222.24L232.26 222.12L217.2 221.76L195 221.22L167.7 220.56L138 219.84L107.94 219.12L79.9197 218.46L56.2797 217.92L39.2397 217.5C36.5397 217.44 33.8397 217.26 31.1997 217.32H30.8397L32.3997 219.12L32.1597 205.2L31.5597 171.78L30.8397 131.4L30.2397 96.6599L29.9997 85.1999C29.9997 83.3999 29.9997 81.5999 29.8797 79.7999C29.8797 79.7399 29.8797 79.6199 29.8797 79.5599C29.8797 78.4799 27.5997 76.7999 27.6597 78.5999L27.8997 92.5199L28.4997 125.94L29.2197 166.32L29.8197 201.06L29.9997 212.64C29.9997 214.44 29.9997 216.24 30.1197 218.04C30.1197 218.1 30.1197 218.22 30.1197 218.28C30.1197 218.94 30.9597 220.02 31.6797 220.08L37.1997 220.2L52.2597 220.56L74.4597 221.1L101.76 221.76L131.46 222.48L161.52 223.2L189.54 223.86L213.18 224.4L230.22 224.82C232.92 224.88 235.62 224.94 238.26 225H238.62C238.92 225 239.34 224.88 239.34 224.46V220.56L239.4 210L239.46 194.28L239.52 175.14L239.58 154.2L239.64 133.08L239.7 113.28L239.76 96.5999L239.82 84.5999C239.82 82.7399 239.82 80.8199 239.82 78.8999V78.5999C239.82 77.8799 239.16 76.4999 238.26 76.5599H232.62L217.38 76.6799L194.7 76.7999L167.22 76.9799L136.92 77.1599L106.56 77.3399L78.0597 77.5199L54.1197 77.6399L36.7797 77.7599L28.6197 77.8199H28.2597C26.8797 77.7599 28.1397 80.3399 29.2197 80.3399Z" fill="#111111"/>
<path d="M57.1798 92.58H176.58C184.5 92.58 190.92 99 190.92 106.92V185.64C190.92 193.56 184.5 199.98 176.58 199.98H57.1798C49.2598 199.98 42.8398 193.56 42.8398 185.64V106.92C42.8398 99 49.2598 92.58 57.1798 92.58Z" fill="white"/>
<path d="M176.94 198.84H57.6003C51.4803 198.78 46.1403 194.52 44.6403 188.58C44.1603 186.6 44.2803 184.5 44.2803 182.46V106.62C44.2803 103.14 45.6603 99.7799 48.1203 97.2599C50.7003 94.7399 54.0003 93.7199 57.5403 93.7199H176.1C178.74 93.7199 181.26 94.4999 183.42 95.9399C186.3 97.9199 188.34 100.92 189.12 104.34C189.3 105.48 189.42 106.56 189.42 107.7V182.04C189.42 183.42 189.42 184.8 189.42 186.24C189.3 193.08 183.78 198.78 176.94 198.84C176.16 198.84 175.5 199.32 175.2 199.98C175.08 200.52 175.44 201 175.92 201.12C176.04 201.12 176.16 201.12 176.22 201.12C184.02 201.06 191.04 195.42 192.18 187.62C192.36 185.76 192.42 183.9 192.36 182.1V107.22C192.48 102.3 190.26 97.6199 186.36 94.6199C183.36 92.3399 179.76 91.4399 176.04 91.4399H58.2003C53.9403 91.3199 49.8003 92.8199 46.5603 95.6399C43.7403 98.1599 41.9403 101.64 41.5203 105.42C41.4603 106.26 41.4003 107.1 41.4003 107.94V182.94C41.2803 185.1 41.4603 187.2 41.8203 189.3C43.3203 196.26 49.8003 201.12 56.8203 201.12C57.8403 201.12 58.9203 201.12 59.9403 201.12H176.22C177 201.12 177.66 200.7 177.96 199.98C178.14 199.32 177.54 198.84 176.94 198.84Z" fill="white"/>
<path d="M227.94 95.76H198.84V198.48H227.94V95.76Z" fill="white"/>
<path d="M227.699 197.16H198.599L200.339 198.72V100.2C200.339 98.8798 200.459 97.4998 200.339 96.1798C200.339 96.1198 200.339 96.0598 200.339 95.9998L199.139 97.0198H228.239L226.499 95.4598V193.98C226.499 195.3 226.499 196.68 226.499 198V198.18C226.499 198.96 227.099 199.62 227.879 199.68C228.539 199.8 229.439 199.44 229.439 198.66V100.2C229.439 98.8798 229.439 97.4998 229.439 96.1798V95.9998C229.379 95.0998 228.659 94.4398 227.759 94.4398H227.699H198.599C197.999 94.4398 197.459 94.8598 197.399 95.4598V193.98C197.399 195.3 197.399 196.68 197.399 198V198.18C197.459 199.08 198.179 199.74 199.079 199.74H199.139H228.239C228.899 199.74 229.439 199.2 229.439 198.54C229.439 198.48 229.439 198.42 229.439 198.42C229.139 197.64 228.479 197.16 227.699 197.16Z" fill="white"/>
<path d="M247.44 105.24C254.1 100.32 261.12 95.9399 268.5 92.1599C268.92 91.9199 269.82 91.4999 269.58 90.8999C269.34 90.2999 268.26 90.5999 267.9 90.7799C260.1 94.7999 252.6 99.4199 245.52 104.64C245.1 104.94 244.86 105.54 245.46 105.78C246.06 106.02 246.96 105.6 247.44 105.24Z" fill="#111111"/>
<path d="M246.481 114.72H253.381C253.981 114.66 254.641 114.48 255.181 114.18C255.481 114.06 255.721 113.94 255.961 113.76C256.021 113.76 256.261 113.58 256.021 113.58H249.121C248.521 113.64 247.861 113.82 247.321 114.12C247.021 114.24 246.781 114.36 246.541 114.54C246.481 114.48 246.241 114.72 246.481 114.72Z" fill="#111111"/>
<path d="M247.139 126.12C255.059 127.2 262.799 129.66 269.879 133.38C270.479 133.68 271.199 133.86 271.859 133.92C272.039 133.92 272.999 133.92 272.459 133.62C264.299 129.42 255.539 126.66 246.479 125.4C246.299 125.34 245.279 125.16 245.399 125.52C245.519 125.88 246.899 126.06 247.139 126.12Z" fill="#111111"/>
<path d="M206.52 193.62C208.276 193.62 209.7 192.196 209.7 190.44C209.7 188.684 208.276 187.26 206.52 187.26C204.764 187.26 203.34 188.684 203.34 190.44C203.34 192.196 204.764 193.62 206.52 193.62Z" fill="#464646"/>
<path d="M208.319 190.08C208.319 190.32 208.319 190.56 208.199 190.8C208.079 191.1 207.959 191.4 207.779 191.64C207.659 191.88 207.839 191.58 207.719 191.7L207.599 191.88C207.479 192 207.419 192.06 207.299 192.18C207.179 192.24 207.059 192.36 206.939 192.42L206.819 192.48C206.999 192.42 206.759 192.54 206.699 192.54C206.579 192.6 206.459 192.66 206.279 192.66C206.039 192.72 206.219 192.66 206.279 192.66H206.039C205.979 192.66 205.859 192.72 205.799 192.66C205.739 192.66 205.619 192.6 205.559 192.66C205.739 192.72 205.799 192.72 205.679 192.66H205.559H205.499C205.319 192.6 205.379 192.66 205.619 192.72C205.559 192.72 205.499 192.66 205.439 192.66C205.139 192.54 205.739 192.84 205.499 192.66C205.439 192.6 205.379 192.6 205.379 192.6C205.559 192.6 205.619 192.78 205.439 192.66L205.259 192.54C205.019 192.36 205.379 192.72 205.259 192.54C205.139 192.36 205.139 192.42 205.079 192.3L204.959 192.18C205.139 192.42 204.959 192.18 204.959 192.12C204.899 192 204.839 191.88 204.779 191.76C204.779 191.7 204.719 191.64 204.719 191.58C204.779 191.76 204.719 191.52 204.719 191.46C204.659 191.28 204.659 191.16 204.659 190.98C204.599 190.44 204.719 189.9 205.019 189.42C205.139 189.18 205.259 189 205.439 188.88C205.559 188.76 205.619 188.7 205.739 188.58L205.859 188.46C205.859 188.46 206.159 188.28 205.979 188.34C206.099 188.28 206.219 188.22 206.339 188.16L206.519 188.1C206.519 188.1 206.819 188.04 206.639 188.1C206.459 188.16 206.759 188.1 206.759 188.1C206.759 188.1 206.879 188.1 206.999 188.1C206.699 188.1 207.179 188.1 206.999 188.1C207.059 188.1 207.179 188.16 207.239 188.1L207.059 188.04C207.119 188.04 207.179 188.04 207.239 188.1H207.359L207.179 188.04C207.239 188.1 207.299 188.1 207.359 188.1C207.479 188.16 207.419 188.1 207.179 188.04L207.299 188.1C207.479 188.22 207.239 188.04 207.239 188.04C207.299 188.1 207.419 188.22 207.479 188.28C207.659 188.4 207.419 188.22 207.419 188.22C207.419 188.22 207.539 188.4 207.599 188.4C207.659 188.46 207.719 188.52 207.719 188.58C207.539 188.34 207.719 188.58 207.719 188.64C207.779 188.76 207.839 188.94 207.959 189.12C208.079 189.36 207.959 189 207.959 189.18C207.959 189.3 208.019 189.36 208.019 189.48C208.319 189.66 208.319 189.84 208.319 190.08C208.439 190.32 208.619 190.56 208.799 190.74C209.099 190.98 209.459 191.16 209.819 191.28C210.239 191.4 211.139 191.46 211.139 190.8C211.139 188.94 209.639 187.38 207.959 186.72C206.279 186.06 204.119 186.12 202.859 187.62C201.779 188.82 201.659 190.62 202.499 192C203.639 193.74 205.679 194.76 207.779 194.46C208.679 194.34 209.519 193.92 210.179 193.26C210.779 192.6 211.139 191.7 211.139 190.8C211.139 190.56 210.839 190.26 210.659 190.14C210.359 189.9 209.999 189.72 209.639 189.6C209.159 189.48 208.319 189.42 208.319 190.08Z" fill="#464646"/>
<path d="M222.419 190.38C222.419 190.92 222.239 191.52 221.939 191.94L221.819 192.12C221.699 192.24 221.939 192 221.759 192.18C221.639 192.3 221.579 192.36 221.459 192.48L221.339 192.6C221.159 192.78 221.519 192.54 221.279 192.66L221.159 192.72C221.099 192.72 220.799 192.84 220.979 192.78C221.159 192.72 220.499 192.96 220.799 192.84C221.099 192.72 220.739 192.84 220.739 192.84C220.919 192.72 221.039 192.84 220.799 192.84C220.559 192.84 220.619 192.78 220.859 192.84C220.799 192.84 220.739 192.84 220.619 192.84C220.439 192.84 220.979 192.9 220.679 192.84H220.559C220.499 192.84 220.499 192.84 220.679 192.9C220.559 192.84 220.439 192.84 220.319 192.72C220.079 192.6 220.499 192.84 220.259 192.72L220.139 192.6C220.019 192.54 219.899 192.42 219.839 192.36C219.659 192.18 219.899 192.42 219.779 192.3C219.659 192.18 219.659 192.18 219.599 192.06C218.939 191.16 218.819 189.96 219.359 188.94C219.419 188.82 219.479 188.7 219.599 188.58C219.719 188.46 219.539 188.64 219.659 188.52C219.719 188.46 219.779 188.4 219.779 188.4C219.899 188.28 219.959 188.22 220.079 188.1C220.199 188.04 220.259 187.98 220.379 187.92C220.439 187.86 220.499 187.86 220.559 187.86L220.439 187.92L220.619 187.86L220.799 187.8C220.499 187.92 220.619 187.86 220.739 187.8C220.919 187.74 220.319 187.8 220.679 187.8C220.739 187.8 221.039 187.8 220.739 187.8C220.439 187.8 220.739 187.8 220.799 187.8C220.499 187.74 221.099 187.8 220.799 187.8H220.859C220.979 187.86 220.979 187.8 220.799 187.8C220.859 187.8 220.979 187.86 221.039 187.86C221.099 187.92 221.159 187.92 221.219 187.92H221.159L221.279 187.98C221.399 188.1 221.519 188.16 221.639 188.28C221.699 188.34 221.759 188.4 221.819 188.46C222.239 188.94 222.479 189.6 222.419 190.26C222.419 190.5 222.719 190.68 222.899 190.74C223.259 190.86 223.619 190.92 223.979 190.92C224.399 190.92 225.479 190.8 225.479 190.2C225.419 186.12 219.419 185.16 217.079 187.86C215.999 189.06 215.819 190.8 216.659 192.18C217.739 193.86 219.959 194.34 221.759 194.04C223.739 193.68 225.419 192.3 225.479 190.2C225.479 189.96 225.179 189.78 224.999 189.72C224.639 189.6 224.279 189.54 223.919 189.54C223.439 189.66 222.419 189.78 222.419 190.38Z" fill="#111111"/>
<path d="M210.48 155.1H205.14C204.84 155.1 202.92 155.1 202.92 155.58V183.24C202.92 183.42 203.58 183.42 203.7 183.42H209.04C209.34 183.42 211.26 183.42 211.26 182.94V155.28C211.26 154.92 208.26 155.04 208.26 155.58V183.24L210.48 182.76H205.14L205.92 182.94V155.28L203.7 155.76H209.04C209.58 155.76 210.6 155.82 211.08 155.46C211.56 155.1 210.78 155.1 210.48 155.1Z" fill="#111111"/>
<path d="M203.28 150.96H224.52C225.06 150.96 225.96 150.54 225.96 149.88C225.96 149.22 224.88 149.04 224.4 149.04H203.16C202.62 149.04 201.72 149.46 201.72 150.12C201.72 150.78 202.74 150.96 203.28 150.96Z" fill="#111111"/>
<path d="M203.58 144.9H224.821C224.941 144.9 224.4 143.58 224.34 143.46C224.22 143.22 223.861 142.2 223.501 142.2H202.261C202.141 142.2 202.68 143.52 202.74 143.64C202.86 143.88 203.22 144.9 203.58 144.9Z" fill="#111111"/>
<path d="M203.7 138.24H224.94C225.18 138.24 224.58 136.86 224.52 136.8C224.4 136.5 223.98 135.6 223.62 135.6H202.38C202.14 135.6 202.74 136.98 202.8 137.04C202.92 137.34 203.28 138.24 203.7 138.24Z" fill="#111111"/>
<path d="M201.959 131.34H223.199C223.919 131.34 224.639 131.1 225.179 130.56C225.539 130.14 225.479 129.6 224.819 129.6H203.579C202.859 129.6 202.139 129.84 201.599 130.38C201.239 130.8 201.299 131.34 201.959 131.34Z" fill="#111111"/>
<path d="M203.76 125.04H225C225.54 125.04 225.72 124.74 225.36 124.32C224.88 123.78 224.22 123.42 223.44 123.36H202.2C201.66 123.36 201.42 123.66 201.84 124.08C202.32 124.62 202.98 124.98 203.76 125.04Z" fill="#111111"/>
<path d="M202.139 118.5H223.379C223.979 118.5 224.939 118.38 225.299 117.84C225.659 117.3 224.999 117 224.579 117H203.339C202.739 117 201.779 117.12 201.419 117.72C201.059 118.32 201.659 118.5 202.139 118.5Z" fill="#111111"/>
<path d="M203.46 111.9H224.7C225.06 111.9 224.46 110.94 224.4 110.82C224.22 110.52 223.56 109.44 223.14 109.44H201.9C201.54 109.44 202.14 110.4 202.2 110.52C202.38 110.82 202.98 111.9 203.46 111.9Z" fill="#111111"/>
<path d="M201.72 104.7H222.96C223.56 104.7 224.52 104.7 225 104.28C225.48 103.86 224.7 103.74 224.4 103.74H203.16C202.56 103.74 201.6 103.74 201.12 104.16C200.64 104.58 201.36 104.7 201.72 104.7Z" fill="#111111"/>
<path d="M220.859 183.18C222.019 183.18 222.959 182.24 222.959 181.08C222.959 179.92 222.019 178.98 220.859 178.98C219.699 178.98 218.759 179.92 218.759 181.08C218.759 182.24 219.699 183.18 220.859 183.18Z" fill="#111111"/>
<path d="M221.64 180.54C221.64 180.66 221.64 180.78 221.64 180.9V180.72C221.58 181.2 221.34 181.62 220.98 181.92L221.1 181.8C220.86 182.04 220.5 182.22 220.2 182.28L220.38 182.22C220.26 182.22 220.14 182.28 220.02 182.28H219.84C219.96 182.28 220.08 182.28 219.84 182.28H219.66C220.02 182.34 219.84 182.34 219.72 182.28C220.14 182.4 219.96 182.34 219.84 182.34L220.08 182.46L220.02 182.4L220.26 182.52L220.2 182.46C220.26 182.46 220.5 182.7 220.32 182.52C220.14 182.34 220.56 182.76 220.38 182.58L220.26 182.46C220.14 182.34 220.38 182.7 220.26 182.52L220.2 182.4C220.14 182.28 220.08 182.16 220.08 182.1L220.14 182.28C220.02 181.98 220.02 181.62 220.08 181.26V181.44C220.14 180.96 220.38 180.54 220.74 180.24L220.62 180.36C220.86 180.12 221.22 179.94 221.52 179.88L221.34 179.94C221.46 179.88 221.58 179.88 221.7 179.88C221.76 179.88 221.82 179.88 221.88 179.88C221.64 179.94 221.76 179.88 221.88 179.88H222.06C221.7 179.82 221.88 179.88 222 179.88C221.58 179.76 221.76 179.82 221.88 179.82L221.64 179.7L221.7 179.76L221.46 179.64L221.52 179.7C221.46 179.7 221.22 179.46 221.4 179.64C221.58 179.82 221.22 179.4 221.34 179.58L221.46 179.7C221.58 179.82 221.34 179.52 221.46 179.64C221.46 179.7 221.52 179.7 221.52 179.76C221.58 179.88 221.64 180 221.64 180.06L221.58 179.88C221.58 180.06 221.64 180.3 221.64 180.54C221.64 180.78 221.94 181.02 222.06 181.14C222.36 181.38 222.66 181.62 223.02 181.74C223.32 181.86 224.28 182.22 224.28 181.62C224.28 180.12 222.84 178.98 221.52 178.44C220.2 177.9 218.88 177.9 217.92 178.92C217.26 179.76 217.14 180.9 217.74 181.8C218.22 182.52 218.88 183.06 219.6 183.42C220.32 183.84 221.22 184.02 222.06 183.96C222.66 183.9 223.26 183.6 223.68 183.12C224.04 182.7 224.28 182.1 224.28 181.56C224.28 181.32 223.98 181.02 223.86 180.9C223.56 180.66 223.2 180.42 222.9 180.3C222.6 180.3 221.64 179.94 221.64 180.54Z" fill="#111111"/>
<path d="M221.039 174.9C222.199 174.9 223.139 173.96 223.139 172.8C223.139 171.64 222.199 170.7 221.039 170.7C219.88 170.7 218.939 171.64 218.939 172.8C218.939 173.96 219.88 174.9 221.039 174.9Z" fill="#111111"/>
<path d="M221.76 172.26C221.76 172.86 221.46 173.46 220.98 173.88L221.04 173.82C220.8 174.06 220.5 174.18 220.14 174.24H220.02C220.08 174.24 220.14 174.24 220.02 174.24C219.96 174.24 219.78 174.24 219.72 174.24C219.66 174.24 219.96 174.24 219.78 174.24C219.54 174.18 219.6 174.24 219.78 174.24C220.02 174.3 219.54 174.18 219.96 174.3H220.08L220.32 174.36C220.32 174.36 220.68 174.54 220.56 174.48C220.56 174.48 220.86 174.66 220.74 174.6C221.1 174.84 220.86 174.72 220.86 174.66C220.74 174.54 220.86 174.6 220.86 174.66L220.8 174.6C220.8 174.54 220.74 174.54 220.74 174.48C220.74 174.42 220.8 174.54 220.74 174.48C220.68 174.42 220.56 174.18 220.5 174.06C220.44 173.88 220.38 173.7 220.38 173.52V173.64C220.32 172.98 220.62 172.26 221.1 171.84L221.04 171.9C221.28 171.66 221.58 171.54 221.94 171.48H222.06C221.94 171.48 222 171.48 222.06 171.48C222.12 171.48 222.3 171.48 222.3 171.48C222.3 171.48 222.06 171.48 222.24 171.48C222.42 171.48 222.48 171.54 222.24 171.48C222 171.42 222.48 171.54 222.06 171.42H221.94L221.7 171.36C221.7 171.36 221.34 171.18 221.46 171.24C221.46 171.24 221.16 171.06 221.28 171.12C220.92 170.88 221.16 171 221.16 171.06C221.16 171.12 221.28 171.18 221.16 171.06L221.22 171.12C221.22 171.18 221.28 171.18 221.28 171.24C221.22 171.18 221.28 171.3 221.28 171.24C221.34 171.3 221.46 171.54 221.52 171.72C221.7 171.84 221.76 172.02 221.76 172.26V172.08C221.76 172.14 221.76 172.2 221.76 172.26C221.76 172.44 221.94 172.56 222.06 172.68C222.36 172.92 222.66 173.04 222.96 173.22C223.08 173.28 224.52 173.76 224.52 173.46C224.52 172.92 224.34 172.38 223.98 171.96C223.44 171.3 222.72 170.82 221.94 170.58C220.68 170.04 219.12 169.74 218.04 170.82C217.38 171.54 217.26 172.68 217.8 173.52C218.22 174.12 218.82 174.66 219.54 174.96C220.38 175.44 221.34 175.68 222.3 175.68C222.9 175.62 223.44 175.38 223.86 174.96C224.22 174.54 224.46 174.06 224.46 173.46C224.46 173.28 224.28 173.16 224.16 173.04C223.86 172.8 223.56 172.68 223.26 172.5C223.2 172.44 221.76 171.9 221.76 172.26Z" fill="#111111"/>
<path d="M221.22 167.82C222.38 167.82 223.32 166.88 223.32 165.72C223.32 164.56 222.38 163.62 221.22 163.62C220.06 163.62 219.12 164.56 219.12 165.72C219.12 166.88 220.06 167.82 221.22 167.82Z" fill="#111111"/>
<path d="M221.94 166.2C221.94 166.26 221.94 166.26 221.94 166.32V166.02C221.94 166.2 221.88 166.44 221.82 166.62L221.94 166.32C221.88 166.44 221.88 166.5 221.82 166.62C221.76 166.74 221.64 166.8 221.88 166.5C221.82 166.56 221.82 166.56 221.76 166.62C221.7 166.68 221.52 166.8 221.88 166.5L221.76 166.56L221.64 166.68C221.52 166.8 222.06 166.44 221.76 166.56L221.64 166.62C222.06 166.38 221.94 166.5 221.82 166.56L221.64 166.62C222.06 166.5 221.94 166.56 221.76 166.56H221.58C221.34 166.56 221.94 166.56 221.7 166.56C221.58 166.56 221.46 166.56 221.34 166.5L221.64 166.56C221.46 166.5 221.22 166.44 221.04 166.38L221.28 166.5C221.04 166.38 220.86 166.2 220.68 166.02L220.86 166.2C220.68 165.96 220.56 165.72 220.44 165.48L220.5 165.72C220.44 165.48 220.38 165.18 220.38 164.94V165.24C220.38 165.06 220.44 164.82 220.5 164.64L220.38 164.94C220.44 164.82 220.44 164.76 220.5 164.64C220.56 164.52 220.68 164.46 220.44 164.76L220.56 164.64C220.62 164.52 220.8 164.46 220.44 164.76L220.56 164.7L220.68 164.58C220.8 164.46 220.26 164.82 220.56 164.7L220.68 164.64C220.26 164.88 220.38 164.76 220.5 164.7L220.68 164.64C220.26 164.76 220.38 164.7 220.56 164.7H220.74C220.98 164.7 220.38 164.7 220.62 164.7L220.98 164.76L220.68 164.7C220.86 164.76 221.1 164.82 221.28 164.88L221.04 164.76C221.28 164.88 221.46 165.06 221.64 165.24L221.46 165C221.64 165.24 221.76 165.48 221.88 165.72L221.82 165.48C221.88 165.72 221.94 165.96 221.94 166.2C222 166.5 222.18 166.74 222.42 166.8C222.78 166.92 223.08 166.86 223.44 166.74C224.16 166.56 224.64 165.96 224.7 165.24C224.64 164.04 223.86 163.02 222.72 162.66C221.16 162.24 219.48 162.78 218.46 164.04C217.56 165.06 217.44 166.5 218.1 167.64C218.82 168.72 220.14 169.26 221.46 168.96C222.42 168.78 223.26 168.24 223.92 167.52C224.46 166.92 224.7 166.14 224.7 165.3C224.7 165 224.4 164.76 224.16 164.7C223.8 164.58 223.5 164.64 223.14 164.76C222.48 164.88 222 165.48 221.94 166.2Z" fill="#111111"/>
<path d="M221.16 160.32C222.319 160.32 223.26 159.38 223.26 158.22C223.26 157.06 222.319 156.12 221.16 156.12C220 156.12 219.06 157.06 219.06 158.22C219.06 159.38 220 160.32 221.16 160.32Z" fill="#111111"/>
<path d="M221.82 158.4C221.82 158.52 221.82 158.64 221.76 158.82L221.82 158.46C221.76 158.64 221.76 158.76 221.64 158.94L221.76 158.64C221.7 158.76 221.58 158.94 221.52 159.06L221.76 158.76C221.64 158.88 221.52 159 221.4 159.12L221.7 158.88C221.58 159 221.46 159.06 221.34 159.12L221.7 158.94C221.58 159 221.4 159.06 221.22 159.12L221.58 159.06C221.4 159.12 221.28 159.12 221.1 159.12H221.46C221.28 159.12 221.1 159.12 220.86 159.06L221.16 159.12C220.98 159.06 220.8 159 220.62 158.88L220.92 159.06C220.74 158.94 220.56 158.82 220.44 158.64L220.68 158.88C220.56 158.7 220.44 158.52 220.32 158.34L220.44 158.64C220.38 158.4 220.32 158.22 220.26 157.98V158.34C220.26 158.16 220.26 157.92 220.32 157.74L220.26 158.1C220.32 157.92 220.32 157.8 220.44 157.62L220.32 157.92C220.38 157.8 220.5 157.62 220.56 157.5L220.32 157.8C220.44 157.68 220.56 157.56 220.68 157.44L220.38 157.68C220.5 157.62 220.62 157.5 220.74 157.44L220.38 157.62C220.56 157.56 220.68 157.5 220.86 157.44L220.5 157.5C220.68 157.44 220.8 157.44 220.98 157.44H220.62C220.8 157.44 220.98 157.44 221.22 157.5L220.86 157.44C221.04 157.5 221.22 157.56 221.4 157.68L221.1 157.5C221.28 157.62 221.46 157.74 221.58 157.92L221.34 157.68C221.46 157.86 221.58 158.04 221.7 158.22L221.58 157.92C221.64 158.1 221.7 158.34 221.76 158.58L221.7 158.28C221.82 158.28 221.82 158.34 221.82 158.4C221.82 158.76 221.94 159.06 222.18 159.3C222.48 159.54 222.84 159.6 223.14 159.54C223.92 159.48 224.52 158.82 224.64 158.04C224.64 157.38 224.46 156.72 224.1 156.18C223.74 155.64 223.2 155.22 222.6 154.98C220.62 154.32 218.46 155.34 217.8 157.32C217.68 157.62 217.62 157.86 217.62 158.16C217.56 158.82 217.74 159.48 218.1 160.08C218.82 161.22 220.2 161.82 221.58 161.58C222.42 161.46 223.2 161.04 223.8 160.38C224.4 159.72 224.7 158.94 224.76 158.04C224.76 157.38 224.22 156.84 223.56 156.84C223.5 156.84 223.44 156.84 223.44 156.84C222.54 157.02 221.94 157.62 221.82 158.4Z" fill="#111111"/>
<path d="M51.1201 102.36C51.1201 104.22 51.1201 106.02 51.1801 107.88C51.1201 108.06 51.3001 108.3 51.4801 108.3C51.5401 108.3 51.6001 108.3 51.6601 108.3H54.3601" fill="white"/>
<path d="M58.5597 102.24C58.4997 104.1 58.5597 105.9 58.6797 107.76L58.5597 102.24Z" fill="white"/>
<path d="M61.6201 102.36C62.5201 104.16 63.6001 105.9 64.8601 107.46C64.9201 107.52 64.9201 107.58 64.9801 107.58C65.0401 107.58 65.1601 107.46 65.2201 107.34C65.7601 105.6 66.3001 103.92 66.7801 102.18" fill="white"/>
<path d="M155.641 158.88L161.041 152.16C161.041 152.16 168.601 151.14 173.701 146.94C173.701 146.94 177.421 147.3 177.781 145.44C178.141 143.58 176.101 143.34 176.101 143.34C176.101 143.34 175.501 141.78 172.501 143.1C172.501 143.1 159.241 137.4 158.941 136.86C158.641 136.32 158.161 132.96 155.941 130.74C153.721 128.52 151.801 130.02 152.461 131.94C152.941 133.32 153.361 134.7 153.721 136.14C153.721 136.14 149.701 139.08 151.381 143.46L147.661 148.38C147.661 148.38 149.041 155.94 155.641 158.88Z" fill="white"/>
<path d="M156.842 159.42L162.242 152.7L160.922 153.42C165.782 152.76 170.822 150.84 174.662 147.72L173.222 148.14C175.022 148.32 177.422 148.14 178.622 146.58C179.582 145.32 179.342 143.52 178.142 142.56C177.722 142.2 177.182 142.02 176.642 141.96L177.482 142.5C177.242 141.96 176.762 141.6 176.222 141.36C174.782 140.82 173.282 141.3 171.962 141.84L173.402 141.78C169.982 140.34 166.562 138.84 163.202 137.28C162.362 136.92 161.582 136.56 160.802 136.14C160.562 136.02 160.322 135.84 160.082 135.78C159.842 135.72 160.322 136.02 160.142 135.84C160.262 135.96 160.382 136.26 160.262 135.96C159.902 134.64 159.422 133.32 158.822 132.06C157.922 130.38 156.482 128.52 154.502 128.22C152.822 127.92 151.202 129.12 150.902 130.8C150.842 131.1 150.842 131.4 150.902 131.7C151.142 132.72 151.442 133.74 151.862 134.76C152.042 135.3 152.162 135.9 152.342 136.44L152.822 135.18C151.922 135.84 151.202 136.68 150.662 137.7C149.522 139.62 149.282 142.02 150.122 144.12L150.242 142.8L148.202 145.5L146.882 147.24C146.462 147.66 146.222 148.2 146.222 148.74C146.342 149.52 146.582 150.3 146.882 151.08C147.422 152.58 148.202 154.02 149.162 155.34C150.602 157.32 152.522 158.94 154.802 159.96C156.242 160.62 158.102 158.34 156.482 157.62C153.842 156.36 151.742 154.32 150.482 151.68C149.822 150.54 149.342 149.22 149.102 147.9L148.862 148.86C150.122 147.24 151.502 145.62 152.582 143.94C153.182 143.04 152.402 141.9 152.462 140.94C152.522 140.22 152.702 139.5 153.062 138.84C153.242 138.54 153.422 138.24 153.662 137.94C153.722 137.88 154.082 137.46 153.782 137.76C153.842 137.7 153.962 137.58 154.022 137.52C154.202 137.34 154.442 137.1 154.682 136.98C155.042 136.68 155.222 136.2 155.162 135.72C154.802 134.22 154.262 132.78 153.842 131.34C153.782 131.16 153.782 130.92 153.782 130.74C153.782 130.8 153.722 130.8 153.722 130.86C153.542 130.92 153.902 130.74 153.722 130.86C153.722 130.86 153.482 131.04 153.482 130.92C153.482 130.8 154.322 131.28 154.382 131.34C154.802 131.7 155.162 132.06 155.462 132.48C156.302 133.74 156.902 135.18 157.322 136.68C157.442 137.4 157.922 138 158.582 138.36C160.382 139.38 162.302 140.16 164.162 141C166.262 141.96 168.362 142.86 170.462 143.76C171.062 144 171.842 144.48 172.502 144.36C173.042 144.3 173.522 143.94 174.062 143.88C174.182 143.88 174.242 143.88 174.362 143.88C174.482 143.88 174.782 143.94 174.542 143.88C174.602 143.88 174.662 143.94 174.662 143.94C174.782 144 174.482 143.88 174.602 143.88C174.722 143.88 174.722 144 174.782 144.06C174.542 143.88 174.662 143.88 174.722 144.06C174.902 144.36 175.202 144.54 175.562 144.6C175.622 144.6 175.742 144.6 175.802 144.66C175.862 144.66 176.102 144.78 175.802 144.66C175.862 144.66 175.982 144.72 176.042 144.78C176.102 144.78 176.282 144.96 176.102 144.78C176.102 144.78 176.342 145.08 176.222 144.9C176.342 145.02 176.222 145.26 176.282 145.44C176.282 145.38 176.402 145.14 176.282 145.38L176.342 145.26C176.222 145.38 176.222 145.38 176.342 145.26C176.342 145.38 176.042 145.38 175.802 145.44C175.682 145.5 175.502 145.5 175.322 145.5C175.022 145.5 174.782 145.56 174.482 145.56C174.302 145.56 174.122 145.56 173.942 145.56C173.702 145.56 174.302 145.56 174.002 145.56C172.862 145.5 172.142 146.4 171.242 146.94C169.862 147.84 168.422 148.56 166.922 149.1C165.662 149.58 164.342 150 163.022 150.3C162.602 150.42 162.122 150.54 161.702 150.6L161.222 150.66C160.742 150.72 161.462 150.6 161.102 150.66C160.382 150.78 159.782 151.2 159.362 151.74L157.742 153.78L154.262 158.1C153.842 158.58 153.962 159.3 154.442 159.72C154.502 159.78 154.562 159.78 154.622 159.84C155.522 160.32 156.422 160.08 156.842 159.42Z" fill="#111111"/>
<path d="M165.422 145.08C165.422 145.08 170.102 144.48 172.562 143.1L165.422 145.08Z" fill="white"/>
<path d="M166.082 146.4C166.982 146.28 167.942 146.1 168.842 145.92C170.402 145.62 171.962 145.14 173.342 144.42C173.522 144.3 173.462 144 173.402 143.88C173.342 143.52 173.162 143.22 172.982 142.92C172.802 142.62 172.562 142.32 172.322 142.08C172.202 141.96 171.962 141.78 171.782 141.9C170.402 142.62 168.902 143.1 167.342 143.4C166.502 143.58 165.662 143.76 164.822 143.82C164.282 143.88 164.702 144.78 164.822 145.02C165.002 145.38 165.182 145.68 165.482 145.98C165.542 146.1 165.842 146.4 166.082 146.4Z" fill="#111111"/>
<path d="M176.101 143.34C176.101 143.34 176.581 144.6 173.701 146.94L176.101 143.34Z" fill="white"/>
<path d="M174.661 143.82V143.88L174.601 143.52C174.601 143.64 174.601 143.76 174.601 143.88L174.661 143.52C174.601 143.7 174.541 143.94 174.481 144.12L174.661 143.82C174.421 144.24 174.241 144.54 174.001 144.78L174.241 144.48C173.761 145.08 173.221 145.62 172.621 146.1C172.381 146.34 172.201 146.7 172.201 147.06C172.201 147.42 172.381 147.72 172.681 147.9C172.981 148.14 173.341 148.2 173.701 148.14L174.121 148.08C174.361 148.02 174.601 147.84 174.781 147.66C175.681 146.94 176.461 146.1 177.061 145.14C177.421 144.6 177.601 144 177.601 143.34C177.601 143.16 177.601 142.98 177.541 142.8C177.241 142.14 176.401 141.78 175.741 142.08C175.081 142.44 174.361 143.1 174.661 143.82Z" fill="#111111"/>
<path d="M165.061 142.32C165.061 142.32 171.061 143.28 172.081 143.16L165.061 142.32Z" fill="white"/>
<path d="M164.161 143.04C166.201 143.34 168.241 143.7 170.281 143.88C170.821 143.94 171.361 143.94 171.901 143.88C172.441 143.82 173.401 143.58 173.581 142.92C173.761 142.26 172.681 142.26 172.381 142.32C172.081 142.38 172.801 142.32 172.561 142.32H172.201L171.541 142.26L171.181 142.2H171.241H171.001C170.701 142.14 170.401 142.14 170.101 142.08C168.961 141.96 167.821 141.78 166.681 141.6L165.961 141.48C165.241 141.36 164.521 141.54 163.921 142.02C163.441 142.5 163.561 142.98 164.161 143.04Z" fill="#111111"/>
<path d="M164.042 143.7C163.322 143.16 162.542 142.74 161.702 142.5C160.682 142.2 159.662 142.14 158.582 142.32C157.562 142.44 156.602 142.92 155.882 143.58C155.702 143.7 155.942 143.94 156.062 143.94C156.362 144.06 156.662 144.12 156.962 144.12C157.622 144.18 158.222 144.06 158.762 143.64L158.882 143.58C158.942 143.52 159.002 143.46 159.122 143.4L159.302 143.28L159.242 143.34L159.362 143.28C159.422 143.28 159.482 143.22 159.542 143.22L159.362 143.28L159.482 143.22C159.722 143.16 159.122 143.28 159.422 143.22C159.542 143.22 159.722 143.22 159.302 143.22C159.602 143.22 159.182 143.22 159.182 143.22C159.182 143.22 159.302 143.22 159.362 143.22C159.602 143.22 159.002 143.16 159.242 143.22H159.482C159.602 143.22 159.182 143.16 159.422 143.22C159.482 143.22 159.542 143.28 159.602 143.28C159.722 143.28 159.842 143.34 159.962 143.4C159.662 143.34 159.962 143.4 160.082 143.46L160.382 143.58C160.562 143.64 160.742 143.76 160.862 143.88L161.042 144C160.922 143.94 161.222 144.12 161.042 144L161.162 144.12C161.702 144.42 162.422 144.54 163.022 144.36C163.322 144.3 163.622 144.24 163.922 144.06C164.042 144 164.222 143.82 164.042 143.7Z" fill="#111111"/>
<path d="M126.842 197.76C135.842 198.24 157.022 169.2 155.582 159.54C153.722 147.18 147.722 147.12 147.722 147.12C135.902 156.42 118.802 147.18 112.562 143.22C109.802 140.7 106.622 139.5 103.022 140.22C87.782 143.22 29.582 200.76 101.342 199.08" fill="white"/>
<path d="M127.141 198.3C130.321 198.42 133.081 196.62 135.481 194.7C138.841 191.94 141.841 188.82 144.481 185.4C147.421 181.74 150.061 177.84 152.401 173.76C154.261 170.46 156.061 166.92 156.841 163.14C157.141 161.58 157.141 159.96 156.841 158.4C156.421 155.76 155.581 153.24 154.261 150.96C152.941 148.62 150.661 147 148.021 146.52C147.481 146.4 146.881 146.4 146.281 146.64C145.681 147 145.141 147.48 144.541 147.84C143.881 148.26 143.221 148.62 142.501 148.92C139.981 150 137.221 150.54 134.401 150.48C129.121 150.3 123.961 148.44 119.281 146.1C117.481 145.26 115.741 144.24 114.061 143.16C113.461 142.74 112.981 142.26 112.381 141.84C111.661 141.36 110.941 140.94 110.161 140.58C108.601 139.86 106.861 139.44 105.181 139.38C102.541 139.32 99.9615 139.98 97.6815 141.24C92.9415 143.64 88.6215 147.06 84.6615 150.66C79.8615 154.92 75.5415 159.72 71.8215 164.94C68.6415 169.5 65.7015 174.72 64.9215 180.36C64.5615 182.7 64.8015 185.1 65.5815 187.32C66.4815 189.6 67.9815 191.58 69.9615 193.08C72.6615 195.18 75.8415 196.44 79.1415 197.34C83.7015 198.54 88.4415 199.26 93.1815 199.44C96.1215 199.56 99.0615 199.62 102.001 199.56C102.361 199.56 103.081 199.38 102.601 198.96C102.121 198.54 101.161 198.48 100.621 198.48C96.7815 198.6 92.9415 198.48 89.1015 198.12C86.2215 197.88 83.3415 197.4 80.5215 196.62C79.3815 196.32 78.3015 195.96 77.2215 195.54C76.8615 195.42 76.9215 195.42 76.6815 195.3L75.9015 194.94C75.4215 194.7 74.9415 194.46 74.5215 194.22C73.0215 193.38 71.6415 192.24 70.5015 190.92C68.5215 188.46 67.5615 185.34 67.8015 182.16C67.9815 178.56 69.3015 175.02 70.9215 171.84C72.9015 168.06 75.3015 164.52 78.0015 161.28C80.7615 157.86 83.8215 154.68 87.0615 151.74C89.9415 149.04 93.0615 146.64 96.3015 144.42C97.5615 143.58 98.8815 142.8 100.261 142.08C100.861 141.78 101.461 141.48 102.061 141.24C102.301 141.12 102.601 141 102.901 140.94L103.261 140.82C103.321 140.76 103.801 140.7 103.501 140.76C104.761 140.4 106.141 140.4 107.401 140.76C109.261 141.36 110.521 142.74 112.141 143.76C114.781 145.38 117.541 146.82 120.421 148.02C127.621 151.08 136.261 153 143.821 150.24C145.681 149.52 147.481 148.56 149.041 147.3L147.961 147.48C148.261 147.48 147.601 147.42 147.721 147.42C148.201 147.48 147.361 147.36 147.781 147.42C147.661 147.36 148.201 147.48 147.781 147.42C147.901 147.48 147.961 147.48 148.081 147.54C148.261 147.6 147.841 147.42 148.201 147.6L148.681 147.84C148.921 147.96 148.501 147.72 148.741 147.9L148.921 148.02C149.041 148.14 149.161 148.2 149.341 148.32C149.641 148.56 149.941 148.86 150.241 149.16C150.961 149.94 151.561 150.84 152.041 151.86C152.701 153.24 153.241 154.68 153.601 156.18C153.961 157.5 154.201 158.88 154.261 160.26C154.201 162 153.841 163.74 153.241 165.36C151.621 170.04 149.041 174.42 146.341 178.5C143.401 182.94 140.041 187.08 136.321 190.86C134.581 192.6 132.721 194.16 130.681 195.54C129.901 196.08 129.061 196.5 128.161 196.86C127.861 196.98 127.501 197.1 127.201 197.16C127.081 197.16 126.481 197.22 126.841 197.22C126.781 197.22 126.661 197.22 126.601 197.22C126.241 197.28 126.781 197.22 126.601 197.22C126.421 197.22 125.341 197.16 125.461 197.7C125.581 198.24 126.901 198.3 127.261 198.3H127.141Z" fill="#111111"/>
<path d="M99.0007 146.88C100.441 149.52 101.881 152.16 103.321 154.74C105.781 159.18 108.301 163.62 111.121 167.82C111.961 169.02 112.741 170.46 113.941 171.42C114.601 171.96 115.981 172.62 116.821 172.26C117.241 172.08 117.181 171.66 117.241 171.24C117.241 169.32 117.121 167.46 116.821 165.54C116.521 162.78 116.101 160.02 115.741 157.2C115.321 154.56 114.961 151.92 114.541 149.28C114.301 147.84 114.181 146.28 113.821 144.84C113.821 144.78 113.821 144.72 113.761 144.6C113.641 143.82 110.821 143.22 110.941 143.94C111.481 147.18 112.021 150.42 112.501 153.66C113.221 158.58 114.061 163.56 114.361 168.54C114.421 169.2 114.421 169.86 114.361 170.52C114.301 170.7 114.301 170.82 114.241 171C114.241 171 114.301 170.94 114.421 170.94C114.961 170.88 115.501 171 115.921 171.24C116.101 171.3 116.221 171.36 116.341 171.48C116.221 171.42 116.161 171.3 116.281 171.48L116.041 171.24C115.861 171 115.681 170.82 115.501 170.58C115.021 169.92 114.541 169.26 114.121 168.6C111.481 164.64 109.141 160.5 106.801 156.36C105.181 153.48 103.621 150.48 101.941 147.6L101.881 147.48C101.581 146.94 100.801 146.7 100.261 146.58C100.081 146.64 98.7607 146.4 99.0007 146.88Z" fill="#111111"/>
<path d="M119.581 186.9C119.581 186.9 116.821 201.84 115.321 201.72C113.821 201.6 115.441 186 115.441 186L119.581 186.9Z" fill="#111111"/>
<path d="M118.081 187.26C117.301 191.58 116.521 196.02 115.021 200.1C114.901 200.52 114.721 200.94 114.481 201.3C114.421 201.42 114.301 201.54 114.241 201.66C114.181 201.78 114.181 201.72 114.121 201.78C114.061 201.84 116.581 201.12 116.581 201.18C116.461 201 116.401 200.82 116.281 200.64C116.161 200.22 116.101 199.86 116.101 199.44C115.981 196.8 116.041 194.1 116.281 191.46C116.401 189.48 116.581 187.5 116.821 185.52L113.941 186.3L118.081 187.26C118.681 187.32 119.281 187.2 119.881 186.96C120.001 186.9 121.081 186.48 120.841 186.42L116.701 185.46C116.161 185.4 115.561 185.46 115.081 185.7C114.841 185.76 113.941 185.94 113.881 186.24C113.701 188.1 113.521 189.9 113.401 191.76C113.101 194.58 113.041 197.4 113.221 200.22C113.281 200.7 113.281 201.78 113.821 202.02C114.181 202.08 114.601 202.08 114.961 201.96C115.561 201.9 116.161 201.72 116.701 201.42C117.001 201.24 117.181 201 117.361 200.7C117.841 199.68 118.201 198.66 118.501 197.58C118.921 196.08 119.281 194.64 119.641 193.14C120.121 190.92 120.601 188.7 121.021 186.48C121.081 186.3 119.581 186.54 119.521 186.6C119.221 186.72 118.201 186.9 118.081 187.26Z" fill="#111111"/>
<path d="M126.241 177.48C126.241 177.48 115.681 176.1 114.541 176.34C113.401 176.58 111.181 184.98 111.661 185.58C112.141 186.18 122.161 188.22 123.121 188.16C124.081 188.1 126.241 177.48 126.241 177.48Z" fill="#464646"/>
<path d="M127.561 177.24C124.201 176.82 120.901 176.4 117.541 176.1C116.761 176.04 115.921 175.98 115.141 176.04C114.301 176.1 113.161 176.1 112.621 176.82C111.541 178.26 111.121 180.36 110.701 182.04C110.461 182.94 110.281 183.84 110.161 184.74C110.101 185.1 109.981 185.58 110.341 185.82C110.881 186.12 111.421 186.3 112.021 186.42C112.981 186.66 113.941 186.9 114.901 187.14C116.821 187.56 118.801 187.98 120.781 188.28C121.561 188.4 122.401 188.46 123.181 188.4C124.141 188.28 124.741 188.22 125.101 187.38C125.941 185.58 126.361 183.42 126.841 181.5C127.201 180.12 127.501 178.74 127.801 177.3C127.801 177.24 124.921 177 124.801 177.6C124.261 180.36 123.601 183.18 122.761 185.94C122.581 186.6 122.341 187.2 122.101 187.8C122.041 187.98 121.921 188.1 121.801 188.22C121.201 188.64 121.861 188.52 123.781 187.92C124.321 187.86 124.021 187.92 123.961 187.92C123.901 187.92 123.841 187.92 123.841 187.92H123.781C122.161 187.68 120.541 187.38 118.921 187.02C117.241 186.72 115.561 186.3 113.941 185.82C113.581 185.7 113.221 185.64 113.161 185.34C113.101 184.8 113.161 184.2 113.341 183.66C113.701 181.8 114.181 180 114.901 178.26C115.141 177.66 115.441 177.06 115.801 176.52C116.041 176.1 117.181 176.34 114.781 176.64C114.601 176.64 114.421 176.64 114.241 176.7C114.301 176.7 114.361 176.7 114.421 176.7C114.661 176.76 114.241 176.7 114.541 176.7H115.081C118.381 176.94 121.741 177.36 125.041 177.78C125.701 177.84 126.421 177.84 127.081 177.66C127.201 177.6 128.161 177.3 127.561 177.24Z" fill="#464646"/>
<path d="M127.862 160.92C127.862 160.92 120.302 156.24 116.702 159.12C113.102 162 112.082 173.04 115.082 175.74C118.082 178.44 123.842 178.86 126.542 173.76C129.242 168.66 129.542 162.42 127.862 160.92Z" fill="#111111"/>
<path d="M129.241 160.44C126.661 158.82 123.421 157.5 120.301 157.68C118.141 157.8 115.801 158.58 114.481 160.38C113.401 162 112.681 163.86 112.381 165.84C111.961 167.94 111.841 170.04 112.081 172.2C112.321 173.82 112.741 175.44 114.001 176.52C117.541 179.46 123.541 178.68 126.661 175.5C128.761 173.34 129.781 169.92 130.201 166.98C130.441 165 130.801 161.94 129.241 160.44C128.941 160.14 127.741 160.56 127.381 160.68C127.201 160.74 126.181 161.1 126.481 161.4C127.621 162.48 127.501 164.7 127.441 166.14C127.261 168.66 126.661 171.18 125.521 173.46C125.041 174.48 124.381 175.44 123.601 176.22C123.241 176.52 122.881 176.82 122.461 177C122.401 177.06 122.281 177.06 122.221 177.12C122.101 177.18 122.341 177.12 122.101 177.12C120.421 177.3 118.681 176.82 117.301 175.86C114.601 174 114.661 169.86 114.961 166.92C115.141 165.06 115.561 163.26 116.281 161.52C116.581 160.8 117.001 160.14 117.481 159.54C117.661 159.3 117.901 159.06 118.141 158.88L118.501 158.64C118.501 158.64 118.201 158.76 118.201 158.7C118.201 158.52 120.661 158.88 120.901 158.94C121.861 159.18 122.761 159.48 123.661 159.9C124.681 160.32 125.641 160.8 126.541 161.4C126.961 161.7 127.981 161.28 128.401 161.16C128.461 161.1 129.601 160.68 129.241 160.44Z" fill="#111111"/>
<path d="M101.342 199.08C101.342 199.08 118.562 201.96 118.022 196.38C118.022 196.38 122.642 196.5 120.842 192.72C120.842 192.72 126.542 192.06 127.862 189.78C129.182 187.5 127.022 185.88 124.862 186.78C122.702 187.68 117.962 188.28 115.502 186.9C115.502 186.9 117.302 185.7 118.622 185.7C119.942 185.7 123.602 184.08 121.742 181.32C119.462 177.96 105.482 177.96 100.862 186C100.802 186.06 95.7015 192.54 101.342 199.08Z" fill="white"/>
<path d="M100.742 199.86C102.842 200.22 105.002 200.46 107.162 200.52C110.402 200.7 114.242 200.88 117.242 199.38C118.562 198.78 119.642 197.64 119.522 196.08L117.782 197.1C118.922 197.1 120.062 196.86 121.082 196.38C121.802 196.08 122.342 195.54 122.642 194.82C122.882 193.92 122.762 192.96 122.282 192.18L121.022 193.38C123.542 193.08 126.602 192.42 128.522 190.68C129.902 189.48 130.322 187.14 128.462 186.12C127.442 185.58 126.242 185.46 125.162 185.76C124.262 185.94 123.602 186.3 122.702 186.48C120.842 186.84 118.442 187.14 116.702 186.18L116.642 187.14C116.702 187.08 116.762 187.08 116.822 187.02C116.582 187.08 117.062 186.9 117.122 186.84C117.542 186.6 117.962 186.42 118.382 186.3C119.222 186.18 120.002 186 120.782 185.76C122.282 185.16 124.082 183.78 123.662 181.92C123.002 179.1 119.222 178.44 116.822 178.26C112.982 177.96 109.202 178.62 105.662 180.24C102.842 181.56 100.562 183.66 99.0016 186.3C98.0416 187.86 97.4416 189.6 97.2616 191.46C97.0816 194.34 98.0416 197.16 99.9616 199.26C100.622 200.04 103.502 199.26 102.782 198.42C101.222 196.68 100.262 194.4 100.202 192.06C100.202 190.44 100.622 188.82 101.342 187.38C102.362 185.22 103.982 183.42 105.962 182.1C107.282 181.32 108.722 180.72 110.222 180.36C111.602 180 112.982 179.82 114.422 179.82C115.622 179.82 116.822 179.94 118.022 180.24C118.862 180.42 119.642 180.84 120.242 181.44C120.782 182.04 120.902 182.88 120.542 183.6C120.362 183.9 120.122 184.14 119.822 184.32C119.582 184.44 119.402 184.56 119.162 184.62L118.922 184.68C118.742 184.74 119.222 184.68 118.922 184.68C118.622 184.68 119.282 184.68 118.742 184.68C118.082 184.74 117.422 184.86 116.822 185.1C115.982 185.4 115.202 185.82 114.422 186.3C114.062 186.54 113.882 187.02 114.362 187.26C116.042 188.1 117.902 188.4 119.822 188.28C121.682 188.22 123.482 187.92 125.222 187.32C125.762 187.14 126.002 186.96 126.482 187.38C127.022 187.98 127.022 188.88 126.542 189.48C125.882 190.5 124.562 190.8 123.482 191.16C122.942 191.34 122.342 191.46 121.742 191.52C121.442 191.58 121.142 191.64 120.842 191.64C120.302 191.7 119.222 192.12 119.582 192.84C119.882 193.38 120.002 193.98 119.822 194.58C119.762 194.7 119.702 194.82 119.582 194.94C119.522 195 119.462 195.06 119.342 195.12C119.522 195 119.342 195.12 119.282 195.12C118.922 195.18 119.582 195 119.222 195.12L118.922 195.18C119.402 195.06 118.742 195.18 118.622 195.18C118.382 195.24 118.982 195.18 118.742 195.18C118.682 195.18 118.622 195.18 118.562 195.18H118.382C117.842 195.18 116.582 195.48 116.642 196.2C116.702 196.38 116.702 196.56 116.642 196.74C116.642 196.86 116.582 196.98 116.522 197.1C116.522 197.16 116.462 197.22 116.462 197.22C116.402 197.34 116.522 197.1 116.462 197.22C116.402 197.34 116.342 197.4 116.282 197.46C116.222 197.52 116.402 197.4 116.162 197.52C116.042 197.58 115.982 197.64 115.862 197.7C115.682 197.82 115.862 197.7 115.922 197.7L115.682 197.82C115.562 197.88 115.262 198 115.562 197.88C115.442 197.94 115.322 198 115.142 198C114.962 198 114.842 198.06 114.722 198.12C114.302 198.24 114.842 198.12 114.422 198.18C114.122 198.24 113.762 198.3 113.462 198.36L112.922 198.42H112.682C113.042 198.36 112.562 198.42 112.562 198.42C111.002 198.48 109.442 198.48 107.882 198.42H107.642C107.702 198.42 107.882 198.42 107.582 198.42L107.042 198.36L105.962 198.24C105.362 198.18 104.762 198.12 104.162 198.06C103.562 198 102.842 197.88 102.182 197.76C101.522 197.64 100.562 197.82 100.202 198.36C99.8416 198.9 100.202 199.8 100.742 199.86Z" fill="#111111"/>
<path d="M112.201 187.02C113.761 188.1 115.741 187.98 117.541 188.28C118.021 188.4 117.481 187.26 117.421 187.14C117.241 186.78 117.001 186.48 116.761 186.18C116.641 186 116.401 185.82 116.161 185.76C114.481 185.46 112.561 185.58 111.121 184.62C111.001 184.56 110.821 184.5 110.761 184.68C110.701 184.86 110.881 185.22 110.941 185.4C111.181 186 111.661 186.6 112.201 187.02Z" fill="#111111"/>
<path d="M114.841 192.48C117.181 192.96 119.521 193.2 121.921 193.08C122.221 193.08 123.061 192.9 122.581 192.42C122.041 192 121.321 191.76 120.601 191.82C120.061 191.82 119.581 191.88 119.041 191.82H118.861C119.041 191.82 119.041 191.82 118.861 191.82H118.501L117.781 191.76L117.061 191.7C116.941 191.7 116.821 191.7 116.701 191.64C117.061 191.7 116.701 191.64 116.641 191.64C116.101 191.58 115.561 191.46 115.081 191.34C114.721 191.28 114.361 191.28 114.001 191.34C113.881 191.34 113.521 191.46 113.521 191.64C113.401 192.18 114.601 192.48 114.841 192.48Z" fill="#111111"/>
<path d="M114.421 196.5C115.741 196.98 117.181 197.22 118.561 197.16C118.861 197.16 119.161 197.1 119.461 197.04C119.581 196.98 119.761 196.86 119.641 196.68C119.461 196.5 119.221 196.38 118.981 196.38C118.621 196.26 118.201 196.26 117.841 196.26H117.481H117.781H117.541H117.421H117.361L117.601 196.32L117.301 196.26H117.181C116.941 196.2 117.541 196.32 117.301 196.26L117.001 196.2L116.701 196.14C117.121 196.26 116.701 196.14 116.641 196.08C116.281 195.96 115.981 195.9 115.621 195.84C115.261 195.78 114.901 195.84 114.541 195.9C114.421 195.96 114.061 196.02 114.061 196.2C114.061 196.38 114.301 196.5 114.421 196.5Z" fill="#111111"/>
<path d="M88.9213 130.68C87.0613 111.84 99.0613 106.98 107.521 106.5C115.981 106.02 121.441 109.38 122.941 112.92C124.081 115.56 117.481 130.86 117.481 130.86L102.721 143.52C102.661 143.58 90.3613 145.08 88.9213 130.68Z" fill="#111111"/>
<path d="M90.3014 131.16C89.8814 126.78 90.0614 122.22 91.7414 118.08C92.9414 115.14 95.0414 112.62 97.6814 110.82C100.021 109.32 102.601 108.3 105.361 107.82C109.021 107.16 113.281 107.28 116.941 108.72C118.441 109.26 119.761 110.16 120.781 111.36C121.141 111.78 121.441 112.32 121.621 112.8C121.681 113.04 121.621 112.74 121.621 112.86C121.621 112.98 121.621 113.04 121.621 113.1C121.621 113.34 121.621 113.58 121.561 113.82C121.261 116.76 120.061 119.7 119.041 122.46C118.141 124.86 117.181 127.26 116.221 129.66C116.161 129.84 115.861 130.2 116.161 129.9L115.861 130.14L113.821 131.88L101.701 142.26L101.401 142.5L101.941 142.38C101.581 142.44 101.161 142.44 100.801 142.44H100.261H99.9014C100.021 142.44 100.021 142.44 99.7814 142.44C99.2414 142.38 98.7014 142.32 98.2214 142.2L97.8614 142.14C98.2814 142.26 97.7414 142.08 97.6814 142.08C97.3814 141.96 97.0214 141.9 96.7214 141.72C96.6014 141.66 96.1814 141.48 96.6014 141.66L96.1814 141.48L95.7014 141.24L95.5214 141.12L95.3414 141C95.4614 141.06 95.0414 140.82 94.9814 140.76L94.5614 140.46C94.5014 140.4 94.1414 140.1 94.3214 140.28C94.1414 140.16 94.0214 139.98 93.8414 139.8C93.3014 139.26 92.7614 138.6 92.3414 137.94C91.1414 136.02 90.4214 133.68 90.3014 131.16C90.1814 130.5 89.5214 130.08 88.9214 129.84C88.5614 129.72 87.4814 129.54 87.5414 130.26C88.0814 135.3 90.1214 139.92 94.6214 142.62C97.1414 144.06 99.9614 144.72 102.841 144.6C103.381 144.6 103.861 144.42 104.221 144.12L107.341 141.42L116.521 133.56C117.181 132.96 118.021 132.42 118.621 131.76C119.221 131.1 119.401 130.08 119.701 129.36C121.381 125.46 122.761 121.5 123.901 117.42C124.261 116.1 124.741 114.42 124.201 113.1C123.301 110.82 121.141 109.14 119.101 108C114.241 105.3 108.121 104.94 102.781 106.08C98.9414 106.8 95.3414 108.72 92.5814 111.48C89.0414 115.2 87.5414 120.24 87.3614 125.28C87.3014 126.96 87.3614 128.58 87.5414 130.2C87.6014 130.86 88.3214 131.34 88.9214 131.58C89.2214 131.7 90.3614 131.88 90.3014 131.16Z" fill="#111111"/>
<path d="M125.341 138.96C130.561 133.08 122.401 116.1 122.401 116.1C119.341 115.62 114.181 112.98 114.181 112.98C116.101 122.22 105.241 125.22 105.241 125.22C102.841 120.3 97.0206 122.28 97.5606 127.2C98.1006 132.12 102.841 132.48 102.841 132.48C102.841 132.48 100.861 144.66 101.401 146.64C101.401 146.64 109.561 151.92 114.301 144.66C114.301 144.6 121.801 142.92 125.341 138.96Z" fill="white"/>
<path d="M126.542 138.96C128.102 137.16 128.522 134.7 128.462 132.36C128.342 129.66 127.922 126.96 127.082 124.38C126.422 122.16 125.642 119.94 124.742 117.78C124.502 117.18 124.202 116.52 123.902 115.92C123.602 115.32 123.542 115.2 122.822 115.08C120.182 114.42 117.662 113.46 115.262 112.14C114.722 111.96 114.182 112.02 113.702 112.32C113.342 112.5 112.562 112.98 112.682 113.46C113.282 116.1 112.622 118.92 110.882 120.96C110.702 121.2 110.462 121.38 110.222 121.56C110.102 121.68 110.042 121.74 109.922 121.8L109.802 121.92C109.622 122.04 109.982 121.8 109.802 121.92C109.322 122.28 108.902 122.58 108.422 122.88C108.182 123.06 108.602 122.76 108.362 122.94L108.002 123.12L107.342 123.48C107.162 123.54 106.982 123.66 106.802 123.72L106.502 123.84C106.742 123.72 106.742 123.78 106.502 123.84C106.082 124.02 105.662 124.14 105.242 124.26L106.562 124.44C105.722 122.76 104.342 121.5 102.422 121.32C100.442 121.2 98.5815 122.04 97.3215 123.6C94.9815 126.36 96.1215 130.8 99.1815 132.48C100.082 132.96 101.042 133.26 102.062 133.38L101.402 132.9C100.802 136.68 100.202 140.46 99.9615 144.3C99.8415 145.14 99.8415 145.92 99.9015 146.76C99.9615 147.36 100.202 147.48 100.682 147.72C102.422 148.68 104.342 149.22 106.322 149.4C109.982 149.52 113.462 147.72 115.442 144.6L113.882 145.5C115.502 145.14 117.062 144.66 118.622 144.06C121.442 142.92 124.262 141.48 126.302 139.2C126.662 138.84 126.962 138.24 126.302 138.06C125.582 137.94 124.862 138.24 124.322 138.72C122.042 141.24 118.742 142.5 115.562 143.46L115.202 143.58C114.962 143.64 115.502 143.52 115.142 143.58L114.722 143.7C114.422 143.76 114.182 143.82 113.882 143.94C113.162 144.3 112.862 144.96 112.382 145.5C111.902 146.1 111.302 146.64 110.582 147C110.042 147.24 109.442 147.42 108.842 147.48C107.462 147.54 106.082 147.36 104.762 146.82C104.282 146.64 103.862 146.46 103.442 146.28C103.202 146.1 102.902 145.98 102.662 145.86C102.482 145.8 102.782 145.8 102.722 145.98C102.722 145.98 102.662 145.62 102.662 145.5C102.662 144.96 102.662 144.42 102.722 143.88C102.782 142.38 102.962 140.88 103.202 139.32C103.502 136.86 103.862 134.46 104.222 132C104.282 131.64 103.802 131.52 103.562 131.52C103.922 131.58 103.562 131.52 103.322 131.46C102.962 131.4 102.542 131.28 102.182 131.1C101.162 130.68 100.322 129.96 99.7215 129.06C98.9415 127.74 98.7015 126.18 99.1215 124.74C99.1815 124.5 99.3015 124.26 99.4815 124.02C99.6015 123.84 99.7215 123.66 99.9015 123.54C99.9615 123.48 100.082 123.42 100.202 123.36C100.142 123.36 100.262 123.36 100.262 123.36C100.382 123.36 100.442 123.36 100.562 123.3C102.182 123.24 103.322 124.56 103.982 125.88C104.222 126.3 104.942 126.12 105.302 126.06C109.322 124.92 113.642 122.04 115.202 118.02C115.862 116.28 116.042 114.36 115.622 112.5L113.042 113.82C115.682 115.2 118.562 116.58 121.502 117.06L121.142 116.82C122.042 118.74 122.882 120.72 123.542 122.76C124.802 126.36 125.882 130.26 125.822 134.1C125.762 135.9 125.402 137.7 124.262 139.02C123.842 139.5 124.202 139.98 124.742 139.98C125.342 139.86 126.062 139.5 126.542 138.96Z" fill="#111111"/>
<path d="M119.581 125.7C121.381 126.96 123.301 127.98 125.401 128.7C132.361 131.22 132.721 133.86 130.261 134.88C127.801 135.9 118.201 133.02 118.201 133.02" fill="white"/>
<path d="M118.442 126.12C120.242 127.44 122.222 128.52 124.322 129.3C125.822 129.78 127.262 130.44 128.582 131.22C129.002 131.46 129.362 131.76 129.722 132.12C129.782 132.18 129.962 132.36 129.842 132.24C129.722 132.12 129.902 132.36 129.962 132.36C130.022 132.36 130.202 132.9 130.142 132.6C130.202 132.72 130.202 132.84 130.262 133.02C130.322 132.84 130.322 133.2 130.262 133.02C130.262 133.08 130.202 133.14 130.202 133.2C130.202 133.26 130.142 133.44 130.202 133.26C130.262 133.08 130.202 133.32 130.142 133.32C130.082 133.38 130.082 133.44 130.022 133.5C129.902 133.68 130.142 133.44 130.022 133.5C129.902 133.56 129.782 133.68 129.662 133.8C129.602 133.8 129.842 133.74 129.662 133.8C129.602 133.8 129.482 133.86 129.422 133.92C129.242 134.04 129.662 133.86 129.482 133.92L129.242 133.98H129.002C128.762 134.04 129.302 133.98 128.942 133.98C128.522 133.98 128.042 133.98 127.622 133.92H127.202C127.442 133.92 127.262 133.92 127.142 133.92L126.302 133.8C125.162 133.62 124.082 133.38 122.942 133.14C121.802 132.9 120.902 132.66 119.822 132.36L119.222 132.18L118.982 132.12L118.802 132.06C118.202 131.88 117.242 131.76 116.882 132.36C116.522 132.96 117.182 133.56 117.662 133.74C119.102 134.16 120.542 134.58 121.982 134.88C124.262 135.54 126.662 135.9 129.002 135.96C130.502 135.96 132.902 135.42 133.142 133.56C133.142 132.6 132.722 131.7 132.062 131.1C130.982 130.14 129.782 129.3 128.462 128.76C126.662 127.92 124.622 127.32 122.882 126.36C122.282 126.06 121.742 125.7 121.142 125.34L120.662 125.04C120.542 124.98 120.242 124.68 120.722 125.1C120.122 124.62 119.342 124.44 118.622 124.68C118.202 124.8 117.962 125.22 118.082 125.64C118.262 125.94 118.322 126.06 118.442 126.12Z" fill="#111111"/>
<path d="M114.062 124.08C114.542 124.2 114.782 124.68 114.662 125.16C114.662 125.22 114.662 125.22 114.602 125.28C114.242 126.18 113.102 125.7 113.222 124.8C113.222 124.38 113.522 124.08 113.942 124.02C114.002 124.08 114.062 124.08 114.062 124.08Z" fill="#111111"/>
<path d="M121.382 123C121.862 123.12 122.102 123.6 121.982 124.08C121.982 124.14 121.982 124.14 121.922 124.2C121.562 125.1 120.422 124.62 120.542 123.72C120.542 123.3 120.842 123 121.262 122.94C121.322 123 121.322 123 121.382 123Z" fill="#111111"/>
<path d="M89.4608 124.68C89.4608 124.68 88.3808 136.92 81.3008 143.4C81.3008 143.4 87.7208 153.48 101.641 145.68L89.4608 124.68Z" fill="#111111"/>
<path d="M87.9617 124.44L87.9017 124.74C87.9017 124.86 87.8417 124.98 87.8417 125.1L87.7817 125.34C87.7817 125.52 87.7817 125.52 87.7817 125.52C87.6017 126.6 87.4217 127.68 87.1817 128.7C86.4617 131.88 85.3217 135 83.7617 137.82C82.7417 139.62 81.4817 141.24 79.9817 142.68C79.6817 142.98 79.8017 143.4 80.0417 143.7C81.0017 145.08 82.2017 146.22 83.5817 147.12C86.6417 149.16 90.3617 150.06 94.0817 149.58C97.0817 149.16 100.022 148.14 102.662 146.64C103.022 146.46 103.142 146.1 103.022 145.74L92.4017 127.32L90.8417 124.68C90.4817 124.02 89.7617 123.66 89.0417 123.66C88.5617 123.66 87.7217 124.02 88.0817 124.68L98.7617 143.1L100.322 145.74L100.682 144.84C98.5217 146.1 96.1817 147 93.7217 147.48C92.0417 147.78 90.3017 147.72 88.6817 147.36L88.4417 147.3C88.2017 147.24 88.6217 147.36 88.4417 147.3C88.2617 147.24 88.0817 147.18 87.9017 147.12C87.5417 147 87.1817 146.88 86.8217 146.7C86.5817 146.58 87.0017 146.76 86.5817 146.58L86.2217 146.4C85.9217 146.22 85.6217 146.04 85.3817 145.86C85.2617 145.8 85.1417 145.68 85.0217 145.62C85.2617 145.8 84.9617 145.56 84.9017 145.5C84.6617 145.32 84.4817 145.2 84.3017 145.02C84.1217 144.84 83.9417 144.72 83.7617 144.54L83.5217 144.3C83.2817 144.06 83.6417 144.42 83.4617 144.24C83.1617 143.88 82.8617 143.52 82.6217 143.16L82.6817 144.18C87.4217 139.74 89.7617 133.02 90.7217 126.78C90.8417 126.18 90.9017 125.58 90.9617 124.98C90.9617 123.78 88.1417 123 87.9617 124.44Z" fill="#111111"/>
<path d="M108.362 130.56L113.522 134.34C113.522 134.34 113.222 137.04 109.562 136.26C105.902 135.48 108.362 130.56 108.362 130.56Z" fill="#111111"/>
<path d="M108.542 131.7L113.102 135L113.762 135.48L112.682 133.38V133.44C112.622 133.62 112.742 133.26 112.682 133.38C112.622 133.5 112.682 133.5 112.622 133.5C112.562 133.74 112.442 133.98 112.262 134.22L112.202 134.34C112.142 134.4 112.322 134.28 112.202 134.34C112.082 134.4 112.082 134.46 112.022 134.52C111.842 134.64 111.722 134.76 111.542 134.82C111.422 134.88 111.362 134.88 111.242 134.94L111.002 135C110.882 135.06 111.002 135 110.942 135C110.642 135.06 110.342 135.06 110.042 135.06C109.682 135.06 109.322 135 108.962 134.94H108.842C108.902 134.94 108.722 134.88 108.722 134.88C108.602 134.82 108.482 134.76 108.362 134.7C108.242 134.64 108.482 134.82 108.362 134.7L108.242 134.64C108.062 134.52 108.302 134.64 108.302 134.7L108.242 134.64C108.182 134.58 108.122 134.46 108.362 134.82C108.362 134.76 108.302 134.76 108.302 134.7C108.362 134.76 108.542 135.06 108.422 134.88C108.302 134.7 108.602 135.24 108.542 135.06L108.482 135C108.422 134.88 108.542 135.24 108.542 135.24L108.482 135.12C108.422 134.94 108.482 135.18 108.482 135.24C108.482 135.12 108.422 135 108.422 134.88C108.422 134.82 108.422 134.76 108.422 134.76C108.482 135.06 108.422 134.88 108.422 134.82C108.422 134.76 108.422 134.58 108.422 134.52C108.422 134.28 108.482 134.1 108.482 133.86C108.482 133.8 108.482 133.74 108.542 133.74C108.602 133.74 108.602 133.56 108.542 133.68C108.482 133.8 108.542 133.62 108.542 133.62C108.542 133.62 108.602 133.5 108.602 133.44C108.782 132.9 108.962 132.42 109.202 131.88C109.262 131.64 109.262 131.34 109.142 131.1C109.022 130.74 108.842 130.38 108.602 130.08C108.422 129.84 107.702 129 107.462 129.54C106.622 131.04 106.382 132.72 106.802 134.4C107.042 135.3 107.582 136.14 108.302 136.8C108.842 137.28 109.502 137.64 110.222 137.76C111.362 138 112.742 138 113.582 137.1C114.062 136.68 114.362 136.08 114.422 135.48C114.422 135.12 114.302 134.7 114.122 134.4C113.942 133.98 113.702 133.68 113.342 133.38L108.782 130.08L108.122 129.6C108.002 129.48 107.702 129.3 107.522 129.42C107.342 129.54 107.342 129.84 107.402 130.02C107.522 130.62 107.942 131.22 108.542 131.7Z" fill="#111111"/>
<path d="M114.362 162.24C114.422 162.72 115.022 163.08 115.442 163.32C115.982 163.62 116.522 163.92 117.062 164.16C118.262 164.58 119.462 164.88 120.722 164.94C123.242 165.12 126.122 164.34 127.802 162.36C128.162 161.94 128.042 161.7 127.502 161.76C126.782 161.88 126.122 162.24 125.642 162.78C125.642 162.84 125.402 163.14 125.282 163.14C125.162 163.14 125.762 162.96 125.342 163.08C125.042 163.14 124.742 163.2 124.442 163.26C123.602 163.32 122.702 163.32 121.862 163.2C120.902 163.08 120.002 162.78 119.162 162.42C118.742 162.24 118.262 162 117.902 161.76C117.542 161.52 117.122 161.28 117.062 160.86C117.002 160.44 115.682 161.1 115.502 161.16C115.082 161.34 114.302 161.7 114.362 162.24Z" fill="white"/>
</svg>
