<svg width="51" height="46" viewBox="0 0 51 46" fill="none" xmlns="http://www.w3.org/2000/svg">
<path d="M30.5127 19.2744L50.083 45.2148H34.7617L22.752 29.4854L9.02637 45.2148H1.40527L19.1953 24.8213L0.429688 0.21875H16.1416L26.9795 14.5928L39.5312 0.214844H47.1465L30.5127 19.2744ZM36.8535 40.6465H41.0742L13.8359 4.54492H9.31055L36.8535 40.6465Z" fill="white"/>
<path d="M30.5127 19.2744L50.083 45.2148H34.7617L22.752 29.4854L9.02637 45.2148H1.40527L19.1953 24.8213L0.429688 0.21875H16.1416L26.9795 14.5928L39.5312 0.214844H47.1465L30.5127 19.2744ZM36.8535 40.6465H41.0742L13.8359 4.54492H9.31055L36.8535 40.6465Z" stroke="white"/>
</svg>
