<svg width="93" height="147" viewBox="0 0 93 147" fill="none" xmlns="http://www.w3.org/2000/svg">
<path d="M19.4381 14.1241L5.0712 39.1122L0.645604 66.9017C0.645604 66.9017 2.13417 87.17 2.09769 89.2725C2.06121 91.3749 0.354917 113.954 0.354917 113.954L8.44566 132.496L32.1928 142.635L52.9 146.15L82.414 126.945L92.1065 83.4734C92.1065 83.4734 89.1267 27.9519 89.1449 26.9008C89.1632 25.8496 73.6773 9.28163 73.6773 9.28163C73.6773 9.28163 61.2037 0.915581 59.1012 0.8791C56.9987 0.842623 45.1586 1.42578 45.1586 1.42578C45.1586 1.42578 18.6495 14.1105 19.4381 14.1241Z" fill="white"/>
</svg>
