<svg width="251" height="76" viewBox="0 0 251 76" fill="none" xmlns="http://www.w3.org/2000/svg">
<mask id="path-1-inside-1_829_6718" fill="white">
<path d="M74.0566 22.8963C70.4462 15.0487 64.1787 8.64966 56.3046 4.77179C48.4306 0.893932 39.4287 -0.227021 30.8078 1.59683C22.1868 3.42069 14.471 8.07849 8.9535 14.7895C3.43604 21.5005 0.452349 29.8567 0.502577 38.4575C0.552805 47.0584 3.63389 55.3809 9.22938 62.0302C14.8249 68.6795 22.5946 73.2514 31.2363 74.9794C39.878 76.7074 48.8662 75.4866 56.6945 71.5215C64.5227 67.5565 70.715 61.0883 74.2336 53.2011L38.9636 38.244L74.0566 22.8963Z"/>
</mask>
<path d="M74.0566 22.8963C70.4462 15.0487 64.1787 8.64966 56.3046 4.77179C48.4306 0.893932 39.4287 -0.227021 30.8078 1.59683C22.1868 3.42069 14.471 8.07849 8.9535 14.7895C3.43604 21.5005 0.452349 29.8567 0.502577 38.4575C0.552805 47.0584 3.63389 55.3809 9.22938 62.0302C14.8249 68.6795 22.5946 73.2514 31.2363 74.9794C39.878 76.7074 48.8662 75.4866 56.6945 71.5215C64.5227 67.5565 70.715 61.0883 74.2336 53.2011L38.9636 38.244L74.0566 22.8963Z" fill="#DCE81B" stroke="#4B4B4B" stroke-width="1.53847" mask="url(#path-1-inside-1_829_6718)"/>
<path d="M127.011 42.0514C129.108 42.0514 130.808 40.351 130.808 38.2536C130.808 36.1561 129.108 34.4558 127.011 34.4558C124.913 34.4558 123.213 36.1561 123.213 38.2536C123.213 40.351 124.913 42.0514 127.011 42.0514Z" fill="white"/>
<path d="M77.995 42.0514C80.0925 42.0514 81.7928 40.351 81.7928 38.2536C81.7928 36.1561 80.0925 34.4558 77.995 34.4558C75.8976 34.4558 74.1973 36.1561 74.1973 38.2536C74.1973 40.351 75.8976 42.0514 77.995 42.0514Z" fill="white"/>
<path d="M101.003 42.0514C103.1 42.0514 104.801 40.351 104.801 38.2536C104.801 36.1561 103.1 34.4558 101.003 34.4558C98.9054 34.4558 97.2051 36.1561 97.2051 38.2536C97.2051 40.351 98.9054 42.0514 101.003 42.0514Z" fill="white"/>
<path d="M149.018 42.0514C151.116 42.0514 152.816 40.351 152.816 38.2536C152.816 36.1561 151.116 34.4558 149.018 34.4558C146.921 34.4558 145.221 36.1561 145.221 38.2536C145.221 40.351 146.921 42.0514 149.018 42.0514Z" fill="white"/>
<path d="M173.824 45.0896C178.019 45.0896 181.42 41.6889 181.42 37.494C181.42 33.2991 178.019 29.8984 173.824 29.8984C169.629 29.8984 166.229 33.2991 166.229 37.494C166.229 41.6889 169.629 45.0896 173.824 45.0896Z" fill="white"/>
<path d="M195.117 35.9935V59.9931H195.274C196.028 65.069 200.474 68.9929 205.886 68.9929C209.499 68.9929 212.268 67.7419 214.108 65.471C215.252 66.5912 216.612 67.4792 218.111 68.0839C219.609 68.6886 221.215 68.9979 222.837 68.994C224.458 68.9901 226.063 68.673 227.558 68.0611C229.053 67.4493 230.409 66.5546 231.547 65.429C233.397 67.7149 236.175 68.9929 239.732 68.9929C245.67 68.9929 250.501 64.283 250.501 58.4931V35.9935C250.501 21.1078 238.08 8.99402 222.809 8.99402C207.539 8.99402 195.117 21.1078 195.117 35.9935Z" fill="#BBC41E"/>
<circle cx="212.809" cy="30.7358" r="6" fill="#D6E033"/>
<circle cx="232.809" cy="30.7358" r="6" fill="#D6E033"/>
</svg>
