<svg width="300" height="300" viewBox="0 0 300 300" fill="none" xmlns="http://www.w3.org/2000/svg">
<path d="M239.46 151.26C239.46 151.26 239.76 144.36 240.48 143.94C241.2 143.52 244.92 143.46 244.92 143.46L242.22 151.08L239.46 151.26Z" fill="#111111"/>
<path d="M240.96 151.26C241.02 149.82 241.14 148.32 241.26 146.82C241.32 146.34 241.38 145.86 241.44 145.44C241.44 145.26 241.5 145.08 241.56 144.9C241.56 144.84 241.62 144.72 241.62 144.66C241.62 144.6 241.62 144.6 241.62 144.54C241.56 144.66 241.68 144.42 241.62 144.54C241.68 144.42 241.74 144.36 241.74 144.24C241.74 144.12 241.62 144.36 241.68 144.3C241.74 144.24 241.38 144.42 241.56 144.36C241.74 144.3 241.68 144.42 241.44 144.36C241.56 144.36 241.62 144.36 241.68 144.3C241.32 144.36 241.98 144.24 241.68 144.3C241.92 144.24 242.22 144.24 242.46 144.18L242.94 144.12H243.18H243.12C243.42 144.12 243.66 144.12 243.96 144.06C244.26 144.06 244.5 144.06 244.8 144.06L243.36 143.28L240.96 150L240.6 150.96L241.62 150.54L238.92 150.72C238.62 150.72 237.6 150.96 237.9 151.5C238.2 152.04 239.28 151.98 239.76 151.92L242.46 151.74C242.7 151.74 243.42 151.62 243.48 151.32L245.88 144.6L246.24 143.64C246.48 142.98 245.16 142.86 244.8 142.86C243.9 142.86 243 142.92 242.1 142.98C241.44 143.04 240.78 143.1 240.18 143.22C239.64 143.28 239.16 143.52 238.8 143.88C238.62 144.18 238.5 144.48 238.5 144.84C238.38 145.26 238.32 145.74 238.26 146.16C238.14 147.24 238.02 148.32 237.96 149.34C237.9 150 237.9 150.66 237.84 151.32C237.84 151.86 238.98 151.98 239.34 151.98C239.7 151.98 240.96 151.86 240.96 151.26Z" fill="#111111"/>
<path d="M263.4 157.2L262.2 156.9C262.2 156.84 264.18 148.56 263.22 143.52C262.32 138.84 254.7 138.78 254.64 138.78V137.52C255 137.52 263.34 137.58 264.48 143.28C265.44 148.62 263.46 156.84 263.4 157.2Z" fill="#111111"/>
<path d="M225.12 169.08C225.12 169.08 220.62 168.78 220.5 167.28C220.38 165.78 220.02 159.48 221.58 158.34C222.6 157.62 223.86 157.14 225.12 157.08V169.08Z" fill="#111111"/>
<path d="M224.34 167.82C223.56 167.76 222.72 167.64 221.94 167.46C221.4 167.34 220.86 167.1 220.38 166.86H220.32C220.86 167.16 221.34 169.14 221.4 168.42C221.4 168.36 221.4 168.3 221.4 168.18C221.4 167.94 221.4 167.7 221.34 167.46C221.28 166.14 221.28 164.82 221.34 163.5C221.4 162.36 221.46 160.92 222.12 159.9C222.66 159.24 223.44 158.82 224.28 158.58C224.82 158.4 225.42 158.28 226.02 158.22L224.28 155.88V167.88C224.28 168.42 224.88 169.08 225.18 169.5C225.24 169.62 226.08 170.46 226.08 170.16V158.16C226.08 157.68 225.54 157.08 225.3 156.72C225.12 156.48 224.7 155.82 224.34 155.82C223.74 155.88 223.2 156 222.6 156.18C221.76 156.36 221.04 156.84 220.44 157.5C219.72 158.64 219.66 160.26 219.6 161.58C219.54 163.02 219.54 164.4 219.66 165.84C219.78 166.68 220.08 167.46 220.68 168.12C221.16 168.84 221.82 169.38 222.6 169.68C223.68 170.1 224.82 170.28 225.96 170.34C226.32 170.34 225.72 169.38 225.66 169.26C225.48 168.96 225.24 168.6 225 168.36C224.76 168.18 224.52 167.88 224.34 167.82Z" fill="#111111"/>
<path d="M224.159 176.04L231.659 176.88L230.279 151.92C230.279 151.92 225.239 151.8 224.759 153.3C224.279 154.8 223.499 174.54 224.159 176.04Z" fill="#464646"/>
<path d="M224.82 177.36L232.32 178.2L232.38 178.14L231.18 156.3L231 153.24C230.94 152.7 230.76 152.16 230.46 151.68C230.34 151.44 230.04 150.6 229.68 150.6C228.9 150.6 228.12 150.6 227.34 150.66C226.38 150.78 224.88 150.84 224.28 151.68C224.04 152.1 223.92 152.58 223.92 153.06C223.8 153.9 223.8 154.74 223.74 155.52C223.44 160.5 223.26 165.48 223.32 170.4C223.32 172.14 223.2 174.06 223.86 175.74C223.92 176.04 224.4 177.36 224.82 177.36C225.12 177.36 224.64 176.4 224.58 176.28C224.52 176.16 224.88 177 224.76 176.76C224.88 177 224.76 176.94 224.76 176.82C224.76 176.7 224.76 176.58 224.7 176.52C224.7 176.22 224.64 175.98 224.64 175.68C224.58 174.78 224.58 173.88 224.58 172.98C224.58 170.58 224.58 168.18 224.7 165.78C224.82 163.38 224.88 160.98 225 158.58C225.06 157.74 225.12 156.84 225.18 156C225.18 155.52 225.24 155.04 225.36 154.62C225.72 153.66 227.4 153.54 228.24 153.42C229.14 153.3 229.98 153.24 230.88 153.3L229.56 150.66L230.28 163.44L230.76 171.96L230.94 174.72C230.94 174.96 231 175.2 231 175.44C231 175.68 231.06 175.5 231 175.5C230.52 175.5 230.04 175.44 229.56 175.32L227.04 175.02L223.56 174.6C223.38 174.6 223.92 175.98 223.98 176.04C224.1 176.46 224.4 177.36 224.82 177.36Z" fill="#464646"/>
<path d="M236.64 177.3C236.64 177.3 236.4 181.56 237.42 182.34C238.44 183.12 252.42 183 254.28 181.68C256.14 180.36 256.14 176.16 256.14 176.16L236.64 177.3Z" fill="#111111"/>
<path d="M265.98 177.36C265.98 177.36 267.06 153.42 265.98 151.92C264.9 150.42 231.18 151.26 230.28 151.92C229.38 152.58 228.54 174.78 230.28 176.4C232.02 178.02 265.92 178.74 265.98 177.36Z" fill="#111111"/>
<path d="M267.24 178.08C267.42 174.36 267.54 170.58 267.6 166.86C267.66 164.04 267.72 161.28 267.66 158.46C267.66 156.72 267.78 154.74 267.36 153.06C266.94 151.5 265.02 150.9 263.64 150.66C261.84 150.42 259.98 150.3 258.18 150.3C252.6 150.12 247.02 150.18 241.5 150.36C239.04 150.42 236.52 150.48 234.06 150.6C232.56 150.66 231.06 150.72 229.62 150.96C229.32 151.02 229.08 151.02 228.96 151.32C228.72 151.86 228.6 152.46 228.6 153.06C228.3 155.46 228.18 157.86 228.12 160.2C228 163.08 228 165.96 228.06 168.9C228.12 170.88 228.06 173.1 228.66 175.08C229.14 176.7 230.76 177.42 232.32 177.78C234.18 178.14 236.04 178.32 237.96 178.44C243.48 178.86 249 179.04 254.52 179.04C257.04 179.04 259.5 179.04 262.02 178.98C263.58 178.98 265.08 178.86 266.58 178.62C266.82 178.44 267.18 178.38 267.24 178.08C267.3 177.36 264.78 176.04 264.66 176.7C264.66 176.58 264.72 176.64 264.6 176.7C264.42 176.76 264.24 176.82 264.06 176.82C263.46 176.94 262.86 177 262.26 177C260.28 177.12 258.24 177.18 256.26 177.18C250.86 177.24 245.46 177.12 240.06 176.82C237.78 176.7 235.5 176.58 233.22 176.34C232.44 176.28 231.6 176.16 230.82 176.04L230.64 175.98C230.46 175.92 230.82 176.04 230.58 175.98C230.34 175.92 230.34 175.92 230.22 175.92L229.92 175.86C229.74 175.8 230.22 175.98 230.04 175.92C229.86 175.86 230.16 175.98 230.22 175.98C230.4 176.1 231.06 176.7 231.24 176.76C231.42 176.82 231.24 176.82 231.24 176.7C231.24 176.58 231.12 176.46 231.18 176.64C231.06 176.34 231 176.04 230.94 175.74C230.76 174.84 230.64 173.88 230.64 172.98C230.46 170.34 230.46 167.7 230.46 165.06C230.46 162.42 230.58 159.72 230.76 157.08C230.82 156.12 230.94 155.16 231.06 154.2C231.06 153.72 231.18 153.24 231.36 152.82C231.42 152.76 231.3 152.82 231.48 152.76C231.66 152.7 231.78 152.7 231.96 152.7C232.56 152.64 233.1 152.58 233.7 152.52C235.68 152.4 237.66 152.28 239.64 152.22C245.04 152.04 250.44 151.92 255.84 151.98C258.12 151.98 260.46 152.04 262.74 152.16C263.52 152.22 264.3 152.28 265.08 152.34C265.38 152.4 265.62 152.4 265.92 152.46C265.68 152.4 265.92 152.46 266.04 152.46C266.1 152.46 266.1 152.52 266.16 152.52C266.34 152.58 265.86 152.4 266.04 152.46C266.22 152.52 265.68 152.28 265.68 152.28C265.32 152.04 264.96 151.74 264.66 151.38C264.78 151.44 264.66 151.26 264.66 151.44C264.72 151.68 264.78 151.92 264.78 152.16C264.9 153 264.96 153.78 264.96 154.62C265.02 157.08 265.02 159.6 264.96 162.06C264.9 166.62 264.72 171.24 264.54 175.8C264.54 176.1 264.54 176.34 264.54 176.64C264.66 177.42 267.24 178.68 267.24 178.08Z" fill="#111111"/>
<path d="M261.3 151.26C261.3 151.26 261.3 143.94 260.46 143.76C259.62 143.58 243.66 143.04 242.94 143.76C242.22 144.48 242.22 151.08 242.22 151.08L261.3 151.26Z" fill="#464646"/>
<path d="M262.74 151.14C262.74 150.18 262.74 149.28 262.68 148.32C262.68 146.94 262.56 145.56 262.26 144.24C262.02 143.34 261.42 143.34 260.58 143.28C259.62 143.22 258.6 143.16 257.58 143.16C254.46 143.04 251.34 142.98 248.22 142.98C246.9 142.98 245.58 142.98 244.26 143.1C243.42 143.16 241.98 143.16 241.38 143.76C241.14 144.18 240.96 144.66 240.96 145.14C240.84 145.98 240.78 146.76 240.72 147.6C240.66 148.8 240.6 150.06 240.6 151.26C240.6 151.56 241.62 151.56 241.74 151.56L258.48 151.68H260.82C261.24 151.68 262.44 151.62 262.62 151.2C262.8 150.78 261.66 150.78 261.54 150.78L244.86 150.66H242.52L243.66 150.96C243.66 148.8 243.6 146.46 244.08 144.36C244.14 144.18 244.2 144 244.26 143.82C244.32 143.64 244.44 143.82 244.26 143.82L243.9 143.94C244.08 143.88 243.78 143.94 243.72 144C243.78 144 244.02 143.94 243.78 144C243.54 144.06 244.08 143.94 244.2 143.94H244.5C244.02 144 244.44 143.94 244.56 143.94L245.4 143.88C246 143.88 246.6 143.82 247.2 143.82C250.02 143.76 252.6 143.88 255.48 143.94C256.56 144 257.58 144 258.66 144.06L259.56 144.12C259.74 144.12 259.26 144.06 259.44 144.12C259.62 144.18 259.26 143.94 259.2 144C259.26 144 259.32 144.24 259.38 144.3C259.86 145.56 259.8 147.12 259.86 148.44C259.92 149.4 259.92 150.42 259.92 151.38C259.8 151.92 262.74 151.8 262.74 151.14Z" fill="#464646"/>
<path d="M253.56 139.44C253.56 139.44 226.08 140.88 223.26 138.78C220.44 136.68 217.62 128.88 222.72 124.98C227.82 121.08 249.48 123.54 251.7 123.84C253.92 124.14 264.3 131.76 253.56 139.44Z" fill="#111111"/>
<path d="M256.08 150.54L254.88 146.58H248.94L247.8 151.14L256.08 150.54Z" fill="#111111"/>
<path d="M258.779 168.66C257.999 168.66 257.339 168.06 257.279 167.28C257.099 165.9 257.879 165.3 258.359 165.18H258.479C258.959 165.12 259.499 165.3 259.859 165.66C260.279 166.14 260.459 166.74 260.339 167.34C260.219 168 259.559 168.66 258.779 168.66ZM258.659 166.32C258.599 166.38 258.419 166.56 258.539 167.04C258.539 167.16 258.599 167.34 258.779 167.34C258.839 167.34 259.019 167.34 259.019 167.04C259.079 166.8 259.019 166.56 258.899 166.38C258.839 166.38 258.779 166.32 258.659 166.32Z" fill="#464646"/>
<path d="M257.88 163.68C257.76 163.38 257.7 163.02 257.7 162.66C257.7 162.48 257.76 162.3 257.82 162.18C257.88 162.06 257.88 162 257.94 161.94C258 161.88 258 161.82 258.06 161.82C258.12 161.76 258.24 161.7 258.3 161.64C258.48 161.58 258.66 161.52 258.84 161.58L258.96 161.64L259.02 161.7L259.14 161.76C259.2 161.82 259.32 161.94 259.38 162C259.5 162.12 259.56 162.3 259.62 162.48C259.74 162.84 259.74 163.2 259.62 163.5C259.32 163.38 259.02 163.2 258.78 163.02L258.48 162.78C258.42 162.78 258.42 162.72 258.42 162.72C258.42 162.72 258.48 162.78 258.54 162.78C258.66 162.84 258.78 162.84 258.84 162.78C258.9 162.72 258.9 162.78 258.9 162.72L258.78 162.84L258.54 163.14C258.42 163.32 258.12 163.5 257.88 163.68Z" fill="#464646"/>
<path d="M259.44 169.8C259.62 170.28 259.62 170.82 259.44 171.3C259.38 171.42 259.32 171.48 259.32 171.54L259.2 171.66C259.14 171.72 259.02 171.78 258.96 171.84C258.78 171.9 258.6 171.9 258.42 171.84C258.36 171.84 258.3 171.84 258.3 171.78L258.24 171.72L258.12 171.66C258.06 171.6 257.94 171.48 257.88 171.42C257.76 171.24 257.7 171.12 257.64 170.94C257.52 170.58 257.52 170.22 257.64 169.92C257.94 170.04 258.24 170.22 258.48 170.46L258.78 170.7C258.84 170.7 258.84 170.76 258.84 170.76C258.84 170.76 258.78 170.7 258.72 170.7C258.6 170.64 258.48 170.64 258.42 170.7C258.36 170.7 258.36 170.7 258.36 170.76L258.48 170.64L258.72 170.34C258.9 170.16 259.14 169.98 259.44 169.8Z" fill="#464646"/>
<path d="M255.539 167.64C255.239 167.76 254.879 167.82 254.519 167.82C254.339 167.82 254.159 167.76 254.039 167.7C253.919 167.64 253.859 167.64 253.739 167.58C253.679 167.52 253.619 167.52 253.619 167.46C253.559 167.4 253.499 167.28 253.439 167.22C253.379 167.04 253.319 166.86 253.379 166.68C253.379 166.62 253.379 166.56 253.439 166.56L253.499 166.5L253.559 166.38C253.619 166.32 253.739 166.2 253.799 166.14C253.919 166.02 254.099 165.96 254.279 165.9C254.639 165.78 254.999 165.78 255.299 165.9C255.179 166.2 254.999 166.5 254.819 166.74L254.579 167.04L254.519 167.1C254.519 167.04 254.519 167.04 254.579 166.98C254.639 166.86 254.579 166.74 254.579 166.68C254.579 166.62 254.579 166.62 254.519 166.62L254.639 166.74L254.939 166.98C255.119 167.1 255.359 167.34 255.539 167.64Z" fill="#464646"/>
<path d="M261.6 166.08C261.9 165.96 262.26 165.9 262.62 165.96C262.8 165.96 262.98 166.02 263.1 166.08C263.22 166.14 263.28 166.2 263.34 166.2L263.46 166.32C263.52 166.38 263.58 166.5 263.64 166.56C263.7 166.74 263.76 166.92 263.7 167.1L263.64 167.22L263.58 167.28L263.52 167.4C263.46 167.46 263.34 167.58 263.22 167.64C263.04 167.76 262.92 167.82 262.74 167.82C262.38 167.88 262.02 167.88 261.72 167.82C261.84 167.52 262.02 167.22 262.26 166.98L262.5 166.68C262.5 166.62 262.56 166.62 262.56 166.62L262.5 166.68C262.44 166.8 262.44 166.92 262.5 166.98C262.5 167.04 262.5 167.04 262.56 167.04C262.56 166.98 262.5 166.98 262.44 166.92L262.2 166.8C261.96 166.62 261.78 166.32 261.6 166.08Z" fill="#464646"/>
<path d="M253.379 156.3C252.959 156.42 252.719 156.9 252.839 157.32C252.899 157.74 253.319 158.04 253.739 157.92C254.039 157.86 254.279 157.62 254.339 157.32C254.459 156.9 254.219 156.42 253.739 156.3C253.679 156.24 253.499 156.24 253.379 156.3Z" fill="#464646"/>
<path d="M253.62 158.22C253.08 158.22 252.66 157.86 252.54 157.32C252.36 156.72 252.72 156.12 253.32 155.94H253.38C253.74 155.88 254.16 156 254.4 156.3C254.64 156.6 254.76 156.96 254.7 157.32C254.58 157.86 254.16 158.28 253.62 158.22ZM253.44 156.6C253.32 156.66 253.08 156.78 253.14 157.26C253.2 157.5 253.44 157.68 253.74 157.62C253.92 157.56 254.04 157.44 254.1 157.26C254.16 157.08 254.1 156.84 253.98 156.72C253.8 156.6 253.62 156.54 253.44 156.6Z" fill="#464646"/>
<path d="M258.179 156.3C257.759 156.42 257.519 156.9 257.639 157.32C257.699 157.74 258.119 158.04 258.539 157.92C258.839 157.86 259.079 157.62 259.139 157.32C259.259 156.9 259.019 156.42 258.539 156.3C258.479 156.24 258.359 156.24 258.179 156.3Z" fill="#464646"/>
<path d="M258.42 158.22C257.88 158.22 257.46 157.86 257.34 157.32C257.16 156.72 257.52 156.12 258.12 155.94H258.18C258.54 155.88 258.96 156 259.2 156.3C259.44 156.6 259.56 156.96 259.5 157.32C259.44 157.86 258.96 158.28 258.42 158.22ZM258.24 156.6C258.12 156.66 257.88 156.78 257.94 157.26C258 157.5 258.18 157.68 258.42 157.62C258.66 157.62 258.84 157.5 258.9 157.26C259.02 156.96 258.84 156.66 258.6 156.54C258.48 156.54 258.36 156.54 258.24 156.6Z" fill="#464646"/>
<path d="M262.56 156.06C262.14 156.18 261.9 156.66 262.02 157.08C262.08 157.5 262.5 157.8 262.92 157.68C263.22 157.62 263.46 157.38 263.52 157.08C263.64 156.66 263.4 156.18 262.92 156.06C262.8 156.06 262.68 156.06 262.56 156.06Z" fill="#464646"/>
<path d="M262.74 158.04C262.2 158.04 261.78 157.68 261.66 157.14C261.48 156.54 261.84 155.94 262.44 155.76H262.5C262.86 155.7 263.28 155.82 263.52 156.12C263.76 156.42 263.88 156.78 263.82 157.14C263.76 157.68 263.28 158.04 262.74 158.04ZM262.62 156.36C262.5 156.42 262.26 156.54 262.32 157.08C262.38 157.32 262.56 157.44 262.8 157.44C263.04 157.44 263.22 157.32 263.28 157.08C263.34 156.9 263.28 156.66 263.16 156.54C262.98 156.42 262.8 156.36 262.62 156.36Z" fill="#464646"/>
<path d="M252.3 172.38C251.7 172.56 251.34 173.28 251.52 173.88C251.64 174.48 252.24 174.9 252.84 174.78C253.26 174.72 253.62 174.36 253.74 173.88C253.92 173.22 253.56 172.56 252.9 172.38C252.72 172.32 252.48 172.32 252.3 172.38Z" fill="#111111"/>
<path d="M251.94 172.38C251.4 172.56 251.1 173.1 251.28 173.64C251.4 174.12 251.94 174.42 252.42 174.3C252.72 174.24 253.02 173.94 253.08 173.64C253.2 173.1 252.9 172.56 252.36 172.44C252.24 172.38 252.12 172.38 251.94 172.38Z" fill="#464646"/>
<path d="M252.24 174.66C251.64 174.66 251.16 174.24 251.04 173.7C250.86 173.04 251.22 172.32 251.94 172.14H252C252.42 172.08 252.9 172.2 253.2 172.5C253.5 172.8 253.62 173.28 253.5 173.7C253.38 174.3 252.84 174.72 252.24 174.66ZM252 172.68C251.88 172.74 251.46 172.92 251.58 173.58C251.64 173.88 251.88 174.06 252.18 174.06C252.48 174.06 252.72 173.88 252.78 173.58C252.84 173.34 252.78 173.1 252.6 172.86C252.48 172.74 252.24 172.68 252 172.68Z" fill="#464646"/>
<path d="M251.1 144.06V138.12C251.1 138.12 256.14 135.9 254.58 131.64C253.02 127.38 245.82 127.38 245.94 132.18C246.06 136.98 249.42 137.7 249.42 137.7L249.3 145.32L251.1 144.06Z" fill="#464646"/>
<path d="M252.54 143.88V137.94L251.4 139.32C253.08 138.6 254.52 137.4 255.48 135.84C256.92 133.38 256.38 130.26 254.1 128.46C252.12 126.96 249.42 126.66 247.14 127.8C244.5 129.18 244.02 132.36 244.92 135C245.58 136.86 247.02 138.48 248.94 138.9L247.92 137.76L247.8 145.38C247.8 146.52 249.06 146.82 249.9 146.28L251.7 145.02C252.3 144.6 252.72 143.82 252.3 143.16C251.82 142.56 250.98 142.44 250.38 142.92L248.58 144.18L250.68 145.08L250.8 137.46C250.8 136.86 250.38 136.38 249.78 136.32C249.78 136.32 250.2 136.44 249.84 136.32C249.6 136.26 249.42 136.14 249.18 136.02C249.54 136.2 249.12 135.96 249 135.9C248.88 135.78 248.76 135.72 248.64 135.6C248.4 135.36 248.22 135.12 248.04 134.82C247.5 133.86 247.26 132.78 247.32 131.7C247.32 131.52 247.32 131.4 247.38 131.22C247.38 131.1 247.62 130.62 247.5 130.86C247.56 130.74 247.86 130.32 247.68 130.56L247.86 130.38C247.92 130.32 247.98 130.26 248.04 130.2C247.86 130.32 247.86 130.32 247.98 130.26C248.1 130.2 248.28 130.08 248.4 129.96C248.04 130.14 248.58 129.9 248.7 129.84C248.82 129.78 249.12 129.72 248.82 129.78L249.06 129.72L249.42 129.66C249.48 129.66 249.84 129.66 249.54 129.66C249.78 129.66 249.96 129.66 250.2 129.72C250.32 129.72 250.8 129.84 250.62 129.78C250.98 129.9 251.34 130.02 251.7 130.2C252.42 130.62 252.96 131.22 253.26 131.94C253.44 132.42 253.56 132.9 253.5 133.38C253.5 133.56 253.5 133.74 253.44 133.92C253.44 133.98 253.38 134.1 253.38 134.16C253.38 134.22 253.32 134.34 253.26 134.4C253.32 134.28 253.32 134.28 253.26 134.4C253.14 134.64 253.02 134.82 252.9 135.06C252.66 135.42 253.08 134.88 252.84 135.18L252.6 135.48C252.42 135.66 252.24 135.84 252.06 135.96C252 136.02 251.82 136.14 252.12 135.9L251.82 136.14C251.52 136.32 251.28 136.5 250.98 136.68C250.86 136.74 250.8 136.8 250.68 136.8C250.68 136.8 251.1 136.56 250.92 136.68C250.32 136.92 249.9 137.46 249.78 138.06V144C249.66 146.04 252.54 145.44 252.54 143.88Z" fill="#464646"/>
<path d="M225.12 195.06L238.2 181.56L237.66 179.46L223.86 193.44L221.76 192C221.76 192 205.2 207.9 206.1 208.8C207 209.7 208.74 211.86 210.18 211.86C211.62 211.86 226.86 197.7 225.96 196.38L225.12 195.06Z" fill="#111111"/>
<path d="M249.36 181.14C249.36 181.14 250.74 272.64 249.36 273.9C247.98 275.16 244.62 274.92 245.22 273.06C245.82 271.2 245.22 181.14 245.22 181.14H249.36Z" fill="#111111"/>
<path d="M279.839 271.2C279.839 271.2 249.839 192.48 247.559 194.34C245.279 196.2 247.559 201.6 247.559 201.6C247.559 201.6 275.819 274.86 278.279 274.68C280.739 274.5 279.839 271.2 279.839 271.2Z" fill="#111111"/>
<path d="M254.4 206.28C254.4 206.28 255.3 194.52 253.14 193.92C250.98 193.32 238.92 192.36 239.52 193.92C240.12 195.48 241.14 204.78 241.14 204.78L254.4 206.28Z" fill="#111111"/>
<path d="M214.26 271.98C214.26 271.98 244.26 193.26 246.54 195.12C248.82 196.98 246.54 202.38 246.54 202.38C246.54 202.38 218.28 275.64 215.82 275.46C213.36 275.28 214.26 271.98 214.26 271.98Z" fill="#111111"/>
<path d="M247.98 156.66H233.76V172.02H247.98V156.66Z" fill="white"/>
<path d="M238.26 167.28H241.8C242.46 167.28 243.3 167.4 243.9 167.04C244.5 166.62 244.68 165.9 244.44 165.24C244.32 165 244.2 164.7 244.08 164.46C243.54 163.38 243 162.3 242.34 161.22C242.16 160.86 241.86 160.56 241.56 160.26C241.08 159.84 240.36 159.78 239.76 160.14C239.28 160.5 238.92 160.92 238.56 161.4C237.78 162.36 237.12 163.44 236.64 164.64C236.34 165.36 236.64 166.2 237.36 166.62C237.96 166.98 238.74 166.8 239.1 166.2C239.1 166.14 239.16 166.14 239.16 166.08C239.34 165.72 239.52 165.36 239.7 165C239.76 164.94 239.76 164.82 239.82 164.76C239.88 164.7 239.94 164.46 239.82 164.76C239.94 164.58 240 164.4 240.12 164.28C240.54 163.62 241.02 163.02 241.56 162.48L241.32 162.72C241.38 162.66 241.38 162.66 241.44 162.66L241.14 162.78C240.24 163.02 239.64 161.82 240 162.42L240.18 162.66C240.3 162.84 240.42 163.02 240.48 163.2C240.66 163.5 240.84 163.86 241.02 164.16C241.2 164.46 241.38 164.82 241.56 165.18C241.38 164.76 241.5 165.12 241.56 165.18L241.68 165.48C241.74 165.66 241.86 165.84 241.92 166.02L241.86 165.3V165.36L242.16 164.7L242.1 164.76L242.4 164.52H242.34L242.64 164.4C242.46 164.46 243 164.4 242.7 164.4C242.58 164.4 242.46 164.4 242.4 164.4H238.02C237.3 164.4 236.76 165 236.82 165.72C236.82 165.78 236.82 165.78 236.82 165.84C236.82 166.62 237.48 167.22 238.26 167.28Z" fill="#111111"/>
<path d="M238.68 165.66C238.38 166.5 238.26 167.4 238.2 168.3C238.2 168.36 238.2 168.48 238.26 168.54C238.32 168.66 238.38 168.72 238.5 168.84C238.74 169.08 239.04 169.26 239.4 169.44C239.7 169.62 240.06 169.74 240.42 169.8H240.66C240.78 169.8 240.9 169.8 240.96 169.68C241.02 168.78 241.2 167.94 241.44 167.04C241.5 166.86 241.32 166.68 241.2 166.56C240.96 166.32 240.66 166.14 240.3 165.96C240 165.78 239.64 165.66 239.28 165.6C239.1 165.6 238.74 165.48 238.68 165.66Z" fill="#111111"/>
<path d="M241.56 166.02L241.62 168.06C241.62 168.24 241.68 168.42 241.8 168.54C241.86 168.72 241.98 168.9 242.1 169.02C242.22 169.2 242.4 169.32 242.58 169.38C242.7 169.5 242.88 169.56 243.06 169.62C243.36 169.74 243.66 169.68 243.9 169.5L244.08 169.26C244.14 169.08 244.2 168.84 244.14 168.66L244.08 166.62C244.08 166.44 244.02 166.26 243.9 166.14C243.84 165.96 243.72 165.78 243.6 165.66C243.48 165.54 243.3 165.36 243.12 165.3C243 165.18 242.82 165.12 242.64 165.06C242.34 164.94 242.04 165 241.8 165.18L241.62 165.42C241.56 165.66 241.56 165.84 241.56 166.02Z" fill="#111111"/>
<path d="M239.46 160.2C239.4 160.38 239.34 160.56 239.28 160.74C239.22 160.86 239.22 160.98 239.22 161.1C239.22 161.28 239.22 161.4 239.28 161.58C239.34 161.7 239.34 161.76 239.4 161.82C239.52 161.94 239.58 162 239.76 162.12C239.82 162.12 239.82 162.18 239.88 162.18C240 162.18 240.12 162.24 240.18 162.24C240.6 162.24 240.96 162.12 241.32 161.94C241.62 161.82 241.86 161.64 242.1 161.46C242.22 161.34 242.34 161.28 242.46 161.16C242.64 160.98 242.82 160.74 242.94 160.5C243 160.38 243.06 160.2 243.06 160.08C243.12 159.84 243.12 159.6 243 159.42C242.94 159.18 242.82 159 242.58 158.88C242.52 158.82 242.46 158.82 242.34 158.76C242.22 158.7 242.04 158.7 241.92 158.7C241.8 158.7 241.68 158.7 241.56 158.7H241.44C241.32 158.7 241.14 158.76 241.02 158.82C240.78 158.94 240.48 159.06 240.24 159.18C239.94 159.36 239.64 159.6 239.34 159.9C239.22 160.02 239.1 160.14 239.04 160.32C239.04 160.38 238.98 160.38 238.98 160.44C238.92 160.5 238.92 160.62 238.92 160.74C238.92 160.8 238.98 160.92 239.04 160.92C239.16 160.92 239.28 160.92 239.34 160.92C239.46 160.92 239.64 160.86 239.76 160.8C240.12 160.68 240.48 160.5 240.78 160.26L241.08 160.02C241.2 159.9 241.32 159.72 241.44 159.54C241.44 159.48 241.5 159.42 241.5 159.42L241.38 159.66L241.44 159.6L241.2 159.84L241.26 159.78L240.96 160.02L241.02 159.96L240.72 160.2L240.78 160.14L240.42 160.32H240.48L240.12 160.44L240.24 160.38L239.94 160.44H240.06H239.82C239.88 160.44 240 160.44 240.06 160.44L239.88 160.38C240 160.38 240.12 160.44 240.18 160.5L240.06 160.38C240.18 160.5 240.3 160.68 240.36 160.86L240.3 160.68C240.36 160.86 240.36 161.04 240.3 161.16L240.36 160.98C240.36 161.04 240.3 161.16 240.24 161.22L240.36 160.98C240.36 161.04 240.3 161.04 240.3 161.1L240.54 160.86L240.48 160.92L240.78 160.68L240.72 160.74L241.02 160.5C241.02 160.5 240.96 160.5 240.96 160.56L241.32 160.38H241.26L241.62 160.26H241.56L241.86 160.2H241.74H241.98H241.86L242.04 160.26C241.92 160.26 241.86 160.2 241.74 160.14L241.86 160.26C241.74 160.14 241.62 159.96 241.56 159.78V159.96C241.5 159.72 241.56 159.54 241.62 159.3L241.56 159.48C241.56 159.42 241.62 159.3 241.68 159.24C241.74 159.18 241.8 158.88 241.56 158.76C241.44 158.76 241.32 158.76 241.26 158.76C241.14 158.76 240.96 158.82 240.84 158.88C240.48 159 240.12 159.18 239.82 159.42L239.52 159.66C239.4 159.78 239.28 159.96 239.16 160.14L239.46 160.2Z" fill="#111111"/>
<path d="M28.2598 24.54H133.32C137.88 24.54 141.54 28.2 141.54 32.76V114.72C141.54 119.28 137.88 122.94 133.32 122.94H28.2598C23.6998 122.94 20.0398 119.28 20.0398 114.72V32.76C19.9798 28.2 23.6998 24.54 28.2598 24.54Z" fill="white"/>
<path d="M134.28 122.52H30.96C29.16 122.52 27.48 122.52 25.74 121.62C23.1 120.18 21.48 117.42 21.42 114.42C21.42 114.06 21.42 113.76 21.42 113.46V35.04C21.3 33.54 21.42 32.1 21.6 30.6C22.2 28.08 24.36 25.08 27.18 25.02H132C136.44 25.08 139.98 28.68 139.98 33.12C140.04 37.2 139.98 41.28 139.98 45.36V114.6C139.98 115.38 139.92 116.16 139.8 116.94C139.32 119.46 137.1 122.46 134.28 122.52C133.56 122.52 132.84 122.7 132.24 123.06C131.82 123.3 131.76 123.54 132.36 123.54C135.9 123.48 139.8 122.04 141.72 118.92C142.56 117.48 143.04 115.86 142.98 114.18V36.24C142.98 34.98 142.98 33.72 142.98 32.46C142.98 29.82 141.66 27.3 139.5 25.74C137.94 24.6 136.02 24.06 134.1 24.12C130.26 24.12 126.36 24.12 122.52 24.12H29.82C25.98 24.12 21.78 25.44 19.74 28.92C18.54 30.9 18.54 33 18.54 35.16V115.14C18.54 117.9 19.92 120.48 22.2 122.04C24.18 123.36 26.4 123.54 28.68 123.54H132.36C133.08 123.54 133.74 123.36 134.4 123.06C134.88 122.76 134.88 122.52 134.28 122.52Z" fill="#464646"/>
<path d="M49.9199 48.9V100.02C49.9199 101.64 51.2399 102.9 52.7999 102.9C53.2799 102.9 53.6999 102.78 54.1199 102.6L107.28 75.48C108.72 74.76 109.26 73.0201 108.54 71.58C108.24 70.98 107.76 70.5 107.16 70.26L53.9999 46.26C52.5599 45.6 50.8199 46.2001 50.1599 47.6401C49.9799 48.0601 49.8599 48.48 49.9199 48.9Z" fill="white"/>
<path d="M48.4202 48.6599V99.4199C48.3602 100.98 49.1402 102.48 50.5202 103.2C52.0802 104.04 53.9402 104.04 55.5002 103.2L57.1802 102.36L64.2602 98.7599L86.5802 87.3599L105.42 77.6999C106.62 77.2199 107.76 76.6199 108.9 75.8999C109.92 75.1199 110.46 73.7999 110.22 72.4799C109.92 71.0999 108.96 70.0199 107.64 69.5399L106.74 69.1199L90.3002 61.6799L66.9002 51.1199C62.8202 49.2599 58.6802 47.2799 54.5402 45.5399C52.0802 44.5199 48.5402 45.5999 48.4202 48.6599C48.4202 49.3199 49.1402 49.6799 49.7402 49.7999C50.1602 49.8599 51.3602 49.8599 51.3602 49.1999C51.3602 48.2999 52.1402 46.6799 53.2202 46.9799C53.3402 47.0399 53.4602 47.0999 53.5802 47.1599L55.1402 47.8799L62.0402 50.9999L84.1202 60.9599L103.26 69.5999C104.34 70.0799 105.48 70.5599 106.5 71.0399C106.08 70.8599 106.56 71.0999 106.62 71.1599C106.8 71.3399 106.92 71.5199 107.04 71.6999C107.28 72.2399 107.34 72.8399 107.16 73.3799C106.98 73.9799 106.56 74.5199 105.96 74.7599C105.6 74.9399 105.24 75.1199 104.82 75.3599L89.0402 83.3999L66.6602 94.8599L53.1602 101.64C53.0402 101.7 52.9802 101.76 52.8602 101.76C52.7402 101.76 53.1002 101.64 52.8602 101.76C52.7402 101.82 52.5602 101.82 52.3802 101.88C52.4402 101.88 52.1402 101.76 52.0802 101.76C51.8402 101.58 51.6602 101.34 51.5402 101.1C51.3602 100.56 51.3002 99.9599 51.3602 99.4199V49.1999C51.3602 48.5399 50.6402 48.1799 50.0402 48.0599C49.6802 47.9999 48.4202 47.9999 48.4202 48.6599Z" fill="#464646"/>
<path d="M156.06 134.46C156.06 134.46 164.94 120.18 165.66 114.78C167.1 103.56 167.52 99.9001 169.62 98.1601C172.74 95.5201 174.36 107.76 174.36 107.76C174.36 107.76 174.66 106.98 180 104.82C185.34 102.66 183.96 109.2 183.96 109.2C189.96 109.92 186.9 115.2 186.9 115.2C193.74 118.38 181.38 123.84 181.38 123.84C181.38 123.84 178.02 129.18 174.6 129.24C174.6 129.24 171.9 154.98 163.62 155.46C155.34 155.94 148.5 147.6 148.5 147.6L152.58 131.64L156.06 134.46Z" fill="white"/>
<path d="M157.499 134.64C158.879 132.42 160.199 130.08 161.519 127.8C163.559 124.14 165.659 120.36 166.859 116.34C167.099 115.38 167.279 114.42 167.399 113.4C167.639 111.78 167.819 110.16 168.059 108.54C168.299 106.38 168.659 104.28 169.139 102.18C169.379 101.04 169.859 99.9 170.519 99L170.759 98.76C170.819 98.7 170.879 98.64 170.939 98.58C171.059 98.52 171.179 98.46 171.239 98.34C171.059 98.34 171.299 98.22 171.239 98.34C170.879 98.34 170.759 98.46 170.279 98.4C170.159 98.4 170.039 98.34 169.859 98.28C169.739 98.16 170.039 98.34 169.859 98.28C169.979 98.4 170.039 98.4 170.099 98.46C170.279 98.7 170.459 98.94 170.579 99.18C171.419 100.8 172.019 102.6 172.319 104.4C172.559 105.48 172.739 106.62 172.919 107.7C173.039 108.54 175.559 108.6 175.859 107.94C175.859 107.88 175.919 107.88 175.979 107.82C175.919 107.88 175.859 107.88 176.039 107.76L176.399 107.52C177.539 106.8 178.739 106.2 179.999 105.72C180.479 105.54 180.959 105.3 181.439 105.12L181.799 105C182.039 104.94 181.919 105 182.099 104.94C181.799 104.94 182.039 104.94 182.099 104.94H181.859C181.979 105 182.039 105.06 182.099 105.18C182.579 105.84 182.819 106.62 182.759 107.46C182.759 108.06 182.699 108.6 182.639 109.2C182.579 109.62 183.539 109.74 183.719 109.8C185.339 110.04 186.419 111 186.359 112.68C186.299 113.52 186.059 114.3 185.639 115.02C185.459 115.32 185.759 115.5 185.999 115.62C187.079 116.16 188.039 117.12 187.379 118.38C186.719 119.64 185.459 120.54 184.319 121.32C183.659 121.74 182.999 122.16 182.339 122.52L181.559 122.94L181.199 123L180.839 123.18C180.539 123.3 180.299 123.42 179.999 123.54C179.639 123.9 179.339 124.26 179.099 124.68C178.439 125.58 177.719 126.36 176.939 127.08C176.159 127.8 175.079 128.58 174.119 128.64C173.819 128.64 173.039 128.76 172.979 129.18C172.679 132.12 172.139 135.06 171.539 137.94C170.579 142.68 169.379 147.84 166.679 151.92C166.199 152.7 165.599 153.42 164.879 154.02C164.699 154.14 164.519 154.26 164.339 154.38C164.279 154.44 164.159 154.5 164.099 154.5C163.919 154.62 164.099 154.5 163.979 154.56C163.859 154.62 163.439 154.74 163.559 154.74C163.679 154.74 163.439 154.74 163.379 154.74C163.079 154.8 163.619 154.74 163.319 154.74C161.819 154.74 160.319 154.44 158.879 153.9C157.319 153.3 155.879 152.46 154.559 151.5C153.419 150.72 152.399 149.82 151.439 148.86C151.019 148.32 150.539 147.84 149.999 147.36C149.819 147.24 149.939 147.42 149.999 147.36C150.059 147.18 150.119 147 150.119 146.82L150.719 144.42C151.799 140.22 152.999 136.02 153.959 131.76C153.959 131.7 154.019 131.58 154.019 131.46L151.199 131.7L154.679 134.58C155.279 134.94 156.059 135 156.719 134.82C157.079 134.76 157.799 134.4 157.259 133.98L153.719 131.1C153.179 130.68 151.139 130.5 150.899 131.34L147.899 143.22L147.059 146.16C146.999 146.52 146.699 147.06 146.819 147.36C146.939 147.78 147.599 148.32 147.899 148.56C148.799 149.52 149.759 150.36 150.779 151.2C153.599 153.54 156.959 155.1 160.559 155.7C163.319 156.12 165.959 155.88 167.999 153.9C169.619 152.34 170.699 150.18 171.539 148.14C172.559 145.62 173.339 142.98 173.939 140.34C174.479 138 174.959 135.6 175.319 133.2C175.619 131.88 175.799 130.56 175.859 129.24C175.859 129.18 175.859 129.12 175.859 129.06L174.719 129.6C178.079 129.48 180.839 126.48 182.579 123.78L182.219 124.02C183.659 123.36 185.039 122.64 186.359 121.74C187.799 120.78 190.319 119.16 190.259 117.18C190.199 115.8 188.879 115.02 187.799 114.54L188.159 115.14C188.699 114.18 188.999 113.1 188.999 112.02C188.879 109.5 186.299 108.66 184.199 108.36L185.279 108.96C185.579 107.46 185.579 105.42 184.379 104.34C183.179 103.26 180.959 103.38 179.459 103.86C177.599 104.46 175.739 105.24 174.059 106.26C173.699 106.5 172.919 106.86 172.739 107.28L175.679 107.46C175.379 104.7 174.719 101.94 173.639 99.36C172.859 97.62 171.599 96.66 169.559 96.96C168.299 97.26 167.219 98.16 166.739 99.36C166.079 100.86 165.659 102.48 165.479 104.1C164.999 106.98 164.639 109.86 164.279 112.68C164.159 113.82 163.979 114.9 163.679 116.04C163.379 116.94 163.079 117.84 162.719 118.74C161.819 120.9 160.799 122.94 159.719 125.04C158.099 128.1 156.359 131.1 154.559 134.04C154.139 135 157.019 135.36 157.499 134.64Z" fill="#111111"/>
<path d="M179.22 119.94C179.22 119.94 176.52 123.36 179.76 124.08C183 124.8 190.32 121.8 188.94 117.24" fill="white"/>
<path d="M178.08 119.04C177.54 119.7 177.18 120.54 177 121.38C176.94 122.1 177.24 122.82 177.78 123.3C178.62 124.2 179.7 124.86 180.9 125.1C182.28 125.28 183.66 125.16 184.98 124.68C186.48 124.2 187.8 123.42 188.94 122.4C190.14 121.32 190.56 119.7 190.2 118.14C189.9 117.54 189.48 117.12 188.94 116.82C188.82 116.76 187.74 116.16 187.8 116.52C188.58 119.22 186.3 121.26 184.08 122.28C182.88 122.82 181.62 123.18 180.3 123.24C179.76 123.24 179.22 123.24 178.68 123.12C178.44 123.06 178.68 123.18 178.8 123.24L179.4 123.78C179.46 123.84 179.46 123.9 179.52 123.9V123.96L179.46 123.84C179.4 123.66 179.4 123.42 179.4 123.24C179.52 122.4 179.88 121.62 180.42 121.02C180.72 120.42 178.38 118.56 178.08 119.04Z" fill="#111111"/>
<path d="M180.54 113.04C180.54 113.04 175.32 117.42 177.48 119.16C179.64 120.9 186.18 118.8 187.5 113.1" fill="white"/>
<path d="M179.64 112.44C178.86 113.1 178.14 113.88 177.48 114.66C176.52 115.8 175.14 117.6 175.74 119.22C176.34 120.84 178.14 121.14 179.58 121.02C181.5 120.9 183.3 120.18 184.86 119.04C186.96 117.54 188.4 115.38 189 112.86C189.18 112.14 188.28 111.84 187.74 111.9C187.02 112.02 186.42 112.62 186.24 113.34C186.3 113.16 186.18 113.58 186.18 113.52C186.18 113.64 186.12 113.76 186.06 113.82C186 114.06 185.88 114.24 185.82 114.48C185.76 114.54 185.76 114.66 185.7 114.72C185.52 115.08 185.82 114.48 185.64 114.84C185.52 115.08 185.4 115.26 185.28 115.44C185.16 115.62 185.04 115.74 184.92 115.92C184.86 115.98 184.8 116.1 184.68 116.16C184.56 116.22 184.44 116.46 184.26 116.58L184.02 116.76C183.96 116.82 183.6 117.12 183.96 116.82C183.66 117.06 183.36 117.3 183.06 117.48C182.94 117.54 182.52 117.78 182.88 117.6C182.7 117.72 182.52 117.78 182.28 117.9C182.04 118.02 181.98 118.02 181.8 118.08L181.5 118.2C181.2 118.32 181.74 118.14 181.5 118.2C181.14 118.26 180.84 118.38 180.48 118.44H180.24C179.94 118.5 180.54 118.44 180.24 118.44H179.82H179.4C179.4 118.44 179.1 118.38 179.34 118.44C179.58 118.5 179.22 118.44 179.22 118.38C179.22 118.32 178.98 118.32 178.86 118.26C178.56 118.14 179.04 118.38 178.74 118.2L178.5 118.02C178.32 117.78 178.38 117.96 178.5 118.02C178.44 117.96 178.44 117.9 178.38 117.84C178.26 117.72 178.38 118.08 178.38 117.84C178.38 117.78 178.38 117.78 178.32 117.72C178.32 117.42 178.32 117.66 178.32 117.72C178.32 117.66 178.32 117.6 178.32 117.6C178.32 117.54 178.32 117.48 178.32 117.36C178.32 117.12 178.26 117.54 178.32 117.42C178.38 117.3 178.44 117.12 178.5 116.94L178.56 116.76C178.38 117.12 178.56 116.82 178.56 116.76L178.8 116.34L179.1 115.92C179.16 115.8 179.58 115.38 179.28 115.68C179.94 114.9 180.66 114.18 181.38 113.52C181.86 113.1 182.1 112.26 181.5 111.84C180.9 111.42 180.12 112.02 179.64 112.44Z" fill="#111111"/>
<path d="M176.64 110.16C176.64 110.16 172.92 113.34 175.26 115.02C177.72 116.76 184.32 113.58 183.9 106.8" fill="white"/>
<path d="M175.859 108.9C175.019 109.56 174.359 110.46 173.879 111.42C173.039 113.28 174.179 115.74 176.039 116.58C177.179 117 178.499 117 179.639 116.46C181.079 115.86 182.279 114.9 183.179 113.7C184.379 111.9 184.979 109.74 184.799 107.58C184.679 106.86 184.319 106.2 183.719 105.72C183.599 105.6 183.359 105.42 183.119 105.54C182.879 105.66 182.939 105.96 182.999 106.14C183.119 109.08 181.619 111.9 179.039 113.4C178.139 114 176.999 114.24 175.919 114.12L175.619 114.06L175.439 114L175.199 113.88C175.139 113.88 175.079 113.82 175.079 113.82C175.379 113.94 175.079 113.82 175.019 113.76C175.259 113.94 175.019 113.64 175.079 113.88C175.139 113.94 175.379 114.3 175.199 114.06C175.319 114.24 175.379 114.42 175.439 114.66C175.439 114.6 175.439 114.36 175.439 114.6C175.439 114.36 175.499 114.06 175.559 113.88C175.979 112.92 176.579 112.14 177.419 111.48C178.139 110.88 176.459 108.42 175.859 108.9Z" fill="#111111"/>
<path d="M189.6 105L191.82 102.78C192.06 102.54 192.12 102.18 192.06 101.82C191.94 101.46 191.76 101.16 191.46 100.98C191.16 100.74 190.74 100.62 190.32 100.68L189.96 100.74C189.72 100.8 189.54 100.92 189.42 101.1L187.2 103.38C186.96 103.62 186.9 103.98 186.96 104.34C187.02 104.7 187.26 105 187.56 105.18C187.86 105.42 188.28 105.54 188.7 105.48L189.06 105.42C189.3 105.3 189.48 105.18 189.6 105Z" fill="#464646"/>
<path d="M192.48 107.7C192.54 107.64 192.66 107.58 192.78 107.58L192.48 107.7C192.66 107.58 193.08 107.46 192.6 107.64L192.78 107.58C192.9 107.52 192.36 107.64 192.54 107.64H192.6L192.3 107.7H192.36C192.54 107.7 191.88 107.7 192.06 107.7H192H191.76H191.88C192.24 107.76 192.6 107.76 192.96 107.7C193.32 107.7 193.68 107.58 193.98 107.46L194.22 107.34C194.34 107.34 194.4 107.22 194.4 107.16C194.34 106.98 194.04 106.98 193.92 106.98C193.56 106.92 193.2 106.92 192.78 106.92C192.36 106.92 191.94 106.98 191.52 107.04C190.92 107.16 190.32 107.34 189.78 107.64C189.72 107.64 189.66 107.7 189.6 107.82C189.54 107.88 189.6 107.94 189.66 107.94C189.72 108 189.84 108 189.96 108.06C190.08 108.12 190.26 108.12 190.38 108.12C190.74 108.12 191.16 108.12 191.52 108.06C191.88 107.94 192.18 107.88 192.48 107.7Z" fill="#464646"/>
<path d="M128.76 255.42C128.76 255.42 128.1 268.38 128.52 268.38C128.94 268.38 134.58 268.2 134.58 268.2V263.04L137.34 268.74L156.36 267.72C156.36 267.72 156.96 265.86 152.7 263.76C148.44 261.66 141.54 258.78 141.54 258.78L141.42 251.1L128.76 255.42Z" fill="#111111"/>
<path d="M128.4 255.48C128.28 258.18 128.16 260.88 128.1 263.58C128.04 265.02 127.98 266.46 128.04 267.84C128.04 268.08 128.04 268.5 128.28 268.62C128.52 268.74 129.36 268.68 129.72 268.68C131.34 268.62 132.96 268.62 134.64 268.56C134.82 268.56 135 268.38 135 268.2V263.04L134.28 263.22L137.04 268.92C137.1 269.04 137.28 269.16 137.4 269.1L154.079 268.2L156.42 268.08C156.6 268.08 156.719 267.96 156.779 267.78C156.899 267.06 156.659 266.4 156.179 265.86C154.919 264.18 152.7 263.4 150.9 262.56C147.9 261.18 144.84 259.8 141.78 258.54L141.96 258.78L141.78 251.1C141.78 250.86 141.48 250.8 141.3 250.86L130.2 254.7L128.64 255.24C128.46 255.18 128.34 255.3 128.4 255.48C128.46 255.66 128.58 255.78 128.76 255.78C128.82 255.78 128.82 255.78 128.88 255.72L139.98 251.88L141.54 251.34L141.06 251.1L141.24 258.78C141.24 258.9 141.3 259.02 141.42 259.02C144.18 260.16 146.88 261.36 149.58 262.62C151.44 263.46 153.72 264.24 155.16 265.74C155.58 266.16 156.24 267 156.06 267.6L156.42 267.3L139.74 268.2L137.4 268.32L137.76 268.5L135 262.8C134.88 262.62 134.64 262.56 134.46 262.62C134.34 262.68 134.28 262.8 134.28 262.92V268.08L134.64 267.72L130.68 267.84C130.02 267.78 129.36 267.78 128.76 267.9C128.46 267.96 128.88 268.08 128.88 268.02C128.88 267.84 128.88 267.66 128.82 267.48C128.7 264.42 128.94 261.3 129.06 258.24C129.12 257.22 129.12 256.26 129.18 255.24C129.18 254.94 128.46 255.06 128.4 255.48Z" fill="#111111"/>
<path d="M115.559 255.12C115.559 255.12 116.279 268.62 115.859 268.62C115.439 268.62 109.079 268.44 109.079 268.44V263.04L105.959 268.98L84.7794 267.9C84.7794 267.9 84.1194 265.92 88.8594 263.76C93.5994 261.6 101.279 258.54 101.279 258.54L101.459 250.5L115.559 255.12Z" fill="#111111"/>
<path d="M115.26 255C115.38 257.7 115.5 260.34 115.62 263.04C115.68 264.6 115.74 266.1 115.68 267.66C115.68 267.84 115.62 268.02 115.62 268.26C115.62 268.5 115.62 268.38 115.62 268.38C115.02 268.44 114.36 268.44 113.76 268.32L108.9 268.2L109.32 268.68V263.28C109.32 263.1 108.96 262.56 108.78 262.86L106.02 268.2C105.9 268.32 105.84 268.5 105.78 268.62C105.72 268.8 105.6 268.8 105.84 268.74C105.72 268.74 105.66 268.74 105.54 268.74C104.94 268.68 104.28 268.68 103.68 268.68L88.9199 267.9L84.6599 267.66L84.9599 267.96C85.0199 268.08 84.9599 267.84 84.9599 267.72C85.0199 267.36 85.1399 267.06 85.3799 266.76C86.3399 265.38 88.0199 264.6 89.5199 263.94C92.6999 262.5 95.8799 261.18 99.0599 259.92L101.4 258.96C101.46 258.96 101.46 258.84 101.46 258.78L101.64 250.74L101.4 250.92L113.76 254.94L115.5 255.54C115.86 255.66 115.62 254.94 115.38 254.88L103.08 250.8L101.28 250.2C101.16 250.14 101.04 250.26 101.04 250.38L100.92 254.76L100.86 257.58C100.8 257.82 100.8 258.06 100.86 258.24C100.86 258.3 100.86 258.3 100.86 258.36C100.92 258 100.98 258.24 100.8 258.24C100.56 258.3 100.26 258.42 100.08 258.54L98.7599 259.08L95.0999 260.58C93.6599 261.18 92.1599 261.78 90.7199 262.44C89.2799 262.98 87.8399 263.7 86.5199 264.54C85.5599 265.2 83.8799 266.52 84.3599 267.96C84.4199 268.08 84.5399 268.26 84.6599 268.26L103.2 269.22L105.84 269.34C105.9 269.34 105.96 269.34 106.02 269.28L109.14 263.34L108.6 262.92V268.32C108.6 268.56 108.78 268.74 109.02 268.8L113.46 268.92C114.18 268.98 114.9 269.04 115.62 268.98C115.92 268.92 115.98 268.8 115.98 268.5C116.1 267.18 116.1 265.86 115.98 264.54C115.92 262.62 115.86 260.7 115.74 258.78C115.68 257.64 115.62 256.5 115.56 255.3C115.8 255 115.26 254.58 115.26 255Z" fill="#111111"/>
<path d="M105.239 145.8C105.239 145.8 91.7995 252 95.5795 254.7C99.3595 257.4 120.659 253.14 120.659 253.14L123.179 231.24L124.439 255.12C124.439 255.12 140.999 258.96 146.939 257.04C146.939 257.04 155.459 156.24 155.459 141.6C155.459 126.96 105.239 145.8 105.239 145.8Z" fill="white"/>
<path d="M103.8 145.86C103.62 147.24 103.44 148.56 103.26 149.94C102.78 153.54 102.36 157.2 101.88 160.86C101.22 166.08 100.62 171.3 100.02 176.52C99.3005 182.64 98.6405 188.7 97.9205 194.82C97.2605 201.12 96.6005 207.36 95.9405 213.66C95.3405 219.48 94.8005 225.3 94.3205 231.12C93.9605 235.74 93.6005 240.36 93.4205 245.04C93.3005 247.74 93.1205 250.62 93.5405 253.32C93.5405 253.98 93.8405 254.64 94.3205 255.12C95.3405 255.72 96.4805 256.08 97.6205 256.14C99.0605 256.32 100.56 256.38 102.06 256.26C108 256.08 114 255.12 119.82 254.04L121.02 253.8C121.44 253.74 122.04 253.5 122.1 253.02L124.32 233.82L124.62 231.06L121.62 231.18L122.76 252.06L122.94 255.06C122.94 255.42 123.42 255.6 123.72 255.66C129.66 257.04 135.84 258.12 141.96 258.18C143.88 258.24 145.86 258.06 147.72 257.52C148.02 257.4 148.38 257.22 148.44 256.86L148.98 250.68C149.4 245.34 149.88 240 150.3 234.66C150.9 227.28 151.5 219.96 152.1 212.58C152.76 204.48 153.36 196.38 153.96 188.28C154.56 180.72 155.1 173.1 155.64 165.54C156.06 159.78 156.42 153.96 156.72 148.14C156.84 146.34 156.9 144.48 156.96 142.62C157.02 140.76 156.84 139.14 155.52 137.82C153.9 136.14 151.38 135.6 149.16 135.36C146.04 135.06 142.86 135.18 139.74 135.66C132.6 136.56 125.64 138.42 118.8 140.46C114.24 141.84 109.68 143.34 105.18 144.96L104.52 145.2C104.04 145.38 103.5 145.8 103.98 146.28C104.46 146.76 105.48 146.7 106.02 146.52C109.2 145.32 112.44 144.24 115.68 143.22C122.16 141.06 128.76 139.32 135.42 138C138.54 137.34 141.66 136.98 144.84 136.86C145.2 136.86 145.5 136.86 145.86 136.86H146.4C146.52 136.86 147.06 136.86 146.64 136.86C147.3 136.86 147.96 136.92 148.56 137.04L148.98 137.1C149.1 137.1 149.52 137.22 149.1 137.1C149.4 137.16 149.7 137.22 150 137.28C150.3 137.34 150.48 137.4 150.72 137.52C150.96 137.64 150.48 137.4 150.78 137.58L151.2 137.76C151.44 137.88 151.62 137.94 151.8 138.06C151.98 138.18 151.68 137.94 151.92 138.12L152.22 138.36C152.4 138.48 152.52 138.6 152.7 138.78C152.76 138.84 153 139.08 152.82 138.9C152.88 138.96 152.94 139.08 153.06 139.14C153.6 139.86 153.84 140.7 153.84 141.54C153.9 143.1 153.78 144.6 153.72 146.16C153.48 151.44 153.12 156.66 152.76 161.94C152.28 169.26 151.74 176.52 151.2 183.78C150.6 191.76 150 199.8 149.34 207.78C148.74 215.34 148.14 222.9 147.54 230.46C147.06 236.34 146.58 242.16 146.1 248.04C145.86 250.98 145.62 253.86 145.38 256.8C145.38 256.92 145.38 257.04 145.38 257.16L146.1 256.5C145.56 256.68 145.02 256.74 144.48 256.8C144.6 256.8 144.18 256.8 144.12 256.8H143.52C143.1 256.8 142.62 256.8 142.2 256.8C140.4 256.8 138.6 256.68 136.86 256.44C135 256.2 133.14 255.96 131.34 255.66C129.96 255.42 128.7 255.18 127.2 254.88C126.54 254.76 125.82 254.58 125.16 254.46L125.94 255.12L124.8 234.24L124.62 231.24C124.56 230.16 121.74 230.28 121.62 231.36L119.4 250.56L119.1 253.32L120.18 252.54C115.62 253.44 111.06 254.16 106.44 254.64L106.02 254.7L105.48 254.76L104.16 254.88C103.38 254.94 102.6 254.94 101.82 255C100.62 255.06 99.3605 255 98.1605 254.82L97.9205 254.76C97.7405 254.76 98.1605 254.82 97.9805 254.76C97.8005 254.7 97.7405 254.7 97.6205 254.7C97.5005 254.7 97.3805 254.64 97.2605 254.64C96.9605 254.58 97.3205 254.7 97.2005 254.64L96.9005 254.52C96.6005 254.4 96.8405 254.46 96.8405 254.52C96.8405 254.58 96.6005 254.16 96.8405 254.58C96.7805 254.52 96.7205 254.4 96.7205 254.34C96.7205 254.28 96.6605 254.22 96.6605 254.16C96.6005 253.98 96.7205 254.4 96.6605 254.1C96.1805 251.76 96.3005 249.3 96.3605 246.96C96.4805 242.64 96.7805 238.32 97.0805 234C97.5005 228.42 98.0405 222.84 98.5205 217.26C99.1205 211.02 99.7805 204.84 100.44 198.6C101.1 192.48 101.82 186.36 102.48 180.24C103.08 174.84 103.74 169.44 104.4 164.04C104.88 160.02 105.36 156.06 105.84 152.04C106.08 150.12 106.44 148.14 106.56 146.22C106.56 146.16 106.56 146.04 106.56 145.98C106.86 144.78 103.92 144.78 103.8 145.86Z" fill="#111111"/>
<path d="M128.339 166.62L127.559 175.32L125.699 196.02L123.419 221.1L121.439 242.88L120.779 250.02C120.659 251.16 120.539 252.3 120.479 253.38C120.479 253.44 120.479 253.5 120.479 253.5C120.479 254.28 121.019 254.94 121.799 255.12C122.579 255.24 122.999 254.58 123.059 253.92L123.839 245.22L125.699 224.52L127.979 199.44L129.959 177.66L130.619 170.52C130.739 169.38 130.859 168.24 130.919 167.16C130.919 167.1 130.919 167.04 130.919 167.04C130.919 166.26 130.379 165.6 129.599 165.36C128.759 165.3 128.339 165.96 128.339 166.62Z" fill="#111111"/>
<path d="M105.18 157.5C94.4996 157.38 80.9396 156.78 85.1396 142.62C93.5396 114.18 116.94 87.66 133.92 86.46C157.8 84.78 158.28 149.82 158.28 149.82C158.28 149.82 126.54 157.8 105.18 157.5Z" fill="#111111"/>
<path d="M104.46 156.36C101.16 156.42 97.7999 156.18 94.5599 155.7C93.0599 155.46 91.6199 155.1 90.2399 154.56C89.6399 154.32 89.0999 154.08 88.5599 153.72L88.1999 153.48C87.8999 153.3 88.2599 153.54 88.0199 153.36L87.5999 153L87.4199 152.82C87.5399 152.94 87.5399 152.94 87.4199 152.82L87.0599 152.46L86.9399 152.34C86.8199 152.16 87.0599 152.52 86.9399 152.34C86.7599 152.1 86.5799 151.8 86.3999 151.5C86.1599 150.96 85.9199 150.36 85.7999 149.82C85.4999 148.14 85.6199 146.4 86.0399 144.72C86.6399 142.38 87.3599 140.1 88.1999 137.82C89.0399 135.54 89.9399 133.26 90.9599 131.04C94.9199 122.28 100.02 114.06 106.2 106.68C111.36 100.5 117.36 94.6801 124.5 90.8401C127.26 89.2801 130.26 88.2001 133.38 87.7201C133.98 87.6001 134.64 87.6001 135.24 87.5401C135.48 87.5401 135.72 87.5401 135.96 87.5401H136.38C136.44 87.5401 136.8 87.6001 136.56 87.5401C137.04 87.6001 137.52 87.6601 138 87.7801C138.24 87.8401 138.48 87.9001 138.66 87.9601C138.84 88.0201 138.54 87.9001 138.72 88.0201L139.08 88.1401C139.32 88.2001 139.5 88.3201 139.74 88.4401L140.04 88.5601C140.1 88.5601 140.16 88.6201 140.22 88.6201C140.04 88.5001 140.46 88.7401 140.22 88.6201C140.64 88.8601 141.06 89.1001 141.42 89.3401L141.72 89.5201C141.36 89.2801 141.72 89.5201 141.78 89.5801C141.96 89.7601 142.14 89.8801 142.38 90.0601C142.62 90.2401 142.74 90.4201 142.92 90.5401C142.98 90.6001 143.22 90.8401 143.04 90.6601C142.86 90.4801 143.22 90.8401 143.28 90.9001C143.64 91.2601 144 91.6801 144.36 92.0401L144.84 92.6401C144.96 92.8201 144.72 92.4601 144.96 92.7601L145.2 93.1201C145.86 94.0801 146.52 95.0401 147.06 96.0601L147.48 96.7801C147.6 96.9601 147.42 96.6601 147.48 96.8401L147.54 97.0201C147.6 97.2001 147.72 97.3201 147.78 97.5001C148.08 98.0401 148.32 98.6401 148.56 99.1801C149.1 100.38 149.58 101.58 150 102.84C150.9 105.36 151.74 107.94 152.4 110.58C153.72 116.04 154.74 121.62 155.4 127.2C156 131.88 156.42 136.62 156.66 141.36C156.78 143.88 156.9 146.34 156.96 148.86V149.22L157.26 148.68C153.3 149.64 149.34 150.54 145.38 151.32C136.8 153.06 128.16 154.56 119.52 155.46C114.48 156.12 109.44 156.36 104.46 156.36C103.74 156.36 103.92 157.14 104.16 157.56C104.52 158.16 105.18 158.58 105.9 158.64C115.02 158.76 124.2 157.62 133.2 156.18C140.52 154.98 147.78 153.6 155.04 151.92C156.42 151.62 157.8 151.26 159.18 150.96C159.42 150.9 159.48 150.6 159.48 150.42C159.48 148.56 159.42 146.7 159.3 144.84C159.06 140.28 158.7 135.78 158.22 131.22C157.62 125.52 156.66 119.82 155.46 114.18C154.2 108.72 152.64 103.26 150.18 98.1601C148.08 93.9001 145.2 89.6401 140.94 87.1801C139.02 86.0401 136.86 85.3801 134.64 85.2601C131.7 85.2001 128.82 85.8001 126.12 87.0001C118.74 89.9401 112.44 95.4001 107.1 101.16C97.0799 112.14 89.4599 125.04 84.7199 139.08C83.5199 142.74 82.2599 146.82 83.7599 150.54C86.3999 157.08 94.6799 158.1 100.8 158.46C102.48 158.58 104.16 158.58 105.9 158.58C106.62 158.58 106.44 157.8 106.2 157.38C105.78 156.84 105.12 156.42 104.46 156.36Z" fill="#111111"/>
<path d="M149.1 92.88C140.22 93.84 141.24 89.16 138.9 94.68C138.9 94.68 136.32 100.08 127.08 92.4C125.82 91.32 128.76 71.94 143.28 66.42C143.28 66.42 151.08 66.06 152.46 59.4C152.46 59.4 154.86 66.36 159.84 68.16C164.82 69.96 174.9 72 174.06 77.28C173.22 82.56 165.96 81.66 162.12 79.2L158.58 86.04C153.54 85.26 153.72 79.62 153.72 79.62C153.72 79.62 148.86 82.8 148.98 85.14C149.1 87.48 153.48 90.06 153.48 90.06C152.46 91.62 150.9 92.7 149.1 92.88Z" fill="white"/>
<path d="M148.74 91.44C147.06 91.68 145.38 91.62 143.76 91.32C143.52 91.26 143.22 91.2 142.98 91.14L142.74 91.08H142.86L142.56 90.96C142.14 90.84 141.72 90.66 141.3 90.54C139.08 90 138.54 92.16 137.7 93.72C137.64 93.78 137.58 93.84 137.58 93.96C137.58 94.08 137.46 94.08 137.46 94.14C137.46 94.2 137.7 93.9 137.52 94.08C137.46 94.14 137.4 94.2 137.4 94.2C137.4 94.2 137.22 94.38 137.1 94.44C136.98 94.5 136.62 94.74 136.92 94.56C136.8 94.62 136.62 94.74 136.5 94.8L136.2 94.92C136.08 94.98 135.84 95.04 136.08 94.98C135.9 95.04 135.66 95.04 135.48 95.04H135.18C134.88 95.04 135.24 95.04 134.94 95.04C134.34 94.98 133.8 94.86 133.26 94.68C131.4 93.96 129.72 92.94 128.22 91.62C128.1 91.5 127.98 91.44 127.86 91.32C127.5 91.08 127.98 91.44 127.98 91.44C127.92 91.32 128.22 91.86 128.16 91.68C128.16 91.68 128.22 92.1 128.22 91.8C128.22 91.5 128.22 91.86 128.22 91.8C128.22 91.74 128.22 91.56 128.22 91.44C128.22 91.08 128.22 90.78 128.22 90.42C128.22 90.24 128.28 90.06 128.28 89.88C128.28 89.58 128.28 90.06 128.28 89.82C128.28 89.7 128.34 89.58 128.34 89.46C128.7 87.18 129.3 84.96 130.14 82.8C132.18 77.4 135.84 71.94 141.06 69C141.78 68.58 142.56 68.22 143.34 67.92C143.52 67.86 143.64 67.8 143.82 67.74C143.7 67.74 143.76 67.74 143.76 67.74H144C144.84 67.62 145.68 67.5 146.52 67.26C149.16 66.54 151.74 64.92 153 62.4C153.42 61.62 153.72 60.78 153.9 59.94L151.26 59.46C151.98 61.56 153.06 63.48 154.38 65.22C155.46 66.66 156.78 67.86 158.34 68.76C159.66 69.42 161.1 69.96 162.54 70.32C164.1 70.8 165.66 71.34 167.22 71.94C168.6 72.42 169.92 73.08 171.18 73.92C171.3 74.04 171.42 74.1 171.54 74.22C171.66 74.34 171.9 74.52 171.84 74.46L172.08 74.7C172.2 74.82 172.26 74.94 172.38 75.06C172.62 75.36 172.38 75 172.5 75.18C172.56 75.3 172.62 75.42 172.68 75.6C172.74 75.78 172.68 75.48 172.74 75.72C172.74 75.84 172.8 75.96 172.8 76.08C172.8 76.56 172.74 77.1 172.56 77.58C172.32 78.18 171.9 78.66 171.42 78.96C170.88 79.26 170.28 79.5 169.62 79.56C168.9 79.68 168.12 79.68 167.34 79.56C166.5 79.44 165.72 79.26 164.94 79.02C164.52 78.9 164.16 78.72 163.74 78.48C163.56 78.42 163.38 78.3 163.26 78.24C163.14 78.18 162.96 78.12 162.84 78C162.3 77.64 161.34 77.46 160.98 78.18L157.44 85.02L158.64 84.54C158.22 84.48 157.74 84.36 157.32 84.18C157.14 84.12 157.02 84.06 156.9 83.94L156.66 83.76C156.3 83.46 156.72 83.88 156.54 83.7C156.36 83.52 156.24 83.4 156.12 83.22C156.06 83.16 156 83.1 155.94 82.98C156 83.1 156 83.1 155.94 82.98C155.88 82.86 155.76 82.62 155.64 82.44L155.52 82.2C155.4 81.96 155.64 82.5 155.52 82.14C155.4 81.84 155.34 81.48 155.22 81.18C155.16 81.06 155.16 80.88 155.16 80.7C155.1 80.34 155.16 80.76 155.16 80.64C155.16 80.4 155.1 80.1 155.1 79.8C155.1 78.96 154.44 78.24 153.54 78.24C153.24 78.24 153 78.3 152.76 78.42C151.92 78.96 151.14 79.56 150.42 80.22C149.28 81.24 147.96 82.62 147.72 84.18C147.24 87.18 150.6 89.7 152.88 91.08L152.34 89.1C152.28 89.22 152.22 89.34 152.16 89.4C152.04 89.64 151.86 89.88 151.62 90.06C150.9 90.78 149.94 91.26 148.86 91.38C147.06 91.62 148.02 94.38 149.58 94.14C151.62 93.9 153.78 92.76 154.68 90.84C155.04 90.12 154.8 89.28 154.14 88.86C153.36 88.38 152.58 87.84 151.86 87.24C151.44 86.88 151.02 86.4 150.66 85.98C150.54 85.8 150.42 85.62 150.36 85.38C150.3 85.08 150.3 85.44 150.36 85.2C150.36 85.44 150.36 85.08 150.42 84.96C150.48 84.72 150.6 84.48 150.72 84.3C150.9 84 151.08 83.76 151.26 83.52C151.68 83.04 152.16 82.56 152.7 82.14C153.36 81.6 154.02 81.12 154.68 80.64L152.34 79.26C152.28 83.04 154.74 86.64 158.58 87.3C159.06 87.42 159.48 87.18 159.78 86.82L163.32 79.98L161.46 80.16C164.28 81.96 168 82.98 171.36 82.14C174.3 81.36 176.04 78.36 175.26 75.42C175.2 75.12 175.08 74.82 174.96 74.58C173.58 71.58 169.86 70.14 166.98 69.06C165.36 68.46 163.68 67.98 162.06 67.44C160.56 67.08 159.12 66.36 157.92 65.4C156.66 64.26 155.64 62.88 154.86 61.32C154.56 60.78 154.26 60.18 154.02 59.64C153.96 59.52 153.96 59.46 153.9 59.34C153.84 59.22 153.72 58.92 153.84 59.22C153.96 59.52 153.84 59.28 153.84 59.16C153.66 58.5 153.18 58.02 152.52 57.9C151.92 57.72 151.32 58.08 151.14 58.68C151.14 58.74 151.14 58.74 151.14 58.8C150.54 61.74 148.38 63.54 145.74 64.44C145.5 64.56 145.2 64.62 144.96 64.68L144.84 64.74L144.48 64.8C144.12 64.86 143.76 64.92 143.4 64.98C142.38 65.16 141.36 65.52 140.46 66.06C134.52 69.12 130.44 74.58 127.92 80.64C126.96 82.92 126.24 85.32 125.82 87.72C125.58 89.16 125.28 90.84 125.7 92.22C125.94 92.82 126.36 93.36 126.9 93.78C127.8 94.5 128.76 95.22 129.78 95.82C131.22 96.78 132.84 97.44 134.58 97.74C136.38 97.98 138.3 97.62 139.5 96.24C139.8 95.88 140.1 95.46 140.28 95.04C140.46 94.5 140.76 94.02 141 93.54C141.06 93.48 141.12 93.36 141.12 93.3C141.24 93.12 141 93.54 141.06 93.36L141.18 93.24L141.24 93.18C141.12 93.36 141 93.3 141.12 93.3C141.24 93.3 140.82 93.36 141 93.3C141.06 93.3 141.12 93.3 141.12 93.3C140.76 93.36 141 93.3 141.24 93.36C141.48 93.42 141 93.24 141.18 93.36L141.42 93.42C141.6 93.48 141.78 93.54 142.02 93.6C143.4 94.02 144.84 94.32 146.28 94.32C147.3 94.38 148.32 94.32 149.34 94.2C151.26 94.08 150.3 91.32 148.74 91.44Z" fill="#111111"/>
<path d="M124.559 77.76C124.559 77.76 117.179 78.48 116.639 74.46C116.099 70.44 120.539 72.06 120.539 72.06C120.539 72.06 116.579 63.36 124.019 63.06C124.019 63.06 118.979 56.1 124.619 51.3C130.259 46.5 139.139 51.66 139.139 51.66C139.139 51.66 140.279 43.08 147.479 45.3C154.679 47.52 152.039 52.44 152.039 52.44C152.039 52.44 156.659 53.82 156.299 56.82C155.939 59.82 152.219 60.36 152.219 60.36C152.219 60.36 149.519 68.58 143.279 66.3L135.359 75.9C136.199 78.6 135.659 81.54 133.919 83.7C130.859 87.36 123.359 83.22 124.559 77.76Z" fill="#111111"/>
<path d="M124.439 77.0401C124.199 77.0401 124.679 77.0401 124.679 77.0401C124.559 77.0401 124.439 77.0401 124.319 77.0401C123.899 77.0401 123.479 77.0401 123.119 77.0401H122.759H122.639C122.339 77.0401 122.039 76.9801 121.799 76.9801C121.319 76.9201 120.779 76.8001 120.299 76.6201C119.339 76.3801 118.559 75.6601 118.199 74.7001C118.019 74.1001 118.019 73.4401 118.199 72.8401C118.259 72.7201 118.259 72.7201 118.319 72.6601C118.379 72.6001 118.379 72.6001 118.379 72.5401C118.379 72.4801 118.379 72.5401 118.319 72.5401C118.499 72.4801 118.319 72.5401 118.259 72.5401C118.499 72.5401 117.959 72.4801 118.319 72.5401C118.379 72.5401 118.439 72.5401 118.499 72.5401C118.319 72.5401 118.739 72.5401 118.499 72.5401L118.859 72.6001C118.919 72.6001 119.219 72.6601 119.039 72.6601C119.159 72.7201 119.279 72.7201 119.399 72.7801L119.579 72.8401C120.179 73.0801 122.459 72.8401 121.919 71.7601L121.859 71.6401C121.979 71.9401 121.859 71.5801 121.799 71.5201C121.679 71.2201 121.559 70.9201 121.499 70.6201C121.199 69.7201 121.019 68.8201 120.959 67.8601C120.839 66.9601 121.019 66.0001 121.439 65.1601C121.559 64.9201 121.739 64.7401 121.919 64.5601C121.859 64.6201 122.399 64.2601 122.219 64.3201C122.459 64.2001 122.699 64.0801 122.939 64.0201C122.699 64.0801 123.179 63.9601 123.179 63.9601C123.419 63.9601 123.479 63.9001 123.719 63.9001C124.139 63.9001 125.999 63.4801 125.399 62.7001C123.719 60.3601 122.759 57.0001 123.899 54.2401C124.799 52.1401 126.719 50.5801 128.999 50.1601C130.919 49.9201 132.899 50.1601 134.759 50.8801C135.899 51.2401 136.919 51.6601 137.939 52.2601C138.419 52.5001 138.959 52.5601 139.499 52.3801C139.799 52.3201 140.579 52.0801 140.639 51.6601C140.879 49.7401 141.839 47.4601 143.279 46.3201C143.519 46.1401 143.759 45.9601 144.059 45.9001C144.119 45.9001 144.299 45.7801 144.059 45.9001L144.359 45.7801C144.599 45.7201 143.999 45.8401 144.419 45.7801C144.479 45.7801 144.899 45.7201 144.599 45.7801C145.619 45.7801 146.639 46.0201 147.599 46.5001C149.159 47.1601 150.719 48.3601 150.959 50.1601C151.079 51.0001 150.959 51.8401 150.539 52.5601C150.359 52.8601 150.779 53.1601 151.019 53.2201C152.399 53.6401 154.439 54.6601 154.739 56.3401C154.919 57.4801 154.319 58.6201 153.299 59.2201C152.999 59.4001 152.699 59.5201 152.339 59.6401C152.219 59.7001 151.619 59.8201 152.219 59.7001H152.039C151.619 59.7601 150.839 59.9401 150.719 60.4801C150.299 61.6801 149.699 62.8201 148.979 63.7801C148.379 64.5601 147.659 65.2201 146.819 65.7001C146.639 65.8201 146.399 65.8801 146.219 65.9401C146.099 66.0001 145.919 66.0001 145.799 66.0001C145.259 66.0001 144.719 65.8801 144.179 65.7001C143.399 65.4601 142.499 65.6401 141.899 66.1801L134.699 74.8201C134.459 75.1201 133.919 75.5401 133.799 75.9601C133.739 76.2001 133.919 76.5601 133.919 76.8001C134.039 77.3401 134.099 77.9401 134.159 78.4801C134.219 80.2801 133.679 82.0801 132.539 83.4601C132.359 83.7001 132.119 83.8801 131.879 84.0601C131.759 84.1801 131.579 84.2401 131.399 84.3001C131.219 84.3601 131.399 84.3001 131.459 84.3001L131.219 84.3601H130.979C131.039 84.3601 131.219 84.3601 131.039 84.3601C130.799 84.3601 130.559 84.3601 130.319 84.3001C127.559 83.7601 125.219 80.7601 125.879 77.8201C126.119 76.6801 123.179 76.8601 122.939 77.8201C122.219 81.3601 124.739 84.5401 128.039 85.5601C129.839 86.1601 131.819 86.0401 133.499 85.2001C135.359 84.2401 136.559 82.0801 136.919 80.0401C137.219 78.6001 137.099 77.1601 136.679 75.7801L136.559 76.2001L144.479 66.6001L142.139 67.0801C145.319 68.2801 148.859 67.3801 151.079 64.8001C152.219 63.5401 153.059 62.1001 153.599 60.4801L152.219 61.2001C154.679 60.7801 157.679 59.2201 157.679 56.3401C157.679 53.9401 154.859 52.4401 152.879 51.8401L153.359 52.5001C153.779 51.6601 153.899 50.7601 153.839 49.8601C153.659 47.7001 151.919 46.2601 150.119 45.3601C147.659 44.1601 144.779 43.6801 142.199 44.8201C140.519 45.6001 139.199 46.9201 138.479 48.6001C137.999 49.5601 137.699 50.5801 137.519 51.6601L140.219 51.0601C136.919 49.1401 133.079 48.2401 129.239 48.5401C126.359 48.7801 123.659 50.1601 121.859 52.4401C120.419 54.4201 119.939 57.0001 120.599 59.3401C120.959 60.8401 121.559 62.2201 122.459 63.4201L124.139 62.2201C122.339 62.2801 120.299 62.7001 119.039 64.0801C118.199 65.0401 117.779 66.2401 117.839 67.4401C117.839 69.1201 118.259 70.8601 118.979 72.3601L121.379 71.2801C119.279 70.5001 115.379 70.5601 115.019 73.4401C114.599 77.0401 118.379 78.2401 121.199 78.4801C122.339 78.6001 123.419 78.6001 124.559 78.4801C125.039 78.4201 125.999 78.1201 125.939 77.5201C125.879 76.9201 124.859 76.9801 124.439 77.0401Z" fill="#111111"/>
<path d="M144.12 68.16C144.12 68.16 144.06 62.22 139.74 62.7C135.42 63.18 131.76 75.9 139.2 76.74" fill="white"/>
<path d="M145.5 68.4001C145.5 66.8401 145.08 65.2801 144.24 63.9601C142.92 61.8001 139.98 60.7201 137.7 61.9801C136.02 62.9401 134.94 64.8601 134.28 66.6001C133.44 68.7001 133.26 70.9801 133.74 73.1401C134.34 75.7801 136.56 77.7001 139.26 78.0001C139.92 78.0601 140.64 77.7601 140.58 76.9801C140.46 76.2001 139.86 75.6601 139.08 75.5401C138.84 75.5401 138.6 75.4801 138.36 75.4201C138.12 75.3601 138.66 75.5401 138.3 75.4201L137.94 75.3001C137.7 75.2401 137.52 75.0601 137.4 74.9401C137.34 74.8801 136.98 74.4601 137.22 74.7601C137.1 74.6401 136.98 74.4601 136.92 74.2801C136.74 73.9801 136.92 74.3401 136.8 73.9801C136.74 73.8001 136.62 73.5601 136.56 73.3201C136.44 73.0201 136.44 72.6601 136.38 72.3601C136.32 71.8801 136.32 71.4601 136.38 70.9801C136.44 70.1401 136.62 69.3001 136.86 68.4601C137.1 67.6801 137.4 66.9001 137.88 66.1801C138.06 65.8801 138.3 65.5201 138.54 65.2201C138.66 65.1001 138.78 64.9201 138.9 64.8001C138.78 64.9801 139.14 64.6201 139.2 64.5601C139.32 64.4401 139.44 64.3801 139.56 64.2601C139.62 64.2001 139.74 64.1401 139.8 64.1401C139.56 64.2601 139.68 64.2001 139.74 64.1401C139.86 64.0801 140.04 64.0201 140.16 63.9601C140.28 63.9001 140.46 63.9601 140.1 63.9601C140.28 63.9601 140.4 63.9001 140.58 63.9001C140.76 63.9001 141 63.9001 141.18 63.9601C140.82 63.8401 141.72 64.2601 141.3 64.0201C141.36 64.0801 141.42 64.1401 141.48 64.1401C141.78 64.2601 141.36 63.9601 141.54 64.2001C141.6 64.2601 141.66 64.3201 141.72 64.3801C141.78 64.4401 141.84 64.5001 141.72 64.3801C141.78 64.4401 141.84 64.5001 141.84 64.5601L141.96 64.7401C142.02 64.8001 142.2 65.2201 142.08 64.9201C142.2 65.1601 142.26 65.3401 142.32 65.5801C142.38 65.7601 142.44 66.0001 142.5 66.2401C142.5 66.3001 142.56 66.3601 142.56 66.4201C142.5 66.1201 142.56 66.5401 142.56 66.6001C142.62 67.0201 142.68 67.4401 142.68 67.9201C142.74 69.3601 145.56 70.2001 145.5 68.4001Z" fill="#111111"/>
<path d="M153.42 68.6401C153.9 68.8801 154.08 69.4801 153.84 69.9601C153.84 70.0201 153.78 70.0201 153.78 70.0801C153.18 70.9801 152.1 70.2601 152.34 69.3001C152.4 68.8801 152.82 68.5201 153.3 68.6401C153.3 68.6401 153.36 68.6401 153.42 68.6401Z" fill="#111111"/>
<path d="M204.239 130.5H141.479V176.1H204.239V130.5Z" fill="white"/>
<path d="M203.58 174.72H143.4C142.56 174.72 141.72 174.66 140.94 174.72H140.82L142.14 177.18V131.58L142.08 131.82H202.26C203.1 131.82 203.94 131.88 204.72 131.82H204.84L203.52 129.36V174.96C203.64 175.68 203.88 176.28 204.3 176.88C204.42 177.06 204.9 177.78 204.9 177.18V131.58C204.84 131.04 204.6 130.44 204.3 130.02C204.18 129.78 203.88 129.18 203.58 129.18H141.78C141.48 129.12 141.18 129.12 140.94 129.18C140.94 129.18 140.88 129.18 140.82 129.18C140.76 129.24 140.76 129.36 140.76 129.42V175.02C140.82 175.56 141.06 176.16 141.36 176.58C141.48 176.82 141.78 177.42 142.08 177.42H203.88C204.18 177.48 204.48 177.48 204.72 177.42C204.72 177.42 204.78 177.42 204.84 177.42C205.08 177.42 204.54 176.04 204.48 175.92C204.36 175.68 204 174.72 203.58 174.72Z" fill="#464646"/>
<path d="M175.14 131.1L175.08 146.16L174.96 170.16V175.68C174.96 176.58 177.72 175.68 177.72 174.84L177.78 159.78L177.9 135.78V130.26C177.96 129.3 175.2 130.26 175.14 131.1Z" fill="#464646"/>
<path d="M195.36 130.92H186.72V144.78H195.36V130.92Z" fill="#464646"/>
<path d="M194.159 143.94H185.519L188.039 145.5V135.9C188.039 134.58 187.919 133.14 188.039 131.82C188.039 131.64 187.979 131.76 188.039 131.76C188.279 131.7 188.459 131.7 188.699 131.76H196.619L194.099 130.2V144C194.099 144.36 194.999 144.78 195.299 144.96C195.719 145.2 196.199 145.44 196.679 145.56V131.7C196.679 131.4 195.899 130.98 195.659 130.86C195.239 130.5 194.699 130.26 194.159 130.14H185.459H185.399V143.94C185.399 144.24 186.179 144.66 186.419 144.78C186.839 145.14 187.379 145.38 187.919 145.5H196.559C196.859 145.5 195.839 144.78 195.779 144.72C195.419 144.48 194.699 143.94 194.159 143.94Z" fill="#464646"/>
<path d="M148.14 164.76C149.28 164.16 150.24 163.32 151.02 162.3C151.32 161.88 151.62 161.4 151.86 160.92C152.16 160.44 152.34 159.9 152.4 159.3C152.34 158.82 151.98 158.64 151.56 158.64C150.6 158.52 149.58 158.64 148.68 159.06C147.66 159.66 147.24 160.98 147.24 162.12C147.36 165.24 152.34 165 154.38 164.46C155.4 164.22 156.6 163.38 156.42 162.18C156.36 161.64 155.94 161.28 155.4 161.28C154.44 161.16 153.48 161.28 152.64 161.64C151.38 162.36 152.7 164.04 153.48 164.46C154.92 165.24 156.6 164.88 158.16 165C158.88 165.06 159.6 165 160.26 164.82C160.74 164.7 160.8 164.52 160.26 164.52C159 164.46 157.5 164.76 156.36 164.16C155.88 163.92 155.52 163.5 155.28 163.02C155.16 162.78 155.16 162.54 155.16 162.3C155.16 162.18 155.16 162 155.22 161.88C155.28 161.76 155.52 161.58 155.28 161.64L153.18 161.82C153 161.82 153.06 161.88 153.24 162C153.3 162.12 153.36 162.18 153.36 162.3C153.42 162.48 153.42 162.72 153.36 162.9C153.3 163.38 153.06 163.74 152.7 164.04C152.58 164.16 152.4 164.22 152.28 164.34C153.24 164.34 153.48 164.34 153 164.28C152.88 164.28 152.7 164.22 152.58 164.22C152.1 164.16 151.68 163.98 151.26 163.74C149.7 162.84 149.88 159.72 151.56 159L150.66 159.18H150.84L149.16 159.24C149.58 159.36 149.22 160.38 149.16 160.62C148.44 162.48 147.06 164.04 145.26 165C145.02 165.12 146.28 165.18 146.34 165.18C146.94 165.18 147.54 165.06 148.14 164.76Z" fill="#464646"/>
<path d="M148.2 170.76H154.32C155.1 170.7 155.76 170.22 156 169.5C156.12 168.78 155.52 168.54 154.92 168.54H148.8C148.02 168.6 147.36 169.08 147.12 169.8C147 170.52 147.6 170.76 148.2 170.76Z" fill="#464646"/>
<path d="M139.8 142.38C139.8 142.38 151.38 139.26 155.58 139.14C159.78 139.02 159.48 142.92 154.5 145.62C154.5 145.62 158.76 144.3 157.74 148.44C156.72 152.58 150 155.58 150 155.58C150 155.58 158.76 155.28 158.04 158.34C157.32 161.4 110.76 158.76 107.82 156.78C104.88 154.8 112.86 134.16 114.66 133.38C116.46 132.6 135.18 139.5 135.18 139.5L138.24 135.96" fill="white"/>
<path d="M140.759 143.16C143.279 142.5 145.739 141.9 148.319 141.3C150.179 140.88 152.039 140.52 153.899 140.22C154.259 140.16 154.619 140.1 155.039 140.1L155.579 140.04C155.699 140.04 156.239 139.98 155.879 140.04C156.119 140.04 156.359 140.04 156.599 140.04C156.419 140.04 156.659 140.04 156.659 140.04C156.419 139.98 156.659 140.04 156.719 140.04C156.779 140.1 157.019 140.16 156.719 140.04C156.779 140.1 156.959 140.16 156.719 140.04C156.779 140.1 156.839 140.1 156.959 140.34C157.199 140.88 156.839 141.72 156.479 142.26C155.639 143.4 154.559 144.3 153.299 144.9C152.759 145.2 153.119 145.8 153.479 146.04C154.019 146.4 154.739 146.52 155.399 146.34L155.639 146.28C155.159 146.4 155.759 146.28 155.939 146.22C156.119 146.16 156.419 146.22 155.999 146.22C156.119 146.22 156.239 146.22 156.359 146.22C156.659 146.22 155.999 146.22 156.419 146.22C156.179 146.16 156.119 146.16 156.299 146.22C156.119 146.16 156.059 146.1 156.239 146.22C155.939 145.92 156.299 146.46 156.179 146.22C156.239 146.4 156.239 146.34 156.299 146.46C156.419 146.82 156.419 147.18 156.359 147.54C156.239 148.38 155.879 149.22 155.399 149.94C154.319 151.38 152.999 152.58 151.439 153.48C150.839 153.84 150.239 154.2 149.639 154.5L149.099 154.8C147.719 155.4 149.399 156.54 150.239 156.48C150.719 156.48 151.199 156.48 151.679 156.48C152.159 156.48 152.579 156.48 152.999 156.54L153.779 156.6C153.839 156.6 154.079 156.66 153.779 156.6L154.319 156.66C154.619 156.72 154.859 156.72 155.099 156.78L155.339 156.84C155.759 156.96 155.039 156.72 155.459 156.84C155.699 156.9 155.939 157.02 156.119 157.08C155.699 156.9 156.599 157.38 156.239 157.14C156.479 157.32 156.539 157.32 156.539 157.74C156.539 157.62 156.479 157.98 156.479 157.98C156.479 157.98 156.599 157.74 156.479 157.92C156.479 157.98 156.599 157.86 156.539 157.86L156.359 157.98C156.239 158.16 156.539 157.92 156.419 157.98L156.179 158.1C155.999 158.16 155.819 158.22 155.639 158.22C155.459 158.22 155.939 158.16 155.759 158.22C155.699 158.22 155.639 158.22 155.579 158.28L155.159 158.34C153.779 158.52 152.339 158.7 150.959 158.7H150.299C150.659 158.7 150.059 158.7 149.999 158.7L148.559 158.76C147.539 158.76 146.459 158.76 145.439 158.76C143.219 158.76 140.999 158.7 138.779 158.64C133.979 158.52 129.179 158.28 124.439 157.92C122.279 157.8 120.119 157.62 117.959 157.38C116.999 157.32 116.099 157.2 115.139 157.08L114.479 157.02L114.119 156.96L112.859 156.78C111.659 156.6 110.459 156.48 109.259 156.18L108.959 156.12C108.659 156.06 109.379 156.24 109.019 156.12C108.959 156.12 108.599 156 108.599 155.94C108.599 155.88 109.019 156.18 108.779 156C108.719 155.94 109.139 156.12 108.839 156C109.079 156.06 108.899 156.18 108.839 155.94C108.899 156.18 108.839 155.88 108.779 155.76C108.599 155.16 108.599 154.56 108.659 153.96C108.719 153 108.899 152.04 109.079 151.14C109.559 148.92 110.219 146.7 110.939 144.54C111.659 142.32 112.499 140.16 113.459 138C113.999 136.62 114.719 135.3 115.559 134.04C115.619 133.98 115.679 133.92 115.739 133.86C115.499 133.98 115.859 133.68 115.739 133.86C115.619 133.92 115.499 133.98 115.379 133.98C115.079 133.92 115.799 133.92 115.379 133.98H115.739C115.439 133.98 115.559 133.92 115.799 133.98C116.039 134.04 116.519 134.1 116.879 134.22C117.239 134.34 117.659 134.4 118.079 134.52L118.799 134.7C119.219 134.82 118.499 134.64 118.919 134.76L119.399 134.88C120.479 135.18 121.619 135.54 122.699 135.9C126.479 137.1 130.199 138.42 133.979 139.74L134.639 139.98C135.239 140.22 136.139 140.28 136.559 139.74L139.619 136.2C140.399 135.3 137.579 134.34 136.859 135.18L133.799 138.72L135.719 138.48C132.599 137.34 129.419 136.26 126.299 135.18C123.959 134.4 121.559 133.62 119.159 132.96C117.659 132.54 115.859 131.94 114.239 132.12C112.919 132.3 112.319 133.56 111.779 134.64C110.819 136.56 109.979 138.6 109.259 140.64C108.359 143.04 107.519 145.44 106.859 147.9C106.259 149.82 105.899 151.86 105.779 153.9C105.779 155.4 106.079 156.6 107.579 157.2C108.539 157.56 109.559 157.8 110.639 157.92C114.479 158.58 118.379 158.88 122.279 159.18C131.759 159.9 141.299 160.44 150.779 160.08C152.459 160.02 154.139 159.96 155.819 159.72C156.839 159.6 158.099 159.48 158.999 158.88C160.499 157.92 159.239 156.18 158.099 155.58C156.119 154.44 153.539 154.26 151.319 154.2C150.839 154.2 150.359 154.2 149.879 154.2L151.019 155.88C153.359 154.86 155.459 153.42 157.259 151.62C158.399 150.42 159.359 148.86 159.419 147.18C159.479 145.5 158.339 144.54 156.779 144.18C155.759 144 154.679 144.06 153.659 144.36L155.759 145.8C157.559 144.78 160.259 142.92 160.019 140.52C159.779 138.12 156.659 137.7 154.799 137.76C152.879 137.94 150.959 138.24 149.039 138.66C146.819 139.14 144.659 139.62 142.499 140.16C141.299 140.46 140.099 140.76 138.899 141.06C138.299 141.24 138.239 141.84 138.659 142.26C139.199 143.22 139.979 143.4 140.759 143.16Z" fill="#111111"/>
<path d="M147.179 151.74L155.039 146.94L156.179 146.28C156.779 145.92 156.059 145.08 155.699 144.9C155.159 144.48 154.439 144.36 153.779 144.6L145.919 149.4L144.779 150.06C144.179 150.42 144.899 151.26 145.259 151.44C145.799 151.92 146.579 152.04 147.179 151.74Z" fill="#111111"/>
</svg>
