<svg width="300" height="300" viewBox="0 0 300 300" fill="none" xmlns="http://www.w3.org/2000/svg">
<path d="M28.0826 56.5729H271.105C279.04 56.5729 285.469 63.0024 285.469 70.9367V224.972C285.469 232.906 279.04 239.336 271.105 239.336H28.0826C20.1483 239.336 13.7188 232.906 13.7188 224.972V70.9367C13.7871 63.0024 20.2167 56.5729 28.0826 56.5729Z" fill="#171717"/>
<path d="M271.379 237.763H32.5289C30.2034 237.763 27.5358 237.968 25.2786 237.421C19.4647 235.916 15.4291 230.649 15.4291 224.63C15.4291 223.809 15.4291 222.989 15.4291 222.168V77.9137C15.4291 75.3829 15.3607 72.7837 15.4291 70.2529C15.7027 63.5498 21.1063 58.283 27.8094 58.0778H270.011C271.585 58.0094 273.158 58.2146 274.663 58.625C280.134 60.4034 283.828 65.465 283.828 71.2105C283.828 74.0833 283.828 76.8877 283.828 79.7604V223.467C283.828 224.083 283.828 224.767 283.828 225.383C283.623 232.154 278.151 237.558 271.379 237.763C270.49 237.694 269.669 238.31 269.464 239.131C269.327 239.883 269.875 240.636 270.627 240.772C270.695 240.772 270.764 240.772 270.832 240.772C278.083 240.772 284.444 235.984 286.564 229.076C287.043 227.229 287.248 225.314 287.18 223.399V79.4868C287.18 76.5457 287.18 73.6045 287.18 70.6633C287.111 61.703 279.656 54.9999 270.901 54.9999H29.5878C28.9038 54.9999 28.2882 54.9999 27.6042 54.9999C20.3539 55.3419 14.1979 60.4034 12.4879 67.3802C11.7356 70.5265 12.0775 74.1517 12.0775 77.3665V222.578C12.0775 223.399 12.0775 224.288 12.0775 225.109C12.1459 231.197 15.6343 236.668 21.1747 239.268C24.5262 240.841 27.8094 240.772 31.2978 240.772H270.832C272.816 240.841 273.637 237.763 271.379 237.763Z" fill="#171717"/>
<path d="M262.9 73.399H50.5146C46.0964 73.399 42.5146 76.9808 42.5146 81.399V216.493C42.5146 220.911 46.0964 224.493 50.5146 224.493H262.9C267.318 224.493 270.9 220.911 270.9 216.493V81.399C270.9 76.9808 267.318 73.399 262.9 73.399Z" fill="white"/>
<path d="M28.2196 155.205C31.7705 155.205 34.6491 152.326 34.6491 148.775C34.6491 145.224 31.7705 142.346 28.2196 142.346C24.6686 142.346 21.79 145.224 21.79 148.775C21.79 152.326 24.6686 155.205 28.2196 155.205Z" fill="#171717"/>
<path d="M32.9398 148.707C32.9398 151.101 31.5718 153.221 29.4515 154.247C29.0411 154.384 28.6307 154.521 28.2203 154.521C27.8783 154.521 28.5623 154.589 28.0835 154.521H27.9467C27.9467 154.521 27.6047 154.453 27.3995 154.384C26.3051 154.042 25.4159 153.29 24.7319 152.401C23.2955 150.485 23.0903 147.818 24.2531 145.697C24.8003 144.671 25.6895 143.851 26.7155 143.303C27.1259 143.098 27.5363 142.961 27.9467 142.893C28.2203 142.825 28.4939 142.825 28.7675 142.893C31.2298 143.509 32.8714 146.176 32.9398 148.707C32.9398 149.528 36.3598 149.596 36.3598 148.707C36.2914 145.697 34.3078 143.03 31.435 142.141C28.2203 141.115 24.1847 141.525 21.7907 144.193C19.8072 146.45 19.5336 149.733 21.1067 152.264C22.9535 155.205 26.7839 156.094 29.9987 155.615C33.487 155.068 36.2914 152.332 36.2914 148.775C36.3598 147.955 32.9398 147.886 32.9398 148.707Z" fill="white"/>
<path d="M278.288 145.834C278.288 145.834 276.304 146.45 276.988 148.296C277.672 150.143 280.066 149.322 279.929 147.476C279.998 146.655 279.382 145.902 278.493 145.834C278.425 145.834 278.356 145.834 278.288 145.834Z" fill="white"/>
<path d="M195.798 168.474C195.798 168.474 195.251 173.331 196.14 173.946C197.03 174.562 199.424 174.767 199.629 172.92C199.834 171.073 199.902 168.474 198.808 168.201C197.714 167.927 195.867 167.585 195.798 168.474Z" fill="white"/>
<path d="M195.457 168.269C195.32 169.227 195.32 170.184 195.32 171.142C195.32 171.757 195.32 172.441 195.457 173.057C195.525 173.604 195.868 174.014 196.346 174.22C197.372 174.767 199.287 174.904 199.903 173.604C200.04 173.262 200.108 172.852 200.108 172.441C200.108 171.963 200.177 171.484 200.177 171.005C200.245 170.184 200.108 169.363 199.766 168.611C199.287 167.79 198.33 167.653 197.441 167.585C196.825 167.585 195.525 167.448 195.457 168.269C195.457 168.543 196.141 168.885 196.209 168.611C196.278 167.995 197.304 168.132 197.714 168.201C198.056 168.269 198.398 168.337 198.74 168.406L198.877 168.474C198.877 168.474 198.809 168.406 198.809 168.474C198.877 168.543 198.945 168.679 199.014 168.748C199.287 169.432 199.356 170.184 199.287 170.868C199.287 171.279 199.287 171.689 199.219 172.099C199.219 172.441 199.151 172.852 199.082 173.194C198.672 174.22 197.167 174.288 196.278 173.878C196.209 173.809 196.346 173.878 196.278 173.878C196.346 173.946 196.346 173.878 196.346 173.946C196.346 174.014 196.278 173.878 196.278 173.741C196.209 173.536 196.141 173.331 196.141 173.125C196.073 172.578 196.004 171.963 196.073 171.415C196.073 170.526 196.141 169.569 196.209 168.679C196.209 168.337 195.457 167.995 195.457 168.269Z" fill="white"/>
<path d="M193.062 172.578C193.473 172.51 193.883 172.51 194.294 172.441H194.43V172.647C194.362 173.125 194.362 173.604 194.43 174.083C194.499 174.493 194.704 174.904 194.978 175.314C195.251 175.656 195.593 175.861 196.004 175.998C196.414 176.135 196.893 176.203 197.372 176.135C197.919 176.135 198.466 176.135 199.013 175.998C199.492 175.861 199.971 175.656 200.313 175.314C200.45 175.109 200.586 174.904 200.655 174.699C200.723 174.425 200.792 174.151 200.86 173.878C200.997 173.331 201.134 172.715 201.27 172.168V172.031H201.407C201.886 172.099 202.433 172.099 202.912 172.168C202.433 172.236 201.886 172.305 201.407 172.305L201.544 172.168C201.544 172.783 201.476 173.331 201.407 173.946C201.407 174.22 201.339 174.562 201.27 174.835C201.202 175.177 201.065 175.451 200.86 175.725C200.45 176.203 199.834 176.545 199.15 176.751C198.534 176.887 197.919 176.956 197.303 176.956C196.756 176.956 196.209 176.887 195.73 176.682C195.183 176.477 194.704 176.135 194.362 175.725C194.088 175.246 193.883 174.699 193.883 174.151C193.883 173.604 193.952 173.125 194.088 172.647L194.225 172.783C193.883 172.647 193.473 172.647 193.062 172.578Z" fill="white"/>
<path d="M193.199 172.989C193.61 172.92 194.02 172.92 194.43 172.852L194.02 172.305C193.746 173.399 194.02 174.562 194.636 175.451C195.388 176.34 196.482 176.477 197.577 176.477C198.671 176.477 200.108 176.272 200.723 175.314C200.997 174.835 201.202 174.288 201.27 173.741C201.407 173.194 201.544 172.647 201.681 172.031L201.339 172.305C201.886 172.373 202.433 172.373 202.98 172.442L202.844 171.621C202.365 171.689 201.886 171.758 201.476 171.758L201.818 172.442L201.954 172.305L201.27 171.894C201.202 172.51 201.202 173.194 201.134 173.81C201.134 174.425 200.928 174.972 200.586 175.451C199.834 176.272 198.534 176.477 197.44 176.409C196.482 176.477 195.525 176.135 194.909 175.383C194.43 174.562 194.362 173.536 194.704 172.647L193.952 172.715L194.088 172.852L194.362 172.236C193.952 172.168 193.541 172.168 193.131 172.1C192.515 172.1 192.652 172.92 193.199 172.989C193.61 173.057 193.952 173.057 194.362 173.126C194.567 173.126 194.704 172.989 194.704 172.784C194.704 172.715 194.704 172.647 194.636 172.578L194.499 172.442C194.294 172.168 193.883 172.168 193.746 172.51C193.336 173.673 193.473 174.972 194.157 175.998C194.978 176.887 196.14 177.366 197.372 177.298C197.919 177.298 197.782 176.477 197.303 176.477C196.756 176.477 196.893 177.229 197.372 177.298C198.671 177.435 199.971 177.093 200.997 176.272C202.023 175.314 201.886 173.604 202.023 172.305C202.023 172.031 201.886 171.826 201.612 171.826C201.544 171.826 201.407 171.826 201.339 171.894L201.202 172.031C200.928 172.236 201.202 172.784 201.544 172.715C202.091 172.647 202.57 172.647 203.117 172.578C203.664 172.51 203.322 171.826 202.98 171.758C202.433 171.689 201.886 171.621 201.339 171.621C201.134 171.621 200.997 171.758 200.997 171.894C200.792 172.715 200.655 173.604 200.45 174.357C200.176 175.451 199.013 175.725 197.987 175.725C197.166 175.793 196.14 175.793 195.525 175.246C194.909 174.699 194.841 173.468 194.978 172.647C194.978 172.373 194.841 172.168 194.567 172.168C194.567 172.168 194.567 172.168 194.499 172.168C194.02 172.236 193.541 172.236 193.062 172.305C192.584 172.373 192.72 172.989 193.199 172.989Z" fill="white"/>
<path d="M195.66 177.845C195.934 177.708 196.139 177.64 196.413 177.571C196.686 177.503 196.891 177.503 197.165 177.503C197.439 177.503 197.712 177.503 197.917 177.571C198.191 177.64 198.465 177.708 198.67 177.845C198.465 177.982 198.191 178.119 197.917 178.187C197.644 178.255 197.439 178.324 197.165 178.255C196.891 178.255 196.618 178.255 196.413 178.187C196.139 178.187 195.865 178.05 195.66 177.845Z" fill="white"/>
<path d="M195.936 178.187C196.894 177.708 197.988 177.708 198.946 178.187L198.398 177.571C197.988 177.845 197.441 177.982 196.894 177.982C196.62 177.982 196.346 177.982 196.141 177.913C195.936 177.845 195.731 177.777 195.526 177.64C195.457 177.571 195.252 177.435 195.32 177.64C195.389 177.845 195.526 177.982 195.662 178.119C196.62 178.803 197.92 178.871 198.946 178.187C199.082 178.119 198.535 177.64 198.467 177.571C197.441 177.093 196.278 177.093 195.32 177.571C195.252 177.571 195.526 177.913 195.526 177.913C195.526 177.913 195.868 178.255 195.936 178.187Z" fill="white"/>
<path d="M197.302 176.409C197.439 176.477 197.576 176.614 197.644 176.751C197.712 176.887 197.712 176.956 197.712 177.093C197.712 177.229 197.712 177.366 197.644 177.435C197.576 177.571 197.439 177.708 197.302 177.777C197.165 177.708 197.028 177.571 196.96 177.435C196.892 177.298 196.892 177.229 196.892 177.093C196.892 176.956 196.892 176.819 196.96 176.751C197.097 176.614 197.165 176.477 197.302 176.409Z" fill="white"/>
<path d="M197.166 176.682L197.235 176.75C197.166 176.682 197.303 176.819 197.235 176.75C197.235 176.75 197.235 176.819 197.303 176.819C197.235 176.75 197.303 176.887 197.303 176.819V176.887V176.956C197.303 177.024 197.303 177.024 197.303 177.092V177.161C197.303 177.229 197.303 177.229 197.235 177.298V177.229C197.166 177.366 197.098 177.434 197.03 177.571L197.098 177.503C197.03 177.571 197.03 177.571 196.961 177.571L197.44 177.64C197.44 177.64 197.44 177.64 197.372 177.571L197.303 177.503C197.235 177.434 197.372 177.571 197.303 177.503L197.235 177.434C197.166 177.366 197.235 177.503 197.235 177.434V177.366V177.298C197.235 177.298 197.235 177.298 197.235 177.229C197.235 177.161 197.235 177.161 197.235 177.092V177.024C197.235 176.956 197.235 176.887 197.303 176.887V176.956C197.372 176.819 197.44 176.75 197.508 176.614L197.44 176.682L197.577 176.614C197.714 176.477 197.645 176.272 197.508 176.203C197.44 176.135 197.303 176.066 197.235 176.066C197.166 175.998 197.03 175.998 196.961 176.066C196.688 176.272 196.482 176.614 196.482 177.024C196.551 177.434 196.756 177.845 197.098 178.05C197.235 178.118 197.44 178.187 197.577 178.118C197.85 177.913 198.056 177.571 198.056 177.161C197.987 176.75 197.782 176.34 197.44 176.135C197.372 176.066 197.235 175.998 197.166 175.998C197.098 175.998 196.961 175.998 196.961 176.066C196.893 176.34 197.03 176.545 197.166 176.682Z" fill="white"/>
<path d="M155.579 199.391V206.367C155.579 206.504 155.716 206.641 155.784 206.709C155.989 206.915 156.263 207.12 156.468 207.325C156.673 207.53 156.947 207.735 157.152 207.872C157.152 207.872 157.494 208.077 157.494 208.009V201.032C157.494 200.895 157.357 200.759 157.289 200.69C157.084 200.485 156.879 200.28 156.605 200.075C156.4 199.869 156.126 199.664 155.853 199.527C155.921 199.527 155.511 199.322 155.579 199.391Z" fill="white"/>
<path d="M153.458 204.589H160.435C160.845 204.658 161.255 204.316 161.255 203.905C161.255 203.768 161.255 203.7 161.187 203.563C160.982 202.948 160.435 202.469 159.751 202.469H152.774C152.364 202.4 151.953 202.742 151.953 203.153C151.953 203.29 151.953 203.358 152.022 203.495C152.227 204.11 152.774 204.589 153.458 204.589Z" fill="white"/>
<path d="M106.743 173.467C106.743 173.809 106.674 174.083 106.606 174.425C106.537 174.767 106.674 174.288 106.537 174.562L106.469 174.767C106.401 174.835 106.401 174.972 106.332 175.041C106.264 175.109 106.127 175.314 106.264 175.177C106.127 175.314 106.059 175.451 105.922 175.588C105.853 175.656 105.853 175.656 105.785 175.725C105.99 175.519 105.717 175.793 105.717 175.793C105.58 175.93 105.443 175.998 105.238 176.067C105.306 176.067 105.443 175.93 105.238 176.067L104.896 176.203L104.622 176.272C104.896 176.203 104.622 176.272 104.554 176.272C104.349 176.34 104.143 176.34 104.007 176.34C103.801 176.34 104.28 176.34 103.938 176.34H103.665L103.186 176.409C102.844 176.34 103.323 176.477 103.049 176.409C102.844 176.34 102.707 176.272 102.502 176.203C102.502 176.203 102.16 175.998 102.365 176.135L102.16 175.998C102.023 175.861 101.886 175.793 101.749 175.656C101.476 175.451 101.818 175.725 101.681 175.588C101.613 175.519 101.476 175.383 101.407 175.314C100.997 174.835 100.792 174.22 100.723 173.536C100.723 173.331 100.723 173.194 100.723 172.989C100.723 173.194 100.723 172.852 100.723 172.852L100.792 172.647C100.792 172.51 100.86 172.441 100.86 172.305C100.86 172.236 100.929 172.099 100.86 172.305C100.929 172.099 101.065 171.894 101.134 171.689C101.134 171.689 101.339 171.415 101.202 171.552C101.065 171.689 101.339 171.415 101.339 171.415C101.476 171.279 101.613 171.142 101.749 171.005C101.544 171.142 101.749 171.005 101.818 171.005L102.023 170.868L102.228 170.731C102.365 170.663 102.365 170.663 102.228 170.731L102.433 170.663C102.639 170.595 102.775 170.526 102.981 170.458C102.707 170.526 103.186 170.458 103.254 170.389H103.528C103.87 170.321 103.391 170.389 103.596 170.389C103.801 170.389 104.007 170.458 104.212 170.458C104.554 170.526 104.007 170.389 104.349 170.458L104.691 170.595L104.964 170.731L105.101 170.8C104.964 170.731 104.964 170.731 105.101 170.8C105.306 170.937 105.443 171.073 105.648 171.21L105.853 171.484C105.99 171.621 106.127 171.826 106.264 172.031C106.127 171.826 106.332 172.168 106.332 172.168C106.332 172.168 106.401 172.373 106.469 172.51C106.537 172.647 106.537 172.715 106.537 172.783C106.537 172.852 106.606 173.194 106.606 172.989C106.674 173.057 106.674 173.262 106.743 173.467C106.743 174.083 107.358 174.562 107.974 174.493H108.042C108.726 174.425 109.205 173.878 109.273 173.194C109.205 171.005 107.837 169.021 105.785 168.269C103.528 167.517 101.065 168.132 99.5607 169.979C97.6455 172.236 97.9875 175.588 100.245 177.503C101.476 178.529 103.186 178.939 104.759 178.666C107.427 178.187 109.273 175.861 109.342 173.194C109.273 172.578 108.726 172.099 108.111 172.168H108.042C107.221 172.236 106.743 172.852 106.743 173.467Z" fill="white"/>
<path d="M173.722 114.693C173.722 114.693 193.195 114.835 195.139 114.41C197.082 113.986 199.415 110.7 197.224 106.847C195.033 102.995 191.746 104.126 191.746 104.126C191.746 104.126 192.029 98.7188 185.243 99.0016C178.457 99.2843 178.74 105.434 178.74 105.434C178.74 105.434 173.616 105.646 174.252 109.639C174.252 109.639 171.884 108.791 170.612 111.725C169.339 114.658 173.722 114.693 173.722 114.693Z" fill="white"/>
<path d="M173.298 115.259C177.645 115.294 182.027 115.294 186.374 115.259C188.848 115.223 191.322 115.223 193.796 115.082C194.786 115.082 195.74 114.799 196.553 114.269C198.178 113.138 199.062 111.265 198.956 109.321C198.779 107.024 197.295 104.55 195.068 103.737C194.044 103.348 192.877 103.313 191.817 103.631L192.63 103.879C192.736 101.581 191.11 99.5316 188.99 98.8601C186.657 98.1533 184.148 98.33 181.921 99.3549C180.331 100.097 179.094 101.405 178.458 103.066C178.104 103.914 177.963 104.833 177.963 105.752L179.235 104.939C176.479 105.045 173.015 106.706 173.51 109.957L174.924 109.18C173.263 108.614 171.284 109.604 170.4 111.018C169.87 111.83 169.304 112.997 169.87 113.916C170.259 114.587 171.036 114.941 171.743 115.117C172.238 115.188 172.768 115.259 173.298 115.259C173.757 115.294 174.182 115.082 174.464 114.764C174.676 114.481 174.57 114.163 174.182 114.163C173.899 114.163 173.581 114.128 173.298 114.092C172.733 114.022 172.202 113.81 171.743 113.492C171.284 113.103 171.142 112.431 171.39 111.866C171.566 111.371 171.814 110.912 172.167 110.523C172.273 110.417 172.379 110.346 172.485 110.275C172.414 110.311 172.591 110.205 172.627 110.205C172.485 110.24 172.768 110.134 172.627 110.205L172.768 110.169C172.874 110.134 172.733 110.169 172.733 110.169L172.909 110.134C173.015 110.099 173.086 110.099 173.051 110.134C173.192 110.134 173.333 110.134 173.439 110.134C173.545 110.134 173.333 110.099 173.475 110.134L173.581 110.169L173.687 110.205C174.005 110.275 174.323 110.205 174.57 110.028C174.747 109.922 175.136 109.675 175.1 109.427C174.959 108.72 175.065 107.978 175.419 107.342C175.454 107.271 175.489 107.236 175.56 107.165C175.631 107.095 175.701 106.989 175.631 107.095C175.701 107.024 175.772 106.953 175.807 106.918C175.843 106.883 176.019 106.741 175.878 106.847C175.984 106.777 176.125 106.671 176.231 106.6C176.408 106.494 176.09 106.671 176.267 106.565L176.479 106.459L176.655 106.388L176.585 106.423L176.726 106.388C176.868 106.353 176.974 106.317 177.115 106.282L177.292 106.246C177.327 106.246 177.539 106.176 177.433 106.211C177.327 106.246 177.539 106.211 177.539 106.176L177.68 106.14C177.857 106.105 178.034 106.07 178.211 106.07C178.317 106.07 178.635 106.034 178.246 106.07C178.635 106.07 179.518 105.787 179.518 105.257C179.518 104.656 179.589 104.055 179.73 103.455C179.872 102.889 180.119 102.359 180.402 101.829C180.578 101.546 180.79 101.299 181.002 101.051C181.215 100.804 181.497 100.592 181.78 100.415C182.063 100.238 182.381 100.097 182.699 99.9557C183.158 99.8143 183.653 99.673 184.148 99.6376C185.243 99.4963 186.339 99.5669 187.364 99.8143C188.707 100.132 189.838 101.051 190.439 102.324C190.757 102.96 190.898 103.667 190.863 104.373C190.863 104.762 191.428 104.691 191.676 104.621C191.746 104.585 191.782 104.585 191.852 104.585C191.64 104.621 191.923 104.585 191.852 104.585L192.17 104.55C192.206 104.55 192.382 104.55 192.206 104.55H192.347C192.489 104.55 192.595 104.55 192.701 104.55C192.983 104.585 193.266 104.621 193.513 104.691C195.351 105.257 196.623 107.165 197.048 108.968C197.436 110.594 197.012 112.714 195.634 113.668C195.563 113.704 195.493 113.774 195.422 113.81C195.599 113.739 195.316 113.845 195.316 113.845C195.528 113.774 194.892 113.916 195.28 113.88L194.962 113.916C194.644 113.951 194.326 113.951 194.044 113.986H193.867H193.584L192.842 114.022C192.276 114.057 191.711 114.057 191.11 114.057C189.767 114.092 188.46 114.092 187.117 114.128C184.325 114.163 181.568 114.163 178.776 114.163C177.186 114.163 175.631 114.163 174.04 114.128C173.616 114.128 173.192 114.304 172.909 114.658C172.803 114.941 172.909 115.223 173.298 115.259Z" fill="#171717"/>
<path d="M190.05 105.928C190.226 105.61 190.438 105.328 190.686 105.08L190.756 105.009C190.827 104.939 190.898 104.903 190.968 104.833L191.216 104.691L191.322 104.621C191.428 104.55 191.286 104.621 191.357 104.585L191.64 104.479L191.781 104.444C191.887 104.409 191.675 104.479 191.817 104.444L191.993 104.409C192.029 104.409 192.205 104.373 192.099 104.409C191.993 104.444 192.17 104.409 192.205 104.409H192.417C192.241 104.409 192.382 104.409 192.488 104.409H192.665C192.559 104.409 192.665 104.409 192.7 104.409H192.841L193.089 104.444L193.23 104.479L193.513 104.55C193.69 104.621 193.902 104.656 194.078 104.762C194.467 104.939 194.927 104.939 195.315 104.797C195.633 104.691 195.669 104.409 195.315 104.267C193.124 103.384 190.12 103.207 188.53 105.292C188.424 105.434 188.353 105.54 188.282 105.681C188.141 105.999 188.671 106.14 188.883 106.176C189.095 106.211 189.837 106.246 189.979 105.964L190.05 105.928Z" fill="#171717"/>
<path d="M112.618 158.693C112.618 158.693 114.738 155.866 117.707 156.75C118.414 156.962 118.979 157.421 119.368 158.022C120.64 159.93 119.156 162.51 116.859 162.51L90.8473 162.475C89.7517 162.475 88.8682 161.591 88.8682 160.496C88.8682 159.895 89.1509 159.294 89.6457 158.906C91.4481 157.563 93.7806 158.693 93.7806 158.693C93.7806 158.693 89.7164 152.827 94.5228 146.819C99.3293 140.811 106.327 146.571 105.585 152.862C105.585 152.862 113.254 148.197 112.618 158.693Z" fill="white"/>
<path d="M113.395 158.8C114.314 157.598 115.798 156.679 117.282 157.209C118.449 157.669 119.155 158.87 118.943 160.107C118.802 160.991 118.06 162.016 117.176 162.087C116.681 162.122 116.151 162.087 115.621 162.087H111.84H101.096H92.2957C91.801 162.122 91.3062 162.122 90.8114 162.051C89.9279 161.768 89.5038 160.638 89.8218 159.789C90.2459 158.764 91.4122 158.623 92.3664 158.87C92.5431 158.906 92.7552 158.976 92.9319 159.047L93.0379 159.082C93.3913 159.224 93.7801 159.224 94.1688 159.082C94.3809 159.012 94.805 158.8 94.5929 158.517C94.0628 157.74 93.6741 156.856 93.462 155.937C92.8259 153.852 92.9319 151.661 93.7447 149.646C94.2749 148.339 95.017 147.172 96.0066 146.183C96.3954 145.794 96.8195 145.476 97.2789 145.229C97.597 145.052 97.9504 144.91 98.3038 144.84C99.046 144.698 99.8235 144.804 100.53 145.123C101.379 145.476 102.121 146.041 102.722 146.748C104.241 148.48 104.983 150.777 104.736 153.039C104.701 153.286 105.231 153.322 105.337 153.357C105.655 153.357 106.008 153.286 106.291 153.145L106.326 153.11C106.185 153.18 106.503 153.004 106.326 153.11C106.468 153.039 106.68 152.933 106.856 152.862C106.962 152.827 107.069 152.756 107.21 152.721L107.387 152.65C107.245 152.721 107.316 152.686 107.457 152.615C107.599 152.544 107.74 152.509 107.881 152.474L108.093 152.403C108.27 152.368 107.917 152.438 108.023 152.403L108.199 152.368L108.447 152.332C108.518 152.332 108.8 152.297 108.518 152.332H108.765C108.8 152.332 109.083 152.332 108.942 152.332C108.8 152.332 109.048 152.332 109.083 152.332L109.33 152.368C109.118 152.332 109.366 152.368 109.436 152.403C109.542 152.438 109.613 152.474 109.719 152.509C109.861 152.58 109.648 152.474 109.754 152.509L109.861 152.58C109.931 152.615 110.002 152.65 110.073 152.721C110.214 152.827 110.355 152.933 110.461 153.039C110.744 153.322 110.991 153.675 111.168 154.064C111.84 155.548 111.84 157.315 111.734 158.906C111.698 159.436 113.43 159.259 113.465 158.658C113.607 156.397 113.536 153.004 111.133 151.873C109.542 151.131 107.634 151.519 106.044 152.156C105.655 152.332 105.266 152.509 104.877 152.721L106.432 152.792C106.892 148.551 103.746 143.815 99.152 143.921C96.4307 143.992 94.3455 145.688 92.9319 147.879C90.7407 151.272 90.7407 155.619 92.9319 159.012L94.4869 158.446C93.568 158.022 92.5431 157.846 91.5182 157.916C90.1752 158.022 88.3375 158.658 88.0194 160.178C87.8074 161.344 88.4788 162.475 89.6098 162.829C90.0339 162.935 90.4933 163.005 90.9174 162.97H98.9753L110.85 163.005H115.232C115.975 163.041 116.752 163.041 117.494 162.935C118.837 162.723 120.11 161.874 120.569 160.567C120.993 159.295 120.569 157.916 119.544 157.068C118.342 156.078 116.505 156.008 115.091 156.467C113.995 156.821 113.006 157.421 112.228 158.234C112.087 158.376 111.981 158.482 111.875 158.623C111.38 159.224 113.077 159.224 113.395 158.8Z" fill="#171717"/>
<path d="M187.291 212.13C187.291 212.13 189.624 218.915 188.67 219.764C187.715 220.612 179.481 220.753 179.375 219.269C179.269 217.784 182.308 211.988 182.308 211.988L187.291 212.13Z" fill="#171717"/>
<path d="M186.479 212.448C186.479 212.483 186.514 212.518 186.514 212.554C186.514 212.589 186.55 212.625 186.55 212.66C186.62 212.872 186.55 212.589 186.55 212.695C186.656 213.049 186.762 213.367 186.868 213.72C187.186 214.71 187.433 215.699 187.68 216.689C187.787 217.184 187.893 217.643 187.963 218.138C187.999 218.35 187.999 218.527 188.034 218.739C188.034 218.774 188.034 218.809 188.034 218.88V218.845C188.034 218.951 188.034 219.021 188.034 219.127C188.034 219.233 187.999 219.269 187.999 219.304C187.999 219.233 188.034 219.092 187.999 219.304C188.034 219.233 188.069 219.198 188.14 219.127C187.999 219.233 188.352 219.057 188.175 219.127C188.069 219.163 187.751 219.269 187.999 219.198C187.822 219.233 187.645 219.269 187.468 219.304C185.525 219.657 183.51 219.657 181.566 219.375L181.248 219.339C181.072 219.304 181.213 219.339 181.248 219.339L181.072 219.304C180.895 219.269 180.683 219.198 180.506 219.163L180.294 219.057C180.365 219.092 180.435 219.127 180.294 219.057C180.188 219.057 180.223 219.021 180.294 219.057C180.188 218.845 180.188 219.021 180.294 219.057C180.223 218.88 180.329 219.233 180.294 219.092C180.329 219.233 180.294 219.233 180.294 219.057C180.294 218.88 180.329 218.703 180.4 218.562C180.4 218.527 180.471 218.279 180.435 218.421C180.471 218.315 180.506 218.244 180.541 218.138C180.612 217.89 180.718 217.643 180.824 217.396C181.531 215.629 182.309 213.897 183.192 212.236L182.273 212.766L187.256 212.872C187.716 212.907 188.14 212.625 188.246 212.165C188.281 211.741 187.963 211.352 187.504 211.317H187.468L182.485 211.211C182.097 211.176 181.743 211.388 181.566 211.741C180.718 213.367 179.941 214.992 179.269 216.689C179.057 217.219 178.88 217.749 178.739 218.279C178.598 218.668 178.562 219.057 178.598 219.445C178.739 220.294 179.729 220.647 180.471 220.824C182.697 221.283 185.03 221.354 187.292 221C188.034 220.894 189.059 220.788 189.554 220.152C190.084 219.445 189.907 218.315 189.766 217.537C189.412 215.593 188.882 213.649 188.211 211.812C188.069 211.388 187.398 211.282 187.044 211.458C186.514 211.564 186.302 212.024 186.479 212.448Z" fill="#171717"/>
<path d="M187.294 212.13C187.294 212.13 187.895 216.512 186.694 217.007C185.492 217.502 181.887 217.855 181.604 216.406C181.322 214.957 182.276 212.024 182.276 212.024L180.686 188.875H189.168L187.294 212.13Z" fill="white"/>
<path d="M186.409 211.953C186.622 213.225 186.622 214.498 186.445 215.77C186.409 216.088 186.268 216.371 186.091 216.618C185.879 216.83 185.561 216.936 185.279 216.972C184.854 217.078 184.466 217.148 184.042 217.184C183.83 217.184 183.617 217.219 183.405 217.219C183.193 217.184 183.017 217.184 182.805 217.184C182.911 217.184 183.052 217.219 183.158 217.254C183.087 217.219 183.017 217.184 182.981 217.184C182.84 217.113 182.734 217.007 182.628 216.866C182.451 216.477 182.416 216.088 182.451 215.664C182.522 214.71 182.699 213.756 182.981 212.837C183.087 212.625 183.123 212.377 183.158 212.13C183.158 211.918 183.123 211.706 183.123 211.494L182.628 204.355L181.956 194.707L181.709 190.996L181.638 189.794C181.638 189.582 181.638 189.335 181.603 189.123C181.603 189.087 181.603 189.052 181.603 189.052L181.462 189.087H189.944L188.318 188.698L187.682 196.544L186.657 209.091L186.409 211.953C186.409 212.165 188.141 212.413 188.141 212.307L188.777 204.461L189.802 191.915L190.05 189.052C190.05 188.84 188.636 188.663 188.459 188.663H179.977C179.942 188.663 179.871 188.663 179.836 188.698L180.189 193.682L180.861 203.613L181.391 211.14C181.426 211.352 181.426 211.564 181.426 211.776C181.391 212.095 181.285 212.377 181.179 212.66C180.861 213.65 180.719 214.674 180.684 215.699C180.649 216.053 180.79 216.406 181.002 216.689C181.32 216.972 181.709 217.148 182.133 217.254C183.229 217.573 184.36 217.679 185.455 217.608C185.915 217.573 186.374 217.502 186.834 217.396C187.152 217.36 187.434 217.254 187.682 217.078C188.212 216.654 188.247 215.664 188.247 215.063C188.283 214.286 188.247 213.508 188.141 212.731C188.141 212.589 188.106 212.448 188.106 212.307C188.106 212.165 187.399 212.059 187.258 212.024C187.01 211.953 186.728 211.918 186.409 211.953Z" fill="#171717"/>
<path d="M159.476 214.109L157.144 214.427C157.144 214.427 150.924 216.724 151.666 217.997C152.408 219.269 155.942 219.516 160.537 218.951C165.131 218.385 166.651 216.76 164.672 213.614L159.476 214.109Z" fill="#171717"/>
<path d="M159.234 213.331L157.078 213.614C156.654 213.685 156.265 213.826 155.877 214.003C155.029 214.356 154.216 214.71 153.403 215.134C152.59 215.487 151.848 215.982 151.247 216.618C150.681 217.148 150.646 218.032 151.176 218.633C151.247 218.703 151.318 218.774 151.388 218.845C152.237 219.587 153.438 219.834 154.534 219.94C156.124 220.082 157.714 220.082 159.305 219.905C160.86 219.834 162.38 219.552 163.864 219.057C164.924 218.668 165.949 217.961 166.267 216.83C166.621 215.629 166.02 214.321 165.384 213.331C165.172 213.013 164.783 212.837 164.394 212.872L159.234 213.331C158.845 213.367 158.598 213.72 158.633 214.109C158.633 214.144 158.633 214.215 158.669 214.25C158.845 214.674 159.269 214.957 159.729 214.922L164.924 214.427L163.935 213.968C164.182 214.356 164.394 214.78 164.535 215.24C164.641 215.523 164.677 215.841 164.606 216.159C164.606 216.229 164.571 216.3 164.535 216.371C164.5 216.442 164.571 216.335 164.5 216.477C164.465 216.548 164.394 216.618 164.359 216.724C164.323 216.83 164.323 216.795 164.288 216.795C164.359 216.689 164.288 216.795 164.253 216.83C163.97 217.113 163.652 217.325 163.298 217.466C162.168 217.926 160.966 218.173 159.764 218.279C158.28 218.456 156.796 218.527 155.347 218.491C154.781 218.456 154.216 218.421 153.65 218.315C153.58 218.315 153.297 218.244 153.12 218.173C153.014 218.138 152.943 218.103 152.837 218.067C152.661 217.997 152.873 218.103 152.696 217.997L152.449 217.855C152.378 217.82 152.519 217.891 152.519 217.891C152.484 217.855 152.449 217.82 152.449 217.82C152.413 217.784 152.378 217.749 152.378 217.749C152.378 217.749 152.449 217.891 152.449 217.82C152.378 217.678 152.484 217.926 152.484 217.961C152.484 217.855 152.449 218.138 152.484 217.997C152.413 218.103 152.519 217.855 152.484 217.997C152.519 217.961 152.555 217.891 152.59 217.82C152.519 217.891 152.625 217.784 152.625 217.784C153.721 216.76 155.205 216.159 156.654 215.593C156.902 215.487 157.184 215.381 157.432 215.275C157.502 215.275 157.538 215.24 157.608 215.205C157.538 215.275 157.326 215.275 157.573 215.24C158.28 215.169 159.022 215.063 159.764 214.957C160.153 214.922 160.4 214.568 160.365 214.18C160.365 214.144 160.365 214.109 160.33 214.038C160.153 213.508 159.694 213.261 159.234 213.331Z" fill="#171717"/>
<path d="M168.423 186.543C168.423 186.543 159.234 211.918 159.022 212.589C158.81 213.261 154.074 215.593 154.746 215.629C155.276 215.664 156.548 216.618 160.542 215.947C164.606 215.24 164.394 214.745 164.571 213.897C164.747 213.049 179.768 190.43 179.768 190.43L168.423 186.543Z" fill="white"/>
<path d="M167.572 186.719C167.113 188.027 166.618 189.335 166.159 190.642C165.134 193.505 164.073 196.403 163.048 199.301C161.988 202.27 160.893 205.238 159.832 208.207C159.302 209.727 158.772 211.282 158.207 212.766C158.171 212.837 158.242 212.59 158.207 212.731C158.242 212.59 158.277 212.66 158.207 212.731C158.136 212.802 158.03 212.872 158.136 212.802C158.242 212.731 158.065 212.872 158.03 212.872L157.853 213.014C157.712 213.12 157.571 213.226 157.429 213.296C156.758 213.72 156.051 214.145 155.344 214.569C154.92 214.816 154.213 215.134 153.966 215.594C153.754 215.982 154.107 216.088 154.425 216.159C154.248 216.159 154.743 216.23 154.425 216.159C154.46 216.159 154.567 216.194 154.46 216.159C154.354 216.124 154.602 216.194 154.637 216.23C156.546 216.831 158.489 216.795 160.433 216.442C161.564 216.3 162.66 216.018 163.755 215.664C164.321 215.452 164.992 215.134 165.275 214.533C165.346 214.357 165.416 214.18 165.452 214.003C165.452 213.933 165.487 213.826 165.487 213.756C165.487 213.685 165.416 213.897 165.452 213.827C165.558 213.65 165.628 213.473 165.734 213.296C166.159 212.554 166.653 211.812 167.113 211.035C168.703 208.561 170.294 206.087 171.919 203.613C173.686 200.891 175.489 198.17 177.256 195.484C178.316 193.859 179.376 192.233 180.472 190.642L180.613 190.43C180.719 190.289 180.684 190.112 180.543 190.006C180.507 190.006 180.507 189.971 180.472 189.971L170.506 186.578L169.092 186.083C168.668 185.977 168.244 186.048 167.89 186.295C167.678 186.437 167.396 186.861 167.784 187.002L177.751 190.395L179.164 190.89L179.023 190.466L176.832 193.788C175.171 196.297 173.545 198.771 171.884 201.28C170.152 203.896 168.456 206.546 166.759 209.161C166.123 210.151 165.522 211.105 164.886 212.095C164.533 212.625 164.179 213.19 163.897 213.756C163.791 213.968 163.755 214.18 163.72 214.427C163.72 214.498 163.649 214.675 163.72 214.533C163.685 214.569 163.579 214.781 163.649 214.71C163.72 214.639 163.614 214.745 163.614 214.745C163.649 214.745 163.72 214.639 163.614 214.745C163.473 214.816 163.649 214.745 163.614 214.745L163.402 214.851C163.367 214.851 163.543 214.816 163.367 214.851L163.084 214.957C162.907 215.028 162.695 215.063 162.554 215.099C161.882 215.276 161.211 215.382 160.539 215.488C159.444 215.7 158.348 215.735 157.217 215.629C156.899 215.594 156.546 215.523 156.228 215.417C156.157 215.382 156.086 215.382 156.016 215.346L155.733 215.24C155.627 215.205 155.521 215.169 155.415 215.169H155.344C155.309 215.169 155.061 215.099 155.238 215.169C155.415 215.24 155.521 215.205 155.591 215.382C155.662 215.558 155.591 215.523 155.556 215.629C155.521 215.7 155.521 215.7 155.556 215.664C155.591 215.629 155.379 215.77 155.521 215.7C155.662 215.629 155.697 215.558 155.803 215.488C157.04 214.675 158.419 214.074 159.514 213.084C159.938 212.731 160.044 212.236 160.257 211.706C160.575 210.858 160.857 210.01 161.175 209.161C162.165 206.405 163.155 203.648 164.144 200.927L167.36 192.021C167.996 190.254 168.632 188.487 169.269 186.719L169.375 186.472C169.516 186.083 168.809 186.083 168.597 186.119C168.102 186.154 167.784 186.366 167.572 186.719Z" fill="#171717"/>
<path d="M154.565 149.434C154.565 149.434 155.449 147.844 154.353 147.455C153.258 147.066 153.116 147.561 152.48 146.536C151.844 145.511 152.021 144.804 154.777 144.663C157.534 144.521 159.23 146.96 160.008 150.53C160.008 150.53 162.341 158.34 164.284 159.754C166.228 161.167 177.255 153.039 177.255 153.039L178.174 161.945C178.174 161.945 167.43 170.816 161.563 167.988C155.696 165.161 155.449 153.746 155.449 153.746" fill="white"/>
<path d="M155.416 149.646C155.699 149.151 155.911 148.48 155.664 147.95C155.416 147.419 154.745 147.172 154.215 147.031C153.967 146.96 153.72 146.925 153.472 146.889C153.402 146.889 153.331 146.889 153.26 146.854C152.978 146.819 153.614 146.925 153.578 146.995C153.614 146.96 152.872 146.041 153.119 145.652C153.296 145.44 153.578 145.299 153.861 145.264C154.391 145.122 154.957 145.087 155.487 145.122C155.77 145.122 156.088 145.193 156.335 145.37C156.688 145.582 157.006 145.829 157.254 146.147C157.925 146.96 158.42 147.879 158.738 148.904C158.95 149.505 159.056 150.141 159.233 150.742C159.41 151.236 159.551 151.766 159.728 152.261C160.258 153.887 160.894 155.513 161.636 157.068C162.202 158.234 162.909 159.754 164.181 160.248C165.382 160.673 166.655 160.284 167.75 159.789C169.164 159.153 170.542 158.411 171.85 157.598C173.158 156.785 174.465 155.972 175.738 155.089C176.48 154.594 177.257 154.099 177.964 153.534L178.07 153.463L176.409 153.039L177.222 160.814L177.328 161.91L177.363 161.733C176.232 162.652 175.031 163.5 173.794 164.313C171.461 165.832 168.952 167.211 166.231 167.882C165.595 168.059 164.958 168.165 164.322 168.2C164.039 168.2 163.792 168.2 163.509 168.2C163.403 168.2 163.262 168.2 163.156 168.165L162.979 168.13C162.944 168.13 162.626 168.059 162.803 168.094C162.343 167.988 161.919 167.812 161.53 167.564C161 167.211 160.541 166.787 160.117 166.327C158.349 164.348 157.501 161.627 156.936 159.082C156.582 157.421 156.335 155.725 156.264 154.064C156.264 153.498 154.533 153.215 154.568 153.604C154.639 156.007 155.027 158.411 155.699 160.743C156.794 164.419 158.95 168.13 163.015 168.907C166.902 169.649 170.931 167.6 174.147 165.691C175.49 164.878 176.762 164.03 177.999 163.076C178.282 162.864 178.6 162.652 178.883 162.404C179.06 162.263 179.024 162.086 178.989 161.874L178.105 153.498L178.07 153.251C178.035 153.003 177.505 152.827 177.328 152.756C177.045 152.65 176.727 152.65 176.444 152.791C174.748 154.028 173.016 155.195 171.249 156.326C169.942 157.174 168.563 157.987 167.15 158.693C166.584 158.976 165.948 159.224 165.347 159.436C165.135 159.506 164.923 159.542 164.711 159.577H164.534C164.393 159.577 164.676 159.577 164.534 159.577C164.393 159.577 164.464 159.577 164.464 159.577C164.464 159.577 164.57 159.577 164.499 159.577C164.428 159.577 164.605 159.612 164.64 159.612C164.676 159.612 164.852 159.648 164.923 159.754C164.852 159.612 164.782 159.612 164.711 159.542C164.499 159.294 164.287 159.047 164.145 158.799C163.721 158.093 163.333 157.386 163.015 156.608C162.343 155.089 161.742 153.569 161.247 151.979C160.823 150.706 160.576 149.399 160.046 148.197C159.198 146.218 157.678 144.734 155.487 144.38C154.391 144.203 153.26 144.274 152.2 144.627C151.635 144.84 151.175 145.228 151.352 145.9C151.599 146.748 152.235 147.384 153.084 147.632C153.26 147.667 153.472 147.702 153.649 147.738C153.755 147.738 153.826 147.773 153.932 147.773C153.896 147.773 153.896 147.773 153.932 147.773C154.073 147.738 153.967 147.914 153.896 147.738C154.002 148.02 154.038 148.374 153.932 148.656C153.861 148.868 153.79 149.081 153.684 149.257C153.508 149.575 155.133 150.176 155.416 149.646Z" fill="#171717"/>
<path d="M152.022 147.596C150.538 147.384 149.018 147.314 147.498 147.278C144.388 147.208 143.964 148.939 147.11 149.646C148.841 150.07 150.644 150.247 152.411 150.247L152.022 147.596Z" fill="white"/>
<path d="M152.093 146.854C151.457 146.748 150.821 146.713 150.185 146.678C149.372 146.607 148.524 146.572 147.711 146.572C146.898 146.501 146.085 146.607 145.308 146.89C144.778 147.031 144.318 147.42 144.106 147.95C143.965 148.515 144.212 149.116 144.672 149.434C145.308 149.894 146.05 150.212 146.827 150.353C147.746 150.565 148.665 150.707 149.584 150.813C150.574 150.954 151.563 150.989 152.553 150.954C152.977 150.919 153.26 150.565 153.26 150.141C153.26 150.106 153.26 150.106 153.26 150.07L152.871 147.42C152.8 146.996 152.199 146.748 151.811 146.819C151.386 146.854 151.068 147.243 151.104 147.667V147.703L151.492 150.353L152.164 149.47C152.376 149.47 152.447 149.47 152.235 149.47H151.846C151.351 149.47 150.892 149.434 150.432 149.399C149.725 149.328 149.019 149.258 148.312 149.116H148.1L147.923 149.081L147.216 148.94C147.039 148.904 146.898 148.869 146.721 148.798L146.509 148.727C146.439 148.692 146.227 148.586 146.403 148.692C146.297 148.657 146.191 148.586 146.085 148.515C146.05 148.515 145.873 148.374 145.979 148.445C146.085 148.515 145.944 148.409 145.909 148.374C145.873 148.339 145.838 148.268 145.802 148.268C145.838 148.268 145.909 148.445 145.838 148.303C145.838 148.268 145.767 148.162 145.838 148.268C145.909 148.374 145.838 148.303 145.838 148.233C145.838 148.303 145.838 148.409 145.838 148.303C145.838 148.268 145.802 148.515 145.838 148.374C145.838 148.339 145.909 148.233 145.838 148.339C145.767 148.445 145.838 148.339 145.873 148.303C145.944 148.233 145.696 148.409 145.838 148.339C145.873 148.303 145.909 148.303 145.944 148.268C146.085 148.197 145.873 148.303 145.909 148.268C145.944 148.233 146.05 148.197 146.085 148.197C146.121 148.197 146.191 148.162 146.227 148.162C146.262 148.162 146.156 148.162 146.156 148.162L146.262 148.127C146.403 148.091 146.58 148.056 146.721 148.056L146.933 148.021H147.11H147.322H147.676C148.418 148.056 149.195 148.056 149.937 148.127C150.609 148.162 151.28 148.233 151.917 148.339C152.376 148.409 152.765 148.091 152.835 147.667C152.941 147.208 152.517 146.925 152.093 146.854Z" fill="#171717"/>
<path d="M150.892 192.162C150.892 192.162 161.247 212.413 191.181 206.793C191.181 206.793 197.472 178.874 190.828 162.97C184.183 147.066 178.635 149.293 175.843 156.856C173.051 164.419 176.196 172.017 176.196 172.017C176.196 172.017 167.891 179.51 150.892 192.162Z" fill="#171717"/>
<path d="M150.008 192.197C150.397 192.904 150.821 193.576 151.28 194.212C152.482 195.908 153.896 197.428 155.415 198.842C157.642 200.891 160.151 202.623 162.872 203.966C166.371 205.698 170.153 206.864 174.04 207.43C179.2 208.136 184.466 208.066 189.626 207.217C190.368 207.111 191.075 206.97 191.817 206.829C191.852 206.829 192.064 206.793 192.064 206.723C192.418 205.097 192.736 203.471 192.983 201.81C193.655 197.852 194.15 193.823 194.432 189.794C194.856 184.846 194.856 179.863 194.432 174.951C194.22 172.512 193.831 170.109 193.266 167.706C192.63 165.161 191.711 162.722 190.58 160.355C189.484 158.022 188.248 155.654 186.551 153.675C185.597 152.544 184.431 151.448 182.946 151.024C181.497 150.636 179.978 150.777 178.635 151.484C177.539 152.12 176.726 153.216 176.09 154.311C173.51 158.87 173.298 164.454 174.535 169.437C174.712 170.18 174.924 170.886 175.171 171.629C175.242 171.735 175.277 171.876 175.313 171.982C175.313 172.017 175.348 171.911 175.313 171.982C175.206 172.088 175.1 172.229 174.959 172.3L174.217 172.971C171.955 174.915 169.693 176.824 167.361 178.697C163.049 182.196 158.667 185.624 154.249 188.946C152.835 190.006 151.457 191.066 150.043 192.091C149.902 192.197 150.644 192.233 150.679 192.233C150.962 192.233 151.492 192.268 151.74 192.091C157.147 188.098 162.448 183.998 167.714 179.792C170.471 177.566 173.192 175.339 175.878 173.007C176.267 172.653 176.691 172.3 177.08 171.947L177.115 171.911C176.231 169.614 175.737 167.14 175.631 164.666C175.454 161.026 176.125 157.28 177.963 154.099C178.423 153.286 178.988 152.544 179.695 151.943C179.978 151.696 180.331 151.484 180.684 151.307C180.755 151.272 180.861 151.236 180.932 151.201C180.967 151.201 181.179 151.13 181.073 151.166C181.109 151.166 181.356 151.06 181.179 151.13C181.003 151.13 181.356 151.06 181.179 151.13C181.356 151.13 181.002 151.13 180.967 151.13C180.826 151.13 181.179 151.13 180.967 151.13H181.073H181.144C181.356 151.166 181.568 151.236 181.745 151.307C182.169 151.484 182.593 151.696 182.982 151.979C184.007 152.756 184.89 153.71 185.632 154.771C186.728 156.326 187.682 157.987 188.495 159.683C189.378 161.485 190.156 163.323 190.792 165.232C191.782 168.483 192.418 171.841 192.701 175.198C193.301 181.948 192.948 188.769 192.135 195.484C191.852 197.958 191.464 200.432 191.04 202.87C190.898 203.683 190.757 204.461 190.58 205.274C190.509 205.698 190.368 206.122 190.333 206.546C190.333 206.617 190.297 206.652 190.297 206.723L190.545 206.617C185.738 207.571 180.826 207.748 175.984 207.182C172.167 206.687 168.492 205.627 165.028 203.966C162.342 202.658 159.833 200.997 157.606 199.054C156.016 197.675 154.602 196.12 153.33 194.424C152.941 193.894 152.588 193.364 152.234 192.833C152.093 192.586 151.952 192.303 151.81 192.091V192.056C151.704 191.879 151.104 191.95 150.927 191.95C150.821 192.021 149.937 192.127 150.008 192.197Z" fill="#171717"/>
<path d="M122.9 105.716C122.9 105.716 138.415 85.0062 141.596 84.9002C144.777 84.7942 160.08 86.4199 160.08 88.2576C160.08 90.1307 151.492 107.165 150.113 107.802C148.735 108.438 122.9 105.716 122.9 105.716Z" fill="white"/>
<path d="M123.68 106.034C124.952 104.338 126.26 102.642 127.602 100.945C130.182 97.6584 132.798 94.407 135.554 91.2969C136.756 89.9539 137.993 88.5756 139.301 87.3386C139.583 87.0913 139.831 86.8439 140.113 86.5965L140.467 86.2784C140.502 86.2431 140.679 86.1017 140.538 86.2077L140.75 86.0663C140.962 85.925 141.138 85.7836 141.386 85.6423C141.456 85.5716 141.562 85.5362 141.668 85.5009C141.774 85.4655 141.456 85.5716 141.633 85.5009L141.774 85.4302C141.951 85.3595 141.562 85.4302 141.81 85.4302C141.951 85.4302 141.492 85.4302 141.739 85.4302H141.951C142.269 85.4302 142.552 85.4302 142.87 85.4302C143.718 85.4655 144.602 85.5362 145.45 85.6069C147.606 85.7836 149.726 86.031 151.988 86.3491C153.048 86.5258 154.144 86.7025 155.204 86.9145C155.699 87.0206 156.194 87.1266 156.653 87.2326C156.83 87.268 157.042 87.3386 157.219 87.374L157.466 87.4447L157.714 87.5154C158.032 87.6214 158.35 87.7274 158.668 87.8688L158.88 87.9748C159.057 88.0455 158.738 87.9041 158.915 88.0101L159.198 88.1868C159.092 88.0808 159.269 88.2222 159.198 88.1868C159.233 88.2222 159.233 88.2575 159.269 88.2929C159.198 88.1515 159.339 88.3636 159.269 88.2929C159.339 88.4342 159.269 88.2575 159.269 88.2575V88.4342C159.269 88.4696 159.269 88.5049 159.233 88.5403C159.233 88.6463 159.269 88.3989 159.233 88.5756C158.809 89.8832 158.314 91.1202 157.714 92.3572C156.83 94.2656 155.911 96.174 154.957 98.0825C154.003 99.9909 153.013 101.864 151.953 103.702C151.529 104.409 151.14 105.151 150.681 105.858C150.504 106.14 150.327 106.423 150.15 106.67C150.221 106.564 150.044 106.812 149.974 106.883C149.903 106.953 149.832 107.059 149.762 107.165L149.585 107.342C149.514 107.448 149.408 107.483 149.55 107.377C149.373 107.483 149.762 107.307 149.585 107.342C149.797 107.271 149.797 107.307 149.62 107.307C149.55 107.307 149.479 107.307 149.408 107.342C149.726 107.271 149.479 107.342 149.338 107.342C149.126 107.342 148.878 107.342 148.666 107.342C147.252 107.342 145.803 107.236 144.39 107.13C140.29 106.847 136.191 106.494 132.126 106.105C130.324 105.928 128.486 105.752 126.684 105.575L124.704 105.363L124.528 105.328C124.598 105.328 124.846 105.363 124.528 105.328L124.139 105.292L123.609 105.221L123.149 105.186C122.796 105.151 122.231 105.151 122.054 105.575C121.877 105.999 122.337 106.246 122.655 106.282C124.917 106.529 127.143 106.741 129.405 106.953C133.611 107.377 137.816 107.766 142.022 108.084C143.754 108.226 145.521 108.367 147.252 108.438C148.207 108.473 149.267 108.579 150.221 108.402C151.281 108.19 151.847 106.953 152.377 106.14C153.402 104.515 154.285 102.818 155.204 101.122C157.113 97.5524 158.986 93.8768 160.47 90.0953C160.682 89.6005 160.859 89.0704 160.965 88.5403C161.036 88.0808 160.824 87.6567 160.435 87.4093C159.905 87.0559 159.304 86.7732 158.668 86.5965C157.749 86.3137 156.83 86.0663 155.876 85.8896C153.614 85.4302 151.317 85.1121 149.055 84.8294C147.005 84.582 144.991 84.4053 142.941 84.2993C142.375 84.2286 141.774 84.2639 141.209 84.3346C140.679 84.476 140.184 84.7234 139.76 85.0414C138.523 85.9603 137.392 86.9852 136.367 88.1515C133.434 91.2262 130.713 94.513 128.097 97.8351C126.189 100.203 124.316 102.606 122.478 105.045L122.195 105.398C121.594 106.211 123.255 106.6 123.68 106.034Z" fill="#464646"/>
<path d="M101.768 114.976C103.005 113.739 104.418 112.714 105.938 111.936C107.422 111.124 109.013 110.523 110.674 110.134C112.618 109.675 114.667 109.675 116.611 109.25C118.979 108.791 121.206 107.872 123.22 106.564C123.326 106.494 123.397 106.423 123.503 106.352C123.326 106.458 123.432 106.388 123.538 106.388C123.856 106.317 124.174 106.211 124.457 106.105C127.92 105.009 131.349 103.843 134.777 102.606C139.76 100.804 144.672 98.86 149.443 96.5982C151.635 95.5733 153.755 94.407 155.805 93.1347C157.325 92.1805 158.88 91.0849 160.046 89.7066C160.258 89.4592 160.47 89.1764 160.647 88.8937C161 88.3282 159.693 87.162 159.41 87.6214C158.526 89.0351 157.148 90.0953 155.805 91.0142C153.897 92.2865 151.917 93.4528 149.868 94.4423C145.132 96.7749 140.255 98.8247 135.271 100.627C131.561 102.005 127.85 103.278 124.068 104.479L122.796 104.903C122.619 104.939 122.442 105.009 122.266 105.115C121.877 105.363 121.524 105.646 121.135 105.858C120.039 106.458 118.908 106.953 117.707 107.342C115.904 107.907 114.031 108.261 112.123 108.402C110.285 108.544 108.483 109.003 106.751 109.71C104.56 110.629 102.545 111.901 100.778 113.527C100.707 113.597 100.601 113.703 100.495 113.774C100.071 114.198 101.308 115.435 101.768 114.976Z" fill="#464646"/>
<path d="M102.014 127.381C103.074 124.412 104.629 121.655 106.608 119.217C108.34 117.061 110.461 115.259 112.899 113.916C115.656 112.396 118.342 110.735 120.886 108.897C122.017 108.12 123.113 107.271 124.173 106.388C124.244 106.317 123.007 105.08 122.83 105.257C122.017 105.964 121.134 106.635 120.25 107.271C117.847 109.003 115.338 110.629 112.758 112.078C111.379 112.82 110.036 113.633 108.764 114.552C107.704 115.4 106.75 116.319 105.866 117.344C104.382 119.075 103.11 120.984 102.085 122.998C101.554 124.023 101.06 125.084 100.706 126.179C100.636 126.356 101.201 126.745 101.307 126.851C101.272 126.921 101.943 127.451 102.014 127.381Z" fill="#464646"/>
<path d="M140.856 84.5821C140.785 86.4198 140.892 88.2576 141.174 90.06C141.669 94.089 142.906 98.0119 144.744 101.617C146.016 104.055 147.677 106.317 149.656 108.226C149.939 108.473 150.398 108.72 150.716 108.438C151.035 108.155 150.858 107.589 150.575 107.342C147.43 104.232 145.239 100.309 143.931 96.0681C143.012 93.0641 142.482 89.954 142.376 86.8439C142.376 86.5965 142.376 86.3492 142.376 86.1018C142.376 85.9957 142.376 85.8897 142.376 85.7837C142.376 85.6777 142.376 85.4303 142.376 85.6777C142.376 85.501 142.376 85.3596 142.376 85.2182C142.411 84.7588 142.128 84.3347 141.74 84.158C141.386 84.0519 140.892 84.0873 140.856 84.5821Z" fill="#464646"/>
<path d="M205.814 219.87C206.273 218.597 206.591 217.29 206.732 215.982C207.192 212.766 207.051 209.479 206.379 206.299C205.354 201.704 203.375 197.393 200.512 193.682C198.745 191.314 196.448 188.628 193.479 187.744C192.136 187.355 189.981 187.426 189.309 188.911C188.744 190.112 190.051 191.137 191.147 191.243C192.525 191.384 193.303 190.36 193.161 189.123C192.985 187.497 191.96 185.906 191.041 184.634C187.012 178.98 180.58 175.127 174.289 172.512C171.037 171.134 167.857 169.614 165.171 167.317C162.662 165.126 160.612 162.44 159.092 159.506C157.078 155.689 155.735 151.554 154.568 147.42C152.943 141.623 151.706 135.757 150.539 129.855C148.914 121.691 147.394 113.456 145.839 105.257C145.38 102.854 144.92 100.451 144.461 98.0473C144.319 97.3758 142.623 97.8353 142.764 98.5421C144.39 107.095 145.98 115.647 147.606 124.2C148.808 130.491 150.045 136.817 151.564 143.037C152.66 147.526 153.897 152.014 155.629 156.29C156.936 159.471 158.597 162.616 160.788 165.267C162.838 167.67 165.277 169.685 168.069 171.204C169.801 172.123 171.603 172.936 173.405 173.678C177.046 175.198 180.474 177.177 183.619 179.545C185.81 181.171 187.754 183.115 189.38 185.306C190.263 186.543 191.182 188.027 191.394 189.582C191.43 189.759 191.43 189.971 191.394 190.147C191.394 190.183 191.394 190.254 191.359 190.289C191.324 190.395 191.394 190.147 191.359 190.289C191.359 190.324 191.288 190.36 191.324 190.395C191.359 190.43 191.43 190.289 191.324 190.36C191.359 190.324 191.394 190.289 191.465 190.253C191.571 190.218 191.642 190.183 191.748 190.147C191.571 190.183 191.924 190.147 191.818 190.147C191.712 190.147 191.96 190.218 191.712 190.112C191.677 190.112 191.536 190.077 191.642 190.077C191.748 190.077 191.5 190.006 191.465 190.006C191.253 189.935 191.076 189.794 190.97 189.617C190.864 189.476 190.935 189.617 190.864 189.441C190.829 189.335 190.829 189.193 190.829 189.264C190.829 188.981 190.829 189.087 190.97 188.84C190.864 189.017 190.97 188.875 191.005 188.84C190.97 188.911 191.112 188.734 191.005 188.84C191.041 188.769 191.182 188.734 191.041 188.804C190.899 188.875 191.112 188.769 191.147 188.769C190.935 188.84 191.253 188.734 191.147 188.769C191.359 188.698 191.041 188.769 191.182 188.769L191.394 188.734C191.571 188.698 191.288 188.734 191.5 188.734C191.854 188.734 192.207 188.804 192.525 188.911C193.621 189.299 194.61 189.9 195.423 190.678C196.837 191.95 198.109 193.364 199.205 194.954C200.654 196.933 201.891 199.054 202.88 201.315C205.248 206.829 206.026 213.261 204.4 219.092C204.329 219.304 204.259 219.552 204.188 219.764C204.188 219.728 204.188 219.693 204.153 219.834C204.153 219.87 204.153 219.87 204.117 219.905C203.87 220.647 205.566 220.506 205.814 219.87Z" fill="#464646"/>
<path d="M193.054 165.55C193.054 165.55 194.786 173.113 188.353 173.89C179.942 174.915 169.834 170.816 169.834 170.816C169.022 171.805 167.926 172.547 166.689 172.866C164.533 173.502 163.579 171.381 163.579 171.381C161.989 172.583 161.812 170.074 161.812 170.074C157.571 169.968 162.413 163.853 170.011 165.02L184.289 166.115C184.289 166.115 179.553 156.22 182.981 152.898C187.682 148.374 193.054 165.55 193.054 165.55Z" fill="white"/>
<path d="M192.276 165.868L192.311 166.08C192.311 166.15 192.346 166.221 192.346 166.327L192.382 166.469C192.417 166.645 192.382 166.327 192.382 166.539C192.452 167.175 192.488 167.812 192.452 168.483C192.452 168.66 192.417 168.872 192.417 169.049C192.417 169.19 192.382 169.367 192.346 169.508C192.276 169.932 192.134 170.321 191.993 170.71C191.958 170.816 192.028 170.604 191.993 170.71C191.958 170.745 191.958 170.816 191.922 170.851C191.887 170.886 191.852 171.028 191.781 171.134C191.71 171.24 191.675 171.31 191.64 171.381L191.569 171.522C191.498 171.593 191.64 171.416 191.534 171.558C191.392 171.734 191.251 171.876 191.109 172.017C191.074 172.053 191.039 172.088 191.003 172.123L190.968 172.159C190.862 172.229 190.756 172.3 190.65 172.371C190.261 172.653 189.837 172.83 189.378 172.936C188.742 173.077 188.105 173.183 187.469 173.219C185.95 173.325 184.395 173.289 182.875 173.148C180.047 172.865 177.291 172.3 174.57 171.522C173.121 171.134 171.707 170.639 170.329 170.109C169.904 169.932 169.445 170.25 169.198 170.604C169.41 170.285 169.198 170.604 169.092 170.71C168.986 170.816 168.95 170.886 168.88 170.957C168.809 171.028 168.738 171.098 168.632 171.169C167.996 171.699 167.219 172.088 166.406 172.229C165.84 172.3 165.275 172.088 164.921 171.699C164.851 171.628 164.78 171.558 164.745 171.487C164.674 171.416 164.603 171.31 164.568 171.24C164.533 171.169 164.32 170.745 164.497 171.134C164.32 170.745 163.861 170.568 163.472 170.745C163.402 170.78 163.331 170.816 163.296 170.851C163.296 170.851 163.048 171.028 163.154 170.957C163.013 171.028 163.154 170.957 163.119 170.992C163.119 170.992 163.119 170.992 163.19 171.028C163.154 171.028 163.084 170.922 163.119 170.992C163.154 171.063 163.084 170.957 163.084 170.922C163.084 170.886 163.013 170.816 162.978 170.78C163.013 170.886 162.978 170.816 162.978 170.745C162.907 170.568 162.871 170.356 162.801 170.144C162.765 169.897 162.801 170.25 162.765 170.003C162.765 169.649 162.483 169.402 162.165 169.367C162.059 169.367 161.917 169.367 161.811 169.331C161.599 169.331 161.811 169.367 161.67 169.296L161.422 169.225C161.422 169.225 161.246 169.155 161.387 169.225C161.529 169.296 161.352 169.19 161.316 169.19C161.175 169.084 161.246 169.119 161.316 169.19C161.246 169.155 161.175 168.942 161.281 169.155C161.246 169.084 161.246 169.013 161.21 168.978C161.246 169.155 161.246 169.013 161.21 168.942C161.21 168.766 161.175 169.049 161.21 168.872C161.246 168.801 161.246 168.73 161.281 168.695C161.21 168.942 161.316 168.66 161.316 168.589C161.316 168.518 161.422 168.412 161.493 168.306C161.352 168.483 161.564 168.2 161.493 168.306L161.564 168.2C161.635 168.13 161.705 168.024 161.776 167.953C161.847 167.882 161.917 167.812 162.023 167.741C162.129 167.67 161.847 167.882 162.059 167.706L162.235 167.564C163.154 166.857 164.25 166.327 165.416 166.08C166.9 165.762 168.42 165.691 169.904 165.903C173.262 166.257 176.619 166.433 180.012 166.681L184.218 166.999C184.713 167.034 185.172 166.681 185.243 166.15C185.243 166.009 185.243 165.832 185.172 165.726C185.349 166.08 185.243 165.832 185.172 165.762L184.995 165.408C184.819 165.02 184.642 164.631 184.501 164.207C184.006 162.97 183.582 161.697 183.228 160.39C182.839 158.976 182.663 157.527 182.698 156.078C182.698 155.477 182.839 154.877 183.052 154.311C182.981 154.452 183.087 154.24 183.087 154.24C183.122 154.17 183.158 154.099 183.193 154.028C183.264 153.922 183.334 153.816 183.405 153.71C183.299 153.852 183.44 153.675 183.476 153.64L183.617 153.463L183.758 153.321C183.582 153.498 183.758 153.321 183.794 153.286C183.829 153.251 183.97 153.18 184.006 153.145C184.147 153.039 183.829 153.215 183.97 153.145C184.006 153.145 184.076 153.109 184.112 153.074C184.218 153.039 184.395 153.003 184.182 153.039C184.288 153.003 184.395 153.003 184.501 153.003C184.677 152.968 184.324 153.003 184.465 153.003C184.501 153.003 184.571 153.003 184.607 153.003C184.642 153.003 184.925 153.074 184.677 153.003C184.854 153.039 185.066 153.109 185.243 153.18C185.278 153.18 185.419 153.286 185.243 153.18L185.384 153.251C185.49 153.321 185.561 153.357 185.667 153.428C185.844 153.569 186.056 153.71 186.197 153.887C186.232 153.922 186.444 154.134 186.338 154.028C186.444 154.134 186.515 154.24 186.621 154.311C186.798 154.523 186.974 154.735 187.151 154.947C188.671 156.926 189.66 159.153 190.615 161.45C191.215 162.934 191.781 164.419 192.276 165.938C192.558 166.893 194.184 166.15 193.901 165.267C193.477 163.889 192.947 162.546 192.417 161.203C191.427 158.764 190.332 156.255 188.742 154.134C187.575 152.544 185.702 150.706 183.582 151.731C180.648 153.145 180.754 156.891 181.249 159.612C181.744 162.086 182.521 164.454 183.617 166.716L184.571 165.444L173.792 164.595C172.484 164.489 171.177 164.419 169.869 164.277C166.9 163.924 163.508 164.56 161.175 166.539C160.362 167.211 159.443 168.2 159.443 169.331C159.443 170.462 160.645 170.922 161.635 170.957L161.034 170.321C161.069 170.886 161.21 171.416 161.493 171.911C162.094 172.865 163.225 172.653 164.038 172.088L162.801 171.84C163.366 173.183 164.78 173.996 166.229 173.855C167.996 173.572 169.551 172.618 170.576 171.204L169.445 171.699C170.682 172.194 171.919 172.618 173.191 172.971C176.019 173.855 178.952 174.456 181.921 174.774C183.582 174.951 185.243 175.021 186.939 174.915C188.353 174.845 189.731 174.668 191.003 173.961C192.841 172.936 193.795 171.063 194.043 169.049C194.219 167.812 194.149 166.575 193.901 165.373C193.654 164.242 192.064 164.984 192.276 165.868Z" fill="#171717"/>
<path d="M170.22 170.321C170.114 169.932 169.867 169.649 169.513 169.473C168.559 168.942 167.499 169.296 166.686 169.861L166.015 170.285L167.605 170.674L167.464 168.836C167.464 168.695 167.216 168.518 167.11 168.448C166.898 168.342 166.686 168.271 166.439 168.271C166.227 168.271 166.05 168.306 165.873 168.412C165.767 168.518 165.697 168.66 165.732 168.801L165.873 170.639C165.909 170.745 165.979 170.851 166.05 170.922C166.191 171.028 166.368 171.098 166.545 171.134C166.863 171.24 167.181 171.204 167.464 171.028L167.958 170.71L168.17 170.568C168.241 170.533 168.276 170.498 168.347 170.462C168.241 170.533 168.488 170.391 168.347 170.462C168.453 170.391 168.524 170.391 168.63 170.321L168.771 170.285C168.948 170.25 168.665 170.321 168.701 170.285L168.913 170.25C168.63 170.285 168.736 170.25 168.807 170.25C168.877 170.25 168.983 170.25 168.771 170.25C168.559 170.25 168.701 170.25 168.736 170.25C168.842 170.25 168.453 170.179 168.595 170.215C168.736 170.25 168.347 170.109 168.524 170.179C168.595 170.215 168.63 170.285 168.418 170.109L168.453 170.144L168.489 170.179C168.312 170.038 168.382 170.038 168.418 170.109C168.453 170.144 168.488 170.215 168.524 170.25L168.453 170.109C168.488 170.144 168.489 170.215 168.489 170.25C168.559 170.427 168.665 170.568 168.842 170.639C169.054 170.745 169.266 170.816 169.513 170.816C169.831 170.851 170.326 170.71 170.22 170.321Z" fill="#171717"/>
<path d="M162.307 168.977C162.272 169.013 162.272 169.083 162.272 169.119C162.237 169.296 162.201 169.508 162.201 169.684C162.237 170.356 162.449 170.992 162.767 171.557C162.837 171.734 163.014 171.875 163.191 171.946C163.403 172.052 163.65 172.052 163.862 172.017C164.074 171.982 164.251 171.875 164.392 171.699C164.498 171.557 164.534 171.345 164.463 171.169C164.251 170.745 164.074 170.32 163.968 169.861L164.004 170.038C163.968 169.79 163.933 169.578 163.968 169.331L163.933 169.508C163.933 169.437 163.968 169.366 163.968 169.331C164.039 169.154 164.004 168.942 163.862 168.801C163.721 168.624 163.544 168.518 163.332 168.483C163.12 168.447 162.873 168.447 162.661 168.553C162.519 168.695 162.378 168.836 162.307 168.977Z" fill="#171717"/>
<path d="M190.438 149.328C194.397 141.871 190.262 137.842 186.904 136.216C183.547 134.59 180.684 135.05 179.483 136.251C178.564 137.135 178.705 144.557 178.705 144.557L182.628 152.297C182.593 152.261 187.399 154.982 190.438 149.328Z" fill="#171717"/>
<path d="M174.039 146.536C172.873 143.214 179.129 137.63 179.129 137.63C180.472 137.948 183.052 137.736 183.052 137.736C180.684 141.199 184.642 144.274 184.642 144.274C186.48 142.648 188.53 144.486 187.469 146.394C186.904 147.49 185.596 148.02 184.43 147.667C184.43 147.667 183.193 153.003 182.627 153.71C182.627 153.71 178.386 154.488 177.644 150.706C177.609 150.706 174.817 148.762 174.039 146.536Z" fill="white"/>
<path d="M174.889 146.288C174.43 144.875 175.313 143.284 176.091 142.118C176.974 140.846 177.964 139.644 179.06 138.584C179.236 138.407 179.413 138.231 179.625 138.054L179.766 137.912C179.802 137.877 179.59 138.089 179.696 137.983L178.635 138.195C180.049 138.478 181.533 138.513 182.982 138.337L182.24 137.7C181.251 139.185 181.215 141.129 182.134 142.648C182.594 143.496 183.23 144.203 183.972 144.804C184.29 145.051 184.926 144.875 185.174 144.663C185.633 144.274 186.092 144.097 186.552 144.627C186.976 145.193 186.976 145.97 186.552 146.536C186.411 146.748 186.199 146.96 185.986 147.101C185.916 147.172 185.81 147.207 185.704 147.207C185.527 147.243 185.739 147.207 185.668 147.207L185.492 147.243C185.315 147.243 185.527 147.243 185.456 147.243C185.386 147.243 185.35 147.243 185.28 147.243C185.209 147.243 184.926 147.207 185.138 147.243C185.068 147.243 184.962 147.207 184.891 147.207C184.396 147.066 183.654 147.313 183.548 147.843C183.336 148.727 183.124 149.646 182.876 150.529C182.7 151.166 182.523 151.837 182.311 152.473C182.24 152.721 182.134 152.968 182.064 153.215C182.028 153.321 181.993 153.427 181.922 153.533C181.852 153.639 181.745 153.816 181.887 153.604L182.664 153.215C182.558 153.251 182.488 153.251 182.382 153.251C182.276 153.251 182.205 153.251 182.099 153.286C181.993 153.321 181.816 153.286 182.064 153.286H181.852C181.215 153.286 180.579 153.145 180.014 152.862C179.236 152.403 178.706 151.66 178.529 150.812C178.459 150.529 178.282 150.317 178.035 150.176C177.752 149.964 177.469 149.717 177.186 149.469C176.232 148.515 175.313 147.525 174.889 146.288C174.606 145.582 172.945 146.076 173.193 146.783C173.864 148.586 175.419 150.141 176.974 151.201L176.798 150.954C177.01 152.226 177.823 153.286 178.953 153.852C179.872 154.276 180.897 154.452 181.922 154.382C182.134 154.382 182.311 154.346 182.523 154.311C183.053 154.24 183.477 153.852 183.654 153.357C184.043 152.296 184.396 151.201 184.643 150.105C184.856 149.257 185.068 148.409 185.28 147.561L183.937 148.197C185.704 148.727 187.577 147.879 188.39 146.253C188.849 145.228 188.637 144.027 187.683 143.39C186.552 142.648 185.032 143.072 184.078 143.885L185.315 143.744C185.174 143.638 185.386 143.815 185.244 143.708C185.103 143.602 184.962 143.461 184.856 143.32C184.467 142.896 184.078 142.472 183.795 141.977C182.982 140.669 183.018 139.008 183.866 137.771C184.184 137.276 183.442 137.1 183.124 137.135C182.099 137.241 181.039 137.241 180.014 137.135C179.59 137.1 179.166 136.958 178.741 137.17C178.6 137.241 178.459 137.347 178.353 137.453C178.176 137.63 177.999 137.771 177.823 137.948C176.232 139.503 174.713 141.235 173.723 143.249C173.193 144.309 172.804 145.617 173.193 146.783C173.405 147.49 175.101 146.995 174.889 146.288Z" fill="#171717"/>
<path d="M181.144 146.147C181.109 146.359 181.038 146.607 180.968 146.819L181.038 146.642C180.968 146.819 180.862 146.995 180.72 147.172L180.826 147.031C180.755 147.101 180.72 147.137 180.649 147.207L180.826 147.101C180.791 147.137 180.72 147.172 180.685 147.172L180.862 147.101C180.826 147.101 180.791 147.137 180.72 147.137L180.932 147.101C180.897 147.101 180.862 147.101 180.791 147.101L181.038 147.137C181.003 147.137 180.932 147.137 180.897 147.101L181.109 147.172C181.038 147.137 180.968 147.101 180.897 147.066L181.074 147.172C180.968 147.101 180.897 147.031 180.791 146.96C180.614 146.819 180.367 146.748 180.119 146.748C179.907 146.748 179.695 146.819 179.554 146.96C179.413 147.066 179.342 147.278 179.377 147.455C179.413 147.631 179.554 147.808 179.695 147.95C180.331 148.515 181.392 148.727 182.063 148.126C182.417 147.773 182.664 147.313 182.77 146.819C182.805 146.713 182.805 146.607 182.841 146.536C182.911 146.112 182.487 145.758 182.098 145.688C181.886 145.652 181.639 145.652 181.427 145.758C181.321 145.829 181.18 145.97 181.144 146.147Z" fill="#171717"/>
<path d="M178.635 142.047C177.681 142.26 176.691 142.366 175.737 142.295C172.45 142.154 171.849 143.178 172.698 143.991C173.546 144.804 177.999 145.264 177.999 145.264" fill="white"/>
<path d="M178.849 141.871C178.849 141.871 179.131 141.8 178.99 141.835C178.849 141.871 179.131 141.8 178.955 141.835C178.707 141.871 178.495 141.906 178.248 141.941C177.4 142.012 176.587 141.977 175.739 141.977C174.996 141.977 174.254 142.083 173.512 142.295C172.947 142.472 172.169 142.648 171.745 143.108C171.321 143.567 171.674 144.168 172.134 144.451C172.982 144.91 174.007 145.087 174.926 145.228C175.668 145.37 176.445 145.476 177.188 145.546C177.541 145.546 177.93 145.44 178.248 145.299C178.425 145.264 178.566 145.193 178.743 145.087C178.778 145.087 178.919 144.981 178.813 144.981C177.294 144.875 175.774 144.592 174.325 144.133C173.866 143.956 173.123 143.567 173.265 142.931C173.3 142.825 173.335 142.719 173.441 142.648C173.477 142.613 173.512 142.578 173.583 142.542C173.618 142.542 173.618 142.507 173.653 142.507C173.583 142.542 173.547 142.542 173.477 142.578C173.371 142.613 173.265 142.648 173.159 142.684C173.335 142.613 173.053 142.684 173.229 142.684C173.335 142.648 173.441 142.648 173.547 142.648C173.936 142.613 174.29 142.613 174.678 142.613C175.986 142.684 177.258 142.578 178.531 142.26C178.743 142.189 178.955 142.118 179.167 142.047C179.202 142.012 179.52 141.906 179.52 141.871C179.52 141.659 178.884 141.835 178.849 141.871Z" fill="#171717"/>
<path d="M180.649 142.047C180.402 141.977 180.155 142.083 180.084 142.33C180.084 142.366 180.084 142.366 180.049 142.401C179.943 142.896 180.543 143.002 180.755 142.613C180.897 142.436 180.826 142.189 180.685 142.083L180.649 142.047Z" fill="#171717"/>
<path d="M177.751 140.422C177.504 140.351 177.256 140.457 177.186 140.704C177.186 140.74 177.186 140.74 177.186 140.775C177.08 141.27 177.716 141.376 177.893 140.987C178.034 140.81 177.999 140.563 177.822 140.457C177.786 140.422 177.751 140.422 177.751 140.422Z" fill="#171717"/>
<path d="M176.23 150.742C175.523 150.918 174.745 150.848 174.038 150.6C173.438 150.388 172.66 150.105 172.201 149.646C172.024 149.469 171.918 149.222 171.918 148.974C171.918 148.868 171.989 148.762 171.989 148.692C171.989 148.656 172.024 148.621 172.059 148.621C171.918 148.727 171.741 148.727 171.564 148.692C171.564 148.692 171.741 148.904 171.741 148.939C171.776 149.045 171.812 149.116 171.812 149.222C171.847 149.505 171.812 149.787 171.67 150.035C171.282 150.848 170.363 151.272 169.515 150.954C168.348 150.459 167.748 149.116 167.748 147.914C167.748 147.137 165.98 147.313 165.98 148.126C165.98 149.681 166.864 151.13 168.242 151.872C169.691 152.544 171.423 152.297 172.625 151.201C173.155 150.706 173.508 150.035 173.544 149.328C173.614 148.586 173.155 147.879 172.483 147.632C171.635 147.313 170.716 147.667 170.292 148.444C169.974 149.151 170.151 149.964 170.752 150.459C171.458 151.13 172.519 151.519 173.438 151.802C174.533 152.155 175.664 152.155 176.76 151.837C177.078 151.731 177.466 151.413 177.29 151.06C177.113 150.706 176.548 150.636 176.23 150.742Z" fill="#171717"/>
<path d="M153.013 152.968C153.013 152.968 150.928 152.473 150.645 150.706C150.362 148.939 152.766 147.313 153.755 147.914C154.745 148.515 152.872 150.848 152.872 150.848" fill="white"/>
<path d="M152.658 152.261C152.517 152.226 152.376 152.155 152.234 152.12L152.058 152.049L151.952 152.014C151.81 151.943 152.058 152.084 151.916 152.014L151.704 151.908L151.563 151.837C151.457 151.766 151.669 151.908 151.528 151.802L151.422 151.731C151.28 151.625 151.563 151.872 151.422 151.731L151.386 151.696C151.315 151.625 151.351 151.66 151.422 151.731L151.386 151.696C151.315 151.625 151.351 151.625 151.422 151.766C151.386 151.731 151.386 151.696 151.351 151.66C151.386 151.696 151.492 151.837 151.351 151.66C151.245 151.484 151.386 151.802 151.316 151.625C151.28 151.59 151.28 151.519 151.28 151.484C151.174 151.06 151.245 150.6 151.457 150.211C151.846 149.434 152.588 148.833 153.436 148.621C153.613 148.586 153.754 148.586 153.931 148.621C153.86 148.621 154.037 148.656 154.072 148.656L154.001 148.621C154.107 148.692 154.037 148.656 153.825 148.444C153.789 148.409 153.401 148.02 153.436 147.843C153.436 147.843 153.471 148.056 153.471 147.95C153.471 148.02 153.471 148.126 153.436 148.197C153.401 148.374 153.33 148.55 153.259 148.727C153.012 149.292 152.694 149.787 152.305 150.247C151.987 150.635 153.224 151.872 153.436 151.625C153.86 151.095 154.214 150.529 154.496 149.893C154.673 149.505 154.708 149.045 154.567 148.621C154.32 147.95 153.683 147.278 152.941 147.172C152.482 147.137 151.987 147.278 151.598 147.525C151.103 147.808 150.715 148.197 150.432 148.656C150.114 149.151 150.008 149.717 150.079 150.282C150.22 150.989 150.538 151.66 151.033 152.155C151.669 152.897 152.482 153.427 153.436 153.71C153.789 153.781 153.648 153.392 153.542 153.215C153.436 153.003 153.295 152.827 153.118 152.685C153.012 152.544 152.835 152.438 152.694 152.367L152.658 152.261Z" fill="#171717"/>
<path d="M154.603 154.876C154.603 154.876 152.482 154.381 152.235 152.614C151.987 150.847 154.355 149.222 155.345 149.822C156.334 150.423 154.461 152.756 154.461 152.756" fill="white"/>
<path d="M154.918 154.17C155.272 154.24 155.024 154.205 154.953 154.17C154.883 154.134 154.741 154.099 154.6 154.028C154.459 153.958 154.317 153.887 154.176 153.816C153.999 153.71 154.141 153.816 154.176 153.816L154.035 153.746C153.964 153.675 153.858 153.64 153.787 153.569C153.717 153.498 153.61 153.427 153.54 153.357C153.504 153.321 153.328 153.145 153.434 153.251C153.292 153.074 153.151 152.862 153.08 152.615C153.045 152.509 153.116 152.756 153.08 152.579L153.045 152.403C153.01 152.297 153.01 152.155 153.01 152.049C153.01 152.191 153.01 152.049 153.01 152.014C153.01 151.978 153.01 151.908 153.045 151.872C153.08 151.837 153.08 151.766 153.08 151.696C153.08 151.625 153.116 151.625 153.08 151.696L153.116 151.59C153.151 151.484 153.186 151.413 153.257 151.307C153.328 151.13 153.151 151.448 153.257 151.272L153.363 151.13C153.434 151.024 153.504 150.954 153.61 150.848C153.469 150.989 153.54 150.918 153.575 150.883C153.61 150.848 153.681 150.777 153.752 150.741L153.893 150.635C153.717 150.741 154.07 150.494 153.893 150.635C153.964 150.6 154.07 150.529 154.141 150.494C154.211 150.459 154.247 150.459 154.282 150.423C154.141 150.529 154.176 150.459 154.282 150.423L154.423 150.388C154.459 150.388 154.494 150.388 154.529 150.388C154.706 150.353 154.529 150.353 154.494 150.388C154.459 150.423 154.6 150.388 154.635 150.388C154.777 150.388 154.494 150.317 154.6 150.388C154.635 150.423 154.671 150.423 154.706 150.423C154.741 150.423 154.6 150.317 154.671 150.388L154.741 150.459C154.847 150.6 154.741 150.317 154.741 150.423C154.741 150.459 154.741 150.459 154.741 150.494C154.741 150.529 154.741 150.565 154.741 150.6C154.741 150.423 154.741 150.529 154.741 150.6C154.741 150.671 154.706 150.777 154.706 150.848C154.706 150.883 154.671 150.989 154.706 150.883C154.741 150.777 154.671 150.954 154.671 150.954C154.6 151.166 154.494 151.342 154.388 151.519C154.353 151.625 154.282 151.731 154.211 151.802C154.353 151.59 154.176 151.837 154.141 151.872C154.035 152.049 153.893 152.226 153.752 152.403C153.54 152.615 153.504 152.968 153.752 153.215C153.787 153.251 153.858 153.286 153.893 153.321C154.317 153.463 154.777 153.286 155.059 152.933C155.519 152.403 155.872 151.802 156.155 151.166C156.402 150.706 156.473 150.211 156.367 149.717C156.19 149.222 155.696 148.904 155.201 148.939C153.929 148.904 152.656 149.717 151.949 150.741C151.561 151.272 151.349 151.943 151.349 152.615C151.384 153.251 151.667 153.816 152.091 154.276C152.656 154.876 153.434 155.336 154.247 155.513C154.706 155.548 155.13 155.336 155.342 154.912C155.519 154.523 155.307 154.24 154.918 154.134V154.17Z" fill="#171717"/>
<path d="M109.047 133.919C110.849 129.749 114.065 126.356 118.13 124.306C118.73 123.988 117.529 122.751 117.034 122.998C112.828 125.119 109.506 128.618 107.633 132.965C107.386 133.46 108.764 134.555 109.047 133.919Z" fill="#464646"/>
<path d="M89.0436 114.092C90.9874 109.886 94.3449 106.529 98.5505 104.514C99.5754 104.02 100.671 103.631 101.767 103.313C102.473 103.136 104.134 102.571 104.453 103.49C104.594 103.772 104.488 104.09 104.205 104.232C104.17 104.267 104.134 104.267 104.099 104.267C103.746 104.302 103.604 103.984 103.534 103.702C103.322 102.677 103.958 101.546 104.665 100.804C106.75 98.6831 109.966 98.4711 112.546 97.3048C113.5 96.8807 112.404 95.5731 111.627 95.8911C108.835 97.1634 105.477 97.3755 103.251 99.708C102.261 100.733 101.59 102.182 101.908 103.631C102.226 105.08 103.922 106.246 105.336 105.469C106.679 104.691 106.078 102.853 105.053 102.111C103.781 101.122 102.049 101.51 100.6 101.899C94.8396 103.56 90.0685 107.625 87.4886 113.032C87.3119 113.421 87.4886 113.88 87.8773 114.092C88.1954 114.375 88.8669 114.516 89.0436 114.092Z" fill="#464646"/>
<path d="M97.8793 217.184C98.1621 214.427 99.1516 211.812 100.742 209.55C101.555 208.419 102.509 207.394 103.569 206.475C104.099 206.016 104.665 205.627 105.266 205.238C105.407 205.132 105.584 205.062 105.761 205.062C105.867 205.062 106.008 205.097 105.867 204.991C106.008 205.168 106.008 205.592 106.008 205.804C105.973 207.641 104.453 208.949 103.11 209.974L103.958 210.433C104.029 210.61 104.029 210.646 104.029 210.54C104.029 210.469 104.029 210.398 104.064 210.327C104.099 210.151 104.17 210.009 104.276 209.868C104.453 209.585 104.665 209.373 104.912 209.161C105.442 208.666 106.043 208.278 106.715 207.96C107.952 207.359 109.542 206.935 110.92 207.217C111.097 207.253 111.238 207.323 111.415 207.359C111.521 207.394 111.521 207.465 111.486 207.359C111.592 207.641 111.627 207.96 111.557 208.242C111.521 208.914 111.344 209.585 111.062 210.186C110.532 211.423 109.648 212.483 108.482 213.225L109.471 213.897C109.259 213.508 109.613 212.872 109.825 212.519C110.143 212.024 110.532 211.6 111.026 211.282C112.122 210.469 113.324 209.833 114.631 209.444C115.656 209.126 117.07 208.808 118.059 209.409C118.802 209.868 118.766 210.999 118.59 211.741C118.271 213.155 117.247 214.356 116.328 215.417C115.904 215.876 117.034 217.219 117.388 216.83C118.413 215.664 119.508 214.427 119.826 212.872C120.145 211.423 119.72 209.868 118.696 208.772C117.6 207.606 116.045 207.394 114.561 207.748C112.935 208.101 111.415 208.808 110.108 209.797C109.436 210.257 108.871 210.893 108.482 211.6C108.128 212.377 108.128 213.261 108.553 214.003C108.659 214.25 109.189 214.887 109.542 214.674C110.708 213.932 111.592 212.872 112.157 211.635C112.723 210.433 113.076 208.843 112.546 207.571C111.238 204.461 106.856 205.662 104.736 207.111C103.428 207.995 102.12 209.444 103.322 210.964C103.463 211.14 103.887 211.635 104.17 211.423C105.584 210.327 106.997 209.055 107.245 207.182C107.422 205.733 106.326 202.87 104.418 203.789C103.675 204.178 103.004 204.673 102.368 205.238C101.767 205.768 101.201 206.334 100.671 206.935C99.6111 208.136 98.7629 209.515 98.0914 210.964C97.3139 212.625 96.8544 214.427 96.6777 216.265C96.7131 216.689 96.9251 217.078 97.2785 217.325C97.4552 217.466 97.8793 217.608 97.8793 217.184Z" fill="#464646"/>
<path d="M232.728 219.184C232.445 216.427 231.456 213.812 229.865 211.55C229.053 210.419 228.098 209.394 227.038 208.475C226.508 208.016 225.942 207.627 225.342 207.238C225.2 207.132 225.024 207.062 224.847 207.062C224.741 207.062 224.6 207.097 224.741 206.991C224.6 207.168 224.6 207.592 224.6 207.804C224.635 209.641 226.155 210.949 227.498 211.974L226.649 212.433C226.579 212.61 226.579 212.646 226.579 212.54C226.579 212.469 226.579 212.398 226.543 212.327C226.508 212.151 226.437 212.009 226.331 211.868C226.155 211.585 225.942 211.373 225.695 211.161C225.165 210.666 224.564 210.278 223.893 209.96C222.656 209.359 221.065 208.935 219.687 209.217C219.51 209.253 219.369 209.323 219.192 209.359C219.086 209.394 219.086 209.465 219.122 209.359C219.016 209.641 218.98 209.96 219.051 210.242C219.086 210.914 219.263 211.585 219.546 212.186C220.076 213.423 220.959 214.483 222.126 215.225L221.136 215.897C221.348 215.508 220.995 214.872 220.783 214.519C220.465 214.024 220.076 213.6 219.581 213.282C218.485 212.469 217.284 211.833 215.976 211.444C214.951 211.126 213.538 210.808 212.548 211.409C211.806 211.868 211.841 212.999 212.018 213.741C212.336 215.155 213.361 216.356 214.28 217.417C214.704 217.876 213.573 219.219 213.22 218.83C212.195 217.664 211.099 216.427 210.781 214.872C210.463 213.423 210.887 211.868 211.912 210.772C213.007 209.606 214.562 209.394 216.047 209.748C217.673 210.101 219.192 210.808 220.5 211.797C221.171 212.257 221.737 212.893 222.126 213.6C222.479 214.377 222.479 215.261 222.055 216.003C221.949 216.25 221.419 216.887 221.065 216.674C219.899 215.932 219.016 214.872 218.45 213.635C217.885 212.433 217.531 210.843 218.061 209.571C219.369 206.461 223.751 207.662 225.872 209.111C227.179 209.995 228.487 211.444 227.285 212.964C227.144 213.14 226.72 213.635 226.437 213.423C225.024 212.327 223.61 211.055 223.363 209.182C223.186 207.733 224.281 204.87 226.19 205.789C226.932 206.178 227.604 206.673 228.24 207.238C228.84 207.768 229.406 208.334 229.936 208.935C230.996 210.136 231.845 211.515 232.516 212.964C233.294 214.625 233.753 216.427 233.93 218.265C233.894 218.689 233.682 219.078 233.329 219.325C233.152 219.466 232.728 219.608 232.728 219.184Z" fill="#464646"/>
<path d="M76.8852 216.018C76.5671 213.932 76.9205 211.812 77.8747 209.904C78.3342 208.985 78.935 208.136 79.6065 207.394C79.9599 207.005 80.3133 206.687 80.7374 206.369C81.1261 206.016 81.5502 205.733 82.045 205.521L81.1615 205.663H81.3029L80.8788 205.627C81.3735 205.804 81.6563 206.581 81.7976 207.041C81.939 207.536 81.9743 208.03 81.939 208.525C81.8683 209.585 81.3382 210.61 80.49 211.282L82.2217 211.034C81.5856 209.833 82.3631 208.561 83.3527 207.818C83.8828 207.43 84.4483 207.112 85.0137 206.829C85.4025 206.617 85.8973 206.334 86.3567 206.405C87.629 206.546 88.2651 207.818 88.4419 208.949C88.8306 211.494 87.7704 214.038 85.7205 215.558C85.4378 215.77 85.9679 215.77 86.074 215.735C86.4981 215.735 86.8868 215.664 87.2402 215.452C89.4314 213.826 90.7391 210.893 90.0676 208.172C89.9262 207.536 89.5728 206.935 89.078 206.475C88.5479 206.051 87.8764 205.839 87.1696 205.875C85.4732 205.875 83.9181 206.581 82.5045 207.394C81.1968 208.172 79.6065 209.621 80.4547 211.282C80.5607 211.459 81.0908 211.353 81.2322 211.317C81.5502 211.282 81.8683 211.176 82.151 210.999C83.1406 210.151 83.7061 208.914 83.6354 207.606C83.6354 206.97 83.4587 206.334 83.1406 205.769C82.9992 205.486 82.7872 205.238 82.5045 205.097C81.9743 204.991 81.4089 205.062 80.9141 205.274C80.2426 205.556 79.6065 205.91 79.0763 206.405C78.5109 206.829 78.0161 207.324 77.5566 207.854C76.6731 208.914 75.9663 210.116 75.5422 211.423C75.012 212.943 74.8707 214.604 75.1181 216.194C75.1888 216.548 76.9558 216.265 76.8852 216.018Z" fill="#464646"/>
<path d="M124.597 215.876C124.456 214.993 124.279 214.003 124.739 213.19C125.021 212.695 125.41 212.413 125.87 212.837C126.364 213.261 126.541 213.968 126.329 214.604C126.046 215.24 125.516 215.699 124.88 215.911L125.87 216.583C127.142 214.533 129.722 213.72 131.948 214.604C132.691 214.887 133.892 213.791 132.903 213.402C129.757 212.165 125.94 213.544 124.244 216.442C123.89 217.042 124.88 217.254 125.233 217.113C126.435 216.724 127.601 215.876 128.025 214.639C128.414 213.508 127.955 212.271 126.965 211.635C125.799 210.928 124.315 211.388 123.466 212.377C122.512 213.508 122.689 214.993 122.901 216.371C122.972 216.795 123.643 216.795 123.926 216.724C124.315 216.618 124.597 216.265 124.597 215.876Z" fill="#464646"/>
<path d="M244.412 212.876C244.553 211.993 244.73 211.003 244.27 210.19C243.987 209.695 243.599 209.413 243.139 209.837C242.644 210.261 242.468 210.968 242.68 211.604C242.963 212.24 243.493 212.699 244.129 212.911L243.139 213.583C241.867 211.533 239.287 210.72 237.06 211.604C236.318 211.887 235.117 210.791 236.106 210.402C239.252 209.165 243.069 210.544 244.765 213.442C245.118 214.042 244.129 214.254 243.775 214.113C242.574 213.724 241.407 212.876 240.983 211.639C240.595 210.508 241.054 209.271 242.044 208.635C243.21 207.928 244.694 208.388 245.542 209.377C246.497 210.508 246.32 211.993 246.108 213.371C246.037 213.795 245.366 213.795 245.083 213.724C244.694 213.618 244.412 213.265 244.412 212.876Z" fill="#464646"/>
</svg>
