<svg width="58" height="41" viewBox="0 0 58 41" fill="none" xmlns="http://www.w3.org/2000/svg">
<path d="M29.2529 0.918457C41.2237 0.918457 48.6808 1.37538 51.624 2.17529C54.1955 2.88958 55.8531 4.54722 56.5674 7.11865C56.9388 8.46149 57.1958 10.2618 57.3672 12.5474C57.5672 14.8328 57.6533 16.804 57.6533 18.5181L57.8242 20.9185C57.8242 27.1755 57.3674 31.7754 56.5674 34.7183C55.8531 37.2897 54.1955 38.9473 51.624 39.6616C50.2811 40.033 47.8237 40.29 44.0527 40.4614C40.3386 40.6614 36.9387 40.7466 33.7959 40.7466L29.2529 40.9185C17.2819 40.9185 9.82486 40.4616 6.88184 39.6616C4.31041 38.9473 2.65276 37.2897 1.93848 34.7183C1.56709 33.3754 1.31009 31.5751 1.13867 29.2896C0.938708 27.0042 0.853529 25.033 0.853516 23.3188L0.681641 20.9185C0.681641 14.6615 1.13852 10.0615 1.93848 7.11865C2.65276 4.54722 4.31041 2.88958 6.88184 2.17529C8.22475 1.8039 10.6819 1.54691 14.4531 1.37549C18.1673 1.1755 21.5672 1.09034 24.71 1.09033L29.2529 0.918457ZM23.5391 29.4897L38.3672 20.9185L23.5391 12.3472V29.4897Z" fill="white"/>
<path d="M29.2529 0.918457C41.2237 0.918457 48.6808 1.37538 51.624 2.17529C54.1955 2.88958 55.8531 4.54722 56.5674 7.11865C56.9388 8.46149 57.1958 10.2618 57.3672 12.5474C57.5672 14.8328 57.6533 16.804 57.6533 18.5181L57.8242 20.9185C57.8242 27.1755 57.3674 31.7754 56.5674 34.7183C55.8531 37.2897 54.1955 38.9473 51.624 39.6616C50.2811 40.033 47.8237 40.29 44.0527 40.4614C40.3386 40.6614 36.9387 40.7466 33.7959 40.7466L29.2529 40.9185C17.2819 40.9185 9.82486 40.4616 6.88184 39.6616C4.31041 38.9473 2.65276 37.2897 1.93848 34.7183C1.56709 33.3754 1.31009 31.5751 1.13867 29.2896C0.938708 27.0042 0.853529 25.033 0.853516 23.3188L0.681641 20.9185C0.681641 14.6615 1.13852 10.0615 1.93848 7.11865C2.65276 4.54722 4.31041 2.88958 6.88184 2.17529C8.22475 1.8039 10.6819 1.54691 14.4531 1.37549C18.1673 1.1755 21.5672 1.09034 24.71 1.09033L29.2529 0.918457ZM23.5391 29.4897L38.3672 20.9185L23.5391 12.3472V29.4897Z" stroke="white"/>
</svg>
