<svg width="438" height="60" viewBox="0 0 438 60" fill="none" xmlns="http://www.w3.org/2000/svg">
<path fill-rule="evenodd" clip-rule="evenodd" d="M68.0428 18.1816C68.1568 18.2196 69.4871 20.9371 71.0264 24.2247C72.5656 27.5124 74.1619 30.952 74.58 31.9022C74.9981 32.8524 75.4352 33.8596 75.7773 34.7527L76.1193 33.9926C76.2904 33.5745 77.9627 29.9068 79.825 25.821C81.6874 21.7353 83.2837 18.3336 83.3977 18.2386C83.5117 18.1436 83.6067 18.0866 83.6447 18.1436C83.6637 18.1816 84.842 23.2176 86.2482 29.3367C87.6735 35.4559 88.8517 40.6248 88.8897 40.8339C88.9467 41.1949 88.8327 41.2139 85.5261 41.2139L84.2528 35.5129C83.5497 32.3773 82.9226 29.2987 82.7136 27.5314L82.2955 28.6716C82.0674 29.2987 80.5282 32.5293 78.8938 35.8549C77.2595 39.1616 75.8723 41.8791 75.7773 41.8791C75.7012 41.8791 74.333 39.1616 72.7557 35.8359C71.1594 32.5293 69.6581 29.3367 68.936 27.7214L68.8029 28.4815C68.7269 28.8996 68.1188 31.7692 67.4537 34.8477C66.7886 37.9263 66.1994 40.6438 66.1424 40.8909C66.0474 41.29 65.9714 41.309 64.3751 41.271C62.8548 41.2139 62.7218 41.1759 62.7598 40.8339C62.7788 40.6248 63.919 35.4369 65.3253 29.2797C66.7506 22.9515 67.9288 18.1436 68.0428 18.1816ZM118.212 18.2576C118.839 18.3146 119.866 18.4667 120.493 18.6187C121.12 18.7707 122.279 19.2078 123.058 19.5879C124.084 20.101 124.883 20.6901 125.928 21.7163C126.878 22.6855 127.581 23.6166 128.037 24.4908C128.417 25.2319 128.873 26.3341 129.063 26.9613C129.31 27.7594 129.405 28.7096 129.405 30.0969C129.386 31.7502 129.31 32.3393 128.873 33.6125C128.588 34.4487 128.075 35.5699 127.752 36.083C127.429 36.6151 126.764 37.4512 126.289 37.9643C125.814 38.4774 124.787 39.3136 124.008 39.8267C123.191 40.3588 121.918 40.9669 121.063 41.252C119.885 41.632 119.124 41.727 117.642 41.746C116.597 41.7651 115.267 41.651 114.697 41.518C114.126 41.385 112.929 40.9289 112.036 40.4918C110.744 39.8837 110.098 39.4086 108.882 38.1924C107.703 37.0142 107.171 36.311 106.658 35.2278C106.278 34.4487 105.841 33.1374 105.67 32.3203C105.518 31.5221 105.385 30.4769 105.385 30.0018C105.385 29.5267 105.518 28.4815 105.689 27.6644C105.841 26.8662 106.278 25.574 106.639 24.8329C107.076 23.8827 107.703 23.0085 108.596 22.0773C109.319 21.3172 110.402 20.386 111.029 20.025C111.637 19.6639 112.663 19.1698 113.309 18.9417C113.974 18.6947 115.077 18.4286 115.78 18.3336C116.502 18.2386 117.585 18.2006 118.212 18.2576ZM113.746 22.5904C113.385 22.7615 112.701 23.2366 112.245 23.6166C111.77 23.9967 111.105 24.7188 110.763 25.2509C110.421 25.783 109.965 26.7522 109.756 27.4363C109.528 28.1775 109.376 29.2037 109.376 30.0018C109.376 30.8 109.528 31.8262 109.756 32.5673C109.965 33.2514 110.421 34.2396 110.763 34.7527C111.105 35.2848 111.77 36.026 112.245 36.406C112.701 36.7861 113.594 37.3372 114.222 37.6413C115.248 38.1164 115.552 38.1734 117.452 38.1734C119.466 38.1734 119.6 38.1544 120.873 37.5082C121.633 37.1282 122.602 36.444 123.153 35.8929C123.666 35.3608 124.331 34.4677 124.616 33.8976C124.883 33.3275 125.206 32.4723 125.32 31.9972C125.434 31.5221 125.529 30.629 125.529 30.0018C125.529 29.3747 125.434 28.4815 125.32 28.0065C125.206 27.5314 124.883 26.6762 124.616 26.1061C124.331 25.536 123.666 24.6428 123.153 24.0917C122.545 23.4646 121.728 22.8755 120.873 22.4764C119.695 21.9253 119.333 21.8303 117.737 21.7923C116.616 21.7543 115.647 21.8303 115.172 21.9823C114.754 22.1343 114.107 22.4004 113.746 22.5904ZM148.884 18.5237C149.15 18.7707 152.533 22.0203 156.409 25.745C160.267 29.4697 163.669 32.8334 163.954 33.2134C164.258 33.5935 164.581 33.8976 164.676 33.8976C164.79 33.8976 164.866 31.2371 164.866 18.6947H168.287V30.1919C168.287 37.6603 168.23 41.727 168.097 41.7841C168.002 41.8411 164.429 38.5154 160.153 34.4107C155.896 30.3059 152.248 26.6952 151.659 25.821L151.469 41.2139H148.238L148.181 29.9068C148.162 23.6926 148.2 18.4857 148.276 18.3336C148.39 18.1246 148.504 18.1626 148.884 18.5237ZM4.28577 18.6947H7.89645V37.8883H16.068L15.973 41.2139L4.28577 41.309V18.6947ZM33.5513 18.6947H46.0937V21.9253H37.352V27.4363H46.0937V30.667H37.352V37.8883H46.0937L45.9986 41.2139H33.6463L33.5513 18.6947ZM213.99 18.7897C214.617 18.8467 215.492 18.9988 215.948 19.1698C216.385 19.3218 217.05 19.6829 217.43 19.9869C217.81 20.272 218.323 20.9371 218.57 21.4502C218.893 22.1343 219.026 22.7045 219.026 23.4456C219.007 24.0157 218.893 24.7568 218.779 25.0989C218.646 25.422 218.285 26.0871 217.943 26.5622C217.601 27.0373 216.727 27.8354 214.712 29.2417L219.311 34.4867L219.862 33.9546C220.147 33.6695 220.794 32.8714 222.162 31.009L224.347 33.3275L224.024 33.9166C223.834 34.2396 223.169 35.0568 221.402 36.9571L221.801 37.3752C222.01 37.6033 222.846 38.5154 223.644 39.4086C224.442 40.3018 225.05 41.0809 224.974 41.1759C224.917 41.252 223.986 41.309 221.022 41.328L219.121 39.1806L217.886 39.9597C217.202 40.3968 216.176 40.9479 215.606 41.1759C214.731 41.518 214.18 41.594 212.28 41.594C210.228 41.594 209.905 41.537 208.954 41.0999C208.384 40.8339 207.548 40.2828 207.092 39.8647C206.636 39.4656 206.028 38.6485 205.762 38.0784C205.325 37.2042 205.249 36.7861 205.249 35.4179C205.249 34.2016 205.344 33.5935 205.648 32.9474C205.857 32.4723 206.408 31.6741 206.883 31.161C207.339 30.667 208.251 29.8498 210.076 28.4815L209.315 27.6264C208.897 27.1513 208.365 26.3912 208.137 25.9161C207.852 25.3079 207.738 24.6998 207.738 23.8257C207.738 22.8945 207.852 22.3624 208.213 21.6593C208.46 21.1462 208.973 20.481 209.334 20.177C209.696 19.8919 210.304 19.5119 210.665 19.3408C211.026 19.1698 211.672 18.9607 212.09 18.8657C212.508 18.7897 213.363 18.7517 213.99 18.7897ZM211.558 22.6855C211.387 23.0085 211.235 23.5596 211.235 23.9207C211.235 24.4148 211.463 24.8899 212.09 25.726L212.945 26.8662C214.028 26.2011 214.579 25.726 214.883 25.403C215.321 24.8899 215.416 24.6048 215.416 23.8257C215.416 23.0275 215.321 22.7805 214.845 22.3054C214.37 21.8303 214.123 21.7353 213.382 21.7353C212.888 21.7353 212.337 21.8303 212.166 21.9443C211.995 22.0393 211.729 22.3814 211.558 22.6855ZM209.144 33.7075C208.935 34.1256 208.764 34.8097 208.764 35.2278C208.764 35.6459 208.878 36.273 209.03 36.6151C209.163 36.9381 209.581 37.5082 209.981 37.8503C210.361 38.1924 210.969 38.5154 211.387 38.5724C211.767 38.6485 212.47 38.6675 212.945 38.6105C213.42 38.5724 214.275 38.3064 214.845 38.0213C215.416 37.7553 216.138 37.3182 216.423 37.0902L216.974 36.6531C213.534 32.6813 212.432 31.4271 212.299 31.2941C212.128 31.104 211.805 31.2751 210.798 31.9972C209.981 32.6053 209.391 33.2134 209.144 33.7075ZM265.737 18.7327C268.968 18.8087 270.298 18.9037 271.001 19.1318C271.533 19.3028 272.331 19.7589 272.787 20.158C273.244 20.5571 273.833 21.3552 274.118 21.9253C274.555 22.8565 274.612 23.1985 274.612 24.9849C274.612 26.8282 274.574 27.0753 274.042 28.1015C273.681 28.8236 273.167 29.4507 272.616 29.8688C272.141 30.2109 271.343 30.6289 270.811 30.781C270.298 30.933 268.74 31.123 264.825 31.3321L264.73 41.2139H261.309L261.271 30.1919C261.233 24.1297 261.271 19.0558 261.328 18.9037C261.423 18.6947 262.24 18.6757 265.737 18.7327ZM265.015 28.0065C267.732 27.9875 268.683 27.8734 269.272 27.6644C269.994 27.4173 270.298 27.1893 270.564 26.6762C270.754 26.3151 270.906 25.65 270.906 25.2129C270.906 24.7568 270.792 24.1107 270.659 23.7877C270.507 23.4456 270.203 22.9895 269.956 22.7805C269.728 22.5714 269.006 22.2864 268.36 22.1724C267.732 22.0393 266.706 21.9253 266.117 21.9253H265.015V28.0065ZM292.57 18.6947H305.113V21.9253H296.371V27.4363H305.113V30.667H296.371V37.8883H305.113V41.309L292.665 41.2139L292.57 18.6947ZM328.373 18.7517C331.756 18.8087 332.972 18.9037 333.618 19.1318C334.093 19.3028 334.853 19.7779 335.309 20.158C335.765 20.5571 336.354 21.3362 336.639 21.9253C337.077 22.8565 337.134 23.1985 337.134 24.9849C337.134 26.8282 337.096 27.0753 336.563 28.1015C336.202 28.8236 335.689 29.4507 335.138 29.8688C334.682 30.2109 333.865 30.6289 333.333 30.781C332.82 30.933 331.261 31.123 327.366 31.3321L327.252 41.2139H323.831L323.793 30.1919C323.755 24.1297 323.793 19.0558 323.85 18.9037C323.945 18.6947 324.762 18.6757 328.373 18.7517ZM327.537 28.0065C330.254 27.9875 331.223 27.8734 331.813 27.6644C332.573 27.4173 332.839 27.1893 333.105 26.6762C333.276 26.3151 333.428 25.65 333.428 25.1939C333.428 24.7568 333.314 24.1107 333.181 23.7687C333.029 23.4456 332.725 22.9895 332.478 22.7805C332.25 22.5714 331.527 22.2864 330.9 22.1724C330.254 22.0393 329.228 21.9253 328.639 21.9253H327.537V28.0065ZM355.092 18.6947H358.76C360.774 18.6947 362.94 18.7897 363.606 18.8847C364.252 18.9988 365.107 19.2268 365.506 19.4358C365.886 19.6259 366.513 20.082 366.855 20.424C367.216 20.7851 367.729 21.5452 367.995 22.1153C368.394 22.9895 368.489 23.4456 368.489 24.7758C368.489 25.8971 368.375 26.7142 368.128 27.4363C367.881 28.1585 367.463 28.7856 366.798 29.4507C366.076 30.1729 365.563 30.4959 364.784 30.743C364.195 30.914 362.617 31.123 358.513 31.3321V41.309L355.187 41.2139L355.092 18.6947ZM358.893 28.0065C362.218 27.9114 362.978 27.7974 363.416 27.5694C363.758 27.3983 364.157 27.0563 364.328 26.8092C364.499 26.5622 364.632 25.9351 364.632 25.2509C364.651 24.5478 364.537 23.8827 364.347 23.4836C364.138 23.0655 363.739 22.7425 363.13 22.4764C362.541 22.2104 361.667 22.0393 360.603 21.9633L358.969 21.8683L358.893 28.0065ZM398.99 18.6947V21.9253H390.059V27.4363H398.99V30.667H390.059V37.8883H398.99L398.895 41.2139H386.353L386.296 30.1919C386.277 24.1297 386.296 19.0558 386.334 18.9417C386.41 18.7517 387.854 18.6947 398.99 18.6947ZM417.652 18.6567L421.662 18.7517C424.816 18.8087 425.918 18.9037 426.735 19.1698C427.382 19.3788 428.085 19.7969 428.636 20.31C429.092 20.7471 429.681 21.5452 429.909 22.0963C430.156 22.6284 430.403 23.5976 430.46 24.2627C430.536 25.0039 430.498 25.8971 430.327 26.6762C430.175 27.3603 429.833 28.2725 429.529 28.7286C429.244 29.1657 428.598 29.7928 428.104 30.0969C427.61 30.4199 426.869 30.743 426.469 30.819C426.07 30.895 425.709 31.009 425.652 31.104C425.614 31.1801 427.249 33.4415 429.282 36.14C431.315 38.8195 432.931 41.0809 432.855 41.1759C432.779 41.252 431.866 41.29 428.921 41.2139L425.215 36.235C423.163 33.4985 421.395 31.2561 421.262 31.2371C421.072 31.2371 421.034 32.3773 421.034 41.309L417.709 41.2139L417.652 18.6567ZM421.414 28.1965C423.315 28.1965 424.265 28.1015 424.759 27.9684C425.291 27.8164 425.823 27.5124 426.089 27.2083C426.336 26.9233 426.583 26.3151 426.64 25.8781C426.716 25.422 426.659 24.6808 426.545 24.2057C426.412 23.7497 426.165 23.1985 425.994 22.9895C425.823 22.7995 425.405 22.5144 425.063 22.3814C424.721 22.2294 423.771 22.0583 422.954 22.0013L421.471 21.8683L421.414 28.1965Z" fill="white"/>
</svg>
